<?xml version="1.0" encoding="UTF-8" standalone="no"?>
<!DOCTYPE svg PUBLIC "-//W3C//DTD SVG 1.1//EN" "http://www.w3.org/Graphics/SVG/1.1/DTD/svg11.dtd">
<svg xmlns="http://www.w3.org/2000/svg" xmlns:xlink="http://www.w3.org/1999/xlink" version="1.1" width="595.276pt" height="841.89pt" viewBox="0 0 595.276 841.89">
<g enable-background="new">
<text xml:space="preserve" transform="matrix(1 0 -0 1 0 841.89)" font-size="24.78705" font-family="LMRoman17"><tspan y="-754.965" x="56.693 79.42273 97.26941 109.93559 119.99914 126.1959 132.39267 142.4562 154.47794 167.14412">3Quellcode</tspan></text>
<text xml:space="preserve" transform="matrix(1 0 -0 1 0 841.89)" font-size="11.95517" font-family="LMRoman12"><tspan y="-715.6" x="56.693 65.63547 68.887279 78.67856 82.25315 88.11118 91.36299 97.22102 102.421527 108.92514 115.42876 120.62926 131.72367 140.49877 147.00238 151.61708 156.4948 162.99842 169.50203 172.75383 177.30875 181.86367 191.65496 198.48136 203.68186 206.93366 213.43727 219.94089 225.79892 229.05072 233.60564 238.80614 249.90055 256.40415 261.60466 272.69905 275.95085 287.04524">DiefolgendenAbschnittebeinhaltendeninC</tspan></text>
<text xml:space="preserve" transform="matrix(1 0 -0 1 0 841.89)" font-size="11.95517" font-family="LMMono12"><tspan y="-715.6" x="295.507 301.6639">++</tspan></text>
<text xml:space="preserve" transform="matrix(1 0 -0 1 0 841.89)" font-size="11.95517" font-family="LMRoman12"><tspan y="-715.6" x="312.403 315.65483 325.41026 331.91386 335.16566 340.36616 350.12159 355.32209 361.5029 366.05784 369.30964 374.51014 379.06507 383.62 388.8205 399.90293 407.86506 412.41999 418.278 424.13606 428.69099 434.549 444.30445 454.05989 457.31169 462.51219 467.0671 472.2676 478.44844 484.95204 490.15254 498.00709 505.96925 515.1747 523.627 530.1306 534.68557">implementiertenProgrammiercode.Eswur-</tspan><tspan y="-701.154" x="56.693 63.196615 68.39711 78.379688 81.63149 86.83199 93.3356 96.58741 102.44544 105.69725 108.94906 113.83872 123.82129 130.3249 133.5767 142.26811 148.9391 155.44272 161.94634 168.12715 172.68207 175.93387 181.7919 188.29552 193.49602 203.47859 209.98221 216.48583 226.48035 234.44249 238.9974 244.85544 250.05594 255.25644 261.76005 268.26365 272.81858 278.01908 284.52268 291.26539 297.1234 303.627 310.6925 318.83399 324.0345 327.2863 332.164 338.6676 347.34706 350.59886 360.59336 367.09696 372.29747 382.29197 391.06706 397.57066 402.18534 407.06306 413.56666 420.07026 423.32206 427.87699 432.43193 437.63243 447.61497 453.473 456.7248 466.07374 472.57734 479.08094 489.07545 494.93348 498.18528 507.5342 515.81918 521.01968 526.22018 532.72378">denlediglichdieFunktionenundProzeduren,aufwelcheindenAbschnitten1.2und1.3Bezug</tspan><tspan y="-686.708" x="56.693 62.551034 67.75153 74.25514 80.113178 89.86859 99.62401 104.82451 114.36474 122.81705 129.32067 133.87558 140.3792 145.5797 151.8681 161.62352 164.87532 172.46685 175.71865 185.25887 191.76248 195.01428 203.25139 211.71566 218.21927 222.83397 228.692 233.24692 240.06137 245.26187 248.51367 253.06859 259.5722 266.0758 274.97047 280.8285 287.3321 290.90669 296.7647 301.9652 308.4688 314.32685 324.08229 333.8377 339.0382 345.5418 351.83024 360.7727 365.9732 373.56477 382.6746 389.1782 394.3787 397.6305 400.8823 406.0828 412.2636 418.7672 427.00434 430.57893 437.08253 444.686 451.1896 454.4414 462.67854 471.621 477.47904 482.03398 487.23448 493.41529 499.27333 504.47383 509.02876 514.8868 519.4417 526.25619 531.45669 534.7085">genommenwurde,mitindieAusarbeitungaufgenommen.DerQuellcodef&#x00fc;rdieDatenverarbei-</tspan><tspan y="-672.263" x="56.693 61.24792 67.75153 74.25514 80.113178 87.979679 94.48329 97.7351 107.55029 113.408329 117.96324 123.82127 130.32489 134.93959 139.82926 146.33287 156.14807 164.433 169.6335 175.81433 182.31795 186.87287 192.07337 197.27387 201.82878 207.68682 214.50127 219.70177 224.25669 230.7603 236.61833 241.508 248.01161 257.8268 264.3304 269.5309 277.98323 285.8497 294.31398 300.81758 305.43226 311.29029 317.14833 323.96275 333.7899 340.2935 346.7971 357.91539 366.05686 371.25736 374.50917 379.0641 384.2646 388.81953 398.62278 405.12638 410.9844 415.22853 423.35804 428.55854 435.06214 441.56575 444.81755 450.67558 460.47883 469.2539 472.5057 475.7575 479.3321 483.94679 487.52137 494.02497 500.52857 506.70939 511.2643 514.5161 520.37417 526.87777 532.07827">tung,diegra&#xfb01;scheBenutzerober&#xfb02;&#x00e4;chebzw.AusgabeundweiterenotwendigeHilfsfunktionen</tspan><tspan y="-657.817" x="56.693 63.5194 68.7199 75.22351 81.72713 88.23074 93.431247 104.035488 108.65018 111.901988 116.79165 127.39588 130.64769 141.25193 147.75554 152.95604 166.82404 175.93387 180.48879 186.9924 193.49602 198.69652 207.36402 213.86763 220.37125 223.62305 233.37847 239.88208 243.13388 248.33438 254.5152 261.0188 268.37123 277.1463 283.98466 289.18516 297.8407 304.3443 307.5961 316.90919 325.85166 331.7097 336.26463 341.46513 348.8295 355.3331 361.8367 365.0885 374.84394 381.34754 384.59934 389.79985 395.98066 399.23246 405.73606 410.291 416.14903 428.70195 431.95375 442.56993 449.07353 454.27403 468.14204 477.25187 481.8068 488.3104 494.814 500.0145 508.67005 515.17367 521.67727 524.9291 534.6845">be&#xfb01;ndensichindemOrdner&#x00bb;Simplex&#x00ab;.&#x00dc;berdieDatei&#x00bb;Simplex.pro&#x00ab;indemOrdner&#x00bb;Sim-</tspan><tspan y="-643.371" x="56.693 63.196615 66.44842 71.64892 77.82974 84.33336 91.48255 94.73436 100.59239 105.207088 109.82178 118.27408 122.88877 126.14058 131.03025 141.4193 144.6711 158.33586 167.4457 172.00061 175.898 184.3503 188.90522 194.10572 199.96375 204.51866 210.3767 218.829 225.33261 231.19065 239.70273 245.56076 250.76126 255.37596 261.234 270.67863 275.23356 284.3195 292.28163 296.83656 303.02934 306.6039 311.8044 317.98524 326.43757 332.2956 339.122 345.6256 350.8261 357.3297">plex&#x00ab;,l&#x00e4;sstsichimQt-CreatordasgesamteProjekt&#x00f6;&#xfb00;nen.</tspan></text>
<text xml:space="preserve" transform="matrix(1 0 -0 1 0 841.89)" font-size="17.21544" font-family="LMRoman17"><tspan y="-603.437" x="56.693 64.59489 68.89875 84.68531 95.496608 101.59087 105.89474 119.18506 127.086948 131.39081 138.38028 149.67362 158.4707 162.77457 176.06488 184.86197 189.16584 196.1553 204.50479 209.70386 221.63416 225.93802 233.8399 241.74179 247.83606 252.13993 258.2342 267.03129 279.8912 288.6883">3.1PrimalerSimplex-Algorithmus</tspan></text>
<text xml:space="preserve" transform="matrix(1 0 -0 1 0 841.89)" font-size="11.95517" font-family="LMRoman12"><tspan y="-568.186" x="222.493 229.80956 233.06136 237.67606 242.23097 245.48278 251.98639 261.74183 267.59986 270.85166">Listing3.1</tspan></text>
<text xml:space="preserve" transform="matrix(1 0 -0 1 0 841.89)" font-size="11.95517" font-family="LMRoman12"><tspan y="-568.186" x="276.696">:</tspan></text>
<text xml:space="preserve" transform="matrix(1 0 -0 1 0 841.89)" font-size="11.95517" font-family="LMRoman12"><tspan y="-568.186" x="283.85 291.81214 296.36708 299.61888 309.3743 315.23234 318.48414 323.68464 332.13697 338.64057 341.89237 351.6478 358.1514 361.4032 366.6037">PrimalerSimplex</tspan></text>
<path transform="matrix(1,0,0,-1,56.693,277.888)" stroke-width=".398" stroke-linecap="butt" stroke-miterlimit="10" stroke-linejoin="miter" fill="none" stroke="#000000" d="M 0 0 L 481.89 0 "/>
<text xml:space="preserve" transform="matrix(1 0 -0 1 0 841.89)" font-size="5.97758" font-family="LMRoman6"><tspan y="-552.445" x="48.059">1</tspan></text>
<text fill="#008000" xml:space="preserve" transform="matrix(1 0 -0 1 0 841.89)" font-size="9.96264" font-family="LMMono10"><tspan y="-552.445" x="82.496 88.423778">//</tspan></text>
<text fill="#008000" xml:space="preserve" transform="matrix(1 0 -0 1 0 841.89)" font-size="9.96264" font-family="LMMono10"><tspan y="-552.445" x="95.137 101.14447 107.1619">Den</tspan></text>
<text fill="#008000" xml:space="preserve" transform="matrix(1 0 -0 1 0 841.89)" font-size="9.96264" font-family="LMMono10"><tspan y="-552.445" x="120.388 126.544918 132.70183 138.86872 145.02564 151.18256 157.34944 163.50637">primalen</tspan></text>
<text fill="#008000" xml:space="preserve" transform="matrix(1 0 -0 1 0 841.89)" font-size="9.96264" font-family="LMMono10"><tspan y="-552.445" x="176.862 182.999 189.14595 195.29291 201.43987 207.58683 213.73378">Simplex</tspan></text>
<text fill="#008000" xml:space="preserve" transform="matrix(1 0 -0 1 0 841.89)" font-size="9.96264" font-family="LMMono10"><tspan y="-552.445" x="227.118 233.30481 239.49163 245.67844 251.8752 258.062 264.2488 270.4356 276.63236 282.81916 289.00596">Algorithmus</tspan></text>
<text fill="#008000" xml:space="preserve" transform="matrix(1 0 -0 1 0 841.89)" font-size="9.96264" font-family="LMMono10"><tspan y="-552.445" x="302.393 308.52998 314.6769 320.82386 326.9708 333.11775 339.26469">solange</tspan></text>
<text fill="#008000" xml:space="preserve" transform="matrix(1 0 -0 1 0 841.89)" font-size="9.96264" font-family="LMMono10"><tspan y="-552.445" x="352.649 358.8358 365.02259 371.20939 377.40614 383.59294 389.77973 395.96653 402.16328 408.35008 414.53688">wiederholen</tspan></text>
<text fill="#008000" xml:space="preserve" transform="matrix(1 0 -0 1 0 841.89)" font-size="9.96264" font-family="LMMono10"><tspan y="-552.445" x="427.793 433.80049 439.8179">bis</tspan></text>
<text fill="#008000" xml:space="preserve" transform="matrix(1 0 -0 1 0 841.89)" font-size="9.96264" font-family="LMMono10"><tspan y="-552.445" x="452.899 458.90647 464.9239">die</tspan></text>
<text fill="#008000" xml:space="preserve" transform="matrix(1 0 -0 1 0 841.89)" font-size="9.96264" font-family="CMSY10" font-style="italic"><tspan y="-552.445" x="477.22">&#x2190;</tspan></text>
<text fill="#008000" xml:space="preserve" transform="matrix(1 0 -0 1 0 841.89)" font-size="9.96264" font-family="CMMI10" font-style="italic"><tspan y="-552.445" x="485.522">&#xfffd;</tspan></text>
<text fill="#008000" xml:space="preserve" transform="matrix(1 0 -0 1 0 841.89)" font-size="9.96264" font-family="LMMono10"><tspan y="-540.49" x="102.69 108.8768 115.07356 121.270328 127.46709 133.66385 139.86061 146.05738 152.25414 158.4509 164.64766 170.84442">Basisloesung</tspan></text>
<text fill="#008000" xml:space="preserve" transform="matrix(1 0 -0 1 0 841.89)" font-size="9.96264" font-family="LMMono10"><tspan y="-540.49" x="184.235 190.372 196.51895 202.66591 208.81287 214.95983 221.10678">optimal</tspan></text>
<text fill="#008000" xml:space="preserve" transform="matrix(1 0 -0 1 0 841.89)" font-size="9.96264" font-family="LMMono10"><tspan y="-540.49" x="234.316 240.32347 246.34091">ist</tspan></text>
<text xml:space="preserve" transform="matrix(1 0 -0 1 0 841.89)" font-size="5.97758" font-family="LMRoman6"><tspan y="-528.535" x="48.059">2</tspan></text>
<text fill="#0000ff" xml:space="preserve" transform="matrix(1 0 -0 1 0 841.89)" font-size="9.96264" font-family="LMMono10"><tspan y="-528.535" x="82.671 88.768138 94.87523 100.97237 107.07946">while</tspan></text>
<text xml:space="preserve" transform="matrix(1 0 -0 1 0 841.89)" font-size="9.96264" font-family="LMMono10"><tspan y="-528.535" x="120.156 126.08377 132.91815 139.06511 145.21207 151.35903 157.50598 163.65294 169.7999 176.4649 183.12992 189.27687 195.42383 201.57079 207.71775 213.8647 220.01166 226.856 232.78379 239.22962">(!simplex.isOptim())</tspan></text>
<text xml:space="preserve" transform="matrix(1 0 -0 1 0 841.89)" font-size="5.97758" font-family="LMRoman6"><tspan y="-516.58" x="48.059">3</tspan></text>
<text xml:space="preserve" transform="matrix(1 0 -0 1 0 841.89)" font-size="9.96264" font-family="LMMono10"><tspan y="-516.58" x="82.322">{</tspan></text>
<text xml:space="preserve" transform="matrix(1 0 -0 1 0 841.89)" font-size="5.97758" font-family="LMRoman6"><tspan y="-504.625" x="48.059">4</tspan></text>
<text fill="#008000" xml:space="preserve" transform="matrix(1 0 -0 1 0 841.89)" font-size="9.96264" font-family="LMMono10"><tspan y="-504.625" x="107.603 113.53077">//</tspan></text>
<text fill="#008000" xml:space="preserve" transform="matrix(1 0 -0 1 0 841.89)" font-size="9.96264" font-family="LMMono10"><tspan y="-504.625" x="120.374 126.51099 132.65795 138.8049 144.95186 151.09882 157.24578">Schritt</tspan></text>
<text fill="#008000" xml:space="preserve" transform="matrix(1 0 -0 1 0 841.89)" font-size="9.96264" font-family="LMMono10"><tspan y="-504.625" x="170.368 176.29578">1:</tspan></text>
<text xml:space="preserve" transform="matrix(1 0 -0 1 0 841.89)" font-size="5.97758" font-family="LMRoman6"><tspan y="-492.669" x="48.059">5</tspan></text>
<text fill="#008000" xml:space="preserve" transform="matrix(1 0 -0 1 0 841.89)" font-size="9.96264" font-family="LMMono10"><tspan y="-492.669" x="107.603 113.53077">//</tspan></text>
<text fill="#008000" xml:space="preserve" transform="matrix(1 0 -0 1 0 841.89)" font-size="9.96264" font-family="LMMono10"><tspan y="-492.669" x="120.33 126.42714 132.53424 138.63138 144.73848">Suche</tspan></text>
<text fill="#008000" xml:space="preserve" transform="matrix(1 0 -0 1 0 841.89)" font-size="9.96264" font-family="LMMono10"><tspan y="-492.669" x="157.902 163.90947 169.92691">die</tspan></text>
<text fill="#008000" xml:space="preserve" transform="matrix(1 0 -0 1 0 841.89)" font-size="9.96264" font-family="LMMono10"><tspan y="-492.669" x="183.12 189.24703 195.37406 201.50109 207.62812 213.75514">Spalte</tspan></text>
<text fill="#008000" xml:space="preserve" transform="matrix(1 0 -0 1 0 841.89)" font-size="9.96264" font-family="LMMono10"><tspan y="-492.669" x="226.682">t</tspan></text>
<text fill="#008000" xml:space="preserve" transform="matrix(1 0 -0 1 0 841.89)" font-size="9.96264" font-family="LMMono10"><tspan y="-492.669" x="239.497 245.50447 251.52191">mit</tspan></text>
<text fill="#008000" xml:space="preserve" transform="matrix(1 0 -0 1 0 841.89)" font-size="9.96264" font-family="LMMono10"><tspan y="-492.669" x="264.603 270.61048 276.6279">dem</tspan></text>
<text fill="#008000" xml:space="preserve" transform="matrix(1 0 -0 1 0 841.89)" font-size="9.96264" font-family="LMMono10"><tspan y="-492.669" x="289.866 296.03288 302.2097 308.37657 314.55339 320.72026 326.89707 333.06394 339.24076">kleinsten</tspan></text>
<text fill="#008000" xml:space="preserve" transform="matrix(1 0 -0 1 0 841.89)" font-size="9.96264" font-family="LMMono10"><tspan y="-492.669" x="352.213">(</tspan></text>
<text fill="#008000" xml:space="preserve" transform="matrix(1 0 -0 1 0 841.89)" font-size="9.96264" font-family="LMMono10"><tspan y="-492.669" x="358.908 365.07487 371.25169 377.41856 383.59538 389.76225 395.93907 402.10594 408.28276">negativen</tspan></text>
<text fill="#008000" xml:space="preserve" transform="matrix(1 0 -0 1 0 841.89)" font-size="9.96264" font-family="LMMono10"><tspan y="-492.669" x="414.978">)</tspan></text>
<text fill="#008000" xml:space="preserve" transform="matrix(1 0 -0 1 0 841.89)" font-size="9.96264" font-family="LMMono10"><tspan y="-492.669" x="427.845 433.91224 439.97947 446.0467">Wert</tspan></text>
<text fill="#008000" xml:space="preserve" transform="matrix(1 0 -0 1 0 841.89)" font-size="9.96264" font-family="LMMono10"><tspan y="-492.669" x="459.088 465.01579">in</tspan></text>
<text fill="#008000" xml:space="preserve" transform="matrix(1 0 -0 1 0 841.89)" font-size="9.96264" font-family="CMSY10" font-style="italic"><tspan y="-492.669" x="477.22">&#x2190;</tspan></text>
<text fill="#008000" xml:space="preserve" transform="matrix(1 0 -0 1 0 841.89)" font-size="9.96264" font-family="CMMI10" font-style="italic"><tspan y="-492.669" x="485.522">&#xfffd;</tspan></text>
<text fill="#008000" xml:space="preserve" transform="matrix(1 0 -0 1 0 841.89)" font-size="9.96264" font-family="LMMono10"><tspan y="-480.714" x="127.821 134.03769 140.26435 146.48104 152.70769 158.92438 165.14107 171.36772 177.58441 183.81107 190.02776 196.25441 202.4711 208.69776 214.91445 221.1411 227.35779 233.58444">Kapazitaetenvektor</tspan></text>
<text fill="#008000" xml:space="preserve" transform="matrix(1 0 -0 1 0 841.89)" font-size="9.96264" font-family="LMMono10"><tspan y="-480.714" x="246.607">c</tspan></text>
<text fill="#008000" xml:space="preserve" transform="matrix(1 0 -0 1 0 841.89)" font-size="9.96264" font-family="LMMono10"><tspan y="-480.714" x="259.161">(</tspan></text>
<text fill="#008000" xml:space="preserve" transform="matrix(1 0 -0 1 0 841.89)" font-size="9.96264" font-family="LMMono10"><tspan y="-480.714" x="265.811 271.93803 278.06504 284.19206 290.31907 296.44609">stehen</tspan></text>
<text fill="#008000" xml:space="preserve" transform="matrix(1 0 -0 1 0 841.89)" font-size="9.96264" font-family="LMMono10"><tspan y="-480.714" x="309.765 315.90199 322.04893 328.19587 334.3428 340.48976 346.6367">mehrere</tspan></text>
<text fill="#008000" xml:space="preserve" transform="matrix(1 0 -0 1 0 841.89)" font-size="9.96264" font-family="LMMono10"><tspan y="-480.714" x="359.977 366.11396 372.2609 378.40785 384.55479 390.70173 396.84867">Spalten</tspan></text>
<text fill="#008000" xml:space="preserve" transform="matrix(1 0 -0 1 0 841.89)" font-size="9.96264" font-family="LMMono10"><tspan y="-480.714" x="410.059 416.06648 422.0839">mit</tspan></text>
<text fill="#008000" xml:space="preserve" transform="matrix(1 0 -0 1 0 841.89)" font-size="9.96264" font-family="LMMono10"><tspan y="-480.714" x="435.252 441.34916 447.45625 453.55339 459.66047">einem</tspan></text>
<text fill="#008000" xml:space="preserve" transform="matrix(1 0 -0 1 0 841.89)" font-size="9.96264" font-family="CMSY10" font-style="italic"><tspan y="-480.714" x="472.039">&#x2190;</tspan></text>
<text fill="#008000" xml:space="preserve" transform="matrix(1 0 -0 1 0 841.89)" font-size="9.96264" font-family="CMMI10" font-style="italic"><tspan y="-480.714" x="480.342">&#xfffd;</tspan></text>
<text fill="#008000" xml:space="preserve" transform="matrix(1 0 -0 1 0 841.89)" font-size="9.96264" font-family="LMMono10"><tspan y="-468.759" x="127.772 133.93889 140.11574 146.28263 152.45948 158.62636 164.8032 170.9701 177.14694">kleinstem</tspan></text>
<text fill="#008000" xml:space="preserve" transform="matrix(1 0 -0 1 0 841.89)" font-size="9.96264" font-family="LMMono10"><tspan y="-468.759" x="190.433 196.50026 202.56752 208.63478">Wert</tspan></text>
<text fill="#008000" xml:space="preserve" transform="matrix(1 0 -0 1 0 841.89)" font-size="9.96264" font-family="LMMono10"><tspan y="-468.759" x="221.763 227.77048 233.78792">zur</tspan></text>
<text fill="#008000" xml:space="preserve" transform="matrix(1 0 -0 1 0 841.89)" font-size="9.96264" font-family="LMMono10"><tspan y="-468.759" x="246.898 252.93537 258.98268 265.02998 271.06733 277.11463 283.16194">Auswahl</tspan></text>
<text fill="#008000" xml:space="preserve" transform="matrix(1 0 -0 1 0 841.89)" font-size="9.96264" font-family="LMMono10"><tspan y="-468.759" x="290.543">,</tspan></text>
<text fill="#008000" xml:space="preserve" transform="matrix(1 0 -0 1 0 841.89)" font-size="9.96264" font-family="LMMono10"><tspan y="-468.759" x="303.271 309.19877">so</tspan></text>
<text fill="#008000" xml:space="preserve" transform="matrix(1 0 -0 1 0 841.89)" font-size="9.96264" font-family="LMMono10"><tspan y="-468.759" x="322.299 328.42604 334.55305 340.68006 346.80708 352.93409">waehlt</tspan></text>
<text fill="#008000" xml:space="preserve" transform="matrix(1 0 -0 1 0 841.89)" font-size="9.96264" font-family="LMMono10"><tspan y="-468.759" x="366.123 372.13047 378.1479">der</tspan></text>
<text fill="#008000" xml:space="preserve" transform="matrix(1 0 -0 1 0 841.89)" font-size="9.96264" font-family="LMMono10"><tspan y="-468.759" x="391.404 397.5908 403.7776 409.9644 416.16114 422.34794 428.53474 434.72154 440.91828 447.10508 453.29188">Algorithmus</tspan></text>
<text fill="#008000" xml:space="preserve" transform="matrix(1 0 -0 1 0 841.89)" font-size="9.96264" font-family="LMMono10"><tspan y="-468.759" x="466.547 472.55448 478.5719">std</tspan></text>
<text fill="#008000" xml:space="preserve" transform="matrix(1 0 -0 1 0 841.89)" font-size="9.96264" font-family="LMMono10"><tspan y="-468.759" x="485.29 491.21778">::</tspan></text>
<text fill="#008000" xml:space="preserve" transform="matrix(1 0 -0 1 0 841.89)" font-size="9.96264" font-family="CMSY10" font-style="italic"><tspan y="-468.759" x="497.146">&#x2190;</tspan></text>
<text fill="#008000" xml:space="preserve" transform="matrix(1 0 -0 1 0 841.89)" font-size="9.96264" font-family="CMMI10" font-style="italic"><tspan y="-468.759" x="505.448">&#xfffd;</tspan></text>
<text fill="#008000" xml:space="preserve" transform="matrix(1 0 -0 1 0 841.89)" font-size="9.96264" font-family="LMMono10"><tspan y="-456.804" x="127.789 133.97582 140.16263 146.34944 152.5462 158.73302 164.91983 171.10665 177.3034 183.49022 189.67704">min_element</tspan></text>
<text fill="#008000" xml:space="preserve" transform="matrix(1 0 -0 1 0 841.89)" font-size="9.96264" font-family="LMMono10"><tspan y="-456.804" x="202.933 208.94048 214.95792">das</tspan></text>
<text fill="#008000" xml:space="preserve" transform="matrix(1 0 -0 1 0 841.89)" font-size="9.96264" font-family="LMMono10"><tspan y="-456.804" x="228.17 234.30699 240.45395 246.6009 252.74787 258.8948 265.04176">Element</tspan></text>
<text fill="#008000" xml:space="preserve" transform="matrix(1 0 -0 1 0 841.89)" font-size="9.96264" font-family="LMMono10"><tspan y="-456.804" x="278.252 284.2595 290.27693">mit</tspan></text>
<text fill="#008000" xml:space="preserve" transform="matrix(1 0 -0 1 0 841.89)" font-size="9.96264" font-family="LMMono10"><tspan y="-456.804" x="303.358 309.36549 315.3829">dem</tspan></text>
<text fill="#008000" xml:space="preserve" transform="matrix(1 0 -0 1 0 841.89)" font-size="9.96264" font-family="LMMono10"><tspan y="-456.804" x="328.621 334.78788 340.9647 347.13157 353.30839 359.47526 365.65208 371.81895 377.99577">kleineren</tspan></text>
<text fill="#008000" xml:space="preserve" transform="matrix(1 0 -0 1 0 841.89)" font-size="9.96264" font-family="LMMono10"><tspan y="-456.804" x="391.316 397.41316 403.52024 409.61738 415.72447">index</tspan></text>
<text fill="#008000" xml:space="preserve" transform="matrix(1 0 -0 1 0 841.89)" font-size="9.96264" font-family="LMMono10"><tspan y="-456.804" x="422.35">)</tspan></text>
<text fill="#008000" xml:space="preserve" transform="matrix(1 0 -0 1 0 841.89)" font-size="9.96264" font-family="LMMono10"><tspan y="-456.804" x="428.627">.</tspan></text>
<text fill="#008000" xml:space="preserve" transform="matrix(1 0 -0 1 0 841.89)" font-size="9.96264" font-family="LMMono10"><tspan y="-456.804" x="441.441 447.4485 453.4659">Die</tspan></text>
<text fill="#008000" xml:space="preserve" transform="matrix(1 0 -0 1 0 841.89)" font-size="9.96264" font-family="LMMono10"><tspan y="-456.804" x="466.635 472.73216 478.83924 484.93638 491.04347">zugeh</tspan></text>
<text fill="#008000" xml:space="preserve" transform="matrix(1 0 -0 1 0 841.89)" font-size="9.96264" font-family="LMMono10"><tspan y="-456.804" x="497.669">&#x00f6;</tspan></text>
<text fill="#008000" xml:space="preserve" transform="matrix(1 0 -0 1 0 841.89)" font-size="9.96264" font-family="CMSY10" font-style="italic"><tspan y="-456.804" x="503.422">&#x2190;</tspan></text>
<text fill="#008000" xml:space="preserve" transform="matrix(1 0 -0 1 0 841.89)" font-size="9.96264" font-family="CMMI10" font-style="italic"><tspan y="-456.804" x="511.724">&#xfffd;</tspan></text>
<text fill="#008000" xml:space="preserve" transform="matrix(1 0 -0 1 0 841.89)" font-size="9.96264" font-family="LMMono10"><tspan y="-444.849" x="127.667 133.73426 139.80152 145.86878">rige</tspan></text>
<text fill="#008000" xml:space="preserve" transform="matrix(1 0 -0 1 0 841.89)" font-size="9.96264" font-family="LMMono10"><tspan y="-444.849" x="159.204 165.42069 171.64734 177.86403 184.08072 190.30738 196.52407 202.75072 208.9674 215.19406 221.41075 227.6374 233.8541 240.08075 246.29744 252.5241 258.74079 264.96745">Nichtbasisvariable</tspan></text>
<text fill="#008000" xml:space="preserve" transform="matrix(1 0 -0 1 0 841.89)" font-size="9.96264" font-family="LMMono10"><tspan y="-444.849" x="278.164 284.09178">xt</tspan></text>
<text fill="#008000" xml:space="preserve" transform="matrix(1 0 -0 1 0 841.89)" font-size="9.96264" font-family="LMMono10"><tspan y="-444.849" x="297.134 303.20124 309.26847 315.3357">wird</tspan></text>
<text fill="#008000" xml:space="preserve" transform="matrix(1 0 -0 1 0 841.89)" font-size="9.96264" font-family="LMMono10"><tspan y="-444.849" x="328.464 334.47148 340.4889">neu</tspan></text>
<text fill="#008000" xml:space="preserve" transform="matrix(1 0 -0 1 0 841.89)" font-size="9.96264" font-family="LMMono10"><tspan y="-444.849" x="353.483 359.41078">in</tspan></text>
<text fill="#008000" xml:space="preserve" transform="matrix(1 0 -0 1 0 841.89)" font-size="9.96264" font-family="LMMono10"><tspan y="-444.849" x="372.4 378.40748 384.4249">die</tspan></text>
<text fill="#008000" xml:space="preserve" transform="matrix(1 0 -0 1 0 841.89)" font-size="9.96264" font-family="LMMono10"><tspan y="-444.849" x="397.593 403.69013 409.7972 415.89436 422.00144">Basis</tspan></text>
<text fill="#008000" xml:space="preserve" transform="matrix(1 0 -0 1 0 841.89)" font-size="9.96264" font-family="LMMono10"><tspan y="-444.849" x="435.339 441.5258 447.7126 453.89939 460.09614 466.28294 472.46974 478.65653 484.85328 491.04008 497.22688">aufgenommen</tspan></text>
<text fill="#008000" xml:space="preserve" transform="matrix(1 0 -0 1 0 841.89)" font-size="9.96264" font-family="LMMono10"><tspan y="-444.849" x="503.945">.</tspan></text>
<text fill="#008000" xml:space="preserve" transform="matrix(1 0 -0 1 0 841.89)" font-size="9.96264" font-family="CMSY10" font-style="italic"><tspan y="-444.849" x="515.975">&#x2190;</tspan></text>
<text fill="#008000" xml:space="preserve" transform="matrix(1 0 -0 1 0 841.89)" font-size="9.96264" font-family="CMMI10" font-style="italic"><tspan y="-444.849" x="524.277">&#xfffd;</tspan></text>
<text fill="#008000" xml:space="preserve" transform="matrix(1 0 -0 1 0 841.89)" font-size="9.96264" font-family="LMMono10"><tspan y="-432.893" x="127.615 133.62247 139.63991">Die</tspan></text>
<text fill="#008000" xml:space="preserve" transform="matrix(1 0 -0 1 0 841.89)" font-size="9.96264" font-family="LMMono10"><tspan y="-432.893" x="152.833 158.96002 165.08705 171.21408 177.34111 183.46814">Spalte</tspan></text>
<text fill="#008000" xml:space="preserve" transform="matrix(1 0 -0 1 0 841.89)" font-size="9.96264" font-family="LMMono10"><tspan y="-432.893" x="196.395">t</tspan></text>
<text fill="#008000" xml:space="preserve" transform="matrix(1 0 -0 1 0 841.89)" font-size="9.96264" font-family="LMMono10"><tspan y="-432.893" x="209.21 215.21749 221.23493">ist</tspan></text>
<text fill="#008000" xml:space="preserve" transform="matrix(1 0 -0 1 0 841.89)" font-size="9.96264" font-family="LMMono10"><tspan y="-432.893" x="234.316 240.32347 246.34091">die</tspan></text>
<text fill="#008000" xml:space="preserve" transform="matrix(1 0 -0 1 0 841.89)" font-size="9.96264" font-family="LMMono10"><tspan y="-432.893" x="259.589 265.7658 271.94264 278.12944 284.30625 290.49305 296.66987 302.85667 309.03349 315.22029">Pivospalte</tspan></text>
<text xml:space="preserve" transform="matrix(1 0 -0 1 0 841.89)" font-size="5.97758" font-family="LMRoman6"><tspan y="-420.938" x="48.059">6</tspan></text>
<text xml:space="preserve" transform="matrix(1 0 -0 1 0 841.89)" font-size="9.96264" font-family="LMMono10"><tspan y="-420.938" x="107.821 113.957988 120.104938 126.251888 132.39884 138.54579 144.69275 151.35776 158.07259 164.2594 170.44622 176.64298 182.82979 189.0166 195.20342 201.40018 207.58699 213.7738 219.96062 226.67545 233.35042 239.49738 245.63437 251.78133 257.92829 264.07524 270.22218 276.88719 283.61195 289.81867 296.0154 302.22215 308.41889 314.6256 320.82237 327.02909 333.22584 339.43257 345.6293 351.83604 358.03279 364.9369 370.86466 377.3105 383.58695">simplex.setPivotCol(simplex.indexPivotCol());</tspan></text>
<text xml:space="preserve" transform="matrix(1 0 -0 1 0 841.89)" font-size="5.97758" font-family="LMRoman6"><tspan y="-408.983" x="48.059">7</tspan><tspan y="-397.028" x="48.059">8</tspan></text>
<text fill="#008000" xml:space="preserve" transform="matrix(1 0 -0 1 0 841.89)" font-size="9.96264" font-family="LMMono10"><tspan y="-397.028" x="107.603 113.53077">//</tspan></text>
<text fill="#008000" xml:space="preserve" transform="matrix(1 0 -0 1 0 841.89)" font-size="9.96264" font-family="LMMono10"><tspan y="-397.028" x="120.374 126.51099 132.65795 138.8049 144.95186 151.09882 157.24578">Schritt</tspan></text>
<text fill="#008000" xml:space="preserve" transform="matrix(1 0 -0 1 0 841.89)" font-size="9.96264" font-family="LMMono10"><tspan y="-397.028" x="170.368 176.29578">2:</tspan></text>
<text xml:space="preserve" transform="matrix(1 0 -0 1 0 841.89)" font-size="5.97758" font-family="LMRoman6"><tspan y="-385.073" x="48.059">9</tspan></text>
<text fill="#008000" xml:space="preserve" transform="matrix(1 0 -0 1 0 841.89)" font-size="9.96264" font-family="LMMono10"><tspan y="-385.073" x="107.603 113.53077">//</tspan></text>
<text fill="#008000" xml:space="preserve" transform="matrix(1 0 -0 1 0 841.89)" font-size="9.96264" font-family="LMMono10"><tspan y="-385.073" x="120.295 126.36224 132.4295 138.49677">Sind</tspan></text>
<text fill="#008000" xml:space="preserve" transform="matrix(1 0 -0 1 0 841.89)" font-size="9.96264" font-family="LMMono10"><tspan y="-385.073" x="151.538 157.46578">in</tspan></text>
<text fill="#008000" xml:space="preserve" transform="matrix(1 0 -0 1 0 841.89)" font-size="9.96264" font-family="LMMono10"><tspan y="-385.073" x="170.455 176.46248 182.47992">der</tspan></text>
<text fill="#008000" xml:space="preserve" transform="matrix(1 0 -0 1 0 841.89)" font-size="9.96264" font-family="LMMono10"><tspan y="-385.073" x="195.735 201.92182 208.10863 214.29544 220.4922 226.67902 232.86583 239.05265 245.2494 251.43622 257.62303">Pivotspalte</tspan></text>
<text fill="#008000" xml:space="preserve" transform="matrix(1 0 -0 1 0 841.89)" font-size="9.96264" font-family="LMMono10"><tspan y="-385.073" x="270.618">t</tspan></text>
<text fill="#008000" xml:space="preserve" transform="matrix(1 0 -0 1 0 841.89)" font-size="9.96264" font-family="LMMono10"><tspan y="-385.073" x="283.485 289.55223 295.61946 301.68669">alle</tspan></text>
<text fill="#008000" xml:space="preserve" transform="matrix(1 0 -0 1 0 841.89)" font-size="9.96264" font-family="LMMono10"><tspan y="-385.073" x="314.867 320.93424 327.00148 333.0687">a_it</tspan></text>
<text fill="#008000" xml:space="preserve" transform="matrix(1 0 -0 1 0 841.89)" font-size="9.96264" font-family="LMMono10"><tspan y="-385.073" x="346.111">&#x003c;</tspan></text>
<text fill="#008000" xml:space="preserve" transform="matrix(1 0 -0 1 0 841.89)" font-size="9.96264" font-family="LMMono10"><tspan y="-385.073" x="358.489 364.76548">0,</tspan></text>
<text fill="#008000" xml:space="preserve" transform="matrix(1 0 -0 1 0 841.89)" font-size="9.96264" font-family="LMMono10"><tspan y="-385.073" x="377.493 383.42079">so</tspan></text>
<text fill="#008000" xml:space="preserve" transform="matrix(1 0 -0 1 0 841.89)" font-size="9.96264" font-family="LMMono10"><tspan y="-385.073" x="396.462 402.52925 408.59648 414.6637">kann</tspan></text>
<text fill="#008000" xml:space="preserve" transform="matrix(1 0 -0 1 0 841.89)" font-size="9.96264" font-family="LMMono10"><tspan y="-385.073" x="427.531">f</tspan></text>
<text fill="#008000" xml:space="preserve" transform="matrix(1 0 -0 1 0 841.89)" font-size="9.96264" font-family="LMMono10"><tspan y="-385.073" x="433.808">&#x00fc;</tspan></text>
<text fill="#008000" xml:space="preserve" transform="matrix(1 0 -0 1 0 841.89)" font-size="9.96264" font-family="LMMono10"><tspan y="-385.073" x="440.084">r</tspan></text>
<text fill="#008000" xml:space="preserve" transform="matrix(1 0 -0 1 0 841.89)" font-size="9.96264" font-family="LMMono10"><tspan y="-385.073" x="452.899 458.90647 464.9239">das</tspan></text>
<text fill="#008000" xml:space="preserve" transform="matrix(1 0 -0 1 0 841.89)" font-size="9.96264" font-family="CMSY10" font-style="italic"><tspan y="-385.073" x="477.22">&#x2190;</tspan></text>
<text fill="#008000" xml:space="preserve" transform="matrix(1 0 -0 1 0 841.89)" font-size="9.96264" font-family="CMMI10" font-style="italic"><tspan y="-385.073" x="485.522">&#xfffd;</tspan></text>
<text fill="#008000" xml:space="preserve" transform="matrix(1 0 -0 1 0 841.89)" font-size="9.96264" font-family="LMMono10"><tspan y="-373.118" x="127.789 133.97582 140.16263 146.34944 152.5462 158.73302 164.91983 171.10665 177.3034 183.49022 189.67704">betrachtete</tspan></text>
<text fill="#008000" xml:space="preserve" transform="matrix(1 0 -0 1 0 841.89)" font-size="9.96264" font-family="LMMono10"><tspan y="-373.118" x="203.064 209.20099 215.34795 221.4949 227.64186 233.78882 239.93578">Problem</tspan></text>
<text fill="#008000" xml:space="preserve" transform="matrix(1 0 -0 1 0 841.89)" font-size="9.96264" font-family="LMMono10"><tspan y="-373.118" x="253.233 259.33015 265.43724 271.53437 277.64146">keine</tspan></text>
<text fill="#008000" xml:space="preserve" transform="matrix(1 0 -0 1 0 841.89)" font-size="9.96264" font-family="LMMono10"><tspan y="-373.118" x="290.95 297.1069 303.2638 309.43067 315.58757 321.74446 327.91133 334.0682">optimale</tspan></text>
<text fill="#008000" xml:space="preserve" transform="matrix(1 0 -0 1 0 841.89)" font-size="9.96264" font-family="LMMono10"><tspan y="-373.118" x="347.424 353.56098 359.70793 365.85487 372.0018 378.14875 384.2957">Loesung</tspan></text>
<text fill="#008000" xml:space="preserve" transform="matrix(1 0 -0 1 0 841.89)" font-size="9.96264" font-family="LMMono10"><tspan y="-373.118" x="397.663 403.82987 410.00669 416.17356 422.35038 428.51725 434.69407 440.86094 447.03776">angegeben</tspan></text>
<text fill="#008000" xml:space="preserve" transform="matrix(1 0 -0 1 0 841.89)" font-size="9.96264" font-family="LMMono10"><tspan y="-373.118" x="460.383 466.51 472.63703 478.76405 484.89106 491.01808">werden</tspan></text>
<text fill="#008000" xml:space="preserve" transform="matrix(1 0 -0 1 0 841.89)" font-size="9.96264" font-family="LMMono10"><tspan y="-373.118" x="504.319 510.446 516.57308">--&#x003e;</tspan></text>
<text fill="#008000" xml:space="preserve" transform="matrix(1 0 -0 1 0 841.89)" font-size="9.96264" font-family="CMSY10" font-style="italic"><tspan y="-373.118" x="522.252">&#x2190;</tspan></text>
<text fill="#008000" xml:space="preserve" transform="matrix(1 0 -0 1 0 841.89)" font-size="9.96264" font-family="CMMI10" font-style="italic"><tspan y="-373.118" x="530.554">&#xfffd;</tspan></text>
<text fill="#008000" xml:space="preserve" transform="matrix(1 0 -0 1 0 841.89)" font-size="9.96264" font-family="LMMono10"><tspan y="-361.162" x="134.022 140.159 146.30596 152.45291 158.59987 164.74683 170.89379">Abbruch</tspan></text>
<text fill="#008000" xml:space="preserve" transform="matrix(1 0 -0 1 0 841.89)" font-size="9.96264" font-family="LMMono10"><tspan y="-361.162" x="184.104 190.11148 196.12892">des</tspan></text>
<text fill="#008000" xml:space="preserve" transform="matrix(1 0 -0 1 0 841.89)" font-size="9.96264" font-family="LMMono10"><tspan y="-361.162" x="209.376 215.55286 221.73967 227.91652 234.09337 240.28018 246.45703 252.64385 258.82069 265.00749">Verfahrens</tspan></text>
<text fill="#008000" xml:space="preserve" transform="matrix(1 0 -0 1 0 841.89)" font-size="9.96264" font-family="LMMono10"><tspan y="-361.162" x="271.714">.</tspan></text>
<text xml:space="preserve" transform="matrix(1 0 -0 1 0 841.89)" font-size="5.97758" font-family="LMRoman6"><tspan y="-349.207" x="44.406 48.0583">10</tspan></text>
<text fill="#0000ff" xml:space="preserve" transform="matrix(1 0 -0 1 0 841.89)" font-size="9.96264" font-family="LMMono10"><tspan y="-349.207" x="107.603 113.53077">if</tspan></text>
<text xml:space="preserve" transform="matrix(1 0 -0 1 0 841.89)" font-size="9.96264" font-family="LMMono10"><tspan y="-349.207" x="126.432 132.35977 139.19416 145.34111 151.48807 157.63503 163.78199 169.92894 176.0759 182.7409 189.47566 195.69235 201.89908 208.1058 214.3225 220.52922 226.74591 232.95264 239.16933 245.37606 251.59275 257.79948 264.0062 270.22288 276.4296 283.16435 289.8393 295.97627 302.1232 308.27015 314.41709 320.56404 326.71098 333.37599 340.0908 346.2776 352.47434 358.66114 364.84794 371.03474 377.23149 383.41828 389.60508 395.79188 401.98863 408.8728 414.80058 421.2464 427.52287">(!simplex.isColPivotValid(simplex.getPivotCol()))</tspan></text>
<text xml:space="preserve" transform="matrix(1 0 -0 1 0 841.89)" font-size="5.97758" font-family="LMRoman6"><tspan y="-337.252" x="44.406 48.0583">11</tspan></text>
<text xml:space="preserve" transform="matrix(1 0 -0 1 0 841.89)" font-size="9.96264" font-family="LMMono10"><tspan y="-337.252" x="107.428">{</tspan></text>
<text xml:space="preserve" transform="matrix(1 0 -0 1 0 841.89)" font-size="5.97758" font-family="LMRoman6"><tspan y="-325.297" x="44.406 48.0583">12</tspan></text>
<text xml:space="preserve" transform="matrix(1 0 -0 1 0 841.89)" font-size="9.96264" font-family="LMMono10"><tspan y="-325.297" x="132.908 139.03504 145.16207 151.2891 157.41613 163.54315 170.36757 176.29535 189.33646 195.40372">qDebug()&#x003c;&#x003c;</tspan></text>
<text fill="#ff0000" xml:space="preserve" transform="matrix(1 0 -0 1 0 841.89)" font-size="9.96264" font-family="LMMono10"><tspan y="-325.297" x="207.853">"</tspan></text>
<text fill="#ff0000" xml:space="preserve" transform="matrix(1 0 -0 1 0 841.89)" font-size="9.96264" font-family="LMMono10"><tspan y="-325.297" x="214.391 220.39849 226.41593">Das</tspan></text>
<text fill="#ff0000" xml:space="preserve" transform="matrix(1 0 -0 1 0 841.89)" font-size="9.96264" font-family="LMMono10"><tspan y="-325.297" x="239.671 245.85782 252.04463 258.23146 264.4282 270.615 276.8018 282.9886 289.18534 295.37214 301.55894">betrachtete</tspan></text>
<text fill="#ff0000" xml:space="preserve" transform="matrix(1 0 -0 1 0 841.89)" font-size="9.96264" font-family="LMMono10"><tspan y="-325.297" x="314.946 321.08299 327.22993 333.37687 339.5238 345.67076 351.8177">Problem</tspan></text>
<text fill="#ff0000" xml:space="preserve" transform="matrix(1 0 -0 1 0 841.89)" font-size="9.96264" font-family="LMMono10"><tspan y="-325.297" x="365.027 371.0345 377.0519">ist</tspan></text>
<text fill="#ff0000" xml:space="preserve" transform="matrix(1 0 -0 1 0 841.89)" font-size="9.96264" font-family="LMMono10"><tspan y="-325.297" x="390.32 396.51676 402.72349 408.92024 415.12696 421.3237 427.53044 433.72718 439.9339 446.13066 452.33738 458.53413 464.74085">unbeschraenkt</tspan></text>
<text fill="#ff0000" xml:space="preserve" transform="matrix(1 0 -0 1 0 841.89)" font-size="9.96264" font-family="LMMono10"><tspan y="-325.297" x="471.467">.</tspan></text>
<text fill="#ff0000" xml:space="preserve" transform="matrix(1 0 -0 1 0 841.89)" font-size="9.96264" font-family="LMMono10"><tspan y="-325.297" x="477.743">"</tspan></text>
<text xml:space="preserve" transform="matrix(1 0 -0 1 0 841.89)" font-size="9.96264" font-family="LMMono10"><tspan y="-325.297" x="484.02">;</tspan></text>
<text xml:space="preserve" transform="matrix(1 0 -0 1 0 841.89)" font-size="5.97758" font-family="LMRoman6"><tspan y="-313.342" x="44.406 48.0583">13</tspan></text>
<text xml:space="preserve" transform="matrix(1 0 -0 1 0 841.89)" font-size="9.96264" font-family="LMMono10"><tspan y="-313.342" x="132.927 139.064 145.21096 151.35791 157.50487 163.65183 169.79878 176.46379 183.19855 189.41524 195.62197 201.82869 208.04538 214.2521 220.4688 226.67552 232.89221 239.09894 245.31563 251.52236 257.7291 263.94578 270.1525 277.15623 283.1637 289.18113 295.7166">simplex.setSolutionType(2);</tspan></text>
<text xml:space="preserve" transform="matrix(1 0 -0 1 0 841.89)" font-size="5.97758" font-family="LMRoman6"><tspan y="-301.387" x="44.406 48.0583">14</tspan></text>
<text xml:space="preserve" transform="matrix(1 0 -0 1 0 841.89)" font-size="9.96264" font-family="LMMono10"><tspan y="-301.387" x="132.983 139.17977 145.38649 151.58325 157.78998 163.98674 170.19347 176.39023 182.59696 188.79372 195.00045 201.1972 207.40393 214.12873 220.79373 226.94069 233.08765 239.2346 245.38156 251.51856 257.6655 264.34046 270.6169">printSolution(simplex);</tspan></text>
<text xml:space="preserve" transform="matrix(1 0 -0 1 0 841.89)" font-size="5.97758" font-family="LMRoman6"><tspan y="-289.431" x="44.406 48.0583">15</tspan></text>
<text fill="#0000ff" xml:space="preserve" transform="matrix(1 0 -0 1 0 841.89)" font-size="9.96264" font-family="LMMono10"><tspan y="-289.431" x="132.908 139.03504 145.16207 151.2891 157.41613 163.54315">return</tspan></text>
<text xml:space="preserve" transform="matrix(1 0 -0 1 0 841.89)" font-size="9.96264" font-family="LMMono10"><tspan y="-289.431" x="170.193">;</tspan></text>
<text xml:space="preserve" transform="matrix(1 0 -0 1 0 841.89)" font-size="5.97758" font-family="LMRoman6"><tspan y="-277.476" x="44.406 48.0583">16</tspan></text>
<text xml:space="preserve" transform="matrix(1 0 -0 1 0 841.89)" font-size="9.96264" font-family="LMMono10"><tspan y="-277.476" x="107.428">}</tspan></text>
<text xml:space="preserve" transform="matrix(1 0 -0 1 0 841.89)" font-size="5.97758" font-family="LMRoman6"><tspan y="-265.521" x="44.406 48.0583">17</tspan></text>
<text fill="#008000" xml:space="preserve" transform="matrix(1 0 -0 1 0 841.89)" font-size="9.96264" font-family="LMMono10"><tspan y="-265.521" x="107.603 113.53077">//</tspan></text>
<text fill="#008000" xml:space="preserve" transform="matrix(1 0 -0 1 0 841.89)" font-size="9.96264" font-family="LMMono10"><tspan y="-265.521" x="120.409 126.58583 132.76268 138.9495 145.12635 151.31316 157.49 163.67682 169.85367 176.04048">Pivotzeile</tspan></text>
<text fill="#008000" xml:space="preserve" transform="matrix(1 0 -0 1 0 841.89)" font-size="9.96264" font-family="LMMono10"><tspan y="-265.521" x="189.442 195.60889 201.78574 207.95262 214.12947 220.29636 226.4732 232.64009 238.81694">bestimmen</tspan></text>
<text xml:space="preserve" transform="matrix(1 0 -0 1 0 841.89)" font-size="5.97758" font-family="LMRoman6"><tspan y="-253.566" x="44.406 48.0583">18</tspan></text>
<text xml:space="preserve" transform="matrix(1 0 -0 1 0 841.89)" font-size="9.96264" font-family="LMMono10"><tspan y="-253.566" x="107.821 113.957988 120.104938 126.251888 132.39884 138.54579 144.69275 151.35776 158.07259 164.2594 170.44622 176.64298 182.82979 189.0166 195.20342 201.40018 207.58699 213.7738 219.96062 226.67545 233.35042 239.49738 245.63437 251.78133 257.92829 264.07524 270.22218 276.88719 283.61195 289.81867 296.0154 302.22215 308.41889 314.6256 320.82237 327.02909 333.22584 339.43257 345.6293 351.83604 358.03279 364.9369 370.86466 377.3105 383.58695">simplex.setPivotRow(simplex.indexPivotRow());</tspan></text>
<text xml:space="preserve" transform="matrix(1 0 -0 1 0 841.89)" font-size="5.97758" font-family="LMRoman6"><tspan y="-241.611" x="44.406 48.0583">19</tspan><tspan y="-229.656" x="44.406 48.0583">20</tspan></text>
<text fill="#008000" xml:space="preserve" transform="matrix(1 0 -0 1 0 841.89)" font-size="9.96264" font-family="LMMono10"><tspan y="-229.656" x="107.603 113.53077">//</tspan></text>
<text fill="#008000" xml:space="preserve" transform="matrix(1 0 -0 1 0 841.89)" font-size="9.96264" font-family="LMMono10"><tspan y="-229.656" x="120.374 126.51099 132.65795 138.8049 144.95186 151.09882 157.24578">Schritt</tspan></text>
<text fill="#008000" xml:space="preserve" transform="matrix(1 0 -0 1 0 841.89)" font-size="9.96264" font-family="LMMono10"><tspan y="-229.656" x="170.368 176.29578">3:</tspan></text>
<text xml:space="preserve" transform="matrix(1 0 -0 1 0 841.89)" font-size="5.97758" font-family="LMRoman6"><tspan y="-217.7" x="44.406 48.0583">21</tspan></text>
<text fill="#008000" xml:space="preserve" transform="matrix(1 0 -0 1 0 841.89)" font-size="9.96264" font-family="LMMono10"><tspan y="-217.7" x="107.603 113.53077">//</tspan></text>
<text fill="#008000" xml:space="preserve" transform="matrix(1 0 -0 1 0 841.89)" font-size="9.96264" font-family="LMMono10"><tspan y="-217.7" x="120.409 126.58583 132.76268 138.9495 145.12635 151.31316 157.49 163.67682 169.85367 176.04048">Berechnung</tspan></text>
<text fill="#008000" xml:space="preserve" transform="matrix(1 0 -0 1 0 841.89)" font-size="9.96264" font-family="LMMono10"><tspan y="-217.7" x="189.285 195.29248 201.30992">der</tspan></text>
<text fill="#008000" xml:space="preserve" transform="matrix(1 0 -0 1 0 841.89)" font-size="9.96264" font-family="LMMono10"><tspan y="-217.7" x="214.478 220.57514 226.68224 232.77938 238.88648">neuen</tspan></text>
<text fill="#008000" xml:space="preserve" transform="matrix(1 0 -0 1 0 841.89)" font-size="9.96264" font-family="LMMono10"><tspan y="-217.7" x="252.162 258.28904 264.41606 270.54307 276.67008 282.7971 288.9241 295.05113 301.17814 307.30516 313.43217 319.55918">Basisloesung</tspan></text>
<text fill="#008000" xml:space="preserve" transform="matrix(1 0 -0 1 0 841.89)" font-size="9.96264" font-family="LMMono10"><tspan y="-217.7" x="327.107">,</tspan></text>
<text fill="#008000" xml:space="preserve" transform="matrix(1 0 -0 1 0 841.89)" font-size="9.96264" font-family="LMMono10"><tspan y="-217.7" x="339.921 345.92848 351.9459">des</tspan></text>
<text fill="#008000" xml:space="preserve" transform="matrix(1 0 -0 1 0 841.89)" font-size="9.96264" font-family="LMMono10"><tspan y="-217.7" x="365.115 371.21214 377.3192 383.41636 389.52345">neuen</tspan></text>
<text fill="#008000" xml:space="preserve" transform="matrix(1 0 -0 1 0 841.89)" font-size="9.96264" font-family="LMMono10"><tspan y="-217.7" x="402.716 408.75337 414.80067 420.84797 426.8853 432.93263 438.97993">Simplex</tspan></text>
<text fill="#008000" xml:space="preserve" transform="matrix(1 0 -0 1 0 841.89)" font-size="9.96264" font-family="LMMono10"><tspan y="-217.7" x="446.361">-</tspan></text>
<text fill="#008000" xml:space="preserve" transform="matrix(1 0 -0 1 0 841.89)" font-size="9.96264" font-family="LMMono10"><tspan y="-217.7" x="453.044 459.2009 465.3578 471.52467 477.68156 483.83845 490.0053 496.1622">Tableaus</tspan></text>
<text xml:space="preserve" transform="matrix(1 0 -0 1 0 841.89)" font-size="5.97758" font-family="LMRoman6"><tspan y="-205.745" x="44.406 48.0583">22</tspan></text>
<text xml:space="preserve" transform="matrix(1 0 -0 1 0 841.89)" font-size="9.96264" font-family="LMMono10"><tspan y="-205.745" x="107.821 113.957988 120.104938 126.251888 132.39884 138.54579 144.69275 151.35776 158.05266 164.2295 170.3964 176.57324 182.74013 188.91698 195.08386 201.26071 207.4276 214.30182 220.2296 226.67543">simplex.pivotStep();</tspan></text>
<text xml:space="preserve" transform="matrix(1 0 -0 1 0 841.89)" font-size="5.97758" font-family="LMRoman6"><tspan y="-193.79" x="44.406 48.0583">23</tspan><tspan y="-181.835" x="44.406 48.0583">24</tspan></text>
<text fill="#008000" xml:space="preserve" transform="matrix(1 0 -0 1 0 841.89)" font-size="9.96264" font-family="LMMono10"><tspan y="-181.835" x="107.603 113.53077">//</tspan></text>
<text fill="#008000" xml:space="preserve" transform="matrix(1 0 -0 1 0 841.89)" font-size="9.96264" font-family="LMMono10"><tspan y="-181.835" x="119.981 125.72945">BV</tspan></text>
<text fill="#008000" xml:space="preserve" transform="matrix(1 0 -0 1 0 841.89)" font-size="9.96264" font-family="LMMono10"><tspan y="-181.835" x="132.534">,</tspan></text>
<text fill="#008000" xml:space="preserve" transform="matrix(1 0 -0 1 0 841.89)" font-size="9.96264" font-family="LMMono10"><tspan y="-181.835" x="145.349 151.35648 157.37392">NBV</tspan></text>
<text fill="#008000" xml:space="preserve" transform="matrix(1 0 -0 1 0 841.89)" font-size="9.96264" font-family="LMMono10"><tspan y="-181.835" x="170.455 176.46248 182.47992">und</tspan></text>
<text fill="#008000" xml:space="preserve" transform="matrix(1 0 -0 1 0 841.89)" font-size="9.96264" font-family="LMMono10"><tspan y="-181.835" x="195.3">F</tspan></text>
<text fill="#008000" xml:space="preserve" transform="matrix(1 0 -0 1 0 841.89)" font-size="9.96264" font-family="LMMono10"><tspan y="-181.835" x="208.226 214.35303 220.48006 226.60709 232.73412 238.86115">setzen</tspan></text>
<text xml:space="preserve" transform="matrix(1 0 -0 1 0 841.89)" font-size="5.97758" font-family="LMRoman6"><tspan y="-169.88" x="44.406 48.0583">25</tspan></text>
<text xml:space="preserve" transform="matrix(1 0 -0 1 0 841.89)" font-size="9.96264" font-family="LMMono10"><tspan y="-169.88" x="107.821 113.957988 120.104938 126.251888 132.39884 138.54579 144.69275 151.35776 158.10248 164.3092 170.5259 176.74259 182.95928 189.17597 195.38269 201.59938 207.81607 214.03276 220.24945 226.46614 232.67287 238.88956 245.10625 251.32294 258.237 264.16477 270.6106">simplex.setBasePrimParam();</tspan></text>
<text xml:space="preserve" transform="matrix(1 0 -0 1 0 841.89)" font-size="5.97758" font-family="LMRoman6"><tspan y="-157.925" x="44.406 48.0583">26</tspan></text>
<text fill="#008000" xml:space="preserve" transform="matrix(1 0 -0 1 0 841.89)" font-size="9.96264" font-family="LMMono10"><tspan y="-157.925" x="107.603 113.53077">//</tspan></text>
<text fill="#008000" xml:space="preserve" transform="matrix(1 0 -0 1 0 841.89)" font-size="9.96264" font-family="LMMono10"><tspan y="-157.925" x="120.33 126.42714 132.53424 138.63138 144.73848">print</tspan></text>
<text fill="#008000" xml:space="preserve" transform="matrix(1 0 -0 1 0 841.89)" font-size="9.96264" font-family="LMMono10"><tspan y="-157.925" x="158.033 164.17 170.31696 176.46392 182.61087 188.75783 194.90479">Tableau</tspan></text>
<text xml:space="preserve" transform="matrix(1 0 -0 1 0 841.89)" font-size="5.97758" font-family="LMRoman6"><tspan y="-145.969" x="44.406 48.0583">27</tspan></text>
<text xml:space="preserve" transform="matrix(1 0 -0 1 0 841.89)" font-size="9.96264" font-family="LMMono10"><tspan y="-145.969" x="107.871 114.0578 120.25456 126.451328 132.64809 138.84485 145.04161 151.23838 157.43514 163.6319 169.82866 176.02542 182.74025 189.41522 195.55222 201.69918 207.84613 213.99309 220.14005 226.287 232.95201 239.22849">printTableau(simplex);</tspan></text>
<text xml:space="preserve" transform="matrix(1 0 -0 1 0 841.89)" font-size="5.97758" font-family="LMRoman6"><tspan y="-134.014" x="44.406 48.0583">28</tspan></text>
<text fill="#008000" xml:space="preserve" transform="matrix(1 0 -0 1 0 841.89)" font-size="9.96264" font-family="LMMono10"><tspan y="-134.014" x="107.603 113.53077">//</tspan></text>
<text fill="#008000" xml:space="preserve" transform="matrix(1 0 -0 1 0 841.89)" font-size="9.96264" font-family="LMMono10"><tspan y="-134.014" x="119.981 125.72945">BV</tspan></text>
<text fill="#008000" xml:space="preserve" transform="matrix(1 0 -0 1 0 841.89)" font-size="9.96264" font-family="LMMono10"><tspan y="-134.014" x="132.534">,</tspan></text>
<text fill="#008000" xml:space="preserve" transform="matrix(1 0 -0 1 0 841.89)" font-size="9.96264" font-family="LMMono10"><tspan y="-134.014" x="145.349 151.35648 157.37392">NBV</tspan></text>
<text fill="#008000" xml:space="preserve" transform="matrix(1 0 -0 1 0 841.89)" font-size="9.96264" font-family="LMMono10"><tspan y="-134.014" x="170.455 176.46248 182.47992">und</tspan></text>
<text fill="#008000" xml:space="preserve" transform="matrix(1 0 -0 1 0 841.89)" font-size="9.96264" font-family="LMMono10"><tspan y="-134.014" x="195.3">F</tspan></text>
<text fill="#008000" xml:space="preserve" transform="matrix(1 0 -0 1 0 841.89)" font-size="9.96264" font-family="LMMono10"><tspan y="-134.014" x="208.259 214.41593 220.57285 226.73973 232.89665 239.05358 245.22046 251.37738">ausgeben</tspan></text>
<text xml:space="preserve" transform="matrix(1 0 -0 1 0 841.89)" font-size="5.97758" font-family="LMRoman6"><tspan y="-122.059" x="44.406 48.0583">29</tspan></text>
<text xml:space="preserve" transform="matrix(1 0 -0 1 0 841.89)" font-size="9.96264" font-family="LMMono10"><tspan y="-122.059" x="107.871 114.0578 120.25456 126.451328 132.64809 138.84485 145.04161 151.23838 157.43514 163.6319 169.82866 176.02542 182.74025 189.41522 195.55222 201.69918 207.84613 213.99309 220.14005 226.287 232.95201 239.22849">printBaseSol(simplex);</tspan></text>
<text xml:space="preserve" transform="matrix(1 0 -0 1 0 841.89)" font-size="5.97758" font-family="LMRoman6"><tspan y="-110.104" x="44.406 48.0583">30</tspan></text>
<text fill="#008000" xml:space="preserve" transform="matrix(1 0 -0 1 0 841.89)" font-size="9.96264" font-family="LMMono10"><tspan y="-110.104" x="107.603 113.53077">//</tspan></text>
<text fill="#008000" xml:space="preserve" transform="matrix(1 0 -0 1 0 841.89)" font-size="9.96264" font-family="LMMono10"><tspan y="-110.104" x="120.424 126.6108 132.80756 139.00432 145.20108 151.39785 157.5946 163.79137 169.98813 176.18489 182.38166 188.57842">Basisloesung</tspan></text>
<text fill="#008000" xml:space="preserve" transform="matrix(1 0 -0 1 0 841.89)" font-size="9.96264" font-family="LMMono10"><tspan y="-110.104" x="201.75 207.67778">in</tspan></text>
<text fill="#008000" xml:space="preserve" transform="matrix(1 0 -0 1 0 841.89)" font-size="9.96264" font-family="LMMono10"><tspan y="-110.104" x="220.754 226.85114 232.95824 239.05538 245.16248">Chart</tspan></text>
<text xml:space="preserve" transform="matrix(1 0 -0 1 0 841.89)" font-size="5.97758" font-family="LMRoman6"><tspan y="-98.149" x="44.406 48.0583">31</tspan></text>
<text fill="#0000ff" xml:space="preserve" transform="matrix(1 0 -0 1 0 841.89)" font-size="9.96264" font-family="LMMono10"><tspan y="-98.149" x="107.603 113.53077">if</tspan></text>
<text xml:space="preserve" transform="matrix(1 0 -0 1 0 841.89)" font-size="9.96264" font-family="LMMono10"><tspan y="-98.149" x="119.981 126.69582 132.89258 139.08934 145.2861 151.48287 157.67963 163.87639 170.07315 176.25997 182.45673 188.65349 194.85025 208.02088 213.94866 226.68091 239.40322 245.331 258.4817 264.64857 270.82539 276.99226 283.16908 289.33595 295.51277 301.67964 307.85646 320.99717 326.92494 339.82655 345.7543">(numberStruct==2&#x0026;&#x0026;numberGNB==0)</tspan></text>
<text xml:space="preserve" transform="matrix(1 0 -0 1 0 841.89)" font-size="5.97758" font-family="LMRoman6"><tspan y="-86.194" x="44.406 48.0583">32</tspan></text>
<text xml:space="preserve" transform="matrix(1 0 -0 1 0 841.89)" font-size="9.96264" font-family="LMMono10"><tspan y="-86.194" x="132.977 139.16382 145.36058 151.55735 157.7541 163.95087 170.14763 176.34439 182.54116 188.73792 194.93468 201.13144 207.84627 214.52124 220.65824 226.80519 232.95215 239.0991 245.24607 251.39302 258.05805 264.3345">baseSolChart(simplex);</tspan></text>
<text xml:space="preserve" transform="matrix(1 0 -0 1 0 841.89)" font-size="5.97758" font-family="LMRoman6"><tspan y="-74.238" x="44.406 48.0583">33</tspan></text>
<text xml:space="preserve" transform="matrix(1 0 -0 1 0 841.89)" font-size="9.96264" font-family="LMMono10"><tspan y="-74.238" x="82.322">}</tspan></text>
<text xml:space="preserve" transform="matrix(1 0 -0 1 0 841.89)" font-size="5.97758" font-family="LMRoman6"><tspan y="-62.283" x="44.406 48.0583">34</tspan></text>
<text xml:space="preserve" transform="matrix(1 0 -0 1 0 841.89)" font-size="11.95517" font-family="LMRoman12"><tspan y="-20.306" x="291.785 297.64305">18</tspan></text>
</g>
</svg>
