<?xml version="1.0" encoding="UTF-8" standalone="no"?>
<!DOCTYPE svg PUBLIC "-//W3C//DTD SVG 1.1//EN" "http://www.w3.org/Graphics/SVG/1.1/DTD/svg11.dtd">
<svg xmlns="http://www.w3.org/2000/svg" xmlns:xlink="http://www.w3.org/1999/xlink" version="1.1" width="595.276pt" height="841.89pt" viewBox="0 0 595.276 841.89">
<g enable-background="new">
<text xml:space="preserve" transform="matrix(1 0 -0 1 0 841.89)" font-size="11.95517" font-family="LMRoman12"><tspan y="-773.242" x="227.941 235.25756 238.50936 243.12406 247.67897 250.93077 257.4344 267.18983 273.04786 276.29966">Listing3.9</tspan></text>
<text xml:space="preserve" transform="matrix(1 0 -0 1 0 841.89)" font-size="11.95517" font-family="LMRoman12"><tspan y="-773.242" x="282.144">:</tspan></text>
<text xml:space="preserve" transform="matrix(1 0 -0 1 0 841.89)" font-size="11.95517" font-family="LMRoman12"><tspan y="-773.242" x="289.298 297.26014 300.51194 306.36997 312.228 316.78294 321.98344 327.18394 330.43574 333.68754 338.88804 342.78544 351.7279 358.2315 364.08955">Pivotzeile-Dual</tspan></text>
<path transform="matrix(1,0,0,-1,56.693,72.83301)" stroke-width=".398" stroke-linecap="butt" stroke-miterlimit="10" stroke-linejoin="miter" fill="none" stroke="#000000" d="M 0 0 L 481.89 0 "/>
<text xml:space="preserve" transform="matrix(1 0 -0 1 0 841.89)" font-size="5.97758" font-family="LMRoman6"><tspan y="-757.501" x="48.059">1</tspan></text>
<text fill="#008000" xml:space="preserve" transform="matrix(1 0 -0 1 0 841.89)" font-size="9.96264" font-family="LMMono10"><tspan y="-757.501" x="57.39 63.31777">//</tspan></text>
<text fill="#008000" xml:space="preserve" transform="matrix(1 0 -0 1 0 841.89)" font-size="9.96264" font-family="LMMono10"><tspan y="-757.501" x="69.769">(</tspan></text>
<text fill="#008000" xml:space="preserve" transform="matrix(1 0 -0 1 0 841.89)" font-size="9.96264" font-family="LMMono10"><tspan y="-757.501" x="76.419 82.54602 88.67304 94.800067 100.927089 107.05411">dualer</tspan></text>
<text fill="#008000" xml:space="preserve" transform="matrix(1 0 -0 1 0 841.89)" font-size="9.96264" font-family="LMMono10"><tspan y="-757.501" x="120.374 126.51099 132.65795 138.8049 144.95186 151.09882 157.24578">Simplex</tspan></text>
<text fill="#008000" xml:space="preserve" transform="matrix(1 0 -0 1 0 841.89)" font-size="9.96264" font-family="LMMono10"><tspan y="-757.501" x="163.917">)</tspan></text>
<text fill="#008000" xml:space="preserve" transform="matrix(1 0 -0 1 0 841.89)" font-size="9.96264" font-family="LMMono10"><tspan y="-757.501" x="176.784 182.85126 188.91852 194.98578">Wahl</tspan></text>
<text fill="#008000" xml:space="preserve" transform="matrix(1 0 -0 1 0 841.89)" font-size="9.96264" font-family="LMMono10"><tspan y="-757.501" x="208.114 214.12148 220.13892">der</tspan></text>
<text fill="#008000" xml:space="preserve" transform="matrix(1 0 -0 1 0 841.89)" font-size="9.96264" font-family="LMMono10"><tspan y="-757.501" x="233.387 239.56385 245.74069 251.9275 258.10435 264.29115 270.46797 276.65476 282.83158 289.01838">Pivotzeile</tspan></text>
<text fill="#008000" xml:space="preserve" transform="matrix(1 0 -0 1 0 841.89)" font-size="9.96264" font-family="LMMono10"><tspan y="-757.501" x="301.826">s</tspan></text>
<text fill="#008000" xml:space="preserve" transform="matrix(1 0 -0 1 0 841.89)" font-size="9.96264" font-family="LMMono10"><tspan y="-757.501" x="308.277">,</tspan></text>
<text fill="#008000" xml:space="preserve" transform="matrix(1 0 -0 1 0 841.89)" font-size="9.96264" font-family="LMMono10"><tspan y="-757.501" x="321.179 327.27613 333.3832 339.48036 345.58744">Zeile</tspan></text>
<text fill="#008000" xml:space="preserve" transform="matrix(1 0 -0 1 0 841.89)" font-size="9.96264" font-family="LMMono10"><tspan y="-757.501" x="358.751 364.75849 370.7759">mit</tspan></text>
<text fill="#008000" xml:space="preserve" transform="matrix(1 0 -0 1 0 841.89)" font-size="9.96264" font-family="LMMono10"><tspan y="-757.501" x="383.857 389.86448 395.8819">dem</tspan></text>
<text fill="#008000" xml:space="preserve" transform="matrix(1 0 -0 1 0 841.89)" font-size="9.96264" font-family="LMMono10"><tspan y="-757.501" x="409.12 415.28688 421.46369 427.63056 433.80738 439.97425 446.15107 452.31794 458.49476">kleinsten</tspan></text>
<text fill="#008000" xml:space="preserve" transform="matrix(1 0 -0 1 0 841.89)" font-size="9.96264" font-family="LMMono10"><tspan y="-757.501" x="471.728 477.73548 483.7529">b_s</tspan></text>
<text fill="#008000" xml:space="preserve" transform="matrix(1 0 -0 1 0 841.89)" font-size="9.96264" font-family="LMMono10"><tspan y="-757.501" x="496.747">&#x003c;</tspan></text>
<text fill="#008000" xml:space="preserve" transform="matrix(1 0 -0 1 0 841.89)" font-size="9.96264" font-family="LMMono10"><tspan y="-757.501" x="509.126">0</tspan></text>
<text fill="#008000" xml:space="preserve" transform="matrix(1 0 -0 1 0 841.89)" font-size="9.96264" font-family="CMSY10" font-style="italic"><tspan y="-757.501" x="521.156">&#x2190;</tspan></text>
<text fill="#008000" xml:space="preserve" transform="matrix(1 0 -0 1 0 841.89)" font-size="9.96264" font-family="CMMI10" font-style="italic"><tspan y="-757.501" x="529.458">&#xfffd;</tspan></text>
<text fill="#008000" xml:space="preserve" transform="matrix(1 0 -0 1 0 841.89)" font-size="9.96264" font-family="LMMono10"><tspan y="-745.546" x="77.403 83.41047 89.4279">als</tspan></text>
<text fill="#008000" xml:space="preserve" transform="matrix(1 0 -0 1 0 841.89)" font-size="9.96264" font-family="LMMono10"><tspan y="-745.546" x="102.675 108.85184 115.038639 121.21547 127.3923 133.57912 139.75597 145.94278 152.11963 158.30644">Pivotzeile</tspan></text>
<text xml:space="preserve" transform="matrix(1 0 -0 1 0 841.89)" font-size="5.97758" font-family="LMRoman6"><tspan y="-733.59" x="48.059">2</tspan></text>
<text fill="#0000ff" xml:space="preserve" transform="matrix(1 0 -0 1 0 841.89)" font-size="9.96264" font-family="LMMono10"><tspan y="-733.59" x="57.478 63.48547 69.50291">int</tspan></text>
<text xml:space="preserve" transform="matrix(1 0 -0 1 0 841.89)" font-size="9.96264" font-family="LMMono10"><tspan y="-733.59" x="82.714 88.85098 94.99793 101.14488 107.29183 113.43878 119.58573 126.43006 132.35784 139.27191 145.4886 151.70529 157.92198 164.14864 170.36533 176.58202 182.7987 189.0154 195.23209 201.45874 207.67543 213.89212 220.10881 226.3255 232.55216 238.76885 245.68292 251.6107">Simplex::indexPivotRowDual()</tspan></text>
<text xml:space="preserve" transform="matrix(1 0 -0 1 0 841.89)" font-size="5.97758" font-family="LMRoman6"><tspan y="-721.635" x="48.059">3</tspan></text>
<text xml:space="preserve" transform="matrix(1 0 -0 1 0 841.89)" font-size="9.96264" font-family="LMMono10"><tspan y="-721.635" x="57.216">{</tspan></text>
<text xml:space="preserve" transform="matrix(1 0 -0 1 0 841.89)" font-size="5.97758" font-family="LMRoman6"><tspan y="-709.68" x="48.059">4</tspan></text>
<text fill="#0000ff" xml:space="preserve" transform="matrix(1 0 -0 1 0 841.89)" font-size="9.96264" font-family="LMMono10"><tspan y="-709.68" x="82.696 88.82302 94.95004 101.077068 107.20409 113.33111">return</tspan></text>
<text xml:space="preserve" transform="matrix(1 0 -0 1 0 841.89)" font-size="9.96264" font-family="LMMono10"><tspan y="-709.68" x="132.796 138.80348 144.82093 151.53575 157.46353 164.34772 170.53453 176.7313 182.9181 189.10492 195.29174 201.4885 207.67531 213.86212 220.04894 226.2457 232.95056 239.22704 245.50351 252.12868 258.23579 264.33293 270.44 276.53715 283.3416 289.26939 295.89454 308.26814 314.5446 321.09004 327.0975 333.11494 339.82975 345.7575 352.2133 364.93559 377.31913 383.59559 390.22074 396.31788 402.42497 408.5221 414.62919 421.4237 427.35148 433.80726">std::min_element(b.begin(),b.end())-b.begin();</tspan></text>
<text xml:space="preserve" transform="matrix(1 0 -0 1 0 841.89)" font-size="5.97758" font-family="LMRoman6"><tspan y="-697.725" x="48.059">5</tspan></text>
<text xml:space="preserve" transform="matrix(1 0 -0 1 0 841.89)" font-size="9.96264" font-family="LMMono10"><tspan y="-697.725" x="57.216">}</tspan></text>
<path transform="matrix(1,0,0,-1,56.693,150.94)" stroke-width=".398" stroke-linecap="butt" stroke-miterlimit="10" stroke-linejoin="miter" fill="none" stroke="#000000" d="M 0 0 L 481.89 0 "/>
<text xml:space="preserve" transform="matrix(1 0 -0 1 0 841.89)" font-size="11.95517" font-family="LMRoman12"><tspan y="-650.575" x="171.296 178.61257 181.86437 186.47907 191.03398 194.28578 200.7894 210.54482 216.40285 219.65465 225.51268">Listing3.10</tspan></text>
<text xml:space="preserve" transform="matrix(1 0 -0 1 0 841.89)" font-size="11.95517" font-family="LMRoman12"><tspan y="-650.575" x="231.353">:</tspan></text>
<text xml:space="preserve" transform="matrix(1 0 -0 1 0 841.89)" font-size="11.95517" font-family="LMRoman12"><tspan y="-650.575" x="238.506 245.65518 252.1588 255.4106 261.26866 265.88334 270.49803 273.74983 279.60786 288.70576 296.6679 299.9197 305.7897 311.64775 316.20268 321.40318 326.60368 329.85548 333.10728 338.2958 342.1932 351.13569 357.63929 363.4973 370.6465 376.5165 382.37455 386.92948 393.43309 399.2911 405.7947 412.2983 417.4988">Zul&#x00e4;ssigePivotzeile-Dualvorhanden</tspan></text>
<path transform="matrix(1,0,0,-1,56.693,195.49903)" stroke-width=".398" stroke-linecap="butt" stroke-miterlimit="10" stroke-linejoin="miter" fill="none" stroke="#000000" d="M 0 0 L 481.89 0 "/>
<text xml:space="preserve" transform="matrix(1 0 -0 1 0 841.89)" font-size="5.97758" font-family="LMRoman6"><tspan y="-634.834" x="48.059">1</tspan></text>
<text fill="#0000ff" xml:space="preserve" transform="matrix(1 0 -0 1 0 841.89)" font-size="9.96264" font-family="LMMono10"><tspan y="-634.834" x="57.53 63.597246 69.66449 75.731739">bool</tspan></text>
<text xml:space="preserve" transform="matrix(1 0 -0 1 0 841.89)" font-size="9.96264" font-family="LMMono10"><tspan y="-634.834" x="88.991 95.12798 101.27493 107.42188 113.56883 119.71578 125.86273 132.70708 138.63486 145.5589 151.78556 158.0122 164.24883 170.47548 176.70214 182.92879 189.1654 195.39206 201.61872 207.84537 214.08199 220.30864 226.5353 232.76195 238.9886 245.22522 251.45188 257.67854 263.90519 270.14179 276.88648">Simplex::isRowPivotDoubleValid(</tspan></text>
<text fill="#0000ff" xml:space="preserve" transform="matrix(1 0 -0 1 0 841.89)" font-size="9.96264" font-family="LMMono10"><tspan y="-634.834" x="283.433 289.4405 295.45793">int</tspan></text>
<text xml:space="preserve" transform="matrix(1 0 -0 1 0 841.89)" font-size="9.96264" font-family="LMMono10"><tspan y="-634.834" x="308.277 314.55348">s)</tspan></text>
<text xml:space="preserve" transform="matrix(1 0 -0 1 0 841.89)" font-size="5.97758" font-family="LMRoman6"><tspan y="-622.879" x="48.059">2</tspan></text>
<text xml:space="preserve" transform="matrix(1 0 -0 1 0 841.89)" font-size="9.96264" font-family="LMMono10"><tspan y="-622.879" x="57.216">{</tspan></text>
<text xml:space="preserve" transform="matrix(1 0 -0 1 0 841.89)" font-size="5.97758" font-family="LMRoman6"><tspan y="-610.924" x="48.059">3</tspan></text>
<text fill="#0000ff" xml:space="preserve" transform="matrix(1 0 -0 1 0 841.89)" font-size="9.96264" font-family="LMMono10"><tspan y="-610.924" x="82.584 88.59147 94.6089">for</tspan></text>
<text xml:space="preserve" transform="matrix(1 0 -0 1 0 841.89)" font-size="9.96264" font-family="LMMono10"><tspan y="-610.924" x="107.428">(</tspan></text>
<text fill="#0000ff" xml:space="preserve" transform="matrix(1 0 -0 1 0 841.89)" font-size="9.96264" font-family="LMMono10"><tspan y="-610.924" x="113.966 119.97347 125.990909">int</tspan></text>
<text xml:space="preserve" transform="matrix(1 0 -0 1 0 841.89)" font-size="9.96264" font-family="LMMono10"><tspan y="-610.924" x="138.811 151.36394 164.08625 170.01403 182.74628 195.46858 208.161 214.22826 220.29552 226.36278 232.95806 245.68036 251.60814 258.06394 264.3404">j=0;j&#x003c;cols;++j)</tspan></text>
<text xml:space="preserve" transform="matrix(1 0 -0 1 0 841.89)" font-size="5.97758" font-family="LMRoman6"><tspan y="-598.969" x="48.059">4</tspan></text>
<text xml:space="preserve" transform="matrix(1 0 -0 1 0 841.89)" font-size="9.96264" font-family="LMMono10"><tspan y="-598.969" x="82.322">{</tspan></text>
<text xml:space="preserve" transform="matrix(1 0 -0 1 0 841.89)" font-size="5.97758" font-family="LMRoman6"><tspan y="-587.014" x="48.059">5</tspan></text>
<text fill="#0000ff" xml:space="preserve" transform="matrix(1 0 -0 1 0 841.89)" font-size="9.96264" font-family="LMMono10"><tspan y="-587.014" x="107.603 113.53077">if</tspan></text>
<text xml:space="preserve" transform="matrix(1 0 -0 1 0 841.89)" font-size="9.96264" font-family="LMMono10"><tspan y="-587.014" x="126.258 132.53447 138.81095 145.08742 151.53325 157.46103 163.91683 170.1933 182.9156 195.46854 201.39632">(A[s][j]&#x003c;0)</tspan></text>
<text xml:space="preserve" transform="matrix(1 0 -0 1 0 841.89)" font-size="5.97758" font-family="LMRoman6"><tspan y="-575.059" x="48.059">6</tspan></text>
<text fill="#0000ff" xml:space="preserve" transform="matrix(1 0 -0 1 0 841.89)" font-size="9.96264" font-family="LMMono10"><tspan y="-575.059" x="132.908 139.03504 145.16207 151.2891 157.41613 163.54315">return</tspan></text>
<text fill="#0000ff" xml:space="preserve" transform="matrix(1 0 -0 1 0 841.89)" font-size="9.96264" font-family="LMMono10"><tspan y="-575.059" x="176.784 182.85126 188.91852 194.98578">true</tspan></text>
<text xml:space="preserve" transform="matrix(1 0 -0 1 0 841.89)" font-size="9.96264" font-family="LMMono10"><tspan y="-575.059" x="201.576">;</tspan></text>
<text xml:space="preserve" transform="matrix(1 0 -0 1 0 841.89)" font-size="5.97758" font-family="LMRoman6"><tspan y="-563.103" x="48.059">7</tspan></text>
<text xml:space="preserve" transform="matrix(1 0 -0 1 0 841.89)" font-size="9.96264" font-family="LMMono10"><tspan y="-563.103" x="82.322">}</tspan></text>
<text xml:space="preserve" transform="matrix(1 0 -0 1 0 841.89)" font-size="5.97758" font-family="LMRoman6"><tspan y="-551.148" x="48.059">8</tspan></text>
<text fill="#0000ff" xml:space="preserve" transform="matrix(1 0 -0 1 0 841.89)" font-size="9.96264" font-family="LMMono10"><tspan y="-551.148" x="82.696 88.82302 94.95004 101.077068 107.20409 113.33111">return</tspan></text>
<text fill="#0000ff" xml:space="preserve" transform="matrix(1 0 -0 1 0 841.89)" font-size="9.96264" font-family="LMMono10"><tspan y="-551.148" x="126.606 132.70314 138.81024 144.90738 151.01448">false</tspan></text>
<text xml:space="preserve" transform="matrix(1 0 -0 1 0 841.89)" font-size="9.96264" font-family="LMMono10"><tspan y="-551.148" x="157.64">;</tspan></text>
<text xml:space="preserve" transform="matrix(1 0 -0 1 0 841.89)" font-size="5.97758" font-family="LMRoman6"><tspan y="-539.193" x="48.059">9</tspan></text>
<text xml:space="preserve" transform="matrix(1 0 -0 1 0 841.89)" font-size="9.96264" font-family="LMMono10"><tspan y="-539.193" x="57.216">}</tspan></text>
<path transform="matrix(1,0,0,-1,56.693,309.472)" stroke-width=".398" stroke-linecap="butt" stroke-miterlimit="10" stroke-linejoin="miter" fill="none" stroke="#000000" d="M 0 0 L 481.89 0 "/>
<text xml:space="preserve" transform="matrix(1 0 -0 1 0 841.89)" font-size="11.95517" font-family="LMRoman12"><tspan y="-506.217" x="221.079 228.39556 231.64736 236.26206 240.81697 244.06877 250.57239 260.32783 266.18586 269.43766 275.2957">Listing3.11</tspan></text>
<text xml:space="preserve" transform="matrix(1 0 -0 1 0 841.89)" font-size="11.95517" font-family="LMRoman12"><tspan y="-506.217" x="281.136">:</tspan></text>
<text xml:space="preserve" transform="matrix(1 0 -0 1 0 841.89)" font-size="11.95517" font-family="LMRoman12"><tspan y="-506.217" x="288.29 296.25215 299.50395 305.36198 311.22 315.77494 320.38963 326.89323 332.75126 336.00306 340.55799 345.75849 349.65589 358.59837 365.10197 370.96">Pivotspalte-Dual</tspan></text>
<path transform="matrix(1,0,0,-1,56.693,339.858)" stroke-width=".398" stroke-linecap="butt" stroke-miterlimit="10" stroke-linejoin="miter" fill="none" stroke="#000000" d="M 0 0 L 481.89 0 "/>
<text xml:space="preserve" transform="matrix(1 0 -0 1 0 841.89)" font-size="5.97758" font-family="LMRoman6"><tspan y="-490.476" x="48.059">1</tspan></text>
<text fill="#008000" xml:space="preserve" transform="matrix(1 0 -0 1 0 841.89)" font-size="9.96264" font-family="LMMono10"><tspan y="-490.476" x="57.39 63.31777">//</tspan></text>
<text fill="#008000" xml:space="preserve" transform="matrix(1 0 -0 1 0 841.89)" font-size="9.96264" font-family="LMMono10"><tspan y="-490.476" x="70.187 76.35387 82.5307 88.69757 94.874408 101.041278 107.21811 113.38498 119.56181">Bestimmen</tspan></text>
<text fill="#008000" xml:space="preserve" transform="matrix(1 0 -0 1 0 841.89)" font-size="9.96264" font-family="LMMono10"><tspan y="-490.476" x="132.796 138.80348 144.82093">der</tspan></text>
<text fill="#008000" xml:space="preserve" transform="matrix(1 0 -0 1 0 841.89)" font-size="9.96264" font-family="LMMono10"><tspan y="-490.476" x="158.076 164.26282 170.44963 176.63645 182.8332 189.02002 195.20684 201.39365 207.59041 213.77722 219.96404">Pivotspalte</tspan></text>
<text fill="#008000" xml:space="preserve" transform="matrix(1 0 -0 1 0 841.89)" font-size="9.96264" font-family="LMMono10"><tspan y="-490.476" x="232.959">t</tspan></text>
<text xml:space="preserve" transform="matrix(1 0 -0 1 0 841.89)" font-size="5.97758" font-family="LMRoman6"><tspan y="-478.521" x="48.059">2</tspan></text>
<text fill="#0000ff" xml:space="preserve" transform="matrix(1 0 -0 1 0 841.89)" font-size="9.96264" font-family="LMMono10"><tspan y="-478.521" x="57.478 63.48547 69.50291">int</tspan></text>
<text xml:space="preserve" transform="matrix(1 0 -0 1 0 841.89)" font-size="9.96264" font-family="LMMono10"><tspan y="-478.521" x="82.714 88.85098 94.99793 101.14488 107.29183 113.43878 119.58573 126.43006 132.35784 139.27191 145.4886 151.70529 157.92198 164.14864 170.36533 176.58202 182.7987 189.0154 195.23209 201.45874 207.67543 213.89212 220.10881 226.3255 232.55216 238.76885 245.68292 251.6107">Simplex::indexPivotColDual()</tspan></text>
<text xml:space="preserve" transform="matrix(1 0 -0 1 0 841.89)" font-size="5.97758" font-family="LMRoman6"><tspan y="-466.565" x="48.059">3</tspan></text>
<text xml:space="preserve" transform="matrix(1 0 -0 1 0 841.89)" font-size="9.96264" font-family="LMMono10"><tspan y="-466.565" x="57.216">{</tspan></text>
<text xml:space="preserve" transform="matrix(1 0 -0 1 0 841.89)" font-size="5.97758" font-family="LMRoman6"><tspan y="-454.61" x="48.059">4</tspan></text>
<text fill="#0000ff" xml:space="preserve" transform="matrix(1 0 -0 1 0 841.89)" font-size="9.96264" font-family="LMMono10"><tspan y="-454.61" x="82.696 88.82302 94.95004 101.077068 107.20409 113.33111">double</tspan></text>
<text xml:space="preserve" transform="matrix(1 0 -0 1 0 841.89)" font-size="9.96264" font-family="LMMono10"><tspan y="-454.61" x="126.519 132.52648 138.54392 145.0794 157.63234 170.18527 176.46175 189.28368 195.29116 201.3086 207.84409 220.39702 232.94995 239.22643 252.19779 258.3746 264.54148 270.7183 276.88517 283.06199 289.22886 295.40568 301.5825 308.27738 320.8303 333.3832 339.65968 352.631 358.79789 364.9747 371.14158 377.3184 383.48527 389.66209 395.82896 402.00578 408.70066 421.25358 433.97587 439.90364">tmp{0},max{0},index_max{0},index_tmp{0};</tspan></text>
<text xml:space="preserve" transform="matrix(1 0 -0 1 0 841.89)" font-size="5.97758" font-family="LMRoman6"><tspan y="-442.655" x="48.059">5</tspan></text>
<text fill="#0000ff" xml:space="preserve" transform="matrix(1 0 -0 1 0 841.89)" font-size="9.96264" font-family="LMMono10"><tspan y="-442.655" x="82.636 88.70325 94.77049 100.83774">bool</tspan></text>
<text xml:space="preserve" transform="matrix(1 0 -0 1 0 841.89)" font-size="9.96264" font-family="LMMono10"><tspan y="-442.655" x="114.053 120.15014 126.25723 132.35437 138.46147 145.08664">first{</tspan></text>
<text fill="#0000ff" xml:space="preserve" transform="matrix(1 0 -0 1 0 841.89)" font-size="9.96264" font-family="LMMono10"><tspan y="-442.655" x="157.954 164.02126 170.08852 176.15578">true</tspan></text>
<text xml:space="preserve" transform="matrix(1 0 -0 1 0 841.89)" font-size="9.96264" font-family="LMMono10"><tspan y="-442.655" x="189.197 195.12479">};</tspan></text>
<text xml:space="preserve" transform="matrix(1 0 -0 1 0 841.89)" font-size="5.97758" font-family="LMRoman6"><tspan y="-430.7" x="48.059">6</tspan></text>
<text fill="#0000ff" xml:space="preserve" transform="matrix(1 0 -0 1 0 841.89)" font-size="9.96264" font-family="LMMono10"><tspan y="-430.7" x="82.584 88.59147 94.6089">for</tspan></text>
<text xml:space="preserve" transform="matrix(1 0 -0 1 0 841.89)" font-size="9.96264" font-family="LMMono10"><tspan y="-430.7" x="107.428">(</tspan></text>
<text fill="#0000ff" xml:space="preserve" transform="matrix(1 0 -0 1 0 841.89)" font-size="9.96264" font-family="LMMono10"><tspan y="-430.7" x="113.966 119.97347 125.990909">int</tspan></text>
<text xml:space="preserve" transform="matrix(1 0 -0 1 0 841.89)" font-size="9.96264" font-family="LMMono10"><tspan y="-430.7" x="138.811 151.36394 164.08625 170.01403 182.74628 195.46858 208.161 214.22826 220.29552 226.36278 232.95806 245.68036 251.60814 258.06394 264.3404">j=0;j&#x003c;cols;++j)</tspan></text>
<text xml:space="preserve" transform="matrix(1 0 -0 1 0 841.89)" font-size="5.97758" font-family="LMRoman6"><tspan y="-418.745" x="48.059">7</tspan></text>
<text xml:space="preserve" transform="matrix(1 0 -0 1 0 841.89)" font-size="9.96264" font-family="LMMono10"><tspan y="-418.745" x="82.322">{</tspan></text>
<text xml:space="preserve" transform="matrix(1 0 -0 1 0 841.89)" font-size="5.97758" font-family="LMRoman6"><tspan y="-406.79" x="48.059">8</tspan></text>
<text fill="#0000ff" xml:space="preserve" transform="matrix(1 0 -0 1 0 841.89)" font-size="9.96264" font-family="LMMono10"><tspan y="-406.79" x="107.603 113.53077">if</tspan></text>
<text xml:space="preserve" transform="matrix(1 0 -0 1 0 841.89)" font-size="9.96264" font-family="LMMono10"><tspan y="-406.79" x="126.258 132.53447 138.81095 145.48592 151.6528 157.80973 163.96665 170.13353 176.29045 182.44738 188.61426 195.46857 201.39635 207.85214 214.12862 226.85092 239.40386 245.33164">(A[pivotRow][j]&#x003c;0)</tspan></text>
<text xml:space="preserve" transform="matrix(1 0 -0 1 0 841.89)" font-size="5.97758" font-family="LMRoman6"><tspan y="-394.834" x="48.059">9</tspan></text>
<text xml:space="preserve" transform="matrix(1 0 -0 1 0 841.89)" font-size="9.96264" font-family="LMMono10"><tspan y="-394.834" x="107.428">{</tspan></text>
<text xml:space="preserve" transform="matrix(1 0 -0 1 0 841.89)" font-size="5.97758" font-family="LMRoman6"><tspan y="-382.879" x="44.406 48.0583">10</tspan></text>
<text fill="#0000ff" xml:space="preserve" transform="matrix(1 0 -0 1 0 841.89)" font-size="9.96264" font-family="LMMono10"><tspan y="-382.879" x="132.709 138.63678">if</tspan></text>
<text xml:space="preserve" transform="matrix(1 0 -0 1 0 841.89)" font-size="9.96264" font-family="LMMono10"><tspan y="-382.879" x="151.364 157.98917 164.0863 170.1934 176.29055 182.39765 189.02281">(first)</tspan></text>
<text xml:space="preserve" transform="matrix(1 0 -0 1 0 841.89)" font-size="5.97758" font-family="LMRoman6"><tspan y="-370.924" x="44.406 48.0583">11</tspan></text>
<text xml:space="preserve" transform="matrix(1 0 -0 1 0 841.89)" font-size="9.96264" font-family="LMMono10"><tspan y="-370.924" x="132.534">{</tspan></text>
<text xml:space="preserve" transform="matrix(1 0 -0 1 0 841.89)" font-size="5.97758" font-family="LMRoman6"><tspan y="-358.969" x="44.406 48.0583">12</tspan></text>
<text xml:space="preserve" transform="matrix(1 0 -0 1 0 841.89)" font-size="9.96264" font-family="LMMono10"><tspan y="-358.969" x="157.902 163.90947 169.92691 182.73888 195.29181 201.56829 207.84476 214.12123 220.3977 232.95064 245.50357 251.78005 258.465 264.63188 270.78877 276.94566 283.11253 289.2694 295.4263 301.59318 308.44746 314.3752 320.82106 327.27684 333.2046 339.65043">max=(c[j]/A[pivotRow][j]);</tspan></text>
<text xml:space="preserve" transform="matrix(1 0 -0 1 0 841.89)" font-size="5.97758" font-family="LMRoman6"><tspan y="-347.014" x="44.406 48.0583">13</tspan></text>
<text xml:space="preserve" transform="matrix(1 0 -0 1 0 841.89)" font-size="9.96264" font-family="LMMono10"><tspan y="-347.014" x="158.059 164.22589 170.40274 176.56963 182.74648 188.91336 195.09021 201.2571 207.43395 220.4053 232.95824 239.23471">index_max=j;</tspan></text>
<text xml:space="preserve" transform="matrix(1 0 -0 1 0 841.89)" font-size="5.97758" font-family="LMRoman6"><tspan y="-335.059" x="44.406 48.0583">14</tspan></text>
<text xml:space="preserve" transform="matrix(1 0 -0 1 0 841.89)" font-size="9.96264" font-family="LMMono10"><tspan y="-335.059" x="157.989 164.08614 170.19324 176.29038 182.39748 195.2991">first=</tspan></text>
<text fill="#0000ff" xml:space="preserve" transform="matrix(1 0 -0 1 0 841.89)" font-size="9.96264" font-family="LMMono10"><tspan y="-335.059" x="208.201 214.29814 220.40525 226.50238 232.60948">false</tspan></text>
<text xml:space="preserve" transform="matrix(1 0 -0 1 0 841.89)" font-size="9.96264" font-family="LMMono10"><tspan y="-335.059" x="239.235">;</tspan></text>
<text xml:space="preserve" transform="matrix(1 0 -0 1 0 841.89)" font-size="5.97758" font-family="LMRoman6"><tspan y="-323.103" x="44.406 48.0583">15</tspan></text>
<text xml:space="preserve" transform="matrix(1 0 -0 1 0 841.89)" font-size="9.96264" font-family="LMMono10"><tspan y="-323.103" x="132.534">}</tspan></text>
<text xml:space="preserve" transform="matrix(1 0 -0 1 0 841.89)" font-size="5.97758" font-family="LMRoman6"><tspan y="-311.148" x="44.406 48.0583">16</tspan></text>
<text xml:space="preserve" transform="matrix(1 0 -0 1 0 841.89)" font-size="9.96264" font-family="LMMono10"><tspan y="-311.148" x="132.796 138.80348 144.82093 157.63289 170.18582 176.4623 182.73877 189.01525 195.29172 207.84465 220.39759 226.67406 233.359 239.52588 245.6828 251.83972 258.0066 264.16349 270.32038 276.48725 283.34153 289.2693 295.71513 302.1709 308.09867 314.5445">tmp=(c[j]/A[pivotRow][j]);</tspan></text>
<text xml:space="preserve" transform="matrix(1 0 -0 1 0 841.89)" font-size="5.97758" font-family="LMRoman6"><tspan y="-299.193" x="44.406 48.0583">17</tspan></text>
<text xml:space="preserve" transform="matrix(1 0 -0 1 0 841.89)" font-size="9.96264" font-family="LMMono10"><tspan y="-299.193" x="132.953 139.11989 145.29674 151.46363 157.64048 163.80736 169.9842 176.1511 182.32794 195.2993 207.85224 214.12871">index_tmp=j;</tspan></text>
<text xml:space="preserve" transform="matrix(1 0 -0 1 0 841.89)" font-size="5.97758" font-family="LMRoman6"><tspan y="-287.238" x="44.406 48.0583">18</tspan></text>
<text xml:space="preserve" transform="matrix(1 0 -0 1 0 841.89)" font-size="9.96264" font-family="LMMono10"><tspan y="-287.238" x="132.953 139.11989 145.29674 151.46363 157.64048 163.80736 169.9842 176.1511 182.32794 195.2993 208.11127 214.12871 220.13619 233.12747 245.77007 251.7875 257.79499 270.61689 283.58824 289.7551 295.93193 302.0988 308.2756 314.44248 320.6193 326.78617 332.96299 345.93434 358.90568 365.07255 371.24937 377.41624 383.59306 389.75993 395.93675 402.1036 408.28044 414.9753">index_max=tmp&#x003e;max?index_tmp:index_max;</tspan></text>
<text xml:space="preserve" transform="matrix(1 0 -0 1 0 841.89)" font-size="5.97758" font-family="LMRoman6"><tspan y="-275.283" x="44.406 48.0583">19</tspan></text>
<text xml:space="preserve" transform="matrix(1 0 -0 1 0 841.89)" font-size="9.96264" font-family="LMMono10"><tspan y="-275.283" x="107.428">}</tspan></text>
<text xml:space="preserve" transform="matrix(1 0 -0 1 0 841.89)" font-size="5.97758" font-family="LMRoman6"><tspan y="-263.328" x="44.406 48.0583">20</tspan></text>
<text xml:space="preserve" transform="matrix(1 0 -0 1 0 841.89)" font-size="9.96264" font-family="LMMono10"><tspan y="-263.328" x="82.322">}</tspan></text>
<text xml:space="preserve" transform="matrix(1 0 -0 1 0 841.89)" font-size="5.97758" font-family="LMRoman6"><tspan y="-251.372" x="44.406 48.0583">21</tspan></text>
<text fill="#0000ff" xml:space="preserve" transform="matrix(1 0 -0 1 0 841.89)" font-size="9.96264" font-family="LMMono10"><tspan y="-251.372" x="82.696 88.82302 94.95004 101.077068 107.20409 113.33111">return</tspan></text>
<text xml:space="preserve" transform="matrix(1 0 -0 1 0 841.89)" font-size="9.96264" font-family="LMMono10"><tspan y="-251.372" x="126.676 132.84288 139.01973 145.18662 151.36347 157.53035 163.7072 169.87409 176.05094 182.74584">index_max;</tspan></text>
<text xml:space="preserve" transform="matrix(1 0 -0 1 0 841.89)" font-size="5.97758" font-family="LMRoman6"><tspan y="-239.417" x="44.406 48.0583">22</tspan></text>
<text xml:space="preserve" transform="matrix(1 0 -0 1 0 841.89)" font-size="9.96264" font-family="LMMono10"><tspan y="-239.417" x="57.216">}</tspan></text>
<path transform="matrix(1,0,0,-1,56.693,609.247)" stroke-width=".398" stroke-linecap="butt" stroke-miterlimit="10" stroke-linejoin="miter" fill="none" stroke="#000000" d="M 0 0 L 481.89 0 "/>
<text xml:space="preserve" transform="matrix(1 0 -0 1 0 841.89)" font-size="11.95517" font-family="LMRoman12"><tspan y="-20.306" x="291.785 297.64305">22</tspan></text>
</g>
</svg>
