<?xml version="1.0" encoding="UTF-8" standalone="no"?>
<!DOCTYPE svg PUBLIC "-//W3C//DTD SVG 1.1//EN" "http://www.w3.org/Graphics/SVG/1.1/DTD/svg11.dtd">
<svg xmlns="http://www.w3.org/2000/svg" xmlns:xlink="http://www.w3.org/1999/xlink" version="1.1" width="595.276pt" height="841.89pt" viewBox="0 0 595.276 841.89">
<g enable-background="new">
<text xml:space="preserve" transform="matrix(1 0 -0 1 0 841.89)" font-size="24.78705" font-family="LMRoman17"><tspan y="-754.965" x="56.693 79.42273 92.08891 98.285678 117.42128 130.08747 136.28423 146.34777 158.36948 165.85517 183.0326 189.22936 200.60662 211.98387 220.75849 226.95525 235.72986 248.39604 266.91197 279.57814">1Simplex-Algorithmus</tspan></text>
<text xml:space="preserve" transform="matrix(1 0 -0 1 0 841.89)" font-size="11.95517" font-family="LMRoman12"><tspan y="-715.6" x="56.693 64.65514 73.50197 78.70247 84.88329 88.1351 92.749797 97.30471 100.55652 105.75702 110.311939 115.512439 126.26014 131.46063 137.31867 143.82228 147.07408 151.629 156.8295 160.0813 164.95902 171.46263 180.89527 188.8574 193.41233 199.27036 205.77397 209.02577 214.22628 223.98169 229.18219 236.67807 244.80759 250.00809 253.25989 258.1376 264.6412 274.07383 280.57743 286.43547 295.29423 302.44343 305.69523 310.89573 318.37965 324.88325 330.74128 337.56767 342.76817 349.27177 356.76765 363.27125 366.52305 375.96763 381.82566 388.32926 392.8842 396.136 405.89143 411.74946 415.00126 420.20176 430.93748 438.58879 444.4468 449.00175 454.85978 464.6152 469.8157 474.37065 479.57115 488.3582 493.5587 496.8105 503.3141 508.5146 517.3614 523.865 530.04586 534.6605">EsexistierenzahlreicheProbleme,welchedasZielhaben,dieoptimalenParametereinesSys-</tspan><tspan y="-701.154" x="56.693 61.24792 66.44842 76.203838 83.795368 88.995868 98.48827 104.99188 111.4955 117.999118 123.199619 129.70323 135.94384 140.164 149.64446 156.14807 159.39987 164.60037 169.21508 174.41558 187.15979 194.30898 200.81259 205.42729 211.28533 221.04074 230.79616 235.99666 242.50028 249.00389 254.86193 261.36555 270.2004 277.03877 282.23927 288.74287 293.94337 300.44697 305.0019 310.2024 317.73417 324.23777 330.0958 336.5994 341.15434 344.40614 354.16157 360.0196 363.2714 369.775 376.0156 382.5192 388.37724 392.9919 400.58345 405.78395 409.03575 415.53935 423.72865 430.87785 434.12965 439.33015 442.58195 446.15653 452.66014 459.16374 465.34455 469.89949 473.15129 479.0093 488.48976 498.24519 501.49699 508.00059 511.25239 521.0078 524.25967 529.46017 534.0151">temszu&#xfb01;nden.IndiesemZusammenhangbedeutet&#x00bb;optimal&#x00ab;,dasseineZielfunktionminimiert</tspan><tspan y="-686.708" x="56.693 62.87382 69.37743 74.577938 83.35303 93.108448 98.96648 105.1473 108.39911 118.154529 121.406337 126.606838 131.16176 139.93685 148.38915 151.64095 156.19586 162.69948 170.17145 178.13359 184.32637 188.88129 193.49599 199.9996 204.55452 209.75502 214.62078 221.12439 226.32489 232.8285 239.33213 248.75279 255.25641 264.36625 270.86985 275.42478 278.67658 288.432 291.6838 296.8843 301.43925 307.94285 314.44645 320.30448 324.91917 331.42277 335.9777 341.83573 348.33934 351.59114 356.79164 366.54707 371.74757 384.42 388.97496 393.52989 398.73039 403.2853 408.4858 419.2096 425.7132 431.57124 438.07484 444.57844 454.65666 457.90846 468.63224 474.49028 479.69078 484.2457 488.86039 493.7381 500.2417 503.4935 508.694 515.19766 520.39816 526.90176 532.10226">odermaximiertwird.Entsprechende&#x00bb;Optimierungsprobleme&#x00ab;tretenh&#x00e4;u&#xfb01;ginverschiedenen</tspan><tspan y="-672.263" x="56.693 63.196615 69.05465 73.609569 80.113178 84.66809 93.12039 96.3722 100.98689 105.601589 110.802089 117.305698 121.92039 126.798099 133.30171 139.15975 142.73435 147.28926 150.54106 153.79286 158.67058 165.1742 170.3747 179.91492 188.85739 192.10919 196.72389 201.9244 205.1762 211.67981 214.93161 218.18341 224.68703 229.88753 239.43972 245.29775 251.80136 255.37596 261.67634 270.1406 276.6442 281.5219 291.06214 297.56575 300.81755 309.0666 321.0935 324.3453 328.90025 333.45518 338.06986 342.94758 349.45118 355.3092 358.8838 363.43873 368.0534 376.5057 379.7575 384.3722 388.98689 394.18739 400.69099 405.30567 410.18339 416.68699 422.545 426.1196 430.67454 435.87504 445.41526 451.91886 455.17066 460.37117 464.9261 470.1266 479.67875 486.18235 489.43415 495.29219 500.49269 505.0476 509.6623 517.8994 526.1843 531.3848 534.63668">naturwissenschaftlichenDisziplinenauf.AuchdieWirtschaftswissenschaftenbietendiverseBei-</tspan><tspan y="-657.817" x="56.693 61.307699 67.81131 71.06312 76.26362 79.51543 88.60136 92.17595 98.679569 107.11991 116.22975 122.73337 127.288288 130.54009 140.2955 143.5473 148.7478 153.30272 159.80634 166.30995 172.16799 176.78269 182.64072 189.14434 192.71894 198.57697 204.435 211.2614 216.4619 222.96552 230.10276 239.28432 244.48482 252.61434 258.47239 264.97599 271.47959 274.73139 277.9832 282.8609 293.23799 296.48979 302.3478 306.9625 311.57719 316.77769 327.16673 331.7814 335.0332 339.92289 350.29997 356.80357 360.05537 365.25587 369.87055 378.95649 386.91865 393.11143 397.66636 402.28105 407.15876 413.66236 418.86286 422.11466 428.61827 435.12187 441.62547 447.4835 452.09819 458.60179 463.1567 469.01475 475.51835 478.77015 483.97065 493.72608 502.80006 512.5555 518.4135 522.96847 529.47207 534.67257">spielef&#x00fc;rOptimierungsaufgaben.Gew&#x00f6;hnlichlassensichdieseEntscheidungsproblememathe-</tspan><tspan y="-643.371" x="56.693 66.44842 72.30645 76.86137 80.113178 84.72787 89.605579 99.13385 102.70844 108.566478 113.12139 122.56597 129.06958 132.32138 135.57318 140.77368 145.3286 150.5291 157.03272 163.30918 172.419 175.9936 180.54853 190.30394 196.16197 199.41378 207.05313 212.92311 218.78115 225.28476 231.78838 236.98888 246.51715 253.02077 256.27259 264.49775 273.60758 280.11119 284.6661 287.9179 297.67335 300.92515 306.12565 310.68058 317.18418 323.68778 329.5458 334.1605 340.6641 345.21903 351.07707 357.58067 360.83247 366.03297 375.7884 384.0255 389.88356 396.38716 402.24519 405.49699 411.6778 416.23274 419.48454 424.0992 428.9889 438.5052 445.0088 448.2606 453.15028 459.3311 466.91069 472.7687 477.9692 481.221 487.07905 491.69374 499.27333 507.4148 512.6153 517.1702 523.6738 528.8743 535.3779">matischformulieren.Oftmalsk&#x00f6;nnendieOptimierungsproblemeanalytischnichtgel&#x00f6;stwerden.</tspan><tspan y="-628.925" x="56.693 63.196615 69.05465 78.81007 82.061878 91.327129 100.771709 107.275318 111.89001 116.5047 121.7052 132.91916 139.42278 145.2808 151.78443 158.28804 168.86837 175.06114 181.56476 191.32018 196.52068 201.07559 204.3274 208.9421 213.80785 220.31147 230.2223 238.04099 243.24149 247.7964 251.371 257.22904 263.73265 268.28758 273.4761 284.69004 289.89054 296.39414 305.67137 313.9563 319.1568 323.77149 328.32643 331.57823 341.33366 350.77827 357.28187 363.78547 374.35383 380.85743 386.05793 395.33515 401.19319 407.69679 412.2517 415.5035 425.25895 431.11698 434.36878 439.56929 450.79518 458.43455 464.29258 468.8475 474.70555 484.46098 489.66148 494.2164 499.4169 508.68217 513.8826 517.13449 523.63809 529.4961 534.6966">Somitm&#x00fc;ssenh&#x00e4;u&#xfb01;gnumerischeVerfahrenzurBestimmungderoptimalenParametereinge-</tspan><tspan y="-614.479" x="56.693 61.307699 66.508197 71.06311 76.26361 84.71591 92.857379 98.04592 102.60084 109.10445 114.30495 120.80856 127.957759">setztwerden.[</tspan></text>
<text xml:space="preserve" transform="matrix(1 0 -0 1 0 841.89)" font-size="11.95517" font-family="LMRoman12" font-weight="bold"><tspan y="-614.479" x="131.221">?</tspan></text>
<text xml:space="preserve" transform="matrix(1 0 -0 1 0 841.89)" font-size="11.95517" font-family="LMRoman12"><tspan y="-614.479" x="137.572">,</tspan></text>
<text xml:space="preserve" transform="matrix(1 0 -0 1 0 841.89)" font-size="11.95517" font-family="LMRoman12" font-weight="bold"><tspan y="-614.479" x="144.726">?</tspan></text>
<text xml:space="preserve" transform="matrix(1 0 -0 1 0 841.89)" font-size="11.95517" font-family="LMRoman12"><tspan y="-614.479" x="151.077">]</tspan><tspan y="-600.033" x="56.693 63.842195 76.20384 82.70746 87.90796 100.28156 105.48206 108.73387 115.23749 118.81208 124.67011 129.55977 136.06339 140.67809 145.233 150.4335 162.79515 172.55057 178.4086 182.96352 189.46714 194.66764 204.42305 210.28108 214.836 218.0878 222.7025 227.58022 234.08383 239.28433 251.64598 260.75584 267.25944 271.81437 275.06617 284.8216 288.0734 293.2739 297.82884 304.33244 310.83604 316.69407 321.30876 327.81236 332.36729 338.2253 344.7289 347.9807 353.1812 362.93666 368.13716 380.51075 386.36878 391.56929 398.07289 403.9309 408.48585 413.68635 426.04798 432.55158 435.80339 446.87388 450.12568 453.37748 459.88108 465.08158 470.9396 475.49455 480.69505 493.06864 502.17848 508.68208 513.237 516.48886 526.24429 529.4961 534.6966">ZudeneinfachstenmathematischenOptimierungsproblemengeh&#x00f6;rendielinearenOptimie-</tspan><tspan y="-585.588" x="56.693 61.24792 67.75153 74.25514 80.113178 84.72787 94.483287 100.66411 107.167728 112.368228 115.62003 118.87184 124.07234 131.81929 139.78144 143.03324 154.04395 162.49625 165.74805 170.30297 176.48378 182.9874 189.49102 195.34905 199.96375 205.83373 211.69176 214.94356 218.19536 223.38391 232.49376 238.68654 245.19016 254.94557 260.14607 264.701 267.9528 272.56748 277.4452 283.9488 289.13734 298.24717 306.05387 311.25437 315.8093 319.38389 325.2419 331.7455 336.30046 341.50096 352.4997 357.7002 364.2038 373.25389 380.57044 386.42848 391.04316 397.54676 404.05036 414.4155 420.9191 424.1709 429.3714 433.98609 439.18659 448.23667 451.48847 454.74028 461.24388 466.44438 472.3024 476.85734 482.05784 493.05659 502.1664 508.67 513.2249 516.47677 526.2322 529.484 534.6845">rungsmodelle.EinwirkungsvollesnumerischesVerfahrenzurL&#x00f6;sungdieserlinearenOptimie-</tspan><tspan y="-571.142" x="56.693 61.24792 67.75153 74.25514 80.113178 84.72787 91.231479 95.78639 101.644428 108.14804 111.39985 116.60035 126.35577 135.32215 138.57395 143.18865 151.5214 158.02501 163.22551 171.55826 178.06188 181.31368 191.06909 197.57271 200.82451 206.02501 212.20583 216.10321 224.87831 228.13011 233.98815 239.84618 244.4011 247.6529 252.20781 258.71144 268.14408 274.64768 279.26237 286.28004 295.2225 300.423 308.75578 315.25938 318.51118 328.2666 334.7702 338.022 343.2225 349.40333 353.30073 362.0758 365.3276 371.18565 377.04368 381.5986 384.8504 389.40534 395.90895 405.34159 411.84519 420.22575 428.67805 435.18165 439.73658 446.24018 455.2185 462.0449 467.2454 471.80033 477.00083 480.25263 484.80757 493.20008 499.0581 504.91615 510.77418 520.41006 526.26809 532.1261">rungsproblemeistderSimplex-Algorithmus.DerSimplex-Algorithmuswurdebereits1947von</tspan><tspan y="-556.696" x="56.693 65.87457 71.07507 76.933109 81.48802 87.346057 95.212558 104.15502 110.013057 116.19387 120.74879 125.94929 129.2011 137.72513 143.58316 148.78366 153.33858 159.19661 166.02301 171.22351 177.40435 181.95926 185.21106 188.46286 193.34058 199.52141 204.07633 209.98218 219.17569 224.37619 232.82849 236.08029 240.69499 247.9757 253.83373 259.69178 268.8614 274.0619 281.3426 285.95729 291.15779 294.40959 298.9645 305.4681 310.6686 317.88957 324.71595 329.91645 336.42005 341.62055 348.12416 352.67909 357.87959 364.38319 370.88679 378.7533 385.43623 391.29426 395.84919 400.4041 405.0188 409.8965 416.40013 420.95506 424.20686 428.74983 433.30476 441.17127 444.42308 456.8445 465.12947 470.32997 474.8849 480.0854 483.3372 488.22688 497.38453 503.88813 509.08863 516.3096 524.2717 528.82669 534.6847">GeorgeDantzigver&#x00f6;&#xfb00;entlicht.GewissgabesseitherbedeutendeFortschritteimBereichderPro-</tspan><tspan y="-542.25" x="56.693 62.551034 67.10595 72.96398 82.7194 92.474819 95.72662 100.927127 105.48204 111.98566 118.48927 128.89028 135.39389 141.8975 152.95604 161.57572 166.77622 171.66588 178.1695 183.37 189.87361 193.12541 198.32592 201.57772 206.19242 210.74733 217.25095 223.75457 229.6126 237.40737 243.91098 249.76902 259.52445 262.77626 271.8861 277.0866 283.26744 286.51924 291.1339 295.68885 298.94065 304.14115 308.69609 313.89659 324.9551 330.81315 336.01365 341.87168 347.07218 353.26496 361.3825 367.24055 371.79548 376.3504 379.6022 390.01518 396.51878 401.71928 408.22288 417.96635 428.69013 433.89064 438.44557 444.94917 451.14195 457.64555 462.84605 469.34965 477.15638 485.2859 490.4864 493.7382 498.6159 505.1195 514.863 520.721 527.2246 532.11428">grammierungundRechenleistung.Somitexistierengegenw&#x00e4;rtigneueMethoden,welcheauch</tspan><tspan y="-527.804" x="56.693 62.551038 68.40907 78.16449 84.668109 87.919918 93.120418 99.30124 104.50174 109.056659 119.4457 128.55554 135.05916 139.61408 142.86588 152.62129 155.8731 161.0736 165.62851 172.13213 178.63574 184.49378 189.10848 194.9665 201.47013 205.04473 210.90276 216.76079 223.58719 228.78769 240.4918 243.7436 249.60164 254.21634 259.41685 265.92045 274.3847 283.1598 289.6634 295.52143 300.72193 306.57997 311.46965 317.6385 322.19343 327.39393 337.1374 343.641 348.8415 353.45619 358.07087 363.27137 374.97547 381.47908 384.73088 389.93138 393.18318 399.68678 409.4422 415.9458 421.1463 430.90174 437.40534 440.65715 450.41258 456.91618 460.16798 465.36848 471.5493 475.4467 484.22178 487.47358 493.3316 499.18965 503.74458 506.99638 511.5513 518.05496 527.4995 534.0031">komplexereOptimierungsaufgabenl&#x00f6;sen.UngeachtetdessenbleibtderSimplex-Algorithmus</tspan><tspan y="-513.358" x="56.693 62.551034 69.05464 73.93235 84.41703 87.66884 98.16548 104.6691 111.172718 115.79936 120.99986 125.55478 130.75528 139.30323 146.45241 151.65291 154.90471 163.45265 168.65316 171.90496 178.40857 183.60907 192.15702 198.66063 203.86113 212.40908 218.2671 232.01555 236.63025 241.18517 247.0432 251.59812 257.77894 262.39363 266.94856 272.14906 282.6457 288.50373 293.70423 298.25917 304.76277 309.3177 314.5182 317.77 322.32493 327.52543 332.08036 337.28086 347.76554 356.54063 359.79243 365.65046 371.50849 376.06343 379.31523 383.87016 390.37376 400.12919 405.32969 415.8263 421.0268 427.5304 436.07838 443.39494 449.25297 453.86766 460.37126 466.87486 476.7259 479.9777 483.2295 489.7331 494.9336 500.79164 505.34657 510.54707 519.09506 528.2049 534.7085">auchinunsererZeiteinerderamst&#x00e4;rkstenverbreitetenAlgorithmenzurL&#x00f6;sunglinearerOp-</tspan><tspan y="-498.913" x="56.693 61.24792 64.499729 74.25514 77.50695 82.70745 87.26237 93.765979 100.26959 106.127628 110.74232 117.245929 121.80084 127.658878 134.16249 137.41429 142.61479 152.37021 157.57071 164.7199">timierungsprobleme.[</tspan></text>
<text xml:space="preserve" transform="matrix(1 0 -0 1 0 841.89)" font-size="11.95517" font-family="LMRoman12" font-weight="bold"><tspan y="-498.913" x="167.967">?</tspan></text>
<text xml:space="preserve" transform="matrix(1 0 -0 1 0 841.89)" font-size="11.95517" font-family="LMRoman12"><tspan y="-498.913" x="174.318">,</tspan></text>
<text xml:space="preserve" transform="matrix(1 0 -0 1 0 841.89)" font-size="11.95517" font-family="LMRoman12" font-weight="bold"><tspan y="-498.913" x="181.472">?</tspan></text>
<text xml:space="preserve" transform="matrix(1 0 -0 1 0 841.89)" font-size="11.95517" font-family="LMRoman12"><tspan y="-498.913" x="187.823">]</tspan><tspan y="-484.467" x="56.693 65.468097 78.43945 81.69126 91.42277 96.03746 99.28927 104.16698 113.886539 119.087039 122.338848 128.84246 137.2589 143.11693 148.31743 152.93213 157.8218 164.32541 167.57721 173.43524 178.04994 182.66464 187.86515 194.36876 202.77324 211.54834 216.10326 222.94162 228.14212 231.39392 239.16478 244.36528 254.08484 260.58845 265.14338 271.0014 275.6161 280.8166 287.00938 291.5643 294.8161 300.0166 304.57154 309.77204 316.27565 322.74339 330.8729 336.0734 340.62834 347.13194 352.33244 362.05198 367.25248 376.97203 385.25697 390.45747 396.3155 399.5673 406.0709 415.8024 422.306 425.5578 433.97425 442.11573 447.31623 451.9309 457.1314 463.31224 467.86717 471.11897 474.37077 479.2365 485.7401 490.9406 500.66017 508.9451 514.14559 520.0036 524.55856 527.81039 534.6368">UminsicheinegeschlosseneArbeitzupr&#x00e4;sentieren,werdenzuBeginndiewesentlichenBegri&#xfb00;-</tspan><tspan y="-470.021" x="56.693 59.94481 63.196619 68.074329 74.57794 80.435977 85.636478 88.88828 93.4432 98.6437 108.29152 114.795139 119.995639 127.70672 130.95853 134.21033 140.71395 145.91445 151.77248 156.3274 161.5279 171.18767 179.14981 183.70473 189.56276 195.42079 199.97571 205.83374 215.58916 225.34458 228.59638 233.79688 238.35179 244.85541 251.35903 260.37324 266.87684 273.38044 283.0402 289.5438 294.7443 302.51515 309.01875 312.27055 322.02598 328.52958 331.78138 336.98188 343.1627 347.0601 354.87876 360.0673 364.62223 368.1968 374.05485 380.55845 385.11338 390.31388 396.81748 404.58833 411.09193 416.94996 421.50489 427.3629 432.56343 437.1781 441.73304 446.93354 450.18534 453.43714 457.99208 464.40003 473.1751 479.6787 484.2934 489.18309 495.68669 498.93849 502.19029 507.39079 520.398 525.5985 532.1021">lichkeitenderlinearenProgrammierungunddesSimplex-Verfahrensdargestellt.Anschlie&#xfffd;end</tspan><tspan y="-455.575" x="56.693 64.82252 70.02302 74.577938 81.08154 86.28204 95.487529 101.35751 106.558017 111.11293 115.72762 120.60533 127.10895 130.36075 135.56125 142.06487 147.26537 153.76898 161.67136 169.47809 175.33612 179.89104 183.14284 189.00087 193.55579 196.80759 202.66562 209.16924 213.78394 223.53936 229.39739 235.25542 238.50722 241.75902 246.63674 253.14035 258.99839 264.19889 267.45069 272.0056 277.20613 286.4116 292.9152 298.1157 305.4442 311.9478 315.19963 324.95506 331.45866 334.71046 339.91096 346.09178 349.98918 358.76426 362.01606 367.87409 373.73213 378.28706 381.53886 386.09379 392.59739 402.042 408.5456 415.86216 421.72019 428.2238 431.79838 437.6564 442.8569 446.4315 452.9351 459.4387 463.99363 468.54856 474.52613 483.4686 486.7204 494.63475 500.50474 505.70524 510.26017 514.8749 519.74069 526.24429 529.4961 534.6966">werdenverschiedeneVariationsm&#x00f6;glichkeitendesSimplex-Algorithmusaufgef&#x00fc;hrt.Dieverschie-</tspan><tspan y="-441.129" x="56.693 63.196615 68.39711 74.90073 80.10123 90.01207 97.818798 103.67683 108.23174 111.48355 117.34158 123.52241 128.07733 133.27783 143.18868 149.69229 154.89279 162.91472 169.41834 172.67014 182.42555 188.92917 192.18097 197.38147 203.56229 207.45967 215.27835 220.47885 225.03377 228.60837 234.4664 240.95807 245.51299 250.71349 257.2171 265.239 273.3805 278.581 283.13594 289.63954 294.84004 304.7389 308.31349 313.51399 321.65547 326.85597 330.10777 333.35957 341.38148 344.95606 351.45967 359.4218 370.1456 376.00364 382.18446 385.43626 395.19169 398.44349 403.64399 408.1989 414.7025 421.20613 427.06416 431.67884 438.18244 442.73738 448.5954 455.099 458.3508 463.5513 473.30674 481.92643 488.43003 494.28807 498.843 504.70103 509.90153 514.51626 519.07119 524.27169 527.5235 530.7753 535.33029">denenVariantendesSimplex-Verfahrenswerdenjeweilsf&#x00fc;rMaximierungsproblemedargestellt.</tspan><tspan y="-426.683" x="56.693 65.468097 68.7199 73.9204 84.524639 91.351039 96.55154 102.40957 105.66138 112.16499 118.66861 123.86911 136.42205 144.87435 148.12615 158.73038 168.4858 171.7376 182.35378 188.85739 194.05789 209.86263 216.36624 220.92116 224.17296 233.92838 239.7864 243.03821 248.23871 260.79164 267.29524 270.54704 280.30247 286.80607 290.05787 295.25837 301.43919 307.30918 312.50968 317.0646 320.6392 326.49723 333.00083 337.55577 342.75627 349.25987 358.549 366.6905 371.891 375.1428 380.0205 386.5241 391.7246 402.3169 408.1869 414.04493 426.58589 431.78639 435.03819 441.54179 446.74229 457.34654 464.18489 469.38539 473.9403 479.1408 482.3926 486.94755 497.61155 504.43794 509.63844 515.8193 521.6773 528.1809 534.6845">HierbeginnenwirmitdemprimalenSimplexverfahren,welchervoneinerbereitsbekann-</tspan><tspan y="-412.238" x="56.693 61.24792 66.44842 77.93733 83.13783 89.64145 92.89326 98.75129 103.36598 107.980678 111.23248 117.090518 122.291019 133.7919 142.07683 147.93486 152.54956 155.80136 160.41606 163.66786 169.5259 174.1406 180.64421 187.14783 197.99117 203.8492 210.35282 214.96752 220.82555 226.02605 232.21883 236.77375 245.01085 253.95333 259.81138 264.3663 270.22434 281.7252 287.58323 294.08683 300.26765 306.46043 312.96403 319.46763 323.0422 328.23075 334.73435 346.22328 353.04966 358.25016 362.86485 367.75453 374.25813 378.81306 384.01356 387.26536 394.07978 399.28028 410.78114 419.23344 422.48524 432.02546 438.52906 443.72956 455.2304 461.734 468.2376 474.09565 477.34745 482.54795 494.0488 500.5524 503.8042 513.55966 520.06326 523.31509 528.51559 534.6964">tenzul&#x00e4;ssigenBasisl&#x00f6;sungausgeht.Daranankn&#x00fc;pfendbeschreibenwirdendualenSimplex-</tspan><tspan y="-397.792" x="56.693 65.468097 68.7199 74.577938 80.43597 84.99088 88.24269 92.79761 99.30122 108.73385 115.23746 119.85215 127.47955 136.42203 139.67383 144.87433 149.48903 154.68953 163.63199 172.40709 175.65889 181.51692 187.37496 191.92987 195.18167 199.73659 206.2402 215.68479 222.1884 231.1787 238.0051 243.2056 247.8203 252.70996 259.21357 263.7685 268.969 272.2208 278.7244 287.6549 294.1585 297.4103 306.99836 314.80506 320.6631 325.21803 331.07606 336.27656 342.78016 347.98066 354.48426 359.09895 367.22846 372.42897 375.68077 380.29545 389.87153 395.07203 401.57563 410.50614 418.79109 423.99159 428.60627 433.1612 436.413 446.16844 455.61305 462.11665 468.62025 478.85386 484.05436 487.30616 493.80976 499.01026 507.95274 513.1532 517.7081 522.3228 526.87777 532.07827">Algorithmus.DieserAlgorithmusbeschreibtdieVorgehensweisezurBestimmungeinerersten</tspan><tspan y="-383.346" x="56.693 61.8935 68.39711 71.64892 77.50695 82.12164 86.736339 89.988147 95.846179 101.04668 111.830249 120.11518 125.97321 130.5879 133.8397 138.4544 141.7062 147.56424 152.17894 158.68256 165.18618 171.0442 178.5879 187.53038 192.73088 201.5777 210.3528 216.85642 220.10822 225.96625 232.46987 240.33637 246.83998 250.09178 255.29228 259.90699 265.10749 273.94236 282.71745 285.96925 291.82728 297.6853 302.24024 305.49205 310.04698 316.55058 326.306 331.5065 342.302 350.7543 354.0061 358.56105 369.35655 379.11198 382.36378 386.9187 393.4223 396.6741 399.9259 403.5005 412.9929 418.85093 424.70896 435.4925 443.45466 448.06935 453.26985 459.77345 466.27705 472.45787 477.65837 483.83918 490.34278 499.83518 503.08699 513.8825 519.083 522.33486 528.83847 534.03897">zul&#x00e4;ssigenBasisl&#x00f6;sung.DerAblaufdieserAlgorithmenwirdmithilfevonPseudocodeineiner</tspan><tspan y="-368.9" x="56.693 62.551038 67.75153 72.30645 77.50695 80.75876 87.262378 90.83697 96.695 101.57271 107.75353 112.30845 117.50895 127.20459 133.87558 139.73361 144.28853 157.23598 163.7396 169.59763 174.15254 180.01058 185.21108 189.82578 194.38069 199.58119 202.833 206.0848 210.63971 217.09549 226.03797 231.23847 238.99736 246.9595 251.5742 256.7747 263.2783 269.7819 275.9627 281.1632 287.34403 293.84764 302.2521 308.7557 312.0075 317.208 323.4008 331.1358 336.3363 342.8399 349.3435 354.544 367.50343 373.36146 379.86506 384.75474 394.45036 400.30839 403.56019 411.37886 419.99855 425.19905 428.77363 433.97413 438.52906 443.72956 450.23316 458.62568 462.20027 468.70387 476.46278 482.96638 488.16688 497.87446 503.07496 509.26774 513.82266 518.4373 524.9409 529.49588 534.69638">vereinfachtenFormdargestellt.DerPseudocodedientzudemauchalsReferenzf&#x00fc;rdenentspre-</tspan><tspan y="-354.454" x="56.693 61.570714 68.074329 73.274829 79.77844 90.41855 93.67036 103.42577 109.92938 113.18119 118.38169 128.13712 133.33762 139.5304 144.08531 147.33712 152.53762 157.09253 161.64745 166.84795 177.48805 185.4502 190.00511 195.86315 201.72118 206.2761 212.13413 221.88954 231.64496 234.89676 240.09726 244.65218 249.85268 256.0335 262.5371 267.7376 275.13786 284.08033 289.28083 297.9842 305.94636 310.50129 316.3593 322.21736 326.77229 332.6303 342.38575 352.14118 357.34169 363.5225 370.0261 379.37504 382.94963 389.45323 398.14463 404.64823 407.90003 417.24897 426.02406 432.21684 440.34635 445.54685 452.05046 458.55406 465.05766 471.56126 481.55577 486.75627 493.25987 501.96324 509.2798 515.1378 519.7525 526.2561 532.7597">chendimplementiertenProgrammiercode.DerProgrammcodef&#x00fc;rdieAnwendungzurL&#x00f6;sung</tspan><tspan y="-340.008" x="56.693 62.551038 68.40907 78.48728 81.73909 84.9909 91.49451 96.69501 102.55304 107.107959 112.30846 122.386669 131.4965 138.00012 142.55504 145.80684 155.56226 158.81406 164.01456 168.56948 175.07309 181.5767 187.43474 192.04944 198.55306 203.10797 208.966 215.46962 218.72142 223.92192 233.67734 238.87784 248.968 258.72343 261.97523 266.53016 273.03376 276.28556 279.53736 283.11195 291.88703 298.39064 303.59114 311.79237 318.29597 321.54777 331.3032 337.8068 341.0586 346.2591 352.4399 356.3373 365.1124 368.3642 374.22224 380.08027 384.6352 387.887 392.44194 398.94554 408.37818 414.88179 423.07106 426.32286 430.93754 439.079 442.3308 452.409">vonlinearenOptimierungsproblemenmithilfedesSimplex-AlgorithmusistinC</tspan></text>
<text xml:space="preserve" transform="matrix(1 0 -0 1 0 841.89)" font-size="11.95517" font-family="LMMono12"><tspan y="-340.008" x="460.85 467.00694">++</tspan></text>
<text xml:space="preserve" transform="matrix(1 0 -0 1 0 841.89)" font-size="11.95517" font-family="LMRoman12"><tspan y="-340.008" x="476.736 482.59403 487.79454 492.4092 497.28694 503.79054 508.34547 511.59727 516.7977 523.6122 528.8127 535.3163">geschrieben.</tspan><tspan y="-325.563" x="56.693 63.196615 67.75153 73.609569 80.113178 86.61679 92.47482 97.02974 108.59039">StandardC</tspan></text>
<text xml:space="preserve" transform="matrix(1 0 -0 1 0 841.89)" font-size="11.95517" font-family="LMMono12"><tspan y="-325.563" x="117.036 123.19292">++</tspan></text>
<text xml:space="preserve" transform="matrix(1 0 -0 1 0 841.89)" font-size="11.95517" font-family="LMRoman12"><tspan y="-325.563" x="134.404 140.26204 145.46254 151.96616 158.14699 167.75894 173.61698 178.81748 182.06928 188.57289 198.83043 206.79257 210.04438 215.24488 225.00029 230.20079 236.39357 240.94849 251.19406 254.76866 261.27229 270.8962 276.75425 281.30918 287.1672 293.6708 298.2855 303.17518 309.67878 319.92436 328.2093 333.4098 339.60258 346.10618 350.6611 355.8616 361.0621 365.61705 371.47508 378.2895 383.49 388.04493 394.54853 400.40657 405.29624 411.79985 417.00035 428.549 433.10395 438.96199 443.5169 449.37495 455.87855 462.38215 465.63395 470.83445 476.69248 485.01329 491.51689 496.13157 501.33207 510.94404 514.19589 520.3886 524.94357 530.14407 534.699">kenntkeineElementef&#x00fc;rgra&#xfb01;scheBenutzerober&#xfb02;&#x00e4;chen(graphicaluserinter-</tspan><tspan y="-311.117" x="56.693 60.267599 66.12563 71.32613 76.526638 81.14133 88.29052 97.47209 106.247188 110.46736 115.02228 122.17147 125.74606 131.6041 134.8559 140.71393 143.96573 147.21753 152.1072 162.49625 170.94855 177.45217 182.00708 188.5107 197.62055 204.12416 207.37596 216.47385 225.65541 234.43051 242.56003 252.31545 255.56725 264.01957 273.1294 281.58174">faces,GUI),folglichwurdedieGUImitQt[</tspan></text>
<text xml:space="preserve" transform="matrix(1 0 -0 1 0 841.89)" font-size="11.95517" font-family="LMRoman12" font-weight="bold"><tspan y="-311.117" x="284.844">?</tspan></text>
<text xml:space="preserve" transform="matrix(1 0 -0 1 0 841.89)" font-size="11.95517" font-family="LMRoman12"><tspan y="-311.117" x="291.195 298.3442 303.5447 309.7375 313.95768 322.40998 325.66178 330.5395 336.39753 341.59803 344.84983 349.40476 356.542">]entwickelt.[</tspan></text>
<text xml:space="preserve" transform="matrix(1 0 -0 1 0 841.89)" font-size="11.95517" font-family="LMRoman12" font-weight="bold"><tspan y="-311.117" x="359.806">?</tspan></text>
<text xml:space="preserve" transform="matrix(1 0 -0 1 0 841.89)" font-size="11.95517" font-family="LMRoman12"><tspan y="-311.117" x="366.157">,</tspan></text>
<text xml:space="preserve" transform="matrix(1 0 -0 1 0 841.89)" font-size="11.95517" font-family="LMRoman12" font-weight="bold"><tspan y="-311.117" x="373.311">?</tspan></text>
<text xml:space="preserve" transform="matrix(1 0 -0 1 0 841.89)" font-size="11.95517" font-family="LMRoman12"><tspan y="-311.117" x="379.662">]</tspan></text>
<text xml:space="preserve" transform="matrix(1 0 -0 1 0 841.89)" font-size="17.21544" font-family="LMRoman17"><tspan y="-271.183" x="56.693 64.59489 68.89875 84.68531 97.18372 103.27799 112.07508 120.87217 129.66927 133.97313 141.87502 149.7769 156.76638 170.76253 175.06639 179.37026 188.16735 195.15682 203.0587 209.15297 221.3415 233.73662 242.5337 248.62798 252.93184 266.22218 270.52604 277.5155 283.60978 292.40687 301.20396">1.1GrundlagenlineareOptimierung</tspan></text>
<text xml:space="preserve" transform="matrix(1 0 -0 1 0 841.89)" font-size="11.95517" font-family="LMRoman12"><tspan y="-244.898" x="56.693 60.913179 75.70172 82.3727 88.230739 91.482547 97.340579 102.54108 109.04469 115.54831 120.74881 132.27359 140.4031 145.6036 150.15853 156.66214 161.86264 173.38742 179.89104 183.14284 193.37647 201.51793 206.71843 211.33313 216.53363 222.71446 227.26938 230.52118 233.77298 238.6507 245.15431 250.35482 261.8796 270.16456 275.36506 281.22309 285.778 289.02983 298.78526 302.03706 306.91477 313.41838 319.2764 324.4769 327.7287 332.28364 337.48414 349.0089 355.5125 360.713 370.3011 373.5529 376.8047 383.3083 388.5088 394.36683 398.92176 404.12226 415.659 423.62117 428.1761 434.03413 439.89216 444.44709 450.3051 460.06056 469.81599 473.06779 478.26829 482.8232 489.3268 495.8304 506.72157 513.22518 519.0832 523.6381 529.49618 534.69668">ImFolgendenwerdendiewesentlichenBegri&#xfb04;ichkeitenderlinearenProgrammierungdarge-</tspan><tspan y="-230.453" x="56.693 61.307699 65.86262 71.06312 74.314929 77.566738 82.12165 89.89252 98.834987 102.08679 111.8183 115.07011 118.321918 124.82553 130.02603 135.88407 140.43898 145.63948 156.66216 165.77199 172.2756 176.83052 180.08232 189.83774 193.08954 198.29004 202.84496 209.34857 215.85219 221.71022 226.32492 232.82854 237.38346 243.24149 249.7451 252.9969 258.1974 267.95283 277.67237 285.81385 291.01435 295.56929 302.07289 307.27339 318.29603 321.54783 332.57048 339.07408 344.27458 353.3605 359.8641 366.3677 370.92265 376.78068 381.6584 388.162 397.88154 404.38514 409.58564 418.6596 421.9114 425.1632 431.6668 436.8673 442.72535 447.28028 452.48078 463.51539 472.29048 475.54228 481.4003 486.6008 493.1044 497.65934 508.0364 512.5913 517.7918 524.2954 528.85037 534.7084">stellt.DielinearenOptimierungsproblemewerdeninderSprachederlinearenAlgebrarepr&#x00e4;-</tspan><tspan y="-216.007" x="56.693 61.307699 66.508197 72.68902 77.243938 80.49574 85.69624 90.25116 94.806079 101.95527 109.10446 112.35627 117.55677 124.70596 131.20958 136.41008 144.86238 148.11418 151.36598 157.8696 163.0701 168.92813 173.48305 178.68355 189.09651 198.20635 204.70996 209.26488 212.51668 222.2721 225.5239 230.7244 235.27931 241.78293 248.28655 254.14458 258.75929 268.5147 274.69554 281.19914 286.39964 289.65144 292.90324 302.00114 305.25294 309.8676 318.31996 323.52046 328.13514 335.29627 340.49678 343.74858 350.25218 359.35008 362.60188 365.85368 372.35728 377.55778 383.4158 387.97074 397.06864 404.21784 407.46965 412.67015 415.92195 419.49653 426.00013 432.50373 438.68455 443.23948 446.49128 452.3493">sentiert.ZielderlinearenOptimierungsmodelleistes,einelineareZielfunktion</tspan></text>
<text xml:space="preserve" transform="matrix(1 0 -0 1 0 841.89)" font-size="11.95517" font-family="CMMI12" font-style="italic"><tspan y="-216.007" x="462.764">f</tspan><tspan y="-187.115" x="268.417">f</tspan></text>
<text xml:space="preserve" transform="matrix(1 0 -0 1 0 841.89)" font-size="11.95517" font-family="CMR12"><tspan y="-187.115" x="278.784">:</tspan></text>
<text xml:space="preserve" transform="matrix(1 0 -0 1 0 841.89)" font-size="11.95517" font-family="MSBM10"><tspan y="-187.115" x="285.357">R</tspan></text>
<text xml:space="preserve" transform="matrix(1 0 -0 1 0 841.89)" font-size="7.97011" font-family="CMMI8" font-style="italic"><tspan y="-192.051" x="293.991">n</tspan></text>
<text xml:space="preserve" transform="matrix(1 0 -0 1 0 841.89)" font-size="11.95517" font-family="CMSY10" font-style="italic"><tspan y="-187.115" x="302.948">&#x2192;</tspan></text>
<text xml:space="preserve" transform="matrix(1 0 -0 1 0 841.89)" font-size="11.95517" font-family="MSBM10"><tspan y="-187.115" x="318.224">R</tspan></text>
<text xml:space="preserve" transform="matrix(1 0 -0 1 0 841.89)" font-size="11.95517" font-family="LMRoman12"><tspan y="-187.115" x="514.52 519.07498 524.933 528.1848 534.04287">(1.1)</tspan></text>
<text xml:space="preserve" transform="matrix(1 0 -0 1 0 841.89)" font-size="11.95517" font-family="CMMI12" font-style="italic"><tspan y="-157.083" x="239.416">f</tspan></text>
<text xml:space="preserve" transform="matrix(1 0 -0 1 0 841.89)" font-size="11.95517" font-family="CMR12"><tspan y="-157.083" x="246.462">(</tspan></text>
<text xml:space="preserve" transform="matrix(1 0 -0 1 0 841.89)" font-size="11.95517" font-family="CMBX12" font-weight="bold"><tspan y="-157.083" x="251.014">x</tspan></text>
<text xml:space="preserve" transform="matrix(1 0 -0 1 0 841.89)" font-size="11.95517" font-family="CMR12"><tspan y="-157.083" x="258.113 265.97953">)=</tspan></text>
<text xml:space="preserve" transform="matrix(1 0 -0 1 0 841.89)" font-size="7.97011" font-family="CMMI8" font-style="italic"><tspan y="-172.027" x="284.477">n</tspan></text>
<text xml:space="preserve" transform="matrix(1 0 -0 1 0 841.89)" font-size="11.95517" font-family="CMEX10"><tspan y="-168.441" x="278.411">&#xfffd;</tspan></text>
<text xml:space="preserve" transform="matrix(1 0 -0 1 0 841.89)" font-size="7.97011" font-family="CMMI8" font-style="italic"><tspan y="-143.246" x="279.693">j</tspan></text>
<text xml:space="preserve" transform="matrix(1 0 -0 1 0 841.89)" font-size="7.97011" font-family="CMR8"><tspan y="-143.246" x="283.577 290.1603">=1</tspan></text>
<text xml:space="preserve" transform="matrix(1 0 -0 1 0 841.89)" font-size="11.95517" font-family="CMMI12" font-style="italic"><tspan y="-157.083" x="297.672">c</tspan></text>
<text xml:space="preserve" transform="matrix(1 0 -0 1 0 841.89)" font-size="7.97011" font-family="CMMI8" font-style="italic"><tspan y="-155.29" x="302.71">j</tspan></text>
<text xml:space="preserve" transform="matrix(1 0 -0 1 0 841.89)" font-size="11.95517" font-family="CMMI12" font-style="italic"><tspan y="-157.083" x="309.085">x</tspan></text>
<text xml:space="preserve" transform="matrix(1 0 -0 1 0 841.89)" font-size="7.97011" font-family="CMMI8" font-style="italic"><tspan y="-155.29" x="315.737">j</tspan></text>
<text xml:space="preserve" transform="matrix(1 0 -0 1 0 841.89)" font-size="11.95517" font-family="CMR12"><tspan y="-157.083" x="323.44">=</tspan></text>
<text xml:space="preserve" transform="matrix(1 0 -0 1 0 841.89)" font-size="11.95517" font-family="CMBX12" font-weight="bold"><tspan y="-157.083" x="335.866">c</tspan></text>
<text xml:space="preserve" transform="matrix(1 0 -0 1 0 841.89)" font-size="7.97011" font-family="MSAM10"><tspan y="-162.019" x="341.843">&#x22ba;</tspan></text>
<text xml:space="preserve" transform="matrix(1 0 -0 1 0 841.89)" font-size="11.95517" font-family="CMBX12" font-weight="bold"><tspan y="-157.083" x="348.762">x</tspan></text>
<text xml:space="preserve" transform="matrix(1 0 -0 1 0 841.89)" font-size="11.95517" font-family="LMRoman12"><tspan y="-157.083" x="514.52 519.07498 524.933 528.1848 534.04287">(1.2)</tspan><tspan y="-124.794" x="56.693 63.196615 69.37743 73.93235 79.13285 87.58515 95.87009 101.07059 105.6255 112.12912 117.00683 123.18765 127.802349 131.05416 135.93187 142.1127 146.66762 149.91942 155.77745 162.28107 168.78469 178.52816 184.39813 190.25617 200.64522 203.89702 207.14882 213.65244 218.85294 224.71097 229.26589 234.46639 244.87935 253.65445 258.85496 265.68135 270.88185 277.07463 283.88905 289.08955 295.59315 298.84495 305.34855 311.20658 317.71018 324.21379 330.0718 335.2723 345.6733 352.1769 357.3774 365.82975 372.51268 378.3707 382.92564">unterBer&#x00fc;cksichtigungvonlinearenNebenbedingungenderForm</tspan></text>
<text xml:space="preserve" transform="matrix(1 0 -0 1 0 841.89)" font-size="11.95517" font-family="CMMI12" font-style="italic"><tspan y="-100.66" x="177.093">a</tspan></text>
<text xml:space="preserve" transform="matrix(1 0 -0 1 0 841.89)" font-size="7.97011" font-family="CMMI8" font-style="italic"><tspan y="-98.867" x="183.237">i</tspan></text>
<text xml:space="preserve" transform="matrix(1 0 -0 1 0 841.89)" font-size="7.97011" font-family="CMR8"><tspan y="-98.867" x="186.121">1</tspan></text>
<text xml:space="preserve" transform="matrix(1 0 -0 1 0 841.89)" font-size="11.95517" font-family="CMMI12" font-style="italic"><tspan y="-100.66" x="192.845">x</tspan></text>
<text xml:space="preserve" transform="matrix(1 0 -0 1 0 841.89)" font-size="7.97011" font-family="CMR8"><tspan y="-98.867" x="199.498">1</tspan></text>
<text xml:space="preserve" transform="matrix(1 0 -0 1 0 841.89)" font-size="11.95517" font-family="CMR12"><tspan y="-100.66" x="206.886">+</tspan></text>
<text xml:space="preserve" transform="matrix(1 0 -0 1 0 841.89)" font-size="11.95517" font-family="CMMI12" font-style="italic"><tspan y="-100.66" x="218.648 223.88436 229.13266">...</tspan></text>
<text xml:space="preserve" transform="matrix(1 0 -0 1 0 841.89)" font-size="11.95517" font-family="CMR12"><tspan y="-100.66" x="235.044">+</tspan></text>
<text xml:space="preserve" transform="matrix(1 0 -0 1 0 841.89)" font-size="11.95517" font-family="CMMI12" font-style="italic"><tspan y="-100.66" x="246.806">a</tspan></text>
<text xml:space="preserve" transform="matrix(1 0 -0 1 0 841.89)" font-size="7.97011" font-family="CMMI8" font-style="italic"><tspan y="-98.867" x="252.951 255.83618">in</tspan></text>
<text xml:space="preserve" transform="matrix(1 0 -0 1 0 841.89)" font-size="11.95517" font-family="CMMI12" font-style="italic"><tspan y="-100.66" x="263.463">x</tspan></text>
<text xml:space="preserve" transform="matrix(1 0 -0 1 0 841.89)" font-size="7.97011" font-family="CMMI8" font-style="italic"><tspan y="-98.867" x="270.115">n</tspan></text>
<text xml:space="preserve" transform="matrix(1 0 -0 1 0 841.89)" font-size="11.95517" font-family="CMSY10" font-style="italic"><tspan y="-100.66" x="279.072">&#x2264;</tspan></text>
<text xml:space="preserve" transform="matrix(1 0 -0 1 0 841.89)" font-size="11.95517" font-family="CMMI12" font-style="italic"><tspan y="-100.66" x="291.691">b</tspan></text>
<text xml:space="preserve" transform="matrix(1 0 -0 1 0 841.89)" font-size="7.97011" font-family="CMMI8" font-style="italic"><tspan y="-98.867" x="296.668">i</tspan></text>
<text xml:space="preserve" transform="matrix(1 0 -0 1 0 841.89)" font-size="11.95517" font-family="LMRoman12"><tspan y="-100.66" x="323.461 327.03559 333.53919 341.99153">f&#x00fc;ri</tspan></text>
<text xml:space="preserve" transform="matrix(1 0 -0 1 0 841.89)" font-size="11.95517" font-family="CMR12"><tspan y="-100.66" x="350.561 362.98243">=1</tspan></text>
<text xml:space="preserve" transform="matrix(1 0 -0 1 0 841.89)" font-size="11.95517" font-family="CMMI12" font-style="italic"><tspan y="-100.66" x="368.84 374.07637 379.32469 384.56105 389.80937">,...,</tspan></text>
<text xml:space="preserve" transform="matrix(1 0 -0 1 0 841.89)" font-size="11.95517" font-family="LMRoman12"><tspan y="-100.66" x="395.061">m</tspan></text>
<text xml:space="preserve" transform="matrix(1 0 -0 1 0 841.89)" font-size="7.97011" font-family="CMR8"><tspan y="-98.867" x="404.816">1</tspan></text>
<text xml:space="preserve" transform="matrix(1 0 -0 1 0 841.89)" font-size="11.95517" font-family="LMRoman12"><tspan y="-100.66" x="508.521 513.0759 518.93399 522.1858 528.0438 534.0453">(1.3a)</tspan></text>
<text xml:space="preserve" transform="matrix(1 0 -0 1 0 841.89)" font-size="11.95517" font-family="CMMI12" font-style="italic"><tspan y="-83.226" x="177.093">a</tspan></text>
<text xml:space="preserve" transform="matrix(1 0 -0 1 0 841.89)" font-size="7.97011" font-family="CMMI8" font-style="italic"><tspan y="-81.432" x="183.237">i</tspan></text>
<text xml:space="preserve" transform="matrix(1 0 -0 1 0 841.89)" font-size="7.97011" font-family="CMR8"><tspan y="-81.432" x="186.121">1</tspan></text>
<text xml:space="preserve" transform="matrix(1 0 -0 1 0 841.89)" font-size="11.95517" font-family="CMMI12" font-style="italic"><tspan y="-83.226" x="192.845">x</tspan></text>
<text xml:space="preserve" transform="matrix(1 0 -0 1 0 841.89)" font-size="7.97011" font-family="CMR8"><tspan y="-81.432" x="199.498">1</tspan></text>
<text xml:space="preserve" transform="matrix(1 0 -0 1 0 841.89)" font-size="11.95517" font-family="CMR12"><tspan y="-83.226" x="206.886">+</tspan></text>
<text xml:space="preserve" transform="matrix(1 0 -0 1 0 841.89)" font-size="11.95517" font-family="CMMI12" font-style="italic"><tspan y="-83.226" x="218.648 223.88436 229.13266">...</tspan></text>
<text xml:space="preserve" transform="matrix(1 0 -0 1 0 841.89)" font-size="11.95517" font-family="CMR12"><tspan y="-83.226" x="235.044">+</tspan></text>
<text xml:space="preserve" transform="matrix(1 0 -0 1 0 841.89)" font-size="11.95517" font-family="CMMI12" font-style="italic"><tspan y="-83.226" x="246.806">a</tspan></text>
<text xml:space="preserve" transform="matrix(1 0 -0 1 0 841.89)" font-size="7.97011" font-family="CMMI8" font-style="italic"><tspan y="-81.432" x="252.951 255.83618">in</tspan></text>
<text xml:space="preserve" transform="matrix(1 0 -0 1 0 841.89)" font-size="11.95517" font-family="CMMI12" font-style="italic"><tspan y="-83.226" x="263.463">x</tspan></text>
<text xml:space="preserve" transform="matrix(1 0 -0 1 0 841.89)" font-size="7.97011" font-family="CMMI8" font-style="italic"><tspan y="-81.432" x="270.115">n</tspan></text>
<text xml:space="preserve" transform="matrix(1 0 -0 1 0 841.89)" font-size="11.95517" font-family="CMSY10" font-style="italic"><tspan y="-83.226" x="279.072">&#x2265;</tspan></text>
<text xml:space="preserve" transform="matrix(1 0 -0 1 0 841.89)" font-size="11.95517" font-family="CMMI12" font-style="italic"><tspan y="-83.226" x="291.691">b</tspan></text>
<text xml:space="preserve" transform="matrix(1 0 -0 1 0 841.89)" font-size="7.97011" font-family="CMMI8" font-style="italic"><tspan y="-81.432" x="296.668">i</tspan></text>
<text xml:space="preserve" transform="matrix(1 0 -0 1 0 841.89)" font-size="11.95517" font-family="LMRoman12"><tspan y="-83.226" x="323.461 327.03559 333.53919 341.99153">f&#x00fc;ri</tspan></text>
<text xml:space="preserve" transform="matrix(1 0 -0 1 0 841.89)" font-size="11.95517" font-family="CMR12"><tspan y="-83.226" x="350.561">=</tspan></text>
<text xml:space="preserve" transform="matrix(1 0 -0 1 0 841.89)" font-size="11.95517" font-family="LMRoman12"><tspan y="-83.226" x="362.987">m</tspan></text>
<text xml:space="preserve" transform="matrix(1 0 -0 1 0 841.89)" font-size="7.97011" font-family="CMR8"><tspan y="-81.432" x="372.742">1</tspan></text>
<text xml:space="preserve" transform="matrix(1 0 -0 1 0 841.89)" font-size="11.95517" font-family="CMMI12" font-style="italic"><tspan y="-83.226" x="377.475 382.71138 387.9597 393.19606 398.44438">,...,</tspan></text>
<text xml:space="preserve" transform="matrix(1 0 -0 1 0 841.89)" font-size="11.95517" font-family="LMRoman12"><tspan y="-83.226" x="403.695">m</tspan></text>
<text xml:space="preserve" transform="matrix(1 0 -0 1 0 841.89)" font-size="7.97011" font-family="CMR8"><tspan y="-81.432" x="413.451">2</tspan></text>
<text xml:space="preserve" transform="matrix(1 0 -0 1 0 841.89)" font-size="11.95517" font-family="LMRoman12"><tspan y="-83.226" x="508.017 512.5719 518.42996 521.68179 527.5398 534.0434">(1.3b)</tspan></text>
<text xml:space="preserve" transform="matrix(1 0 -0 1 0 841.89)" font-size="11.95517" font-family="CMMI12" font-style="italic"><tspan y="-65.791" x="177.093">a</tspan></text>
<text xml:space="preserve" transform="matrix(1 0 -0 1 0 841.89)" font-size="7.97011" font-family="CMMI8" font-style="italic"><tspan y="-63.998" x="183.237">i</tspan></text>
<text xml:space="preserve" transform="matrix(1 0 -0 1 0 841.89)" font-size="7.97011" font-family="CMR8"><tspan y="-63.998" x="186.121">1</tspan></text>
<text xml:space="preserve" transform="matrix(1 0 -0 1 0 841.89)" font-size="11.95517" font-family="CMMI12" font-style="italic"><tspan y="-65.791" x="192.845">x</tspan></text>
<text xml:space="preserve" transform="matrix(1 0 -0 1 0 841.89)" font-size="7.97011" font-family="CMR8"><tspan y="-63.998" x="199.498">1</tspan></text>
<text xml:space="preserve" transform="matrix(1 0 -0 1 0 841.89)" font-size="11.95517" font-family="CMR12"><tspan y="-65.791" x="206.886">+</tspan></text>
<text xml:space="preserve" transform="matrix(1 0 -0 1 0 841.89)" font-size="11.95517" font-family="CMMI12" font-style="italic"><tspan y="-65.791" x="218.648 223.88436 229.13266">...</tspan></text>
<text xml:space="preserve" transform="matrix(1 0 -0 1 0 841.89)" font-size="11.95517" font-family="CMR12"><tspan y="-65.791" x="235.044">+</tspan></text>
<text xml:space="preserve" transform="matrix(1 0 -0 1 0 841.89)" font-size="11.95517" font-family="CMMI12" font-style="italic"><tspan y="-65.791" x="246.806">a</tspan></text>
<text xml:space="preserve" transform="matrix(1 0 -0 1 0 841.89)" font-size="7.97011" font-family="CMMI8" font-style="italic"><tspan y="-63.998" x="252.951 255.83618">in</tspan></text>
<text xml:space="preserve" transform="matrix(1 0 -0 1 0 841.89)" font-size="11.95517" font-family="CMMI12" font-style="italic"><tspan y="-65.791" x="263.463">x</tspan></text>
<text xml:space="preserve" transform="matrix(1 0 -0 1 0 841.89)" font-size="7.97011" font-family="CMMI8" font-style="italic"><tspan y="-63.998" x="270.115">n</tspan></text>
<text xml:space="preserve" transform="matrix(1 0 -0 1 0 841.89)" font-size="11.95517" font-family="CMR12"><tspan y="-65.791" x="279.072">=</tspan></text>
<text xml:space="preserve" transform="matrix(1 0 -0 1 0 841.89)" font-size="11.95517" font-family="CMMI12" font-style="italic"><tspan y="-65.791" x="291.497">b</tspan></text>
<text xml:space="preserve" transform="matrix(1 0 -0 1 0 841.89)" font-size="7.97011" font-family="CMMI8" font-style="italic"><tspan y="-63.998" x="296.475">i</tspan></text>
<text xml:space="preserve" transform="matrix(1 0 -0 1 0 841.89)" font-size="11.95517" font-family="LMRoman12"><tspan y="-65.791" x="323.268 326.8426 333.3462 341.79853">f&#x00fc;ri</tspan></text>
<text xml:space="preserve" transform="matrix(1 0 -0 1 0 841.89)" font-size="11.95517" font-family="CMR12"><tspan y="-65.791" x="350.367">=</tspan></text>
<text xml:space="preserve" transform="matrix(1 0 -0 1 0 841.89)" font-size="11.95517" font-family="LMRoman12"><tspan y="-65.791" x="362.793">m</tspan></text>
<text xml:space="preserve" transform="matrix(1 0 -0 1 0 841.89)" font-size="7.97011" font-family="CMR8"><tspan y="-63.998" x="372.548">2</tspan></text>
<text xml:space="preserve" transform="matrix(1 0 -0 1 0 841.89)" font-size="11.95517" font-family="CMMI12" font-style="italic"><tspan y="-65.791" x="377.281 382.51737 387.7657 393.00205 398.25038">,...,</tspan></text>
<text xml:space="preserve" transform="matrix(1 0 -0 1 0 841.89)" font-size="11.95517" font-family="LMRoman12"><tspan y="-65.791" x="403.501 509.31623 513.87118 519.7292 522.981 528.83908 534.03958">m(1.3c)</tspan></text>
<text xml:space="preserve" transform="matrix(1 0 -0 1 0 841.89)" font-size="11.95517" font-family="LMRoman12"><tspan y="-20.306" x="294.711">2</tspan></text>
</g>
</svg>
