<?xml version="1.0" encoding="UTF-8" standalone="no"?>
<!DOCTYPE svg PUBLIC "-//W3C//DTD SVG 1.1//EN" "http://www.w3.org/Graphics/SVG/1.1/DTD/svg11.dtd">
<svg xmlns="http://www.w3.org/2000/svg" xmlns:xlink="http://www.w3.org/1999/xlink" version="1.1" width="595.276pt" height="841.89pt" viewBox="0 0 595.276 841.89">
<g enable-background="new">
<text xml:space="preserve" transform="matrix(1 0 -0 1 0 841.89)" font-size="11.95517" font-family="LMRoman12"><tspan y="-773.242" x="56.693 68.7199 71.97171 80.49575 90.25117 96.1092 105.93635 109.188159 122.26711 128.95005 134.80808 138.05988 141.31168 149.82376 155.02426 158.27606 164.77968 169.98018 177.85863 184.36225 190.86586 196.06636 202.56998 205.82178 211.67981 216.29451 220.90921 224.16101 230.01905 235.21955 245.05866 253.34358 259.20164 263.8163 267.0681 271.6828 274.9346 280.79264 285.40733 291.91093 298.41453 307.5961 312.7966 316.0484 322.552 331.07606 336.27656 342.78016 346.03196 351.88999 356.50468 361.11936 364.37117 370.2292 378.76518 387.0501 392.90815 397.52284 400.77464 405.3893 408.6411 414.49916 419.11384 425.61744 432.12104 441.3026 446.5031 451.05805 460.81349 464.06529 468.6202 473.17515 478.37565 481.62745 486.18238 492.75773 496.3323 502.19035 505.44215 508.69395 516.6322 521.8327 527.04519 535.3301">WiemanimFalleeinerunzul&#x00e4;ssigenBasisl&#x00f6;sungeinezul&#x00e4;ssigeBasisl&#x00f6;sungermittelt,fallsz.B.</tspan><tspan y="-758.796" x="56.693 63.196615 66.44842 74.55402 83.32912 86.580928 91.47059 97.63945 102.19437 108.69798 113.89848 119.756519 125.61455 130.16947 133.42127 139.60208 142.85388 147.4088 153.26683 157.82175 162.43645 169.26285 174.46335 180.96697 184.21877 190.72238 196.58042 203.08403 209.58765 215.44568 220.64618 230.0549 236.55852 239.81032 244.69998 250.86885 258.3289 263.5294 268.08433 271.6589 278.1625 281.4143 284.6661 292.12617 296.74085 299.99266 306.49626 312.99986 319.1687 327.621 330.8728 335.42774 344.83647 348.08827 357.5089 366.284 372.7876 377.40229 382.29197 388.79557 395.29917 398.55097 403.1059 410.554 416.41203 419.66383 428.4389 435.2653 440.4658 445.08049 449.9582 456.4618 461.01673 464.26853 469.46903 476.2954 481.4959 487.9995 494.16838 503.11085 506.36265 514.46829 519.66879 524.2237 528.8384 533.3933">dieNichtnegativit&#x00e4;tsbedingungennichterf&#x00fc;lltsind,wirdinAbschnitt1.3beschrieben.Dieerste</tspan><tspan y="-744.35" x="56.693 63.196615 69.700229 75.55826 78.81007 83.36498 92.46287 98.96648 104.16698 112.679058 120.162998 126.02103 132.52465 135.77645 140.97695 146.83498 153.3386 161.85068 168.3543 174.21233 178.76725 182.01905 187.21955 191.77446 200.22676 206.73038 209.98218 219.09203 223.3122 229.81581 236.31943 239.57123 244.77173 249.97223 258.4843 264.9879 270.18843 278.64076 284.49879 290.6796 295.23454 301.73814 306.93864 310.19044 313.44224 318.64274 329.05567 337.3406 343.19865 347.81333 351.06513 355.6798 361.21507 367.0731 371.62803 374.87983 380.73786 387.24147 390.49327 395.69377 402.19737">SpaltedesTableausnotiertdieIndizesderaktuellenBasisvariablen.</tspan></text>
<path transform="matrix(1,0,0,-1,56.693,205.25)" d="M 0 0 L 2.989 0 L 2.989 98.796 L 0 98.796 Z "/>
<text xml:space="preserve" transform="matrix(1 0 -0 1 0 841.89)" font-size="11.95517" font-family="LMRoman12"><tspan y="-727.2" x="69.644 73.864177 87.14636 93.8293 99.68733 102.93914 108.79717 113.99767 120.50128 127.0049 132.2054 142.22383 150.67613 153.92794 158.48285 168.52519 175.02881 180.22931 188.32295 197.09806 203.60167 206.85347 212.7115 219.21512 226.3165 232.82012 238.02062 246.17404 252.67766 257.23258 260.48439 270.2398 276.09785 279.34965 284.55015 294.5805 301.0841 304.3359 314.09135 320.59495 323.84675 329.04725 335.22807 339.12547 346.94413 352.14463 356.69956 360.27415 366.13218 372.63578 377.1907 382.3912 392.40965 397.61015 404.11375 408.72843 414.58647 419.1414 424.3419 427.5937 430.8455 435.73518 445.76554 455.52098 458.77278 463.3277 469.8313 473.0831 476.3349 479.9095 488.63676 494.50675 500.36479 510.39515 518.3573 522.972 528.1725 534.6761">ImFolgendenwirdderAblaufdesprimalenSimplex-Verfahrenzus&#x00e4;tzlichmithilfevonPseu-</tspan><tspan y="-712.754" x="69.644 76.14761 82.32844 87.52894 93.70976 100.21338 110.86544 117.7038 122.9043 127.51899 132.3967 138.90032 143.45523 146.70703 151.90753 158.72199 163.92249 170.4261 179.15337 188.09584 193.29634 203.30281 211.26496 215.87966 221.08016 227.58377 234.08739 240.2682 245.4687 251.64952 258.15315 268.81715 275.32075 278.57255 283.77305 289.96583 299.96037 305.16087 311.66447 318.16807 323.36857 338.5875 344.44554 350.94914 355.82685 367.782 373.64006 376.89186 386.9581 395.5778 400.7783 404.35289 409.55339 414.1083 419.3088 425.8124 436.4764 440.051 446.5546 456.5611 463.0647 468.2652 480.2323 483.4841 495.43928">docodebeschrieben.DerPseudocodedientzudemauchalsReferenzf&#x00fc;rdeninC</tspan></text>
<text xml:space="preserve" transform="matrix(1 0 -0 1 0 841.89)" font-size="11.95517" font-family="LMMono12"><tspan y="-712.754" x="503.912 510.0689">++</tspan></text>
<text xml:space="preserve" transform="matrix(1 0 -0 1 0 841.89)" font-size="11.95517" font-family="LMRoman12"><tspan y="-712.754" x="521.673 524.9248 534.68026">im-</tspan><tspan y="-698.308" x="69.644 76.14761 79.39942 84.59992 94.35534 99.55584 105.73666 110.29157 113.54338 118.74388 123.2988 127.853717 133.05422 144.04102 152.00316 156.55808 162.4161 168.27414 172.82906 178.68709 188.4425 198.19792 201.44972 206.65023 211.20514 216.40564 222.58646 229.09008 234.29058 242.03752 250.81262 265.05125 270.25175 273.50355 280.00715 289.7028 295.56083 300.76133 309.21363 312.46543 317.0801 321.6948 331.37849 340.15357 346.97996 352.18046 356.73539 361.35008 364.60188 369.49156 375.67237 380.2273 383.4791 386.7309 391.6086 398.1122 403.95829 409.15879 412.41059 421.4487 426.0634 429.3152 434.20487 440.70848 445.90898 450.4639 455.6644 462.168 466.78269 471.33763 476.53813 479.78993 483.04173 488.24223 494.74583 502.46885 510.61033 515.8108 520.3657 526.8693 532.0698">plementiertenProgrammiercode.Umeinegewisse&#x00dc;bersichtlichkeitsicherzustellen,werden</tspan><tspan y="-683.862" x="69.644 76.14761 79.39942 89.32221 94.52271 100.70353 105.258449 109.87314 116.376758 120.93167 126.13217 131.00989 137.5135 142.714 149.21762 155.72124 160.92174 172.1357 179.94243 185.14293 189.69785 197.82736 203.02787 206.27967 210.89437 220.8052 226.66324 233.16686 241.46375 247.96736 251.21916 261.14195 269.10408 273.71876 278.91926 285.42286 291.92646 298.10728 303.30778 309.50056 316.00416 321.20466 329.82435 336.32795 342.83155 354.05744">dieentsprechendenVerweiseaufdiePseudocode-undC</tspan></text>
<text xml:space="preserve" transform="matrix(1 0 -0 1 0 841.89)" font-size="11.95517" font-family="LMMono12"><tspan y="-683.862" x="362.542 368.6989">++</tspan></text>
<text xml:space="preserve" transform="matrix(1 0 -0 1 0 841.89)" font-size="11.95517" font-family="LMRoman12"><tspan y="-683.862" x="374.846 378.7434 385.41438 391.91798 398.42158 404.6024 409.15733 412.40913 418.26716 424.77076 429.97126 441.18519 447.68879 450.94059 457.767 462.9675 467.52244 472.72294 479.22654 484.42704 487.67884 492.87934 497.43428 506.7115 513.2151 519.0731 523.62808 529.4861 534.6866">-Funktionendi&#xfb00;erenziertdarge-</tspan><tspan y="-669.416" x="69.644 74.25869 78.81361 84.01411 87.265918 90.51772 95.07264 102.01859 110.96106 114.21287 123.10751 130.91425 136.11475 140.66967 148.79918 153.99968 157.25148 161.86618 170.74887 176.6069 183.11052 190.37928 196.88289 202.08339 212.2692 220.23134 224.84604 230.04654 236.55016 243.05377 249.24655 254.44705 260.62788 267.13148 276.02613 284.15565 289.35615 293.91108 300.41468 305.61518 315.80097 319.05278">stellt.DieVerweiseaufdenPseudocodewerdenin</tspan></text>
<path transform="matrix(1,0,0,-1,329.675,175.46204)" d="M 0 0 L 37.844 0 L 37.844 14.213 L 0 14.213 Z " fill="#ffffff"/>
<text xml:space="preserve" transform="matrix(1 0 -0 1 0 841.89)" font-size="11.95517" font-family="LMRoman12"><tspan y="-669.416" x="332.664 339.1676 342.4194 348.27745 354.78105 359.98155">blauer</tspan></text>
<path transform="matrix(1,0,0,-1,329.276,161.04999)" stroke-width=".398" stroke-linecap="butt" stroke-miterlimit="10" stroke-linejoin="miter" fill="none" stroke="#0000ff" d="M 0 0 L 38.641 0 "/>
<path transform="matrix(1,0,0,-1,329.475,175.66199)" stroke-width=".398" stroke-linecap="butt" stroke-miterlimit="10" stroke-linejoin="miter" fill="none" stroke="#0000ff" d="M 0 0 L 0 14.612 "/>
<path transform="matrix(1,0,0,-1,367.718,175.66199)" stroke-width=".398" stroke-linecap="butt" stroke-miterlimit="10" stroke-linejoin="miter" fill="none" stroke="#0000ff" d="M 0 0 L 0 14.612 "/>
<path transform="matrix(1,0,0,-1,329.276,175.66199)" stroke-width=".398" stroke-linecap="butt" stroke-miterlimit="10" stroke-linejoin="miter" fill="none" stroke="#0000ff" d="M 0 0 L 38.641 0 "/>
<text xml:space="preserve" transform="matrix(1 0 -0 1 0 841.89)" font-size="11.95517" font-family="LMRoman12"><tspan y="-669.416" x="371.611 378.28196 384.13999 388.69493 395.50935 404.404 410.9076 417.4112 427.60896 434.11256 437.36436 446.259 452.11705 458.62065 465.88938 472.39299 477.59349 487.79124">FarbeunddieaufdenC</tspan></text>
<text xml:space="preserve" transform="matrix(1 0 -0 1 0 841.89)" font-size="11.95517" font-family="LMMono12"><tspan y="-669.416" x="496.247 502.40394">++</tspan></text>
<text xml:space="preserve" transform="matrix(1 0 -0 1 0 841.89)" font-size="11.95517" font-family="LMRoman12"><tspan y="-669.416" x="512.244 520.69638 526.8772 533.3808">Code</tspan><tspan y="-653.41" x="69.644 79.399417 82.65122 91.29481 97.798419 102.99892 111.6425 118.32544 124.18347 128.73839 135.55284">mitderFarbe</tspan></text>
<path transform="matrix(1,0,0,-1,145.245,193.79303)" d="M 0 0 L 32.642 0 L 32.642 16.538 L 0 16.538 Z " fill="#ffffff"/>
<text xml:space="preserve" transform="matrix(1 0 -0 1 0 841.89)" font-size="11.95517" font-family="LMRoman12"><tspan y="-653.41" x="148.234 156.6863 162.54433 168.40236">Cyan</tspan></text>
<path transform="matrix(1,0,0,-1,144.847,177.05603)" stroke-width=".398" stroke-linecap="butt" stroke-miterlimit="10" stroke-linejoin="miter" fill="none" stroke="#00aeef" d="M 0 0 L 33.439 0 "/>
<path transform="matrix(1,0,0,-1,145.046,193.99304)" stroke-width=".398" stroke-linecap="butt" stroke-miterlimit="10" stroke-linejoin="miter" fill="none" stroke="#00aeef" d="M 0 0 L 0 16.936 "/>
<path transform="matrix(1,0,0,-1,178.086,193.99304)" stroke-width=".398" stroke-linecap="butt" stroke-miterlimit="10" stroke-linejoin="miter" fill="none" stroke="#00aeef" d="M 0 0 L 0 16.936 "/>
<path transform="matrix(1,0,0,-1,144.847,193.99304)" stroke-width=".398" stroke-linecap="butt" stroke-miterlimit="10" stroke-linejoin="miter" fill="none" stroke="#00aeef" d="M 0 0 L 33.439 0 "/>
<text xml:space="preserve" transform="matrix(1 0 -0 1 0 841.89)" font-size="11.95517" font-family="LMRoman12"><tspan y="-653.41" x="182.38 188.88362 198.63904 203.19396 209.05199 215.5556 222.05922 227.25972 231.81464 239.1551 248.09758 253.29808 261.9536 269.7603 274.96083 279.51576 287.64527 292.8338 296.0856 304.78895 310.64698 317.15058 324.82579 331.32939 336.52989 347.12214">umrandet.DerVerweisaufdenC</tspan></text>
<text xml:space="preserve" transform="matrix(1 0 -0 1 0 841.89)" font-size="11.95517" font-family="LMMono12"><tspan y="-653.41" x="355.58 361.7369">++</tspan></text>
<text xml:space="preserve" transform="matrix(1 0 -0 1 0 841.89)" font-size="11.95517" font-family="LMRoman12"><tspan y="-653.41" x="371.978 380.4303 386.6111 393.11473 402.40388 409.23027 414.43077 420.93437 427.43797 433.94157 439.14207 447.7976 452.4123 455.6641 460.5418 471.13407 474.70866 479.90916 488.05064 493.25114 496.50294 499.75474 508.44615 511.69795 522.3022 528.8058 534.0063">Codebe&#xfb01;ndetsichjeweilsinder</tspan><tspan y="-638.964" x="69.644 74.8445 81.02532 85.58024 90.19493 96.69855 101.25346 106.453968 111.33167 117.83528 123.03578 129.5394 136.04302 141.24352 151.63257 159.59471 164.20941 169.40991 175.91353 182.41715 188.60993 193.81043 199.99124 206.49486 215.59275 219.81291 229.56833 236.07195 239.32375 244.52425 254.27967 259.48017 265.67295 270.22789 276.0859 280.64085 283.89265 289.75068 296.25428">entsprechendenPseudocodeImplementation.</tspan><tspan y="-621.747" x="56.693 65.63547 70.83597 79.28827 88.06336 94.56697 97.81878 103.67681 110.18042 117.6524 124.156009 129.3565 137.88056 144.38417 148.93909 152.19089 161.9463 167.80434 171.05614 176.25664 186.65764 193.16126 196.41306 206.16847 212.67209 215.92389 221.12439 227.3052 231.20259 239.00933 244.20983 248.76474 252.33934 258.1974 264.701 269.25593 274.45643 280.96003 289.4721 297.9244 301.1762 305.73115 316.13215 319.38395 329.78495 336.28855 341.48905 355.1538 363.9289 367.1807 373.03874 378.89677 383.4517 386.7035 391.25843 397.76203 407.19468 413.69828 422.21037 431.9658 440.4181 443.6699 448.8704 455.374 460.5745 465.12944 470.98747 476.18797 482.046 487.2465 494.07289 499.27339 505.77699">DerAblaufdesprimalenSimplex-VerfahrenswirdindemAlgorithmus1wiedergegeben.</tspan></text>
<text xml:space="preserve" transform="matrix(1 0 -0 1 0 841.89)" font-size="11.95517" font-family="CMMI12" font-style="italic"><tspan y="-595.026" x="223.618">x</tspan></text>
<text xml:space="preserve" transform="matrix(1 0 -0 1 0 841.89)" font-size="7.97011" font-family="CMR8"><tspan y="-593.233" x="230.27">1</tspan></text>
<text xml:space="preserve" transform="matrix(1 0 -0 1 0 841.89)" font-size="11.95517" font-family="CMMI12" font-style="italic"><tspan y="-595.026" x="254.925">x</tspan></text>
<text xml:space="preserve" transform="matrix(1 0 -0 1 0 841.89)" font-size="7.97011" font-family="CMR8"><tspan y="-593.233" x="261.577">2</tspan></text>
<text xml:space="preserve" transform="matrix(1 0 -0 1 0 841.89)" font-size="11.95517" font-family="CMMI12" font-style="italic"><tspan y="-595.026" x="280.376">x</tspan></text>
<text xml:space="preserve" transform="matrix(1 0 -0 1 0 841.89)" font-size="7.97011" font-family="CMR8"><tspan y="-593.233" x="287.028">3</tspan></text>
<text xml:space="preserve" transform="matrix(1 0 -0 1 0 841.89)" font-size="11.95517" font-family="CMMI12" font-style="italic"><tspan y="-595.026" x="303.716">x</tspan></text>
<text xml:space="preserve" transform="matrix(1 0 -0 1 0 841.89)" font-size="7.97011" font-family="CMR8"><tspan y="-593.233" x="310.368">4</tspan></text>
<text xml:space="preserve" transform="matrix(1 0 -0 1 0 841.89)" font-size="11.95517" font-family="CMMI12" font-style="italic"><tspan y="-595.026" x="327.055">x</tspan></text>
<text xml:space="preserve" transform="matrix(1 0 -0 1 0 841.89)" font-size="7.97011" font-family="CMR8"><tspan y="-593.233" x="333.707">5</tspan></text>
<path transform="matrix(1,0,0,-1,344.617,251.63105)" stroke-width=".398" stroke-linecap="butt" stroke-miterlimit="10" stroke-linejoin="miter" fill="none" stroke="#000000" d="M 0 0 L 0 15.89 "/>
<text xml:space="preserve" transform="matrix(1 0 -0 1 0 841.89)" font-size="11.95517" font-family="CMMI12" font-style="italic"><tspan y="-595.026" x="354.158">b</tspan></text>
<path transform="matrix(1,0,0,-1,368.676,251.63105)" stroke-width=".398" stroke-linecap="butt" stroke-miterlimit="10" stroke-linejoin="miter" fill="none" stroke="#000000" d="M 0 0 L 0 15.89 "/>
<path transform="matrix(1,0,0,-1,371.067,251.63105)" stroke-width=".398" stroke-linecap="butt" stroke-miterlimit="10" stroke-linejoin="miter" fill="none" stroke="#000000" d="M 0 0 L 0 15.89 "/>
<path transform="matrix(1,0,0,-1,188.446,251.83002)" stroke-width=".398" stroke-linecap="butt" stroke-miterlimit="10" stroke-linejoin="miter" fill="none" stroke="#000000" d="M 0 0 L 218.384 0 "/>
<text xml:space="preserve" transform="matrix(1 0 -0 1 0 841.89)" font-size="11.95517" font-family="CMMI12" font-style="italic"><tspan y="-578.737" x="194.423">x</tspan></text>
<text xml:space="preserve" transform="matrix(1 0 -0 1 0 841.89)" font-size="7.97011" font-family="CMR8"><tspan y="-576.944" x="201.076">3</tspan></text>
<text xml:space="preserve" transform="matrix(1 0 -0 1 0 841.89)" font-size="11.95517" font-family="LMRoman12"><tspan y="-578.737" x="226.384 257.69459 283.14714 306.49559 329.83207">11100</tspan></text>
<path transform="matrix(1,0,0,-1,344.617,267.92005)" stroke-width=".398" stroke-linecap="butt" stroke-miterlimit="10" stroke-linejoin="miter" fill="none" stroke="#000000" d="M 0 0 L 0 15.89 "/>
<text xml:space="preserve" transform="matrix(1 0 -0 1 0 841.89)" font-size="11.95517" font-family="LMRoman12"><tspan y="-578.737" x="353.72">8</tspan></text>
<path transform="matrix(1,0,0,-1,368.676,267.92005)" stroke-width=".398" stroke-linecap="butt" stroke-miterlimit="10" stroke-linejoin="miter" fill="none" stroke="#000000" d="M 0 0 L 0 15.89 "/>
<path transform="matrix(1,0,0,-1,371.067,267.92005)" stroke-width=".398" stroke-linecap="butt" stroke-miterlimit="10" stroke-linejoin="miter" fill="none" stroke="#000000" d="M 0 0 L 0 15.89 "/>
<text xml:space="preserve" transform="matrix(1 0 -0 1 0 841.89)" font-size="7.97011" font-family="CMR8"><tspan y="-583.444" x="386.931">8</tspan></text>
<path transform="matrix(1,0,0,-1,386.931,260.164)" stroke-width=".478" stroke-linecap="butt" stroke-miterlimit="10" stroke-linejoin="miter" fill="none" stroke="#000000" d="M 0 0 L 4.234 0 "/>
<text xml:space="preserve" transform="matrix(1 0 -0 1 0 841.89)" font-size="7.97011" font-family="CMR8"><tspan y="-574.615" x="386.931">1</tspan></text>
<text xml:space="preserve" transform="matrix(1 0 -0 1 0 841.89)" font-size="11.95517" font-family="CMMI12" font-style="italic"><tspan y="-559.306" x="194.423">x</tspan></text>
<text xml:space="preserve" transform="matrix(1 0 -0 1 0 841.89)" font-size="7.97011" font-family="CMR8"><tspan y="-557.513" x="201.076">4</tspan></text>
<text xml:space="preserve" transform="matrix(1 0 -0 1 0 841.89)" font-size="11.95517" font-family="CMR12"><tspan y="-559.306" x="223.132 226.3838 232.24184">[2]</tspan></text>
<text xml:space="preserve" transform="matrix(1 0 -0 1 0 841.89)" font-size="11.95517" font-family="LMRoman12"><tspan y="-559.306" x="257.69 283.14256 306.491 329.82749">1010</tspan></text>
<path transform="matrix(1,0,0,-1,344.617,291.528)" stroke-width=".398" stroke-linecap="butt" stroke-miterlimit="10" stroke-linejoin="miter" fill="none" stroke="#000000" d="M 0 0 L 0 23.608 "/>
<text xml:space="preserve" transform="matrix(1 0 -0 1 0 841.89)" font-size="11.95517" font-family="LMRoman12"><tspan y="-559.306" x="350.793 356.65104">12</tspan></text>
<path transform="matrix(1,0,0,-1,368.676,291.528)" stroke-width=".398" stroke-linecap="butt" stroke-miterlimit="10" stroke-linejoin="miter" fill="none" stroke="#000000" d="M 0 0 L 0 23.608 "/>
<path transform="matrix(1,0,0,-1,371.067,291.528)" stroke-width=".398" stroke-linecap="butt" stroke-miterlimit="10" stroke-linejoin="miter" fill="none" stroke="#000000" d="M 0 0 L 0 23.608 "/>
<path transform="matrix(1,0,0,-1,389.048,279.724)" stroke-width=".3985" stroke-linecap="butt" stroke-miterlimit="10" stroke-linejoin="miter" fill="none" stroke="#000000" d="M 11.60481 0 C 11.60481 6.40924 6.40924 11.60481 0 11.60481 C -6.40924 11.60481 -11.60481 6.40924 -11.60481 0 C -11.60481 -6.40924 -6.40924 -11.60481 0 -11.60481 C 6.40924 -11.60481 11.60481 -6.40924 11.60481 0 Z M 0 0 "/>
<text xml:space="preserve" transform="matrix(1 0 -0 1 0 841.89)" font-size="7.97011" font-family="CMR8"><tspan y="-564.013" x="384.814 389.0461">12</tspan></text>
<path transform="matrix(1,0,0,-1,384.814,279.59504)" stroke-width=".478" stroke-linecap="butt" stroke-miterlimit="10" stroke-linejoin="miter" fill="none" stroke="#000000" d="M 0 0 L 8.468 0 "/>
<text xml:space="preserve" transform="matrix(1 0 -0 1 0 841.89)" font-size="7.97011" font-family="CMR8"><tspan y="-555.183" x="386.931">2</tspan></text>
<text xml:space="preserve" transform="matrix(1 0 -0 1 0 841.89)" font-size="11.95517" font-family="CMMI12" font-style="italic"><tspan y="-539.239" x="194.423">x</tspan></text>
<text xml:space="preserve" transform="matrix(1 0 -0 1 0 841.89)" font-size="7.97011" font-family="CMR8"><tspan y="-537.446" x="201.076">5</tspan></text>
<text xml:space="preserve" transform="matrix(1 0 -0 1 0 841.89)" font-size="11.95517" font-family="LMRoman12"><tspan y="-539.239" x="226.384 257.69459 283.14714 306.49559 329.83207">23001</tspan></text>
<path transform="matrix(1,0,0,-1,344.617,307.41804)" stroke-width=".398" stroke-linecap="butt" stroke-miterlimit="10" stroke-linejoin="miter" fill="none" stroke="#000000" d="M 0 0 L 0 15.89 "/>
<text xml:space="preserve" transform="matrix(1 0 -0 1 0 841.89)" font-size="11.95517" font-family="LMRoman12"><tspan y="-539.239" x="350.793 356.65104">18</tspan></text>
<path transform="matrix(1,0,0,-1,368.676,307.41804)" stroke-width=".398" stroke-linecap="butt" stroke-miterlimit="10" stroke-linejoin="miter" fill="none" stroke="#000000" d="M 0 0 L 0 15.89 "/>
<path transform="matrix(1,0,0,-1,371.067,307.41804)" stroke-width=".398" stroke-linecap="butt" stroke-miterlimit="10" stroke-linejoin="miter" fill="none" stroke="#000000" d="M 0 0 L 0 15.89 "/>
<text xml:space="preserve" transform="matrix(1 0 -0 1 0 841.89)" font-size="7.97011" font-family="CMR8"><tspan y="-543.946" x="384.814 389.0461">18</tspan></text>
<path transform="matrix(1,0,0,-1,384.814,299.662)" stroke-width=".478" stroke-linecap="butt" stroke-miterlimit="10" stroke-linejoin="miter" fill="none" stroke="#000000" d="M 0 0 L 8.468 0 "/>
<text xml:space="preserve" transform="matrix(1 0 -0 1 0 841.89)" font-size="7.97011" font-family="CMR8"><tspan y="-535.116" x="386.931">2</tspan></text>
<path transform="matrix(1,0,0,-1,188.446,307.617)" stroke-width=".398" stroke-linecap="butt" stroke-miterlimit="10" stroke-linejoin="miter" fill="none" stroke="#000000" d="M 0 0 L 218.384 0 "/>
<text xml:space="preserve" transform="matrix(1 0 -0 1 0 841.89)" font-size="11.95517" font-family="LMRoman12"><tspan y="-518.762" x="196.296">F</tspan></text>
<path transform="matrix(1,0,0,-1,229.31,319.364)" stroke-width=".3985" stroke-linecap="butt" stroke-miterlimit="10" stroke-linejoin="miter" fill="none" stroke="#000000" d="M 11.3482 0 C 11.3482 6.26752 6.26752 11.3482 0 11.3482 C -6.26752 11.3482 -11.3482 6.26752 -11.3482 0 C -11.3482 -6.26752 -6.26752 -11.3482 0 -11.3482 C 6.26752 -11.3482 11.3482 -6.26752 11.3482 0 Z M 0 0 "/>
<text xml:space="preserve" transform="matrix(1 0 -0 1 0 841.89)" font-size="11.95517" font-family="LMRoman12"><tspan y="-518.762" x="221.506 225.40338 231.26142">-40</tspan></text>
<text xml:space="preserve" transform="matrix(1 0 -0 1 0 841.89)" font-size="11.95517" font-family="LMRoman12"><tspan y="-518.762" x="252.813 256.7104 262.56843 283.14329 306.47978 329.82823">-30000</tspan></text>
<path transform="matrix(1,0,0,-1,344.617,330.911)" stroke-width=".398" stroke-linecap="butt" stroke-miterlimit="10" stroke-linejoin="miter" fill="none" stroke="#000000" d="M 0 0 L 0 23.095 "/>
<text xml:space="preserve" transform="matrix(1 0 -0 1 0 841.89)" font-size="11.95517" font-family="LMRoman12"><tspan y="-518.762" x="353.72">0</tspan></text>
<path transform="matrix(1,0,0,-1,368.676,330.911)" stroke-width=".398" stroke-linecap="butt" stroke-miterlimit="10" stroke-linejoin="miter" fill="none" stroke="#000000" d="M 0 0 L 0 23.095 "/>
<path transform="matrix(1,0,0,-1,371.067,330.911)" stroke-width=".398" stroke-linecap="butt" stroke-miterlimit="10" stroke-linejoin="miter" fill="none" stroke="#000000" d="M 0 0 L 0 23.095 "/>
<text xml:space="preserve" transform="matrix(1 0 -0 1 0 841.89)" font-size="11.95517" font-family="LMRoman12"><tspan y="-490.904" x="157.704 165.18793 171.04596 177.86042 183.06092 186.31272 189.56452 198.6624 204.52043 207.77223">Tabelle1.2</tspan></text>
<text xml:space="preserve" transform="matrix(1 0 -0 1 0 841.89)" font-size="11.95517" font-family="LMRoman12"><tspan y="-490.904" x="213.633">:</tspan></text>
<text xml:space="preserve" transform="matrix(1 0 -0 1 0 841.89)" font-size="11.95517" font-family="LMRoman12"><tspan y="-490.904" x="220.787 229.5621 236.06572 239.64032 245.49835 252.00197 257.86003 262.4747 267.02964 272.88768 279.39128 282.64308 287.84358 293.7016 304.1026 313.85804 317.10984 325.56217 330.76268 337.26628 340.51808 346.3761 350.99079 355.60548 358.85728 364.7153 369.9158 378.36814 386.65309 392.5111 397.1258 400.3776 404.99229 408.24409 414.1021 418.7168 425.2204 431.724">Anfangstableaumitzul&#x00e4;ssigerBasisl&#x00f6;sung</tspan></text>
<text xml:space="preserve" transform="matrix(1 0 -0 1 0 841.89)" font-size="11.95517" font-family="LMRoman12"><tspan y="-461.176" x="56.693 64.499729 70.35776 74.912677 80.770709 90.442447 96.94606 103.784427 108.984928 113.53984 120.04346 124.59837 131.10199 134.67659 139.87709 149.56078 158.01308 161.26488 165.8198 172.25167 178.1097 187.80535 194.30896 197.56076 205.94133 211.14183 217.64545 220.89725 226.75528 231.36998 235.98468 239.23648 245.09452 253.47509 261.76 267.61805 272.23274 275.48454 280.0992 283.351 289.20906 293.82374 300.32734 306.83094">Vorab&#x00fc;berpr&#x00fc;fenwir,obdiezul&#x00e4;ssigeBasisl&#x00f6;sung</tspan></text>
<text xml:space="preserve" transform="matrix(1 0 -0 1 0 841.89)" font-size="11.95517" font-family="CMBX12" font-weight="bold"><tspan y="-461.176" x="315.871">x</tspan></text>
<text xml:space="preserve" transform="matrix(1 0 -0 1 0 841.89)" font-size="7.97011" font-family="CMR8"><tspan y="-465.515" x="322.969 326.26066 330.49278">(0)</tspan></text>
<text xml:space="preserve" transform="matrix(1 0 -0 1 0 841.89)" font-size="11.95517" font-family="LMRoman12"><tspan y="-461.176" x="337.473 344.29939 349.49989 354.0548 359.2553 362.5071 367.06205 374.8568 380.0573 383.3091 389.8127 398.1933 404.05134 410.55494 415.10987 418.36167 428.1171 433.97514 437.22694 445.61946 453.9044 459.76243 464.3771 467.6289 472.2436 475.4954 481.35343 485.9681 492.4717 498.9753 508.01344 512.56838 517.76889 524.27249 528.8274 534.6854">bereitseineoptimaleBasisl&#x00f6;sungrepr&#x00e4;-</tspan><tspan y="-446.73" x="56.693 61.307699 66.508197 72.68902 77.243938 80.49574 85.69624 90.25116 98.40458 102.959499 107.57419 110.826 116.0265 122.530109 131.34107 140.52263 143.77443 148.97493 152.22673 157.10445 163.28528 169.7889 176.29251 185.74906 191.60709 194.85889 200.71692 210.18541 216.68903 223.19264 233.29477 239.9777 246.48133 252.98494 259.16578 263.7207 266.9725 272.83055 286.53117 294.8161 300.67414 305.28883 308.54063 313.1553 316.4071 322.59989 327.80039 332.41508 338.91868 345.42228 351.2803 360.39015 366.89375 371.44868 374.70048 384.4559 390.31394 393.56575 398.12068 404.97099 409.19117 419.30525 425.80885 431.00935 439.17475 447.1369 451.69184 457.54988 462.75038 469.25398 475.75758 479.00938 483.62406 488.82456 494.02507 497.27687 500.52867 509.32768 512.57949 515.8313 521.0318 526.88986 532.09036">sentiert(sieheGleichung1.19undFunktionBasisloesungOptimal).InderErgebniszeileliegen</tspan><tspan y="-432.284" x="56.693 63.842195 67.094 72.2945 75.54631 79.1209 85.62451 92.12813 98.30895 102.86387 106.11568 111.97371 118.477329 123.09202 128.95006 135.11893 140.31943 150.07485 155.27535 158.52715 163.72765 169.92043 174.47534 179.67584">Zielfunktionskoe&#xfb03;zienten</tspan></text>
<text xml:space="preserve" transform="matrix(1 0 -0 1 0 841.89)" font-size="11.95517" font-family="CMBX12" font-weight="bold"><tspan y="-432.284" x="189.746">c</tspan></text>
<text xml:space="preserve" transform="matrix(1 0 -0 1 0 841.89)" font-size="7.97011" font-family="CMSY8" font-style="italic"><tspan y="-430.491" x="195.723">N</tspan></text>
<text xml:space="preserve" transform="matrix(1 0 -0 1 0 841.89)" font-size="11.95517" font-family="LMRoman12"><tspan y="-432.284" x="207.906 214.08683 217.33863 222.53913 225.79093 232.29454 237.49504 245.6126 254.3877 260.8913 264.1431 270.96949 276.8275 282.68556 287.24049 294.05494 300.55854 306.41658 316.172 319.4238 327.5533 332.7538 337.30876 340.88334 347.38694 350.63874 353.89054 362.00813 368.51173 371.76353 380.5386 385.7391 392.2427 395.4945 401.35255 405.96723 410.5819 413.8337 419.69175 428.4549 436.73985 442.59788 447.21257 450.46437 455.07905 458.33085 464.18888 468.80357 475.30717 481.81077">kleinerNullvor.Somiterf&#x00fc;lltdiezul&#x00e4;ssigeBasisl&#x00f6;sung</tspan></text>
<text xml:space="preserve" transform="matrix(1 0 -0 1 0 841.89)" font-size="11.95517" font-family="CMBX12" font-weight="bold"><tspan y="-432.284" x="491.232">x</tspan></text>
<text xml:space="preserve" transform="matrix(1 0 -0 1 0 841.89)" font-size="7.97011" font-family="CMR8"><tspan y="-436.623" x="498.331 501.62266 505.85478">(0)</tspan></text>
<text xml:space="preserve" transform="matrix(1 0 -0 1 0 841.89)" font-size="11.95517" font-family="LMRoman12"><tspan y="-432.284" x="513.219 519.7226 522.9744 527.8521 534.0329">nicht</tspan><tspan y="-417.839" x="56.693 63.196615 69.05465 77.56673 84.07034 87.32215 93.82576 98.38068 103.58118 106.832988 111.72265 118.22626 123.4148 129.91841 136.42203 145.51992 154.62975 161.13336 165.68828 168.94008 178.6955 184.55353 187.80533 191.05713 195.61205 201.47008 206.025 210.6397 216.82051 221.37543 224.62723 229.18215 234.38265 238.93756 242.18936 248.69298 258.4484">dashinreichendeOptimalit&#x00e4;tskriterium.</tspan><tspan y="-403.393" x="56.693 60.913179 73.88454 80.38815 86.246189 91.13585 97.639469 102.25416 106.809078 112.009578 121.729129 128.23274 133.11046 139.61408 144.16899 147.42079 151.97571 159.74657 165.61655 170.81705 175.37197 179.98667 186.49028 191.368 197.87162 203.07212 212.77971 221.23201 224.48381 229.03873 235.51842 240.71892 243.97072 250.47434 255.67484 265.40635 270.60685 277.11045 280.36225 286.22029 290.83497 295.44966 298.70146 304.55949 309.75999 319.4915 327.77644 333.63447 338.24916 341.50096 346.11564 354.24516 359.44566 364.32337 370.82698 375.44166 380.64216 387.1099 392.9799 398.83793 403.39286 408.5814 415.085 421.5886 426.7891 433.2927 443.04814 448.24864 454.75224 461.21998 469.36146 475.21949 482.0339 487.2344 493.7141 500.2177 505.4182 513.20108 524.2596 529.4601 534.015">Imn&#x00e4;chstenSchrittversuchenwir,einenzul&#x00e4;ssigenBasiswechselvorzunehmen,wobeiderWert</tspan><tspan y="-388.947" x="56.693 63.196615 68.39711 76.39512 83.54431 86.79612 91.99662 95.24843 98.82302 105.32663 111.830249 118.01107 122.56599 125.817798 131.67583 141.62253 148.12615 151.37795 156.26761 162.43648 170.43448 174.00908 179.86711 183.11891 186.37071 191.57122 201.51792 208.02153 213.87957 218.43448 222.00908 228.71593 237.6584 240.9102 249.55379 256.70298 259.95478 265.15528 268.40708 271.98167 278.48527 284.98887 291.16969 295.7246 298.9764 304.83445 311.33805 315.95274 321.81077 327.99159 333.19209 342.9475 348.148 351.3998 356.6003 362.78114 367.33607 372.53657 382.48326 388.98686 394.18736 402.18537 410.96046 414.21226 419.10194 425.27079 429.8257 436.3293 442.18736 446.80204 450.05384 454.66853 460.20378 466.0618 470.61674 473.86854 479.72657 486.23017 489.48197 494.68247">derZielfunktionnichtfallendarf.DieZielfunktionskoe&#xfb03;zientenderNichtbasisvariablen</tspan></text>
<text xml:space="preserve" transform="matrix(1 0 -0 1 0 841.89)" font-size="11.95517" font-family="CMBX12" font-weight="bold"><tspan y="-388.947" x="504.612">c</tspan></text>
<text xml:space="preserve" transform="matrix(1 0 -0 1 0 841.89)" font-size="7.97011" font-family="CMSY8" font-style="italic"><tspan y="-387.154" x="510.589">N</tspan></text>
<text xml:space="preserve" transform="matrix(1 0 -0 1 0 841.89)" font-size="11.95517" font-family="LMRoman12"><tspan y="-388.947" x="522.649 529.4754 534.6759">be-</tspan><tspan y="-374.501" x="56.693 61.307699 65.86262 69.114429 78.86984 88.62526 93.82576 100.32938 108.303478 114.80708 129.29676 137.42627 142.62677 145.87857 150.75629 157.2599 162.4604 173.68631 184.74485 189.94535 194.50026 203.77747 208.39217 211.64397 216.52169 227.74759 234.2512 237.503 247.43776 254.58695 257.83876 263.03926 266.29106 269.86564 276.36924 282.87284 289.05366 293.60859 296.86039 302.7184 313.9443 319.80235 326.30595 332.80955 338.01005 342.56498 347.1199 355.10597 363.23548 368.43598 374.93959 386.16548 392.66908 395.92088 405.84367 411.04417 417.23695 421.79188 426.40657 432.91017 437.4651 442.6656 447.5433 454.0469 459.2474 465.751 472.2546 482.16545 490.94053 494.19233 499.082 505.26283 509.81776 516.32138 522.1794 526.79409 530.0459 534.6606">stimmen,umwelchenWertsichdieZielfunktion&#x00e4;ndert,wenndieentsprechendeNichtbasis-</tspan><tspan y="-360.055" x="56.693 62.228246 68.08628 72.6412 75.893009 81.75104 88.254657 91.50646 101.214069 106.414569 110.96948 117.4731 123.33113 129.52391 138.58592 147.03823 150.29003 154.84494 161.34856 169.11942 175.7904 181.64844 184.90024 190.75827 194.01007 197.26187 202.13959 213.1503 219.9767 225.1772 229.7919 234.34682 237.59862 247.35404 257.10948 262.30998 273.3326 281.7849 285.0367 294.1107 300.6143 303.8661 313.58564 321.5478 324.7996 330.6696 336.52763 341.08256 345.69725 352.20085 358.05888 361.31068 365.8656 375.5732 384.6472 389.26188 395.1199 402.89076 409.39436 415.25239 419.86708 429.0008 435.5044 440.7049 449.77888 456.92808 460.17988 465.38038 468.63218 472.20677 478.71037 485.21397 491.39479 495.9497 499.2015 505.05955 511.56315 516.17788 524.3074 529.5079 534.0628">variableerh&#x00f6;htwird.FolglichbestimmenwirdiePivotspaltetso,dassderZielfunktionswert</tspan><tspan y="-345.609" x="56.693 61.8935 65.14531 71.648929 76.84943 88.01556 93.87359 98.428508 104.28654 117.29376 121.84868 131.6041 137.46213 143.32016 146.57196 149.82376 154.71343 161.21704 166.41754 177.57172 184.7209 190.91368 199.0432 204.90123 209.77895 216.28256 225.54782 230.74832 235.30324 238.87784 244.73587 251.23949 255.7944 265.0238 269.57875 274.19343 277.44523 282.64573 289.14933 299.0243 305.69526 312.19886 318.70246 324.88328 329.4382 332.69 338.54804 354.37669 362.3388 365.5906 371.4606 377.31864 381.87358 386.48826 392.99186 398.84989 402.10169 406.65663 411.85713 419.81929 424.3742 427.626 437.38145 443.23948 446.49128 451.0462 458.9605">einengr&#x00f6;&#xfffd;tm&#x00f6;glichenZuwachserf&#x00e4;hrt(sieheFunktionPivotspaltePrimal).[</tspan></text>
<text xml:space="preserve" transform="matrix(1 0 -0 1 0 841.89)" font-size="11.95517" font-family="LMRoman12" font-weight="bold"><tspan y="-345.609" x="462.183">?</tspan></text>
<text xml:space="preserve" transform="matrix(1 0 -0 1 0 841.89)" font-size="11.95517" font-family="LMRoman12"><tspan y="-345.609" x="468.534 476.4483 485.39079 490.59129 499.82069 506.0015 509.2533 514.4538 517.7056 524.2092 528.8239 533.37887">]Derkleinste</tspan><tspan y="-331.164" x="56.693 67.75153 72.952037 77.50695 86.05489 89.3067 99.8153 106.31891 111.51941 120.07931 128.04145 132.59636 138.45439 143.65489 150.15851 156.66213 159.91393 164.52863 169.72913 174.92963 178.18143 181.43323 190.6387 193.8905 198.5052">WertinderErgebniszeileist</tspan></text>
<text xml:space="preserve" transform="matrix(1 0 -0 1 0 841.89)" font-size="11.95517" font-family="CMSY10" font-style="italic"><tspan y="-331.164" x="207.07">&#x2212;</tspan></text>
<text xml:space="preserve" transform="matrix(1 0 -0 1 0 841.89)" font-size="11.95517" font-family="CMR12"><tspan y="-331.164" x="216.368 222.22603">40</tspan></text>
<text xml:space="preserve" transform="matrix(1 0 -0 1 0 841.89)" font-size="11.95517" font-family="LMRoman12"><tspan y="-331.164" x="228.074 235.33078 241.8344 247.0349 256.7903 263.2939 269.15196 274.02967 284.5263 289.7268 294.28175 300.78535 306.64338 309.89518 314.4501 319.6506 330.15919 338.61149 341.86329 350.4232 356.9268 362.78483 367.6745 378.17115 384.67475 391.17835 395.79304 400.99354 405.54847 410.74897 421.25755 430.03263 436.859 442.0595 446.61445 449.86625 455.06675 460.92478 467.42839 473.93199 479.79 484.9905 495.49909 502.0027 505.2545 514.45999 519.66049 524.2154 528.8301 533.385">,demnacherhaltenwirnachunseren&#x00dc;berlegungendieerste</tspan><tspan y="-316.718" x="56.693 63.196615 69.700229 75.55826 78.81007 83.36498 93.44319 99.30122 102.55303 112.04543 120.007579 123.259387 129.12937 134.9874 139.54232 144.15702 150.66063 156.51866 159.77046 164.32538 174.39163 178.94655 183.56125 186.81305 192.01355 198.51717 208.59539 216.09127 221.9493 228.76375 233.96425 237.21605 240.46785 250.54607 256.4041 259.6559 265.51396 270.06889 278.21037 284.71397 287.96577 294.46937 305.85069 309.10249 320.49577 326.99937 332.19987 341.6325 348.4589 353.6594 358.21434 362.76927 368.6273 373.51698 379.69779 384.25273 389.45323 394.00816 399.20866 410.578 418.54017 421.79197 427.66197 433.52 438.07493 442.6896 449.1932 455.05125 458.30305 462.85798 472.92424 482.35688 488.2149 491.4667 494.7185 504.8087 513.58377 519.7646 524.9651 534.7205">SpaltealsPivotspalte(sieheTabelle1.2).SindinderbetrachtetenPivotspaltetalleKoe&#xfb03;-</tspan><tspan y="-302.272" x="56.693 61.8935 65.14531 70.34581 76.526638 81.08155 86.28205">zienten</tspan></text>
<text xml:space="preserve" transform="matrix(1 0 -0 1 0 841.89)" font-size="11.95517" font-family="CMMI12" font-style="italic"><tspan y="-302.272" x="97.94">a</tspan></text>
<text xml:space="preserve" transform="matrix(1 0 -0 1 0 841.89)" font-size="7.97011" font-family="CMMI8" font-style="italic"><tspan y="-300.479" x="104.085 106.97018">it</tspan></text>
<text xml:space="preserve" transform="matrix(1 0 -0 1 0 841.89)" font-size="11.95517" font-family="CMSY10" font-style="italic"><tspan y="-302.272" x="115.975">&#x2264;</tspan></text>
<text xml:space="preserve" transform="matrix(1 0 -0 1 0 841.89)" font-size="11.95517" font-family="CMR12"><tspan y="-302.272" x="130.724">0</tspan></text>
<text xml:space="preserve" transform="matrix(1 0 -0 1 0 841.89)" font-size="11.95517" font-family="CMMI12" font-style="italic"><tspan y="-302.272" x="136.577">,</tspan></text>
<text xml:space="preserve" transform="matrix(1 0 -0 1 0 841.89)" font-size="11.95517" font-family="CMSY10" font-style="italic"><tspan y="-302.272" x="143.814">&#x2200;</tspan></text>
<text xml:space="preserve" transform="matrix(1 0 -0 1 0 841.89)" font-size="11.95517" font-family="CMMI12" font-style="italic"><tspan y="-302.272" x="152.448">i</tspan></text>
<text xml:space="preserve" transform="matrix(1 0 -0 1 0 841.89)" font-size="11.95517" font-family="CMSY10" font-style="italic"><tspan y="-302.272" x="163.885 177.2987">&#x2208;{</tspan></text>
<text xml:space="preserve" transform="matrix(1 0 -0 1 0 841.89)" font-size="11.95517" font-family="CMR12"><tspan y="-302.272" x="183.284">1</tspan></text>
<text xml:space="preserve" transform="matrix(1 0 -0 1 0 841.89)" font-size="11.95517" font-family="CMMI12" font-style="italic"><tspan y="-302.272" x="189.137 194.37335 199.62168 204.85803 210.10636">,...,</tspan></text>
<text xml:space="preserve" transform="matrix(1 0 -0 1 0 841.89)" font-size="11.95517" font-family="LMRoman12"><tspan y="-302.272" x="215.357">m</tspan></text>
<text xml:space="preserve" transform="matrix(1 0 -0 1 0 841.89)" font-size="11.95517" font-family="CMSY10" font-style="italic"><tspan y="-302.272" x="225.113">}</tspan></text>
<text xml:space="preserve" transform="matrix(1 0 -0 1 0 841.89)" font-size="11.95517" font-family="LMRoman12"><tspan y="-302.272" x="231.091 239.49549 244.11019 255.1209 258.3727 262.9874 272.695 277.8955 281.1473 287.6509 298.0041 304.5077 310.6885 317.5149 322.7154 327.33009 332.2078 338.7114 343.26634 349.12437 355.62797 361.80879 366.3637 376.70494 383.20854 387.76347 392.96397 396.21577 402.0738 407.2743 411.82923 418.33283 424.83644 435.84715 441.71714 447.57518">,soisteineunbeschr&#x00e4;nkteSteigerungvon</tspan></text>
<text xml:space="preserve" transform="matrix(1 0 -0 1 0 841.89)" font-size="11.95517" font-family="CMMI12" font-style="italic"><tspan y="-302.272" x="459.211">x</tspan></text>
<text xml:space="preserve" transform="matrix(1 0 -0 1 0 841.89)" font-size="7.97011" font-family="CMMI8" font-style="italic"><tspan y="-300.479" x="465.863">t</tspan></text>
<text xml:space="preserve" transform="matrix(1 0 -0 1 0 841.89)" font-size="11.95517" font-family="LMRoman12"><tspan y="-302.272" x="474.573 484.32844 490.18647 496.0445 499.2963 502.5481 507.4258 519.0702 525.5738 532.0774">m&#x00f6;glichund</tspan><tspan y="-287.826" x="56.693 61.307699 67.16573 76.92115 80.17296 89.34257 97.794879 104.29849 108.85341 115.357028 125.17222 129.78691 133.03871 137.92838 149.04669 155.55031 160.75081 169.92043 180.97896 186.17946 190.73438 199.90399 206.40761 211.60811 220.77773 227.92691 231.17871 236.37921 239.63101 243.20561 249.70923 256.21284 262.39366 266.94859 270.20039 276.0584 287.1767 293.6803 300.1839 305.3844 308.6362 315.1398 320.99784 326.19834 330.81303 335.7027 342.2063 346.76124 352.61927 359.12287 365.30369 374.46138 380.33137 385.53187 390.0868 395.94483 400.49977 406.3578 419.36503 424.56553 429.12046 440.2268 443.4786 449.33665 453.95133 458.566 463.7665 474.89677 479.4517 484.06639 487.31819 492.51869 499.02229 508.83747 515.5204 522.024 528.5276 534.70846">somitw&#x00fc;rdesichderWertderZielfunktionuneingeschr&#x00e4;nktvergr&#x00f6;&#xfffd;ernlassen(sieheFunk-</tspan><tspan y="-273.38" x="56.693 61.24792 64.499729 70.35776 80.77071 88.73286 91.984668 97.85465 103.70073 108.255649 112.87034 119.37395 125.23198 128.48378 133.0387 138.2392 146.20134 150.75626 154.00806 163.76348 169.6215 172.8733 180.02249 186.52611 189.77791 195.63594 200.83644 205.45114 210.06584 213.31764 219.17568 223.73059 230.89174 239.66684 245.84767 250.40259 255.60309 264.06736 270.57096 273.82276 279.02326 283.63795 288.83845 299.25138 308.02647 317.7819 322.39659 326.9515 332.80955 339.31315 345.81675 351.01725 361.43019 369.88249 376.38609 380.941 387.4446 396.5664 403.07 408.92805 417.45207 425.41419 429.96913 435.82716 442.33076 445.58256 450.78306 464.4478 470.3178 475.5183 478.7701 485.2737 494.3716 500.22966 506.73326 511.28819 514.54 524.2954 530.15347 533.4053">tionPivotspaltePrimalZulaessig).UnterdiesenUmst&#x00e4;ndenw&#x00fc;rdedasProblemkeineoptimale</tspan><tspan y="-258.934" x="56.693 64.977939 70.83597 75.45066 78.70247 83.31716 86.56897 92.427 97.041698 103.5453 110.04892 119.66087 126.48728 131.68778 136.30248 139.55428 144.10919 149.3097 154.5102 164.7797 171.28331 177.78693 188.04447 194.54808 200.40612 208.77474 216.59342 221.79392 226.34883 229.92343 235.78147 242.28508 246.84 252.0405 262.28608 271.73069 278.23429 282.84898 287.46366 292.0186 300.96107 306.8191 313.3227 319.18074 324.38124 330.88484 335.43977 341.62059 346.51026 353.01387 358.21437 368.45994 376.6014 381.8019 386.35685 392.86045 398.06095 408.31849 412.8734 417.4881 420.7399 425.9404 432.444 441.39845 450.17353 453.42533 459.28337 465.1414 469.69633 472.94813 477.50306 484.00666 493.45127 499.95487 508.31153 514.16958 518.7245 525.7422">Basisl&#x00f6;sungbesitzenunddasVerfahrenm&#x00fc;ssteabgebrochenwerden(sieheAlgorithmus1).[</tspan></text>
<text xml:space="preserve" transform="matrix(1 0 -0 1 0 841.89)" font-size="11.95517" font-family="LMRoman12" font-weight="bold"><tspan y="-258.934" x="528.98">?</tspan></text>
<text xml:space="preserve" transform="matrix(1 0 -0 1 0 841.89)" font-size="11.95517" font-family="LMRoman12"><tspan y="-258.934" x="535.331">]</tspan><tspan y="-244.489" x="56.693 60.913179 71.0153 77.518909 82.719409 96.08528 104.860378 111.36398 114.938579 120.79661 127.30022 133.15825 137.77295 142.32787 148.1859 154.68952 157.94132 163.14182 168.99985 179.11392 183.66884 188.28354 191.53534 196.73584 203.23946 212.05042 219.53435 225.39238 232.20684 237.40734 240.65914 243.91094 252.7219 258.57994 261.83174 267.68977 275.85517 280.46986 283.72166 290.22526 300.33934 306.19737 309.44917 312.70097">IndemAnfangstableau(sieheTabelle1.2)sindalle</tspan></text>
<text xml:space="preserve" transform="matrix(1 0 -0 1 0 841.89)" font-size="11.95517" font-family="CMMI12" font-style="italic"><tspan y="-244.489" x="321.496">a</tspan></text>
<text xml:space="preserve" transform="matrix(1 0 -0 1 0 841.89)" font-size="7.97011" font-family="CMMI8" font-style="italic"><tspan y="-242.695" x="327.641">i</tspan></text>
<text xml:space="preserve" transform="matrix(1 0 -0 1 0 841.89)" font-size="7.97011" font-family="CMR8"><tspan y="-242.695" x="330.524">1</tspan></text>
<text xml:space="preserve" transform="matrix(1 0 -0 1 0 841.89)" font-size="11.95517" font-family="CMMI12" font-style="italic"><tspan y="-244.489" x="338.577">&#x003e;</tspan></text>
<text xml:space="preserve" transform="matrix(1 0 -0 1 0 841.89)" font-size="11.95517" font-family="CMR12"><tspan y="-244.489" x="351.002">0</tspan></text>
<text xml:space="preserve" transform="matrix(1 0 -0 1 0 841.89)" font-size="11.95517" font-family="LMRoman12"><tspan y="-244.489" x="356.855 363.70533 368.32 374.17805 383.93348 387.18528 395.35069 398.92527 404.7833 411.2869 415.84184 421.04234 431.1564 439.6087 442.8605 451.0259 460.78135 464.03315 472.19856 478.70216 483.90266 492.0561 503.1266 508.98463 515.4882 522.33859 528.84219 534.04269">,somitfahrenwirmitderWahlder</tspan><tspan y="-230.043" x="56.693 64.65514 67.90695 73.764987 79.62302 84.17793 89.37843 94.57893 97.83074 101.08255 110.180438 118.69251 122.267108 128.12514 132.68006 141.13236 145.68727 150.30197 153.55377 158.75428 165.25789 174.36774 181.03873 187.54235 194.04596 200.22678 204.7817 208.0335 213.89153 228.18991 236.15206 239.40386 245.26189 251.11992 255.67484 260.87535 266.07585 269.32765 272.57945 277.77995 285.74208 290.297 293.5488 303.30424 309.16227 312.41407 316.969">Pivotzeilesfort(sieheFunktionPivotzeilePrimal).</tspan><tspan y="-215.597" x="56.693 63.842195 70.34581 79.20459 87.16673 91.72165 101.477069 104.728878 109.28379 113.83871 117.090518 123.59413 130.09775 140.25965 146.76326 151.96376 160.82254 168.78469 172.03649 177.90647 183.7645 188.31941 193.51992 198.72042 201.97222 205.22402 214.71642 222.85788 228.05838 232.6133 239.11692 244.30547 255.11295 261.61656 264.86836 274.3727 283.48255 289.98616 295.84419 300.3991 303.6509 308.8514 315.0442 319.59913 324.79963">ZurErmittlungderPivotzeilewerdendieQuotienten</tspan></text>
<text xml:space="preserve" transform="matrix(1 0 -0 1 0 841.89)" font-size="7.97011" font-family="CMMI8" font-style="italic"><tspan y="-220.518" x="339.049">b</tspan></text>
<text xml:space="preserve" transform="matrix(1 0 -0 1 0 841.89)" font-size="5.97758" font-family="CMMI6" font-style="italic"><tspan y="-219.303" x="342.672">i</tspan></text>
<path transform="matrix(1,0,0,-1,336.785,623.304)" stroke-width=".478" stroke-linecap="butt" stroke-miterlimit="10" stroke-linejoin="miter" fill="none" stroke="#000000" d="M 0 0 L 11.313 0 "/>
<text xml:space="preserve" transform="matrix(1 0 -0 1 0 841.89)" font-size="7.97011" font-family="CMMI8" font-style="italic"><tspan y="-211.474" x="336.785">a</tspan></text>
<text xml:space="preserve" transform="matrix(1 0 -0 1 0 841.89)" font-size="5.97758" font-family="CMMI6" font-style="italic"><tspan y="-210.259" x="341.283">i</tspan></text>
<text xml:space="preserve" transform="matrix(1 0 -0 1 0 841.89)" font-size="5.97758" font-family="CMR6"><tspan y="-210.259" x="343.946">1</tspan></text>
<text xml:space="preserve" transform="matrix(1 0 -0 1 0 841.89)" font-size="11.95517" font-family="LMRoman12"><tspan y="-215.597" x="349.293">,</tspan></text>
<text xml:space="preserve" transform="matrix(1 0 -0 1 0 841.89)" font-size="11.95517" font-family="CMSY10" font-style="italic"><tspan y="-215.597" x="356.852">&#x2200;</tspan></text>
<text xml:space="preserve" transform="matrix(1 0 -0 1 0 841.89)" font-size="11.95517" font-family="CMMI12" font-style="italic"><tspan y="-215.597" x="365.486">i</tspan></text>
<text xml:space="preserve" transform="matrix(1 0 -0 1 0 841.89)" font-size="11.95517" font-family="CMSY10" font-style="italic"><tspan y="-215.597" x="375.481 387.46006">&#x2208;{</tspan></text>
<text xml:space="preserve" transform="matrix(1 0 -0 1 0 841.89)" font-size="11.95517" font-family="CMR12"><tspan y="-215.597" x="393.439">1</tspan></text>
<text xml:space="preserve" transform="matrix(1 0 -0 1 0 841.89)" font-size="11.95517" font-family="CMMI12" font-style="italic"><tspan y="-215.597" x="399.292">,</tspan></text>
<text xml:space="preserve" transform="matrix(1 0 -0 1 0 841.89)" font-size="11.95517" font-family="CMR12"><tspan y="-215.597" x="404.536">2</tspan></text>
<text xml:space="preserve" transform="matrix(1 0 -0 1 0 841.89)" font-size="11.95517" font-family="CMMI12" font-style="italic"><tspan y="-215.597" x="410.389">,</tspan></text>
<text xml:space="preserve" transform="matrix(1 0 -0 1 0 841.89)" font-size="11.95517" font-family="CMR12"><tspan y="-215.597" x="415.633">3</tspan></text>
<text xml:space="preserve" transform="matrix(1 0 -0 1 0 841.89)" font-size="11.95517" font-family="CMSY10" font-style="italic"><tspan y="-215.597" x="421.486">}</tspan></text>
<text xml:space="preserve" transform="matrix(1 0 -0 1 0 841.89)" font-size="11.95517" font-family="LMRoman12"><tspan y="-215.597" x="427.463 435.01869 441.84507 447.04557 451.6005 456.801 461.69068 468.19429 474.69789 479.89839 484.4533 491.997 500.7721 514.83139 521.33499 527.193 532.08267">,berechnet.Umnach</tspan><tspan y="-201.151" x="56.693 63.196615 68.39711 81.89449 90.17943 96.03746 100.65215 103.90396 108.53061 116.66012 121.86062 126.73833 133.24195 137.85665 143.05715 150.05092 155.25142 158.50322 165.00684 173.96126 179.16176 185.66538 188.91718 194.7752 199.38991 204.00461 207.25641 213.11444 222.06887 230.35379 236.21183 240.82653 244.07833 248.69303 251.94483 257.80287 262.41755 268.92115 275.42475 285.0367 290.2372 300.49476 305.69526 310.25019 316.75379 322.61183 325.86363 330.41856 335.61906 342.12266 349.1284 357.5807 360.8325 365.38743 375.633 382.1366 387.3371 395.64598 401.82679 405.07859 410.27909 413.53089 420.0345 424.64918 429.2041 438.15855 447.26838 453.77198 459.63 464.18495 467.43675 472.63725 478.83003 487.12693 493.9533 499.1538 503.7685 508.32344 511.57524 521.3306 530.7752 535.33016">demBasiswechseleinezul&#x00e4;ssigeBasisl&#x00f6;sungzuerhalten,wirdderkleinsteQuotientbestimmt,</tspan><tspan y="-186.705" x="56.693 63.196615 66.44842 71.64892 76.26361 81.46411 89.91641 94.531108 99.08602 104.28652 110.479297 118.91964 122.17145 132.57245 139.07607 144.27657 152.74083 160.22476 166.0828 172.89725 178.09775 181.34955 184.60135 193.7112 199.56923 202.82103 212.57645 215.82825 226.22925 232.73287 237.93337 246.39763 251.59813 259.72767 264.92817 268.17997 272.7349 277.9354 288.3364 295.4856 300.6861 303.9379 307.1897 312.3902 319.5394">dieserstehtinderTabelle1.2inderzweitenZeile.[</tspan></text>
<text xml:space="preserve" transform="matrix(1 0 -0 1 0 841.89)" font-size="11.95517" font-family="LMRoman12" font-weight="bold"><tspan y="-186.705" x="322.81">?</tspan></text>
<text xml:space="preserve" transform="matrix(1 0 -0 1 0 841.89)" font-size="11.95517" font-family="LMRoman12"><tspan y="-186.705" x="329.161">]</tspan><tspan y="-172.26" x="56.693 63.363985 69.222019 72.47382 78.331859 81.583667 84.83547 89.71318 100.843448 106.043949 110.59886 117.10248 122.96051 126.21232 130.76725 135.96775 147.10997 155.56227 158.81407 168.0076 173.86563 177.11743 186.37075 194.33289 197.58469 203.45467 209.3127 213.86762 219.06812 222.31992 227.52042 237.27584 242.47634 248.6452 257.8387 264.34233 269.54283 280.68504 289.4601 295.64094 300.84144 310.59687 315.79737 319.04917 324.24967 330.43049 334.9854 340.1859">FolglicherhaltenwiralsPivotelementdenKoe&#xfb03;zienten</tspan></text>
<text xml:space="preserve" transform="matrix(1 0 -0 1 0 841.89)" font-size="11.95517" font-family="CMMI12" font-style="italic"><tspan y="-172.26" x="351.317">a</tspan></text>
<text xml:space="preserve" transform="matrix(1 0 -0 1 0 841.89)" font-size="7.97011" font-family="CMR8"><tspan y="-170.466" x="357.461 361.6931">21</tspan></text>
<text xml:space="preserve" transform="matrix(1 0 -0 1 0 841.89)" font-size="11.95517" font-family="CMR12"><tspan y="-172.26" x="371.005 384.6817">=2</tspan></text>
<text xml:space="preserve" transform="matrix(1 0 -0 1 0 841.89)" font-size="11.95517" font-family="LMRoman12"><tspan y="-172.26" x="395.18 399.73493 404.3496 407.6014 412.8019 419.3055 429.14463 436.62855 442.48658 449.301 454.5015 457.7533 461.0051 470.8442 476.70225 479.95405 485.81208 490.367 498.26939 508.99317 512.245 516.7999 523.3035 526.55538 529.8072 533.3818">(sieheTabelle1.2).Mithilfe</tspan><tspan y="-157.814" x="56.693 63.196615 68.39711 76.72986 84.692 87.94381 93.8138 99.67183 104.226749 109.427249 112.679058 117.879558 127.63497 132.83547 139.0163 143.57122">desPivotelements</tspan></text>
<text xml:space="preserve" transform="matrix(1 0 -0 1 0 841.89)" font-size="11.95517" font-family="CMMI12" font-style="italic"><tspan y="-157.814" x="151.91">a</tspan></text>
<text xml:space="preserve" transform="matrix(1 0 -0 1 0 841.89)" font-size="7.97011" font-family="CMR8"><tspan y="-156.02" x="158.055 162.28713">21</tspan></text>
<text xml:space="preserve" transform="matrix(1 0 -0 1 0 841.89)" font-size="11.95517" font-family="LMRoman12"><tspan y="-157.814" x="170.749 177.5754 182.7759 187.3906 191.94551 195.19731 204.95273 214.70815 219.90865 230.14228 238.59458 241.84638 250.11936 256.62297 261.82347 272.05708 276.27726 282.78086 289.28446 294.48497 304.39579 310.89939 316.09989 324.38484 333.1599 336.4117 341.28944 347.47026 352.02519 358.52879 364.3868 369.0015 372.2533 376.86799 382.40324 388.26127 392.8162 396.068 401.92604 408.42964 411.68144 416.88194">bestimmenwirdenIndexderNichtbasisvariablen</tspan></text>
<text xml:space="preserve" transform="matrix(1 0 -0 1 0 841.89)" font-size="11.95517" font-family="CMMI12" font-style="italic"><tspan y="-157.814" x="427.102">x</tspan></text>
<text xml:space="preserve" transform="matrix(1 0 -0 1 0 841.89)" font-size="7.97011" font-family="CMR8"><tspan y="-156.02" x="433.754">1</tspan></text>
<text xml:space="preserve" transform="matrix(1 0 -0 1 0 841.89)" font-size="11.95517" font-family="LMRoman12"><tspan y="-157.814" x="442.215 448.7186 455.2222 465.44386 473.7288 479.58683 484.2015 487.4533 492.068 497.61518 503.4732 508.02815 511.27995 517.138 523.6416 526.89346 532.09396">undBasisvariablen</tspan></text>
<text xml:space="preserve" transform="matrix(1 0 -0 1 0 841.89)" font-size="11.95517" font-family="CMMI12" font-style="italic"><tspan y="-143.368" x="56.693">x</tspan></text>
<text xml:space="preserve" transform="matrix(1 0 -0 1 0 841.89)" font-size="7.97011" font-family="CMR8"><tspan y="-141.575" x="63.345">4</tspan></text>
<text xml:space="preserve" transform="matrix(1 0 -0 1 0 841.89)" font-size="11.95517" font-family="LMRoman12"><tspan y="-143.368" x="68.077 76.02719 82.53081 85.782619 95.681499 102.51985 107.72035 110.97216 125.42596 133.71089 139.56893 144.18363 147.43543 152.05013 160.19159 165.39209 170.25785 176.76146 181.37616 186.57666 194.52684 201.03046 206.23096 214.68326 222.63344 230.59558 233.84738 239.71736 245.5754 250.13031 254.74501 259.6227 266.1263 270.68125 273.93305 278.48799 287.72935 293.58738 300.09098 304.70567 310.5637 315.7642 320.31913 326.17716 332.68077 337.29545 342.18513 348.36595 357.6073 365.74879 370.94929 375.5042 382.0078 387.2083 398.39836 402.95329 407.56797 410.81977 416.02027 422.52388 432.42277 439.91865 445.77668 452.5911 457.7916 461.0434 464.2952 474.1941 480.05213 483.30393 489.16197 493.7169 501.67903 505.8992 517.1012 523.6048 528.8053">,diebeimBasiswechselbzw.Pivotschrittausgetauschtwerden(sieheTabelle1.2).Indem</tspan><tspan y="-128.922" x="56.693 64.65514 67.90695 73.764987 79.62302 84.17793 88.792629 93.670337 100.17395 104.72887 107.980678 112.53559 121.28677 126.487277 131.04219 135.65689 140.85739 145.41231 150.61281 155.81331 166.52515 174.97745 178.22925 186.99239 193.496 196.7478 206.14456 212.64818 215.89998 220.51468 227.0183 232.2188 236.77371 240.02552 245.88355 255.29227 263.5772 269.43525 274.04994 277.30174 281.9164 287.4636 293.32164 297.87657 301.12837 306.9864 313.49 316.7418">PivotschrittersetzenwirdiebisherigeBasisvariable</tspan></text>
<text xml:space="preserve" transform="matrix(1 0 -0 1 0 841.89)" font-size="11.95517" font-family="CMMI12" font-style="italic"><tspan y="-128.922" x="326.133">x</tspan></text>
<text xml:space="preserve" transform="matrix(1 0 -0 1 0 841.89)" font-size="7.97011" font-family="CMR8"><tspan y="-127.129" x="332.785">4</tspan></text>
<text xml:space="preserve" transform="matrix(1 0 -0 1 0 841.89)" font-size="11.95517" font-family="LMRoman12"><tspan y="-128.922" x="341.724 351.47944 354.73124 363.48243 369.98603 375.18653 383.94969 390.45329 393.70509 398.31977 404.82337 410.02388 414.5788 417.8306 423.68864 428.88914 439.60096 448.37605 451.62785 456.51753 462.69834 467.25328 473.75688 479.6149 484.22959 487.48139 492.09608 497.61936 503.4774 508.03233 511.28413 517.14218 523.64578 526.8976 532.0981">mitderbisherigenNichtbasisvariablen</tspan></text>
<text xml:space="preserve" transform="matrix(1 0 -0 1 0 841.89)" font-size="11.95517" font-family="CMMI12" font-style="italic"><tspan y="-114.476" x="56.693">x</tspan></text>
<text xml:space="preserve" transform="matrix(1 0 -0 1 0 841.89)" font-size="7.97011" font-family="CMR8"><tspan y="-112.683" x="63.345">1</tspan></text>
<text xml:space="preserve" transform="matrix(1 0 -0 1 0 841.89)" font-size="11.95517" font-family="LMRoman12"><tspan y="-114.476" x="68.077 74.26978 83.21225 89.715869 94.27078 99.14849 108.581119 111.832927 115.08473 121.58835 126.78885 132.64688 137.2018 145.34328 152.82721 157.38213 163.24016 169.74378 174.35848 177.93308 183.7911 188.34603 198.10144 203.95948 208.51439 211.76619 217.62422 227.05686 233.56047 238.76097 246.31665 255.09175 260.29225 267.11863 272.31913 278.49995 285.32633 290.52684 297.03044 300.28224 306.78584 312.64387 319.14747 325.65107 331.5091 336.12379 340.73847 346.91929 351.53398 356.0889 361.2894 371.04484 378.58854 388.34397 391.59577 399.09169 405.59529 410.79579 418.2917 424.7953 429.9958 436.4994 441.6999 451.1325 459.41746 465.27549 469.89018 473.14198 477.75666 483.30384 489.16188 493.7168 496.9686 502.82664 509.33024 512.58206 517.78256">.DurchlineareTransformationdesNebenbedingungssystemsmitderneuenBasisvariablen</tspan></text>
<text xml:space="preserve" transform="matrix(1 0 -0 1 0 841.89)" font-size="11.95517" font-family="CMMI12" font-style="italic"><tspan y="-114.476" x="527.198">x</tspan></text>
<text xml:space="preserve" transform="matrix(1 0 -0 1 0 841.89)" font-size="7.97011" font-family="CMR8"><tspan y="-112.683" x="533.85">1</tspan></text>
<text xml:space="preserve" transform="matrix(1 0 -0 1 0 841.89)" font-size="11.95517" font-family="LMRoman12"><tspan y="-100.03" x="56.693 61.8935 66.44842 72.95203 78.81006 82.06187 86.61678 91.81728 102.325878 110.77818 114.02999 122.58989 132.3453 135.5971 140.15203 144.70694 149.90744 153.15924 161.79088 168.2945 173.495 182.0549 190.01705 194.57196 200.43 205.6305 210.831 217.33461 223.83823 232.39813 240.36028 243.61208 249.48206 255.34009 259.89503 264.5097 269.38743 275.89103 280.44596 283.69776 288.2527 296.80067 302.00117 305.25297 311.75657 316.95707 327.4776 335.43977 338.69157 345.19517 351.69877 356.89927 360.15107 364.706 369.32069 375.1787 380.3792 386.56004 391.11497 396.973 405.5329 415.28834 418.54014">erhaltenwirmittelsderProzedurPivotschritteinenEinheitsvektormit</tspan></text>
<text xml:space="preserve" transform="matrix(1 0 -0 1 0 841.89)" font-size="11.95517" font-family="CMMI12" font-style="italic"><tspan y="-100.03" x="427.084">a</tspan></text>
<text xml:space="preserve" transform="matrix(1 0 -0 1 0 841.89)" font-size="7.97011" font-family="CMR8"><tspan y="-98.237" x="433.229 437.46113">21</tspan></text>
<text xml:space="preserve" transform="matrix(1 0 -0 1 0 841.89)" font-size="11.95517" font-family="CMR12"><tspan y="-100.03" x="445.701 458.3137">=1</tspan></text>
<text xml:space="preserve" transform="matrix(1 0 -0 1 0 841.89)" font-size="11.95517" font-family="LMRoman12"><tspan y="-100.03" x="468.173 472.72795 477.34263 480.59443 485.79493 492.29853 501.504 508.9879 514.84597 521.6604 526.8609 530.11276 533.36459">(sieheTabelle</tspan><tspan y="-85.585" x="56.693 62.551034 65.80284 71.66087 76.21579 83.233478">1.3).[</tspan></text>
<text xml:space="preserve" transform="matrix(1 0 -0 1 0 841.89)" font-size="11.95517" font-family="LMRoman12" font-weight="bold"><tspan y="-85.585" x="86.474">?</tspan></text>
<text xml:space="preserve" transform="matrix(1 0 -0 1 0 841.89)" font-size="11.95517" font-family="LMRoman12"><tspan y="-85.585" x="92.826 99.84368 108.78615 113.98665 123.742069 128.94257 135.1234 139.67832 144.29302 150.79663 155.35155 160.55205 165.42977 171.93338 177.13388 183.6375 193.89504 199.09554 203.65045 210.15407 216.0121 219.2639 223.81882 229.01932 239.28882 247.74112 250.99292 259.31373 269.06916 272.32096 280.64176 287.14537 292.34587 305.86717 312.37077 317.57127 324.07487 329.27537 339.54484 347.82978 353.6878 358.3025 361.5543 366.16899 372.03898 377.23948 383.4203 387.97523 393.83326">]DementsprechenderhaltenwirmitdemneuenBasisvektor</tspan></text>
<text xml:space="preserve" transform="matrix(1 0 -0 1 0 841.89)" font-size="11.95517" font-family="CMBX12" font-weight="bold"><tspan y="-85.585" x="402.148">A</tspan></text>
<text xml:space="preserve" transform="matrix(1 0 -0 1 0 841.89)" font-size="7.97011" font-family="CMSY8" font-style="italic"><tspan y="-83.725" x="412.305">B</tspan></text>
<text xml:space="preserve" transform="matrix(1 0 -0 1 0 841.89)" font-size="7.97011" font-family="CMR8"><tspan y="-83.725" x="418.056 421.34767 425.57978">(1)</tspan></text>
<text xml:space="preserve" transform="matrix(1 0 -0 1 0 841.89)" font-size="11.95517" font-family="LMRoman12"><tspan y="-85.585" x="433.142 439.00004 442.25184 450.6324 457.136 462.3365 468.8401 477.80647 486.0914 491.94944 496.56413 499.81593 504.4306 514.18606 520.04409 524.599 529.15396 532.40579">alsneueBasismatrix</tspan></text>
<text xml:space="preserve" transform="matrix(1 0 -0 1 0 841.89)" font-size="11.95517" font-family="CMBX12" font-weight="bold"><tspan y="-71.139" x="56.693">A</tspan></text>
<text xml:space="preserve" transform="matrix(1 0 -0 1 0 841.89)" font-size="7.97011" font-family="CMSY8" font-style="italic"><tspan y="-69.345" x="66.849">B</tspan></text>
<text xml:space="preserve" transform="matrix(1 0 -0 1 0 841.89)" font-size="11.95517" font-family="CMR12"><tspan y="-71.139" x="76.42">=</tspan></text>
<text xml:space="preserve" transform="matrix(1 0 -0 1 0 841.89)" font-size="11.95517" font-family="CMEX10"><tspan y="-80.822" x="88.845">&#xfffd;</tspan></text>
<text xml:space="preserve" transform="matrix(1 0 -0 1 0 841.89)" font-size="11.95517" font-family="CMBX12" font-weight="bold"><tspan y="-71.139" x="94.325">A</tspan></text>
<text xml:space="preserve" transform="matrix(1 0 -0 1 0 841.89)" font-size="7.97011" font-family="CMSY8" font-style="italic"><tspan y="-69.279" x="104.481">B</tspan></text>
<text xml:space="preserve" transform="matrix(1 0 -0 1 0 841.89)" font-size="7.97011" font-family="CMR8"><tspan y="-69.279" x="110.233 113.52466 117.75679">(1)</tspan></text>
<text xml:space="preserve" transform="matrix(1 0 -0 1 0 841.89)" font-size="11.95517" font-family="CMMI12" font-style="italic"><tspan y="-71.139" x="121.551">,</tspan></text>
<text xml:space="preserve" transform="matrix(1 0 -0 1 0 841.89)" font-size="11.95517" font-family="CMBX12" font-weight="bold"><tspan y="-71.139" x="126.796">A</tspan></text>
<text xml:space="preserve" transform="matrix(1 0 -0 1 0 841.89)" font-size="7.97011" font-family="CMSY8" font-style="italic"><tspan y="-69.279" x="136.952">B</tspan></text>
<text xml:space="preserve" transform="matrix(1 0 -0 1 0 841.89)" font-size="7.97011" font-family="CMR8"><tspan y="-69.279" x="142.703 145.99466 150.22679">(3)</tspan></text>
<text xml:space="preserve" transform="matrix(1 0 -0 1 0 841.89)" font-size="11.95517" font-family="CMMI12" font-style="italic"><tspan y="-71.139" x="154.022">,</tspan></text>
<text xml:space="preserve" transform="matrix(1 0 -0 1 0 841.89)" font-size="11.95517" font-family="CMBX12" font-weight="bold"><tspan y="-71.139" x="159.266">A</tspan></text>
<text xml:space="preserve" transform="matrix(1 0 -0 1 0 841.89)" font-size="7.97011" font-family="CMSY8" font-style="italic"><tspan y="-69.279" x="169.423">B</tspan></text>
<text xml:space="preserve" transform="matrix(1 0 -0 1 0 841.89)" font-size="7.97011" font-family="CMR8"><tspan y="-69.279" x="175.174 178.46566 182.69779">(5)</tspan></text>
<text xml:space="preserve" transform="matrix(1 0 -0 1 0 841.89)" font-size="11.95517" font-family="CMEX10"><tspan y="-80.822" x="186.493">&#xfffd;</tspan></text>
<text xml:space="preserve" transform="matrix(1 0 -0 1 0 841.89)" font-size="11.95517" font-family="LMRoman12"><tspan y="-71.139" x="191.973 198.24947 207.02457 213.52819 219.38622 222.63802 228.49605 237.36678 243.87039 249.72843 254.92893 264.44523 269.64573 274.20066 280.0587 283.3105 289.8141 297.39369 302.00837 305.26017 310.14985 319.65419 326.15779 329.40959 337.63475 347.39018 350.64198 358.2096 364.7132 369.9137 382.6938 389.1974 394.3979 400.9015 406.102 415.6183 424.39338 427.64518 432.53486 438.71568 443.2706 447.168 455.45295 461.31098 465.92567 469.17747 473.79216 479.65019 484.85069 491.0315 495.57447 501.4325">.AnalogdazuergibtsichdiemitdemneuenNicht-Basisvektor</tspan></text>
<text xml:space="preserve" transform="matrix(1 0 -0 1 0 841.89)" font-size="11.95517" font-family="CMBX12" font-weight="bold"><tspan y="-71.139" x="508.992">A</tspan></text>
<text xml:space="preserve" transform="matrix(1 0 -0 1 0 841.89)" font-size="7.97011" font-family="CMSY8" font-style="italic"><tspan y="-69.279" x="519.149">N</tspan></text>
<text xml:space="preserve" transform="matrix(1 0 -0 1 0 841.89)" font-size="7.97011" font-family="CMR8"><tspan y="-69.279" x="527.264 530.5556 534.7877">(4)</tspan></text>
<text xml:space="preserve" transform="matrix(1 0 -0 1 0 841.89)" font-size="11.95517" font-family="LMRoman12"><tspan y="-56.693" x="56.693 62.551034 65.80284 74.31492 80.81853 86.01903 92.522647 101.62053 110.39562 113.64743 118.537097 124.71792 129.27285 133.17023 141.45516 147.31319 151.92789 155.17969 159.79439 169.5498 175.40784 179.96276 184.51767 187.76947">alsneueNicht-Basismatrix</tspan></text>
<text xml:space="preserve" transform="matrix(1 0 -0 1 0 841.89)" font-size="11.95517" font-family="CMBX12" font-weight="bold"><tspan y="-56.693" x="197.843">A</tspan></text>
<text xml:space="preserve" transform="matrix(1 0 -0 1 0 841.89)" font-size="7.97011" font-family="CMSY8" font-style="italic"><tspan y="-54.9" x="207.999">N</tspan></text>
<text xml:space="preserve" transform="matrix(1 0 -0 1 0 841.89)" font-size="11.95517" font-family="CMR12"><tspan y="-56.693" x="219.933">=</tspan></text>
<text xml:space="preserve" transform="matrix(1 0 -0 1 0 841.89)" font-size="11.95517" font-family="CMEX10"><tspan y="-66.377" x="232.359">&#xfffd;</tspan></text>
<text xml:space="preserve" transform="matrix(1 0 -0 1 0 841.89)" font-size="11.95517" font-family="CMBX12" font-weight="bold"><tspan y="-56.693" x="237.838">A</tspan></text>
<text xml:space="preserve" transform="matrix(1 0 -0 1 0 841.89)" font-size="7.97011" font-family="CMSY8" font-style="italic"><tspan y="-54.833" x="247.995">N</tspan></text>
<text xml:space="preserve" transform="matrix(1 0 -0 1 0 841.89)" font-size="7.97011" font-family="CMR8"><tspan y="-54.833" x="256.11 259.40165 263.63377">(2)</tspan></text>
<text xml:space="preserve" transform="matrix(1 0 -0 1 0 841.89)" font-size="11.95517" font-family="CMMI12" font-style="italic"><tspan y="-56.693" x="267.429">,</tspan></text>
<text xml:space="preserve" transform="matrix(1 0 -0 1 0 841.89)" font-size="11.95517" font-family="CMBX12" font-weight="bold"><tspan y="-56.693" x="272.673">A</tspan></text>
<text xml:space="preserve" transform="matrix(1 0 -0 1 0 841.89)" font-size="7.97011" font-family="CMSY8" font-style="italic"><tspan y="-54.833" x="282.829">N</tspan></text>
<text xml:space="preserve" transform="matrix(1 0 -0 1 0 841.89)" font-size="7.97011" font-family="CMR8"><tspan y="-54.833" x="290.944 294.23567 298.46778">(4)</tspan></text>
<text xml:space="preserve" transform="matrix(1 0 -0 1 0 841.89)" font-size="11.95517" font-family="CMEX10"><tspan y="-66.377" x="302.263">&#xfffd;</tspan></text>
<text xml:space="preserve" transform="matrix(1 0 -0 1 0 841.89)" font-size="11.95517" font-family="LMRoman12"><tspan y="-56.693" x="307.743">.</tspan></text>
<text xml:space="preserve" transform="matrix(1 0 -0 1 0 841.89)" font-size="11.95517" font-family="LMRoman12"><tspan y="-20.306" x="294.711">7</tspan></text>
</g>
</svg>
