<?xml version="1.0" encoding="UTF-8" standalone="no"?>
<!DOCTYPE svg PUBLIC "-//W3C//DTD SVG 1.1//EN" "http://www.w3.org/Graphics/SVG/1.1/DTD/svg11.dtd">
<svg xmlns="http://www.w3.org/2000/svg" xmlns:xlink="http://www.w3.org/1999/xlink" version="1.1" width="595.276pt" height="841.89pt" viewBox="0 0 595.276 841.89">
<g enable-background="new">
<text xml:space="preserve" transform="matrix(1 0 -0 1 0 841.89)" font-size="24.78705" font-family="LMRoman17"><tspan y="-754.965" x="56.693 71.31736 82.69462 95.98048 106.04402 112.24078 118.437549 128.50109 140.54759 151.92484 161.98838 170.76299 180.82653 190.89006 197.08683 206.50589 219.17208 231.81348 238.01024">Tabellenverzeichnis</tspan></text>
<text xml:space="preserve" transform="matrix(1 0 -0 1 0 841.89)" font-size="11.95517" font-family="LMRoman12"><tspan y="-715.6" x="74.252 80.11003 83.36184 101.17504 108.99372 114.85175 119.40667 122.65848 128.51651 134.37454 143.46048 150.94441 156.80245 163.30606 166.55786 171.75836 177.6164 188.91403 198.14342 207.3728 216.60219 225.83158 235.06096 244.29035 253.51973 262.74916 271.97856 281.20796 290.43736 299.66676 308.89616 318.12556 327.35496 336.58436 345.81376 355.04316 364.27256 373.50196 382.73136 391.96076 401.19017 410.41957 419.64897 428.87837 438.10777 447.33717 456.56657 465.79597 475.02537 484.25477 493.48417 502.71357 511.94297">1.1VorlageTableau....................................</tspan></text>
<text xml:space="preserve" transform="matrix(1 0 -0 1 0 841.89)" font-size="11.95517" font-family="LMRoman12"><tspan y="-715.6" x="532.73">6</tspan></text>
<text xml:space="preserve" transform="matrix(1 0 -0 1 0 841.89)" font-size="11.95517" font-family="LMRoman12"><tspan y="-701.154" x="74.252 80.11003 83.36184 101.17504 109.950138 116.45375 120.02834 125.886379 132.38999 138.24802 142.86272 147.41764 153.27567 159.77928 163.03108 168.23159 174.08962 184.50258 194.258 197.5098 205.9621 211.1626 217.66622 220.91802 226.77605 231.39075 236.00545 239.25725 245.11528 250.31578 258.7681 267.05305 272.91108 277.52577 280.77757 285.39225 288.64405 294.50209 299.11677 305.62037 312.12397 327.35487 336.58427 345.81367 355.04307 364.27247 373.50187 382.73127 391.96067 401.19007 410.41947 419.64888 428.87828 438.10768 447.33708 456.56648 465.79588 475.02528 484.25468 493.48408 502.71348 511.94288">1.2Anfangstableaumitzul&#x00e4;ssigerBasisl&#x00f6;sung.....................</tspan></text>
<text xml:space="preserve" transform="matrix(1 0 -0 1 0 841.89)" font-size="11.95517" font-family="LMRoman12"><tspan y="-701.154" x="532.73">7</tspan></text>
<text xml:space="preserve" transform="matrix(1 0 -0 1 0 841.89)" font-size="11.95517" font-family="LMRoman12"><tspan y="-686.708" x="74.252 80.11003 83.36184 101.17504 108.67094 114.52897 121.03258 124.284389 129.48488 135.34291 145.73197 155.48738 158.73918 167.19149 172.39199 178.8956 182.1474 188.00543 192.62014 197.23484 200.48664 206.34467 211.54517 220.00943 228.29436 234.15239 238.76709 242.01889 246.63359 249.88539 255.74343 260.35813 266.86174 273.36534 290.42536 299.65476 308.88417 318.11357 327.34297 336.57237 345.80177 355.03117 364.26057 373.48997 382.71937 391.94877 401.17817 410.40757 419.63697 428.86637 438.09577 447.32518 456.55458 465.78398 475.01338 484.24278 493.47218 502.70158 511.93098">1.3Tableaumitzul&#x00e4;ssigerBasisl&#x00f6;sung.........................</tspan></text>
<text xml:space="preserve" transform="matrix(1 0 -0 1 0 841.89)" font-size="11.95517" font-family="LMRoman12"><tspan y="-686.708" x="532.73">8</tspan></text>
<text xml:space="preserve" transform="matrix(1 0 -0 1 0 841.89)" font-size="11.95517" font-family="LMRoman12"><tspan y="-672.263" x="74.252 80.11003 83.36184 101.17504 108.67094 114.52897 121.03258 124.284389 129.48488 135.34291 145.73197 155.48738 158.73918 167.19149 173.04952 179.55313 184.10805 187.35985 197.11527 202.9733 206.2251 211.4256 219.88986 228.17479 234.03282 238.64752 241.89933 246.51403 249.76583 255.62386 260.23857 266.74217 273.24577 290.4373 299.6667 308.8961 318.1255 327.3549 336.5843 345.8137 355.0431 364.2725 373.5019 382.7313 391.9607 401.1901 410.4195 419.6489 428.8783 438.1077 447.3371 456.5665 465.7959 475.0253 484.2547 493.4841 502.7135 511.9429">1.4TableaumitoptimalerBasisl&#x00f6;sung.........................</tspan></text>
<text xml:space="preserve" transform="matrix(1 0 -0 1 0 841.89)" font-size="11.95517" font-family="LMRoman12"><tspan y="-672.263" x="532.73">8</tspan></text>
<text xml:space="preserve" transform="matrix(1 0 -0 1 0 841.89)" font-size="11.95517" font-family="LMRoman12"><tspan y="-657.817" x="74.252 80.11003 83.36184 101.17504 109.950138 116.45375 120.02834 125.886379 132.38999 138.24802 142.86272 147.41764 153.27567 159.77928 163.03108 168.23159 174.08962 184.50258 194.258 197.5098 205.9621 212.46572 218.96933 224.16983 230.67345 233.92525 239.78328 244.39798 249.01268 252.26448 258.12254 263.32304 271.77537 280.0603 285.91835 290.53303 293.78483 298.3995 301.6513 307.50935 312.12403 318.62763 325.13124 336.5843 345.8137 355.0431 364.2725 373.5019 382.7313 391.9607 401.1901 410.4195 419.6489 428.8783 438.1077 447.3371 456.5665 465.7959 475.0253 484.2547 493.4841 502.7135 511.9429">1.5Anfangstableaumitunzul&#x00e4;ssigerBasisl&#x00f6;sung....................</tspan></text>
<text xml:space="preserve" transform="matrix(1 0 -0 1 0 841.89)" font-size="11.95517" font-family="LMRoman12"><tspan y="-657.817" x="526.877 532.73507">11</tspan></text>
<text xml:space="preserve" transform="matrix(1 0 -0 1 0 841.89)" font-size="11.95517" font-family="LMRoman12"><tspan y="-643.371" x="74.252 80.11003 83.36184 101.17504 108.67094 114.52897 121.03258 124.284389 129.48488 135.34291 145.73197 152.23558 158.09362 162.98328 173.37233 179.87595 185.07645 198.74121 203.94171 208.49663 213.11133 217.66625 222.86675 233.26775 241.22989 244.48169 250.35167 256.20973 260.7527 265.36738 270.2451 276.7487 281.30363 284.55543 289.11036 293.66529 300.81449 307.31809 313.8217 319.0222 325.5258 328.7776 334.63563 339.2503 343.865 347.1168 352.97483 362.07273 370.35768 376.2157 380.83039 384.08219 388.69688 391.94868 397.8067 402.4214 408.925 415.4286 428.8662 438.0956 447.325 456.5544 465.7838 475.0132 484.2426 493.47203 502.70143 511.93083">1.6TableaunachdemerstenPivotschritt,unzul&#x00e4;ssigeBasisl&#x00f6;sung..........</tspan></text>
<text xml:space="preserve" transform="matrix(1 0 -0 1 0 841.89)" font-size="11.95517" font-family="LMRoman12"><tspan y="-643.371" x="526.877 532.73507">12</tspan></text>
<text xml:space="preserve" transform="matrix(1 0 -0 1 0 841.89)" font-size="11.95517" font-family="LMRoman12"><tspan y="-628.925" x="74.252 80.11003 83.36184 101.17504 108.67094 114.52897 121.03258 124.284389 129.48488 135.34291 145.73197 155.48738 158.73918 167.19149 173.04952 179.55313 184.10805 187.35985 197.11527 202.9733 206.2251 211.4256 219.88986 224.44478 229.64528 236.1489 239.4007 245.25873 249.87343 254.48813 257.73994 263.59797 268.79847 275.30207 283.7544 292.03935 297.89738 302.51206 305.76387 310.37855 313.63035 319.48838 324.10307 330.60667 337.11027 355.05497 364.28437 373.51377 382.74317 391.9606 401.19 410.4194 419.6488 428.8782 438.1076 447.337 456.5664 465.7958 475.0252 484.2546 493.484 502.7134 511.9428">1.7Tableaumitoptimaler(zul&#x00e4;ssigen)Basisl&#x00f6;sung..................</tspan></text>
<text xml:space="preserve" transform="matrix(1 0 -0 1 0 841.89)" font-size="11.95517" font-family="LMRoman12"><tspan y="-628.925" x="526.877 532.73507">12</tspan></text>
<text xml:space="preserve" transform="matrix(1 0 -0 1 0 841.89)" font-size="11.95517" font-family="LMRoman12"><tspan y="-20.306" x="291.785 297.64305">24</tspan></text>
</g>
</svg>
