<?xml version="1.0" encoding="UTF-8" standalone="no"?>
<!DOCTYPE svg PUBLIC "-//W3C//DTD SVG 1.1//EN" "http://www.w3.org/Graphics/SVG/1.1/DTD/svg11.dtd">
<svg xmlns="http://www.w3.org/2000/svg" xmlns:xlink="http://www.w3.org/1999/xlink" version="1.1" width="595.276pt" height="841.89pt" viewBox="0 0 595.276 841.89">
<g enable-background="new">
<text xml:space="preserve" transform="matrix(1 0 -0 1 0 841.89)" font-size="17.21544" font-family="LMRoman17"><tspan y="-773.242" x="56.693 64.59489 68.89875 84.68531 95.94421 102.93368 109.11402 115.20829 119.51215 132.80248 145.6624 154.45949 163.25658 176.34032 183.32979 187.63365 196.43074 203.42021 214.71355 221.70302 230.5001 234.80397 242.70586 248.8862 255.06655 259.3704 267.27229 274.26176 288.2407 297.03779 303.13206 311.03395 317.1282 323.22248 332.01957 339.92146 346.1018 350.40568">1.3Bestimmungeinerzul&#x00e4;ssigenStartbasis</tspan></text>
<text xml:space="preserve" transform="matrix(1 0 -0 1 0 841.89)" font-size="11.95517" font-family="LMRoman12"><tspan y="-746.957" x="56.693 60.913179 72.210819 80.98591 87.48952 92.10421 96.98192 103.485538 109.98915 113.24096 117.795879 127.14481 133.00286 136.25466 146.90671 153.41033 159.26836 166.09476 171.29526 182.5929 191.0452 194.297 203.64594 208.84644 215.35005 224.69899 232.51767 237.71817 242.27309 247.47359 250.72539 257.229 260.8036 266.66163 271.52738 277.7082 284.2118 290.7154 301.3555 307.21354 313.71714 319.57518 324.77568 331.27928 337.1373 346.89274 356.64817 361.84867 368.35227 376.41004 382.91365 388.77168 393.38636 402.79508 407.40977 410.66157 415.53929 426.8369 432.69496 439.19856 448.60728 455.11088 460.31138 474.86085 481.36445 485.91938 491.7774 496.33235 500.88728 505.4422 511.30024 517.80386 521.05569 526.25619 532.1142">InAbschnitt1.2habenwirzurVereinfachungangenommen,dasssichausdemStarttableau</tspan><tspan y="-732.511" x="56.693 63.196615 69.700229 79.45564 82.70745 87.26237 91.81728 97.017787 100.26959 106.77321 112.63124 121.227008 126.427509 129.6793 140.22377 145.42427 151.92789 155.17969 161.03772 165.65242 170.26712 173.51892 179.37696 184.57746 193.17322 201.45815 207.31618 211.93088 215.18268 219.79738 226.301 232.80461 239.30823 245.48905 254.08481 259.94285 266.44645 269.69825 274.89875 279.51344 284.71394 295.25837 298.51017 304.3682 308.98289 313.59757 318.1525 325.44514 329.6653 343.4616 352.2367 355.4885 358.7403 364.59834 369.79884 379.55427 384.75477 388.00657 394.51017 399.71067 410.25514 413.50694 418.1216 426.7174 433.221 436.4728 441.6733 446.288 451.4885 460.0843 468.54856 475.05216 479.66685 485.52488 491.3829 497.8865 503.74455 508.35923 514.86288 521.36648 527.87008 534.0509">unmittelbareinzul&#x00e4;ssigerBasispunktablesenl&#x00e4;sst.ImAllgemeinenistdieserAusgangspunkt</tspan><tspan y="-718.065" x="56.693 63.196615 66.44842 71.326129 77.50695 86.174449 92.03248 97.23298 103.09101 108.29151 115.12987 120.33037 126.833988 134.21031 142.98542 156.86536 162.06586 165.31766 171.82128 181.15827 186.35877 190.91368 195.52838 200.0833 209.40833 214.60883 221.11244 224.36425 230.22228 234.83698 239.45168 242.70348 248.56151 257.88655 266.17149 272.0295 276.6442 279.896 284.51069 287.76249 293.6205 298.2352 304.7388 311.2424 321.2369 326.4374 337.06556 343.89195 349.09245 353.70713 358.26206 361.51387 371.2693 381.02473 386.22523 392.72883 400.1171 404.73179 409.6095 416.1131 419.3649 422.6167 429.1203 434.3208 438.87574 449.50389 457.95619 461.20799 469.88746 473.13926 487.03117 493.70213 499.56016 502.81196 508.66999 513.8705 520.3741 526.8777 532.0782">nichtgegeben.Umeineerstezul&#x00e4;ssigeBasisl&#x00f6;sungzubestimmen,schildernwirimFolgenden</tspan><tspan y="-703.619" x="56.693 63.196615 69.05465 77.0407 84.84743 90.04793 94.602848 98.17744 104.03547 110.53908 115.093997 120.294498 130.16947 136.67308 141.87358 149.8716 156.37522 162.87883 168.73686 171.98867 177.18917 187.06414 193.56775 196.81955 206.57497 213.07859 216.33039 221.53089 227.7117 231.60909 240.38419 243.63599 249.49402 255.35205 259.90699 263.15879 267.7137 274.21733 283.66194 290.16554 294.7802 301.40339 310.34587 313.59767 318.79817 323.41285 331.9847 342.7085 347.909 352.46394 358.96754 365.14836 371.65196 380.23576 383.48756 388.10224 396.04048 402.54408 408.4021 412.63426 420.76377 425.96427 432.46788 438.97148 442.22328 448.0813 454.70448 462.83399 468.0345 474.5381 484.41307 490.91667 496.7747 504.77268 508.02449 511.27629 517.7799 522.9804 528.83847 533.3934">dasVerfahrendesdualenSimplex-Algorithmus.DieseMethodeistnotwendig,wenndaslineare</tspan><tspan y="-689.174" x="56.693 65.80284 72.30646 76.861377 80.11318 89.8686 93.12041 98.32091 102.875827 109.37944 115.88306 121.74109 126.35578 132.85939 137.4143 143.27234 149.77596 153.02776 158.22826 172.01258 178.51619 181.76799 186.65766 192.83849 201.4223 204.6741 215.2066 219.83325 225.03376 228.28556 234.78917 239.98967 248.57349 254.7543 260.61235 267.11595 272.97398 279.47758 282.72938 287.34407 292.23374 298.73735 303.93785 314.47035 321.1413 326.99934 331.55427 345.3386 349.89353 354.5082 357.76 362.9605 369.4641 378.70545 387.88703 391.13883 396.33934 399.59114 404.4808 410.64967 417.15327 423.65687 429.5149 434.7154 445.2479 451.10594 454.35774 460.21577 468.81153 474.68153 480.53956 485.09449 491.59809 497.45613 503.95973 510.46333 515.6638 526.1963 529.4481 534.0628">OptimierungsproblemnichtinseinerkanonischenForm(sieheGleichungen1.8)vorhandenist</tspan><tspan y="-674.728" x="56.693 63.196615 69.700229 80.10123 86.29401 92.79762 101.24992 105.86462 110.75428 116.9351 125.05266 130.25316 138.70546 141.95726 152.37023 158.87384 162.12564 167.32614 171.94084 181.05069 187.5543 197.30973 200.88433 206.74236 211.29727 220.74185 227.24547 233.1035 241.5558 244.8076 249.4223 253.97722 261.13838">undnurschwerindieseumformbarist.[</tspan></text>
<text xml:space="preserve" transform="matrix(1 0 -0 1 0 841.89)" font-size="11.95517" font-family="LMRoman12" font-weight="bold"><tspan y="-674.728" x="264.393">?</tspan></text>
<text xml:space="preserve" transform="matrix(1 0 -0 1 0 841.89)" font-size="11.95517" font-family="LMRoman12"><tspan y="-674.728" x="270.744 277.8932 285.0424 291.546 300.01026 307.82893 313.02943 317.58436 323.44239 329.94599 334.56068 339.42643 345.93003 351.78807 358.29167 361.54347 364.79527 369.67298 375.8538 382.3574 388.861 398.61643 405.12004 410.32054 418.84455 426.65126 431.85176 436.40669 439.98127 445.8393 452.3429 456.89784 462.09834 468.60194 477.114 482.3145 486.86946 493.05027 496.30207 502.1601 506.71504 511.91554 522.3285 530.7808 534.03268">]ZurVeranschaulichungdesVerfahrenserkl&#x00e4;renwir</tspan><tspan y="-660.282" x="56.693 63.196615 69.05465 77.56673 85.37345 91.23148 95.7864 101.64443 106.84493 113.34854 118.54904 128.95005 134.80808 148.46088 152.03548 157.89351 161.14531 167.00334 172.20384 178.70746 185.21108 190.41158 200.81258 209.0975 214.298 217.5498 222.1645 228.66812 231.91992 237.12042 240.37223">dasVorgehenamfolgendenBeispiel:</tspan><tspan y="-634.996" x="212.437 223.16078 229.01882 235.19963 238.45143 248.20685 251.45865 256.65916 261.21409">Maximiere</tspan></text>
<text xml:space="preserve" transform="matrix(1 0 -0 1 0 841.89)" font-size="11.95517" font-family="CMMI12" font-style="italic"><tspan y="-634.996" x="268.404">f</tspan></text>
<text xml:space="preserve" transform="matrix(1 0 -0 1 0 841.89)" font-size="11.95517" font-family="CMR12"><tspan y="-634.996" x="275.45">(</tspan></text>
<text xml:space="preserve" transform="matrix(1 0 -0 1 0 841.89)" font-size="11.95517" font-family="CMMI12" font-style="italic"><tspan y="-634.996" x="280.003">x</tspan></text>
<text xml:space="preserve" transform="matrix(1 0 -0 1 0 841.89)" font-size="7.97011" font-family="CMR8"><tspan y="-633.202" x="286.655">1</tspan></text>
<text xml:space="preserve" transform="matrix(1 0 -0 1 0 841.89)" font-size="11.95517" font-family="CMMI12" font-style="italic"><tspan y="-634.996" x="291.387 296.62336">,x</tspan></text>
<text xml:space="preserve" transform="matrix(1 0 -0 1 0 841.89)" font-size="7.97011" font-family="CMR8"><tspan y="-633.202" x="303.283">2</tspan></text>
<text xml:space="preserve" transform="matrix(1 0 -0 1 0 841.89)" font-size="11.95517" font-family="CMR12"><tspan y="-634.996" x="308.015 315.88154">)=</tspan></text>
<text xml:space="preserve" transform="matrix(1 0 -0 1 0 841.89)" font-size="11.95517" font-family="CMSY10" font-style="italic"><tspan y="-634.996" x="328.314">&#x2212;</tspan></text>
<text xml:space="preserve" transform="matrix(1 0 -0 1 0 841.89)" font-size="11.95517" font-family="CMMI12" font-style="italic"><tspan y="-634.996" x="337.613">x</tspan></text>
<text xml:space="preserve" transform="matrix(1 0 -0 1 0 841.89)" font-size="7.97011" font-family="CMR8"><tspan y="-633.202" x="344.265">1</tspan></text>
<text xml:space="preserve" transform="matrix(1 0 -0 1 0 841.89)" font-size="11.95517" font-family="CMSY10" font-style="italic"><tspan y="-634.996" x="351.654">&#x2212;</tspan></text>
<text xml:space="preserve" transform="matrix(1 0 -0 1 0 841.89)" font-size="11.95517" font-family="CMR12"><tspan y="-634.996" x="363.609">2</tspan></text>
<text xml:space="preserve" transform="matrix(1 0 -0 1 0 841.89)" font-size="11.95517" font-family="CMMI12" font-style="italic"><tspan y="-634.996" x="371.454">x</tspan></text>
<text xml:space="preserve" transform="matrix(1 0 -0 1 0 841.89)" font-size="7.97011" font-family="CMR8"><tspan y="-633.202" x="378.106">2</tspan></text>
<text xml:space="preserve" transform="matrix(1 0 -0 1 0 841.89)" font-size="11.95517" font-family="LMRoman12"><tspan y="-634.996" x="502.668 507.22294 513.081 516.3328 522.19088 528.0489 534.05038">(1.20a)</tspan></text>
<text xml:space="preserve" transform="matrix(1 0 -0 1 0 841.89)" font-size="11.95517" font-family="CMMI12" font-style="italic"><tspan y="-610.058" x="217.162">x</tspan></text>
<text xml:space="preserve" transform="matrix(1 0 -0 1 0 841.89)" font-size="7.97011" font-family="CMR8"><tspan y="-608.265" x="223.814">1</tspan></text>
<text xml:space="preserve" transform="matrix(1 0 -0 1 0 841.89)" font-size="11.95517" font-family="CMR12"><tspan y="-610.058" x="238.606">+</tspan></text>
<text xml:space="preserve" transform="matrix(1 0 -0 1 0 841.89)" font-size="11.95517" font-family="CMMI12" font-style="italic"><tspan y="-610.058" x="257.77">x</tspan></text>
<text xml:space="preserve" transform="matrix(1 0 -0 1 0 841.89)" font-size="7.97011" font-family="CMR8"><tspan y="-608.265" x="264.422">2</tspan></text>
<text xml:space="preserve" transform="matrix(1 0 -0 1 0 841.89)" font-size="11.95517" font-family="CMSY10" font-style="italic"><tspan y="-610.058" x="279.117">&#x2265;</tspan></text>
<text xml:space="preserve" transform="matrix(1 0 -0 1 0 841.89)" font-size="11.95517" font-family="CMR12"><tspan y="-610.058" x="298.378">3</tspan></text>
<text xml:space="preserve" transform="matrix(1 0 -0 1 0 841.89)" font-size="11.95517" font-family="CMMI12" font-style="italic"><tspan y="-595.612" x="257.77">x</tspan></text>
<text xml:space="preserve" transform="matrix(1 0 -0 1 0 841.89)" font-size="7.97011" font-family="CMR8"><tspan y="-593.819" x="264.422">2</tspan></text>
<text xml:space="preserve" transform="matrix(1 0 -0 1 0 841.89)" font-size="11.95517" font-family="CMSY10" font-style="italic"><tspan y="-595.612" x="279.117">&#x2265;</tspan></text>
<text xml:space="preserve" transform="matrix(1 0 -0 1 0 841.89)" font-size="11.95517" font-family="CMR12"><tspan y="-595.612" x="298.378">2</tspan></text>
<text xml:space="preserve" transform="matrix(1 0 -0 1 0 841.89)" font-size="11.95517" font-family="CMSY10" font-style="italic"><tspan y="-581.166" x="207.863">&#x2212;</tspan></text>
<text xml:space="preserve" transform="matrix(1 0 -0 1 0 841.89)" font-size="11.95517" font-family="CMMI12" font-style="italic"><tspan y="-581.166" x="217.162">x</tspan></text>
<text xml:space="preserve" transform="matrix(1 0 -0 1 0 841.89)" font-size="7.97011" font-family="CMR8"><tspan y="-579.373" x="223.814">1</tspan></text>
<text xml:space="preserve" transform="matrix(1 0 -0 1 0 841.89)" font-size="11.95517" font-family="CMR12"><tspan y="-581.166" x="238.606">+</tspan></text>
<text xml:space="preserve" transform="matrix(1 0 -0 1 0 841.89)" font-size="11.95517" font-family="CMMI12" font-style="italic"><tspan y="-581.166" x="257.77">x</tspan></text>
<text xml:space="preserve" transform="matrix(1 0 -0 1 0 841.89)" font-size="7.97011" font-family="CMR8"><tspan y="-579.373" x="264.422">2</tspan></text>
<text xml:space="preserve" transform="matrix(1 0 -0 1 0 841.89)" font-size="11.95517" font-family="CMSY10" font-style="italic"><tspan y="-581.166" x="279.117">&#x2264;</tspan></text>
<text xml:space="preserve" transform="matrix(1 0 -0 1 0 841.89)" font-size="11.95517" font-family="CMR12"><tspan y="-581.166" x="298.378">3</tspan></text>
<text xml:space="preserve" transform="matrix(1 0 -0 1 0 841.89)" font-size="11.95517" font-family="CMMI12" font-style="italic"><tspan y="-566.721" x="217.162">x</tspan></text>
<text xml:space="preserve" transform="matrix(1 0 -0 1 0 841.89)" font-size="7.97011" font-family="CMR8"><tspan y="-564.927" x="223.814">1</tspan></text>
<text xml:space="preserve" transform="matrix(1 0 -0 1 0 841.89)" font-size="11.95517" font-family="CMSY10" font-style="italic"><tspan y="-566.721" x="238.509">&#x2212;</tspan></text>
<text xml:space="preserve" transform="matrix(1 0 -0 1 0 841.89)" font-size="11.95517" font-family="CMMI12" font-style="italic"><tspan y="-566.721" x="257.77">x</tspan></text>
<text xml:space="preserve" transform="matrix(1 0 -0 1 0 841.89)" font-size="7.97011" font-family="CMR8"><tspan y="-564.927" x="264.422">2</tspan></text>
<text xml:space="preserve" transform="matrix(1 0 -0 1 0 841.89)" font-size="11.95517" font-family="CMSY10" font-style="italic"><tspan y="-566.721" x="279.117">&#x2264;</tspan></text>
<text xml:space="preserve" transform="matrix(1 0 -0 1 0 841.89)" font-size="11.95517" font-family="CMR12"><tspan y="-566.721" x="298.378">3</tspan></text>
<text xml:space="preserve" transform="matrix(1 0 -0 1 0 841.89)" font-size="11.95517" font-family="LMRoman12"><tspan y="-566.721" x="314.194 320.6976 327.2012">und</tspan></text>
<text xml:space="preserve" transform="matrix(1 0 -0 1 0 841.89)" font-size="11.95517" font-family="CMMI12" font-style="italic"><tspan y="-566.721" x="337.606">x</tspan></text>
<text xml:space="preserve" transform="matrix(1 0 -0 1 0 841.89)" font-size="7.97011" font-family="CMR8"><tspan y="-564.927" x="344.258">1</tspan></text>
<text xml:space="preserve" transform="matrix(1 0 -0 1 0 841.89)" font-size="11.95517" font-family="CMMI12" font-style="italic"><tspan y="-566.721" x="348.991 354.22737">,x</tspan></text>
<text xml:space="preserve" transform="matrix(1 0 -0 1 0 841.89)" font-size="7.97011" font-family="CMR8"><tspan y="-564.927" x="360.887">2</tspan></text>
<text xml:space="preserve" transform="matrix(1 0 -0 1 0 841.89)" font-size="11.95517" font-family="CMSY10" font-style="italic"><tspan y="-566.721" x="368.94">&#x2265;</tspan></text>
<text xml:space="preserve" transform="matrix(1 0 -0 1 0 841.89)" font-size="11.95517" font-family="CMR12"><tspan y="-566.721" x="381.56">0</tspan></text>
<text xml:space="preserve" transform="matrix(1 0 -0 1 0 841.89)" font-size="11.95517" font-family="LMRoman12"><tspan y="-588.29" x="502.164 506.71894 512.57699 515.8288 521.6868 527.54489 534.04849">(1.20b)</tspan><tspan y="-547.157" x="59.403 68.34547 71.597278 79.49964 82.75145 86.00326 92.50687 97.70737 103.5654 108.120319 116.03464 125.14448 131.64809 136.203 139.4548 149.21022 152.46202 157.66252 162.21744 168.72106 175.22467 181.0827 185.6974 191.55544 198.05905 201.63365 207.49169 213.34972 220.17612 228.09044 232.70514 237.26006 243.11809 252.8735 262.30616 269.56297 275.421 281.9246 289.2531 295.7567 300.9572 313.41453 320.73109 325.93159 332.43519 336.9901 343.4937 349.9973 354.887 364.09248 370.59608 378.55824 381.81004 388.31364 391.8882 398.3918 404.89543 409.45036 415.95396 422.45756 431.01747 434.26927 443.4867 449.9903 453.2421 461.15644 471.88023 477.73826 482.29319 488.79679 493.99729 503.75273 509.61076 514.16567 517.4175 522.03219 526.90988 533.41348">DielineareOptimierungsaufgabestammtausdemLehrbuch&#x00bb;Einf&#x00fc;hrungindieMathematische</tspan><tspan y="-532.711" x="60.595 69.70484 76.20845 80.76337 84.015178 93.77059 97.0224 102.2229 106.77782 113.28143 119.78505 125.64308 137.99279 142.5477 150.83263 156.03313 159.28493 163.89963 170.40325 173.65505 178.85555 186.00473 191.86277 195.11457 200.9726 204.2244 210.08243 218.54669">Optimierung&#x00ab;(Beispiel3.4.1)[</tspan></text>
<text xml:space="preserve" transform="matrix(1 0 -0 1 0 841.89)" font-size="11.95517" font-family="LMRoman12" font-weight="bold"><tspan y="-532.711" x="221.781">?</tspan></text>
<text xml:space="preserve" transform="matrix(1 0 -0 1 0 841.89)" font-size="11.95517" font-family="LMRoman12"><tspan y="-532.711" x="228.132">]</tspan><tspan y="-518.265" x="56.693 65.63547 72.139087 76.694 81.57171 91.94879 98.45241 101.704219 110.790149 118.75229 122.0041 128.18492 134.68854 137.94034 144.44396 150.94757 157.45119 163.9548 173.68631 179.55629 185.41432 195.77947 202.28308 207.17275 213.67636 216.92816 223.43178 229.9354 233.51 239.04523 244.90326 249.45818 252.70998 258.56803 265.07164 268.32344 273.52394 283.88905 292.34135 295.59315 300.14808 310.5371 317.0407 320.2925 329.37846 332.63026 335.88206 342.38566 347.58616 353.44419 357.9991 367.0731 376.18293 382.68653 387.24147 390.49327 400.2487 403.5005 408.701 413.25593 419.75953 426.26313 432.12117 436.73585 442.59388 449.09748 452.67207 458.5301 464.38813 471.2145 480.30046 484.91514 494.6586 499.21354 503.76847 509.6265 516.1301 520.7448 524.3194 530.1774 534.73239">DurchdieEinbindungvonSchlupfvariablenwirddielineareOptimierungsaufgabesotransfor-</tspan><tspan y="-503.819" x="56.693 66.44842 69.700229 74.90073 79.45564 84.01056 91.82924 98.332859 104.19089 108.80558 117.9991 124.502719 127.754528 137.5219 146.30895 152.47782 157.67832 167.43373 172.63423 175.88603 181.08654 187.27931 191.83423 197.03473 203.53835 213.29376 219.1518 223.70671 228.26163 231.51343">miert,dassdieKoe&#xfb03;zientenmatrix</tspan></text>
<text xml:space="preserve" transform="matrix(1 0 -0 1 0 841.89)" font-size="11.95517" font-family="CMBX12" font-weight="bold"><tspan y="-503.819" x="242.25">A</tspan></text>
<text xml:space="preserve" transform="matrix(1 0 -0 1 0 841.89)" font-size="11.95517" font-family="LMRoman12"><tspan y="-503.819" x="256.979 263.4826 269.9862 281.05668 287.56028 292.76078 301.89454 309.04374 312.29554 317.49604 320.74784 324.32243 330.82603 337.32963 343.51045 348.06538 351.31718 357.1752 363.6788 368.2935 374.15153 380.32038 385.52088 395.2763 400.4768 403.7286 408.9291 415.1219 419.67683 424.87733 435.94779 443.7545 448.955 455.1358 459.69075 465.54878">undderZielfunktionskoe&#xfb03;zientenVektor</tspan></text>
<text xml:space="preserve" transform="matrix(1 0 -0 1 0 841.89)" font-size="11.95517" font-family="CMBX12" font-weight="bold"><tspan y="-503.819" x="474.662">c</tspan></text>
<text xml:space="preserve" transform="matrix(1 0 -0 1 0 841.89)" font-size="11.95517" font-family="LMRoman12"><tspan y="-503.819" x="485.213 491.7166 496.9171 507.98759 511.23939 522.32186 528.82546 534.02597">deninder</tspan><tspan y="-489.374" x="56.693 65.87457 69.12638 74.32688 77.57869 82.4564 88.637218 95.14082 101.64444 111.44768 117.30571 120.55752 126.41555 136.23076 143.05716 148.25766 152.87236 157.76203 164.26564 168.82056 172.07236 177.27286 184.08731 189.28781 195.79143 200.99193 211.45272 217.95633 223.81436 228.05844 236.18796 241.38846 247.89208 254.39569 257.6475 263.50553 268.70603 279.15486 288.25273 292.80766 296.05946 300.61439 305.81489 310.3698 313.6216 318.8221 329.28288 335.78648 341.6445 346.53419 353.03779 358.88386 364.74189 374.4973 383.92997 388.4849 395.68193 402.18553 407.38603 415.8981 424.99598 430.854 437.3576 443.21565 448.41615 451.66795 456.22288 462.0809 466.63584 471.83634 478.0291 483.88716 489.08766 495.26847 499.8234 505.68144">Gleichung1.10beschriebenennotwendigenKriteriennachkommt,derKapazit&#x00e4;tenvektor</tspan></text>
<text xml:space="preserve" transform="matrix(1 0 -0 1 0 841.89)" font-size="11.95517" font-family="CMBX12" font-weight="bold"><tspan y="-489.374" x="514.145">b</tspan></text>
<text xml:space="preserve" transform="matrix(1 0 -0 1 0 841.89)" font-size="11.95517" font-family="LMRoman12"><tspan y="-489.374" x="525.576 531.434 534.68588">al-</tspan><tspan y="-474.928" x="56.693 59.94481 65.14531 69.700229 76.20384 79.45565 85.95926 91.81729 100.32937 106.83298 112.03348 117.89151 123.74954 128.30446 131.55626 137.41429 146.51218 157.57071 162.77121 167.32613 171.88105 180.97893 186.17943 192.36026 196.91518 203.4188 209.27683 212.52863 220.98093 225.53585 230.15055 233.40235 238.60285 245.10646 254.20435 263.38594 266.63774 271.83824 275.09004 279.9797 286.14857 292.65217 299.15577 308.9112 314.76924 318.02104 323.87907 329.7371 334.29203 341.44123">lerdingsnegativeWerteenth&#x00e4;lt(sieheGleichung1.21).[</tspan></text>
<text xml:space="preserve" transform="matrix(1 0 -0 1 0 841.89)" font-size="11.95517" font-family="LMRoman12" font-weight="bold"><tspan y="-474.928" x="344.673">?</tspan></text>
<text xml:space="preserve" transform="matrix(1 0 -0 1 0 841.89)" font-size="11.95517" font-family="LMRoman12"><tspan y="-474.928" x="351.024">]</tspan><tspan y="-460.482" x="56.693 65.63547 70.83597 79.28827 88.06336 94.56697 97.81878 103.67681 110.18042 117.6524 124.156009 129.3565 137.88056 144.38417 150.88779 156.74582 159.99762 165.19812 175.59912 182.10274 185.35454 195.10996 201.61357 204.86537 210.06587 216.24669 220.14408 227.9508 233.1513 237.70623 241.28083 247.13886 253.64247 258.1974 263.3979 269.9015 278.41358 286.86589 290.11769 294.6726 305.0736 308.3254 318.7264 325.23 330.4305 344.09529 352.87037 356.12217 361.9802 367.83824 372.39317 375.64497 380.1999 386.7035 396.13615 402.63975 411.15184 420.90727 429.35957 432.61137 437.81187 444.31547 449.51597 454.0709 459.92893 465.12944 470.98747 476.18797 483.01435 488.21485 494.71846">DerAblaufdesdualenSimplex-VerfahrenswirdindemAlgorithmus2wiedergegeben.</tspan><tspan y="-435.196" x="93.927 104.65079 110.50882 116.689647 119.94145 129.69687 132.94867 138.14917 142.70409">Maximiere</tspan></text>
<text xml:space="preserve" transform="matrix(1 0 -0 1 0 841.89)" font-size="11.95517" font-family="CMMI12" font-style="italic"><tspan y="-435.196" x="149.894">f</tspan></text>
<text xml:space="preserve" transform="matrix(1 0 -0 1 0 841.89)" font-size="11.95517" font-family="CMR12"><tspan y="-435.196" x="156.94">(</tspan></text>
<text xml:space="preserve" transform="matrix(1 0 -0 1 0 841.89)" font-size="11.95517" font-family="CMMI12" font-style="italic"><tspan y="-435.196" x="161.493">x</tspan></text>
<text xml:space="preserve" transform="matrix(1 0 -0 1 0 841.89)" font-size="7.97011" font-family="CMR8"><tspan y="-433.402" x="168.145">1</tspan></text>
<text xml:space="preserve" transform="matrix(1 0 -0 1 0 841.89)" font-size="11.95517" font-family="CMMI12" font-style="italic"><tspan y="-435.196" x="172.877 178.11336">,x</tspan></text>
<text xml:space="preserve" transform="matrix(1 0 -0 1 0 841.89)" font-size="7.97011" font-family="CMR8"><tspan y="-433.402" x="184.773">2</tspan></text>
<text xml:space="preserve" transform="matrix(1 0 -0 1 0 841.89)" font-size="11.95517" font-family="CMMI12" font-style="italic"><tspan y="-435.196" x="189.505 194.74137">,x</tspan></text>
<text xml:space="preserve" transform="matrix(1 0 -0 1 0 841.89)" font-size="7.97011" font-family="CMR8"><tspan y="-433.402" x="201.402">3</tspan></text>
<text xml:space="preserve" transform="matrix(1 0 -0 1 0 841.89)" font-size="11.95517" font-family="CMMI12" font-style="italic"><tspan y="-435.196" x="206.134 211.37036">,x</tspan></text>
<text xml:space="preserve" transform="matrix(1 0 -0 1 0 841.89)" font-size="7.97011" font-family="CMR8"><tspan y="-433.402" x="218.03">4</tspan></text>
<text xml:space="preserve" transform="matrix(1 0 -0 1 0 841.89)" font-size="11.95517" font-family="CMMI12" font-style="italic"><tspan y="-435.196" x="222.763 227.99936">,x</tspan></text>
<text xml:space="preserve" transform="matrix(1 0 -0 1 0 841.89)" font-size="7.97011" font-family="CMR8"><tspan y="-433.402" x="234.659">5</tspan></text>
<text xml:space="preserve" transform="matrix(1 0 -0 1 0 841.89)" font-size="11.95517" font-family="CMMI12" font-style="italic"><tspan y="-435.196" x="239.391 244.62737">,x</tspan></text>
<text xml:space="preserve" transform="matrix(1 0 -0 1 0 841.89)" font-size="7.97011" font-family="CMR8"><tspan y="-433.402" x="251.287">6</tspan></text>
<text xml:space="preserve" transform="matrix(1 0 -0 1 0 841.89)" font-size="11.95517" font-family="CMR12"><tspan y="-435.196" x="256.02 263.8865">)=</tspan></text>
<text xml:space="preserve" transform="matrix(1 0 -0 1 0 841.89)" font-size="11.95517" font-family="CMSY10" font-style="italic"><tspan y="-435.196" x="276.318">&#x2212;</tspan></text>
<text xml:space="preserve" transform="matrix(1 0 -0 1 0 841.89)" font-size="11.95517" font-family="CMMI12" font-style="italic"><tspan y="-435.196" x="285.617">x</tspan></text>
<text xml:space="preserve" transform="matrix(1 0 -0 1 0 841.89)" font-size="7.97011" font-family="CMR8"><tspan y="-433.402" x="292.269">1</tspan></text>
<text xml:space="preserve" transform="matrix(1 0 -0 1 0 841.89)" font-size="11.95517" font-family="CMSY10" font-style="italic"><tspan y="-435.196" x="299.658">&#x2212;</tspan></text>
<text xml:space="preserve" transform="matrix(1 0 -0 1 0 841.89)" font-size="11.95517" font-family="CMR12"><tspan y="-435.196" x="311.613">2</tspan></text>
<text xml:space="preserve" transform="matrix(1 0 -0 1 0 841.89)" font-size="11.95517" font-family="CMMI12" font-style="italic"><tspan y="-435.196" x="319.459">x</tspan></text>
<text xml:space="preserve" transform="matrix(1 0 -0 1 0 841.89)" font-size="7.97011" font-family="CMR8"><tspan y="-433.402" x="326.111">2</tspan></text>
<text xml:space="preserve" transform="matrix(1 0 -0 1 0 841.89)" font-size="11.95517" font-family="CMR12"><tspan y="-435.196" x="333.5 345.2639">+0</tspan></text>
<text xml:space="preserve" transform="matrix(1 0 -0 1 0 841.89)" font-size="11.95517" font-family="CMMI12" font-style="italic"><tspan y="-435.196" x="353.106">x</tspan></text>
<text xml:space="preserve" transform="matrix(1 0 -0 1 0 841.89)" font-size="7.97011" font-family="CMR8"><tspan y="-433.402" x="359.758">3</tspan></text>
<text xml:space="preserve" transform="matrix(1 0 -0 1 0 841.89)" font-size="11.95517" font-family="CMR12"><tspan y="-435.196" x="367.147 378.9109">+0</tspan></text>
<text xml:space="preserve" transform="matrix(1 0 -0 1 0 841.89)" font-size="11.95517" font-family="CMMI12" font-style="italic"><tspan y="-435.196" x="386.754">x</tspan></text>
<text xml:space="preserve" transform="matrix(1 0 -0 1 0 841.89)" font-size="7.97011" font-family="CMR8"><tspan y="-433.402" x="393.406">4</tspan></text>
<text xml:space="preserve" transform="matrix(1 0 -0 1 0 841.89)" font-size="11.95517" font-family="CMR12"><tspan y="-435.196" x="400.795 412.5589">+0</tspan></text>
<text xml:space="preserve" transform="matrix(1 0 -0 1 0 841.89)" font-size="11.95517" font-family="CMMI12" font-style="italic"><tspan y="-435.196" x="420.402">x</tspan></text>
<text xml:space="preserve" transform="matrix(1 0 -0 1 0 841.89)" font-size="7.97011" font-family="CMR8"><tspan y="-433.402" x="427.054">5</tspan></text>
<text xml:space="preserve" transform="matrix(1 0 -0 1 0 841.89)" font-size="11.95517" font-family="CMR12"><tspan y="-435.196" x="434.443 446.20689">+0</tspan></text>
<text xml:space="preserve" transform="matrix(1 0 -0 1 0 841.89)" font-size="11.95517" font-family="CMMI12" font-style="italic"><tspan y="-435.196" x="454.05">x</tspan></text>
<text xml:space="preserve" transform="matrix(1 0 -0 1 0 841.89)" font-size="7.97011" font-family="CMR8"><tspan y="-433.402" x="460.702">6</tspan></text>
<text xml:space="preserve" transform="matrix(1 0 -0 1 0 841.89)" font-size="11.95517" font-family="LMRoman12"><tspan y="-435.196" x="502.668 507.22294 513.081 516.3328 522.19088 528.0489 534.05038">(1.21a)</tspan></text>
<text xml:space="preserve" transform="matrix(1 0 -0 1 0 841.89)" font-size="11.95517" font-family="CMSY10" font-style="italic"><tspan y="-410.258" x="71.015">&#x2212;</tspan></text>
<text xml:space="preserve" transform="matrix(1 0 -0 1 0 841.89)" font-size="11.95517" font-family="CMMI12" font-style="italic"><tspan y="-410.258" x="80.314">x</tspan></text>
<text xml:space="preserve" transform="matrix(1 0 -0 1 0 841.89)" font-size="7.97011" font-family="CMR8"><tspan y="-408.465" x="86.966">1</tspan></text>
<text xml:space="preserve" transform="matrix(1 0 -0 1 0 841.89)" font-size="11.95517" font-family="CMSY10" font-style="italic"><tspan y="-410.258" x="101.661">&#x2212;</tspan></text>
<text xml:space="preserve" transform="matrix(1 0 -0 1 0 841.89)" font-size="11.95517" font-family="CMMI12" font-style="italic"><tspan y="-410.258" x="120.922">x</tspan></text>
<text xml:space="preserve" transform="matrix(1 0 -0 1 0 841.89)" font-size="7.97011" font-family="CMR8"><tspan y="-408.465" x="127.574">2</tspan></text>
<text xml:space="preserve" transform="matrix(1 0 -0 1 0 841.89)" font-size="11.95517" font-family="CMR12"><tspan y="-410.258" x="142.269">+</tspan></text>
<text xml:space="preserve" transform="matrix(1 0 -0 1 0 841.89)" font-size="11.95517" font-family="CMMI12" font-style="italic"><tspan y="-410.258" x="161.336">x</tspan></text>
<text xml:space="preserve" transform="matrix(1 0 -0 1 0 841.89)" font-size="7.97011" font-family="CMR8"><tspan y="-408.465" x="167.989">3</tspan></text>
<text xml:space="preserve" transform="matrix(1 0 -0 1 0 841.89)" font-size="11.95517" font-family="CMR12"><tspan y="-410.258" x="303.927">=</tspan></text>
<text xml:space="preserve" transform="matrix(1 0 -0 1 0 841.89)" font-size="11.95517" font-family="CMSY10" font-style="italic"><tspan y="-410.258" x="322.994">&#x2212;</tspan></text>
<text xml:space="preserve" transform="matrix(1 0 -0 1 0 841.89)" font-size="11.95517" font-family="CMR12"><tspan y="-410.258" x="332.292">3</tspan></text>
<text xml:space="preserve" transform="matrix(1 0 -0 1 0 841.89)" font-size="11.95517" font-family="CMSY10" font-style="italic"><tspan y="-395.812" x="101.661">&#x2212;</tspan></text>
<text xml:space="preserve" transform="matrix(1 0 -0 1 0 841.89)" font-size="11.95517" font-family="CMMI12" font-style="italic"><tspan y="-395.812" x="120.922">x</tspan></text>
<text xml:space="preserve" transform="matrix(1 0 -0 1 0 841.89)" font-size="7.97011" font-family="CMR8"><tspan y="-394.019" x="127.574">2</tspan></text>
<text xml:space="preserve" transform="matrix(1 0 -0 1 0 841.89)" font-size="11.95517" font-family="CMR12"><tspan y="-395.812" x="182.684">+</tspan></text>
<text xml:space="preserve" transform="matrix(1 0 -0 1 0 841.89)" font-size="11.95517" font-family="CMMI12" font-style="italic"><tspan y="-395.812" x="201.751">x</tspan></text>
<text xml:space="preserve" transform="matrix(1 0 -0 1 0 841.89)" font-size="7.97011" font-family="CMR8"><tspan y="-394.019" x="208.403">4</tspan></text>
<text xml:space="preserve" transform="matrix(1 0 -0 1 0 841.89)" font-size="11.95517" font-family="CMR12"><tspan y="-395.812" x="303.927">=</tspan></text>
<text xml:space="preserve" transform="matrix(1 0 -0 1 0 841.89)" font-size="11.95517" font-family="CMSY10" font-style="italic"><tspan y="-395.812" x="322.994">&#x2212;</tspan></text>
<text xml:space="preserve" transform="matrix(1 0 -0 1 0 841.89)" font-size="11.95517" font-family="CMR12"><tspan y="-395.812" x="332.292">2</tspan></text>
<text xml:space="preserve" transform="matrix(1 0 -0 1 0 841.89)" font-size="11.95517" font-family="CMSY10" font-style="italic"><tspan y="-381.366" x="71.015">&#x2212;</tspan></text>
<text xml:space="preserve" transform="matrix(1 0 -0 1 0 841.89)" font-size="11.95517" font-family="CMMI12" font-style="italic"><tspan y="-381.366" x="80.314">x</tspan></text>
<text xml:space="preserve" transform="matrix(1 0 -0 1 0 841.89)" font-size="7.97011" font-family="CMR8"><tspan y="-379.573" x="86.966">1</tspan></text>
<text xml:space="preserve" transform="matrix(1 0 -0 1 0 841.89)" font-size="11.95517" font-family="CMR12"><tspan y="-381.366" x="101.758">+</tspan></text>
<text xml:space="preserve" transform="matrix(1 0 -0 1 0 841.89)" font-size="11.95517" font-family="CMMI12" font-style="italic"><tspan y="-381.366" x="120.922">x</tspan></text>
<text xml:space="preserve" transform="matrix(1 0 -0 1 0 841.89)" font-size="7.97011" font-family="CMR8"><tspan y="-379.573" x="127.574">2</tspan></text>
<text xml:space="preserve" transform="matrix(1 0 -0 1 0 841.89)" font-size="11.95517" font-family="CMR12"><tspan y="-381.366" x="223.098">+</tspan></text>
<text xml:space="preserve" transform="matrix(1 0 -0 1 0 841.89)" font-size="11.95517" font-family="CMMI12" font-style="italic"><tspan y="-381.366" x="242.165">x</tspan></text>
<text xml:space="preserve" transform="matrix(1 0 -0 1 0 841.89)" font-size="7.97011" font-family="CMR8"><tspan y="-379.573" x="248.817">5</tspan></text>
<text xml:space="preserve" transform="matrix(1 0 -0 1 0 841.89)" font-size="11.95517" font-family="CMR12"><tspan y="-381.366" x="303.927 332.29664">=3</tspan></text>
<text xml:space="preserve" transform="matrix(1 0 -0 1 0 841.89)" font-size="11.95517" font-family="CMMI12" font-style="italic"><tspan y="-366.921" x="80.314">x</tspan></text>
<text xml:space="preserve" transform="matrix(1 0 -0 1 0 841.89)" font-size="7.97011" font-family="CMR8"><tspan y="-365.127" x="86.966">1</tspan></text>
<text xml:space="preserve" transform="matrix(1 0 -0 1 0 841.89)" font-size="11.95517" font-family="CMSY10" font-style="italic"><tspan y="-366.921" x="101.661">&#x2212;</tspan></text>
<text xml:space="preserve" transform="matrix(1 0 -0 1 0 841.89)" font-size="11.95517" font-family="CMMI12" font-style="italic"><tspan y="-366.921" x="120.922">x</tspan></text>
<text xml:space="preserve" transform="matrix(1 0 -0 1 0 841.89)" font-size="7.97011" font-family="CMR8"><tspan y="-365.127" x="127.574">2</tspan></text>
<text xml:space="preserve" transform="matrix(1 0 -0 1 0 841.89)" font-size="11.95517" font-family="CMR12"><tspan y="-366.921" x="263.512">+</tspan></text>
<text xml:space="preserve" transform="matrix(1 0 -0 1 0 841.89)" font-size="11.95517" font-family="CMMI12" font-style="italic"><tspan y="-366.921" x="282.58">x</tspan></text>
<text xml:space="preserve" transform="matrix(1 0 -0 1 0 841.89)" font-size="7.97011" font-family="CMR8"><tspan y="-365.127" x="289.232">6</tspan></text>
<text xml:space="preserve" transform="matrix(1 0 -0 1 0 841.89)" font-size="11.95517" font-family="CMR12"><tspan y="-366.921" x="303.927 332.29664">=3</tspan></text>
<text xml:space="preserve" transform="matrix(1 0 -0 1 0 841.89)" font-size="11.95517" font-family="LMRoman12"><tspan y="-366.921" x="348.108 354.6116 361.1152">und</tspan></text>
<text xml:space="preserve" transform="matrix(1 0 -0 1 0 841.89)" font-size="11.95517" font-family="CMMI12" font-style="italic"><tspan y="-366.921" x="371.521">x</tspan></text>
<text xml:space="preserve" transform="matrix(1 0 -0 1 0 841.89)" font-size="7.97011" font-family="CMR8"><tspan y="-365.127" x="378.173">1</tspan></text>
<text xml:space="preserve" transform="matrix(1 0 -0 1 0 841.89)" font-size="11.95517" font-family="CMMI12" font-style="italic"><tspan y="-366.921" x="382.905 388.14137">,x</tspan></text>
<text xml:space="preserve" transform="matrix(1 0 -0 1 0 841.89)" font-size="7.97011" font-family="CMR8"><tspan y="-365.127" x="394.801">2</tspan></text>
<text xml:space="preserve" transform="matrix(1 0 -0 1 0 841.89)" font-size="11.95517" font-family="CMMI12" font-style="italic"><tspan y="-366.921" x="399.534 404.77037">,x</tspan></text>
<text xml:space="preserve" transform="matrix(1 0 -0 1 0 841.89)" font-size="7.97011" font-family="CMR8"><tspan y="-365.127" x="411.43">3</tspan></text>
<text xml:space="preserve" transform="matrix(1 0 -0 1 0 841.89)" font-size="11.95517" font-family="CMMI12" font-style="italic"><tspan y="-366.921" x="416.162 421.39836">,x</tspan></text>
<text xml:space="preserve" transform="matrix(1 0 -0 1 0 841.89)" font-size="7.97011" font-family="CMR8"><tspan y="-365.127" x="428.059">4</tspan></text>
<text xml:space="preserve" transform="matrix(1 0 -0 1 0 841.89)" font-size="11.95517" font-family="CMMI12" font-style="italic"><tspan y="-366.921" x="432.791 438.02735">,x</tspan></text>
<text xml:space="preserve" transform="matrix(1 0 -0 1 0 841.89)" font-size="7.97011" font-family="CMR8"><tspan y="-365.127" x="444.687">5</tspan></text>
<text xml:space="preserve" transform="matrix(1 0 -0 1 0 841.89)" font-size="11.95517" font-family="CMMI12" font-style="italic"><tspan y="-366.921" x="449.419 454.65538">,x</tspan></text>
<text xml:space="preserve" transform="matrix(1 0 -0 1 0 841.89)" font-size="7.97011" font-family="CMR8"><tspan y="-365.127" x="461.316">6</tspan></text>
<text xml:space="preserve" transform="matrix(1 0 -0 1 0 841.89)" font-size="11.95517" font-family="CMSY10" font-style="italic"><tspan y="-366.921" x="469.369">&#x2265;</tspan></text>
<text xml:space="preserve" transform="matrix(1 0 -0 1 0 841.89)" font-size="11.95517" font-family="CMR12"><tspan y="-366.921" x="481.988">0</tspan></text>
<text xml:space="preserve" transform="matrix(1 0 -0 1 0 841.89)" font-size="11.95517" font-family="LMRoman12"><tspan y="-388.49" x="502.164 506.71894 512.57699 515.8288 521.6868 527.54489 534.04849">(1.21b)</tspan><tspan y="-341.147" x="56.693 65.468097 71.326129 76.203838 82.70744 89.21106 94.41156 109.31966 115.82327 121.02377 130.74332 139.8412 145.69924 152.20285 158.06089 163.26139 166.51319 171.0681 176.92613 181.48105 186.68155 192.87433 198.7204 203.9209 210.10172 214.65663 220.51467">NachdemderKapazit&#x00e4;tenvektor</tspan></text>
<text xml:space="preserve" transform="matrix(1 0 -0 1 0 841.89)" font-size="11.95517" font-family="CMBX12" font-weight="bold"><tspan y="-341.147" x="230.209">b</tspan></text>
<text xml:space="preserve" transform="matrix(1 0 -0 1 0 841.89)" font-size="11.95517" font-family="LMRoman12"><tspan y="-341.147" x="242.845 249.34862 254.54912 260.40718 266.2652 270.82014 274.07194 279.92997 290.28315 298.2453 301.4971 306.6976 316.45304 321.65354 327.8463 332.40126 342.75444 348.61247 355.11607 358.69065 366.82017 372.02067 375.27247 379.88716 384.44209 392.85853 397.4732 400.725 407.2286 418.8849 425.3885 428.6403 439.00544 447.78053 451.03233 455.922 462.4256 468.9292 474.1297 479.98774 485.84577 490.4007 493.6525 499.8333 503.0851 507.64006 513.4981 518.05307 522.6677 529.4822 534.6827">negativeElementeaufweist,sinddieNichnegativit&#x00e4;tsbe-</tspan><tspan y="-326.701" x="56.693 63.196615 66.44842 72.95203 78.81006 85.313678 91.81729 97.67532 102.875827 114.902729 120.76076 124.012569 135.39389 141.8975 145.1493 150.02703 156.20786 166.27411 171.47461 176.02953 179.60413 186.10774 189.35955 192.61135 202.68955 209.19316 215.69678 227.72368 234.2273 239.4278 249.506 257.97029 264.47389 269.08857 274.9466 280.80464 287.30824 293.16627 297.78096 304.28456 310.14259 314.75727 318.00907 322.62376 329.12736 335.63096 342.13456 348.31538">dingungen1.4nichterf&#x00fc;lltundderAusgangsbasispunkt</tspan></text>
<text xml:space="preserve" transform="matrix(1 0 -0 1 0 841.89)" font-size="11.95517" font-family="CMBX12" font-weight="bold"><tspan y="-326.701" x="358.357">x</tspan></text>
<text xml:space="preserve" transform="matrix(1 0 -0 1 0 841.89)" font-size="7.97011" font-family="CMR8"><tspan y="-331.039" x="365.455 368.74665 372.97877">(0)</tspan></text>
<text xml:space="preserve" transform="matrix(1 0 -0 1 0 841.89)" font-size="11.95517" font-family="CMR12"><tspan y="-326.701" x="382.856 398.03904 402.59397">=(0</tspan></text>
<text xml:space="preserve" transform="matrix(1 0 -0 1 0 841.89)" font-size="11.95517" font-family="CMMI12" font-style="italic"><tspan y="-326.701" x="408.448">,</tspan></text>
<text xml:space="preserve" transform="matrix(1 0 -0 1 0 841.89)" font-size="11.95517" font-family="CMR12"><tspan y="-326.701" x="413.692">0</tspan></text>
<text xml:space="preserve" transform="matrix(1 0 -0 1 0 841.89)" font-size="11.95517" font-family="CMMI12" font-style="italic"><tspan y="-326.701" x="419.545">,</tspan></text>
<text xml:space="preserve" transform="matrix(1 0 -0 1 0 841.89)" font-size="11.95517" font-family="CMSY10" font-style="italic"><tspan y="-326.701" x="424.789">&#x2212;</tspan></text>
<text xml:space="preserve" transform="matrix(1 0 -0 1 0 841.89)" font-size="11.95517" font-family="CMR12"><tspan y="-326.701" x="434.088">3</tspan></text>
<text xml:space="preserve" transform="matrix(1 0 -0 1 0 841.89)" font-size="11.95517" font-family="CMMI12" font-style="italic"><tspan y="-326.701" x="439.941">,</tspan></text>
<text xml:space="preserve" transform="matrix(1 0 -0 1 0 841.89)" font-size="11.95517" font-family="CMSY10" font-style="italic"><tspan y="-326.701" x="445.185">&#x2212;</tspan></text>
<text xml:space="preserve" transform="matrix(1 0 -0 1 0 841.89)" font-size="11.95517" font-family="CMR12"><tspan y="-326.701" x="454.484">2</tspan></text>
<text xml:space="preserve" transform="matrix(1 0 -0 1 0 841.89)" font-size="11.95517" font-family="CMMI12" font-style="italic"><tspan y="-326.701" x="460.336">,</tspan></text>
<text xml:space="preserve" transform="matrix(1 0 -0 1 0 841.89)" font-size="11.95517" font-family="CMR12"><tspan y="-326.701" x="465.581">3</tspan></text>
<text xml:space="preserve" transform="matrix(1 0 -0 1 0 841.89)" font-size="11.95517" font-family="CMMI12" font-style="italic"><tspan y="-326.701" x="471.434">,</tspan></text>
<text xml:space="preserve" transform="matrix(1 0 -0 1 0 841.89)" font-size="11.95517" font-family="CMR12"><tspan y="-326.701" x="476.678 482.53605">3)</tspan></text>
<text xml:space="preserve" transform="matrix(1 0 -0 1 0 841.89)" font-size="11.95517" font-family="LMRoman12"><tspan y="-326.701" x="492.607 495.8588 500.47349 510.5517 515.1664 521.0244 530.77987 534.0317">istsomit</tspan><tspan y="-312.255" x="56.693 63.196615 66.44842 71.326129 77.50695 86.915668 92.116168 98.61978 101.87159 107.72962 112.344318 116.95901 120.210819 130.92266 135.47757 140.09227 143.34407 148.54457 155.04819 165.11444 171.78543 178.28905 184.79267 190.97348 195.5284 198.7802 204.63823 215.99565 224.28058 230.13861 234.75331 238.00511 242.61981 245.87162 252.05243 257.25294 261.8676 268.37123 274.87483 280.73286 287.88206 294.38566 297.63746 303.49549 308.69599 313.31068 317.92536 321.17716 327.0352 331.59013 339.70768 348.65016 351.90196 361.9682 368.4718 374.9754 380.1759 386.6795 389.9313 395.78935 400.40403 405.0187 408.2705 414.12855 424.1948 432.47975 438.33778 442.95246 446.20426 450.81895 454.07075 459.92878 464.54347 471.04707 477.55067">nichtzul&#x00e4;ssig(sieheFunktionBasisloesungZulaessig).Dieunzul&#x00e4;ssigeBasisl&#x00f6;sung</tspan></text>
<text xml:space="preserve" transform="matrix(1 0 -0 1 0 841.89)" font-size="11.95517" font-family="CMBX12" font-weight="bold"><tspan y="-312.255" x="488.264">x</tspan></text>
<text xml:space="preserve" transform="matrix(1 0 -0 1 0 841.89)" font-size="7.97011" font-family="CMR8"><tspan y="-316.594" x="495.363 498.65467 502.88679">(0)</tspan></text>
<text xml:space="preserve" transform="matrix(1 0 -0 1 0 841.89)" font-size="11.95517" font-family="LMRoman12"><tspan y="-312.255" x="511.544 514.79586 519.4105 528.8193 532.0711">istin</tspan><tspan y="-297.809" x="56.693 63.196615 68.39711 81.739078 89.70122 96.204837 102.70845 108.889278">demPunkt</tspan></text>
<text xml:space="preserve" transform="matrix(1 0 -0 1 0 841.89)" font-size="11.95517" font-family="CMBX12" font-weight="bold"><tspan y="-297.809" x="117.04">A</tspan></text>
<text xml:space="preserve" transform="matrix(1 0 -0 1 0 841.89)" font-size="11.95517" font-family="LMRoman12"><tspan y="-297.809" x="130.788 137.29161 142.49211 150.63358 159.57605 165.43408 169.989 174.6037 179.15862 184.35912 187.61092 190.86272 197.36634 203.86995 213.31453 219.17256 222.42436 231.8809 237.73894 244.24256 250.10059 255.30109 261.8047 265.0565 268.3083 274.8119 280.0124 284.56733 291.40568 299.3678 307.581 310.8328 315.44749 323.58897 330.09257 333.34437 337.8993 343.0998 349.2806 357.4221 362.6226 367.17753 373.04753 378.24803 384.75163 390.93244 397.43605 403.29408 407.849 414.67539 421.179 427.03703 431.6517 439.8649 444.47959 447.73139 452.6091 462.69926 469.20286 472.45466 481.2417 487.7453 494.2489 499.4494 505.953 509.2048 515.06289 519.67758 524.29226 527.54409 533.4021">derDarstellung1.3abgebildet.Esistdirekterkennbar,dasssichdieunzul&#x00e4;ssige</tspan><tspan y="-283.363" x="56.693 64.977939 70.83597 75.45066 78.70247 83.31716 86.56897 92.427 97.041698 103.5453 110.04892">Basisl&#x00f6;sung</tspan></text>
<text xml:space="preserve" transform="matrix(1 0 -0 1 0 841.89)" font-size="11.95517" font-family="CMBX12" font-weight="bold"><tspan y="-283.363" x="119.807">x</tspan></text>
<text xml:space="preserve" transform="matrix(1 0 -0 1 0 841.89)" font-size="7.97011" font-family="CMR8"><tspan y="-287.702" x="126.905 130.19666 134.42879">(0)</tspan></text>
<text xml:space="preserve" transform="matrix(1 0 -0 1 0 841.89)" font-size="11.95517" font-family="LMRoman12"><tspan y="-283.363" x="142.126 148.62963 151.88143 156.75914 162.93997 171.38033 177.23836 183.74198 191.22592 197.72954 202.93004 216.58284 222.45282 228.31085 234.49169 240.33776 245.53826 251.71907 256.91957 267.32057 274.9719 280.82994 284.08174 289.9278 295.1283 301.6319 306.8324">nichtaufdemkonvexenPolyeder</tspan></text>
<text xml:space="preserve" transform="matrix(1 0 -0 1 0 841.89)" font-size="11.95517" font-family="CMBX12" font-weight="bold"><tspan y="-283.363" x="315.277">X</tspan></text>
<text xml:space="preserve" transform="matrix(1 0 -0 1 0 841.89)" font-size="11.95517" font-family="LMRoman12"><tspan y="-283.363" x="329.335 335.8386 341.0391 349.49143 354.69194 361.19554 364.44734 370.30537 374.92005 379.53474 382.78654 388.64457 393.84507 404.24607 412.531 418.38905 423.00373 426.25553 430.8702 434.122 439.98005 444.59474 451.09834 457.60194 463.45997 468.66047 479.0734 485.89979 491.10029 497.60389 504.10749 510.61109 515.8116 520.3665">derzul&#x00e4;ssigenBasisl&#x00f6;sungenbe&#xfb01;ndet.</tspan></text>
<text xml:space="preserve" transform="matrix(1 0 -0 1 0 841.89)" font-size="11.95517" font-family="CMMI12" font-style="italic"><tspan y="-256.605" x="229.004">x</tspan></text>
<text xml:space="preserve" transform="matrix(1 0 -0 1 0 841.89)" font-size="7.97011" font-family="CMR8"><tspan y="-254.812" x="235.656">1</tspan></text>
<text xml:space="preserve" transform="matrix(1 0 -0 1 0 841.89)" font-size="11.95517" font-family="CMMI12" font-style="italic"><tspan y="-256.605" x="255.694">x</tspan></text>
<text xml:space="preserve" transform="matrix(1 0 -0 1 0 841.89)" font-size="7.97011" font-family="CMR8"><tspan y="-254.812" x="262.346">2</tspan></text>
<text xml:space="preserve" transform="matrix(1 0 -0 1 0 841.89)" font-size="11.95517" font-family="CMMI12" font-style="italic"><tspan y="-256.605" x="279.947">x</tspan></text>
<text xml:space="preserve" transform="matrix(1 0 -0 1 0 841.89)" font-size="7.97011" font-family="CMR8"><tspan y="-254.812" x="286.599">3</tspan></text>
<text xml:space="preserve" transform="matrix(1 0 -0 1 0 841.89)" font-size="11.95517" font-family="CMMI12" font-style="italic"><tspan y="-256.605" x="303.287">x</tspan></text>
<text xml:space="preserve" transform="matrix(1 0 -0 1 0 841.89)" font-size="7.97011" font-family="CMR8"><tspan y="-254.812" x="309.939">4</tspan></text>
<text xml:space="preserve" transform="matrix(1 0 -0 1 0 841.89)" font-size="11.95517" font-family="CMMI12" font-style="italic"><tspan y="-256.605" x="326.627">x</tspan></text>
<text xml:space="preserve" transform="matrix(1 0 -0 1 0 841.89)" font-size="7.97011" font-family="CMR8"><tspan y="-254.812" x="333.279">5</tspan></text>
<text xml:space="preserve" transform="matrix(1 0 -0 1 0 841.89)" font-size="11.95517" font-family="CMMI12" font-style="italic"><tspan y="-256.605" x="349.966">x</tspan></text>
<text xml:space="preserve" transform="matrix(1 0 -0 1 0 841.89)" font-size="7.97011" font-family="CMR8"><tspan y="-254.812" x="356.618">6</tspan></text>
<path transform="matrix(1,0,0,-1,367.527,590.052)" stroke-width=".398" stroke-linecap="butt" stroke-miterlimit="10" stroke-linejoin="miter" fill="none" stroke="#000000" d="M 0 0 L 0 15.89 "/>
<text xml:space="preserve" transform="matrix(1 0 -0 1 0 841.89)" font-size="11.95517" font-family="CMMI12" font-style="italic"><tspan y="-256.605" x="380.388">b</tspan></text>
<path transform="matrix(1,0,0,-1,197.249,590.252)" stroke-width=".398" stroke-linecap="butt" stroke-miterlimit="10" stroke-linejoin="miter" fill="none" stroke="#000000" d="M 0 0 L 200.777 0 "/>
<text xml:space="preserve" transform="matrix(1 0 -0 1 0 841.89)" font-size="11.95517" font-family="CMMI12" font-style="italic"><tspan y="-238.503" x="203.227">x</tspan></text>
<text xml:space="preserve" transform="matrix(1 0 -0 1 0 841.89)" font-size="7.97011" font-family="CMR8"><tspan y="-236.709" x="209.879">3</tspan></text>
<text xml:space="preserve" transform="matrix(1 0 -0 1 0 841.89)" font-size="11.95517" font-family="LMRoman12"><tspan y="-238.503" x="226.567 229.8188 233.71619 239.57422 256.50276 260.40016 282.7085 306.05696 329.39344 352.74189">[-1]-11000</tspan></text>
<path transform="matrix(1,0,0,-1,367.527,608.79507)" stroke-width=".398" stroke-linecap="butt" stroke-miterlimit="10" stroke-linejoin="miter" fill="none" stroke="#000000" d="M 0 0 L 0 18.344 "/>
<path transform="matrix(1,0,0,-1,382.876,599.62307)" stroke-width=".3985" stroke-linecap="butt" stroke-miterlimit="10" stroke-linejoin="miter" fill="none" stroke="#000000" d="M 8.97305 0 C 8.97305 4.95573 4.95573 8.97305 0 8.97305 C -4.95573 8.97305 -8.97305 4.95573 -8.97305 0 C -8.97305 -4.95573 -4.95573 -8.97305 0 -8.97305 C 4.95573 -8.97305 8.97305 -4.95573 8.97305 0 Z M 0 0 "/>
<text xml:space="preserve" transform="matrix(1 0 -0 1 0 841.89)" font-size="11.95517" font-family="LMRoman12"><tspan y="-238.503" x="377.999 381.8964">-3</tspan></text>
<text xml:space="preserve" transform="matrix(1 0 -0 1 0 841.89)" font-size="11.95517" font-family="CMMI12" font-style="italic"><tspan y="-221.971" x="203.227">x</tspan></text>
<text xml:space="preserve" transform="matrix(1 0 -0 1 0 841.89)" font-size="7.97011" font-family="CMR8"><tspan y="-220.178" x="209.879">4</tspan></text>
<text xml:space="preserve" transform="matrix(1 0 -0 1 0 841.89)" font-size="11.95517" font-family="LMRoman12"><tspan y="-221.971" x="231.769 256.50425 260.40165 282.71 306.05845 329.4069 352.74339">0-10100</tspan></text>
<path transform="matrix(1,0,0,-1,367.527,624.68606)" stroke-width=".398" stroke-linecap="butt" stroke-miterlimit="10" stroke-linejoin="miter" fill="none" stroke="#000000" d="M 0 0 L 0 15.89 "/>
<text xml:space="preserve" transform="matrix(1 0 -0 1 0 841.89)" font-size="11.95517" font-family="LMRoman12"><tspan y="-221.971" x="377.999 381.8964">-2</tspan></text>
<text xml:space="preserve" transform="matrix(1 0 -0 1 0 841.89)" font-size="11.95517" font-family="CMMI12" font-style="italic"><tspan y="-206.081" x="203.227">x</tspan></text>
<text xml:space="preserve" transform="matrix(1 0 -0 1 0 841.89)" font-size="7.97011" font-family="CMR8"><tspan y="-204.288" x="209.879">5</tspan></text>
<text xml:space="preserve" transform="matrix(1 0 -0 1 0 841.89)" font-size="11.95517" font-family="LMRoman12"><tspan y="-206.081" x="229.818 233.71538 258.45063 282.70768 306.05613 329.40458 352.74107">-110010</tspan></text>
<path transform="matrix(1,0,0,-1,367.527,640.57608)" stroke-width=".398" stroke-linecap="butt" stroke-miterlimit="10" stroke-linejoin="miter" fill="none" stroke="#000000" d="M 0 0 L 0 15.89 "/>
<text xml:space="preserve" transform="matrix(1 0 -0 1 0 841.89)" font-size="11.95517" font-family="LMRoman12"><tspan y="-206.081" x="379.95">3</tspan></text>
<text xml:space="preserve" transform="matrix(1 0 -0 1 0 841.89)" font-size="11.95517" font-family="CMMI12" font-style="italic"><tspan y="-190.19" x="203.227">x</tspan></text>
<text xml:space="preserve" transform="matrix(1 0 -0 1 0 841.89)" font-size="7.97011" font-family="CMR8"><tspan y="-188.397" x="209.879">6</tspan></text>
<text xml:space="preserve" transform="matrix(1 0 -0 1 0 841.89)" font-size="11.95517" font-family="LMRoman12"><tspan y="-190.19" x="231.769 256.50425 260.40165 282.71 306.05845 329.4069 352.74339">1-10001</tspan></text>
<path transform="matrix(1,0,0,-1,367.527,656.46707)" stroke-width=".398" stroke-linecap="butt" stroke-miterlimit="10" stroke-linejoin="miter" fill="none" stroke="#000000" d="M 0 0 L 0 15.89 "/>
<text xml:space="preserve" transform="matrix(1 0 -0 1 0 841.89)" font-size="11.95517" font-family="LMRoman12"><tspan y="-190.19" x="379.95">3</tspan></text>
<path transform="matrix(1,0,0,-1,197.249,656.666)" stroke-width=".398" stroke-linecap="butt" stroke-miterlimit="10" stroke-linejoin="miter" fill="none" stroke="#000000" d="M 0 0 L 200.777 0 "/>
<text xml:space="preserve" transform="matrix(1 0 -0 1 0 841.89)" font-size="11.95517" font-family="LMRoman12"><tspan y="-173.504" x="205.1">F</tspan></text>
<path transform="matrix(1,0,0,-1,234.696,664.622)" stroke-width=".3985" stroke-linecap="butt" stroke-miterlimit="10" stroke-linejoin="miter" fill="none" stroke="#000000" d="M 7.5577 0 C 7.5577 4.17404 4.17404 7.5577 0 7.5577 C -4.17404 7.5577 -7.5577 4.17404 -7.5577 0 C -7.5577 -4.17404 -4.17404 -7.5577 0 -7.5577 C 4.17404 -7.5577 7.5577 -4.17404 7.5577 0 Z M 0 0 "/>
<text xml:space="preserve" transform="matrix(1 0 -0 1 0 841.89)" font-size="11.95517" font-family="LMRoman12"><tspan y="-173.504" x="231.769">1</tspan></text>
<text xml:space="preserve" transform="matrix(1 0 -0 1 0 841.89)" font-size="11.95517" font-family="LMRoman12"><tspan y="-173.504" x="258.46 282.71705 306.05354 329.40199 352.75044">20000</tspan></text>
<path transform="matrix(1,0,0,-1,367.527,673.153)" stroke-width=".398" stroke-linecap="butt" stroke-miterlimit="10" stroke-linejoin="miter" fill="none" stroke="#000000" d="M 0 0 L 0 16.288 "/>
<text xml:space="preserve" transform="matrix(1 0 -0 1 0 841.89)" font-size="11.95517" font-family="LMRoman12"><tspan y="-173.504" x="379.95">0</tspan></text>
<path transform="matrix(1,0,0,-1,197.249,673.353)" stroke-width=".398" stroke-linecap="butt" stroke-miterlimit="10" stroke-linejoin="miter" fill="none" stroke="#000000" d="M 0 0 L 200.777 0 "/>
<path transform="matrix(1,0,0,-1,197.249,675.744)" stroke-width=".398" stroke-linecap="butt" stroke-miterlimit="10" stroke-linejoin="miter" fill="none" stroke="#000000" d="M 0 0 L 200.777 0 "/>
<text xml:space="preserve" transform="matrix(1 0 -0 1 0 841.89)" font-size="7.97011" font-family="CMR8"><tspan y="-159.531" x="232.579">1</tspan></text>
<path transform="matrix(1,0,0,-1,229.286,684.077)" stroke-width=".478" stroke-linecap="butt" stroke-miterlimit="10" stroke-linejoin="miter" fill="none" stroke="#000000" d="M 0 0 L 10.821 0 "/>
<text xml:space="preserve" transform="matrix(1 0 -0 1 0 841.89)" font-size="7.97011" font-family="CMSY8" font-style="italic"><tspan y="-150.701" x="229.286">&#x2212;</tspan></text>
<text xml:space="preserve" transform="matrix(1 0 -0 1 0 841.89)" font-size="7.97011" font-family="CMR8"><tspan y="-150.701" x="235.872">1</tspan><tspan y="-159.531" x="259.269">2</tspan></text>
<path transform="matrix(1,0,0,-1,255.976,684.077)" stroke-width=".478" stroke-linecap="butt" stroke-miterlimit="10" stroke-linejoin="miter" fill="none" stroke="#000000" d="M 0 0 L 10.821 0 "/>
<text xml:space="preserve" transform="matrix(1 0 -0 1 0 841.89)" font-size="7.97011" font-family="CMSY8" font-style="italic"><tspan y="-150.701" x="255.976">&#x2212;</tspan></text>
<text xml:space="preserve" transform="matrix(1 0 -0 1 0 841.89)" font-size="7.97011" font-family="CMR8"><tspan y="-150.701" x="262.562">1</tspan></text>
<text xml:space="preserve" transform="matrix(1 0 -0 1 0 841.89)" font-size="11.95517" font-family="LMRoman12"><tspan y="-154.824" x="282.713 306.0495 329.39796 352.7464">&#x2013;&#x2013;&#x2013;&#x2013;</tspan></text>
<path transform="matrix(1,0,0,-1,367.527,692.01907)" stroke-width=".398" stroke-linecap="butt" stroke-miterlimit="10" stroke-linejoin="miter" fill="none" stroke="#000000" d="M 0 0 L 0 16.076 "/>
<text xml:space="preserve" transform="matrix(1 0 -0 1 0 841.89)" font-size="11.95517" font-family="LMRoman12"><tspan y="-129.796" x="151.2 158.68393 164.54196 171.35642 176.55692 179.80872 183.06052 192.1584 198.01644 201.26824">Tabelle1.5</tspan></text>
<text xml:space="preserve" transform="matrix(1 0 -0 1 0 841.89)" font-size="11.95517" font-family="LMRoman12"><tspan y="-129.796" x="207.129">:</tspan></text>
<text xml:space="preserve" transform="matrix(1 0 -0 1 0 841.89)" font-size="11.95517" font-family="LMRoman12"><tspan y="-129.796" x="214.283 223.0581 229.56172 233.13632 238.99436 245.49797 251.356 255.9707 260.52565 266.38368 272.88728 276.13908 281.33958 287.1976 297.5986 307.35404 310.60585 319.05818 325.56178 332.06538 337.26588 343.76948 347.02128 352.8793 357.494 362.10868 365.36048 371.2185 376.419 384.87135 393.15629 399.0143 403.64097 406.89277 411.50746 414.75926 420.61729 425.23197 431.73558 438.23918">Anfangstableaumitunzul&#x00e4;ssigerBasisl&#x00f6;sung</tspan></text>
<text xml:space="preserve" transform="matrix(1 0 -0 1 0 841.89)" font-size="11.95517" font-family="LMRoman12"><tspan y="-100.03" x="56.693 65.63547 70.83597 78.59487 85.09848 91.6021 97.46013 100.71194 109.116428 115.62004 118.87185 128.62728 135.13089 138.38269 143.58319 149.764 153.66139 162.4365 165.6883 171.54633 177.40436 181.95928 185.21108 189.76599 196.2696 205.71419 212.2178 220.02454 226.8629 232.0634 237.92144 241.17324 247.67685 253.85768 261.61659 271.372 274.6238 282.38273 288.88633 294.08683 301.84574 312.9162 318.77424 325.27784 331.72166 338.22526 343.42576 351.18467 359.1468 362.3986 368.2686 374.12663 378.68156 383.88206 389.08256 392.33436 395.58616 403.97868 411.8093 416.36424 420.9789 424.2307 429.4312 435.9348 444.3393 451.01026 457.51387 464.01747 470.19828 474.7532 478.005 483.86305 493.57063 501.53279 504.78459 510.65458 516.51266 521.06759 526.26809 531.46859 534.7204">DerdualeSimplex-AlgorithmusbeginntmitderWahlderPivotzeiles(sieheFunktionPivotzei-</tspan><tspan y="-85.585" x="56.693 59.94481 65.14531 74.087779 80.591388 86.44942 89.701229 94.25614 101.46511 113.49201 116.74382 125.2559 132.09426 137.29476 141.90946 146.46437 149.71617 159.47159 169.227 174.4275 184.88829 191.3919 194.6437 203.80138 210.95056 216.15106 219.40287 222.65467 231.82428 240.39615 250.15157 253.40337 261.9274 268.431 273.6315 287.3441 293.5249 296.7767 301.9772 305.229 311.7326 316.3473 320.90223 326.10273 336.57545 343.07905 348.27955 354.13758 359.9956 364.55055 367.80235 373.66038 378.86088">leDual).WirbestimmendieZeilesmitdemkleinstennegativen</tspan></text>
<text xml:space="preserve" transform="matrix(1 0 -0 1 0 841.89)" font-size="11.95517" font-family="CMMI12" font-style="italic"><tspan y="-85.585" x="389.325">b</tspan></text>
<text xml:space="preserve" transform="matrix(1 0 -0 1 0 841.89)" font-size="7.97011" font-family="CMMI8" font-style="italic"><tspan y="-83.791" x="394.302">s</tspan></text>
<text xml:space="preserve" transform="matrix(1 0 -0 1 0 841.89)" font-size="11.95517" font-family="LMRoman12"><tspan y="-85.585" x="402.679 408.53703 411.78883 420.36067 428.3228 431.57463 437.4446 443.30265 447.85758 453.05809 458.25859 461.51039 464.76219 469.96269 477.1597 486.10218 491.30268 499.82673 506.00755 509.25935 514.45986 517.7117 524.2153 528.82998 533.3849">alsPivotzeile.Derkleinste</tspan><tspan y="-71.139" x="56.693 67.75153 72.952037 77.50695 84.859378 88.11118 100.67606 109.77395 115.63198 122.13559 127.99362 133.19412 136.44593 141.00084 146.85887 151.41379 156.61429 162.79512 168.65316 173.85366 180.03447 184.58939 190.44742">WertimKapazit&#x00e4;tenvektor</tspan></text>
<text xml:space="preserve" transform="matrix(1 0 -0 1 0 841.89)" font-size="11.95517" font-family="CMBX12" font-weight="bold"><tspan y="-71.139" x="197.777">b</tspan></text>
<text xml:space="preserve" transform="matrix(1 0 -0 1 0 841.89)" font-size="11.95517" font-family="LMRoman12"><tspan y="-71.139" x="208.056 211.3078 215.9225 223.27494 227.17232 233.03035 239.09162 243.70632 249.56435 259.31977 262.57157 269.93598 275.13648 279.6914 286.195 292.05305 295.30485 299.85978 305.06028 314.37336 322.82566 326.07746 333.44187 339.94548 343.19728 351.20726 356.40776 360.96269 365.57737 370.1323 378.1303 385.2795 390.48 393.7318 396.9836 404.9936 410.85163 414.10343 421.5276 429.48976 432.74156 438.61155 444.46958 449.0245 454.225 459.4255 462.6773 465.9291 473.91517 478.4701 483.08479 486.33659 491.53709 498.04069 506.05067 513.5346 519.39266 526.21908 531.41958 534.6714">ist-3,somiterhaltenwirdieersteZeilealsPivotzeile(sieheTabel-</tspan><tspan y="-56.693" x="56.693 59.94481 67.81131 73.66934 76.92115 82.77918 87.3341 93.26386 102.445438 105.69724 112.20085 119.43372 124.634227 131.91492 135.16672 144.3483 150.85192 156.05242 163.27333 170.1117 175.3122 179.86711 184.42203 190.28006 195.15778 201.33861 205.89353 211.09403 215.64894 220.84944 230.01906 237.9812 241.233 247.09104 252.94907 257.504 262.7045 267.905 271.1568 274.4086 282.27513 289.55583 295.4258 300.6263 303.8781 310.3817 315.5822 324.75184 333.52693 339.70774 344.90824 354.66368 359.86418 363.11598 368.31648 374.49729 379.05223 384.25273">le1.5).GibtesinderbetrachtetenPivotzeileskeinenKoe&#xfb03;zienten</tspan></text>
<text xml:space="preserve" transform="matrix(1 0 -0 1 0 841.89)" font-size="11.95517" font-family="CMMI12" font-style="italic"><tspan y="-56.693" x="393.427">a</tspan></text>
<text xml:space="preserve" transform="matrix(1 0 -0 1 0 841.89)" font-size="7.97011" font-family="CMMI8" font-style="italic"><tspan y="-54.9" x="399.572 403.48533">sj</tspan></text>
<text xml:space="preserve" transform="matrix(1 0 -0 1 0 841.89)" font-size="11.95517" font-family="CMMI12" font-style="italic"><tspan y="-56.693" x="411.191">&#x003c;</tspan></text>
<text xml:space="preserve" transform="matrix(1 0 -0 1 0 841.89)" font-size="11.95517" font-family="CMR12"><tspan y="-56.693" x="423.616">0</tspan></text>
<text xml:space="preserve" transform="matrix(1 0 -0 1 0 841.89)" font-size="11.95517" font-family="CMMI12" font-style="italic"><tspan y="-56.693" x="429.469">,</tspan></text>
<text xml:space="preserve" transform="matrix(1 0 -0 1 0 841.89)" font-size="11.95517" font-family="CMSY10" font-style="italic"><tspan y="-56.693" x="436.706">&#x2200;</tspan></text>
<text xml:space="preserve" transform="matrix(1 0 -0 1 0 841.89)" font-size="11.95517" font-family="CMMI12" font-style="italic"><tspan y="-56.693" x="445.34">i</tspan></text>
<text xml:space="preserve" transform="matrix(1 0 -0 1 0 841.89)" font-size="11.95517" font-family="CMSY10" font-style="italic"><tspan y="-56.693" x="454.647 465.93269">&#x2208;{</tspan></text>
<text xml:space="preserve" transform="matrix(1 0 -0 1 0 841.89)" font-size="11.95517" font-family="CMR12"><tspan y="-56.693" x="471.916">1</tspan></text>
<text xml:space="preserve" transform="matrix(1 0 -0 1 0 841.89)" font-size="11.95517" font-family="CMMI12" font-style="italic"><tspan y="-56.693" x="477.769 483.00538 488.2537 493.49006 498.73838">,...,</tspan></text>
<text xml:space="preserve" transform="matrix(1 0 -0 1 0 841.89)" font-size="11.95517" font-family="LMRoman12"><tspan y="-56.693" x="503.989 510.4926 519.6025">n+m</tspan></text>
<text xml:space="preserve" transform="matrix(1 0 -0 1 0 841.89)" font-size="11.95517" font-family="CMSY10" font-style="italic"><tspan y="-56.693" x="529.353">}</tspan></text>
<text xml:space="preserve" transform="matrix(1 0 -0 1 0 841.89)" font-size="11.95517" font-family="LMRoman12"><tspan y="-56.693" x="535.331">,</tspan></text>
<text xml:space="preserve" transform="matrix(1 0 -0 1 0 841.89)" font-size="11.95517" font-family="LMRoman12"><tspan y="-20.306" x="291.785 297.64305">11</tspan></text>
</g>
</svg>
