<?xml version="1.0" encoding="UTF-8" standalone="no"?>
<!DOCTYPE svg PUBLIC "-//W3C//DTD SVG 1.1//EN" "http://www.w3.org/Graphics/SVG/1.1/DTD/svg11.dtd">
<svg xmlns="http://www.w3.org/2000/svg" xmlns:xlink="http://www.w3.org/1999/xlink" version="1.1" width="595.276pt" height="841.89pt" viewBox="0 0 595.276 841.89">
<g enable-background="new">
<text xml:space="preserve" transform="matrix(1 0 -0 1 0 841.89)" font-size="11.95517" font-family="LMRoman12"><tspan y="-773.242" x="56.693 65.468097 79.76647 84.96697 88.21878 94.7224 104.47781 113.25291 119.44568 124.000598 129.2011 133.75601 138.37071 143.24843 149.75205 154.9406 158.1924 164.69602 171.19963 177.70325 188.10425 194.60787 199.80837 208.9182 216.72493 222.58296 227.13788 230.38968 236.24771 242.75133 246.00313 251.20363 262.2502 268.7538 273.9543 283.12394 290.93064 296.13114 302.31196 306.86689 312.7249 317.27986">UmeineUnterscheidungderVariablendesVektors</tspan></text>
<text xml:space="preserve" transform="matrix(1 0 -0 1 0 841.89)" font-size="11.95517" font-family="CMBX12" font-weight="bold"><tspan y="-773.242" x="326.438">x</tspan></text>
<text xml:space="preserve" transform="matrix(1 0 -0 1 0 841.89)" font-size="11.95517" font-family="LMRoman12"><tspan y="-773.242" x="338.089 343.94703 350.45063">aus</tspan></text>
<text xml:space="preserve" transform="matrix(1 0 -0 1 0 841.89)" font-size="11.95517" font-family="MSBM10"><tspan y="-773.242" x="359.616">R</tspan></text>
<text xml:space="preserve" transform="matrix(1 0 -0 1 0 841.89)" font-size="7.97011" font-family="CMMI8" font-style="italic"><tspan y="-777.58" x="368.25">n</tspan></text>
<text xml:space="preserve" transform="matrix(1 0 -0 1 0 841.89)" font-size="7.97011" font-family="CMR8"><tspan y="-777.58" x="373.388">+</tspan></text>
<text xml:space="preserve" transform="matrix(1 0 -0 1 0 841.89)" font-size="7.97011" font-family="CMMI8" font-style="italic"><tspan y="-777.58" x="379.975">m</tspan></text>
<text xml:space="preserve" transform="matrix(1 0 -0 1 0 841.89)" font-size="11.95517" font-family="LMRoman12"><tspan y="-773.242" x="392.516 397.7165 408.76307 414.6211 419.8216 427.96308 433.8211 440.3247 444.87965 448.13145 453.33195 456.58375 461.19844 465.75337 470.95387 477.45747 485.25224 492.0786 497.2791 502.4796 507.6801 510.93193 515.82156 522.32516 528.82876 534.02926">zugew&#x00e4;hrleisten,bezeichnet</tspan><tspan y="-758.796" x="56.693 66.44842 72.30645 82.91068 89.41429 92.6661 101.967227 108.47084 113.02576 117.64045 124.14406 128.69898 135.20259 141.7062 147.56424 150.81604 154.06784 158.94556 165.44918 170.64968 181.24196 189.06064 194.91867 199.47359 202.72539 208.58342 215.08704 218.33884 223.53934">mandieurspr&#x00fc;nglichenVariablen</tspan></text>
<text xml:space="preserve" transform="matrix(1 0 -0 1 0 841.89)" font-size="11.95517" font-family="CMMI12" font-style="italic"><tspan y="-758.796" x="234.121">x</tspan></text>
<text xml:space="preserve" transform="matrix(1 0 -0 1 0 841.89)" font-size="7.97011" font-family="CMR8"><tspan y="-757.003" x="240.773">1</tspan></text>
<text xml:space="preserve" transform="matrix(1 0 -0 1 0 841.89)" font-size="11.95517" font-family="CMMI12" font-style="italic"><tspan y="-758.796" x="245.506 250.74236 255.99066 261.22703 266.47535 271.72367">,...,x</tspan></text>
<text xml:space="preserve" transform="matrix(1 0 -0 1 0 841.89)" font-size="7.97011" font-family="CMMI8" font-style="italic"><tspan y="-757.003" x="278.379">n</tspan></text>
<text xml:space="preserve" transform="matrix(1 0 -0 1 0 841.89)" font-size="11.95517" font-family="LMRoman12"><tspan y="-758.796" x="288.117 294.6206 299.8211 308.5364 311.7882 315.04 321.5436 326.7441 332.60215 337.15708 342.35758 352.9618 362.07164 368.57524 373.13017 376.38197 386.1374 389.3892 394.5897 399.14463 405.64823 412.15184 418.00987 422.62455 429.12815 433.68309 439.5411 446.0447 449.2965 454.497 464.25245 472.96775 478.82579 482.07759 490.79289 497.29649 501.8514 506.40635 512.91 519.0908 523.64578 530.14938 534.7043">deslinearenOptimierungsproblemsalsStruktur-</tspan><tspan y="-744.35" x="56.693 62.228246 68.08628 72.6412 75.893009 81.75104 88.254657 91.50646 96.70696 103.21057 110.46736 116.97098 122.82901 132.58443 135.83623 144.40808 147.65988 153.51792 158.13262 162.74732 171.31917 175.93387 179.18567 184.07534 194.58393 201.08754 204.33934 213.55678 216.80858 220.06038 226.564 231.7645 237.62253 242.17745 251.38294 260.49278 266.99638 271.5513 274.8031 284.55854 287.81034 293.01084 297.56578 304.06938 310.57298 316.431 321.0457 326.90373 333.40733 336.9819 342.83995 348.69798 355.52436 364.7418 367.9936 378.51414 384.69496 390.55299 397.05659 402.9146 409.4182 412.67 417.2847 422.17439 428.67799 433.87849 442.4384 449.10935 454.96739 459.5223 473.2827 476.53453">variablen.Somitl&#x00e4;sstsichdielineareOptimierungsaufgabeinkanonischerFormim</tspan></text>
<text xml:space="preserve" transform="matrix(1 0 -0 1 0 841.89)" font-size="11.95517" font-family="MSBM10"><tspan y="-744.35" x="490.265">R</tspan></text>
<text xml:space="preserve" transform="matrix(1 0 -0 1 0 841.89)" font-size="7.97011" font-family="CMMI8" font-style="italic"><tspan y="-748.688" x="498.9">n</tspan></text>
<text xml:space="preserve" transform="matrix(1 0 -0 1 0 841.89)" font-size="11.95517" font-family="LMRoman12"><tspan y="-744.35" x="508.553 511.8048 522.3134 528.817 534.0175">inder</tspan><tspan y="-729.904" x="56.693 65.468097 71.326129 75.88104 85.63646 91.49449 94.7463 98.32089 104.178928 108.73384 122.38664 125.63845">Normalformim</tspan></text>
<text xml:space="preserve" transform="matrix(1 0 -0 1 0 841.89)" font-size="11.95517" font-family="MSBM10"><tspan y="-729.904" x="139.282">R</tspan></text>
<text xml:space="preserve" transform="matrix(1 0 -0 1 0 841.89)" font-size="7.97011" font-family="CMMI8" font-style="italic"><tspan y="-734.243" x="147.917">n</tspan></text>
<text xml:space="preserve" transform="matrix(1 0 -0 1 0 841.89)" font-size="7.97011" font-family="CMR8"><tspan y="-734.243" x="153.055">+</tspan></text>
<text xml:space="preserve" transform="matrix(1 0 -0 1 0 841.89)" font-size="7.97011" font-family="CMMI8" font-style="italic"><tspan y="-734.243" x="159.641">m</tspan></text>
<text xml:space="preserve" transform="matrix(1 0 -0 1 0 841.89)" font-size="11.95517" font-family="LMRoman12"><tspan y="-729.904" x="171.532 178.03562 183.89365 188.44857 193.06327 197.61818 202.81868 206.07048 209.32228 214.52278 221.0264 228.17559">darstellen:[</tspan></text>
<text xml:space="preserve" transform="matrix(1 0 -0 1 0 841.89)" font-size="11.95517" font-family="LMRoman12" font-weight="bold"><tspan y="-729.904" x="231.428">?</tspan></text>
<text xml:space="preserve" transform="matrix(1 0 -0 1 0 841.89)" font-size="11.95517" font-family="LMRoman12"><tspan y="-729.904" x="237.779">,</tspan></text>
<text xml:space="preserve" transform="matrix(1 0 -0 1 0 841.89)" font-size="11.95517" font-family="LMRoman12" font-weight="bold"><tspan y="-729.904" x="244.933">?</tspan></text>
<text xml:space="preserve" transform="matrix(1 0 -0 1 0 841.89)" font-size="11.95517" font-family="LMRoman12"><tspan y="-729.904" x="251.284">]</tspan><tspan y="-694.26" x="195.122 205.84578 211.70381 217.88463 221.13643 230.89185 234.14365 239.34415 243.89907">Maximiere</tspan></text>
<text xml:space="preserve" transform="matrix(1 0 -0 1 0 841.89)" font-size="11.95517" font-family="CMMI12" font-style="italic"><tspan y="-694.26" x="251.089">f</tspan></text>
<text xml:space="preserve" transform="matrix(1 0 -0 1 0 841.89)" font-size="11.95517" font-family="CMR12"><tspan y="-694.26" x="258.135">(</tspan></text>
<text xml:space="preserve" transform="matrix(1 0 -0 1 0 841.89)" font-size="11.95517" font-family="CMBX12" font-weight="bold"><tspan y="-694.26" x="262.687">x</tspan></text>
<text xml:space="preserve" transform="matrix(1 0 -0 1 0 841.89)" font-size="11.95517" font-family="CMR12"><tspan y="-694.26" x="269.786 277.65254">)=</tspan></text>
<text xml:space="preserve" transform="matrix(1 0 -0 1 0 841.89)" font-size="7.97011" font-family="CMMI8" font-style="italic"><tspan y="-709.204" x="296.15">n</tspan></text>
<text xml:space="preserve" transform="matrix(1 0 -0 1 0 841.89)" font-size="11.95517" font-family="CMEX10"><tspan y="-705.617" x="290.084">&#xfffd;</tspan></text>
<text xml:space="preserve" transform="matrix(1 0 -0 1 0 841.89)" font-size="7.97011" font-family="CMMI8" font-style="italic"><tspan y="-680.423" x="291.366">j</tspan></text>
<text xml:space="preserve" transform="matrix(1 0 -0 1 0 841.89)" font-size="7.97011" font-family="CMR8"><tspan y="-680.423" x="295.25 301.8333">=1</tspan></text>
<text xml:space="preserve" transform="matrix(1 0 -0 1 0 841.89)" font-size="11.95517" font-family="CMMI12" font-style="italic"><tspan y="-694.26" x="309.346">c</tspan></text>
<text xml:space="preserve" transform="matrix(1 0 -0 1 0 841.89)" font-size="7.97011" font-family="CMMI8" font-style="italic"><tspan y="-692.466" x="314.384">j</tspan></text>
<text xml:space="preserve" transform="matrix(1 0 -0 1 0 841.89)" font-size="11.95517" font-family="CMMI12" font-style="italic"><tspan y="-694.26" x="320.758">x</tspan></text>
<text xml:space="preserve" transform="matrix(1 0 -0 1 0 841.89)" font-size="7.97011" font-family="CMMI8" font-style="italic"><tspan y="-692.466" x="327.41">j</tspan></text>
<text xml:space="preserve" transform="matrix(1 0 -0 1 0 841.89)" font-size="11.95517" font-family="CMR12"><tspan y="-694.26" x="334.449">+</tspan></text>
<text xml:space="preserve" transform="matrix(1 0 -0 1 0 841.89)" font-size="7.97011" font-family="CMMI8" font-style="italic"><tspan y="-709.204" x="349.818">n</tspan></text>
<text xml:space="preserve" transform="matrix(1 0 -0 1 0 841.89)" font-size="7.97011" font-family="CMR8"><tspan y="-709.204" x="354.956">+</tspan></text>
<text xml:space="preserve" transform="matrix(1 0 -0 1 0 841.89)" font-size="7.97011" font-family="CMMI8" font-style="italic"><tspan y="-709.204" x="361.542">m</tspan></text>
<text xml:space="preserve" transform="matrix(1 0 -0 1 0 841.89)" font-size="11.95517" font-family="CMEX10"><tspan y="-705.617" x="350.791">&#xfffd;</tspan></text>
<text xml:space="preserve" transform="matrix(1 0 -0 1 0 841.89)" font-size="7.97011" font-family="CMMI8" font-style="italic"><tspan y="-680.423" x="346.21">j</tspan></text>
<text xml:space="preserve" transform="matrix(1 0 -0 1 0 841.89)" font-size="7.97011" font-family="CMR8"><tspan y="-680.423" x="350.094">=</tspan></text>
<text xml:space="preserve" transform="matrix(1 0 -0 1 0 841.89)" font-size="7.97011" font-family="CMMI8" font-style="italic"><tspan y="-680.423" x="356.681">n</tspan></text>
<text xml:space="preserve" transform="matrix(1 0 -0 1 0 841.89)" font-size="7.97011" font-family="CMR8"><tspan y="-680.423" x="361.819 368.4023">+1</tspan></text>
<text xml:space="preserve" transform="matrix(1 0 -0 1 0 841.89)" font-size="11.95517" font-family="CMR12"><tspan y="-694.26" x="374.632">0</tspan></text>
<text xml:space="preserve" transform="matrix(1 0 -0 1 0 841.89)" font-size="11.95517" font-family="CMSY10" font-style="italic"><tspan y="-694.26" x="383.142">&#x00b7;</tspan></text>
<text xml:space="preserve" transform="matrix(1 0 -0 1 0 841.89)" font-size="11.95517" font-family="CMMI12" font-style="italic"><tspan y="-694.26" x="389.12">x</tspan></text>
<text xml:space="preserve" transform="matrix(1 0 -0 1 0 841.89)" font-size="7.97011" font-family="CMMI8" font-style="italic"><tspan y="-692.466" x="395.772">j</tspan></text>
<text xml:space="preserve" transform="matrix(1 0 -0 1 0 841.89)" font-size="11.95517" font-family="LMRoman12"><tspan y="-694.26" x="502.668 507.22294 513.081 516.3328 522.19088 528.0489 534.05038">(1.10a)</tspan></text>
<text xml:space="preserve" transform="matrix(1 0 -0 1 0 841.89)" font-size="11.95517" font-family="CMMI12" font-style="italic"><tspan y="-655.865" x="109.355">a</tspan></text>
<text xml:space="preserve" transform="matrix(1 0 -0 1 0 841.89)" font-size="7.97011" font-family="CMR8"><tspan y="-654.071" x="115.5 119.73213">11</tspan></text>
<text xml:space="preserve" transform="matrix(1 0 -0 1 0 841.89)" font-size="11.95517" font-family="CMMI12" font-style="italic"><tspan y="-655.865" x="126.459">x</tspan></text>
<text xml:space="preserve" transform="matrix(1 0 -0 1 0 841.89)" font-size="7.97011" font-family="CMR8"><tspan y="-654.071" x="133.111">1</tspan></text>
<text xml:space="preserve" transform="matrix(1 0 -0 1 0 841.89)" font-size="11.95517" font-family="CMR12"><tspan y="-655.865" x="149.434">+</tspan></text>
<text xml:space="preserve" transform="matrix(1 0 -0 1 0 841.89)" font-size="11.95517" font-family="CMMI12" font-style="italic"><tspan y="-655.865" x="168.502 173.73836 178.98667">...</tspan></text>
<text xml:space="preserve" transform="matrix(1 0 -0 1 0 841.89)" font-size="11.95517" font-family="CMR12"><tspan y="-655.865" x="192.205">+</tspan></text>
<text xml:space="preserve" transform="matrix(1 0 -0 1 0 841.89)" font-size="11.95517" font-family="CMMI12" font-style="italic"><tspan y="-655.865" x="212.9">a</tspan></text>
<text xml:space="preserve" transform="matrix(1 0 -0 1 0 841.89)" font-size="7.97011" font-family="CMR8"><tspan y="-654.071" x="219.045">1</tspan></text>
<text xml:space="preserve" transform="matrix(1 0 -0 1 0 841.89)" font-size="7.97011" font-family="CMMI8" font-style="italic"><tspan y="-654.071" x="223.279">n</tspan></text>
<text xml:space="preserve" transform="matrix(1 0 -0 1 0 841.89)" font-size="11.95517" font-family="CMMI12" font-style="italic"><tspan y="-655.865" x="230.908">x</tspan></text>
<text xml:space="preserve" transform="matrix(1 0 -0 1 0 841.89)" font-size="7.97011" font-family="CMMI8" font-style="italic"><tspan y="-654.071" x="237.56">n</tspan></text>
<text xml:space="preserve" transform="matrix(1 0 -0 1 0 841.89)" font-size="11.95517" font-family="CMR12"><tspan y="-655.865" x="254.787">+</tspan></text>
<text xml:space="preserve" transform="matrix(1 0 -0 1 0 841.89)" font-size="11.95517" font-family="CMMI12" font-style="italic"><tspan y="-655.865" x="273.855">x</tspan></text>
<text xml:space="preserve" transform="matrix(1 0 -0 1 0 841.89)" font-size="7.97011" font-family="CMMI8" font-style="italic"><tspan y="-654.071" x="280.507">n</tspan></text>
<text xml:space="preserve" transform="matrix(1 0 -0 1 0 841.89)" font-size="7.97011" font-family="CMR8"><tspan y="-654.071" x="285.645 292.2283">+1</tspan></text>
<text xml:space="preserve" transform="matrix(1 0 -0 1 0 841.89)" font-size="11.95517" font-family="CMR12"><tspan y="-655.865" x="419.097">=</tspan></text>
<text xml:space="preserve" transform="matrix(1 0 -0 1 0 841.89)" font-size="11.95517" font-family="CMMI12" font-style="italic"><tspan y="-655.865" x="439.792">b</tspan></text>
<text xml:space="preserve" transform="matrix(1 0 -0 1 0 841.89)" font-size="7.97011" font-family="CMR8"><tspan y="-654.071" x="444.769">1</tspan></text>
<text xml:space="preserve" transform="matrix(1 0 -0 1 0 841.89)" font-size="11.95517" font-family="CMMI12" font-style="italic"><tspan y="-641.419" x="109.355">a</tspan></text>
<text xml:space="preserve" transform="matrix(1 0 -0 1 0 841.89)" font-size="7.97011" font-family="CMR8"><tspan y="-639.626" x="115.5 119.73213">21</tspan></text>
<text xml:space="preserve" transform="matrix(1 0 -0 1 0 841.89)" font-size="11.95517" font-family="CMMI12" font-style="italic"><tspan y="-641.419" x="126.459">x</tspan></text>
<text xml:space="preserve" transform="matrix(1 0 -0 1 0 841.89)" font-size="7.97011" font-family="CMR8"><tspan y="-639.626" x="133.111">1</tspan></text>
<text xml:space="preserve" transform="matrix(1 0 -0 1 0 841.89)" font-size="11.95517" font-family="CMR12"><tspan y="-641.419" x="149.434">+</tspan></text>
<text xml:space="preserve" transform="matrix(1 0 -0 1 0 841.89)" font-size="11.95517" font-family="CMMI12" font-style="italic"><tspan y="-641.419" x="168.502 173.73836 178.98667">...</tspan></text>
<text xml:space="preserve" transform="matrix(1 0 -0 1 0 841.89)" font-size="11.95517" font-family="CMR12"><tspan y="-641.419" x="192.205">+</tspan></text>
<text xml:space="preserve" transform="matrix(1 0 -0 1 0 841.89)" font-size="11.95517" font-family="CMMI12" font-style="italic"><tspan y="-641.419" x="212.9">a</tspan></text>
<text xml:space="preserve" transform="matrix(1 0 -0 1 0 841.89)" font-size="7.97011" font-family="CMR8"><tspan y="-639.626" x="219.045">2</tspan></text>
<text xml:space="preserve" transform="matrix(1 0 -0 1 0 841.89)" font-size="7.97011" font-family="CMMI8" font-style="italic"><tspan y="-639.626" x="223.279">n</tspan></text>
<text xml:space="preserve" transform="matrix(1 0 -0 1 0 841.89)" font-size="11.95517" font-family="CMMI12" font-style="italic"><tspan y="-641.419" x="230.908">x</tspan></text>
<text xml:space="preserve" transform="matrix(1 0 -0 1 0 841.89)" font-size="7.97011" font-family="CMMI8" font-style="italic"><tspan y="-639.626" x="237.56">n</tspan></text>
<text xml:space="preserve" transform="matrix(1 0 -0 1 0 841.89)" font-size="11.95517" font-family="CMR12"><tspan y="-641.419" x="280.857">+</tspan></text>
<text xml:space="preserve" transform="matrix(1 0 -0 1 0 841.89)" font-size="11.95517" font-family="CMMI12" font-style="italic"><tspan y="-641.419" x="306.926">x</tspan></text>
<text xml:space="preserve" transform="matrix(1 0 -0 1 0 841.89)" font-size="7.97011" font-family="CMMI8" font-style="italic"><tspan y="-639.626" x="313.578">n</tspan></text>
<text xml:space="preserve" transform="matrix(1 0 -0 1 0 841.89)" font-size="7.97011" font-family="CMR8"><tspan y="-639.626" x="318.717 325.30033">+2</tspan></text>
<text xml:space="preserve" transform="matrix(1 0 -0 1 0 841.89)" font-size="11.95517" font-family="CMR12"><tspan y="-641.419" x="419.097">=</tspan></text>
<text xml:space="preserve" transform="matrix(1 0 -0 1 0 841.89)" font-size="11.95517" font-family="CMMI12" font-style="italic"><tspan y="-641.419" x="439.792">b</tspan></text>
<text xml:space="preserve" transform="matrix(1 0 -0 1 0 841.89)" font-size="7.97011" font-family="CMR8"><tspan y="-639.626" x="444.769">2</tspan></text>
<text xml:space="preserve" transform="matrix(1 0 -0 1 0 841.89)" font-size="11.95517" font-family="LMRoman12"><tspan y="-629.945" x="121.973">.</tspan><tspan y="-625.96" x="121.973">.</tspan><tspan y="-621.975" x="121.973">.</tspan><tspan y="-628.949" x="169.166">.</tspan><tspan y="-625.96" x="173.746">.</tspan><tspan y="-622.971" x="178.326">.</tspan><tspan y="-629.945" x="226.422">.</tspan><tspan y="-625.96" x="226.422">.</tspan><tspan y="-621.975" x="226.422">.</tspan><tspan y="-628.949" x="340.662">.</tspan><tspan y="-625.96" x="345.242">.</tspan><tspan y="-622.971" x="349.823">.</tspan><tspan y="-629.945" x="443.021">.</tspan><tspan y="-625.96" x="443.021">.</tspan><tspan y="-621.975" x="443.021">.</tspan></text>
<text xml:space="preserve" transform="matrix(1 0 -0 1 0 841.89)" font-size="11.95517" font-family="CMMI12" font-style="italic"><tspan y="-607.529" x="107.727">a</tspan></text>
<text xml:space="preserve" transform="matrix(1 0 -0 1 0 841.89)" font-size="7.97011" font-family="CMMI8" font-style="italic"><tspan y="-605.736" x="113.872">m</tspan></text>
<text xml:space="preserve" transform="matrix(1 0 -0 1 0 841.89)" font-size="7.97011" font-family="CMR8"><tspan y="-605.736" x="121.362">1</tspan></text>
<text xml:space="preserve" transform="matrix(1 0 -0 1 0 841.89)" font-size="11.95517" font-family="CMMI12" font-style="italic"><tspan y="-607.529" x="128.087">x</tspan></text>
<text xml:space="preserve" transform="matrix(1 0 -0 1 0 841.89)" font-size="7.97011" font-family="CMR8"><tspan y="-605.736" x="134.739">1</tspan></text>
<text xml:space="preserve" transform="matrix(1 0 -0 1 0 841.89)" font-size="11.95517" font-family="CMR12"><tspan y="-607.529" x="149.434">+</tspan></text>
<text xml:space="preserve" transform="matrix(1 0 -0 1 0 841.89)" font-size="11.95517" font-family="CMMI12" font-style="italic"><tspan y="-607.529" x="168.502 173.73836 178.98667">...</tspan></text>
<text xml:space="preserve" transform="matrix(1 0 -0 1 0 841.89)" font-size="11.95517" font-family="CMR12"><tspan y="-607.529" x="192.205">+</tspan></text>
<text xml:space="preserve" transform="matrix(1 0 -0 1 0 841.89)" font-size="11.95517" font-family="CMMI12" font-style="italic"><tspan y="-607.529" x="211.272">a</tspan></text>
<text xml:space="preserve" transform="matrix(1 0 -0 1 0 841.89)" font-size="7.97011" font-family="CMMI8" font-style="italic"><tspan y="-605.736" x="217.417 224.9089">mn</tspan></text>
<text xml:space="preserve" transform="matrix(1 0 -0 1 0 841.89)" font-size="11.95517" font-family="CMMI12" font-style="italic"><tspan y="-607.529" x="232.536">x</tspan></text>
<text xml:space="preserve" transform="matrix(1 0 -0 1 0 841.89)" font-size="7.97011" font-family="CMMI8" font-style="italic"><tspan y="-605.736" x="239.188">n</tspan></text>
<text xml:space="preserve" transform="matrix(1 0 -0 1 0 841.89)" font-size="11.95517" font-family="CMR12"><tspan y="-607.529" x="363.701">+</tspan></text>
<text xml:space="preserve" transform="matrix(1 0 -0 1 0 841.89)" font-size="11.95517" font-family="CMMI12" font-style="italic"><tspan y="-607.529" x="382.768">x</tspan></text>
<text xml:space="preserve" transform="matrix(1 0 -0 1 0 841.89)" font-size="7.97011" font-family="CMMI8" font-style="italic"><tspan y="-605.736" x="389.421">n</tspan></text>
<text xml:space="preserve" transform="matrix(1 0 -0 1 0 841.89)" font-size="7.97011" font-family="CMR8"><tspan y="-605.736" x="394.559">+</tspan></text>
<text xml:space="preserve" transform="matrix(1 0 -0 1 0 841.89)" font-size="7.97011" font-family="CMMI8" font-style="italic"><tspan y="-605.736" x="401.145">m</tspan></text>
<text xml:space="preserve" transform="matrix(1 0 -0 1 0 841.89)" font-size="11.95517" font-family="CMR12"><tspan y="-607.529" x="419.097">=</tspan></text>
<text xml:space="preserve" transform="matrix(1 0 -0 1 0 841.89)" font-size="11.95517" font-family="CMMI12" font-style="italic"><tspan y="-607.529" x="438.164">b</tspan></text>
<text xml:space="preserve" transform="matrix(1 0 -0 1 0 841.89)" font-size="7.97011" font-family="CMMI8" font-style="italic"><tspan y="-605.736" x="443.141">m</tspan></text>
<text xml:space="preserve" transform="matrix(1 0 -0 1 0 841.89)" font-size="11.95517" font-family="LMRoman12"><tspan y="-631.597" x="502.164 506.71894 512.57699 515.8288 521.6868 527.54489 534.04849">(1.10b)</tspan><tspan y="-588.024" x="60.595 71.31879 74.570598">Mit</tspan></text>
<text xml:space="preserve" transform="matrix(1 0 -0 1 0 841.89)" font-size="11.95517" font-family="CMMI12" font-style="italic"><tspan y="-588.024" x="83.028">x</tspan></text>
<text xml:space="preserve" transform="matrix(1 0 -0 1 0 841.89)" font-size="7.97011" font-family="CMMI8" font-style="italic"><tspan y="-586.231" x="89.68">j</tspan></text>
<text xml:space="preserve" transform="matrix(1 0 -0 1 0 841.89)" font-size="11.95517" font-family="CMSY10" font-style="italic"><tspan y="-588.024" x="97.383">&#x2265;</tspan></text>
<text xml:space="preserve" transform="matrix(1 0 -0 1 0 841.89)" font-size="11.95517" font-family="CMR12"><tspan y="-588.024" x="110.002">0</tspan></text>
<text xml:space="preserve" transform="matrix(1 0 -0 1 0 841.89)" font-size="11.95517" font-family="LMRoman12"><tspan y="-588.024" x="119.757 123.3316 129.8352 138.2875">f&#x00fc;rj</tspan></text>
<text xml:space="preserve" transform="matrix(1 0 -0 1 0 841.89)" font-size="11.95517" font-family="CMR12"><tspan y="-588.024" x="147.182 159.60343">=1</tspan></text>
<text xml:space="preserve" transform="matrix(1 0 -0 1 0 841.89)" font-size="11.95517" font-family="CMMI12" font-style="italic"><tspan y="-588.024" x="165.46 170.69637 175.94467 181.193 186.42935">,...,</tspan></text>
<text xml:space="preserve" transform="matrix(1 0 -0 1 0 841.89)" font-size="11.95517" font-family="LMRoman12"><tspan y="-588.024" x="191.681 198.18462 207.29445 217.04987">n+m.</tspan><tspan y="-559.132" x="56.693 68.7199 71.97171 82.15752 85.409328 96.910198 106.09177 109.343578 114.544078 117.79588 122.68555 128.85442 135.35803 141.86165 152.70499 158.56302 161.81482 167.67285 173.53089 185.03177 190.23227 194.78719 199.40189 202.65369 207.54335 213.71222 218.26714 221.51894 224.77074 229.64846 236.15207 244.38918 247.64098 252.25568 261.80787 268.31147 273.51197 283.0522 290.54808 295.74858 299.00038 307.22554 313.72914 318.92964 328.4818 333.6823 338.23725 344.09529 349.9533 356.4569 361.6574 366.21235 371.41285 382.9137 391.68879 397.8696 403.0701 412.82554 418.02604 421.27784 426.47834 432.65916 437.21409 442.41459 448.91819 458.6736 464.53166 469.08659 473.6415 476.8933">WieinGleichung1.10bersichtlich,istderTeildererg&#x00e4;nztenKoe&#xfb03;zientenmatrix</tspan></text>
<text xml:space="preserve" transform="matrix(1 0 -0 1 0 841.89)" font-size="11.95517" font-family="CMBX12" font-weight="bold"><tspan y="-559.132" x="488.049">A</tspan></text>
<text xml:space="preserve" transform="matrix(1 0 -0 1 0 841.89)" font-size="7.97011" font-family="CMMI8" font-style="italic"><tspan y="-565.243" x="498.206">m</tspan></text>
<text xml:space="preserve" transform="matrix(1 0 -0 1 0 841.89)" font-size="7.97011" font-family="CMSY8" font-style="italic"><tspan y="-565.243" x="505.696">&#x00d7;</tspan></text>
<text xml:space="preserve" transform="matrix(1 0 -0 1 0 841.89)" font-size="7.97011" font-family="CMR8"><tspan y="-565.243" x="512.283">(</tspan></text>
<text xml:space="preserve" transform="matrix(1 0 -0 1 0 841.89)" font-size="7.97011" font-family="CMMI8" font-style="italic"><tspan y="-565.243" x="515.576">n</tspan></text>
<text xml:space="preserve" transform="matrix(1 0 -0 1 0 841.89)" font-size="7.97011" font-family="CMR8"><tspan y="-565.243" x="520.714">+</tspan></text>
<text xml:space="preserve" transform="matrix(1 0 -0 1 0 841.89)" font-size="7.97011" font-family="CMMI8" font-style="italic"><tspan y="-565.243" x="527.301">m</tspan></text>
<text xml:space="preserve" transform="matrix(1 0 -0 1 0 841.89)" font-size="7.97011" font-family="CMR8"><tspan y="-565.243" x="534.791">)</tspan></text>
<text xml:space="preserve" transform="matrix(1 0 -0 1 0 841.89)" font-size="7.97011" font-family="CMMI8" font-style="italic"><tspan y="-555.803" x="498.206 505.76963 509.86628 513.93099 521.42288 525.91799">Normal</tspan></text>
<text xml:space="preserve" transform="matrix(1 0 -0 1 0 841.89)" font-size="11.95517" font-family="LMRoman12"><tspan y="-542.718" x="56.693 61.8935 65.14531 71.648929 81.78691 89.749057 93.00086 99.50447 106.00809 111.20859 114.460399 119.01531 123.630008 133.38542 139.24346 143.79837 148.35329 151.60509">eineEinheitsmatrix</tspan></text>
<text xml:space="preserve" transform="matrix(1 0 -0 1 0 841.89)" font-size="11.95517" font-family="CMBX12" font-weight="bold"><tspan y="-542.718" x="162.741">E</tspan></text>
<text xml:space="preserve" transform="matrix(1 0 -0 1 0 841.89)" font-size="7.97011" font-family="CMMI8" font-style="italic"><tspan y="-547.057" x="171.569">m</tspan></text>
<text xml:space="preserve" transform="matrix(1 0 -0 1 0 841.89)" font-size="7.97011" font-family="CMSY8" font-style="italic"><tspan y="-547.057" x="179.059">&#x00d7;</tspan></text>
<text xml:space="preserve" transform="matrix(1 0 -0 1 0 841.89)" font-size="7.97011" font-family="CMMI8" font-style="italic"><tspan y="-547.057" x="185.646">m</tspan></text>
<text xml:space="preserve" transform="matrix(1 0 -0 1 0 841.89)" font-size="11.95517" font-family="LMRoman12"><tspan y="-542.718" x="193.634 201.83525 210.77773 215.97823 225.73365 232.23726 238.09529 242.98496 254.42606 259.04075 264.24125 268.79618 273.99668 283.4891 288.1038 291.3556 296.24528 307.68638 314.18998 317.44178 327.5917 332.7922 337.34715 345.48863 350.68913 353.94093 358.49586 363.69636 368.25129 372.79426 382.93226 391.7193 397.88816 403.08866 412.8441 418.0446 421.2964 426.4969 432.68968 437.2446 442.4451 448.9487 458.70414 464.56217 469.1171 473.67204 476.92384">.DemnachsetztsichdieerweiterteKoe&#xfb03;zientenmatrix</tspan></text>
<text xml:space="preserve" transform="matrix(1 0 -0 1 0 841.89)" font-size="11.95517" font-family="CMBX12" font-weight="bold"><tspan y="-542.718" x="488.049">A</tspan></text>
<text xml:space="preserve" transform="matrix(1 0 -0 1 0 841.89)" font-size="7.97011" font-family="CMMI8" font-style="italic"><tspan y="-548.829" x="498.206">m</tspan></text>
<text xml:space="preserve" transform="matrix(1 0 -0 1 0 841.89)" font-size="7.97011" font-family="CMSY8" font-style="italic"><tspan y="-548.829" x="505.696">&#x00d7;</tspan></text>
<text xml:space="preserve" transform="matrix(1 0 -0 1 0 841.89)" font-size="7.97011" font-family="CMR8"><tspan y="-548.829" x="512.283">(</tspan></text>
<text xml:space="preserve" transform="matrix(1 0 -0 1 0 841.89)" font-size="7.97011" font-family="CMMI8" font-style="italic"><tspan y="-548.829" x="515.576">n</tspan></text>
<text xml:space="preserve" transform="matrix(1 0 -0 1 0 841.89)" font-size="7.97011" font-family="CMR8"><tspan y="-548.829" x="520.714">+</tspan></text>
<text xml:space="preserve" transform="matrix(1 0 -0 1 0 841.89)" font-size="7.97011" font-family="CMMI8" font-style="italic"><tspan y="-548.829" x="527.301">m</tspan></text>
<text xml:space="preserve" transform="matrix(1 0 -0 1 0 841.89)" font-size="7.97011" font-family="CMR8"><tspan y="-548.829" x="534.791">)</tspan></text>
<text xml:space="preserve" transform="matrix(1 0 -0 1 0 841.89)" font-size="7.97011" font-family="CMMI8" font-style="italic"><tspan y="-539.389" x="498.206 505.76963 509.86628 513.93099 521.42288 525.91799">Normal</tspan></text>
<text xml:space="preserve" transform="matrix(1 0 -0 1 0 841.89)" font-size="11.95517" font-family="LMRoman12"><tspan y="-528.273" x="56.693 62.551034 69.05464 78.164478 84.66809 89.86859 98.9306 107.71765 113.88652 119.08702 128.84244 134.04294 137.29474 142.49524 148.68802 153.24294 158.44344 164.94705 174.70247 180.5605 185.11542 189.67034 192.92214 203.5981 206.8499 217.84867 224.02948 229.88751 236.39113 242.24916 248.75278 252.00458 256.61927 261.50895 268.01255 273.21305 282.26313 288.93409 294.7921 299.34706">ausderKoe&#xfb03;zientenmatrixinkanonischerForm</tspan></text>
<text xml:space="preserve" transform="matrix(1 0 -0 1 0 841.89)" font-size="11.95517" font-family="CMBX12" font-weight="bold"><tspan y="-528.273" x="313.58">A</tspan></text>
<text xml:space="preserve" transform="matrix(1 0 -0 1 0 841.89)" font-size="7.97011" font-family="CMMI8" font-style="italic"><tspan y="-533.221" x="323.736">m</tspan></text>
<text xml:space="preserve" transform="matrix(1 0 -0 1 0 841.89)" font-size="7.97011" font-family="CMSY8" font-style="italic"><tspan y="-533.221" x="331.227">&#x00d7;</tspan></text>
<text xml:space="preserve" transform="matrix(1 0 -0 1 0 841.89)" font-size="7.97011" font-family="CMMI8" font-style="italic"><tspan y="-533.221" x="337.813">n</tspan><tspan y="-524.943" x="323.736 331.43513 335.93028 341.07099 345.16764 350.30836 353.19355 357.10688 360.77314">Kanonisch</tspan></text>
<text xml:space="preserve" transform="matrix(1 0 -0 1 0 841.89)" font-size="11.95517" font-family="LMRoman12"><tspan y="-528.273" x="370.658 377.1616 383.6652 394.66395 401.16755 406.36805 415.43009 420.63059 431.6413 438.1449 443.3454 454.3561 460.8597 465.73744 472.24104 475.49284 481.99644 488.50004 492.07463 497.60987 503.4679 508.02284 511.27464 517.1327 523.6363 526.8881 532.0886">undderzudenSchlupfvariablen</tspan><tspan y="-513.827" x="56.693 62.551034 67.75153 74.25514 80.113178 84.66809 89.86859 96.37221 102.875827 108.076328 118.477329 126.43947 129.69127 136.19489 142.6985 147.899 151.1508 155.70572 160.32042 170.07584 175.93387 180.48879 185.0437 188.2955">geh&#x00f6;rendenEinheitsmatrix</tspan></text>
<text xml:space="preserve" transform="matrix(1 0 -0 1 0 841.89)" font-size="11.95517" font-family="CMBX12" font-weight="bold"><tspan y="-513.827" x="198.368">E</tspan></text>
<text xml:space="preserve" transform="matrix(1 0 -0 1 0 841.89)" font-size="7.97011" font-family="CMMI8" font-style="italic"><tspan y="-518.165" x="207.196">m</tspan></text>
<text xml:space="preserve" transform="matrix(1 0 -0 1 0 841.89)" font-size="7.97011" font-family="CMSY8" font-style="italic"><tspan y="-518.165" x="214.686">&#x00d7;</tspan></text>
<text xml:space="preserve" transform="matrix(1 0 -0 1 0 841.89)" font-size="7.97011" font-family="CMMI8" font-style="italic"><tspan y="-518.165" x="221.273">m</tspan></text>
<text xml:space="preserve" transform="matrix(1 0 -0 1 0 841.89)" font-size="11.95517" font-family="LMRoman12"><tspan y="-513.827" x="233.163 238.3635 244.86711 249.48181 255.33985 265.09529 274.8507 280.0512 286.5548 293.704">zusammen:[</tspan></text>
<text xml:space="preserve" transform="matrix(1 0 -0 1 0 841.89)" font-size="11.95517" font-family="LMRoman12" font-weight="bold"><tspan y="-513.827" x="296.962">?</tspan></text>
<text xml:space="preserve" transform="matrix(1 0 -0 1 0 841.89)" font-size="11.95517" font-family="LMRoman12"><tspan y="-513.827" x="303.313">]</tspan></text>
<text xml:space="preserve" transform="matrix(1 0 -0 1 0 841.89)" font-size="11.95517" font-family="CMBX12" font-weight="bold"><tspan y="-484.935" x="212.802">A</tspan></text>
<text xml:space="preserve" transform="matrix(1 0 -0 1 0 841.89)" font-size="7.97011" font-family="CMMI8" font-style="italic"><tspan y="-491.045" x="222.958">m</tspan></text>
<text xml:space="preserve" transform="matrix(1 0 -0 1 0 841.89)" font-size="7.97011" font-family="CMSY8" font-style="italic"><tspan y="-491.045" x="230.449">&#x00d7;</tspan></text>
<text xml:space="preserve" transform="matrix(1 0 -0 1 0 841.89)" font-size="7.97011" font-family="CMR8"><tspan y="-491.045" x="237.035">(</tspan></text>
<text xml:space="preserve" transform="matrix(1 0 -0 1 0 841.89)" font-size="7.97011" font-family="CMMI8" font-style="italic"><tspan y="-491.045" x="240.329">n</tspan></text>
<text xml:space="preserve" transform="matrix(1 0 -0 1 0 841.89)" font-size="7.97011" font-family="CMR8"><tspan y="-491.045" x="245.467">+</tspan></text>
<text xml:space="preserve" transform="matrix(1 0 -0 1 0 841.89)" font-size="7.97011" font-family="CMMI8" font-style="italic"><tspan y="-491.045" x="252.053">m</tspan></text>
<text xml:space="preserve" transform="matrix(1 0 -0 1 0 841.89)" font-size="7.97011" font-family="CMR8"><tspan y="-491.045" x="259.544">)</tspan></text>
<text xml:space="preserve" transform="matrix(1 0 -0 1 0 841.89)" font-size="7.97011" font-family="CMMI8" font-style="italic"><tspan y="-481.605" x="222.958 230.52162 234.61826 238.68302 246.17491 250.67006">Normal</tspan></text>
<text xml:space="preserve" transform="matrix(1 0 -0 1 0 841.89)" font-size="11.95517" font-family="CMR12"><tspan y="-484.935" x="266.656">=</tspan></text>
<text xml:space="preserve" transform="matrix(1 0 -0 1 0 841.89)" font-size="11.95517" font-family="CMEX10"><tspan y="-494.619" x="279.082">&#xfffd;</tspan></text>
<text xml:space="preserve" transform="matrix(1 0 -0 1 0 841.89)" font-size="11.95517" font-family="CMBX12" font-weight="bold"><tspan y="-484.935" x="284.063">A</tspan></text>
<text xml:space="preserve" transform="matrix(1 0 -0 1 0 841.89)" font-size="7.97011" font-family="CMMI8" font-style="italic"><tspan y="-489.883" x="294.219">m</tspan></text>
<text xml:space="preserve" transform="matrix(1 0 -0 1 0 841.89)" font-size="7.97011" font-family="CMSY8" font-style="italic"><tspan y="-489.883" x="301.71">&#x00d7;</tspan></text>
<text xml:space="preserve" transform="matrix(1 0 -0 1 0 841.89)" font-size="7.97011" font-family="CMMI8" font-style="italic"><tspan y="-489.883" x="308.296">n</tspan><tspan y="-481.605" x="294.219 301.91813 306.41328 311.554 315.65065 320.79136 323.67655 327.58988 331.25614">Kanonisch</tspan></text>
<text xml:space="preserve" transform="matrix(1 0 -0 1 0 841.89)" font-size="11.95517" font-family="CMSY10" font-style="italic"><tspan y="-484.935" x="339.957">|</tspan></text>
<text xml:space="preserve" transform="matrix(1 0 -0 1 0 841.89)" font-size="11.95517" font-family="CMBX12" font-weight="bold"><tspan y="-484.935" x="346.599">E</tspan></text>
<text xml:space="preserve" transform="matrix(1 0 -0 1 0 841.89)" font-size="7.97011" font-family="CMMI8" font-style="italic"><tspan y="-489.871" x="355.427">m</tspan></text>
<text xml:space="preserve" transform="matrix(1 0 -0 1 0 841.89)" font-size="7.97011" font-family="CMSY8" font-style="italic"><tspan y="-489.871" x="362.917">&#x00d7;</tspan></text>
<text xml:space="preserve" transform="matrix(1 0 -0 1 0 841.89)" font-size="7.97011" font-family="CMMI8" font-style="italic"><tspan y="-489.871" x="369.504">m</tspan></text>
<text xml:space="preserve" transform="matrix(1 0 -0 1 0 841.89)" font-size="11.95517" font-family="CMEX10"><tspan y="-494.619" x="377.492">&#xfffd;</tspan></text>
<text xml:space="preserve" transform="matrix(1 0 -0 1 0 841.89)" font-size="11.95517" font-family="LMRoman12"><tspan y="-484.935" x="508.667 513.2219 519.07998 522.3318 528.1898 534.04788">(1.11)</tspan><tspan y="-464.549" x="56.693 63.363985 69.222019 72.47382 78.331859 81.583667 84.83547 89.71318 99.6838 102.93561 108.79364 113.42029 118.03498 126.068859 130.68355 133.93535 138.82501 148.80759 155.3112 158.563 167.25441 170.50621 173.75801 180.26163 185.46213 191.32016 195.87508 204.55454 213.66437 220.16799 224.7229 227.9747 237.73012 240.98192 246.18242 250.73734 257.24095 263.74455 269.60258 274.21726 280.0753 286.5789 290.15348 296.0115 301.86955 308.69593 317.38734 320.63914 330.63365 339.7315 346.2351 350.79005 355.99055 359.56513 365.42317 369.9781 383.22444 392.97987 396.23167 404.2775 415.00129 420.8593 425.41426 429.96919 433.22099 439.4018 444.01649 448.8942 455.3978 459.95274 465.15324 468.40504 474.58586 482.71537 487.91587 491.16767 495.78236 504.4618 508.03639 513.8944 517.14627 523.0043 528.2048 534.7084">Folglichl&#x00e4;sstsichdielineareOptimierungsaufgabeinKurzformmitMatrixschreibweisefolgen-</tspan><tspan y="-450.104" x="56.693 63.196615 68.39711 72.95203 82.70744 88.565479 101.5727 106.7732 117.174198 124.0006 129.2011 133.8158 138.70546 145.20908 149.76399 154.9645 158.2163 165.03075 170.23125 176.73487 183.88405">derma&#xfffd;enbeschreiben:[</tspan></text>
<text xml:space="preserve" transform="matrix(1 0 -0 1 0 841.89)" font-size="11.95517" font-family="LMRoman12" font-weight="bold"><tspan y="-450.104" x="187.151">?</tspan></text>
<text xml:space="preserve" transform="matrix(1 0 -0 1 0 841.89)" font-size="11.95517" font-family="LMRoman12"><tspan y="-450.104" x="193.503">]</tspan><tspan y="-421.212" x="226.056 235.81142 241.66945">max</tspan></text>
<text xml:space="preserve" transform="matrix(1 0 -0 1 0 841.89)" font-size="11.95517" font-family="CMSY10" font-style="italic"><tspan y="-421.212" x="247.842">{</tspan></text>
<text xml:space="preserve" transform="matrix(1 0 -0 1 0 841.89)" font-size="11.95517" font-family="CMBX12" font-weight="bold"><tspan y="-421.212" x="253.82">c</tspan></text>
<text xml:space="preserve" transform="matrix(1 0 -0 1 0 841.89)" font-size="7.97011" font-family="MSAM10"><tspan y="-426.148" x="259.798">&#x22ba;</tspan></text>
<text xml:space="preserve" transform="matrix(1 0 -0 1 0 841.89)" font-size="11.95517" font-family="CMBX12" font-weight="bold"><tspan y="-421.212" x="266.716">x</tspan></text>
<text xml:space="preserve" transform="matrix(1 0 -0 1 0 841.89)" font-size="11.95517" font-family="CMSY10" font-style="italic"><tspan y="-421.212" x="277.135">|</tspan></text>
<text xml:space="preserve" transform="matrix(1 0 -0 1 0 841.89)" font-size="11.95517" font-family="CMBX12" font-weight="bold"><tspan y="-421.212" x="283.777 295.92347">Ax</tspan></text>
<text xml:space="preserve" transform="matrix(1 0 -0 1 0 841.89)" font-size="11.95517" font-family="CMR12"><tspan y="-421.212" x="306.345">=</tspan></text>
<text xml:space="preserve" transform="matrix(1 0 -0 1 0 841.89)" font-size="11.95517" font-family="CMBX12" font-weight="bold"><tspan y="-421.212" x="318.77">b</tspan></text>
<text xml:space="preserve" transform="matrix(1 0 -0 1 0 841.89)" font-size="11.95517" font-family="CMMI12" font-style="italic"><tspan y="-421.212" x="326.242">,</tspan></text>
<text xml:space="preserve" transform="matrix(1 0 -0 1 0 841.89)" font-size="11.95517" font-family="CMBX12" font-weight="bold"><tspan y="-421.212" x="333.479">x</tspan></text>
<text xml:space="preserve" transform="matrix(1 0 -0 1 0 841.89)" font-size="11.95517" font-family="CMSY10" font-style="italic"><tspan y="-421.212" x="343.898">&#x2265;</tspan></text>
<text xml:space="preserve" transform="matrix(1 0 -0 1 0 841.89)" font-size="11.95517" font-family="CMBX12" font-weight="bold"><tspan y="-421.212" x="356.518">0</tspan></text>
<text xml:space="preserve" transform="matrix(1 0 -0 1 0 841.89)" font-size="11.95517" font-family="CMSY10" font-style="italic"><tspan y="-421.212" x="363.242">}</tspan></text>
<text xml:space="preserve" transform="matrix(1 0 -0 1 0 841.89)" font-size="11.95517" font-family="LMRoman12"><tspan y="-421.212" x="508.667 513.2219 519.07998 522.3318 528.1898 534.04788">(1.12)</tspan><tspan y="-400.826" x="56.693 60.913179 74.07582 80.7468 86.604839 89.85664 95.714679 100.91518 107.41879 113.92241 119.12291 129.03376 134.89179 140.09229 146.5959 151.7964 161.7192 170.1715 173.4233 181.38544 187.88906 193.43625 199.28232 205.14035 215.0512 220.90923 227.41284 232.02754 238.69852 245.20214 251.06017 255.67487 263.69679 270.20039 273.45219 282.07188 285.32368 288.57548 295.07908 300.27958 306.1376 310.69255 315.89305 325.80387 334.9137 341.4173 345.97224 349.22404 358.97947 362.23127 367.43177 371.9867 378.4903 384.9939 390.85194 395.4666 401.32466 407.82826 411.40284 417.26087 423.1189 429.94529 435.14579 445.06858 451.89497 457.09547 461.6504 466.8509 470.1027 474.65763 482.6915 485.9433 495.85414 502.35774 507.55824 515.53237 524.30746 530.16549 534.7204">ImFolgendengehenwirdavonaus,dassdielinearenOptimierungsaufgabenbereitsinderNor-</tspan><tspan y="-386.381" x="56.693 66.44842 72.30645 75.55826 79.13285 84.99088 89.5458 103.07905 108.93708 114.13758 119.99561 125.19611 132.0225 137.223 147.50446 152.11916 155.37096 161.87458 168.37819 175.41979 183.38193 189.56276 194.11768 198.73238 205.236 209.79091 214.99141 219.86913 226.37274 231.57324 238.07686 248.34636 251.59816 256.21287 264.5576 270.41563 276.27366 280.82859 286.6866 293.19023 297.8049 303.66294 308.86344 313.47813 318.67863 323.23356 328.43406 332.98899 340.01863 346.52223 352.38026 356.99494 365.38746 371.89106 375.14286 384.1212 392.90824 399.0771 404.2776 414.03303 419.23353 422.48533 427.68583 433.8786 438.43354 443.63404 450.13764 459.89308 465.7511 470.30604 474.86097 478.11277">malformgegebensind.Entsprechendistvorausgesetzt,dassdieKoe&#xfb03;zientenmatrix</tspan></text>
<text xml:space="preserve" transform="matrix(1 0 -0 1 0 841.89)" font-size="11.95517" font-family="CMBX12" font-weight="bold"><tspan y="-386.381" x="488.049">A</tspan></text>
<text xml:space="preserve" transform="matrix(1 0 -0 1 0 841.89)" font-size="7.97011" font-family="CMMI8" font-style="italic"><tspan y="-390.719" x="498.206">m</tspan></text>
<text xml:space="preserve" transform="matrix(1 0 -0 1 0 841.89)" font-size="7.97011" font-family="CMSY8" font-style="italic"><tspan y="-390.719" x="505.696">&#x00d7;</tspan></text>
<text xml:space="preserve" transform="matrix(1 0 -0 1 0 841.89)" font-size="7.97011" font-family="CMR8"><tspan y="-390.719" x="512.283">(</tspan></text>
<text xml:space="preserve" transform="matrix(1 0 -0 1 0 841.89)" font-size="7.97011" font-family="CMMI8" font-style="italic"><tspan y="-390.719" x="515.576">n</tspan></text>
<text xml:space="preserve" transform="matrix(1 0 -0 1 0 841.89)" font-size="7.97011" font-family="CMR8"><tspan y="-390.719" x="520.714">+</tspan></text>
<text xml:space="preserve" transform="matrix(1 0 -0 1 0 841.89)" font-size="7.97011" font-family="CMMI8" font-style="italic"><tspan y="-390.719" x="527.301">m</tspan></text>
<text xml:space="preserve" transform="matrix(1 0 -0 1 0 841.89)" font-size="7.97011" font-family="CMR8"><tspan y="-390.719" x="534.791">)</tspan></text>
<text xml:space="preserve" transform="matrix(1 0 -0 1 0 841.89)" font-size="11.95517" font-family="LMRoman12"><tspan y="-371.935" x="56.693 63.196615 68.39711 78.36773 86.987407 92.845439 99.349048 108.67408 121.908458 128.73485 133.93535 138.55005 141.80185 146.35677 151.55727 156.11219 162.84294 169.34656 175.20459 184.96 188.2118 196.23372 200.84842 204.10022 210.60384 220.58641 226.44445 229.69625 232.94805 241.61554 250.7971 254.0489 259.2494 262.5012 267.39088 273.55973 280.06333 286.56694 292.42497 297.62547 307.59608 310.84788 314.09968 320.60328 325.80378 331.6618 339.68376 346.18736 352.69096 358.54899 365.05259 371.55619 377.4142 383.91783 389.77586 393.02766 398.88569 405.61643 417.6433 420.8951 428.91706 435.42066 440.62117 447.12477 453.62837 456.88017 462.08067 466.6356 471.8361 481.81864 487.01914 490.27095 496.77455 505.44206 514.21719 520.4099 524.96487 530.16537 534.7203">denRangmbesitzt.SomitsindalleGleichungenlinearunabh&#x00e4;ngig.Wirde&#xfb01;niereneineUnter-</tspan><tspan y="-357.489" x="56.693 66.44842 72.30645 76.86137 81.41628 84.66809">matrix</tspan></text>
<text xml:space="preserve" transform="matrix(1 0 -0 1 0 841.89)" font-size="11.95517" font-family="CMBX12" font-weight="bold"><tspan y="-357.489" x="95.214">B</tspan></text>
<text xml:space="preserve" transform="matrix(1 0 -0 1 0 841.89)" font-size="7.97011" font-family="CMMI8" font-style="italic"><tspan y="-361.827" x="104.775">m</tspan></text>
<text xml:space="preserve" transform="matrix(1 0 -0 1 0 841.89)" font-size="7.97011" font-family="CMSY8" font-style="italic"><tspan y="-361.827" x="112.266">&#x00d7;</tspan></text>
<text xml:space="preserve" transform="matrix(1 0 -0 1 0 841.89)" font-size="7.97011" font-family="CMMI8" font-style="italic"><tspan y="-361.827" x="118.852">m</tspan></text>
<text xml:space="preserve" transform="matrix(1 0 -0 1 0 841.89)" font-size="11.95517" font-family="LMRoman12"><tspan y="-357.489" x="126.841 134.4684 140.97202 144.22382 153.79991 159.65795 166.16156 175.15186 181.65547 186.85597 197.73519 211.8662 215.118 218.3698 224.87342 230.07392 235.93195 244.8744 251.37802 257.88163 263.73966 270.24327 276.74687 282.6049 289.1085 294.96653 298.21833 304.07637 309.27687 320.15605 326.65965 333.16325 339.02128 342.27308 346.828 352.0285 362.90769 369.4113 374.6118 383.5423 392.32936 398.4982 403.6987 413.45414 418.65464 421.90644 427.10694 433.2997 437.85466 443.05516 449.55876 459.31419 465.16026 469.71519 474.2701 477.5219">,dieausdenmlinearunabh&#x00e4;ngigenSpaltenderKoe&#xfb03;zientenmatrix</tspan></text>
<text xml:space="preserve" transform="matrix(1 0 -0 1 0 841.89)" font-size="11.95517" font-family="CMBX12" font-weight="bold"><tspan y="-357.489" x="488.049">A</tspan></text>
<text xml:space="preserve" transform="matrix(1 0 -0 1 0 841.89)" font-size="7.97011" font-family="CMMI8" font-style="italic"><tspan y="-361.827" x="498.206">m</tspan></text>
<text xml:space="preserve" transform="matrix(1 0 -0 1 0 841.89)" font-size="7.97011" font-family="CMSY8" font-style="italic"><tspan y="-361.827" x="505.696">&#x00d7;</tspan></text>
<text xml:space="preserve" transform="matrix(1 0 -0 1 0 841.89)" font-size="7.97011" font-family="CMR8"><tspan y="-361.827" x="512.283">(</tspan></text>
<text xml:space="preserve" transform="matrix(1 0 -0 1 0 841.89)" font-size="7.97011" font-family="CMMI8" font-style="italic"><tspan y="-361.827" x="515.576">n</tspan></text>
<text xml:space="preserve" transform="matrix(1 0 -0 1 0 841.89)" font-size="7.97011" font-family="CMR8"><tspan y="-361.827" x="520.714">+</tspan></text>
<text xml:space="preserve" transform="matrix(1 0 -0 1 0 841.89)" font-size="7.97011" font-family="CMMI8" font-style="italic"><tspan y="-361.827" x="527.301">m</tspan></text>
<text xml:space="preserve" transform="matrix(1 0 -0 1 0 841.89)" font-size="7.97011" font-family="CMR8"><tspan y="-361.827" x="534.791">)</tspan></text>
<text xml:space="preserve" transform="matrix(1 0 -0 1 0 841.89)" font-size="11.95517" font-family="LMRoman12"><tspan y="-343.043" x="56.693 62.551034 67.75153 74.25514 77.50695 80.75876 87.262378 92.462879 102.17047 110.62277 113.87458 118.4295 124.933109 133.33759 142.28006 145.53186 155.89699 162.4006 168.90422 174.76226 178.01406 182.56897 187.76947 199.42577 205.92938 211.12989 220.83748 231.56127 237.4193 241.97422 246.52913 249.78093">gebildetwird.DieSpaltenderMatrix</tspan></text>
<text xml:space="preserve" transform="matrix(1 0 -0 1 0 841.89)" font-size="11.95517" font-family="CMBX12" font-weight="bold"><tspan y="-343.043" x="261.104">B</tspan></text>
<text xml:space="preserve" transform="matrix(1 0 -0 1 0 841.89)" font-size="7.97011" font-family="CMMI8" font-style="italic"><tspan y="-347.382" x="270.666">m</tspan></text>
<text xml:space="preserve" transform="matrix(1 0 -0 1 0 841.89)" font-size="7.97011" font-family="CMSY8" font-style="italic"><tspan y="-347.382" x="278.156">&#x00d7;</tspan></text>
<text xml:space="preserve" transform="matrix(1 0 -0 1 0 841.89)" font-size="7.97011" font-family="CMMI8" font-style="italic"><tspan y="-347.382" x="284.743">m</tspan></text>
<text xml:space="preserve" transform="matrix(1 0 -0 1 0 841.89)" font-size="11.95517" font-family="LMRoman12"><tspan y="-343.043" x="297.886 304.71238 309.91288 315.11338 320.31388 323.56568 328.4434 334.947 341.4506 346.6511 356.3587 366.11415 371.97218 383.62846 389.48649 392.73829 402.50566 410.7906 416.64863 421.2633 424.5151 429.1298 434.9998 440.2003 446.3811 450.93605 456.79408 461.349 466.5495 478.19383 484.69743 491.20103 502.8573 509.3609 512.61276 522.9659 528.1664 534.67">bezeichnetmanalsBasisvektorenunddiezu-</tspan><tspan y="-328.597" x="56.693 62.551034 67.75153 74.25514 80.113178 84.66809 87.9199 93.77793 98.97843">geh&#x00f6;rigen</tspan></text>
<text xml:space="preserve" transform="matrix(1 0 -0 1 0 841.89)" font-size="11.95517" font-family="CMMI12" font-style="italic"><tspan y="-328.597" x="109.944">x</tspan></text>
<text xml:space="preserve" transform="matrix(1 0 -0 1 0 841.89)" font-size="7.97011" font-family="CMMI8" font-style="italic"><tspan y="-326.804" x="116.597">j</tspan></text>
<text xml:space="preserve" transform="matrix(1 0 -0 1 0 841.89)" font-size="11.95517" font-family="LMRoman12"><tspan y="-328.597" x="125.455 131.95862 137.15912 143.66274 149.84357 158.86972 168.62514 174.48317 185.45803 193.74295 199.60099 204.21569 207.46749 212.08219 217.62938 223.48741 228.04233 231.29413 237.15216 243.65578 246.90758 252.10808 258.6117 266.32279 275.26527 278.51707 288.20075 292.75569 297.95619 302.57087 307.1258 310.3776 313.6294 318.5071 325.0107 330.2112 341.18605 347.68965 350.94145 355.83113 361.99998 371.02613 374.27793 377.52973 384.03334 389.23384 395.09187 404.118 410.6216 417.1252 422.98326 429.48686 435.99046 441.84849 448.35209 454.2101 457.4619 463.31996 468.52046 479.49528 485.99888 492.50248 498.3605 501.6123 506.16725 511.36775 522.35458 528.85818 534.05868">nenntmanBasisvariablen.Dierestlichennichtlinearunabh&#x00e4;ngigenSpaltender</tspan><tspan y="-314.151" x="56.693 65.468097 71.64892 76.84942 86.604839 91.805339 95.057147 100.257648 106.43847 110.993389 116.193889 122.697498 132.45291 138.31095 142.86586 147.42078 150.67258">Koe&#xfb03;zientenmatrix</tspan></text>
<text xml:space="preserve" transform="matrix(1 0 -0 1 0 841.89)" font-size="11.95517" font-family="CMBX12" font-weight="bold"><tspan y="-314.151" x="162.168">A</tspan></text>
<text xml:space="preserve" transform="matrix(1 0 -0 1 0 841.89)" font-size="7.97011" font-family="CMMI8" font-style="italic"><tspan y="-318.49" x="172.324">m</tspan></text>
<text xml:space="preserve" transform="matrix(1 0 -0 1 0 841.89)" font-size="7.97011" font-family="CMSY8" font-style="italic"><tspan y="-318.49" x="179.815">&#x00d7;</tspan></text>
<text xml:space="preserve" transform="matrix(1 0 -0 1 0 841.89)" font-size="7.97011" font-family="CMR8"><tspan y="-318.49" x="186.401">(</tspan></text>
<text xml:space="preserve" transform="matrix(1 0 -0 1 0 841.89)" font-size="7.97011" font-family="CMMI8" font-style="italic"><tspan y="-318.49" x="189.695">n</tspan></text>
<text xml:space="preserve" transform="matrix(1 0 -0 1 0 841.89)" font-size="7.97011" font-family="CMR8"><tspan y="-318.49" x="194.833">+</tspan></text>
<text xml:space="preserve" transform="matrix(1 0 -0 1 0 841.89)" font-size="7.97011" font-family="CMMI8" font-style="italic"><tspan y="-318.49" x="201.419">m</tspan></text>
<text xml:space="preserve" transform="matrix(1 0 -0 1 0 841.89)" font-size="7.97011" font-family="CMR8"><tspan y="-318.49" x="208.91">)</tspan></text>
<text xml:space="preserve" transform="matrix(1 0 -0 1 0 841.89)" font-size="11.95517" font-family="LMRoman12"><tspan y="-314.151" x="218.028 224.53162 229.73212 232.98392 245.99115 251.19165 263.0153 271.79039 275.04219 279.93186 286.1007 290.65565 297.15925 303.01728 307.63197 310.88377 315.49845 321.35649 326.55699 332.7378 337.29273 343.15077 347.7057 352.9062 364.72984 371.23344 377.73704 389.56068 396.06428 399.31608 409.84858 415.04908 421.2299 425.78483 430.3995 436.9031 441.45805 446.65855 451.53627 458.03987 463.24037 469.74397 476.24757 481.44807">hei&#xfffd;enNichtbasisvektorenunddieentsprechenden</tspan></text>
<text xml:space="preserve" transform="matrix(1 0 -0 1 0 841.89)" font-size="11.95517" font-family="CMMI12" font-style="italic"><tspan y="-314.151" x="493.282">x</tspan></text>
<text xml:space="preserve" transform="matrix(1 0 -0 1 0 841.89)" font-size="7.97011" font-family="CMMI8" font-style="italic"><tspan y="-312.358" x="499.934">j</tspan></text>
<text xml:space="preserve" transform="matrix(1 0 -0 1 0 841.89)" font-size="11.95517" font-family="LMRoman12"><tspan y="-314.151" x="509.642 516.1456 521.3461 527.84976 534.0305">nennt</tspan><tspan y="-299.706" x="56.693 66.44842 72.30645 84.14207 92.91716 96.16897 101.05863 107.23945 111.794368 118.29797 124.156009 128.7707 132.0225 136.6372 142.16049 148.01853 152.57344 155.82524 161.68328 168.18689 171.43869 176.63919 183.1428 191.73857 195.95874 211.04616 219.82126 223.07306 226.32486 232.18289 237.38339 247.13881 252.33931 255.59111 262.09474 267.29524 279.1428 287.5951 290.8469 295.40184">manNichtbasisvariablen.ImAllgemeinenwird</tspan></text>
<text xml:space="preserve" transform="matrix(1 0 -0 1 0 841.89)" font-size="11.95517" font-family="CMSY10" font-style="italic"><tspan y="-299.706" x="307.233">B</tspan></text>
<text xml:space="preserve" transform="matrix(1 0 -0 1 0 841.89)" font-size="11.95517" font-family="LMRoman12"><tspan y="-299.706" x="320.788 326.64604 329.89784 339.8445 346.3481 349.5999 360.14439 370.86817 376.06867 382.57228 388.4303 398.9628 405.4664 410.6669 420.5658 424.78599 431.28959 437.79319 441.04499 446.24549 451.44599 461.39268 467.89628 473.09678 482.99568 491.2806 497.13865 501.75334 505.00514 509.6198 515.16708 521.0251 525.56808 528.8199 534.6779">alsdieMengederIndizesderBasisvaria-</tspan><tspan y="-285.26" x="56.693 63.196615 66.44842 71.64892 81.966228 88.46983 93.670337 100.17395 106.67757 109.929378 115.129878 119.68479 124.23971 131.30522 140.08032 146.58394 152.44197 155.69377 161.5518 171.22354 175.83824 180.39316 185.59366 188.84546 192.09726">blende&#xfb01;niert.Analogstellt</tspan></text>
<text xml:space="preserve" transform="matrix(1 0 -0 1 0 841.89)" font-size="11.95517" font-family="CMSY10" font-style="italic"><tspan y="-285.26" x="200.468">N</tspan></text>
<text xml:space="preserve" transform="matrix(1 0 -0 1 0 841.89)" font-size="11.95517" font-family="LMRoman12"><tspan y="-285.26" x="215.857 222.36061 225.61241 234.62662 245.3504 250.5509 257.0545 262.91255 271.92674 278.43034 283.63084 291.99946 296.2316 302.7352 309.2388 312.4906 317.6911 322.8916 331.31999 337.82359 343.02409 351.3927 360.1678 363.4196 368.30928 374.49009 379.045 385.5486 391.40666 396.02134 399.27314 403.88783 409.4111 415.26914 419.82408 423.07588 428.9339 435.4375 438.6893 443.8898 454.2071 460.7107 466.56874 471.12367 478.18916 488.91294 492.16474 496.71968 503.22328 506.47508 509.72688 513.30148 522.3157 528.8193 534.0198">dieMengederIndizesderNichtbasisvariablendar.Mithilfeder</tspan><tspan y="-270.814" x="56.693 65.468097 71.326129 75.88104 81.739078 86.29399 89.5458 95.40383 101.90744 107.10794 118.57295 124.430988 130.28902">Notationenvon</tspan></text>
<text xml:space="preserve" transform="matrix(1 0 -0 1 0 841.89)" font-size="11.95517" font-family="CMSY10" font-style="italic"><tspan y="-270.814" x="141.729">B</tspan></text>
<text xml:space="preserve" transform="matrix(1 0 -0 1 0 841.89)" font-size="11.95517" font-family="LMRoman12"><tspan y="-270.814" x="154.908 161.41162 167.91524">und</tspan></text>
<text xml:space="preserve" transform="matrix(1 0 -0 1 0 841.89)" font-size="11.95517" font-family="CMSY10" font-style="italic"><tspan y="-270.814" x="179.383">N</tspan></text>
<text xml:space="preserve" transform="matrix(1 0 -0 1 0 841.89)" font-size="11.95517" font-family="LMRoman12"><tspan y="-270.814" x="195.917 199.16881 205.02684 209.64154 214.25624 223.77256 228.38726 231.63906 236.51677 247.98178 254.4854 257.7372 267.8991 273.0996 279.28044 283.83537 288.45005 294.95365 299.50859 304.70909 309.5868 316.0904 321.2909 327.7945 334.2981 344.44804 353.2231 359.4159 363.97084 369.17134 373.72627 383.4817 389.33973 393.89466 398.4496 401.7014 412.83164 419.33525 424.53575 432.98805 441.2132 449.49815 455.35618 459.97087 463.22267 467.83735 477.59278 483.4508 488.00575 492.56068 495.81248">l&#x00e4;sstsichdieentsprechendeUntermatrixbzw.Basismatrix</tspan></text>
<text xml:space="preserve" transform="matrix(1 0 -0 1 0 841.89)" font-size="11.95517" font-family="CMBX12" font-weight="bold"><tspan y="-270.814" x="506.956">B</tspan></text>
<text xml:space="preserve" transform="matrix(1 0 -0 1 0 841.89)" font-size="7.97011" font-family="CMMI8" font-style="italic"><tspan y="-275.152" x="516.517">m</tspan></text>
<text xml:space="preserve" transform="matrix(1 0 -0 1 0 841.89)" font-size="7.97011" font-family="CMSY8" font-style="italic"><tspan y="-275.152" x="524.008">&#x00d7;</tspan></text>
<text xml:space="preserve" transform="matrix(1 0 -0 1 0 841.89)" font-size="7.97011" font-family="CMMI8" font-style="italic"><tspan y="-275.152" x="530.594">m</tspan></text>
<text xml:space="preserve" transform="matrix(1 0 -0 1 0 841.89)" font-size="11.95517" font-family="LMRoman12"><tspan y="-256.368" x="56.693 62.551034 65.80284 70.35776 75.55826 80.113178 86.61679 92.47482 97.02974 100.28155 110.35976 116.21779 122.721408 127.59911 138.0001 141.5747 147.43274 150.68454 156.54257 161.74308 168.24669 174.7503 179.9508 184.50572 194.26114 200.11917 213.1264 218.3269 228.7279 238.48332 244.34136 248.89627 255.39989 260.60038 270.3558 276.21385 280.76878 284.02058 288.63526 293.52494 303.91398 307.48857 313.3466 317.90153 327.34614 333.84974 337.10154 340.35334 345.55384 350.10877 355.30928 361.81288 368.9501">alternativauchfolgenderma&#xfffd;enmathematischformulieren:[</tspan></text>
<text xml:space="preserve" transform="matrix(1 0 -0 1 0 841.89)" font-size="11.95517" font-family="LMRoman12" font-weight="bold"><tspan y="-256.368" x="372.174">?</tspan></text>
<text xml:space="preserve" transform="matrix(1 0 -0 1 0 841.89)" font-size="11.95517" font-family="LMRoman12"><tspan y="-256.368" x="378.525">,</tspan></text>
<text xml:space="preserve" transform="matrix(1 0 -0 1 0 841.89)" font-size="11.95517" font-family="LMRoman12" font-weight="bold"><tspan y="-256.368" x="385.679">?</tspan></text>
<text xml:space="preserve" transform="matrix(1 0 -0 1 0 841.89)" font-size="11.95517" font-family="LMRoman12"><tspan y="-256.368" x="392.03">,</tspan></text>
<text xml:space="preserve" transform="matrix(1 0 -0 1 0 841.89)" font-size="11.95517" font-family="LMRoman12" font-weight="bold"><tspan y="-256.368" x="399.184">?</tspan></text>
<text xml:space="preserve" transform="matrix(1 0 -0 1 0 841.89)" font-size="11.95517" font-family="LMRoman12"><tspan y="-256.368" x="405.535">]</tspan></text>
<text xml:space="preserve" transform="matrix(1 0 -0 1 0 841.89)" font-size="11.95517" font-family="CMBX12" font-weight="bold"><tspan y="-227.476" x="234.117">A</tspan></text>
<text xml:space="preserve" transform="matrix(1 0 -0 1 0 841.89)" font-size="7.97011" font-family="CMSY8" font-style="italic"><tspan y="-225.683" x="244.273">B</tspan></text>
<text xml:space="preserve" transform="matrix(1 0 -0 1 0 841.89)" font-size="11.95517" font-family="CMR12"><tspan y="-227.476" x="253.844">=</tspan></text>
<text xml:space="preserve" transform="matrix(1 0 -0 1 0 841.89)" font-size="11.95517" font-family="CMEX10"><tspan y="-237.16" x="266.269">&#xfffd;</tspan></text>
<text xml:space="preserve" transform="matrix(1 0 -0 1 0 841.89)" font-size="11.95517" font-family="CMBX12" font-weight="bold"><tspan y="-227.476" x="271.749">A</tspan></text>
<text xml:space="preserve" transform="matrix(1 0 -0 1 0 841.89)" font-size="7.97011" font-family="CMSY8" font-style="italic"><tspan y="-225.617" x="281.905">B</tspan></text>
<text xml:space="preserve" transform="matrix(1 0 -0 1 0 841.89)" font-size="7.97011" font-family="CMR8"><tspan y="-225.617" x="287.657 290.94868 295.1808">(1)</tspan></text>
<text xml:space="preserve" transform="matrix(1 0 -0 1 0 841.89)" font-size="11.95517" font-family="CMMI12" font-style="italic"><tspan y="-227.476" x="298.975 304.21138 309.4597 314.708 319.94438">,...,</tspan></text>
<text xml:space="preserve" transform="matrix(1 0 -0 1 0 841.89)" font-size="11.95517" font-family="CMBX12" font-weight="bold"><tspan y="-227.476" x="325.196">A</tspan></text>
<text xml:space="preserve" transform="matrix(1 0 -0 1 0 841.89)" font-size="7.97011" font-family="CMSY8" font-style="italic"><tspan y="-225.617" x="335.353">B</tspan></text>
<text xml:space="preserve" transform="matrix(1 0 -0 1 0 841.89)" font-size="7.97011" font-family="CMR8"><tspan y="-225.617" x="341.104">(</tspan></text>
<text xml:space="preserve" transform="matrix(1 0 -0 1 0 841.89)" font-size="7.97011" font-family="CMMI8" font-style="italic"><tspan y="-225.617" x="344.397">m</tspan></text>
<text xml:space="preserve" transform="matrix(1 0 -0 1 0 841.89)" font-size="7.97011" font-family="CMR8"><tspan y="-225.617" x="351.888">)</tspan></text>
<text xml:space="preserve" transform="matrix(1 0 -0 1 0 841.89)" font-size="11.95517" font-family="CMEX10"><tspan y="-237.16" x="355.679">&#xfffd;</tspan></text>
<text xml:space="preserve" transform="matrix(1 0 -0 1 0 841.89)" font-size="11.95517" font-family="LMRoman12"><tspan y="-227.476" x="508.667 513.2219 519.07998 522.3318 528.1898 534.04788">(1.13)</tspan><tspan y="-207.091" x="56.693 64.65514 70.83597 74.087779 78.70247 83.257389 86.50919 91.709697 96.26461 104.71691 109.91741 113.16922 119.67284 128.77072 137.05565 142.91368 147.52838 150.78018">ExistierteineBasis</tspan></text>
<text xml:space="preserve" transform="matrix(1 0 -0 1 0 841.89)" font-size="11.95517" font-family="CMSY10" font-style="italic"><tspan y="-207.091" x="159.312">B</tspan></text>
<text xml:space="preserve" transform="matrix(1 0 -0 1 0 841.89)" font-size="11.95517" font-family="LMRoman12"><tspan y="-207.091" x="171.43 181.18541 184.43721 192.88951">mit[</tspan></text>
<text xml:space="preserve" transform="matrix(1 0 -0 1 0 841.89)" font-size="11.95517" font-family="LMRoman12" font-weight="bold"><tspan y="-207.091" x="196.143">?</tspan></text>
<text xml:space="preserve" transform="matrix(1 0 -0 1 0 841.89)" font-size="11.95517" font-family="LMRoman12"><tspan y="-207.091" x="202.494">]</tspan></text>
<text xml:space="preserve" transform="matrix(1 0 -0 1 0 841.89)" font-size="11.95517" font-family="CMBX12" font-weight="bold"><tspan y="-178.199" x="242.589">A</tspan></text>
<text xml:space="preserve" transform="matrix(1 0 -0 1 0 841.89)" font-size="7.97011" font-family="CMSY8" font-style="italic"><tspan y="-176.406" x="252.745">B</tspan></text>
<text xml:space="preserve" transform="matrix(1 0 -0 1 0 841.89)" font-size="11.95517" font-family="CMBX12" font-weight="bold"><tspan y="-178.199" x="260.987">x</tspan></text>
<text xml:space="preserve" transform="matrix(1 0 -0 1 0 841.89)" font-size="7.97011" font-family="CMSY8" font-style="italic"><tspan y="-176.406" x="268.086">B</tspan></text>
<text xml:space="preserve" transform="matrix(1 0 -0 1 0 841.89)" font-size="11.95517" font-family="CMR12"><tspan y="-178.199" x="277.656">=</tspan></text>
<text xml:space="preserve" transform="matrix(1 0 -0 1 0 841.89)" font-size="11.95517" font-family="CMBX12" font-weight="bold"><tspan y="-178.199" x="290.082">b</tspan></text>
<text xml:space="preserve" transform="matrix(1 0 -0 1 0 841.89)" font-size="11.95517" font-family="CMMI12" font-style="italic"><tspan y="-178.199" x="297.554">,</tspan></text>
<text xml:space="preserve" transform="matrix(1 0 -0 1 0 841.89)" font-size="11.95517" font-family="CMBX12" font-weight="bold"><tspan y="-178.199" x="314.504">x</tspan></text>
<text xml:space="preserve" transform="matrix(1 0 -0 1 0 841.89)" font-size="7.97011" font-family="CMSY8" font-style="italic"><tspan y="-176.406" x="321.602">N</tspan></text>
<text xml:space="preserve" transform="matrix(1 0 -0 1 0 841.89)" font-size="11.95517" font-family="CMR12"><tspan y="-178.199" x="333.536">=</tspan></text>
<text xml:space="preserve" transform="matrix(1 0 -0 1 0 841.89)" font-size="11.95517" font-family="CMBX12" font-weight="bold"><tspan y="-178.199" x="345.962">0</tspan></text>
<text xml:space="preserve" transform="matrix(1 0 -0 1 0 841.89)" font-size="11.95517" font-family="LMRoman12"><tspan y="-178.199" x="508.667 513.2219 519.07998 522.3318 528.1898 534.04788">(1.14)</tspan><tspan y="-157.814" x="56.693 61.307699 72.48579 79.31219 84.51269 89.71319 94.91369 98.1655 103.05516 109.55878 116.06239 121.26289 131.1259 140.88132 146.73935 158.56302 165.06664 168.31844 178.85094 186.1675 192.02553 196.64023 203.14385 209.64746">sobezeichnetmandieL&#x00f6;sung</tspan></text>
<text xml:space="preserve" transform="matrix(1 0 -0 1 0 841.89)" font-size="11.95517" font-family="CMBX12" font-weight="bold"><tspan y="-157.814" x="220.827">x</tspan></text>
<text xml:space="preserve" transform="matrix(1 0 -0 1 0 841.89)" font-size="11.95517" font-family="CMSY10" font-style="italic"><tspan y="-157.814" x="233.667">&#x2208;</tspan></text>
<text xml:space="preserve" transform="matrix(1 0 -0 1 0 841.89)" font-size="11.95517" font-family="MSBM10"><tspan y="-157.814" x="247.379">R</tspan></text>
<text xml:space="preserve" transform="matrix(1 0 -0 1 0 841.89)" font-size="7.97011" font-family="CMMI8" font-style="italic"><tspan y="-162.152" x="256.013">n</tspan></text>
<text xml:space="preserve" transform="matrix(1 0 -0 1 0 841.89)" font-size="7.97011" font-family="CMR8"><tspan y="-162.152" x="261.151">+</tspan></text>
<text xml:space="preserve" transform="matrix(1 0 -0 1 0 841.89)" font-size="7.97011" font-family="CMMI8" font-style="italic"><tspan y="-162.152" x="267.738">m</tspan></text>
<text xml:space="preserve" transform="matrix(1 0 -0 1 0 841.89)" font-size="11.95517" font-family="LMRoman12"><tspan y="-157.814" x="281.051 286.90904 290.16084 300.09556 308.3805 314.23854 318.8532 322.105 326.7197 329.9715 335.82954 340.4442 346.9478 353.45143 364.6295 371.1331 376.3336 386.22053 389.47233 392.72413 399.22773 404.42823 408.98316 414.18367 426.0073 435.11714 441.62074 446.17567 449.42747 459.1829 462.4347 467.6352 472.19013 478.69374 485.19734 491.05537 495.67005 501.52809 508.03169 511.60627 517.4643 523.3223 530.14877 535.34927">alsBasisl&#x00f6;sungderlinerenOptimierungsaufgabe.</tspan><tspan y="-143.368" x="56.693 64.65514 69.21006 72.78465 79.28827 82.54008 85.791889 95.439708 100.640209 103.89201 110.39563 120.70099 128.98592 134.84395 139.45865 142.71045 147.32515 150.57695 156.43498 161.04969 167.5533 174.05692">Erf&#x00fc;llteineBasisl&#x00f6;sung</tspan></text>
<text xml:space="preserve" transform="matrix(1 0 -0 1 0 841.89)" font-size="11.95517" font-family="CMBX12" font-weight="bold"><tspan y="-143.368" x="185.027">x</tspan></text>
<text xml:space="preserve" transform="matrix(1 0 -0 1 0 841.89)" font-size="11.95517" font-family="LMRoman12"><tspan y="-143.368" x="197.229 203.73262 206.98442 217.27782 226.05292 229.30472 234.19438 240.37522 244.93013 251.43375 256.63426 262.49229 268.3503 272.90525 276.15705 282.33787 285.58967 290.1446 296.00263 300.55757 305.17225 311.98667 317.18717 323.69078 326.94258 333.44618 339.3042 345.8078 352.3114 358.16944 363.36994">dieNichtnegativit&#x00e4;tsbedingungen</tspan></text>
<text xml:space="preserve" transform="matrix(1 0 -0 1 0 841.89)" font-size="11.95517" font-family="CMBX12" font-weight="bold"><tspan y="-143.368" x="374.958">x</tspan></text>
<text xml:space="preserve" transform="matrix(1 0 -0 1 0 841.89)" font-size="7.97011" font-family="CMSY8" font-style="italic"><tspan y="-141.575" x="382.057">B</tspan></text>
<text xml:space="preserve" transform="matrix(1 0 -0 1 0 841.89)" font-size="11.95517" font-family="CMSY10" font-style="italic"><tspan y="-143.368" x="393.671">&#x2265;</tspan></text>
<text xml:space="preserve" transform="matrix(1 0 -0 1 0 841.89)" font-size="11.95517" font-family="CMBX12" font-weight="bold"><tspan y="-143.368" x="408.335">0</tspan></text>
<text xml:space="preserve" transform="matrix(1 0 -0 1 0 841.89)" font-size="11.95517" font-family="LMRoman12"><tspan y="-143.368" x="415.06 423.4047 428.03135 438.98228 445.48588 450.68638 457.18998 463.38276 473.03059 482.786 488.64405 500.2525 504.8672 508.119 518.4243 523.6248 526.87667 533.38027">,sonenntmansieeine</tspan><tspan y="-128.922" x="56.693 61.8935 68.39711 71.64892 77.50695 82.12164 86.736339 89.988147 95.846179 105.876567 114.1615 120.01953 124.64618 127.89799 132.51268 135.76448 141.62252 146.23722 152.74083 159.24445 169.94432 176.44794 181.64844 191.03325 194.28505 197.53685 204.04047 209.24097 215.099 219.65392 224.85442 236.19988 245.30971 251.81333 256.36827 259.62007 269.3755 272.6273 277.8278 282.38273 288.88633 295.38993 301.24797 305.86265 311.72068 318.22428 321.79887 327.6569 333.51493 340.3413 345.5418 353.6474 362.4225 368.9261 380.27156 386.77516 390.02696 400.0693 408.35426 414.21229 418.82698 422.07878">zul&#x00e4;ssigeBasisl&#x00f6;sungderlinearenOptimierungsaufgabe.UnddieBasis</tspan></text>
<text xml:space="preserve" transform="matrix(1 0 -0 1 0 841.89)" font-size="11.95517" font-family="CMSY10" font-style="italic"><tspan y="-128.922" x="431.522">B</tspan></text>
<text xml:space="preserve" transform="matrix(1 0 -0 1 0 841.89)" font-size="11.95517" font-family="LMRoman12"><tspan y="-128.922" x="444.58 453.0323 456.2841 460.83903 472.17253 477.37303 483.5658 488.12074 492.7354 499.239 503.79396 508.99446 513.87216 520.37576 525.57626 532.07986">wirdentsprechend</tspan><tspan y="-114.476" x="56.693 62.551034 65.80284 75.366977 80.567478 87.07109 90.3229 96.18093 100.79562 105.41032 108.662128 114.52016 124.68205 132.96698 138.82501 143.43972 146.69152 156.26761 163.09401 168.29451 173.49501 178.69551 181.94731 186.82503 193.32865 199.83226 205.03276 209.58768">alszul&#x00e4;ssigeBasisbezeichnet.</tspan></text>
<text xml:space="preserve" transform="matrix(1 0 -0 1 0 841.89)" font-size="11.95517" font-family="CMBX12" font-weight="bold"><tspan y="-114.476" x="217.814">X</tspan></text>
<text xml:space="preserve" transform="matrix(1 0 -0 1 0 841.89)" font-size="11.95517" font-family="LMRoman12"><tspan y="-114.476" x="232.928 236.1798 240.7945 250.29886 256.80247 260.05427 270.21617 280.93995 286.14045 292.64405 298.50209 308.66398 314.522 317.7738 321.0256 326.2261 335.73048 340.93098 347.43458 350.68638 356.5444 361.1591 365.77378 369.02558 374.8836 380.0841 391.5491 399.83406 405.69209 410.30677 413.55857 418.17326 421.42506 427.28309 431.89778 438.40138 444.90498 450.763 455.9635">istdieMengeallerzul&#x00e4;ssigenBasisl&#x00f6;sungen</tspan></text>
<text xml:space="preserve" transform="matrix(1 0 -0 1 0 841.89)" font-size="11.95517" font-family="CMBX12" font-weight="bold"><tspan y="-114.476" x="467.428">x</tspan></text>
<text xml:space="preserve" transform="matrix(1 0 -0 1 0 841.89)" font-size="11.95517" font-family="LMRoman12"><tspan y="-114.476" x="474.526 482.7392 491.68168 494.93348 505.0834 515.81918 521.01968 527.52328 533.3813">.DieMenge</tspan></text>
<text xml:space="preserve" transform="matrix(1 0 -0 1 0 841.89)" font-size="11.95517" font-family="CMBX12" font-weight="bold"><tspan y="-100.03" x="56.693">X</tspan></text>
<text xml:space="preserve" transform="matrix(1 0 -0 1 0 841.89)" font-size="11.95517" font-family="LMRoman12"><tspan y="-100.03" x="70.631 77.13461 82.33511 88.83873 95.34235 98.594158 103.794658 108.34957 116.68232 121.88282 125.13463 135.41608 141.28606 147.14409 153.32492 159.17099 164.37149 170.5523 175.7528 184.14534 191.7847 197.64273 200.89453 206.75257 211.95307 218.45668 223.65718 231.98993 241.74535 244.99715 253.3299 258.5304 265.034 271.5376 274.7894 278.0412 282.9189 293.20036 299.38117 302.63298 307.83348 311.08528 316.28578 326.5672 334.52937 339.41905 345.59986 352.10346 358.60707 365.11067 371.29148 375.8464 381.0469 387.5505 394.56819 403.51066 406.76246 415.75276 421.61079 428.11439 432.6693 435.9211 445.67655 451.53459 454.78639 463.7647 472.04966 477.90769 482.52238 485.77418 490.38887 493.64067 499.4987 504.11338 510.61698 517.1206">de&#xfb01;nierteinkonvexesPolyedermitendlichvielenEckpunkten.DieoptimaleBasisl&#x00f6;sung</tspan></text>
<text xml:space="preserve" transform="matrix(1 0 -0 1 0 841.89)" font-size="11.95517" font-family="CMBX12" font-weight="bold"><tspan y="-100.03" x="526.752">x</tspan></text>
<text xml:space="preserve" transform="matrix(1 0 -0 1 0 841.89)" font-size="7.97011" font-family="CMMI8" font-style="italic"><tspan y="-104.369" x="533.85">&#x22c6;</tspan></text>
<text xml:space="preserve" transform="matrix(1 0 -0 1 0 841.89)" font-size="11.95517" font-family="LMRoman12"><tspan y="-85.585" x="56.693 61.8935 65.14531 71.648929 76.84943 85.708209 88.960018 92.21182 98.71544 103.91594 109.77397 114.32889 119.52939 130.34882 137.0198 143.52342 150.02704 156.20786 160.76277 164.01457 169.8726">einerlinearenFunktion</tspan></text>
<text xml:space="preserve" transform="matrix(1 0 -0 1 0 841.89)" font-size="11.95517" font-family="CMMI12" font-style="italic"><tspan y="-85.585" x="180.678">f</tspan></text>
<text xml:space="preserve" transform="matrix(1 0 -0 1 0 841.89)" font-size="11.95517" font-family="LMRoman12"><tspan y="-85.585" x="187.725 195.28067 203.42214 208.62264 211.87444 216.75215 223.25577 232.76013 238.61817 245.12178 253.01219 258.21269 261.46449 267.96809 273.16859 287.22789 293.09788 298.9559 305.13673 310.99476 316.19526 322.37608 327.5646 338.37208 346.0234 351.88145 355.13325 360.99128 366.19178 372.69538 377.89588">,welcheaufeinemkonvexenPolyeder</tspan></text>
<text xml:space="preserve" transform="matrix(1 0 -0 1 0 841.89)" font-size="11.95517" font-family="CMBX12" font-weight="bold"><tspan y="-85.585" x="386.76">X</tspan></text>
<text xml:space="preserve" transform="matrix(1 0 -0 1 0 841.89)" font-size="11.95517" font-family="LMRoman12"><tspan y="-85.585" x="401.23 408.0564 413.2569 417.87159 422.4265 425.6783 435.43376 444.8664 453.7252 456.977 461.59169 466.1466 473.71424 480.54063 485.74113 492.24473 498.74833 505.25193 510.45243 519.3231 523.9378 527.18966 532.0793">bestimmtist,be&#xfb01;ndetsich</tspan><tspan y="-71.139" x="56.693 59.94481 70.05888 79.8143 83.06611 89.56972 96.07333 101.273838 105.88853 110.44344 115.64394 122.14755 130.38466 135.58516 138.83696 145.34058 150.54108 163.90695 171.8691 176.75876 182.93958 189.44319 195.94681 202.45043 208.63124 216.78467 223.28829 228.48879 236.7259 244.37722 250.23525 253.48705 259.3451 264.5456 271.03724 276.23774 280.79267 285.40736 292.26963">inmindestenseinemEckpunktdesPolyeders.[</tspan></text>
<text xml:space="preserve" transform="matrix(1 0 -0 1 0 841.89)" font-size="11.95517" font-family="LMRoman12" font-weight="bold"><tspan y="-71.139" x="295.545">?</tspan></text>
<text xml:space="preserve" transform="matrix(1 0 -0 1 0 841.89)" font-size="11.95517" font-family="LMRoman12"><tspan y="-71.139" x="301.896">,</tspan></text>
<text xml:space="preserve" transform="matrix(1 0 -0 1 0 841.89)" font-size="11.95517" font-family="LMRoman12" font-weight="bold"><tspan y="-71.139" x="308.765">?</tspan></text>
<text xml:space="preserve" transform="matrix(1 0 -0 1 0 841.89)" font-size="11.95517" font-family="LMRoman12"><tspan y="-71.139" x="315.116 321.97828 326.19847 339.5763 346.24726 352.1053 355.3571 361.21513 366.41563 372.91923 379.42283 384.62333 394.7374 402.8669 408.0674 412.62236 419.12596 424.32646 434.44053 440.94413 444.19593 453.0069 458.2074 464.711 470.581 476.43904 484.60444 491.10804 496.30854 502.81214 509.31575 512.56759 517.76809 522.323 526.8779 532.0784">]ImFolgendenwerdendiezuvorde&#xfb01;nierten</tspan><tspan y="-56.693" x="56.693 64.977939 70.17844 76.03647 80.591388 83.84319 93.59861 96.85042 101.72813 108.231739 114.08977 119.29027 122.542079 127.09699 132.29749 142.68654 152.44196 155.69376 160.24868 166.75229 170.00409 173.25589 176.83049 185.94034 191.14084 194.39264 200.89626 206.09676 214.60884 219.80934 223.06114 229.56476 233.13936 238.99739 243.88706 250.39067 255.59117 265.98023 271.85023 277.70826 284.21186 290.39268 294.9476 300.1481 304.70304 309.90354 320.29258 328.5775 333.778 337.02983 341.6445 348.1481 351.3999 356.6004 359.8522 368.3643 371.6161">Begri&#xfb04;ichkeitenmithilfeeineseinfachenkonkretenBeispielsim</tspan></text>
<text xml:space="preserve" transform="matrix(1 0 -0 1 0 841.89)" font-size="11.95517" font-family="MSBM10"><tspan y="-56.693" x="385.306">R</tspan></text>
<text xml:space="preserve" transform="matrix(1 0 -0 1 0 841.89)" font-size="7.97011" font-family="CMR8"><tspan y="-61.031" x="393.94">2</tspan></text>
<text xml:space="preserve" transform="matrix(1 0 -0 1 0 841.89)" font-size="11.95517" font-family="LMRoman12"><tspan y="-56.693" x="402.574 408.43205 413.63255 419.49058 429.246 434.4465 439.00144 443.55638 446.80818 451.42286 456.30058 466.70158 473.52796 478.72846 483.2834 487.83833 493.69636 498.57408 504.75489 509.3098 514.5103 519.06527">geometrischbetrachtet.</tspan></text>
<text xml:space="preserve" transform="matrix(1 0 -0 1 0 841.89)" font-size="11.95517" font-family="LMRoman12"><tspan y="-20.306" x="294.711">4</tspan></text>
</g>
</svg>
