<?xml version="1.0" encoding="UTF-8" standalone="no"?>
<!DOCTYPE svg PUBLIC "-//W3C//DTD SVG 1.1//EN" "http://www.w3.org/Graphics/SVG/1.1/DTD/svg11.dtd">
<svg xmlns="http://www.w3.org/2000/svg" xmlns:xlink="http://www.w3.org/1999/xlink" version="1.1" width="595.276pt" height="841.89pt" viewBox="0 0 595.276 841.89">
<g enable-background="new">
<text xml:space="preserve" transform="matrix(1 0 -0 1 0 841.89)" font-size="11.95517" font-family="LMRoman12"><tspan y="-771.552" x="56.693 63.196615 69.700229 80.10123 86.60484 92.79762 97.35254 102.55304 110.993389 119.27832 124.47882 130.33686 135.22652 141.39539 145.9503 152.45392 158.95754 168.71295 175.21657 180.41707 188.86937 197.64447 200.89627 205.78594 211.96677 216.52169 223.0253 228.2258 234.08383 239.94187 244.49678 247.74858 253.9294 257.1812 261.73616 267.59419 272.13716 276.75184 283.57823 288.77873 295.28233 298.53413 305.03773 310.89576 317.39936 323.90296 329.761 334.9615">undunterBeachtungderNichtnegativit&#x00e4;tsbedingungen</tspan></text>
<text xml:space="preserve" transform="matrix(1 0 -0 1 0 841.89)" font-size="11.95517" font-family="CMMI12" font-style="italic"><tspan y="-742.66" x="230.304">x</tspan></text>
<text xml:space="preserve" transform="matrix(1 0 -0 1 0 841.89)" font-size="7.97011" font-family="CMMI8" font-style="italic"><tspan y="-740.867" x="236.956">j</tspan></text>
<text xml:space="preserve" transform="matrix(1 0 -0 1 0 841.89)" font-size="11.95517" font-family="CMSY10" font-style="italic"><tspan y="-742.66" x="244.659">&#x2265;</tspan></text>
<text xml:space="preserve" transform="matrix(1 0 -0 1 0 841.89)" font-size="11.95517" font-family="CMR12"><tspan y="-742.66" x="257.279">0</tspan></text>
<text xml:space="preserve" transform="matrix(1 0 -0 1 0 841.89)" font-size="11.95517" font-family="LMRoman12"><tspan y="-742.66" x="286.544 290.1186 296.6222 305.07453">f&#x00fc;rj</tspan></text>
<text xml:space="preserve" transform="matrix(1 0 -0 1 0 841.89)" font-size="11.95517" font-family="CMR12"><tspan y="-742.66" x="313.968 326.3894">=1</tspan></text>
<text xml:space="preserve" transform="matrix(1 0 -0 1 0 841.89)" font-size="11.95517" font-family="CMMI12" font-style="italic"><tspan y="-742.66" x="332.247 337.48338 342.7317 347.96806 353.21638">,...,</tspan></text>
<text xml:space="preserve" transform="matrix(1 0 -0 1 0 841.89)" font-size="11.95517" font-family="LMRoman12"><tspan y="-742.66" x="358.468 514.5188 519.0737 524.93179 528.1836 534.0416">n(1.4)</tspan><tspan y="-721.738" x="56.693 61.8935 72.95203 82.70744 88.565479 94.7463 97.99811 107.753528 111.00533 116.20583 120.76075 125.96125 137.01978 143.52339 148.72389 157.1762 164.99488 170.19538 181.2539 191.00933 194.26113 200.76474 204.01654 213.77196 217.02376 222.22426 226.77918 231.97968 238.48329 246.29001">zumaximierenbzw.zuminimieren.[</tspan></text>
<text xml:space="preserve" transform="matrix(1 0 -0 1 0 841.89)" font-size="11.95517" font-family="LMRoman12" font-weight="bold"><tspan y="-721.738" x="249.559">?</tspan></text>
<text xml:space="preserve" transform="matrix(1 0 -0 1 0 841.89)" font-size="11.95517" font-family="LMRoman12"><tspan y="-721.738" x="255.91 263.71675 267.93693 282.24729 290.38877 295.58927 298.84107 303.396 308.5965 313.15144 318.35194 329.3985 337.2052 342.4057 346.96064 350.21244 356.07048 362.57408 370.70359 377.52998 382.73048 387.2854 391.84034 397.69837 402.58805 408.7569 413.31184 418.51234 429.57087 438.02317 441.27497 450.38484 456.88844 462.74647 471.91609 479.73475 485.5808 490.13575 495.99378 501.19429 507.69789 512.8984 523.9569 527.5315 534.0351">]ImweiterenVerlaufbetrachtenwirdasVorgehenf&#x00fc;r</tspan><tspan y="-707.293" x="56.693 67.41679 73.27482 79.45564 82.70745 92.46287 95.714679 100.91518 105.47009 111.97371 118.477329 124.33536 128.95006 135.45368 140.00859 145.86663 152.37024 155.62204 160.82254 170.57796 175.77846">Maximierungsprobleme.</tspan></text>
<path transform="matrix(1,0,0,-1,56.693,185.37104)" d="M 0 0 L 2.989 0 L 2.989 40.847 L 0 40.847 Z "/>
<text xml:space="preserve" transform="matrix(1 0 -0 1 0 841.89)" font-size="11.95517" font-family="LMRoman12"><tspan y="-688.399" x="69.644 77.60614 80.85795 87.36156 98.707019 103.90752 116.55609 126.31151 132.16954 138.35036 141.60216 151.35758 154.60938 159.80988 164.36479 169.56529 176.06891 182.57253 193.92993 201.07912 204.33092 209.53142 212.78322 216.35782 222.86144 229.36505 235.54587 240.10079 243.35259 249.21062">EinezumaximierendeZielfunktion</tspan></text>
<text xml:space="preserve" transform="matrix(1 0 -0 1 0 841.89)" font-size="11.95517" font-family="CMMI12" font-style="italic"><tspan y="-688.399" x="261.868">f</tspan></text>
<text xml:space="preserve" transform="matrix(1 0 -0 1 0 841.89)" font-size="11.95517" font-family="CMR12"><tspan y="-688.399" x="268.915">(</tspan></text>
<text xml:space="preserve" transform="matrix(1 0 -0 1 0 841.89)" font-size="11.95517" font-family="CMBX12" font-weight="bold"><tspan y="-688.399" x="273.467">x</tspan></text>
<text xml:space="preserve" transform="matrix(1 0 -0 1 0 841.89)" font-size="11.95517" font-family="CMR12"><tspan y="-688.399" x="280.566">)</tspan></text>
<text xml:space="preserve" transform="matrix(1 0 -0 1 0 841.89)" font-size="11.95517" font-family="LMRoman12"><tspan y="-688.399" x="291.268 297.44883 303.30686 309.81047 322.459 328.96263 335.46623 340.02116 344.91084 357.54743 362.74794 365.99974 372.50334 383.8488 389.0493 401.7098 411.46525 414.71705 421.22065 424.47245 434.22789 437.47969 442.68019 447.2351 452.4356 458.9392 465.4428 476.78828 483.93748 487.18928 492.38978 495.64158 499.21617 505.71977 512.2234 518.40426 522.95919 526.211 532.06906">kanndurcheinezuminimierendeZielfunktion</tspan></text>
<text xml:space="preserve" transform="matrix(1 0 -0 1 0 841.89)" font-size="11.95517" font-family="CMSY10" font-style="italic"><tspan y="-673.954" x="69.644">&#x2212;</tspan></text>
<text xml:space="preserve" transform="matrix(1 0 -0 1 0 841.89)" font-size="11.95517" font-family="CMMI12" font-style="italic"><tspan y="-673.954" x="78.943">f</tspan></text>
<text xml:space="preserve" transform="matrix(1 0 -0 1 0 841.89)" font-size="11.95517" font-family="CMR12"><tspan y="-673.954" x="85.989">(</tspan></text>
<text xml:space="preserve" transform="matrix(1 0 -0 1 0 841.89)" font-size="11.95517" font-family="CMBX12" font-weight="bold"><tspan y="-673.954" x="90.542">x</tspan></text>
<text xml:space="preserve" transform="matrix(1 0 -0 1 0 841.89)" font-size="11.95517" font-family="CMR12"><tspan y="-673.954" x="97.64">)</tspan></text>
<text xml:space="preserve" transform="matrix(1 0 -0 1 0 841.89)" font-size="11.95517" font-family="LMRoman12"><tspan y="-673.954" x="107.696 112.31069 118.8143 125.31792 129.93262 134.48754 137.73934 142.29425 148.79787 152.04967 157.25017 161.80509 171.85938 179.98889 185.18939 189.74431 196.24793 201.44843 207.95204 216.71518 225.65766 228.90946 239.60933 250.33312 256.19117 262.37199 265.62379 275.3792 278.631 283.8315 288.38645 294.89006 301.39366 312.75108 318.62107 324.4791">substituiertwerden.DieMaximierungvon</tspan></text>
<text xml:space="preserve" transform="matrix(1 0 -0 1 0 841.89)" font-size="11.95517" font-family="CMBX12" font-weight="bold"><tspan y="-673.954" x="336.464">c</tspan></text>
<text xml:space="preserve" transform="matrix(1 0 -0 1 0 841.89)" font-size="7.97011" font-family="MSAM10"><tspan y="-678.292" x="342.442">&#x22ba;</tspan></text>
<text xml:space="preserve" transform="matrix(1 0 -0 1 0 841.89)" font-size="11.95517" font-family="CMBX12" font-weight="bold"><tspan y="-673.954" x="349.361">x</tspan></text>
<text xml:space="preserve" transform="matrix(1 0 -0 1 0 841.89)" font-size="11.95517" font-family="LMRoman12"><tspan y="-673.954" x="361.962 367.1625 373.34333 377.89826 382.51295 389.01655 393.57148 396.82328 401.701 407.8818 417.92417 422.53886 428.39689 438.1523 441.4041 451.45845 457.96205 463.16255 473.2288 483.95259 487.20439 493.70799 496.95979 506.7152 509.967 515.1675 519.7224 526.226 532.7296">entsprichtsomitderMinimierung</tspan><tspan y="-659.508" x="69.644 75.50203 81.36006">von</tspan></text>
<text xml:space="preserve" transform="matrix(1 0 -0 1 0 841.89)" font-size="11.95517" font-family="CMR12"><tspan y="-659.508" x="91.756">(</tspan></text>
<text xml:space="preserve" transform="matrix(1 0 -0 1 0 841.89)" font-size="11.95517" font-family="CMSY10" font-style="italic"><tspan y="-659.508" x="96.308">&#x2212;</tspan></text>
<text xml:space="preserve" transform="matrix(1 0 -0 1 0 841.89)" font-size="11.95517" font-family="CMBX12" font-weight="bold"><tspan y="-659.508" x="105.607">c</tspan></text>
<text xml:space="preserve" transform="matrix(1 0 -0 1 0 841.89)" font-size="7.97011" font-family="MSAM10"><tspan y="-663.846" x="111.585">&#x22ba;</tspan></text>
<text xml:space="preserve" transform="matrix(1 0 -0 1 0 841.89)" font-size="11.95517" font-family="CMBX12" font-weight="bold"><tspan y="-659.508" x="118.503">x</tspan></text>
<text xml:space="preserve" transform="matrix(1 0 -0 1 0 841.89)" font-size="11.95517" font-family="CMR12"><tspan y="-659.508" x="125.601">)</tspan></text>
<text xml:space="preserve" transform="matrix(1 0 -0 1 0 841.89)" font-size="11.95517" font-family="LMRoman12"><tspan y="-659.508" x="130.154 137.30319">.[</tspan></text>
<text xml:space="preserve" transform="matrix(1 0 -0 1 0 841.89)" font-size="11.95517" font-family="LMRoman12" font-weight="bold"><tspan y="-659.508" x="140.559">?</tspan></text>
<text xml:space="preserve" transform="matrix(1 0 -0 1 0 841.89)" font-size="11.95517" font-family="LMRoman12"><tspan y="-659.508" x="146.91">,</tspan></text>
<text xml:space="preserve" transform="matrix(1 0 -0 1 0 841.89)" font-size="11.95517" font-family="LMRoman12" font-weight="bold"><tspan y="-659.508" x="154.064">?</tspan></text>
<text xml:space="preserve" transform="matrix(1 0 -0 1 0 841.89)" font-size="11.95517" font-family="LMRoman12"><tspan y="-659.508" x="160.415">]</tspan><tspan y="-640.614" x="56.693 65.63547 70.83597 79.073078 83.69972 89.88055 95.73858 98.99039 104.84842 109.403339 118.286029 129.3565 134.557 139.11193">DerskalareWert</tspan></text>
<text xml:space="preserve" transform="matrix(1 0 -0 1 0 841.89)" font-size="11.95517" font-family="CMMI12" font-style="italic"><tspan y="-640.614" x="147.336">f</tspan></text>
<text xml:space="preserve" transform="matrix(1 0 -0 1 0 841.89)" font-size="11.95517" font-family="CMR12"><tspan y="-640.614" x="154.382">(</tspan></text>
<text xml:space="preserve" transform="matrix(1 0 -0 1 0 841.89)" font-size="11.95517" font-family="CMBX12" font-weight="bold"><tspan y="-640.614" x="158.935">x</tspan></text>
<text xml:space="preserve" transform="matrix(1 0 -0 1 0 841.89)" font-size="11.95517" font-family="CMR12"><tspan y="-640.614" x="166.033">)</tspan></text>
<text xml:space="preserve" transform="matrix(1 0 -0 1 0 841.89)" font-size="11.95517" font-family="LMRoman12"><tspan y="-640.614" x="174.279 180.78263 185.98313 194.22023 197.47203 200.72383 207.22745 212.42795 218.28598 222.8409 228.0414 238.23917 245.38835 248.64015 253.84066 257.09248 260.66706 267.17066 273.67427 279.85508 284.41 287.6618 293.51985">derlinearenZielfunktion</tspan></text>
<text xml:space="preserve" transform="matrix(1 0 -0 1 0 841.89)" font-size="11.95517" font-family="CMMI12" font-style="italic"><tspan y="-640.614" x="303.723">f</tspan></text>
<text xml:space="preserve" transform="matrix(1 0 -0 1 0 841.89)" font-size="11.95517" font-family="LMRoman12"><tspan y="-640.614" x="314.463 318.0376 324.5412 332.77833 337.97883 341.23063 347.73423 356.62889 363.94544 369.80348 374.41816 380.92176 387.42536">f&#x00fc;reineL&#x00f6;sung</tspan></text>
<text xml:space="preserve" transform="matrix(1 0 -0 1 0 841.89)" font-size="11.95517" font-family="CMBX12" font-weight="bold"><tspan y="-640.614" x="396.982">x</tspan></text>
<text xml:space="preserve" transform="matrix(1 0 -0 1 0 841.89)" font-size="11.95517" font-family="LMRoman12"><tspan y="-640.614" x="407.774 416.2263 419.4781 424.03303 434.2188 443.97425 447.22605 451.78099 456.3359 461.5364 464.7882 473.09706 479.60066 484.80116 493.05024 500.19944 503.45124 508.65174 511.90354 515.47817 521.98178 528.48538 534.6662">wirdmittelsderZielfunk-</tspan><tspan y="-626.169" x="56.693 61.24792 64.499729 70.35776 76.861377 81.47607 87.3341 93.50297 98.70347 108.458889 113.659389 116.911197 122.111698 128.30448 132.85939 138.05989">tionskoe&#xfb03;zienten</tspan></text>
<text xml:space="preserve" transform="matrix(1 0 -0 1 0 841.89)" font-size="11.95517" font-family="CMBX12" font-weight="bold"><tspan y="-626.169" x="147.872">c</tspan></text>
<text xml:space="preserve" transform="matrix(1 0 -0 1 0 841.89)" font-size="11.95517" font-family="LMRoman12"><tspan y="-626.169" x="157.167 163.67063 168.87113 175.37474 181.87836 185.13016 190.33066 194.88558 199.44049 206.00388 210.55879 215.1735 218.4253 223.6258 230.12941 238.65345 247.835 251.0868 256.2873 259.5391 264.4168 270.59764 277.10124 283.60484 292.77445 298.63249 301.88429 307.7423 315.60884 319.829 329.65617 336.15977 341.36027 349.22679 355.41957 361.92317 371.6786 376.8791 381.43403 384.68583 389.3005 394.17823 400.68183 405.88233 415.68556 423.9705 429.171 433.72593 438.92643 443.8161 450.3197 456.50053 463.00413 469.50773 478.66539 485.16899 490.36949 498.24797 501.49977 504.75157 511.25517 516.4556 522.31369 526.8686 532.0691">de&#xfb01;niert.(sieheGleichung1.2)IndernumerischenBerechnungderlinearen</tspan><tspan y="-611.723" x="56.693 65.80284 72.30646 76.861377 80.11318 89.8686 93.12041 98.32091 102.875827 109.37944 115.88306 121.74109 126.35578 132.85939 137.4143 143.27234 149.77596 153.02776 158.22826 167.98368 176.36425 184.81655 188.06835 192.62326 202.31891 208.82253 212.07433 220.46686 228.429 235.2554 240.4559 246.63672 251.19164 254.44344 260.62428 263.87608 268.431 274.28904 282.03599 287.90599 293.764 303.4477 310.76426 316.62229 321.23698 327.74058 334.24418 340.1022 344.7169 350.57493 353.82673 359.68476 365.5428 370.09773 373.34953 377.90446 384.40806 394.16349 399.36399 409.0596 412.6342 419.1378 426.88475 430.13655 433.38835 439.89195 445.09245 450.95048 455.5054 463.886 473.06758 476.31938 481.51988 484.77168 489.66136 495.84217 502.34577 508.84938 514.7074 519.3221 523.93679 530.1176 534.7323">OptimierungsproblemewirddieE&#xfb00;ektivit&#x00e4;tvonL&#x00f6;sungsalgorithmenf&#x00fc;rlineareGleichungssys-</tspan><tspan y="-597.277" x="56.693 61.24792 66.44842 76.203838 84.775699 90.63373 97.137348 102.99538 108.19588 116.325389 121.52589 128.0295 134.53311 139.73361 144.28853 150.91168 159.85416 165.71219 172.2158 177.4163 185.34258 193.48404 198.68454 203.23946 209.74308 214.94358 224.81855 231.32216 234.57396 243.14582 249.00385 252.25565 255.50745 261.36549 266.56599 276.3214 281.5219 284.7737 291.2773 296.4778 306.35279 315.12788 320.32838 327.15476 332.35527 338.54804 345.36247 350.56297 357.06657 360.31837 366.82197 372.68 379.1836 385.6872 391.54524 396.74574 406.63264 411.18757 415.80226 419.05406 424.25456 430.75816 439.33003 448.5116 451.7634 456.9639 460.2157 465.10539 471.27424 477.77784 484.28144 490.13948 495.33998 505.21495 511.07298 514.32479 520.1828 528.1091 532.72378">temeangewendet.DaherwerdendieallgemeinenNebenbedingungen(sieheGleichungen1.3)so</tspan><tspan y="-582.831" x="56.693 63.196615 72.952037 78.81007 84.01057 87.58516 93.44319 97.99811 107.43073 111.98565 119.63696 126.14058 131.99861 136.61331 145.63947 152.14308 158.00112 167.02727 170.27907 173.53087 180.03449 185.23499 191.09302 195.64794 205.25989 214.36972 220.87334 225.42826 228.68006 238.43547 241.68727 246.88777 251.44269 257.9463 264.4499 270.30793 274.9226 281.4262 285.98115 291.83918 298.34278 301.59458 306.79508 320.96199 327.46559 333.96919 338.5241 343.4138 354.3169 359.5174 362.7692 373.68428 376.93608 380.18788 386.69148 391.89198 397.75 402.30494 407.50544 416.5316 425.71318 428.96498 434.16548 437.41728 442.30696 448.4758 454.9794 461.483 467.34104 471.95573 476.5704 482.75123 487.3659 491.92085 497.12135 511.27629 517.13436 523.63796 529.496 534.6965">umgeformt,dassdaslineareOptimierungsproblemdurcheinlinearesGleichungssystemabge-</tspan><tspan y="-568.385" x="56.693 63.196615 66.44842 69.700229 76.20384 81.40434 88.92414 97.37645 100.62826 105.183177 111.68678 117.91543 122.135608 131.61606 136.81656 140.06836 146.57198 151.77248 164.50473 169.70523 174.26015 178.87485 183.42977 188.63027 198.11072 205.2599 213.7122 216.964 221.5787 226.45642 232.96004 238.16054 244.66416 249.27886 254.15657 260.6602 265.21513 268.46693 273.02186 280.54167 285.0966 289.65153 295.50956 302.01316 306.62785 310.20243 316.06047 320.6154 330.37083 333.62263 338.82313 343.37806 348.57856 358.04704 366.49934 369.75114 377.2829 383.7865 389.64454 397.23606 403.73966 409.92048 414.53517 419.0901 424.2906 437.02287 446.7783 450.0301 457.5499 464.0535 469.254 478.73445 484.59248 487.84428 491.09608 496.9541 502.1546 511.91004 517.11056 520.36239 526.86599 532.06649">bildetwird.IneinemerstenZwischenschritttransformierenwirdasSystemmitdenallgemeinen</tspan><tspan y="-553.94" x="56.693 65.468097 70.668598 77.495 82.6955 88.87632 95.70272 100.90322 107.40683 110.65864 117.16225 123.02028 129.5239 136.02751 141.88555 147.08605 157.20012 161.75504 166.36974 169.62154 174.82204 181.32566 190.14858 199.33014 202.58194 207.78244 211.03424 215.9239 222.09278 228.59639 235.1 240.95804 246.15854 256.2726 262.13066 265.38246 271.24049 279.41783 282.66963 292.79563 299.29924 302.55104 311.37394 317.55476 323.41279 329.91639 335.7744 342.278 345.52983 350.1445 355.02223 361.52583 370.3368 377.00776 382.86579 387.42073 397.17616 404.03843 412.1799 417.3804 420.6322 425.50993 432.01353 440.81254 445.42723 448.67903 453.5687 463.68278 466.93458 477.06059 487.78437 493.6424 498.19734 502.75227 506.00407 512.1849 520.3144 525.5149 528.7667 533.3814">Nebenbedingungen(sieheGleichungen1.3)indiekanonischeForm,welchesichinMatrixweise</tspan><tspan y="-539.494" x="56.693 60.267599 66.12563 69.37744 75.23547 80.435977 86.93959 93.44321 98.64371 103.19862 112.95404 118.81207 131.8193 137.0198 147.4208 150.9954 156.85344 161.40836 170.84099 177.3446 180.5964 183.8482 189.0487 193.60363 198.80413 209.20513 212.45693 218.31496 222.92966 227.54436 232.09928 239.24846">folgenderma&#xfffd;enformulierenl&#x00e4;sst:[</tspan></text>
<text xml:space="preserve" transform="matrix(1 0 -0 1 0 841.89)" font-size="11.95517" font-family="LMRoman12" font-weight="bold"><tspan y="-539.494" x="242.495">?</tspan></text>
<text xml:space="preserve" transform="matrix(1 0 -0 1 0 841.89)" font-size="11.95517" font-family="LMRoman12"><tspan y="-539.494" x="248.847">]</tspan><tspan y="-510.602" x="225.959 235.71442 241.57245">max</tspan></text>
<text xml:space="preserve" transform="matrix(1 0 -0 1 0 841.89)" font-size="11.95517" font-family="CMSY10" font-style="italic"><tspan y="-510.602" x="247.745">{</tspan></text>
<text xml:space="preserve" transform="matrix(1 0 -0 1 0 841.89)" font-size="11.95517" font-family="CMBX12" font-weight="bold"><tspan y="-510.602" x="253.723">c</tspan></text>
<text xml:space="preserve" transform="matrix(1 0 -0 1 0 841.89)" font-size="7.97011" font-family="MSAM10"><tspan y="-515.538" x="259.701">&#x22ba;</tspan></text>
<text xml:space="preserve" transform="matrix(1 0 -0 1 0 841.89)" font-size="11.95517" font-family="CMBX12" font-weight="bold"><tspan y="-510.602" x="266.619">x</tspan></text>
<text xml:space="preserve" transform="matrix(1 0 -0 1 0 841.89)" font-size="11.95517" font-family="CMSY10" font-style="italic"><tspan y="-510.602" x="277.038">|</tspan></text>
<text xml:space="preserve" transform="matrix(1 0 -0 1 0 841.89)" font-size="11.95517" font-family="CMBX12" font-weight="bold"><tspan y="-510.602" x="283.68 295.82646">Ax</tspan></text>
<text xml:space="preserve" transform="matrix(1 0 -0 1 0 841.89)" font-size="11.95517" font-family="CMSY10" font-style="italic"><tspan y="-510.602" x="306.248">&#x2264;</tspan></text>
<text xml:space="preserve" transform="matrix(1 0 -0 1 0 841.89)" font-size="11.95517" font-family="CMBX12" font-weight="bold"><tspan y="-510.602" x="318.867">b</tspan></text>
<text xml:space="preserve" transform="matrix(1 0 -0 1 0 841.89)" font-size="11.95517" font-family="CMMI12" font-style="italic"><tspan y="-510.602" x="326.339">,</tspan></text>
<text xml:space="preserve" transform="matrix(1 0 -0 1 0 841.89)" font-size="11.95517" font-family="CMBX12" font-weight="bold"><tspan y="-510.602" x="333.576">x</tspan></text>
<text xml:space="preserve" transform="matrix(1 0 -0 1 0 841.89)" font-size="11.95517" font-family="CMSY10" font-style="italic"><tspan y="-510.602" x="343.995">&#x2265;</tspan></text>
<text xml:space="preserve" transform="matrix(1 0 -0 1 0 841.89)" font-size="11.95517" font-family="CMBX12" font-weight="bold"><tspan y="-510.602" x="356.615">0</tspan></text>
<text xml:space="preserve" transform="matrix(1 0 -0 1 0 841.89)" font-size="11.95517" font-family="CMSY10" font-style="italic"><tspan y="-510.602" x="363.339">}</tspan></text>
<text xml:space="preserve" transform="matrix(1 0 -0 1 0 841.89)" font-size="11.95517" font-family="LMRoman12"><tspan y="-510.602" x="514.52 519.07498 524.933 528.1848 534.04287">(1.5)</tspan><tspan y="-489.68" x="56.693 63.842195 74.55403 81.05765 84.309459 89.50996 94.12465 99.32515 113.28879 120.43798 128.57946 133.77996 138.65767 149.03475 157.17621 162.37671 166.93163 173.43524 178.63574 189.33562 195.83924 199.09104">ZudiesemZweckwerdendie</tspan></text>
<text xml:space="preserve" transform="matrix(1 0 -0 1 0 841.89)" font-size="11.95517" font-family="CMSY10" font-style="italic"><tspan y="-489.68" x="208.544">&#x2265;</tspan></text>
<text xml:space="preserve" transform="matrix(1 0 -0 1 0 841.89)" font-size="11.95517" font-family="LMRoman12"><tspan y="-489.68" x="222.057 230.8321 236.03261 242.85901 248.05951 254.24034 261.06675 266.26725 272.77085 276.02265 282.52626 288.38429 294.88789 301.39149 307.2495 312.45 323.16184 327.71678 332.33146 335.58326 340.78376 347.28736 356.69609 365.87767 369.12947 374.32997 377.58177 382.47145 388.65226 395.15586 401.65946 411.71376 417.57179 420.82359 426.6816 433.1852 441.96034 451.71577 454.96757 459.5225 464.07743 469.27793 472.52973 481.35264 492.07643 498.58003 501.83183 506.38676 509.63856 516.14218 519.394 522.6458 528.82669 534.6847">Nebenbedingungen(sieheGleichung1.3b)mittelsMultiplika-</tspan><tspan y="-475.235" x="56.693 61.24792 64.499729 70.35776 82.07383 88.912189 94.112689 97.364498 103.8681 109.0686 118.84793 127.95777 134.78417 139.98467 144.53958 150.39762 156.90123 163.40485 168.60535 180.33338 186.83699 192.03749 201.81682 210.59192 217.09554 222.95357 226.20537 231.40587 234.65767 239.53539 245.71622 252.21984 258.72346 264.58149 269.19618 275.69978 280.90028 287.7147 292.9152 299.10798 305.9224 311.1229 317.6265 320.8783 327.3819 333.23994 339.74354 346.24714 352.10517 357.30567 369.03367 378.7891 382.0409">tionbeiderOperandenderUngleichungsnebenbedingungenmit</tspan></text>
<text xml:space="preserve" transform="matrix(1 0 -0 1 0 841.89)" font-size="11.95517" font-family="CMSY10" font-style="italic"><tspan y="-475.235" x="391.808">&#x2212;</tspan></text>
<text xml:space="preserve" transform="matrix(1 0 -0 1 0 841.89)" font-size="11.95517" font-family="CMR12"><tspan y="-475.235" x="401.107">1</tspan></text>
<text xml:space="preserve" transform="matrix(1 0 -0 1 0 841.89)" font-size="11.95517" font-family="LMRoman12"><tspan y="-475.235" x="412.184 415.4358">in</tspan></text>
<text xml:space="preserve" transform="matrix(1 0 -0 1 0 841.89)" font-size="11.95517" font-family="CMSY10" font-style="italic"><tspan y="-475.235" x="427.163">&#x2264;</tspan></text>
<text xml:space="preserve" transform="matrix(1 0 -0 1 0 841.89)" font-size="11.95517" font-family="LMRoman12"><tspan y="-475.235" x="441.686 450.4611 455.6616 462.48799 467.68849 473.8693 480.69569 485.89619 492.39979 495.65159 502.15519 508.0132 514.51687 521.02047 526.8785 532.079">Nebenbedingungen</tspan><tspan y="-460.789" x="56.693 61.24792 65.80284 71.66087 78.16449 82.77918 86.353778 92.21181 96.76672 106.52214 109.77395 114.97445 119.529369 124.08428 131.23348 139.19562 145.37645 149.93137 154.54607 161.04969 165.6046 170.8051 175.68282 182.18643 187.38694 193.89055 204.29155 210.14958 213.40139 216.65319 225.10549 231.6091 234.8609 243.95879 247.53339 253.39142 256.64323 262.50126 267.70176 274.20536 280.70896 289.8188 298.2711 304.4519 310.9555 314.2073 319.74256 325.6006 328.8524 334.0529 340.5565 349.64244">transformiert.Entsprechendgiltdiefolgende&#x00c4;quivalenz[</tspan></text>
<text xml:space="preserve" transform="matrix(1 0 -0 1 0 841.89)" font-size="11.95517" font-family="LMRoman12" font-weight="bold"><tspan y="-460.789" x="352.883">?</tspan></text>
<text xml:space="preserve" transform="matrix(1 0 -0 1 0 841.89)" font-size="11.95517" font-family="LMRoman12"><tspan y="-460.789" x="359.235">,</tspan></text>
<text xml:space="preserve" transform="matrix(1 0 -0 1 0 841.89)" font-size="11.95517" font-family="LMRoman12" font-weight="bold"><tspan y="-460.789" x="366.388">?</tspan></text>
<text xml:space="preserve" transform="matrix(1 0 -0 1 0 841.89)" font-size="11.95517" font-family="LMRoman12"><tspan y="-460.789" x="372.74">]</tspan></text>
<text xml:space="preserve" transform="matrix(1 0 -0 1 0 841.89)" font-size="11.95517" font-family="CMMI12" font-style="italic"><tspan y="-431.897" x="155.89">a</tspan></text>
<text xml:space="preserve" transform="matrix(1 0 -0 1 0 841.89)" font-size="7.97011" font-family="CMMI8" font-style="italic"><tspan y="-430.104" x="162.035">i</tspan></text>
<text xml:space="preserve" transform="matrix(1 0 -0 1 0 841.89)" font-size="7.97011" font-family="CMR8"><tspan y="-430.104" x="164.918">1</tspan></text>
<text xml:space="preserve" transform="matrix(1 0 -0 1 0 841.89)" font-size="11.95517" font-family="CMMI12" font-style="italic"><tspan y="-431.897" x="171.643">x</tspan></text>
<text xml:space="preserve" transform="matrix(1 0 -0 1 0 841.89)" font-size="7.97011" font-family="CMR8"><tspan y="-430.104" x="178.295">1</tspan></text>
<text xml:space="preserve" transform="matrix(1 0 -0 1 0 841.89)" font-size="11.95517" font-family="CMR12"><tspan y="-431.897" x="185.684">+</tspan></text>
<text xml:space="preserve" transform="matrix(1 0 -0 1 0 841.89)" font-size="11.95517" font-family="CMMI12" font-style="italic"><tspan y="-431.897" x="197.445 202.68137 207.92969">...</tspan></text>
<text xml:space="preserve" transform="matrix(1 0 -0 1 0 841.89)" font-size="11.95517" font-family="CMR12"><tspan y="-431.897" x="213.842">+</tspan></text>
<text xml:space="preserve" transform="matrix(1 0 -0 1 0 841.89)" font-size="11.95517" font-family="CMMI12" font-style="italic"><tspan y="-431.897" x="225.603">a</tspan></text>
<text xml:space="preserve" transform="matrix(1 0 -0 1 0 841.89)" font-size="7.97011" font-family="CMMI8" font-style="italic"><tspan y="-430.104" x="231.748 234.63318">in</tspan></text>
<text xml:space="preserve" transform="matrix(1 0 -0 1 0 841.89)" font-size="11.95517" font-family="CMMI12" font-style="italic"><tspan y="-431.897" x="242.26">x</tspan></text>
<text xml:space="preserve" transform="matrix(1 0 -0 1 0 841.89)" font-size="7.97011" font-family="CMMI8" font-style="italic"><tspan y="-430.104" x="248.912">n</tspan></text>
<text xml:space="preserve" transform="matrix(1 0 -0 1 0 841.89)" font-size="11.95517" font-family="CMSY10" font-style="italic"><tspan y="-431.897" x="257.869">&#x2265;</tspan></text>
<text xml:space="preserve" transform="matrix(1 0 -0 1 0 841.89)" font-size="11.95517" font-family="CMMI12" font-style="italic"><tspan y="-431.897" x="270.489">b</tspan></text>
<text xml:space="preserve" transform="matrix(1 0 -0 1 0 841.89)" font-size="7.97011" font-family="CMMI8" font-style="italic"><tspan y="-430.104" x="275.466">i</tspan></text>
<text xml:space="preserve" transform="matrix(1 0 -0 1 0 841.89)" font-size="11.95517" font-family="CMSY10" font-style="italic"><tspan y="-431.897" x="282.168 297.43476">&#x21d4;&#x2212;</tspan></text>
<text xml:space="preserve" transform="matrix(1 0 -0 1 0 841.89)" font-size="11.95517" font-family="CMMI12" font-style="italic"><tspan y="-431.897" x="306.742">a</tspan></text>
<text xml:space="preserve" transform="matrix(1 0 -0 1 0 841.89)" font-size="7.97011" font-family="CMMI8" font-style="italic"><tspan y="-430.104" x="312.887">i</tspan></text>
<text xml:space="preserve" transform="matrix(1 0 -0 1 0 841.89)" font-size="7.97011" font-family="CMR8"><tspan y="-430.104" x="315.77">1</tspan></text>
<text xml:space="preserve" transform="matrix(1 0 -0 1 0 841.89)" font-size="11.95517" font-family="CMMI12" font-style="italic"><tspan y="-431.897" x="322.495">x</tspan></text>
<text xml:space="preserve" transform="matrix(1 0 -0 1 0 841.89)" font-size="7.97011" font-family="CMR8"><tspan y="-430.104" x="329.147">1</tspan></text>
<text xml:space="preserve" transform="matrix(1 0 -0 1 0 841.89)" font-size="11.95517" font-family="CMSY10" font-style="italic"><tspan y="-431.897" x="336.536">&#x2212;</tspan></text>
<text xml:space="preserve" transform="matrix(1 0 -0 1 0 841.89)" font-size="11.95517" font-family="CMMI12" font-style="italic"><tspan y="-431.897" x="348.491 353.72737 358.97569">...</tspan></text>
<text xml:space="preserve" transform="matrix(1 0 -0 1 0 841.89)" font-size="11.95517" font-family="CMSY10" font-style="italic"><tspan y="-431.897" x="364.888">&#x2212;</tspan></text>
<text xml:space="preserve" transform="matrix(1 0 -0 1 0 841.89)" font-size="11.95517" font-family="CMMI12" font-style="italic"><tspan y="-431.897" x="376.843">a</tspan></text>
<text xml:space="preserve" transform="matrix(1 0 -0 1 0 841.89)" font-size="7.97011" font-family="CMMI8" font-style="italic"><tspan y="-430.104" x="382.988 385.8732">in</tspan></text>
<text xml:space="preserve" transform="matrix(1 0 -0 1 0 841.89)" font-size="11.95517" font-family="CMMI12" font-style="italic"><tspan y="-431.897" x="393.5">x</tspan></text>
<text xml:space="preserve" transform="matrix(1 0 -0 1 0 841.89)" font-size="7.97011" font-family="CMMI8" font-style="italic"><tspan y="-430.104" x="400.152">n</tspan></text>
<text xml:space="preserve" transform="matrix(1 0 -0 1 0 841.89)" font-size="11.95517" font-family="CMSY10" font-style="italic"><tspan y="-431.897" x="409.109 421.7217">&#x2264;&#x2212;</tspan></text>
<text xml:space="preserve" transform="matrix(1 0 -0 1 0 841.89)" font-size="11.95517" font-family="CMMI12" font-style="italic"><tspan y="-431.897" x="431.027">b</tspan></text>
<text xml:space="preserve" transform="matrix(1 0 -0 1 0 841.89)" font-size="7.97011" font-family="CMMI8" font-style="italic"><tspan y="-430.104" x="436.004">i</tspan></text>
<text xml:space="preserve" transform="matrix(1 0 -0 1 0 841.89)" font-size="11.95517" font-family="LMRoman12"><tspan y="-431.897" x="514.52 519.07498 524.933 528.1848 534.04287">(1.6)</tspan><tspan y="-410.976" x="56.693 60.267599 66.77121 75.22351">f&#x00fc;ri</tspan></text>
<text xml:space="preserve" transform="matrix(1 0 -0 1 0 841.89)" font-size="11.95517" font-family="CMSY10" font-style="italic"><tspan y="-410.976" x="82.381 93.66668">&#x2208;{</tspan></text>
<text xml:space="preserve" transform="matrix(1 0 -0 1 0 841.89)" font-size="11.95517" font-family="CMR12"><tspan y="-410.976" x="99.65">1</tspan></text>
<text xml:space="preserve" transform="matrix(1 0 -0 1 0 841.89)" font-size="11.95517" font-family="CMMI12" font-style="italic"><tspan y="-410.976" x="105.503 110.739368 115.987689 121.22405 126.472377">,...,</tspan></text>
<text xml:space="preserve" transform="matrix(1 0 -0 1 0 841.89)" font-size="11.95517" font-family="LMRoman12"><tspan y="-410.976" x="131.724">m</tspan></text>
<text xml:space="preserve" transform="matrix(1 0 -0 1 0 841.89)" font-size="11.95517" font-family="CMSY10" font-style="italic"><tspan y="-410.976" x="141.479">}</tspan></text>
<text xml:space="preserve" transform="matrix(1 0 -0 1 0 841.89)" font-size="11.95517" font-family="LMRoman12"><tspan y="-410.976" x="147.457">.</tspan><tspan y="-396.53" x="56.693 64.65514 67.90695 74.41057 82.62377 91.80534 95.05715 100.25765 103.50946 108.399127 114.57995 121.08356 127.58717 133.4452 138.0599 144.56352 149.76403 156.57848 161.77898 167.97176 174.78621 179.98671 186.49033 189.74213 196.24575 202.10378 208.60739 215.11101 223.9937 228.54862 233.16332 236.41512 241.61562 248.11923 256.3444 265.52598 268.77778 273.97828 277.23008 282.11976 288.2886 294.7922 301.2958 310.16654 316.02458 319.27638 325.1344 330.3349 337.9145 346.3668 349.6186 354.17353 363.70179 370.20539 376.70899 381.26393 386.1536 395.6699 400.8704 408.9999 414.2004">EineGleichungsnebenbedingung(sieheGleichung1.3c)wirddurchzwei</tspan></text>
<text xml:space="preserve" transform="matrix(1 0 -0 1 0 841.89)" font-size="11.95517" font-family="CMSY10" font-style="italic"><tspan y="-396.53" x="420.486">&#x2264;</tspan></text>
<text xml:space="preserve" transform="matrix(1 0 -0 1 0 841.89)" font-size="11.95517" font-family="LMRoman12"><tspan y="-396.53" x="432.809 441.58409 446.78459 453.61097 458.81147 464.99229 471.81867 477.01918 483.52278 486.77458 493.27818 499.1362 505.6398 512.14346 521.01419 530.7696 534.0214">Nebenbedingungmit</tspan><tspan y="-382.084" x="56.693 60.267599 65.468097 73.5976 78.7981 82.04991 85.30172 93.8138 100.31741 106.49824 111.053157 116.253658 120.80857 125.42326 130.30098 136.8046 140.0564 145.2569 151.76052 155.01232 158.26412 163.14183 169.64545 174.84595 185.235 193.05368 198.89977 203.45468 208.65518 213.85569 217.10749 221.9852 228.48882 233.68932 244.09032 249.29082 253.84574 258.46043 263.66093 268.21586 273.41636 277.97129 285.12049">jeweilsunterschiedlichenVorzeichenersetzt:[</tspan></text>
<text xml:space="preserve" transform="matrix(1 0 -0 1 0 841.89)" font-size="11.95517" font-family="LMRoman12" font-weight="bold"><tspan y="-382.084" x="288.402">?</tspan></text>
<text xml:space="preserve" transform="matrix(1 0 -0 1 0 841.89)" font-size="11.95517" font-family="LMRoman12"><tspan y="-382.084" x="294.753">]</tspan></text>
<text xml:space="preserve" transform="matrix(1 0 -0 1 0 841.89)" font-size="11.95517" font-family="CMMI12" font-style="italic"><tspan y="-353.192" x="84.487">a</tspan></text>
<text xml:space="preserve" transform="matrix(1 0 -0 1 0 841.89)" font-size="7.97011" font-family="CMMI8" font-style="italic"><tspan y="-351.399" x="90.632">i</tspan></text>
<text xml:space="preserve" transform="matrix(1 0 -0 1 0 841.89)" font-size="7.97011" font-family="CMR8"><tspan y="-351.399" x="93.515">1</tspan></text>
<text xml:space="preserve" transform="matrix(1 0 -0 1 0 841.89)" font-size="11.95517" font-family="CMR12"><tspan y="-353.192" x="100.904">+</tspan></text>
<text xml:space="preserve" transform="matrix(1 0 -0 1 0 841.89)" font-size="11.95517" font-family="CMMI12" font-style="italic"><tspan y="-353.192" x="112.665 117.90137 123.14969">...</tspan></text>
<text xml:space="preserve" transform="matrix(1 0 -0 1 0 841.89)" font-size="11.95517" font-family="CMR12"><tspan y="-353.192" x="129.062">+</tspan></text>
<text xml:space="preserve" transform="matrix(1 0 -0 1 0 841.89)" font-size="11.95517" font-family="CMMI12" font-style="italic"><tspan y="-353.192" x="140.823">a</tspan></text>
<text xml:space="preserve" transform="matrix(1 0 -0 1 0 841.89)" font-size="7.97011" font-family="CMMI8" font-style="italic"><tspan y="-351.399" x="146.968 149.85318">in</tspan></text>
<text xml:space="preserve" transform="matrix(1 0 -0 1 0 841.89)" font-size="11.95517" font-family="CMR12"><tspan y="-353.192" x="158.809">=</tspan></text>
<text xml:space="preserve" transform="matrix(1 0 -0 1 0 841.89)" font-size="11.95517" font-family="CMMI12" font-style="italic"><tspan y="-353.192" x="171.234">b</tspan></text>
<text xml:space="preserve" transform="matrix(1 0 -0 1 0 841.89)" font-size="7.97011" font-family="CMMI8" font-style="italic"><tspan y="-351.399" x="176.211">i</tspan></text>
<text xml:space="preserve" transform="matrix(1 0 -0 1 0 841.89)" font-size="11.95517" font-family="CMSY10" font-style="italic"><tspan y="-353.192" x="194.619 201.93556">&#x2212;&#x2192;</tspan></text>
<text xml:space="preserve" transform="matrix(1 0 -0 1 0 841.89)" font-size="11.95517" font-family="CMMI12" font-style="italic"><tspan y="-353.192" x="228.907">a</tspan></text>
<text xml:space="preserve" transform="matrix(1 0 -0 1 0 841.89)" font-size="7.97011" font-family="CMMI8" font-style="italic"><tspan y="-351.399" x="235.052">i</tspan></text>
<text xml:space="preserve" transform="matrix(1 0 -0 1 0 841.89)" font-size="7.97011" font-family="CMR8"><tspan y="-351.399" x="237.935">1</tspan></text>
<text xml:space="preserve" transform="matrix(1 0 -0 1 0 841.89)" font-size="11.95517" font-family="CMR12"><tspan y="-353.192" x="245.324">+</tspan></text>
<text xml:space="preserve" transform="matrix(1 0 -0 1 0 841.89)" font-size="11.95517" font-family="CMMI12" font-style="italic"><tspan y="-353.192" x="257.085 262.32136 267.56968">...</tspan></text>
<text xml:space="preserve" transform="matrix(1 0 -0 1 0 841.89)" font-size="11.95517" font-family="CMR12"><tspan y="-353.192" x="273.482">+</tspan></text>
<text xml:space="preserve" transform="matrix(1 0 -0 1 0 841.89)" font-size="11.95517" font-family="CMMI12" font-style="italic"><tspan y="-353.192" x="285.243">a</tspan></text>
<text xml:space="preserve" transform="matrix(1 0 -0 1 0 841.89)" font-size="7.97011" font-family="CMMI8" font-style="italic"><tspan y="-351.399" x="291.388 294.2732">in</tspan></text>
<text xml:space="preserve" transform="matrix(1 0 -0 1 0 841.89)" font-size="11.95517" font-family="CMSY10" font-style="italic"><tspan y="-353.192" x="303.229">&#x2264;</tspan></text>
<text xml:space="preserve" transform="matrix(1 0 -0 1 0 841.89)" font-size="11.95517" font-family="CMMI12" font-style="italic"><tspan y="-353.192" x="315.848">b</tspan></text>
<text xml:space="preserve" transform="matrix(1 0 -0 1 0 841.89)" font-size="7.97011" font-family="CMMI8" font-style="italic"><tspan y="-351.399" x="320.825">i</tspan></text>
<text xml:space="preserve" transform="matrix(1 0 -0 1 0 841.89)" font-size="11.95517" font-family="LMRoman12"><tspan y="-353.192" x="335.912 342.4156 348.9192">und</tspan></text>
<text xml:space="preserve" transform="matrix(1 0 -0 1 0 841.89)" font-size="11.95517" font-family="CMSY10" font-style="italic"><tspan y="-353.192" x="369.786">&#x2212;</tspan></text>
<text xml:space="preserve" transform="matrix(1 0 -0 1 0 841.89)" font-size="11.95517" font-family="CMMI12" font-style="italic"><tspan y="-353.192" x="381.741">a</tspan></text>
<text xml:space="preserve" transform="matrix(1 0 -0 1 0 841.89)" font-size="7.97011" font-family="CMMI8" font-style="italic"><tspan y="-351.399" x="387.886">i</tspan></text>
<text xml:space="preserve" transform="matrix(1 0 -0 1 0 841.89)" font-size="7.97011" font-family="CMR8"><tspan y="-351.399" x="390.769">1</tspan></text>
<text xml:space="preserve" transform="matrix(1 0 -0 1 0 841.89)" font-size="11.95517" font-family="CMSY10" font-style="italic"><tspan y="-353.192" x="398.158">&#x2212;</tspan></text>
<text xml:space="preserve" transform="matrix(1 0 -0 1 0 841.89)" font-size="11.95517" font-family="CMMI12" font-style="italic"><tspan y="-353.192" x="410.113 415.34938 420.5977">...</tspan></text>
<text xml:space="preserve" transform="matrix(1 0 -0 1 0 841.89)" font-size="11.95517" font-family="CMSY10" font-style="italic"><tspan y="-353.192" x="426.51">&#x2212;</tspan></text>
<text xml:space="preserve" transform="matrix(1 0 -0 1 0 841.89)" font-size="11.95517" font-family="CMMI12" font-style="italic"><tspan y="-353.192" x="438.465">a</tspan></text>
<text xml:space="preserve" transform="matrix(1 0 -0 1 0 841.89)" font-size="7.97011" font-family="CMMI8" font-style="italic"><tspan y="-351.399" x="444.61 447.49519">in</tspan></text>
<text xml:space="preserve" transform="matrix(1 0 -0 1 0 841.89)" font-size="11.95517" font-family="CMSY10" font-style="italic"><tspan y="-353.192" x="456.45 469.0627">&#x2264;&#x2212;</tspan></text>
<text xml:space="preserve" transform="matrix(1 0 -0 1 0 841.89)" font-size="11.95517" font-family="CMMI12" font-style="italic"><tspan y="-353.192" x="478.368">b</tspan></text>
<text xml:space="preserve" transform="matrix(1 0 -0 1 0 841.89)" font-size="7.97011" font-family="CMMI8" font-style="italic"><tspan y="-351.399" x="483.345">i</tspan></text>
<text xml:space="preserve" transform="matrix(1 0 -0 1 0 841.89)" font-size="11.95517" font-family="LMRoman12"><tspan y="-353.192" x="514.52 519.07498 524.933 528.1848 534.04287">(1.7)</tspan><tspan y="-332.271" x="56.693 64.977939 70.17844 77.53087 84.034488 87.28629 92.48679 97.10149 102.30199 116.15803 122.82901 128.68704 131.93885 139.27931 144.47982 149.03473 157.1762 162.3767 165.6285 170.18341 175.38391 179.93883 188.58242 193.19712 196.44892 201.33858 211.93087 218.43448 221.68628 230.9874 238.13658 243.33708 246.58889 249.84069 255.04119 261.5448 267.40284 273.90644 279.10694 284.96498 291.46858 298.82099 312.67704 319.18064 324.38114 333.09645 339.60005 345.78086 350.39555 354.95048 360.15098 369.9064 378.6217 385.1253 390.3258 398.98136 407.75645 412.95695 419.78334 424.98384 431.1766 437.99104 443.19154 449.69514 452.94694 459.45054 465.30857 471.81217 478.31578 484.1738 489.3743 495.8779 503.23033 509.73393 523.58999 530.09359 533.3454">BeidiesemFallerweitertsichdieZeilenanzahlmdesSystemsderNebenbedingungen,umdie</tspan><tspan y="-317.825" x="56.693 65.468097 71.97171 77.17221 83.03024 89.53386 97.34058 103.84419 109.04469 118.16648 123.36698 134.43747 138.99239 143.5473 149.40534 155.90895 160.52365 164.09825 169.95629 174.5112 184.26662 187.51842 192.71892 197.27384 202.47434 208.97795 215.48157 220.68207 231.7406 240.92217 244.17397 249.37447 252.62627 257.51594 263.69676 270.20036 276.70396 282.56199 287.17668 291.7316 296.9321 301.54679 306.1017 310.65666 313.90846 320.08927 324.6442 327.896 333.75404 340.25764 345.44618 351.94978 359.76844 366.27204 372.13008 381.8855 385.1373 394.24717 397.49897 403.357 407.97169 412.58638 417.78688 428.85734 433.47203 436.72383 441.6135 452.67204 457.2867 463.14476 472.5774 477.13233 480.38414 483.63594 488.51365 495.01725 504.77268 508.02449 511.27629 517.7799 522.9804 528.83847 533.3934">AnzahlderzutransformierendenGleichungsrestriktionen.Somitlassensichs&#x00e4;mtlichelineare</tspan><tspan y="-303.379" x="56.693 65.80284 72.30646 76.861377 80.11318 89.8686 93.12041 98.32091 102.875827 109.37944 115.88306 121.74109 126.35578 132.85939 137.4143 143.27234 149.77596 153.02776 158.22826 167.98368 177.08156 180.33336 190.73436 197.23798 202.43848 210.89078 214.46538 220.32341 223.57521 229.43325 234.63375 241.13736 247.64098 252.84148 263.25444 269.43525 275.29328 281.79689 287.6549 294.1585 297.4103 302.025 306.9027 313.4063 318.6068 329.0078 335.67878 341.5368 346.09175 359.74458 366.24818 372.1062 376.66114 381.27583 385.83076 391.03126 394.28306 397.53486 402.73536 409.23896 416.38816">OptimierungsproblemeinderfolgendenkanonischenFormdarstellen:[</tspan></text>
<text xml:space="preserve" transform="matrix(1 0 -0 1 0 841.89)" font-size="11.95517" font-family="LMRoman12" font-weight="bold"><tspan y="-303.379" x="419.614">?</tspan></text>
<text xml:space="preserve" transform="matrix(1 0 -0 1 0 841.89)" font-size="11.95517" font-family="LMRoman12"><tspan y="-303.379" x="425.965">]</tspan><tspan y="-270.136" x="188.625 199.34879 205.20682 211.38764 214.63944 224.39485 227.64665 232.84716 237.40207">Maximiere</tspan></text>
<text xml:space="preserve" transform="matrix(1 0 -0 1 0 841.89)" font-size="11.95517" font-family="CMMI12" font-style="italic"><tspan y="-270.136" x="244.592">f</tspan></text>
<text xml:space="preserve" transform="matrix(1 0 -0 1 0 841.89)" font-size="11.95517" font-family="CMR12"><tspan y="-270.136" x="251.639">(</tspan></text>
<text xml:space="preserve" transform="matrix(1 0 -0 1 0 841.89)" font-size="11.95517" font-family="CMBX12" font-weight="bold"><tspan y="-270.136" x="256.191">x</tspan></text>
<text xml:space="preserve" transform="matrix(1 0 -0 1 0 841.89)" font-size="11.95517" font-family="CMR12"><tspan y="-270.136" x="263.289 271.15553">)=</tspan></text>
<text xml:space="preserve" transform="matrix(1 0 -0 1 0 841.89)" font-size="7.97011" font-family="CMMI8" font-style="italic"><tspan y="-285.08" x="289.653">n</tspan></text>
<text xml:space="preserve" transform="matrix(1 0 -0 1 0 841.89)" font-size="11.95517" font-family="CMEX10"><tspan y="-281.493" x="283.588">&#xfffd;</tspan></text>
<text xml:space="preserve" transform="matrix(1 0 -0 1 0 841.89)" font-size="7.97011" font-family="CMMI8" font-style="italic"><tspan y="-256.299" x="284.87">j</tspan></text>
<text xml:space="preserve" transform="matrix(1 0 -0 1 0 841.89)" font-size="7.97011" font-family="CMR8"><tspan y="-256.299" x="288.754 295.3373">=1</tspan></text>
<text xml:space="preserve" transform="matrix(1 0 -0 1 0 841.89)" font-size="11.95517" font-family="CMMI12" font-style="italic"><tspan y="-270.136" x="302.849">c</tspan></text>
<text xml:space="preserve" transform="matrix(1 0 -0 1 0 841.89)" font-size="7.97011" font-family="CMMI8" font-style="italic"><tspan y="-268.342" x="307.887">j</tspan></text>
<text xml:space="preserve" transform="matrix(1 0 -0 1 0 841.89)" font-size="11.95517" font-family="CMMI12" font-style="italic"><tspan y="-270.136" x="314.262">x</tspan></text>
<text xml:space="preserve" transform="matrix(1 0 -0 1 0 841.89)" font-size="7.97011" font-family="CMMI8" font-style="italic"><tspan y="-268.342" x="320.914">j</tspan></text>
<text xml:space="preserve" transform="matrix(1 0 -0 1 0 841.89)" font-size="11.95517" font-family="LMRoman12"><tspan y="-270.136" x="508.521 513.0759 518.93399 522.1858 528.0438 534.0453">(1.8a)</tspan></text>
<text xml:space="preserve" transform="matrix(1 0 -0 1 0 841.89)" font-size="7.97011" font-family="CMMI8" font-style="italic"><tspan y="-244.941" x="237.953">n</tspan></text>
<text xml:space="preserve" transform="matrix(1 0 -0 1 0 841.89)" font-size="11.95517" font-family="CMEX10"><tspan y="-241.355" x="231.887">&#xfffd;</tspan></text>
<text xml:space="preserve" transform="matrix(1 0 -0 1 0 841.89)" font-size="7.97011" font-family="CMMI8" font-style="italic"><tspan y="-216.16" x="233.169">j</tspan></text>
<text xml:space="preserve" transform="matrix(1 0 -0 1 0 841.89)" font-size="7.97011" font-family="CMR8"><tspan y="-216.16" x="237.053 243.6363">=1</tspan></text>
<text xml:space="preserve" transform="matrix(1 0 -0 1 0 841.89)" font-size="11.95517" font-family="CMMI12" font-style="italic"><tspan y="-229.997" x="251.149">a</tspan></text>
<text xml:space="preserve" transform="matrix(1 0 -0 1 0 841.89)" font-size="7.97011" font-family="CMMI8" font-style="italic"><tspan y="-228.204" x="257.293 260.1782">ij</tspan></text>
<text xml:space="preserve" transform="matrix(1 0 -0 1 0 841.89)" font-size="11.95517" font-family="CMMI12" font-style="italic"><tspan y="-229.997" x="266.551">x</tspan></text>
<text xml:space="preserve" transform="matrix(1 0 -0 1 0 841.89)" font-size="7.97011" font-family="CMMI8" font-style="italic"><tspan y="-228.204" x="273.203">j</tspan></text>
<text xml:space="preserve" transform="matrix(1 0 -0 1 0 841.89)" font-size="11.95517" font-family="CMSY10" font-style="italic"><tspan y="-229.997" x="280.906">&#x2264;</tspan></text>
<text xml:space="preserve" transform="matrix(1 0 -0 1 0 841.89)" font-size="11.95517" font-family="CMMI12" font-style="italic"><tspan y="-229.997" x="293.526">b</tspan></text>
<text xml:space="preserve" transform="matrix(1 0 -0 1 0 841.89)" font-size="7.97011" font-family="CMMI8" font-style="italic"><tspan y="-228.204" x="298.503">i</tspan></text>
<text xml:space="preserve" transform="matrix(1 0 -0 1 0 841.89)" font-size="11.95517" font-family="LMRoman12"><tspan y="-229.997" x="325.296 328.87059 335.37419 343.8265">f&#x00fc;ri</tspan></text>
<text xml:space="preserve" transform="matrix(1 0 -0 1 0 841.89)" font-size="11.95517" font-family="CMR12"><tspan y="-229.997" x="352.396 364.8174">=1</tspan></text>
<text xml:space="preserve" transform="matrix(1 0 -0 1 0 841.89)" font-size="11.95517" font-family="CMMI12" font-style="italic"><tspan y="-229.997" x="370.674 375.91038 381.1587 386.407 391.64338">,...,</tspan></text>
<text xml:space="preserve" transform="matrix(1 0 -0 1 0 841.89)" font-size="11.95517" font-family="LMRoman12"><tspan y="-229.997" x="396.895 508.00636 512.5613 518.4193 521.67117 527.5292 534.0328">m(1.8b)</tspan></text>
<text xml:space="preserve" transform="matrix(1 0 -0 1 0 841.89)" font-size="11.95517" font-family="CMMI12" font-style="italic"><tspan y="-199.318" x="269.057">x</tspan></text>
<text xml:space="preserve" transform="matrix(1 0 -0 1 0 841.89)" font-size="7.97011" font-family="CMMI8" font-style="italic"><tspan y="-197.525" x="275.709">j</tspan></text>
<text xml:space="preserve" transform="matrix(1 0 -0 1 0 841.89)" font-size="11.95517" font-family="CMSY10" font-style="italic"><tspan y="-199.318" x="283.412">&#x2265;</tspan></text>
<text xml:space="preserve" transform="matrix(1 0 -0 1 0 841.89)" font-size="11.95517" font-family="CMR12"><tspan y="-199.318" x="296.031">0</tspan></text>
<text xml:space="preserve" transform="matrix(1 0 -0 1 0 841.89)" font-size="11.95517" font-family="LMRoman12"><tspan y="-199.318" x="325.296 328.87059 335.37419 343.8265">f&#x00fc;rj</tspan></text>
<text xml:space="preserve" transform="matrix(1 0 -0 1 0 841.89)" font-size="11.95517" font-family="CMR12"><tspan y="-199.318" x="352.721 365.14244">=1</tspan></text>
<text xml:space="preserve" transform="matrix(1 0 -0 1 0 841.89)" font-size="11.95517" font-family="CMMI12" font-style="italic"><tspan y="-199.318" x="370.999 376.23536 381.48368 386.732 391.96836">,...,</tspan></text>
<text xml:space="preserve" transform="matrix(1 0 -0 1 0 841.89)" font-size="11.95517" font-family="LMRoman12"><tspan y="-199.318" x="397.22 509.31169 513.8666 519.7246 522.97647 528.8345 534.035">n(1.8c)</tspan><tspan y="-171.227" x="56.693 60.913179 76.31143 82.81505 88.67308 93.562747 100.06636 104.68105 109.23597 114.43647 126.57096 133.07457 137.96424 144.46785 149.02277 152.27457 156.82949 167.01529 173.84169 179.04219 183.65689 188.54656 195.05017 199.60509 204.80559 208.05739 214.87184 220.07234 232.23076 240.68306 243.93486 254.13262 260.63624 263.88804 274.74333 282.05989 287.9179 292.5326 299.0362 305.5398 311.39784 316.59834 328.74479 335.24839 340.44889 350.70643 359.4815 365.9851 371.84315 375.09495 380.29545 383.54725 388.43693 394.61775 401.12135 407.62495 413.48298 418.09767 422.71235 428.89317 433.50785 438.06278 443.26329 453.0187 463.26429 466.51609 478.67448 484.8553 490.71333 497.21693 503.07496 509.57856 512.8304 517.44509 522.32278 528.82638 534.02688">Imn&#x00e4;chstenSchrittbeschreibenwirdieL&#x00f6;sungendesUngleichungssystemsinkanonischer</tspan><tspan y="-156.781" x="56.693 63.363985 69.222019 73.77693 87.36996 91.92487 96.539569 99.791378 104.991878 111.49548 120.54555 129.72711 132.97891 138.17942 141.43122 146.32088 152.50171 159.00533 165.50894 175.20459 181.06262 184.31443 190.17246 198.57694 204.43497 207.68677 216.15103 223.46759 229.32563 233.94033 240.44394 246.94756 252.80559 258.00608 268.3712 273.5717 276.8235 283.3271 288.5276 296.99186 306.17344 309.42524 314.62574 317.87754 322.7672 328.93608 335.43968 341.94328 347.8013 352.416 357.03068 363.2115 367.82618 372.3811 377.5816 387.33705 395.8013 399.0531 409.40629 418.18138 424.0394 428.59434 438.34977 444.2078 447.4596 451.03419 456.8922 461.44715 471.20259 478.30397 485.71617 492.21977 500.6123 507.1159 510.3677 519.4177 528.1928 534.6964">Form(sieheGleichung1.8)alsL&#x00f6;sungeneinesGleichungssystemsinNormalform.F&#x00fc;rdieUn-</tspan><tspan y="-142.335" x="56.693 62.551034 65.80284 71.00334 74.25515 79.13286 85.31368 91.81729 98.32091 104.17894 108.79363 115.29724 120.49774 127.312198 132.5127 138.70548 145.51993 150.72043 157.22405 160.47585 166.97946 172.8375 179.34111 185.84473 191.70276 196.90326 206.92169 211.47661 216.09131 219.34311 224.54361 231.04723 239.7506 248.93216 252.18396 257.38447 260.63627 265.52595 271.6948 278.1984 284.702 294.0629 299.92094 303.17274 309.03077 315.53437 323.59217 327.16676 333.67036 340.17396 344.72889 349.92939 359.9478 368.40013 371.65193 379.70973 386.21333 389.46513 394.3548 400.5356 408.58146 415.08506 420.28556 426.1436 432.00163 436.55656 439.80836 445.67835 454.36976 460.87336 465.76304 472.26664 475.51844 482.02204 488.52565 492.10023 497.6235 503.48155 508.03648 511.28828 517.1463 523.6499 526.90176 532.10226">gleichungsnebenbedingungen(sieheGleichung1.8b)f&#x00fc;hrenwirnichtnegativeSchlupfvariablen</tspan></text>
<text xml:space="preserve" transform="matrix(1 0 -0 1 0 841.89)" font-size="11.95517" font-family="CMMI12" font-style="italic"><tspan y="-127.89" x="56.693">x</tspan></text>
<text xml:space="preserve" transform="matrix(1 0 -0 1 0 841.89)" font-size="7.97011" font-family="CMMI8" font-style="italic"><tspan y="-126.096" x="63.345">n</tspan></text>
<text xml:space="preserve" transform="matrix(1 0 -0 1 0 841.89)" font-size="7.97011" font-family="CMR8"><tspan y="-126.096" x="68.483 75.066318">+1</tspan></text>
<text xml:space="preserve" transform="matrix(1 0 -0 1 0 841.89)" font-size="11.95517" font-family="CMMI12" font-style="italic"><tspan y="-127.89" x="79.802 85.03837 90.28669 95.53501 100.77138 106.0197">,...,x</tspan></text>
<text xml:space="preserve" transform="matrix(1 0 -0 1 0 841.89)" font-size="7.97011" font-family="CMMI8" font-style="italic"><tspan y="-126.096" x="112.675">n</tspan></text>
<text xml:space="preserve" transform="matrix(1 0 -0 1 0 841.89)" font-size="7.97011" font-family="CMR8"><tspan y="-126.096" x="117.813">+</tspan></text>
<text xml:space="preserve" transform="matrix(1 0 -0 1 0 841.89)" font-size="7.97011" font-family="CMMI8" font-style="italic"><tspan y="-126.096" x="124.4">m</tspan></text>
<text xml:space="preserve" transform="matrix(1 0 -0 1 0 841.89)" font-size="11.95517" font-family="LMRoman12"><tspan y="-127.89" x="138.186 143.3865 146.6383 153.14192 162.19199 168.6956 171.9474 182.94617 186.19797 198.49985 205.00347 210.20397 220.55715 227.70633 230.95813 236.15863 239.41043 242.98503 249.48865 255.99227 262.1731 266.72804 269.97984 275.83787">ein,dieinderZielfunktion</tspan></text>
<text xml:space="preserve" transform="matrix(1 0 -0 1 0 841.89)" font-size="11.95517" font-family="CMMI12" font-style="italic"><tspan y="-127.89" x="288.142">f</tspan></text>
<text xml:space="preserve" transform="matrix(1 0 -0 1 0 841.89)" font-size="11.95517" font-family="LMRoman12"><tspan y="-127.89" x="300.987 310.74244 313.99424">mit</tspan></text>
<text xml:space="preserve" transform="matrix(1 0 -0 1 0 841.89)" font-size="11.95517" font-family="CMR12"><tspan y="-127.89" x="324.344">0</tspan></text>
<text xml:space="preserve" transform="matrix(1 0 -0 1 0 841.89)" font-size="11.95517" font-family="LMRoman12"><tspan y="-127.89" x="335.995 342.82139 348.02189 356.1514 361.3519 365.90684 370.46177 375.66227 386.0035 394.145 399.3455 403.90043 410.40403 415.60453 422.10813 431.15818 440.10066 443.35246 454.3512 460.8548 465.74449 472.24809 475.49989 482.00349 488.50709 492.08168 497.60496 503.46299 508.0179 511.2697 517.12777 523.63137 526.8832 532.0837">bewertetwerden.DieSchlupfvariablen</tspan><tspan y="-113.444" x="56.693 61.307699 66.1854 72.68901 75.94082 79.19263 84.39313 97.40035 102.60085 113.00185 119.50546 122.75727 131.85517 139.17173 145.67534 150.565 156.41107 161.61157 172.01258 175.26438 185.66538 192.16899 197.36949 207.78246 216.55756 223.06118 228.9192 232.171 237.3715 240.6233 245.50102 251.68186 258.18547 264.68907 270.5471 275.7476 282.2512 289.38844 295.89204 301.1045 307.6081 314.7573">schlie&#xfffd;endieL&#x00fc;ckenindenUngleichungen,d.h.[</tspan></text>
<text xml:space="preserve" transform="matrix(1 0 -0 1 0 841.89)" font-size="11.95517" font-family="LMRoman12" font-weight="bold"><tspan y="-113.444" x="318.027">?</tspan></text>
<text xml:space="preserve" transform="matrix(1 0 -0 1 0 841.89)" font-size="11.95517" font-family="LMRoman12"><tspan y="-113.444" x="324.378">,</tspan></text>
<text xml:space="preserve" transform="matrix(1 0 -0 1 0 841.89)" font-size="11.95517" font-family="LMRoman12" font-weight="bold"><tspan y="-113.444" x="331.532">?</tspan></text>
<text xml:space="preserve" transform="matrix(1 0 -0 1 0 841.89)" font-size="11.95517" font-family="LMRoman12"><tspan y="-113.444" x="337.883">]</tspan></text>
<text xml:space="preserve" transform="matrix(1 0 -0 1 0 841.89)" font-size="11.95517" font-family="CMMI12" font-style="italic"><tspan y="-84.552" x="165.494">x</tspan></text>
<text xml:space="preserve" transform="matrix(1 0 -0 1 0 841.89)" font-size="7.97011" font-family="CMMI8" font-style="italic"><tspan y="-82.759" x="172.146">n</tspan></text>
<text xml:space="preserve" transform="matrix(1 0 -0 1 0 841.89)" font-size="7.97011" font-family="CMR8"><tspan y="-82.759" x="177.285">+</tspan></text>
<text xml:space="preserve" transform="matrix(1 0 -0 1 0 841.89)" font-size="7.97011" font-family="CMMI8" font-style="italic"><tspan y="-82.759" x="183.871">i</tspan></text>
<text xml:space="preserve" transform="matrix(1 0 -0 1 0 841.89)" font-size="11.95517" font-family="CMR12"><tspan y="-84.552" x="190.573">=</tspan></text>
<text xml:space="preserve" transform="matrix(1 0 -0 1 0 841.89)" font-size="11.95517" font-family="CMMI12" font-style="italic"><tspan y="-84.552" x="202.999">b</tspan></text>
<text xml:space="preserve" transform="matrix(1 0 -0 1 0 841.89)" font-size="7.97011" font-family="CMMI8" font-style="italic"><tspan y="-82.759" x="207.976">i</tspan></text>
<text xml:space="preserve" transform="matrix(1 0 -0 1 0 841.89)" font-size="11.95517" font-family="CMSY10" font-style="italic"><tspan y="-84.552" x="214.014">&#x2212;</tspan></text>
<text xml:space="preserve" transform="matrix(1 0 -0 1 0 841.89)" font-size="11.95517" font-family="CMMI12" font-style="italic"><tspan y="-84.552" x="225.969">a</tspan></text>
<text xml:space="preserve" transform="matrix(1 0 -0 1 0 841.89)" font-size="7.97011" font-family="CMMI8" font-style="italic"><tspan y="-82.759" x="232.114">i</tspan></text>
<text xml:space="preserve" transform="matrix(1 0 -0 1 0 841.89)" font-size="7.97011" font-family="CMR8"><tspan y="-82.759" x="234.997">1</tspan></text>
<text xml:space="preserve" transform="matrix(1 0 -0 1 0 841.89)" font-size="11.95517" font-family="CMMI12" font-style="italic"><tspan y="-84.552" x="241.722">x</tspan></text>
<text xml:space="preserve" transform="matrix(1 0 -0 1 0 841.89)" font-size="7.97011" font-family="CMR8"><tspan y="-82.759" x="248.374">1</tspan></text>
<text xml:space="preserve" transform="matrix(1 0 -0 1 0 841.89)" font-size="11.95517" font-family="CMSY10" font-style="italic"><tspan y="-84.552" x="255.763">&#x2212;</tspan></text>
<text xml:space="preserve" transform="matrix(1 0 -0 1 0 841.89)" font-size="11.95517" font-family="CMMI12" font-style="italic"><tspan y="-84.552" x="267.718 272.95436 278.20268">...</tspan></text>
<text xml:space="preserve" transform="matrix(1 0 -0 1 0 841.89)" font-size="11.95517" font-family="CMSY10" font-style="italic"><tspan y="-84.552" x="284.115">&#x2212;</tspan></text>
<text xml:space="preserve" transform="matrix(1 0 -0 1 0 841.89)" font-size="11.95517" font-family="CMMI12" font-style="italic"><tspan y="-84.552" x="296.07">a</tspan></text>
<text xml:space="preserve" transform="matrix(1 0 -0 1 0 841.89)" font-size="7.97011" font-family="CMMI8" font-style="italic"><tspan y="-82.759" x="302.215 305.1002">in</tspan></text>
<text xml:space="preserve" transform="matrix(1 0 -0 1 0 841.89)" font-size="11.95517" font-family="CMMI12" font-style="italic"><tspan y="-84.552" x="312.727">x</tspan></text>
<text xml:space="preserve" transform="matrix(1 0 -0 1 0 841.89)" font-size="7.97011" font-family="CMMI8" font-style="italic"><tspan y="-82.759" x="319.379">n</tspan></text>
<text xml:space="preserve" transform="matrix(1 0 -0 1 0 841.89)" font-size="11.95517" font-family="LMRoman12"><tspan y="-84.552" x="348.427 352.0016 358.5052 366.95753">f&#x00fc;ri</tspan></text>
<text xml:space="preserve" transform="matrix(1 0 -0 1 0 841.89)" font-size="11.95517" font-family="CMR12"><tspan y="-84.552" x="375.527 387.94844">=1</tspan></text>
<text xml:space="preserve" transform="matrix(1 0 -0 1 0 841.89)" font-size="11.95517" font-family="CMMI12" font-style="italic"><tspan y="-84.552" x="393.805 399.04136 404.28968 409.538 414.77436">,...,</tspan></text>
<text xml:space="preserve" transform="matrix(1 0 -0 1 0 841.89)" font-size="11.95517" font-family="LMRoman12"><tspan y="-84.552" x="420.026 514.51968 519.0746 524.9326 528.18447 534.0425">m(1.9)</tspan></text>
<text xml:space="preserve" transform="matrix(1 0 -0 1 0 841.89)" font-size="11.95517" font-family="LMRoman12"><tspan y="-20.306" x="294.711">3</tspan></text>
</g>
</svg>
