<?xml version="1.0" encoding="UTF-8" standalone="no"?>
<!DOCTYPE svg PUBLIC "-//W3C//DTD SVG 1.1//EN" "http://www.w3.org/Graphics/SVG/1.1/DTD/svg11.dtd">
<svg xmlns="http://www.w3.org/2000/svg" xmlns:xlink="http://www.w3.org/1999/xlink" version="1.1" width="595.276pt" height="841.89pt" viewBox="0 0 595.276 841.89">
<g enable-background="new">
<text xml:space="preserve" transform="matrix(1 0 -0 1 0 841.89)" font-size="24.78705" font-family="LMRoman17"><tspan y="-710.128" x="56.693 64.82315 77.489337 90.15552 101.532779 107.72954 116.50415 125.4027 136.77996 146.84349 155.6181 165.68164 175.74518 181.94194 191.36101 204.02719 216.69338 222.89014">Inhaltsverzeichnis</tspan></text>
<text xml:space="preserve" transform="matrix(1 0 -0 1 0 841.89)" font-size="11.95517" font-family="LMRoman12"><tspan y="-670.763" x="56.693 74.25514 80.75876 84.01057 93.76598 100.26959 103.5214 108.7219 114.902729 118.80011 127.5752 130.82701 136.68505 142.54308 147.09799 150.3498 154.90471 161.40833 170.84096 177.34458 532.7359">1Simplex-Algorithmus2</tspan><tspan y="-656.318" x="74.252 80.11003 83.36184 101.17504 110.35661 114.91153 121.415149 127.91876 134.42238 137.67418 143.53221 149.39025 154.59075 165.00371 168.25551 171.50731 178.01093 183.21143 189.06946 193.62438 202.72226 211.83209 218.33571 222.89063 226.14243 235.89785 239.14965 244.35015 248.90506 255.40868 261.9123 271.97856 281.20796 290.43736 299.66676 308.89616 318.12556 327.35496 336.58436 345.81376 355.04316 364.27256 373.50196 382.73136 391.96076 401.19017 410.41957 419.64897 428.87837 438.10777 447.33717 456.56657 465.79597 475.02537 484.25477 493.48417 502.71357 511.94297">1.1GrundlagenlineareOptimierung...........................</tspan></text>
<text xml:space="preserve" transform="matrix(1 0 -0 1 0 841.89)" font-size="11.95517" font-family="LMRoman12"><tspan y="-656.318" x="532.73">2</tspan></text>
<text xml:space="preserve" transform="matrix(1 0 -0 1 0 841.89)" font-size="11.95517" font-family="LMRoman12"><tspan y="-641.872" x="74.252 80.11003 83.36184 101.17504 107.67865 110.93046 120.685878 127.18948 130.44129 135.64179 141.8226 147.69258 152.89308 157.448 161.0226 166.88063 173.38425 177.93917 183.13967 193.52872 200.36708 205.56758 212.71677 219.54317 224.74367 230.92449 236.78252 243.28614 249.47891 254.03383 259.2343 267.67469 272.87519 279.37879 282.63059 288.48863 293.1033 297.718 300.9698 306.82783 312.02833 320.48066 327.7972 333.65525 338.26994 344.77354 351.27714 364.2724 373.5018 382.7312 391.9606 401.19 410.4194 419.6488 428.8782 438.1076 447.337 456.5664 465.7958 475.0252 484.2546 493.484 502.7134 511.9428">1.2Simplexverfahrenbeibekannterzul&#x00e4;ssigerL&#x00f6;sung.................</tspan></text>
<text xml:space="preserve" transform="matrix(1 0 -0 1 0 841.89)" font-size="11.95517" font-family="LMRoman12"><tspan y="-641.872" x="532.73">6</tspan></text>
<text xml:space="preserve" transform="matrix(1 0 -0 1 0 841.89)" font-size="11.95517" font-family="LMRoman12"><tspan y="-627.426" x="74.252 80.11003 83.36184 101.17504 109.45998 114.66048 119.27517 123.830089 127.081897 136.83731 146.28189 152.7855 159.28913 169.04454 174.24504 177.49684 184.00046 189.20096 197.65326 202.85376 209.35738 212.60918 218.46721 223.08191 227.69661 230.94841 236.80644 242.00695 252.40795 258.91157 263.4665 269.32453 273.87947 278.4344 284.938 290.79603 295.4107 298.6625 308.88417 318.11357 327.34297 336.57237 345.80177 355.03117 364.26057 373.48997 382.71937 391.94877 401.17817 410.40757 419.63697 428.86637 438.09577 447.32518 456.55458 465.78398 475.01338 484.24278 493.47218 502.70158 511.93098">1.3Bestimmungeinerzul&#x00e4;ssigenStartbasis.......................</tspan></text>
<text xml:space="preserve" transform="matrix(1 0 -0 1 0 841.89)" font-size="11.95517" font-family="LMRoman12"><tspan y="-627.426" x="526.877 532.73507">11</tspan></text>
<text xml:space="preserve" transform="matrix(1 0 -0 1 0 841.89)" font-size="11.95517" font-family="LMRoman12"><tspan y="-601.274" x="56.693 74.25514 83.030239 89.21105 97.34057 102.54107 109.04468 115.548297 122.05191 128.55553 134.41356 139.02826 142.28006 147.48056 150.73236 155.28728 158.86188 164.71991 171.22353 176.42403 186.81308 193.3167 198.5172 206.98146 213.48508 216.73688 226.4923 232.99591 236.24771 241.44821 247.62903 251.52642 260.3015 263.5533 269.41136 275.26939 279.8243 283.0761 287.63105 294.13465 303.5673 310.0709 318.58299 326.5451 331.10005 336.95808 342.8161 347.37104 353.22908 362.9845 372.73994 375.99174 381.19224 385.74717 392.25077 398.75437 526.90188 532.7599">2AnwendungsleitfadenderSimplex-AlgorithmusProgrammierung15</tspan><tspan y="-575.122" x="56.693 74.25514 83.36498 89.86859 95.06909 98.3209 101.57271 106.77321 112.95403 119.45764 526.87789 532.7359">3Quellcode18</tspan><tspan y="-560.677" x="74.252 80.11003 83.36184 101.17504 109.137187 113.6921 116.94391 126.699329 132.55736 135.80916 141.00966 149.47393 155.97754 159.22934 168.98476 175.48838 178.74018 183.94068 190.12149 194.01888 202.79398 206.04578 211.90381 217.76184 222.31676 225.56856 230.12348 236.62709 246.05973 252.56334 262.73719 271.96659 281.19599 290.42539 299.6548 308.8842 318.1136 327.343 336.5724 345.8018 355.0312 364.2606 373.49 382.7194 391.9488 401.1782 410.4076 419.637 428.8664 438.0958 447.3252 456.5546 465.784 475.0134 484.2428 493.4722 502.7016 511.931">3.1PrimalerSimplex-Algorithmus............................</tspan></text>
<text xml:space="preserve" transform="matrix(1 0 -0 1 0 841.89)" font-size="11.95517" font-family="LMRoman12"><tspan y="-560.677" x="526.877 532.73507">18</tspan></text>
<text xml:space="preserve" transform="matrix(1 0 -0 1 0 841.89)" font-size="11.95517" font-family="LMRoman12"><tspan y="-546.231" x="74.252 80.11003 83.36184 101.17504 110.11751 116.621128 122.47916 125.730968 130.93146 139.39572 145.89934 149.15114 158.90656 165.41017 168.66197 173.86248 180.04329 183.94068 192.71578 195.96758 201.8256 207.68364 212.23856 215.49036 220.04528 226.54889 235.98152 242.48514 253.51976 262.74919 271.97859 281.20799 290.43739 299.66679 308.89619 318.12559 327.35499 336.58439 345.81379 355.04319 364.27259 373.50199 382.73139 391.94883 401.17823 410.40763 419.63703 428.86643 438.09584 447.32524 456.55464 465.78404 475.01344 484.24284 493.47224 502.70164 511.93104">3.2DualerSimplex-Algorithmus.............................</tspan></text>
<text xml:space="preserve" transform="matrix(1 0 -0 1 0 841.89)" font-size="11.95517" font-family="LMRoman12"><tspan y="-546.231" x="526.877 532.73507">21</tspan></text>
<text xml:space="preserve" transform="matrix(1 0 -0 1 0 841.89)" font-size="11.95517" font-family="LMRoman12"><tspan y="-20.306" x="294.711">1</tspan></text>
</g>
</svg>
