<?xml version="1.0" encoding="UTF-8" standalone="no"?>
<!DOCTYPE svg PUBLIC "-//W3C//DTD SVG 1.1//EN" "http://www.w3.org/Graphics/SVG/1.1/DTD/svg11.dtd">
<svg xmlns="http://www.w3.org/2000/svg" xmlns:xlink="http://www.w3.org/1999/xlink" version="1.1" width="595.276pt" height="841.89pt" viewBox="0 0 595.276 841.89">
<g enable-background="new">
<text xml:space="preserve" transform="matrix(1 0 -0 1 0 841.89)" font-size="11.95517" font-family="LMRoman12"><tspan y="-773.242" x="56.693 61.307699 71.02725 74.27906 78.89375 87.32214 93.82576 97.07757 106.15154 116.87533 122.07583 128.57944 134.43747 143.4995 149.35753 152.60933 155.86113 164.9351 170.1356 176.63922 179.89102 185.74906 190.36376 194.97846 198.23026 204.08829 209.28879 219.65393 227.93886 233.79689 238.41159 241.66339 246.27809 249.52989 255.38793 260.00263 266.50624 273.00984 278.86787 284.06837">soistdieMengeallezul&#x00e4;ssigenBasisl&#x00f6;sungen</tspan></text>
<text xml:space="preserve" transform="matrix(1 0 -0 1 0 841.89)" font-size="11.95517" font-family="CMBX12" font-weight="bold"><tspan y="-773.242" x="294.452">X</tspan></text>
<text xml:space="preserve" transform="matrix(1 0 -0 1 0 841.89)" font-size="11.95517" font-family="LMRoman12"><tspan y="-773.242" x="308.478 311.7298 316.9303 322.1308">leer</tspan></text>
<text xml:space="preserve" transform="matrix(1 0 -0 1 0 841.89)" font-size="11.95517" font-family="CMBX12" font-weight="bold"><tspan y="-773.242" x="330.557">X</tspan></text>
<text xml:space="preserve" transform="matrix(1 0 -0 1 0 841.89)" font-size="11.95517" font-family="CMR12"><tspan y="-773.242" x="344.034">=</tspan></text>
<text xml:space="preserve" transform="matrix(1 0 -0 1 0 841.89)" font-size="11.95517" font-family="MSBM10"><tspan y="-773.242" x="356.459">&#x2205;</tspan></text>
<text xml:space="preserve" transform="matrix(1 0 -0 1 0 841.89)" font-size="11.95517" font-family="LMRoman12"><tspan y="-773.242" x="369.627 376.1306 382.63423 392.99934 399.50294 405.36097 413.84913 422.6242 427.8247 434.6511 439.8516 446.04438 452.8588 458.0593 464.5629 467.8147 474.3183 480.17634 486.67994 493.18354 499.04158 503.65626 508.27095 514.4518 519.06649 523.6214 528.8219">unddasNebenbedingungssystem</tspan><tspan y="-758.796" x="56.693 63.196615 66.44842 71.326129 77.50695 85.60059 94.0529 97.30471 103.80832 109.00882 113.563739 118.17843 124.68204 129.23696 135.74057 140.61829 147.1219 151.7366 155.3112 159.86612 165.06662 171.85715 176.41207 181.02677 184.27857 189.47907 195.98268 204.73387 211.40486 217.90848 224.4121 230.59291 235.14783 238.39963 244.25766 254.3 262.26216 265.51396 271.38395 277.24198 281.7969 286.9974 292.1979 295.4497 298.7015 303.89006 312.83253 319.33613 325.19416 328.44596 335.59516 342.09877 345.35057 351.2086 356.4091 361.02378 365.63847 368.89027 374.7483 379.30323 386.09376 390.3259 400.36824 406.87184 410.12364 415.32414 419.9388 425.1393 438.44544 445.1164 450.97444 454.22624 461.01676 469.46907 475.97267 480.5276 487.0312 495.78239 502.28599 508.144 516.2975 524.25967 528.8146 534.6726">nichtwiderspruchsfrei(sieheFunktionPivotzeileDualZulaessig).IndiesemFallw&#x00fc;rdedasPro-</tspan><tspan y="-744.35" x="56.693 63.196615 66.44842 71.64892 85.791889 91.64992 96.85042 100.10223 106.605838 116.193889 121.39439 127.897998 131.1498 137.00783 141.62253 146.23723 149.48903 155.34706 164.9351 173.22003 179.07807 183.69277 186.94457 191.55927 194.81107 200.6691 205.2838 211.78742 218.29103 228.5366 235.363 240.5635 245.1782 248.43001 252.98493 258.18544 263.38594 274.27708 280.78068 287.28428 298.1754 304.67903 310.53706 319.53929 327.35795 332.55845 337.11338 340.68797 346.546 353.0496 357.60453 362.79307 373.6842 383.11686 389.62046 394.23515 398.84983 403.40476 412.9928 417.54774 422.74824 427.30317 437.0586 440.3104 446.814 450.0658 455.2663 459.82124 468.7637 476.89323 482.09373 486.64866 493.15226 498.35276 509.23194 513.78689 518.40158 521.6534 526.8539 533.3575">blemkeinezul&#x00e4;ssigeBasisl&#x00f6;sungbesitzenunddasVerfahrenm&#x00fc;ssteterminiertwerden(siehe</tspan><tspan y="-729.904" x="56.693 65.468097 68.7199 74.577938 80.43597 84.99088 88.24269 92.79761 99.30122 108.73385 115.23746 124.77768 130.63571 135.19063 143.39188">Algorithmus2).[</tspan></text>
<text xml:space="preserve" transform="matrix(1 0 -0 1 0 841.89)" font-size="11.95517" font-family="LMRoman12" font-weight="bold"><tspan y="-729.904" x="146.629">?</tspan></text>
<text xml:space="preserve" transform="matrix(1 0 -0 1 0 841.89)" font-size="11.95517" font-family="LMRoman12"><tspan y="-729.904" x="152.98 161.16928 165.38945 176.83055 183.33417 188.53467 203.22757 212.00267 218.50629 222.08089 227.93892 234.44254 240.30057 244.91527 249.47019 255.32822 261.83183 265.08363 270.28413 276.14216 287.58326 292.13819 296.75288 300.00468 305.20518 311.70878 321.84678 329.3307 335.18873 342.00315 347.20365 350.45545 353.70726 363.84526 369.70329 372.95509 378.8131 388.30555 392.92024 396.17204 402.67564 414.11674 422.90379 429.07264 434.27314 444.02857 449.22908 452.48088 457.68138 463.87416 468.42909 473.62959">]IndemAnfangstableau(sieheTabelle1.5)sindKoe&#xfb03;zienten</tspan></text>
<text xml:space="preserve" transform="matrix(1 0 -0 1 0 841.89)" font-size="11.95517" font-family="CMMI12" font-style="italic"><tspan y="-729.904" x="485.059">a</tspan></text>
<text xml:space="preserve" transform="matrix(1 0 -0 1 0 841.89)" font-size="7.97011" font-family="CMMI8" font-style="italic"><tspan y="-728.111" x="491.204 495.11735">sj</tspan></text>
<text xml:space="preserve" transform="matrix(1 0 -0 1 0 841.89)" font-size="11.95517" font-family="LMRoman12"><tspan y="-729.904" x="504.44 510.62083 513.8726 519.0731 522.32498 528.82858 534.02908">kleiner</tspan><tspan y="-715.458" x="56.693 65.468097 71.97171 75.22352 82.109699 87.97968 93.837718 98.39263 104.89624 110.75427 117.25789 123.761508 128.962 135.46562 142.35179 146.96649 152.82453 162.57994 165.83174 174.03299 177.60759 183.46562 189.96924 194.52416 199.72466 209.8746 218.3269 221.5787 229.76799 239.5234 242.7752 250.97646 257.48008 262.68058 270.88185 281.94038 287.7984 294.302 301.18818 307.69178 312.89228 321.09355 329.05567 332.30747 338.17747 344.0355 348.59043 353.2051 359.7087 365.56675 368.81855 373.37348 382.20835 385.78294 391.64097 396.1959 404.3852 408.94013 413.5548 416.8066 422.0071 428.5107 437.35755 444.0285 450.5321 457.0357 463.21653 467.77146 471.02326 476.8813 487.01927 494.98139 498.2332 504.10319 509.9612 514.5161 519.1308 525.6344 531.49246 534.74429">Nullvorhanden,somitfahrenwirmitderWahlderPivotspaltefort(sieheFunktionPivotspal-</tspan><tspan y="-701.013" x="56.693 61.24792 66.44842 75.390888 81.8945 87.75253 91.00434 95.55926">teDual).</tspan><tspan y="-686.567" x="56.693 63.842195 70.34581 79.71866 88.00359 93.204097 97.81879 102.3737 105.62551 115.38093 124.82551 131.32912 137.83274 148.49675 155.00037 160.20087 169.57372 177.53586 180.78766 186.65764 192.51567 197.07059 201.68529 208.1889 214.04694 217.29874 221.85366 231.86014 241.24495 249.37447 254.57497 259.12989 265.63349 270.83399 282.15553 288.65913 291.91093 301.92936 311.03919 317.5428 323.40083 327.95576 331.20756 336.40806 342.60084 347.15577 352.35627">ZurBestimmungderPivotspaltetwerdendieQuotienten</tspan></text>
<text xml:space="preserve" transform="matrix(1 0 -0 1 0 841.89)" font-size="7.97011" font-family="CMMI8" font-style="italic"><tspan y="-692.65" x="367.019">c</tspan></text>
<text xml:space="preserve" transform="matrix(1 0 -0 1 0 841.89)" font-size="5.97758" font-family="CMMI6" font-style="italic"><tspan y="-691.435" x="370.687">j</tspan></text>
<path transform="matrix(1,0,0,-1,364.857,152.33399)" stroke-width=".478" stroke-linecap="butt" stroke-miterlimit="10" stroke-linejoin="miter" fill="none" stroke="#000000" d="M 0 0 L 11.895 0 "/>
<text xml:space="preserve" transform="matrix(1 0 -0 1 0 841.89)" font-size="7.97011" font-family="CMMI8" font-style="italic"><tspan y="-682.444" x="364.857">a</tspan></text>
<text xml:space="preserve" transform="matrix(1 0 -0 1 0 841.89)" font-size="5.97758" font-family="CMMI6" font-style="italic"><tspan y="-681.229" x="369.355 372.8519">sj</tspan></text>
<text xml:space="preserve" transform="matrix(1 0 -0 1 0 841.89)" font-size="11.95517" font-family="CMMI12" font-style="italic"><tspan y="-686.567" x="377.947">,</tspan></text>
<text xml:space="preserve" transform="matrix(1 0 -0 1 0 841.89)" font-size="11.95517" font-family="CMSY10" font-style="italic"><tspan y="-686.567" x="385.184">&#x2200;</tspan></text>
<text xml:space="preserve" transform="matrix(1 0 -0 1 0 841.89)" font-size="11.95517" font-family="CMMI12" font-style="italic"><tspan y="-686.567" x="393.818">j</tspan></text>
<text xml:space="preserve" transform="matrix(1 0 -0 1 0 841.89)" font-size="11.95517" font-family="CMSY10" font-style="italic"><tspan y="-686.567" x="406.213 419.06483">&#x2208;{</tspan></text>
<text xml:space="preserve" transform="matrix(1 0 -0 1 0 841.89)" font-size="11.95517" font-family="CMR12"><tspan y="-686.567" x="425.048">1</tspan></text>
<text xml:space="preserve" transform="matrix(1 0 -0 1 0 841.89)" font-size="11.95517" font-family="CMMI12" font-style="italic"><tspan y="-686.567" x="430.901 436.13737 441.38569 446.62205 451.87037">,...,</tspan></text>
<text xml:space="preserve" transform="matrix(1 0 -0 1 0 841.89)" font-size="11.95517" font-family="CMR12"><tspan y="-686.567" x="457.122">6</tspan></text>
<text xml:space="preserve" transform="matrix(1 0 -0 1 0 841.89)" font-size="11.95517" font-family="CMSY10" font-style="italic"><tspan y="-686.567" x="462.975">}</tspan></text>
<text xml:space="preserve" transform="matrix(1 0 -0 1 0 841.89)" font-size="11.95517" font-family="LMRoman12"><tspan y="-686.567" x="473.774 483.52943 486.78123">mit</tspan></text>
<text xml:space="preserve" transform="matrix(1 0 -0 1 0 841.89)" font-size="11.95517" font-family="CMMI12" font-style="italic"><tspan y="-686.567" x="496.156">a</tspan></text>
<text xml:space="preserve" transform="matrix(1 0 -0 1 0 841.89)" font-size="7.97011" font-family="CMMI8" font-style="italic"><tspan y="-684.773" x="502.301 506.21434">sj</tspan></text>
<text xml:space="preserve" transform="matrix(1 0 -0 1 0 841.89)" font-size="11.95517" font-family="CMMI12" font-style="italic"><tspan y="-686.567" x="515.486">&#x003c;</tspan></text>
<text xml:space="preserve" transform="matrix(1 0 -0 1 0 841.89)" font-size="11.95517" font-family="CMR12"><tspan y="-686.567" x="529.478">0</tspan></text>
<text xml:space="preserve" transform="matrix(1 0 -0 1 0 841.89)" font-size="11.95517" font-family="LMRoman12"><tspan y="-686.567" x="535.331">,</tspan><tspan y="-670.835" x="56.693 63.5194 68.7199 73.27482 78.47532 83.35303 89.85664 96.36026 101.56076 106.11568 112.93012 120.892269 129.08156 137.53386 140.78566 145.34058 155.40683 161.91045 165.16225 173.93735 180.44097 186.94458 192.80261 196.05442 200.60933 209.37247 217.50199 227.2574 230.5092 238.62676 245.13037 250.33087 263.6609 269.51893 274.07386 279.9319 292.93913 297.49406 302.69456 312.7608 321.87065 328.37425 334.23228 338.7872 342.039 347.2395 353.43229 357.9872 363.17576 373.242 380.0684 385.2689 389.88359 394.4385 397.6903 407.44575 416.89036 421.44529 428.25975 434.76335 438.01515 443.21565 447.83033 453.03083 461.1484 467.9748 473.1753 479.6789 486.1825 492.6861 497.8866 506.0161 510.6308 513.8826 518.7603 528.82656 532.07839">berechnet.EswirddieSpaltetmitdemgr&#x00f6;&#xfffd;tenQuotientenbestimmt,dieserbe&#xfb01;ndetsichin</tspan><tspan y="-656.389" x="56.693 63.196615 68.39711 76.84941 84.33334 90.191379 97.00583 102.20633 105.45814 108.709949 117.819789 123.67782 126.92963 136.68505 139.93685 150.33785 156.84146 162.04196 170.50623 175.70673 180.26165 184.87635 189.43126 194.63176 205.03276 211.53638 218.04 223.89803 227.14983 231.70475 236.90525 244.05443">derTabelle1.5indererstenSpalte.[</tspan></text>
<text xml:space="preserve" transform="matrix(1 0 -0 1 0 841.89)" font-size="11.95517" font-family="LMRoman12" font-weight="bold"><tspan y="-656.389" x="247.307">?</tspan></text>
<text xml:space="preserve" transform="matrix(1 0 -0 1 0 841.89)" font-size="11.95517" font-family="LMRoman12"><tspan y="-656.389" x="253.658">]</tspan><tspan y="-641.943" x="56.693 68.7199 71.97171 81.06959 86.27009 90.825008 97.32861 103.186649 106.43845 110.99337 116.19387 127.228488 131.84319 137.70122 147.45664 150.70844 159.80632 166.30994 171.51044 182.55702 191.34407 197.51294 202.71344 212.46886 217.66936 220.92116 226.12166 232.31444 236.86936 242.06986">WirerhaltensomitdenKoe&#xfb03;zienten</tspan></text>
<text xml:space="preserve" transform="matrix(1 0 -0 1 0 841.89)" font-size="11.95517" font-family="CMMI12" font-style="italic"><tspan y="-641.943" x="253.106">a</tspan></text>
<text xml:space="preserve" transform="matrix(1 0 -0 1 0 841.89)" font-size="7.97011" font-family="CMR8"><tspan y="-640.15" x="259.251 263.48313">11</tspan></text>
<text xml:space="preserve" transform="matrix(1 0 -0 1 0 841.89)" font-size="11.95517" font-family="CMR12"><tspan y="-641.943" x="272.63">=</tspan></text>
<text xml:space="preserve" transform="matrix(1 0 -0 1 0 841.89)" font-size="11.95517" font-family="CMSY10" font-style="italic"><tspan y="-641.943" x="286.147">&#x2212;</tspan></text>
<text xml:space="preserve" transform="matrix(1 0 -0 1 0 841.89)" font-size="11.95517" font-family="CMR12"><tspan y="-641.943" x="295.446">1</tspan></text>
<text xml:space="preserve" transform="matrix(1 0 -0 1 0 841.89)" font-size="11.95517" font-family="LMRoman12"><tspan y="-641.943" x="305.842 311.70005 314.95185 324.1095 332.07167 335.32347 341.1815 347.03953 351.59446 356.79496 360.04676 365.24726 375.0027 380.2032 386.384 395.46995 400.02488 404.63957 407.89137 413.09187 419.59547 429.33894 436.82286 442.68089 449.50727 454.70777 457.95957 461.21138 470.94288 476.8009 480.0527 485.91075 490.46568 498.2724 508.9962 512.248 516.8029 523.3065 526.55838 529.8102 533.38479">alsPivotelement(sieheTabelle1.5).Mithilfe</tspan><tspan y="-627.497" x="56.693 63.196615 68.39711 76.63422 84.59636 87.84817 93.7062 99.56423 104.11915 109.31965 112.57146 117.77196 127.527378 132.72788 138.9087 143.46363 151.68878 158.51519 163.71569 168.33039 172.8853 176.1371 185.89252 195.64794 200.84844 210.97447 219.42678 222.67858 230.86786 237.37148 242.57198 252.69802 256.91819 263.42179 269.92539 275.1259 284.9291 291.4327 296.6332 304.81056 313.58564 316.83744 321.71516 327.89598 332.4509 338.9545 344.81254 349.42723 352.67903 357.2937 362.82896 368.68699 373.2419 376.4937 382.35176 388.85536 392.10716 397.30766">desPivotelementsbestimmenwirdenIndexderNichtbasisvariablen</tspan></text>
<text xml:space="preserve" transform="matrix(1 0 -0 1 0 841.89)" font-size="11.95517" font-family="CMMI12" font-style="italic"><tspan y="-627.497" x="407.429">x</tspan></text>
<text xml:space="preserve" transform="matrix(1 0 -0 1 0 841.89)" font-size="7.97011" font-family="CMR8"><tspan y="-625.704" x="414.081">1</tspan></text>
<text xml:space="preserve" transform="matrix(1 0 -0 1 0 841.89)" font-size="11.95517" font-family="LMRoman12"><tspan y="-627.497" x="422.437 428.9406 435.4442 445.57023 452.07383 457.27433 465.45167 473.7366 479.59465 484.20933 487.46113 492.0758 497.61106 503.4691 508.02403 511.27583 517.13388 523.63748 526.8893 532.0898">undderBasisvariablen</tspan></text>
<text xml:space="preserve" transform="matrix(1 0 -0 1 0 841.89)" font-size="11.95517" font-family="CMMI12" font-style="italic"><tspan y="-613.052" x="56.693">x</tspan></text>
<text xml:space="preserve" transform="matrix(1 0 -0 1 0 841.89)" font-size="7.97011" font-family="CMR8"><tspan y="-611.258" x="63.345">3</tspan></text>
<text xml:space="preserve" transform="matrix(1 0 -0 1 0 841.89)" font-size="11.95517" font-family="LMRoman12"><tspan y="-613.052" x="68.077 76.30216 82.80577 86.05758 96.23143 103.05784 108.25834 111.51015 126.238918 134.52385 140.38188 144.99658 148.24839 152.86309 161.00455 166.20505 171.0708 177.57442 182.18912 187.38962 195.60282 202.10643 207.30693 215.75923 223.99634 231.95848 235.21028 241.08026 246.9383 251.49321 256.1079 260.97367 267.47727 272.0322 275.284 279.83894 289.35527 295.2133 301.7169 306.33158 312.1896 317.3901 321.94505 327.80308 334.30668 338.92137 343.81105 349.99186 359.50819 367.64967 372.85017 377.4051 383.9087 389.1092 395.6128 403.826 412.76847 418.6265 428.21455 436.0332 441.89125 446.44618 452.3042 457.49275 463.99635 469.19685 480.6738 484.24839 490.75199 500.28028 506.78388 511.98439 523.4613 531.42349 534.6753">,diebeimBasiswechselbzw.Pivotschrittausgetauschtwerden.DasVorgehenf&#x00fc;rdenPi-</tspan><tspan y="-598.606" x="56.693 62.551038 68.40907 72.96399 77.57868 82.45639 88.96001 93.51492 96.76673 101.32165 109.857639 114.41255 119.027248 122.27905 127.47955 133.98317 143.16475 149.84769 156.3513 162.85492 169.03574 173.59066 176.84246 182.70049 193.18518 201.14733 204.39913 210.25716 216.11519 220.6701 225.2848 230.16252 236.66614 241.22106 244.47286 249.02777 253.58269 262.11869 265.37049 269.98518 278.52119 284.3792 290.56004 297.06364 300.31544 305.8626 311.72065 314.97245 320.17295 326.35377 334.8778 340.0783 350.57496 357.07856 362.27906 370.82704 378.63374 384.49177 389.0467 394.90473 400.10523 406.60884 411.80934 418.31294 422.9276 431.05714 436.25764 439.50944 444.1241 453.3057 459.8093 465.0098 473.60557 481.5677 484.8195 490.68949 496.54753 501.10246 505.71714 510.59486 517.09848 521.6534 524.9052 529.46017 534.0151">votschritt(sieheFunktionPivotschritt)ist&#x00e4;quivalentzuderVorgehensweisedesPivotschritts</tspan><tspan y="-584.16" x="56.693 63.5194 68.7199 71.97171 85.62451 92.12813 96.683048 99.93485 109.69027 115.5483 118.80011 124.00061 134.40161 140.90523 144.15703 153.91245 160.41606 163.66786 168.86837 175.04918 178.94657 186.76525 191.96575 196.52066 200.09526 205.9533 212.45691 217.01183 222.20038 232.60138 237.1563 241.771 245.0228 250.2233 256.7269 265.8248 274.59989 281.1035 285.71818 290.60786 297.11146 303.61506 306.86686 311.42179 319.86216 325.72019 328.972 334.83003 339.38496">beimprimalenSimplex-Verfahren(sieheAbschnitt1.2).</tspan></text>
<text xml:space="preserve" transform="matrix(1 0 -0 1 0 841.89)" font-size="11.95517" font-family="CMMI12" font-style="italic"><tspan y="-556.1" x="227.48">x</tspan></text>
<text xml:space="preserve" transform="matrix(1 0 -0 1 0 841.89)" font-size="7.97011" font-family="CMR8"><tspan y="-554.307" x="234.132">1</tspan></text>
<text xml:space="preserve" transform="matrix(1 0 -0 1 0 841.89)" font-size="11.95517" font-family="CMMI12" font-style="italic"><tspan y="-556.1" x="253.257">x</tspan></text>
<text xml:space="preserve" transform="matrix(1 0 -0 1 0 841.89)" font-size="7.97011" font-family="CMR8"><tspan y="-554.307" x="259.909">2</tspan></text>
<text xml:space="preserve" transform="matrix(1 0 -0 1 0 841.89)" font-size="11.95517" font-family="CMMI12" font-style="italic"><tspan y="-556.1" x="279.034">x</tspan></text>
<text xml:space="preserve" transform="matrix(1 0 -0 1 0 841.89)" font-size="7.97011" font-family="CMR8"><tspan y="-554.307" x="285.686">3</tspan></text>
<text xml:space="preserve" transform="matrix(1 0 -0 1 0 841.89)" font-size="11.95517" font-family="CMMI12" font-style="italic"><tspan y="-556.1" x="302.373">x</tspan></text>
<text xml:space="preserve" transform="matrix(1 0 -0 1 0 841.89)" font-size="7.97011" font-family="CMR8"><tspan y="-554.307" x="309.025">4</tspan></text>
<text xml:space="preserve" transform="matrix(1 0 -0 1 0 841.89)" font-size="11.95517" font-family="CMMI12" font-style="italic"><tspan y="-556.1" x="325.713">x</tspan></text>
<text xml:space="preserve" transform="matrix(1 0 -0 1 0 841.89)" font-size="7.97011" font-family="CMR8"><tspan y="-554.307" x="332.365">5</tspan></text>
<text xml:space="preserve" transform="matrix(1 0 -0 1 0 841.89)" font-size="11.95517" font-family="CMMI12" font-style="italic"><tspan y="-556.1" x="349.052">x</tspan></text>
<text xml:space="preserve" transform="matrix(1 0 -0 1 0 841.89)" font-size="7.97011" font-family="CMR8"><tspan y="-554.307" x="355.705">6</tspan></text>
<path transform="matrix(1,0,0,-1,366.614,290.557)" stroke-width=".398" stroke-linecap="butt" stroke-miterlimit="10" stroke-linejoin="miter" fill="none" stroke="#000000" d="M 0 0 L 0 15.89 "/>
<text xml:space="preserve" transform="matrix(1 0 -0 1 0 841.89)" font-size="11.95517" font-family="CMMI12" font-style="italic"><tspan y="-556.1" x="379.474">b</tspan></text>
<path transform="matrix(1,0,0,-1,198.163,290.75605)" stroke-width=".398" stroke-linecap="butt" stroke-miterlimit="10" stroke-linejoin="miter" fill="none" stroke="#000000" d="M 0 0 L 198.949 0 "/>
<text xml:space="preserve" transform="matrix(1 0 -0 1 0 841.89)" font-size="11.95517" font-family="CMMI12" font-style="italic"><tspan y="-539.811" x="204.141">x</tspan></text>
<text xml:space="preserve" transform="matrix(1 0 -0 1 0 841.89)" font-size="7.97011" font-family="CMR8"><tspan y="-538.018" x="210.793">1</tspan></text>
<text xml:space="preserve" transform="matrix(1 0 -0 1 0 841.89)" font-size="11.95517" font-family="LMRoman12"><tspan y="-539.811" x="230.246 256.02137 279.84803 283.74543 305.14518 328.48167 351.8301">11-1000</tspan></text>
<path transform="matrix(1,0,0,-1,366.614,306.846)" stroke-width=".398" stroke-linecap="butt" stroke-miterlimit="10" stroke-linejoin="miter" fill="none" stroke="#000000" d="M 0 0 L 0 15.89 "/>
<text xml:space="preserve" transform="matrix(1 0 -0 1 0 841.89)" font-size="11.95517" font-family="LMRoman12"><tspan y="-539.811" x="379.036">3</tspan></text>
<text xml:space="preserve" transform="matrix(1 0 -0 1 0 841.89)" font-size="11.95517" font-family="CMMI12" font-style="italic"><tspan y="-522.107" x="204.141">x</tspan></text>
<text xml:space="preserve" transform="matrix(1 0 -0 1 0 841.89)" font-size="7.97011" font-family="CMR8"><tspan y="-520.314" x="210.793">4</tspan></text>
<text xml:space="preserve" transform="matrix(1 0 -0 1 0 841.89)" font-size="11.95517" font-family="LMRoman12"><tspan y="-522.107" x="230.246 250.82085 254.07265 257.97004 263.82807 281.7967 305.14515 328.48164 351.83009">0[-1]0100</tspan></text>
<path transform="matrix(1,0,0,-1,366.614,325.19)" stroke-width=".398" stroke-linecap="butt" stroke-miterlimit="10" stroke-linejoin="miter" fill="none" stroke="#000000" d="M 0 0 L 0 18.344 "/>
<path transform="matrix(1,0,0,-1,381.963,316.018)" stroke-width=".3985" stroke-linecap="butt" stroke-miterlimit="10" stroke-linejoin="miter" fill="none" stroke="#000000" d="M 8.97305 0 C 8.97305 4.95573 4.95573 8.97305 0 8.97305 C -4.95573 8.97305 -8.97305 4.95573 -8.97305 0 C -8.97305 -4.95573 -4.95573 -8.97305 0 -8.97305 C 4.95573 -8.97305 8.97305 -4.95573 8.97305 0 Z M 0 0 "/>
<text xml:space="preserve" transform="matrix(1 0 -0 1 .000030517579 841.89)" font-size="11.95517" font-family="LMRoman12"><tspan y="-522.107" x="377.085 380.9824">-2</tspan></text>
<text xml:space="preserve" transform="matrix(1 0 -0 1 0 841.89)" font-size="11.95517" font-family="CMMI12" font-style="italic"><tspan y="-505.576" x="204.141">x</tspan></text>
<text xml:space="preserve" transform="matrix(1 0 -0 1 0 841.89)" font-size="7.97011" font-family="CMR8"><tspan y="-503.783" x="210.793">5</tspan></text>
<text xml:space="preserve" transform="matrix(1 0 -0 1 0 841.89)" font-size="11.95517" font-family="LMRoman12"><tspan y="-505.576" x="230.246 256.02137 279.84803 283.74543 305.14518 328.48167 351.8301">02-1010</tspan></text>
<path transform="matrix(1,0,0,-1,366.614,341.08103)" stroke-width=".398" stroke-linecap="butt" stroke-miterlimit="10" stroke-linejoin="miter" fill="none" stroke="#000000" d="M 0 0 L 0 15.89 "/>
<text xml:space="preserve" transform="matrix(1 0 -0 1 0 841.89)" font-size="11.95517" font-family="LMRoman12"><tspan y="-505.576" x="379.036">6</tspan></text>
<text xml:space="preserve" transform="matrix(1 0 -0 1 0 841.89)" font-size="11.95517" font-family="CMMI12" font-style="italic"><tspan y="-489.686" x="204.141">x</tspan></text>
<text xml:space="preserve" transform="matrix(1 0 -0 1 0 841.89)" font-size="7.97011" font-family="CMR8"><tspan y="-487.893" x="210.793">6</tspan></text>
<text xml:space="preserve" transform="matrix(1 0 -0 1 0 841.89)" font-size="11.95517" font-family="LMRoman12"><tspan y="-489.686" x="230.246 254.07266 257.97007 281.79673 305.14518 328.48167 351.8301">0-21001</tspan></text>
<path transform="matrix(1,0,0,-1,366.614,356.971)" stroke-width=".398" stroke-linecap="butt" stroke-miterlimit="10" stroke-linejoin="miter" fill="none" stroke="#000000" d="M 0 0 L 0 15.89 "/>
<text xml:space="preserve" transform="matrix(1 0 -0 1 0 841.89)" font-size="11.95517" font-family="LMRoman12"><tspan y="-489.686" x="379.036">0</tspan></text>
<path transform="matrix(1,0,0,-1,198.163,357.17103)" stroke-width=".398" stroke-linecap="butt" stroke-miterlimit="10" stroke-linejoin="miter" fill="none" stroke="#000000" d="M 0 0 L 198.949 0 "/>
<text xml:space="preserve" transform="matrix(1 0 -0 1 0 841.89)" font-size="11.95517" font-family="LMRoman12"><tspan y="-472.999" x="206.013 230.24614">F0</tspan></text>
<path transform="matrix(1,0,0,-1,258.949,365.127)" stroke-width=".3985" stroke-linecap="butt" stroke-miterlimit="10" stroke-linejoin="miter" fill="none" stroke="#000000" d="M 7.5577 0 C 7.5577 4.17404 4.17404 7.5577 0 7.5577 C -4.17404 7.5577 -7.5577 4.17404 -7.5577 0 C -7.5577 -4.17404 -4.17404 -7.5577 0 -7.5577 C 4.17404 -7.5577 7.5577 -4.17404 7.5577 0 Z M 0 0 "/>
<text xml:space="preserve" transform="matrix(1 0 -0 1 0 841.89)" font-size="11.95517" font-family="LMRoman12"><tspan y="-472.999" x="256.023">1</tspan></text>
<text xml:space="preserve" transform="matrix(1 0 -0 1 0 841.89)" font-size="11.95517" font-family="LMRoman12"><tspan y="-472.999" x="281.799 305.1355 328.48396 351.8324">1000</tspan></text>
<path transform="matrix(1,0,0,-1,366.614,373.65803)" stroke-width=".398" stroke-linecap="butt" stroke-miterlimit="10" stroke-linejoin="miter" fill="none" stroke="#000000" d="M 0 0 L 0 16.288 "/>
<text xml:space="preserve" transform="matrix(1 0 -0 1 0 841.89)" font-size="11.95517" font-family="LMRoman12"><tspan y="-472.999" x="377.085 380.9824">-3</tspan></text>
<path transform="matrix(1,0,0,-1,198.163,373.85704)" stroke-width=".398" stroke-linecap="butt" stroke-miterlimit="10" stroke-linejoin="miter" fill="none" stroke="#000000" d="M 0 0 L 198.949 0 "/>
<path transform="matrix(1,0,0,-1,198.163,376.24803)" stroke-width=".398" stroke-linecap="butt" stroke-miterlimit="10" stroke-linejoin="miter" fill="none" stroke="#000000" d="M 0 0 L 198.949 0 "/>
<text xml:space="preserve" transform="matrix(1 0 -0 1 0 841.89)" font-size="11.95517" font-family="LMRoman12"><tspan y="-454.319" x="230.246">&#x2013;</tspan></text>
<text xml:space="preserve" transform="matrix(1 0 -0 1 0 841.89)" font-size="7.97011" font-family="CMR8"><tspan y="-459.026" x="256.832">1</tspan></text>
<path transform="matrix(1,0,0,-1,253.539,384.582)" stroke-width=".478" stroke-linecap="butt" stroke-miterlimit="10" stroke-linejoin="miter" fill="none" stroke="#000000" d="M 0 0 L 10.821 0 "/>
<text xml:space="preserve" transform="matrix(1 0 -0 1 0 841.89)" font-size="7.97011" font-family="CMSY8" font-style="italic"><tspan y="-450.196" x="253.539">&#x2212;</tspan></text>
<text xml:space="preserve" transform="matrix(1 0 -0 1 0 841.89)" font-size="7.97011" font-family="CMR8"><tspan y="-450.196" x="260.125">2</tspan></text>
<text xml:space="preserve" transform="matrix(1 0 -0 1 0 841.89)" font-size="11.95517" font-family="LMRoman12"><tspan y="-454.319" x="281.799 305.1355 328.48396 351.8324">&#x2013;&#x2013;&#x2013;&#x2013;</tspan></text>
<path transform="matrix(1,0,0,-1,366.614,392.52403)" stroke-width=".398" stroke-linecap="butt" stroke-miterlimit="10" stroke-linejoin="miter" fill="none" stroke="#000000" d="M 0 0 L 0 16.076 "/>
<text xml:space="preserve" transform="matrix(1 0 -0 1 0 841.89)" font-size="11.95517" font-family="LMRoman12"><tspan y="-429.291" x="106.05 113.533939 119.39197 126.20642 131.40692 134.65872 137.91053 147.0084 152.86644 156.11824">Tabelle1.6</tspan></text>
<text xml:space="preserve" transform="matrix(1 0 -0 1 0 841.89)" font-size="11.95517" font-family="LMRoman12"><tspan y="-429.291" x="161.979">:</tspan></text>
<text xml:space="preserve" transform="matrix(1 0 -0 1 0 841.89)" font-size="11.95517" font-family="LMRoman12"><tspan y="-429.291" x="169.133 176.61693 182.47496 188.97858 192.23038 197.43088 203.28891 213.67797 220.18158 226.03961 230.92928 241.31833 247.82195 253.02245 266.6872 271.8877 276.44264 281.0573 285.61225 290.81275 301.21376 309.1759 312.4277 318.2977 324.15574 328.71067 333.32536 338.1911 344.6947 349.24964 352.50144 357.05638 361.6113 368.7605 375.2641 381.7677 386.9682 393.4718 396.7236 402.58164 407.19633 411.811 415.0628 420.92085 430.01875 438.30369 444.1617 448.7764 452.0282 456.64289 459.89469 465.75273 470.3674 476.871 483.3746">TableaunachdemerstenPivotschritt,unzul&#x00e4;ssigeBasisl&#x00f6;sung</tspan></text>
<text xml:space="preserve" transform="matrix(1 0 -0 1 0 841.89)" font-size="11.95517" font-family="LMRoman12"><tspan y="-399.553" x="56.693 65.63547 70.83597 78.260128 84.76373 89.96423 96.46785 104.53759 112.822528 118.68056 123.29525 126.54706 131.16176 137.66538 144.16899 150.6726 156.85343 164.27759 170.7812 176.63924 181.51696 190.87786 197.38147 202.58197 215.20664 223.49156 229.3496 233.9643 237.2161 241.8308 249.97226 255.17276 260.05049 266.55409 271.16877 276.36927 282.47837 285.73017 290.34486">DerneueBasispunktnachdemBasiswechselist</tspan></text>
<text xml:space="preserve" transform="matrix(1 0 -0 1 0 841.89)" font-size="11.95517" font-family="CMBX12" font-weight="bold"><tspan y="-399.553" x="297.792">x</tspan></text>
<text xml:space="preserve" transform="matrix(1 0 -0 1 0 841.89)" font-size="7.97011" font-family="CMR8"><tspan y="-403.891" x="304.891 308.18266 312.41477">(1)</tspan></text>
<text xml:space="preserve" transform="matrix(1 0 -0 1 0 841.89)" font-size="11.95517" font-family="CMR12"><tspan y="-399.553" x="319.53 331.95143 336.50636">=(3</tspan></text>
<text xml:space="preserve" transform="matrix(1 0 -0 1 0 841.89)" font-size="11.95517" font-family="CMMI12" font-style="italic"><tspan y="-399.553" x="342.361">,</tspan></text>
<text xml:space="preserve" transform="matrix(1 0 -0 1 0 841.89)" font-size="11.95517" font-family="CMR12"><tspan y="-399.553" x="347.605">0</tspan></text>
<text xml:space="preserve" transform="matrix(1 0 -0 1 0 841.89)" font-size="11.95517" font-family="CMMI12" font-style="italic"><tspan y="-399.553" x="353.458">,</tspan></text>
<text xml:space="preserve" transform="matrix(1 0 -0 1 0 841.89)" font-size="11.95517" font-family="CMR12"><tspan y="-399.553" x="358.702">0</tspan></text>
<text xml:space="preserve" transform="matrix(1 0 -0 1 0 841.89)" font-size="11.95517" font-family="CMMI12" font-style="italic"><tspan y="-399.553" x="364.555">,</tspan></text>
<text xml:space="preserve" transform="matrix(1 0 -0 1 0 841.89)" font-size="11.95517" font-family="CMSY10" font-style="italic"><tspan y="-399.553" x="369.8">&#x2212;</tspan></text>
<text xml:space="preserve" transform="matrix(1 0 -0 1 0 841.89)" font-size="11.95517" font-family="CMR12"><tspan y="-399.553" x="379.098">2</tspan></text>
<text xml:space="preserve" transform="matrix(1 0 -0 1 0 841.89)" font-size="11.95517" font-family="CMMI12" font-style="italic"><tspan y="-399.553" x="384.951">,</tspan></text>
<text xml:space="preserve" transform="matrix(1 0 -0 1 0 841.89)" font-size="11.95517" font-family="CMR12"><tspan y="-399.553" x="390.195">6</tspan></text>
<text xml:space="preserve" transform="matrix(1 0 -0 1 0 841.89)" font-size="11.95517" font-family="CMMI12" font-style="italic"><tspan y="-399.553" x="396.048">,</tspan></text>
<text xml:space="preserve" transform="matrix(1 0 -0 1 0 841.89)" font-size="11.95517" font-family="CMR12"><tspan y="-399.553" x="401.292 407.15003">0)</tspan></text>
<text xml:space="preserve" transform="matrix(1 0 -0 1 0 841.89)" font-size="11.95517" font-family="LMRoman12"><tspan y="-399.553" x="414.567 419.12193 423.7366 426.9884 432.1889 438.6925 446.76225 454.72438 461.22798 467.73158 473.91239">(siehePunkt</tspan></text>
<text xml:space="preserve" transform="matrix(1 0 -0 1 0 841.89)" font-size="11.95517" font-family="CMBX12" font-weight="bold"><tspan y="-399.553" x="481.339">B</tspan></text>
<text xml:space="preserve" transform="matrix(1 0 -0 1 0 841.89)" font-size="11.95517" font-family="LMRoman12"><tspan y="-399.553" x="493.77 497.0218 506.39463 515.16976 521.67337 528.17697 531.4288 534.6806">inAbbil-</tspan><tspan y="-385.107" x="56.693 63.196615 69.700229 76.20384 85.7082 91.56623 94.81804 100.67607 108.87731 115.38092 121.88454 132.03449 138.5381 143.7386 151.9518 158.45542 163.65592 170.15953 179.00637 186.15555 189.40735 194.60785 197.85965 201.43425 207.93787 214.44149 220.6223 225.17722 228.42902 234.28705 240.79067 245.40537 253.53488 258.73539 263.2903 271.49159 274.74339 279.35807 287.55934 291.45674 297.31477 304.2129 308.43309 318.59498 325.09858 330.29908 343.70085 350.20445 355.40495 361.90855 367.10905 377.25898 384.7429 390.60093 397.10453 400.35633 405.55683 411.41487 421.5648 426.11973 430.7344 433.9862 439.1867 445.6903 454.53715 462.02107 467.8791 474.70549 479.90599 483.15779 486.40959 495.2564 501.11445 504.36625 510.22428 518.4255 524.2835 527.53536 534.03897">dung1.3)undderneueZielfunktionswertist-3.IndemneuenTableau(sieheTabelle1.6)gibt</tspan><tspan y="-370.661" x="56.693 61.8935 70.513179 75.71368 78.965488">esein</tspan></text>
<text xml:space="preserve" transform="matrix(1 0 -0 1 0 841.89)" font-size="11.95517" font-family="CMMI12" font-style="italic"><tspan y="-370.661" x="89.496">b</tspan></text>
<text xml:space="preserve" transform="matrix(1 0 -0 1 0 841.89)" font-size="7.97011" font-family="CMMI8" font-style="italic"><tspan y="-368.868" x="94.473">i</tspan></text>
<text xml:space="preserve" transform="matrix(1 0 -0 1 0 841.89)" font-size="11.95517" font-family="CMMI12" font-style="italic"><tspan y="-370.661" x="101.364">&#x003c;</tspan></text>
<text xml:space="preserve" transform="matrix(1 0 -0 1 0 841.89)" font-size="11.95517" font-family="CMR12"><tspan y="-370.661" x="113.978">0</tspan></text>
<text xml:space="preserve" transform="matrix(1 0 -0 1 0 841.89)" font-size="11.95517" font-family="LMRoman12"><tspan y="-370.661" x="119.831 127.08779 131.70249 137.56052 147.31594 150.56774 159.13959 162.39139 167.00609 175.57794 182.08156 185.33336 194.53885 202.82378 208.68181 213.29651 216.54831 221.16301 224.41481 230.27285 234.88755 241.39116 247.89478">,somitistdieBasisl&#x00f6;sung</tspan></text>
<text xml:space="preserve" transform="matrix(1 0 -0 1 0 841.89)" font-size="11.95517" font-family="CMBX12" font-weight="bold"><tspan y="-370.661" x="257.769">x</tspan></text>
<text xml:space="preserve" transform="matrix(1 0 -0 1 0 841.89)" font-size="7.97011" font-family="CMR8"><tspan y="-375" x="264.867 268.15867 272.39079">(1)</tspan></text>
<text xml:space="preserve" transform="matrix(1 0 -0 1 0 841.89)" font-size="11.95517" font-family="LMRoman12"><tspan y="-370.661" x="280.199 286.7026 293.2062 298.4067 304.9103 308.1621 314.02015 318.63484 323.2495 326.5013 336.36433 340.91926 345.53395 348.78575 353.98625 360.48985 369.70729 376.37825 382.88185 389.38545 395.56626 400.1212 403.373 409.23103 419.7396 428.02455 433.88258 438.49726 441.74906 446.36375 449.61555 455.79637 460.99687 465.61155 472.11515 478.61875 484.47679 491.62599 498.12959 501.38139 507.2394 512.4399 517.05459 521.66928 524.9211 530.7791 535.33407">unzul&#x00e4;ssig(sieheFunktionBasisloesungZulaessig).</tspan><tspan y="-356.215" x="56.693 65.468097 71.326129 76.203838 85.74406 92.247669 97.448169 106.988399 113.492008 116.74381 121.358509 127.86212 133.06262 137.61754 140.86934 146.72737 151.92787 161.4681 170.2432 177.08156 182.28206 186.83698 190.08878 195.28928 201.14731 207.65093 214.15454 220.01258 225.21308 234.7533 242.88282 248.74085 255.24446 258.49629 263.69679 273.237 281.6893 284.9411 292.53266 300.1959 312.34236 321.237 327.09504 330.34684 338.01008 345.97224 349.22404 355.08207 360.9401 365.49504 370.69554 375.89604 379.14784 382.39964 390.63676 397.14036 403.64396 413.18418 420.78767 432.9341 441.82878 447.6868 450.9386 458.60185 466.56398 469.81578 475.6738 481.53184 486.08677 490.70146 497.20506 503.06309 506.31489 510.8698 519.10696 525.61056 532.11416">Nachdenbisherigen&#x00dc;berlegungenw&#x00e4;hlenwirs=2alsPivotzeileundt=2alsPivotspalteund</tspan><tspan y="-341.77" x="56.693 61.8935 66.44842 72.95203 78.81006 82.06187 86.61678 91.81728 102.21828 108.72189 114.579929 119.457637 129.85863 135.05913 138.31093 144.81455 150.01505 158.46735 166.60881 171.80931 175.06111 179.61603 184.81653 189.37145 194.57195 204.961 209.18117 213.73609 218.93659 223.4915 229.34954 233.90445 237.15625 243.01428 253.42725 259.93086 265.13136 273.64344 280.14704 286.65065 292.50868 295.76048 300.96098 311.36198 317.86558 321.11738 330.8728 337.3764 340.6282 345.8287 352.00953 355.90693 363.71363 368.91413 373.46907 377.04365 382.90168 389.40528 393.9602 399.1607 405.6643 414.1764 420.68 426.53804 435.0501 438.6247 444.48274 447.73454 453.59257 458.79307 465.29667 471.80027 480.89817 488.39405 494.25209 500.75569 504.00749 509.20799 515.06607 521.56967">erhaltennacheinerweiterenIterationdesdualenSimplex-VerfahrensdasfolgendeTableau:</tspan></text>
<text xml:space="preserve" transform="matrix(1 0 -0 1 0 841.89)" font-size="11.95517" font-family="CMMI12" font-style="italic"><tspan y="-314.374" x="234.212">x</tspan></text>
<text xml:space="preserve" transform="matrix(1 0 -0 1 0 841.89)" font-size="7.97011" font-family="CMR8"><tspan y="-312.581" x="240.864">1</tspan></text>
<text xml:space="preserve" transform="matrix(1 0 -0 1 0 841.89)" font-size="11.95517" font-family="CMMI12" font-style="italic"><tspan y="-314.374" x="257.552">x</tspan></text>
<text xml:space="preserve" transform="matrix(1 0 -0 1 0 841.89)" font-size="7.97011" font-family="CMR8"><tspan y="-312.581" x="264.204">2</tspan></text>
<text xml:space="preserve" transform="matrix(1 0 -0 1 0 841.89)" font-size="11.95517" font-family="CMMI12" font-style="italic"><tspan y="-314.374" x="280.891">x</tspan></text>
<text xml:space="preserve" transform="matrix(1 0 -0 1 0 841.89)" font-size="7.97011" font-family="CMR8"><tspan y="-312.581" x="287.543">3</tspan></text>
<text xml:space="preserve" transform="matrix(1 0 -0 1 0 841.89)" font-size="11.95517" font-family="CMMI12" font-style="italic"><tspan y="-314.374" x="304.231">x</tspan></text>
<text xml:space="preserve" transform="matrix(1 0 -0 1 0 841.89)" font-size="7.97011" font-family="CMR8"><tspan y="-312.581" x="310.883">4</tspan></text>
<text xml:space="preserve" transform="matrix(1 0 -0 1 0 841.89)" font-size="11.95517" font-family="CMMI12" font-style="italic"><tspan y="-314.374" x="327.57">x</tspan></text>
<text xml:space="preserve" transform="matrix(1 0 -0 1 0 841.89)" font-size="7.97011" font-family="CMR8"><tspan y="-312.581" x="334.222">5</tspan></text>
<text xml:space="preserve" transform="matrix(1 0 -0 1 0 841.89)" font-size="11.95517" font-family="CMMI12" font-style="italic"><tspan y="-314.374" x="350.91">x</tspan></text>
<text xml:space="preserve" transform="matrix(1 0 -0 1 0 841.89)" font-size="7.97011" font-family="CMR8"><tspan y="-312.581" x="357.562">6</tspan></text>
<path transform="matrix(1,0,0,-1,368.471,532.283)" stroke-width=".398" stroke-linecap="butt" stroke-miterlimit="10" stroke-linejoin="miter" fill="none" stroke="#000000" d="M 0 0 L 0 15.89 "/>
<text xml:space="preserve" transform="matrix(1 0 -0 1 0 841.89)" font-size="11.95517" font-family="CMMI12" font-style="italic"><tspan y="-314.374" x="377.037">b</tspan></text>
<path transform="matrix(1,0,0,-1,204.895,532.48208)" stroke-width=".398" stroke-linecap="butt" stroke-miterlimit="10" stroke-linejoin="miter" fill="none" stroke="#000000" d="M 0 0 L 185.486 0 "/>
<text xml:space="preserve" transform="matrix(1 0 -0 1 0 841.89)" font-size="11.95517" font-family="CMMI12" font-style="italic"><tspan y="-298.085" x="210.872">x</tspan></text>
<text xml:space="preserve" transform="matrix(1 0 -0 1 0 841.89)" font-size="7.97011" font-family="CMR8"><tspan y="-296.292" x="217.525">1</tspan></text>
<text xml:space="preserve" transform="matrix(1 0 -0 1 0 841.89)" font-size="11.95517" font-family="LMRoman12"><tspan y="-298.085" x="236.978 260.31449 281.71424 285.61164 306.99943 330.34788 353.68437">10-1000</tspan></text>
<path transform="matrix(1,0,0,-1,368.471,548.572)" stroke-width=".398" stroke-linecap="butt" stroke-miterlimit="10" stroke-linejoin="miter" fill="none" stroke="#000000" d="M 0 0 L 0 15.89 "/>
<text xml:space="preserve" transform="matrix(1 0 -0 1 0 841.89)" font-size="11.95517" font-family="LMRoman12"><tspan y="-298.085" x="376.599">1</tspan></text>
<text xml:space="preserve" transform="matrix(1 0 -0 1 0 841.89)" font-size="11.95517" font-family="CMMI12" font-style="italic"><tspan y="-282.195" x="210.872">x</tspan></text>
<text xml:space="preserve" transform="matrix(1 0 -0 1 0 841.89)" font-size="7.97011" font-family="CMR8"><tspan y="-280.401" x="217.525">2</tspan></text>
<text xml:space="preserve" transform="matrix(1 0 -0 1 0 841.89)" font-size="11.95517" font-family="LMRoman12"><tspan y="-282.195" x="236.978 260.31449 283.66294 305.05073 308.94813 330.34788 353.68437">010-100</tspan></text>
<path transform="matrix(1,0,0,-1,368.471,564.463)" stroke-width=".398" stroke-linecap="butt" stroke-miterlimit="10" stroke-linejoin="miter" fill="none" stroke="#000000" d="M 0 0 L 0 15.89 "/>
<text xml:space="preserve" transform="matrix(1 0 -0 1 0 841.89)" font-size="11.95517" font-family="LMRoman12"><tspan y="-282.195" x="376.599">2</tspan></text>
<text xml:space="preserve" transform="matrix(1 0 -0 1 0 841.89)" font-size="11.95517" font-family="CMMI12" font-style="italic"><tspan y="-266.304" x="210.872">x</tspan></text>
<text xml:space="preserve" transform="matrix(1 0 -0 1 0 841.89)" font-size="7.97011" font-family="CMR8"><tspan y="-264.511" x="217.525">5</tspan></text>
<text xml:space="preserve" transform="matrix(1 0 -0 1 0 841.89)" font-size="11.95517" font-family="LMRoman12"><tspan y="-266.304" x="236.978 260.31449 281.71424 285.61164 306.99943 330.34788 353.68437">00-1210</tspan></text>
<path transform="matrix(1,0,0,-1,368.471,580.353)" stroke-width=".398" stroke-linecap="butt" stroke-miterlimit="10" stroke-linejoin="miter" fill="none" stroke="#000000" d="M 0 0 L 0 15.89 "/>
<text xml:space="preserve" transform="matrix(1 0 -0 1 0 841.89)" font-size="11.95517" font-family="LMRoman12"><tspan y="-266.304" x="376.599">2</tspan></text>
<text xml:space="preserve" transform="matrix(1 0 -0 1 0 841.89)" font-size="11.95517" font-family="CMMI12" font-style="italic"><tspan y="-250.414" x="210.872">x</tspan></text>
<text xml:space="preserve" transform="matrix(1 0 -0 1 0 841.89)" font-size="7.97011" font-family="CMR8"><tspan y="-248.62" x="217.525">6</tspan></text>
<text xml:space="preserve" transform="matrix(1 0 -0 1 0 841.89)" font-size="11.95517" font-family="LMRoman12"><tspan y="-250.414" x="236.978 260.31449 283.66294 305.05073 308.94813 330.34788 353.68437">001-201</tspan></text>
<path transform="matrix(1,0,0,-1,368.471,596.244)" stroke-width=".398" stroke-linecap="butt" stroke-miterlimit="10" stroke-linejoin="miter" fill="none" stroke="#000000" d="M 0 0 L 0 15.89 "/>
<text xml:space="preserve" transform="matrix(1 0 -0 1 0 841.89)" font-size="11.95517" font-family="LMRoman12"><tspan y="-250.414" x="376.599">4</tspan></text>
<path transform="matrix(1,0,0,-1,204.895,596.443)" stroke-width=".398" stroke-linecap="butt" stroke-miterlimit="10" stroke-linejoin="miter" fill="none" stroke="#000000" d="M 0 0 L 185.486 0 "/>
<text xml:space="preserve" transform="matrix(1 0 -0 1 0 841.89)" font-size="11.95517" font-family="LMRoman12"><tspan y="-234.125" x="212.745 236.97814 260.31465 283.6631 306.99958 330.34803 353.69648">F001100</tspan></text>
<path transform="matrix(1,0,0,-1,368.471,612.532)" stroke-width=".398" stroke-linecap="butt" stroke-miterlimit="10" stroke-linejoin="miter" fill="none" stroke="#000000" d="M 0 0 L 0 15.89 "/>
<text xml:space="preserve" transform="matrix(1 0 -0 1 0 841.89)" font-size="11.95517" font-family="LMRoman12"><tspan y="-234.125" x="374.648 378.5454">-5</tspan></text>
<text xml:space="preserve" transform="matrix(1 0 -0 1 0 841.89)" font-size="11.95517" font-family="LMRoman12"><tspan y="-209.283" x="145.215 152.69893 158.55696 165.37142 170.57192 173.82372 177.07552 186.1734 192.03144 195.28324">Tabelle1.7</tspan></text>
<text xml:space="preserve" transform="matrix(1 0 -0 1 0 841.89)" font-size="11.95517" font-family="LMRoman12"><tspan y="-209.283" x="201.144">:</tspan></text>
<text xml:space="preserve" transform="matrix(1 0 -0 1 0 841.89)" font-size="11.95517" font-family="LMRoman12"><tspan y="-209.283" x="208.298 215.78194 221.63997 228.14359 231.39539 236.59589 242.45392 252.84297 262.5984 265.8502 274.31446 280.1725 286.6761 291.23103 294.48283 304.23826 310.09629 313.34809 318.54859 327.00093 331.55586 336.75636 343.25996 346.51176 352.36979 356.98448 361.59916 364.85096 370.70899 375.9095 382.4131 390.86543 399.15037 405.0084 409.62309 412.87489 417.48957 420.74137 426.5994 431.21409 437.71769 444.22129">Tableaumitoptimaler(zul&#x00e4;ssigen)Basisl&#x00f6;sung</tspan></text>
<text xml:space="preserve" transform="matrix(1 0 -0 1 0 841.89)" font-size="11.95517" font-family="LMRoman12"><tspan y="-178.88" x="56.693 65.63547 70.83597 79.43173 85.93535 91.13585 97.639469 106.88081 115.16575 121.02378 125.63847 128.89028 133.50498 140.00859 146.5122 153.01583 159.19664 167.7924 171.0442 175.6589">DerneueBasispunktist</tspan></text>
<text xml:space="preserve" transform="matrix(1 0 -0 1 0 841.89)" font-size="11.95517" font-family="CMBX12" font-weight="bold"><tspan y="-178.88" x="184.265">x</tspan></text>
<text xml:space="preserve" transform="matrix(1 0 -0 1 0 841.89)" font-size="7.97011" font-family="CMR8"><tspan y="-183.219" x="191.363 194.65467 198.8868">(2)</tspan></text>
<text xml:space="preserve" transform="matrix(1 0 -0 1 0 841.89)" font-size="11.95517" font-family="CMR12"><tspan y="-178.88" x="206.243 218.90352 223.45844">=(1</tspan></text>
<text xml:space="preserve" transform="matrix(1 0 -0 1 0 841.89)" font-size="11.95517" font-family="CMMI12" font-style="italic"><tspan y="-178.88" x="229.314">,</tspan></text>
<text xml:space="preserve" transform="matrix(1 0 -0 1 0 841.89)" font-size="11.95517" font-family="CMR12"><tspan y="-178.88" x="234.558">2</tspan></text>
<text xml:space="preserve" transform="matrix(1 0 -0 1 0 841.89)" font-size="11.95517" font-family="CMMI12" font-style="italic"><tspan y="-178.88" x="240.411">,</tspan></text>
<text xml:space="preserve" transform="matrix(1 0 -0 1 0 841.89)" font-size="11.95517" font-family="CMR12"><tspan y="-178.88" x="245.656">0</tspan></text>
<text xml:space="preserve" transform="matrix(1 0 -0 1 0 841.89)" font-size="11.95517" font-family="CMMI12" font-style="italic"><tspan y="-178.88" x="251.509">,</tspan></text>
<text xml:space="preserve" transform="matrix(1 0 -0 1 0 841.89)" font-size="11.95517" font-family="CMR12"><tspan y="-178.88" x="256.753">0</tspan></text>
<text xml:space="preserve" transform="matrix(1 0 -0 1 0 841.89)" font-size="11.95517" font-family="CMMI12" font-style="italic"><tspan y="-178.88" x="262.606">,</tspan></text>
<text xml:space="preserve" transform="matrix(1 0 -0 1 0 841.89)" font-size="11.95517" font-family="CMR12"><tspan y="-178.88" x="267.85">2</tspan></text>
<text xml:space="preserve" transform="matrix(1 0 -0 1 0 841.89)" font-size="11.95517" font-family="CMMI12" font-style="italic"><tspan y="-178.88" x="273.703">,</tspan></text>
<text xml:space="preserve" transform="matrix(1 0 -0 1 0 841.89)" font-size="11.95517" font-family="CMR12"><tspan y="-178.88" x="278.947 284.80503">4)</tspan></text>
<text xml:space="preserve" transform="matrix(1 0 -0 1 0 841.89)" font-size="11.95517" font-family="LMRoman12"><tspan y="-178.88" x="293.395 297.94993 302.5646 305.8164 311.0169 317.5205 326.76185 334.724 341.2276 347.7312 353.91203">(siehePunkt</tspan></text>
<text xml:space="preserve" transform="matrix(1 0 -0 1 0 841.89)" font-size="11.95517" font-family="CMBX12" font-weight="bold"><tspan y="-178.88" x="362.514">C</tspan></text>
<text xml:space="preserve" transform="matrix(1 0 -0 1 0 841.89)" font-size="11.95517" font-family="LMRoman12"><tspan y="-178.88" x="376.271 379.5228 390.06727 398.84236 405.34596 411.84956 415.10136 418.35316 424.85676 431.36036 437.86396 447.76283 453.62086 456.87266 462.73069 471.32649 477.83009 484.33369 494.8781 501.3817 506.5822 515.178 521.6816 526.8821 533.3857">inAbbildung1.3)undderneue</tspan><tspan y="-164.434" x="56.693 67.75153 72.952037 77.50695 86.84393 93.34755 98.54805 107.88503 115.034229 118.28603 123.486537 126.73834 130.31295 136.81656 143.32018 149.50099 154.05591 157.30771 163.16574 174.46338 177.71518 182.32988 191.66687 195.56426 201.42229 209.46811 213.68828 224.98592 231.48954 236.69004 251.23947 258.7234 264.58143 271.08503 274.33683 279.53733 285.39537 296.68104 301.23597 305.85066 309.10246 314.30296 320.80656 330.78913 338.27305 344.13108 350.95747 356.15797 359.40977 362.66157 372.64414 378.50218 381.75398 387.612 396.96098 400.21278 404.82746 414.16447 420.03446 425.23497 428.48677">WertderZielfunktionist-5.IndemTableau(sieheTabelle1.7)istkein</tspan></text>
<text xml:space="preserve" transform="matrix(1 0 -0 1 0 841.89)" font-size="11.95517" font-family="CMMI12" font-style="italic"><tspan y="-164.434" x="439.769">b</tspan></text>
<text xml:space="preserve" transform="matrix(1 0 -0 1 0 841.89)" font-size="7.97011" font-family="CMMI8" font-style="italic"><tspan y="-162.641" x="444.747">i</tspan></text>
<text xml:space="preserve" transform="matrix(1 0 -0 1 0 841.89)" font-size="11.95517" font-family="LMRoman12"><tspan y="-164.434" x="452.918 459.09883 462.35063 467.55113 470.80293 477.30653 482.50703 491.84403 500.6191 507.1227 510.3745 518.42037 524.2784 530.1364 534.69137">kleinerNullvor-</tspan><tspan y="-149.988" x="56.693 63.196615 69.05465 75.55826 82.061878 87.262378 93.76599 102.60086 107.22751 113.08554 122.84096 126.092769 136.23076 139.48256 144.09726 154.2472 160.75081 164.00261 174.79813 183.08306 188.94109 193.55579 196.80759 201.42229 204.67409 210.53212 215.14682 221.65044 228.15406">handen,somitistdieBasisl&#x00f6;sung</tspan></text>
<text xml:space="preserve" transform="matrix(1 0 -0 1 0 841.89)" font-size="11.95517" font-family="CMBX12" font-weight="bold"><tspan y="-149.988" x="239.604">x</tspan></text>
<text xml:space="preserve" transform="matrix(1 0 -0 1 0 841.89)" font-size="7.97011" font-family="CMR8"><tspan y="-154.327" x="246.702 249.99365 254.22579">(2)</tspan></text>
<text xml:space="preserve" transform="matrix(1 0 -0 1 0 841.89)" font-size="11.95517" font-family="LMRoman12"><tspan y="-149.988" x="263.614 268.8145 272.0663 278.56993 289.3535 294.554 301.0576 304.3094 310.16743 314.7821 319.3968 322.6486 328.50663 339.30216 347.5871 353.44514 358.0598 361.3116 365.9263 369.1781 375.03614 379.65083 386.15443 392.65803 398.51606 407.37483 411.595 423.69364 430.19725 435.39775 445.5477 453.50984 458.06477 463.9228 469.1233 475.6269 482.1305 485.3823 489.99699 495.19749 500.39799 503.64979 506.90159 517.6851 522.2998 525.55166 532.05526">einezul&#x00e4;ssigeBasisl&#x00f6;sung.InderErgebniszeilesind</tspan><tspan y="-135.543" x="56.693 61.8935 68.39711 74.90073 80.10123 94.63871 100.49674 103.74855 107.00036 116.982929 124.13212 127.38393 132.58443 135.83623 139.41083 145.91445 152.41806 158.59888 163.1538 166.4056 172.26363 178.76725 183.38195 189.25193 195.42079 200.62129 210.37671 215.57721 218.82901 224.02951 230.22229 234.7772 239.9777">zudemalleZielfunktionskoe&#xfb03;zienten</tspan></text>
<text xml:space="preserve" transform="matrix(1 0 -0 1 0 841.89)" font-size="11.95517" font-family="CMBX12" font-weight="bold"><tspan y="-135.543" x="251.261">c</tspan></text>
<text xml:space="preserve" transform="matrix(1 0 -0 1 0 841.89)" font-size="7.97011" font-family="CMSY8" font-style="italic"><tspan y="-133.749" x="257.239">N</tspan></text>
<text xml:space="preserve" transform="matrix(1 0 -0 1 0 841.89)" font-size="11.95517" font-family="LMRoman12"><tspan y="-135.543" x="270.638 276.49604 281.05097 286.909 299.91624 305.11674 314.45375 323.22883 329.73243 332.98423 336.23603 344.28187 353.22434 358.42485 368.18028 373.38078 379.56159 384.11653 388.7312 395.2348 399.78974 404.99024 409.86796 416.37156 421.57206 428.07566 439.34938 444.54988 449.1048 452.67939 459.18299 462.43479 465.68659 475.03556 481.53916 484.79096 494.77354 501.27714 506.47764 512.98129 522.9638 528.1643 534.6679">gr&#x00f6;&#xfffd;erNull.Dementsprechenderf&#x00fc;lltdieneuezu-</tspan><tspan y="-121.097" x="56.693 59.94481 65.80284 70.417537 75.03223 78.284038 84.14207 93.25191 101.53684 107.394878 112.00957 115.261379 119.87607 123.12788 128.98592 133.60062 140.10424 146.60785">l&#x00e4;ssigeBasisl&#x00f6;sung</tspan></text>
<text xml:space="preserve" transform="matrix(1 0 -0 1 0 841.89)" font-size="11.95517" font-family="CMBX12" font-weight="bold"><tspan y="-121.097" x="156.378">x</tspan></text>
<text xml:space="preserve" transform="matrix(1 0 -0 1 0 841.89)" font-size="7.97011" font-family="CMR8"><tspan y="-125.435" x="163.477 166.76866 171.0008">(2)</tspan></text>
<text xml:space="preserve" transform="matrix(1 0 -0 1 0 841.89)" font-size="11.95517" font-family="LMRoman12"><tspan y="-121.097" x="178.709 185.21262 191.07065 199.5947 208.70453 215.20815 219.76306 223.01486 232.77028 238.62831 241.88011 245.13191 249.68683 255.54486 260.0998 264.71449 270.8953 275.45024 278.70204 283.25697 288.45747 293.0124 296.2642 302.7678 316.43257 322.93617 329.43977 339.8527 346.3563 352.21434 360.7503 368.557 373.7575 378.31245 381.88703 387.74507 394.24867 398.8036 404.0041 414.4051 418.96003 424.16053 428.71546 438.4709 441.7227 448.2263 451.4781 456.6786 461.23353 465.78846 472.9496 481.89207 485.14387 494.26567 499.46617 505.96977 509.22157 515.0796 519.6943 524.30899 527.5608 533.4188">dasOptimalit&#x00e4;tskriteriumunddasVerfahrenterminiert.Diezul&#x00e4;ssige</tspan><tspan y="-106.651" x="56.693 64.977939 70.83597 75.45066 78.70247 83.31716 86.56897 92.427 97.041698 103.5453 110.04892">Basisl&#x00f6;sung</tspan></text>
<text xml:space="preserve" transform="matrix(1 0 -0 1 0 841.89)" font-size="11.95517" font-family="CMBX12" font-weight="bold"><tspan y="-106.651" x="119.445">x</tspan></text>
<text xml:space="preserve" transform="matrix(1 0 -0 1 0 841.89)" font-size="7.97011" font-family="CMR8"><tspan y="-110.989" x="126.544 129.83565 134.06778">(2)</tspan></text>
<text xml:space="preserve" transform="matrix(1 0 -0 1 0 841.89)" font-size="11.95517" font-family="LMRoman12"><tspan y="-106.651" x="141.403 144.6548 149.2695 157.36315 161.97785 167.83588 177.5913 180.8431 188.93674 194.13724 197.38904 203.89266 212.63188 218.48992 224.99353 229.54845 232.80025 242.55567 248.4137 251.6655 260.40473 268.68968 274.5477 279.16239 282.41419 287.02888 290.28068 296.1387 300.7534 307.257 313.7606">istsomiteineoptimaleBasisl&#x00f6;sung</tspan></text>
<text xml:space="preserve" transform="matrix(1 0 -0 1 0 841.89)" font-size="11.95517" font-family="CMBX12" font-weight="bold"><tspan y="-106.651" x="323.154">x</tspan></text>
<text xml:space="preserve" transform="matrix(1 0 -0 1 0 841.89)" font-size="7.97011" font-family="CMMI8" font-style="italic"><tspan y="-110.989" x="330.252">&#x22c6;</tspan></text>
<text xml:space="preserve" transform="matrix(1 0 -0 1 0 841.89)" font-size="11.95517" font-family="LMRoman12"><tspan y="-106.651" x="334.984 341.77455 350.717 355.9175 364.01118 369.21168 375.40446 379.95939 384.57408 391.07768 395.6326 400.8331 405.69886 412.20246 417.40296 423.90657 430.41017 439.14939 450.2079 455.4084 459.96333 468.045 474.5486 479.7491 487.84278 493.7008 500.2044 504.75935 508.01115 517.76657 523.6246 526.8764 532.0769">.DerentsprechendeWertderoptimalen</tspan><tspan y="-92.205" x="56.693 63.842195 67.094 72.2945 75.54631 79.1209 85.62451 92.12813 98.30895 102.86387 106.11568 111.97371">Zielfunktion</tspan></text>
<text xml:space="preserve" transform="matrix(1 0 -0 1 0 841.89)" font-size="11.95517" font-family="CMMI12" font-style="italic"><tspan y="-92.205" x="122.378">f</tspan></text>
<text xml:space="preserve" transform="matrix(1 0 -0 1 0 841.89)" font-size="11.95517" font-family="CMR12"><tspan y="-92.205" x="131.417">(</tspan></text>
<text xml:space="preserve" transform="matrix(1 0 -0 1 0 841.89)" font-size="11.95517" font-family="CMBX12" font-weight="bold"><tspan y="-92.205" x="135.969">x</tspan></text>
<text xml:space="preserve" transform="matrix(1 0 -0 1 0 841.89)" font-size="7.97011" font-family="CMMI8" font-style="italic"><tspan y="-96.544" x="143.067">&#x22c6;</tspan></text>
<text xml:space="preserve" transform="matrix(1 0 -0 1 0 841.89)" font-size="11.95517" font-family="CMR12"><tspan y="-92.205" x="147.8">)</tspan></text>
<text xml:space="preserve" transform="matrix(1 0 -0 1 0 841.89)" font-size="11.95517" font-family="LMRoman12"><tspan y="-92.205" x="156.254 159.5058 164.1205 172.5728 176.47019 182.32822">ist-5.</tspan></text>
<text xml:space="preserve" transform="matrix(1 0 -0 1 0 841.89)" font-size="11.95517" font-family="LMRoman12"><tspan y="-20.306" x="291.785 297.64305">12</tspan></text>
</g>
</svg>
