<?xml version="1.0" encoding="UTF-8" standalone="no"?>
<!DOCTYPE svg PUBLIC "-//W3C//DTD SVG 1.1//EN" "http://www.w3.org/Graphics/SVG/1.1/DTD/svg11.dtd">
<svg xmlns="http://www.w3.org/2000/svg" xmlns:xlink="http://www.w3.org/1999/xlink" version="1.1" width="841.89pt" height="595.276pt" viewBox="0 0 841.89 595.276">
<g enable-background="new">
<path transform="matrix(1,0,0,-1,375.656,98.63498)" d="M -368.35224 -1.55476 L -356.90269 29.90152 L -283.6245 29.90152 L -295.07405 -1.55476 Z " fill="#ee747e"/>
<path transform="matrix(1,0,0,-1,375.656,98.63498)" stroke-width=".3985" stroke-linecap="butt" stroke-miterlimit="10" stroke-linejoin="miter" fill="none" stroke="#000000" d="M -368.35224 -1.55476 L -356.90269 29.90152 L -283.6245 29.90152 L -295.07405 -1.55476 Z "/>
<text xml:space="preserve" transform="matrix(1 0 -0 1 -589.60598 595.276)" font-size="11.95517" font-family="LMRoman12"><tspan y="-507.859" x="625.134 629.3541 635.8577 642.3613 648.8649">Input</tspan></text>
<path transform="matrix(1,0,0,-1,375.656,98.63498)" d="M -184.3368 14.17337 L -226.7745 41.69603 L -269.2122 14.17337 L -226.7745 -13.34926 Z " fill="#7da3ba"/>
<path transform="matrix(1,0,0,-1,375.656,98.63498)" stroke-width=".3985" stroke-linecap="butt" stroke-miterlimit="10" stroke-linejoin="miter" fill="none" stroke="#000000" d="M -184.3368 14.17337 L -226.7745 41.69603 L -269.2122 14.17337 L -226.7745 -13.34926 Z "/>
<text xml:space="preserve" transform="matrix(1 0 -0 1 -589.606 595.276)" font-size="11.95517" font-family="LMRoman12"><tspan y="-506.696" x="722.806 731.5811 740.3562 748.6411">UNB?</tspan></text>
<path transform="matrix(1,0,0,-1,375.656,98.63498)" d="M -107.02478 56.6936 C -107.02478 64.52144 -128.90996 70.86699 -155.90747 70.86699 C -182.90499 70.86699 -204.79016 64.52144 -204.79016 56.6936 C -204.79016 48.86575 -182.90499 42.5202 -155.90747 42.5202 C -128.90996 42.5202 -107.02478 48.86575 -107.02478 56.6936 Z M -155.90747 56.6936 " fill="#f5fcf3"/>
<path transform="matrix(1,0,0,-1,375.656,98.63498)" stroke-width=".3985" stroke-linecap="butt" stroke-miterlimit="10" stroke-linejoin="miter" fill="none" stroke="#000000" d="M -107.02478 56.6936 C -107.02478 64.52144 -128.90996 70.86699 -155.90747 70.86699 C -182.90499 70.86699 -204.79016 64.52144 -204.79016 56.6936 C -204.79016 48.86575 -182.90499 42.5202 -155.90747 42.5202 C -128.90996 42.5202 -107.02478 48.86575 -107.02478 56.6936 Z M -155.90747 56.6936 "/>
<text xml:space="preserve" transform="matrix(1 0 -0 1 -589.60598 595.276)" font-size="11.95517" font-family="LMRoman12"><tspan y="-550.029" x="778.693 788.4484 791.70028 798.20388 804.70748 811.8567 817.0572 820.309">mind.ein</tspan></text>
<text xml:space="preserve" transform="matrix(1 0 -0 1 -589.60598 595.276)" font-size="11.95517" font-family="CMSY10" font-style="italic"><tspan y="-550.029" x="830.721">&#x2265;</tspan></text>
<path transform="matrix(1,0,0,-1,375.656,98.63498)" d="M -127.56065 -14.17342 C -127.56065 -6.34557 -140.25176 -.00002 -155.90747 -.00002 C -171.56319 -.00002 -184.25428 -6.34557 -184.25428 -14.17342 C -184.25428 -22.00127 -171.56319 -28.34682 -155.90747 -28.34682 C -140.25176 -28.34682 -127.56065 -22.00127 -127.56065 -14.17342 Z M -155.90747 -14.17342 " fill="#f5fcf3"/>
<path transform="matrix(1,0,0,-1,375.656,98.63498)" stroke-width=".3985" stroke-linecap="butt" stroke-miterlimit="10" stroke-linejoin="miter" fill="none" stroke="#000000" d="M -127.56065 -14.17342 C -127.56065 -6.34557 -140.25176 -.00002 -155.90747 -.00002 C -171.56319 -.00002 -184.25428 -6.34557 -184.25428 -14.17342 C -184.25428 -22.00127 -171.56319 -28.34682 -155.90747 -28.34682 C -140.25176 -28.34682 -127.56065 -22.00127 -127.56065 -14.17342 Z M -155.90747 -14.17342 "/>
<text xml:space="preserve" transform="matrix(1 0 -0 1 -589.60598 595.276)" font-size="11.95517" font-family="LMRoman12"><tspan y="-479.479" x="794.139 800.31979 806.82339">nur</tspan></text>
<text xml:space="preserve" transform="matrix(1 0 -0 1 -589.60598 595.276)" font-size="11.95517" font-family="CMSY10" font-style="italic"><tspan y="-479.479" x="815.275">&#x2264;</tspan></text>
<path transform="matrix(1,0,0,-1,375.656,98.63498)" d="M -74.76862 25.62454 L 18.07502 25.62454 L 18.07502 87.76264 L -74.76862 87.76264 Z " fill="#c2e5e7"/>
<path transform="matrix(1,0,0,-1,375.656,98.63498)" stroke-width=".3985" stroke-linecap="butt" stroke-miterlimit="10" stroke-linejoin="miter" fill="none" stroke="#000000" d="M -74.76862 25.62454 L 18.07502 25.62454 L 18.07502 87.76264 L -74.76862 87.76264 Z "/>
<text xml:space="preserve" transform="matrix(1 0 -0 1 -589.606 595.276)" font-size="11.95517" font-family="LMRoman12"><tspan y="-570.5" x="907.815 916.5901 923.0937 929.5973 934.7978 939.3527 948.4506 954.30868 957.5605 960.8123">&#x00c4;nderealle</tspan></text>
<text xml:space="preserve" transform="matrix(1 0 -0 1 -589.606 595.276)" font-size="11.95517" font-family="CMSY10" font-style="italic"><tspan y="-556.055" x="902.416">&#x2265;</tspan></text>
<text xml:space="preserve" transform="matrix(1 0 -0 1 -589.606 595.276)" font-size="11.95517" font-family="LMRoman12"><tspan y="-556.055" x="915.617 918.86886">in</tspan></text>
<text xml:space="preserve" transform="matrix(1 0 -0 1 -589.606 595.276)" font-size="11.95517" font-family="CMSY10" font-style="italic"><tspan y="-556.055" x="929.273">&#x2264;</tspan></text>
<text xml:space="preserve" transform="matrix(1 0 -0 1 -589.606 595.276)" font-size="11.95517" font-family="LMRoman12"><tspan y="-556.055" x="942.473 948.9766 955.4802 960.03518 964.91287">durch</tspan><tspan y="-541.609" x="908.302 919.0258 925.5294 928.78128 933.3362 936.588 943.0916 946.34347 949.5953 955.7761 961.63418">Multiplika-</tspan><tspan y="-527.163" x="906.578 911.13296 914.38479 920.2428 930.6438 940.39926 943.65109">tionmit</tspan></text>
<text xml:space="preserve" transform="matrix(1 0 -0 1 -589.606 595.276)" font-size="11.95517" font-family="CMSY10" font-style="italic"><tspan y="-527.163" x="952.101">&#x2212;</tspan></text>
<text xml:space="preserve" transform="matrix(1 0 -0 1 -589.606 595.276)" font-size="11.95517" font-family="CMR12"><tspan y="-527.163" x="961.4">1</tspan></text>
<path transform="matrix(1,0,0,-1,375.656,98.63498)" d="M 99.13133 14.17337 L 56.69365 41.90077 L 14.25595 14.17337 L 56.69365 -13.554 Z " fill="#7da3ba"/>
<path transform="matrix(1,0,0,-1,375.656,98.63498)" stroke-width=".3985" stroke-linecap="butt" stroke-miterlimit="10" stroke-linejoin="miter" fill="none" stroke="#000000" d="M 99.13133 14.17337 L 56.69365 41.90077 L 14.25595 14.17337 L 56.69365 -13.554 Z "/>
<text xml:space="preserve" transform="matrix(1 0 -0 1 -589.60598 595.276)" font-size="11.95517" font-family="LMRoman12"><tspan y="-506.696" x="1006.066 1015.24758 1024.0227 1032.3076">GNB?</tspan></text>
<path transform="matrix(1,0,0,-1,375.656,98.63498)" d="M 95.31226 40.63835 L 188.15592 40.63835 L 188.15592 72.74884 L 95.31226 72.74884 Z " fill="#c2e5e7"/>
<path transform="matrix(1,0,0,-1,375.656,98.63498)" stroke-width=".3985" stroke-linecap="butt" stroke-miterlimit="10" stroke-linejoin="miter" fill="none" stroke="#000000" d="M 95.31226 40.63835 L 188.15592 40.63835 L 188.15592 72.74884 L 95.31226 72.74884 Z "/>
<text xml:space="preserve" transform="matrix(1 0 -0 1 -589.60598 595.276)" font-size="11.95517" font-family="LMRoman12"><tspan y="-557.252" x="1073.829 1082.6041 1085.856 1089.1078">Alle</tspan></text>
<text xml:space="preserve" transform="matrix(1 0 -0 1 -589.60598 595.276)" font-size="11.95517" font-family="CMR12"><tspan y="-557.252" x="1098.212">=</tspan></text>
<text xml:space="preserve" transform="matrix(1 0 -0 1 -589.60598 595.276)" font-size="11.95517" font-family="LMRoman12"><tspan y="-557.252" x="1111.218 1117.7217 1124.2254 1128.7803 1133.658">durch</tspan><tspan y="-542.806" x="1064.756 1069.9564 1078.0859 1083.2864">zwei</tspan></text>
<text xml:space="preserve" transform="matrix(1 0 -0 1 -589.60598 595.276)" font-size="11.95517" font-family="CMSY10" font-style="italic"><tspan y="-542.806" x="1090.444">&#x2264;</tspan></text>
<text xml:space="preserve" transform="matrix(1 0 -0 1 -589.60598 595.276)" font-size="11.95517" font-family="LMRoman12"><tspan y="-542.806" x="1103.644 1108.8445 1113.3994 1118.0142 1123.2146 1127.7695 1132.97 1137.5249 1142.7254">ersetzten</tspan></text>
<path transform="matrix(1,0,0,-1,375.656,98.63498)" d="M 311.73249 56.6936 L 269.29478 95.60184 L 226.85709 56.6936 L 269.29478 17.78535 Z " fill="#7da3ba"/>
<path transform="matrix(1,0,0,-1,375.656,98.63498)" stroke-width=".3985" stroke-linecap="butt" stroke-miterlimit="10" stroke-linejoin="miter" fill="none" stroke="#000000" d="M 311.73249 56.6936 L 269.29478 95.60184 L 226.85709 56.6936 L 269.29478 17.78535 Z "/>
<text xml:space="preserve" transform="matrix(1 0 -0 1 -589.606 595.276)" font-size="11.95517" font-family="LMRoman12"><tspan y="-549.216" x="1207.484 1213.342 1222.2846 1226.1819 1234.6342 1241.1378 1246.9959 1251.5508 1256.1057">2D-Chart?</tspan></text>
<path transform="matrix(1,0,0,-1,375.656,98.63498)" d="M 350.43363 41.45114 L 443.27729 41.45114 L 443.27729 71.93605 L 350.43363 71.93605 Z " fill="#c2e5e7"/>
<path transform="matrix(1,0,0,-1,375.656,98.63498)" stroke-width=".3985" stroke-linecap="butt" stroke-miterlimit="10" stroke-linejoin="miter" fill="none" stroke="#000000" d="M 350.43363 41.45114 L 443.27729 41.45114 L 443.27729 71.93605 L 350.43363 71.93605 Z "/>
<text xml:space="preserve" transform="matrix(1 0 -0 1 -589.6061 595.276)" font-size="11.95517" font-family="LMRoman12"><tspan y="-556.439" x="1337.806 1343.6641 1352.6066 1356.5039 1364.9562 1371.4598 1377.3179 1381.8728">2D-Chart</tspan><tspan y="-541.993" x="1330.863 1334.1149 1340.6185 1343.8704 1348.4253 1351.6771 1357.5352 1360.787 1364.0388 1368.6536 1371.9054 1377.1058 1381.6608 1386.8612">initialisieren</tspan></text>
<path transform="matrix(1,0,0,-1,375.656,98.63498)" d="M 334.42344 -22.46548 L 459.28749 -22.46548 L 459.28749 22.465439 L 334.42344 22.465439 Z " fill="#c2e5e7"/>
<path transform="matrix(1,0,0,-1,375.656,98.63498)" stroke-width=".3985" stroke-linecap="butt" stroke-miterlimit="10" stroke-linejoin="miter" fill="none" stroke="#000000" d="M 334.42344 -22.46548 L 459.28749 -22.46548 L 459.28749 22.465439 L 334.42344 22.465439 Z "/>
<text xml:space="preserve" transform="matrix(1 0 -0 1 -589.606 595.276)" font-size="11.95517" font-family="LMRoman12"><tspan y="-506.969" x="1313.664 1322.4391 1327.6395 1334.466 1339.6664 1345.8473 1352.6737 1357.8742 1364.3778 1367.6296 1374.1333 1379.9913 1386.495 1392.9987 1398.8567 1404.0571">Nebenbedingungen</tspan><tspan y="-492.523" x="1309.922 1316.4257 1330.0784 1336.582 1341.4717 1347.9754 1351.2272 1357.7308 1364.2345 1367.8091 1373.3323 1379.1903 1383.7453 1386.9971 1392.8551 1399.3588 1402.6106 1407.811">umSchlupfvariablen</tspan><tspan y="-478.077" x="1338.538 1343.7384 1348.2933 1356.4229 1361.6233 1364.8751 1369.43 1374.6305 1379.1854">erweitern</tspan></text>
<path transform="matrix(1,0,0,-1,375.656,98.63498)" d="M 350.43363 -60.59756 L 443.27729 -60.59756 L 443.27729 -30.112652 L 350.43363 -30.112652 Z " fill="#c2e5e7"/>
<path transform="matrix(1,0,0,-1,375.656,98.63498)" stroke-width=".3985" stroke-linecap="butt" stroke-miterlimit="10" stroke-linejoin="miter" fill="none" stroke="#000000" d="M 350.43363 -60.59756 L 443.27729 -60.59756 L 443.27729 -30.112652 L 350.43363 -30.112652 Z "/>
<text xml:space="preserve" transform="matrix(1 0 -0 1 -589.6061 595.276)" font-size="11.95517" font-family="LMRoman12"><tspan y="-454.391" x="1325.377 1333.6619 1342.437 1349.5862 1358.3613 1366.6463 1379.3187 1385.8224 1392.326">BV,NBVund</tspan><tspan y="-439.946" x="1328.507 1340.0437 1346.8701 1352.0706 1356.6853 1361.2402 1364.4921 1374.2474 1384.0028 1389.2033">Fbestimmen</tspan></text>
<path transform="matrix(1,0,0,-1,375.656,98.63498)" d="M 350.43363 -104.28012 L 443.27729 -104.28012 L 443.27729 -71.47058 L 350.43363 -71.47058 Z " fill="#c2e5e7"/>
<path transform="matrix(1,0,0,-1,375.656,98.63498)" stroke-width=".3985" stroke-linecap="butt" stroke-miterlimit="10" stroke-linejoin="miter" fill="none" stroke="#000000" d="M 350.43363 -104.28012 L 443.27729 -104.28012 L 443.27729 -71.47058 L 350.43363 -71.47058 Z "/>
<text xml:space="preserve" transform="matrix(1 0 -0 1 -589.6061 595.276)" font-size="11.95517" font-family="LMRoman12"><tspan y="-413.034" x="1320.947 1329.7222 1336.2258 1339.8004 1345.6585 1352.1621 1358.0202 1362.6349 1370.1188 1375.9768 1382.4805 1385.7323 1390.9328 1396.7908">AnfangsTableau</tspan><tspan y="-398.588" x="1338.83 1344.688 1351.1917 1355.8064 1361.6644 1366.8649 1373.6913 1378.8917">ausgeben</tspan></text>
<path transform="matrix(1,0,0,-1,375.656,98.63498)" d="M 439.29316 -158.74239 L 396.85545 -119.83414 L 354.41777 -158.74239 L 396.85545 -197.65064 Z " fill="#7da3ba"/>
<path transform="matrix(1,0,0,-1,375.656,98.63498)" stroke-width=".3985" stroke-linecap="butt" stroke-miterlimit="10" stroke-linejoin="miter" fill="none" stroke="#000000" d="M 439.29316 -158.74239 L 396.85545 -119.83414 L 354.41777 -158.74239 L 396.85545 -197.65064 Z "/>
<text xml:space="preserve" transform="matrix(1 0 -0 1 -589.60598 595.276)" font-size="11.95517" font-family="LMRoman12"><tspan y="-333.783" x="1335.043 1340.901 1349.8435 1353.7409 1362.1931 1368.6968 1374.5548 1379.1098 1383.6647">2D-Chart?</tspan></text>
<path transform="matrix(1,0,0,-1,375.656,98.63498)" d="M 334.42344 -254.51833 L 459.28749 -254.51833 L 459.28749 -221.70879 L 334.42344 -221.70879 Z " fill="#c2e5e7"/>
<path transform="matrix(1,0,0,-1,375.656,98.63498)" stroke-width=".3985" stroke-linecap="butt" stroke-miterlimit="10" stroke-linejoin="miter" fill="none" stroke="#000000" d="M 334.42344 -254.51833 L 459.28749 -254.51833 L 459.28749 -221.70879 L 334.42344 -221.70879 Z "/>
<text xml:space="preserve" transform="matrix(1 0 -0 1 -589.606 595.276)" font-size="11.95517" font-family="LMRoman12"><tspan y="-262.798" x="1315.257 1324.0321 1329.2326 1336.059 1341.2594 1347.4403 1354.2667 1359.4672 1365.9708 1369.2227 1375.7263 1381.5844 1388.088 1394.5917 1400.4497 1405.0645">Nebenbedingungs-</tspan><tspan y="-248.352" x="1314.475 1320.333 1325.5335 1330.0884 1335.9464 1342.4501 1347.6505 1358.0515 1363.252 1366.5038 1373.0075 1378.2079 1383.4083 1386.6602 1391.5379 1398.0415 1403.242">geradeneinzeichen</tspan></text>
<path transform="matrix(1,0,0,-1,375.656,98.63498)" d="M 305.5082 -42.52025 L 255.12137 7.8666 L 204.73453 -42.52025 L 255.12137 -92.90709 Z " fill="#7da3ba"/>
<path transform="matrix(1,0,0,-1,375.656,98.63498)" stroke-width=".3985" stroke-linecap="butt" stroke-miterlimit="10" stroke-linejoin="miter" fill="none" stroke="#000000" d="M 305.5082 -42.52025 L 255.12137 7.8666 L 204.73453 -42.52025 L 255.12137 -92.90709 Z "/>
<text xml:space="preserve" transform="matrix(1 0 -0 1 -589.60598 595.276)" font-size="11.95517" font-family="LMRoman12"><tspan y="-465.612" x="1209.649 1216.4755 1221.6759 1227.8567">bek.</tspan><tspan y="-451.166" x="1211.275 1216.4755 1222.9791 1226.231">zul.</tspan><tspan y="-436.72" x="1197.44 1205.7249 1211.5829 1216.1976 1219.4495 1224.0642 1227.316 1231.9308 1237.7888">Basislsg?</tspan></text>
<path transform="matrix(1,0,0,-1,375.656,98.63498)" d="M 208.69956 -136.06482 L 301.5432 -136.06482 L 301.5432 -107.71803 L 208.69956 -107.71803 Z " fill="#c2e5e7"/>
<path transform="matrix(1,0,0,-1,375.656,98.63498)" stroke-width=".3985" stroke-linecap="butt" stroke-miterlimit="10" stroke-linejoin="miter" fill="none" stroke="#000000" d="M 208.69956 -136.06482 L 301.5432 -136.06482 L 301.5432 -107.71803 L 208.69956 -107.71803 Z "/>
<text xml:space="preserve" transform="matrix(1 0 -0 1 -589.60598 595.276)" font-size="11.95517" font-family="LMRoman12"><tspan y="-371.796" x="1180.954 1189.8965 1196.4002 1202.2582 1205.51 1210.7105 1219.1627 1225.6664 1228.9182 1238.6736 1245.1773 1248.4291 1253.6295">DualerSimplex</tspan></text>
<path transform="matrix(1,0,0,-1,375.656,98.63498)" d="M 208.69956 -172.91576 L 301.5432 -172.91576 L 301.5432 -144.56897 L 208.69956 -144.56897 Z " fill="#c2e5e7"/>
<path transform="matrix(1,0,0,-1,375.656,98.63498)" stroke-width=".3985" stroke-linecap="butt" stroke-miterlimit="10" stroke-linejoin="miter" fill="none" stroke="#000000" d="M 208.69956 -172.91576 L 301.5432 -172.91576 L 301.5432 -144.56897 L 208.69956 -144.56897 Z "/>
<text xml:space="preserve" transform="matrix(1 0 -0 1 -589.60598 595.276)" font-size="11.95517" font-family="LMRoman12"><tspan y="-333.783" x="1191.327 1199.2892 1202.541 1208.399 1214.2571 1218.812 1224.0125 1229.2129 1232.4647 1235.7166 1244.8143">Pivotzeiles</tspan></text>
<path transform="matrix(1,0,0,-1,375.656,98.63498)" d="M 298.07896 -226.77455 L 255.12137 -183.81697 L 212.16379 -226.77455 L 255.12137 -269.73213 Z " fill="#7da3ba"/>
<path transform="matrix(1,0,0,-1,375.656,98.63498)" stroke-width=".3985" stroke-linecap="butt" stroke-miterlimit="10" stroke-linejoin="miter" fill="none" stroke="#000000" d="M 298.07896 -226.77455 L 255.12137 -183.81697 L 212.16379 -226.77455 L 255.12137 -269.73213 Z "/>
<text xml:space="preserve" transform="matrix(1 0 -0 1 -589.606 595.276)" font-size="11.95517" font-family="LMRoman12"><tspan y="-274.646" x="1198.155 1206.1172 1209.369 1215.227 1221.0851 1225.64 1230.8405 1237.9896">Pivotz.s</tspan></text>
<text xml:space="preserve" transform="matrix(1 0 -0 1 -589.606 595.276)" font-size="11.95517" font-family="CMSY10" font-style="italic"><tspan y="-260.2" x="1198.941">&#x2200;</tspan></text>
<text xml:space="preserve" transform="matrix(1 0 -0 1 -589.606 595.276)" font-size="11.95517" font-family="CMMI12" font-style="italic"><tspan y="-260.2" x="1205.582">a</tspan></text>
<text xml:space="preserve" transform="matrix(1 0 -0 1 -589.606 595.276)" font-size="7.97011" font-family="CMMI8" font-style="italic"><tspan y="-258.407" x="1211.727 1215.6404">sj</tspan></text>
<text xml:space="preserve" transform="matrix(1 0 -0 1 -589.606 595.276)" font-size="11.95517" font-family="CMSY10" font-style="italic"><tspan y="-260.2" x="1223.346">&#x2265;</tspan></text>
<text xml:space="preserve" transform="matrix(1 0 -0 1 -589.606 595.276)" font-size="11.95517" font-family="CMR12"><tspan y="-260.2" x="1235.966">0</tspan></text>
<path transform="matrix(1,0,0,-1,375.656,98.63498)" d="M 335.15898 -318.43498 L 352.35704 -271.1794 L 458.55195 -271.1794 L 441.35389 -318.43498 Z " fill="#ee747e"/>
<path transform="matrix(1,0,0,-1,375.656,98.63498)" stroke-width=".3985" stroke-linecap="butt" stroke-miterlimit="10" stroke-linejoin="miter" fill="none" stroke="#000000" d="M 335.15898 -318.43498 L 352.35704 -271.1794 L 458.55195 -271.1794 L 441.35389 -318.43498 Z "/>
<text xml:space="preserve" transform="matrix(1 0 -0 1 -589.60598 595.276)" font-size="11.95517" font-family="LMRoman12"><tspan y="-213.328" x="1321.516 1329.4782 1334.0331 1339.8911 1346.3948 1349.6466 1354.847 1368.4998 1375.3262 1380.5266 1385.1414 1388.3932 1392.9481 1398.1486">Problembesitzt</tspan><tspan y="-198.882" x="1324.978 1330.836 1336.0365 1339.2883 1345.792 1354.8898 1360.0902 1366.5939 1369.8457 1375.7037 1380.3185 1384.9332 1388.185 1394.0431">keinezul&#x00e4;ssige</tspan><tspan y="-184.436" x="1332.506 1340.7909 1346.6489 1351.2637 1354.5155 1359.1303 1362.3821 1368.2401 1372.8549 1379.3585 1385.8622">Basisl&#x00f6;sung</tspan></text>
<path transform="matrix(1,0,0,-1,375.656,98.63498)" d="M 350.43363 -360.00495 L 443.27729 -360.00495 L 443.27729 -331.65815 L 350.43363 -331.65815 Z " fill="#c2e5e7"/>
<path transform="matrix(1,0,0,-1,375.656,98.63498)" stroke-width=".3985" stroke-linecap="butt" stroke-miterlimit="10" stroke-linejoin="miter" fill="none" stroke="#000000" d="M 350.43363 -360.00495 L 443.27729 -360.00495 L 443.27729 -331.65815 L 350.43363 -331.65815 Z "/>
<text xml:space="preserve" transform="matrix(1 0 -0 1 -589.6061 595.276)" font-size="11.95517" font-family="LMRoman12"><tspan y="-146.696" x="1334.8 1343.5752 1350.0789 1356.5825 1361.1375 1366.3379 1371.2156 1377.7192 1382.9197">Abbrechen</tspan></text>
<text xml:space="preserve" transform="matrix(1 0 -0 1 -589.6061 595.276)" font-size="11.95517" font-family="LMRoman12"><tspan y="-22" x="1325.857 1334.6322 1341.1359 1347.6395 1350.8914 1354.1432 1360.6469 1367.1505 1373.6542 1383.4096 1389.2676 1392.5194">Abbildung2.2</tspan></text>
<text xml:space="preserve" transform="matrix(1 0 -0 1 -589.60598 595.27597)" font-size="11.95517" font-family="LMRoman12"><tspan y="-21.191" x="1004.763 1010.62106">19</tspan></text>
<path transform="matrix(1,0,0,-1,375.656,98.63498)" d="M 208.69956 -314.64985 L 301.5432 -314.64985 L 301.5432 -286.30305 L 208.69956 -286.30305 Z " fill="#c2e5e7"/>
<path transform="matrix(1,0,0,-1,375.656,98.63498)" stroke-width=".3985" stroke-linecap="butt" stroke-miterlimit="10" stroke-linejoin="miter" fill="none" stroke="#000000" d="M 208.69956 -314.64985 L 301.5432 -314.64985 L 301.5432 -286.30305 L 208.69956 -286.30305 Z "/>
<text xml:space="preserve" transform="matrix(1 0 -0 1 -589.60598 595.276)" font-size="11.95517" font-family="LMRoman12"><tspan y="-193.213" x="1187.425 1195.3872 1198.639 1204.4971 1210.3551 1214.91 1219.5248 1226.0285 1231.8865 1235.1383 1239.6932 1248.791">Pivotspaltet</tspan></text>
<path transform="matrix(1,0,0,-1,375.656,98.63498)" d="M 208.69956 -351.5008 L 301.5432 -351.5008 L 301.5432 -323.154 L 208.69956 -323.154 Z " fill="#c2e5e7"/>
<path transform="matrix(1,0,0,-1,375.656,98.63498)" stroke-width=".3985" stroke-linecap="butt" stroke-miterlimit="10" stroke-linejoin="miter" fill="none" stroke="#000000" d="M 208.69956 -351.5008 L 301.5432 -351.5008 L 301.5432 -323.154 L 208.69956 -323.154 Z "/>
<text xml:space="preserve" transform="matrix(1 0 -0 1 -589.60598 595.276)" font-size="11.95517" font-family="LMRoman12"><tspan y="-156.097" x="1178.21 1186.1721 1189.424 1195.282 1201.14 1205.695 1210.8954 1214.1472 1219.3477 1229.103 1234.3035 1240.4844">Pivotelement</tspan></text>
<text xml:space="preserve" transform="matrix(1 0 -0 1 -589.60598 595.276)" font-size="11.95517" font-family="CMMI12" font-style="italic"><tspan y="-156.097" x="1248.932">a</tspan></text>
<text xml:space="preserve" transform="matrix(1 0 -0 1 -589.60598 595.276)" font-size="7.97011" font-family="CMMI8" font-style="italic"><tspan y="-154.303" x="1255.077 1258.9904">st</tspan></text>
<path transform="matrix(1,0,0,-1,375.656,98.63498)" d="M 208.69956 -388.35176 L 301.5432 -388.35176 L 301.5432 -360.00495 L 208.69956 -360.00495 Z " fill="#c2e5e7"/>
<path transform="matrix(1,0,0,-1,375.656,98.63498)" stroke-width=".3985" stroke-linecap="butt" stroke-miterlimit="10" stroke-linejoin="miter" fill="none" stroke="#000000" d="M 208.69956 -388.35176 L 301.5432 -388.35176 L 301.5432 -360.00495 L 208.69956 -360.00495 Z "/>
<text xml:space="preserve" transform="matrix(1 0 -0 1 -589.60598 595.27597)" font-size="11.95517" font-family="LMRoman12"><tspan y="-118.35" x="1190.189 1198.1511 1201.403 1207.261 1213.119 1217.674 1222.2887 1227.1664 1233.67 1238.225 1241.4768 1246.0317">Pivotschritt</tspan></text>
<path transform="matrix(1,0,0,-1,375.656,98.63498)" d="M 208.69956 -426.27174 L 301.5432 -426.27174 L 301.5432 -395.7868 L 208.69956 -395.7868 Z " fill="#c2e5e7"/>
<path transform="matrix(1,0,0,-1,375.656,98.63498)" stroke-width=".3985" stroke-linecap="butt" stroke-miterlimit="10" stroke-linejoin="miter" fill="none" stroke="#000000" d="M 208.69956 -426.27174 L 301.5432 -426.27174 L 301.5432 -395.7868 L 208.69956 -395.7868 Z "/>
<text xml:space="preserve" transform="matrix(1 0 -0 1 -589.60598 595.276)" font-size="11.95517" font-family="LMRoman12"><tspan y="-88.722" x="1183.644 1191.929 1200.7041 1207.8533 1216.6284 1224.9133 1237.5858 1244.0895 1250.5932">BV,NBVund</tspan><tspan y="-74.276" x="1186.774 1198.3108 1205.1372 1210.3377 1214.9524 1219.5073 1222.7592 1232.5145 1242.2699 1247.4703">Fbestimmen</tspan></text>
<path transform="matrix(1,0,0,-1,375.656,98.63498)" d="M 208.69956 -467.11943 L 301.5432 -467.11943 L 301.5432 -434.30989 L 208.69956 -434.30989 Z " fill="#c2e5e7"/>
<path transform="matrix(1,0,0,-1,375.656,98.63498)" stroke-width=".3985" stroke-linecap="butt" stroke-miterlimit="10" stroke-linejoin="miter" fill="none" stroke="#000000" d="M 208.69956 -467.11943 L 301.5432 -467.11943 L 301.5432 -434.30989 L 208.69956 -434.30989 Z "/>
<text xml:space="preserve" transform="matrix(1 0 -0 1 -589.60598 595.27597)" font-size="11.95517" font-family="LMRoman12"><tspan y="-50.199" x="1182.955 1191.7301 1196.9306 1203.4342 1208.6347 1217.1467 1224.6306 1230.4887 1236.9923 1240.2442 1245.4446 1251.3026">NeuesTableau</tspan><tspan y="-35.754" x="1197.097 1202.9551 1209.4588 1214.0735 1219.9315 1225.132 1231.9584 1237.1588">ausgeben</tspan></text>
<path transform="matrix(1,0,0,-1,375.656,98.63498)" d="M 184.1718 -411.0293 L 141.7341 -372.12107 L 99.29642 -411.0293 L 141.7341 -449.93754 Z " fill="#7da3ba"/>
<path transform="matrix(1,0,0,-1,375.656,98.63498)" stroke-width=".3985" stroke-linecap="butt" stroke-miterlimit="10" stroke-linejoin="miter" fill="none" stroke="#000000" d="M 184.1718 -411.0293 L 141.7341 -372.12107 L 99.29642 -411.0293 L 141.7341 -449.93754 Z "/>
<text xml:space="preserve" transform="matrix(1 0 -0 1 -589.60598 595.276)" font-size="11.95517" font-family="LMRoman12"><tspan y="-81.499" x="1079.924 1085.782 1094.7245 1098.6218 1107.0741 1113.5778 1119.4358 1123.9907 1128.5457">2D-Chart?</tspan></text>
<path transform="matrix(1,0,0,-1,375.656,98.63498)" d="M 95.31227 -346.90058 L 188.15592 -346.90058 L 188.15592 -316.41566 L 95.31227 -316.41566 Z " fill="#c2e5e7"/>
<path transform="matrix(1,0,0,-1,375.656,98.63498)" stroke-width=".3985" stroke-linecap="butt" stroke-miterlimit="10" stroke-linejoin="miter" fill="none" stroke="#000000" d="M 95.31227 -346.90058 L 188.15592 -346.90058 L 188.15592 -316.41566 L 95.31227 -316.41566 Z "/>
<text xml:space="preserve" transform="matrix(1 0 -0 1 -589.60598 595.276)" font-size="11.95517" font-family="LMRoman12"><tspan y="-168.092" x="1081.21 1089.4949 1095.3529 1099.9677 1103.2195 1111.7316 1119.0481 1123.6629 1129.5209">BasisLsg.</tspan><tspan y="-153.646" x="1077.891 1083.0914 1086.3433 1092.8469 1098.0474 1103.2478 1106.4996 1111.3773 1117.881 1124.3847 1129.5851">einzeichnen</tspan></text>
<path transform="matrix(1,0,0,-1,375.656,98.63498)" d="M -74.76865 -58.92502 L 18.074997 -58.92502 L 18.074997 -26.115479 L -74.76865 -26.115479 Z " fill="#c2e5e7"/>
<path transform="matrix(1,0,0,-1,375.656,98.63498)" stroke-width=".3985" stroke-linecap="butt" stroke-miterlimit="10" stroke-linejoin="miter" fill="none" stroke="#000000" d="M -74.76865 -58.92502 L 18.074997 -58.92502 L 18.074997 -26.115479 L -74.76865 -26.115479 Z "/>
<text xml:space="preserve" transform="matrix(1 0 -0 1 -589.606 595.276)" font-size="11.95517" font-family="LMRoman12"><tspan y="-458.389" x="914.723 922.6852 927.2401 930.49197 940.2474 946.1054 949.35726 954.55776">Primaler</tspan><tspan y="-443.943" x="916.592 923.0956 926.3474 936.10287 942.60647 945.8583 951.0588">Simplex</tspan></text>
<path transform="matrix(1,0,0,-1,375.656,98.63498)" d="M 21.37466 -127.56068 L -28.34682 -77.8392 L -78.06831 -127.56068 L -28.34682 -177.28218 Z " fill="#7da3ba"/>
<path transform="matrix(1,0,0,-1,375.656,98.63498)" stroke-width=".3985" stroke-linecap="butt" stroke-miterlimit="10" stroke-linejoin="miter" fill="none" stroke="#000000" d="M 21.37466 -127.56068 L -28.34682 -77.8392 L -78.06831 -127.56068 L -28.34682 -177.28218 Z "/>
<text xml:space="preserve" transform="matrix(1 0 -0 1 -589.60598 595.276)" font-size="11.95517" font-family="LMRoman12"><tspan y="-380.572" x="926.997 932.85507 939.0359 943.5908">akt.</tspan><tspan y="-366.126" x="916.739 925.0239 930.88198 935.49667 938.7485 943.36318 946.615 951.2297">Basislsg</tspan><tspan y="-351.681" x="914.641 920.499 927.0026 931.55758 934.8094 944.5648 950.42288 953.6747">optimal?</tspan></text>
<path transform="matrix(1,0,0,-1,375.656,98.63498)" d="M -201.35604 -143.96547 L -189.41542 -111.15591 L -110.45897 -111.15591 L -122.39957 -143.96547 Z " fill="#ee747e"/>
<path transform="matrix(1,0,0,-1,375.656,98.63498)" stroke-width=".3985" stroke-linecap="butt" stroke-miterlimit="10" stroke-linejoin="miter" fill="none" stroke="#000000" d="M -201.35604 -143.96547 L -189.41542 -111.15591 L -110.45897 -111.15591 L -122.39957 -143.96547 Z "/>
<text xml:space="preserve" transform="matrix(1 0 -0 1 -589.60598 595.276)" font-size="11.95517" font-family="LMRoman12"><tspan y="-373.349" x="785.618 794.72787 801.23147 805.7864 809.0382 818.79367 824.6517 827.9035">Optimale</tspan><tspan y="-358.903" x="779.75 788.0349 793.89297 798.5076 801.75949 806.37417 809.626 815.484 820.0987 826.6023 833.1059">Basisl&#x00f6;sung</tspan></text>
<path transform="matrix(1,0,0,-1,375.656,98.63498)" d="M -241.03049 -127.56068 L -283.4682 -88.65244 L -325.90589 -127.56068 L -283.4682 -166.46894 Z " fill="#7da3ba"/>
<path transform="matrix(1,0,0,-1,375.656,98.63498)" stroke-width=".3985" stroke-linecap="butt" stroke-miterlimit="10" stroke-linejoin="miter" fill="none" stroke="#000000" d="M -241.03049 -127.56068 L -283.4682 -88.65244 L -325.90589 -127.56068 L -283.4682 -166.46894 Z "/>
<text xml:space="preserve" transform="matrix(1 0 -0 1 -589.606 595.276)" font-size="11.95517" font-family="LMRoman12"><tspan y="-364.964" x="654.728 660.58609 669.5285 673.4259 681.87826 688.38186 694.23989 698.7948 703.34976">2D-Chart?</tspan></text>
<path transform="matrix(1,0,0,-1,375.656,98.63498)" d="M -340.04716 -219.33948 L -226.88919 -219.33948 L -226.88919 -188.85457 L -340.04716 -188.85457 Z " fill="#c2e5e7"/>
<path transform="matrix(1,0,0,-1,375.656,98.63498)" stroke-width=".3985" stroke-linecap="butt" stroke-miterlimit="10" stroke-linejoin="miter" fill="none" stroke="#000000" d="M -340.04716 -219.33948 L -226.88919 -219.33948 L -226.88919 -188.85457 L -340.04716 -188.85457 Z "/>
<text xml:space="preserve" transform="matrix(1 0 -0 1 -589.60598 595.276)" font-size="11.95517" font-family="LMRoman12"><tspan y="-295.652" x="632.014 639.16317 642.415 647.6155 650.8673 654.4419 660.9455 667.4491 673.62997 678.1849 681.4367 687.29476 693.79837 698.413 704.27108 709.47158 714.0265 719.8845 726.3881">Zielfunktionsgerade</tspan><tspan y="-281.206" x="652.694 657.8945 661.1463 667.6499 672.8504 678.0509 681.30276 686.1804 692.684 699.1876 704.3881">einzeichnen</tspan></text>
<path transform="matrix(1,0,0,-1,375.656,98.63498)" d="M -329.89 -263.02204 L -237.04637 -263.02204 L -237.04637 -230.2125 L -329.89 -230.2125 Z " fill="#c2e5e7"/>
<path transform="matrix(1,0,0,-1,375.656,98.63498)" stroke-width=".3985" stroke-linecap="butt" stroke-miterlimit="10" stroke-linejoin="miter" fill="none" stroke="#000000" d="M -329.89 -263.02204 L -237.04637 -263.02204 L -237.04637 -230.2125 L -329.89 -230.2125 Z "/>
<text xml:space="preserve" transform="matrix(1 0 -0 1 -589.60598 595.276)" font-size="11.95517" font-family="LMRoman12"><tspan y="-254.294" x="644.373 653.1481 658.3486 664.8522 670.0527 678.56478 686.0487 691.90676 698.41036 701.6622 706.8627 712.7207">NeuesTableau</tspan><tspan y="-239.848" x="658.515 664.37307 670.87667 675.49136 681.34939 686.54989 693.3763 698.5768">ausgeben</tspan></text>
<path transform="matrix(1,0,0,-1,375.656,98.63498)" d="M -329.89 -305.54228 L -237.04637 -305.54228 L -237.04637 -272.73274 L -329.89 -272.73274 Z " fill="#c2e5e7"/>
<path transform="matrix(1,0,0,-1,375.656,98.63498)" stroke-width=".3985" stroke-linecap="butt" stroke-miterlimit="10" stroke-linejoin="miter" fill="none" stroke="#000000" d="M -329.89 -305.54228 L -237.04637 -305.54228 L -237.04637 -272.73274 L -329.89 -272.73274 Z "/>
<text xml:space="preserve" transform="matrix(1 0 -0 1 -589.60598 595.276)" font-size="11.95517" font-family="LMRoman12"><tspan y="-211.775" x="645.591 654.70089 661.20449 665.7594 669.0112 678.76669 684.6247 687.8765 696.9744 704.291 708.9057 714.76376">OptimaleLsg.</tspan><tspan y="-197.329" x="658.515 664.37307 670.87667 675.49136 681.34939 686.54989 693.3763 698.5768">ausgeben</tspan></text>
<path transform="matrix(1,0,0,-1,375.656,98.63498)" d="M -74.76865 -221.10526 L 18.074997 -221.10526 L 18.074997 -192.75847 L -74.76865 -192.75847 Z " fill="#c2e5e7"/>
<path transform="matrix(1,0,0,-1,375.656,98.63498)" stroke-width=".3985" stroke-linecap="butt" stroke-miterlimit="10" stroke-linejoin="miter" fill="none" stroke="#000000" d="M -74.76865 -221.10526 L 18.074997 -221.10526 L 18.074997 -192.75847 L -74.76865 -192.75847 Z "/>
<text xml:space="preserve" transform="matrix(1 0 -0 1 -589.606 595.276)" font-size="11.95517" font-family="LMRoman12"><tspan y="-286.756" x="903.96 911.9222 915.174 921.03207 926.8901 931.445 936.0597 942.5633 948.4213 951.67318 956.2281 965.326">Pivotspaltet</tspan></text>
<path transform="matrix(1,0,0,-1,375.656,98.63498)" d="M 16.7626 -277.7989 L -28.34682 -232.68946 L -73.45625 -277.7989 L -28.34682 -322.90834 Z " fill="#7da3ba"/>
<path transform="matrix(1,0,0,-1,375.656,98.63498)" stroke-width=".3985" stroke-linecap="butt" stroke-miterlimit="10" stroke-linejoin="miter" fill="none" stroke="#000000" d="M 16.7626 -277.7989 L -28.34682 -232.68946 L -73.45625 -277.7989 L -28.34682 -322.90834 Z "/>
<text xml:space="preserve" transform="matrix(1 0 -0 1 -589.60598 595.276)" font-size="11.95517" font-family="LMRoman12"><tspan y="-222.847" x="911.764 919.72616 922.97799 928.836 934.69406 939.24899 943.86367 950.36727 957.5165">Pivotsp.t</tspan></text>
<text xml:space="preserve" transform="matrix(1 0 -0 1 -589.60598 595.276)" font-size="11.95517" font-family="CMSY10" font-style="italic"><tspan y="-208.402" x="916.406">&#x2200;</tspan></text>
<text xml:space="preserve" transform="matrix(1 0 -0 1 -589.60598 595.276)" font-size="11.95517" font-family="CMMI12" font-style="italic"><tspan y="-208.402" x="923.047">a</tspan></text>
<text xml:space="preserve" transform="matrix(1 0 -0 1 -589.60598 595.276)" font-size="7.97011" font-family="CMMI8" font-style="italic"><tspan y="-206.608" x="929.192 932.0772">it</tspan></text>
<text xml:space="preserve" transform="matrix(1 0 -0 1 -589.60598 595.276)" font-size="11.95517" font-family="CMSY10" font-style="italic"><tspan y="-208.402" x="938.952">&#x2264;</tspan></text>
<text xml:space="preserve" transform="matrix(1 0 -0 1 -589.60598 595.276)" font-size="11.95517" font-family="CMR12"><tspan y="-208.402" x="951.572">0</tspan></text>
<path transform="matrix(1,0,0,-1,375.656,98.63498)" d="M -74.76865 -362.83934 L 18.074997 -362.83934 L 18.074997 -334.49253 L -74.76865 -334.49253 Z " fill="#c2e5e7"/>
<path transform="matrix(1,0,0,-1,375.656,98.63498)" stroke-width=".3985" stroke-linecap="butt" stroke-miterlimit="10" stroke-linejoin="miter" fill="none" stroke="#000000" d="M -74.76865 -362.83934 L 18.074997 -362.83934 L 18.074997 -334.49253 L -74.76865 -334.49253 Z "/>
<text xml:space="preserve" transform="matrix(1 0 -0 1 -589.606 595.276)" font-size="11.95517" font-family="LMRoman12"><tspan y="-143.862" x="907.863 915.82516 919.07699 924.935 930.793 935.34799 940.54849 945.74899 949.0008 952.2526 961.3505">Pivotzeiles</tspan></text>
<path transform="matrix(1,0,0,-1,375.656,98.63498)" d="M -74.76865 -399.69029 L 18.074997 -399.69029 L 18.074997 -371.34349 L -74.76865 -371.34349 Z " fill="#c2e5e7"/>
<path transform="matrix(1,0,0,-1,375.656,98.63498)" stroke-width=".3985" stroke-linecap="butt" stroke-miterlimit="10" stroke-linejoin="miter" fill="none" stroke="#000000" d="M -74.76865 -399.69029 L 18.074997 -399.69029 L 18.074997 -371.34349 L -74.76865 -371.34349 Z "/>
<text xml:space="preserve" transform="matrix(1 0 -0 1 -589.606 595.276)" font-size="11.95517" font-family="LMRoman12"><tspan y="-107.908" x="894.746 902.7081 905.95999 911.818 917.676 922.23098 927.43148 930.6833 935.8838 945.6392 950.8397 957.0205">Pivotelement</tspan></text>
<text xml:space="preserve" transform="matrix(1 0 -0 1 -589.606 595.276)" font-size="11.95517" font-family="CMMI12" font-style="italic"><tspan y="-107.908" x="965.467">a</tspan></text>
<text xml:space="preserve" transform="matrix(1 0 -0 1 -589.606 595.276)" font-size="7.97011" font-family="CMMI8" font-style="italic"><tspan y="-106.115" x="971.612 975.5253">st</tspan></text>
<path transform="matrix(1,0,0,-1,375.656,98.63498)" d="M -74.76865 -436.5412 L 18.074997 -436.5412 L 18.074997 -408.1944 L -74.76865 -408.1944 Z " fill="#c2e5e7"/>
<path transform="matrix(1,0,0,-1,375.656,98.63498)" stroke-width=".3985" stroke-linecap="butt" stroke-miterlimit="10" stroke-linejoin="miter" fill="none" stroke="#000000" d="M -74.76865 -436.5412 L 18.074997 -436.5412 L 18.074997 -408.1944 L -74.76865 -408.1944 Z "/>
<text xml:space="preserve" transform="matrix(1 0 -0 1 -589.606 595.276)" font-size="11.95517" font-family="LMRoman12"><tspan y="-70.161" x="906.724 914.68618 917.938 923.796 929.65408 934.209 938.82369 943.70138 950.20498 954.7599 958.0117 962.56668">Pivotschritt</tspan></text>
<path transform="matrix(1,0,0,-1,375.656,98.63498)" d="M -74.76865 -474.46125 L 18.074997 -474.46125 L 18.074997 -443.97633 L -74.76865 -443.97633 Z " fill="#c2e5e7"/>
<path transform="matrix(1,0,0,-1,375.656,98.63498)" stroke-width=".3985" stroke-linecap="butt" stroke-miterlimit="10" stroke-linejoin="miter" fill="none" stroke="#000000" d="M -74.76865 -474.46125 L 18.074997 -474.46125 L 18.074997 -443.97633 L -74.76865 -443.97633 Z "/>
<text xml:space="preserve" transform="matrix(1 0 -0 1 -589.606 595.276)" font-size="11.95517" font-family="LMRoman12"><tspan y="-40.533" x="900.18 908.4649 917.24 924.3892 933.1643 941.4492 954.1217 960.6253 967.1289">BV,NBVund</tspan><tspan y="-26.087" x="903.31 914.84677 921.67318 926.87368 931.48837 936.0433 939.2951 949.05056 958.80599 964.0065">Fbestimmen</tspan></text>
<path transform="matrix(1,0,0,-1,375.656,98.63498)" d="M -188.15592 -475.62355 L -95.31227 -475.62355 L -95.31227 -442.814 L -188.15592 -442.814 Z " fill="#c2e5e7"/>
<path transform="matrix(1,0,0,-1,375.656,98.63498)" stroke-width=".3985" stroke-linecap="butt" stroke-miterlimit="10" stroke-linejoin="miter" fill="none" stroke="#000000" d="M -188.15592 -475.62355 L -95.31227 -475.62355 L -95.31227 -442.814 L -188.15592 -442.814 Z "/>
<text xml:space="preserve" transform="matrix(1 0 -0 1 -589.606 595.276)" font-size="11.95517" font-family="LMRoman12"><tspan y="-41.695" x="786.105 794.88009 800.08059 806.58419 811.78469 820.29678 827.7807 833.63876 840.14236 843.39419 848.59469 854.4527">NeuesTableau</tspan><tspan y="-27.25" x="800.247 806.10507 812.60867 817.2233 823.08139 828.28189 835.1083 840.3088">ausgeben</tspan></text>
<path transform="matrix(1,0,0,-1,375.656,98.63498)" d="M -99.2964 -382.68247 L -141.73409 -343.7742 L -184.17179 -382.68247 L -141.73409 -421.5907 Z " fill="#7da3ba"/>
<path transform="matrix(1,0,0,-1,375.656,98.63498)" stroke-width=".3985" stroke-linecap="butt" stroke-miterlimit="10" stroke-linejoin="miter" fill="none" stroke="#000000" d="M -99.2964 -382.68247 L -141.73409 -343.7742 L -184.17179 -382.68247 L -141.73409 -421.5907 Z "/>
<text xml:space="preserve" transform="matrix(1 0 -0 1 -589.606 595.276)" font-size="11.95517" font-family="LMRoman12"><tspan y="-109.846" x="796.46 802.31808 811.2605 815.1579 823.6102 830.11386 835.97189 840.5268 845.0817">2D-Chart?</tspan></text>
<path transform="matrix(1,0,0,-1,375.656,98.63498)" d="M -188.15592 -318.55375 L -95.31227 -318.55375 L -95.31227 -288.06886 L -188.15592 -288.06886 Z " fill="#c2e5e7"/>
<path transform="matrix(1,0,0,-1,375.656,98.63498)" stroke-width=".3985" stroke-linecap="butt" stroke-miterlimit="10" stroke-linejoin="miter" fill="none" stroke="#000000" d="M -188.15592 -318.55375 L -95.31227 -318.55375 L -95.31227 -288.06886 L -188.15592 -288.06886 Z "/>
<text xml:space="preserve" transform="matrix(1 0 -0 1 -589.606 595.276)" font-size="11.95517" font-family="LMRoman12"><tspan y="-196.439" x="797.746 806.0309 811.8889 816.5036 819.75546 828.2675 835.5841 840.1988 846.0568">BasisLsg.</tspan><tspan y="-181.993" x="794.427 799.6275 802.87936 809.38296 814.58346 819.78396 823.03579 827.91348 834.41708 840.92068 846.12118">einzeichnen</tspan></text>
<path transform="matrix(1,0,0,-1,375.656,98.63498)" d="M 56.05331 -222.17432 L 67.14792 -191.68939 L 170.7212 -191.68939 L 159.6266 -222.17432 Z " fill="#ee747e"/>
<path transform="matrix(1,0,0,-1,375.656,98.63498)" stroke-width=".3985" stroke-linecap="butt" stroke-miterlimit="10" stroke-linejoin="miter" fill="none" stroke="#000000" d="M 56.05331 -222.17432 L 67.14792 -191.68939 L 170.7212 -191.68939 L 159.6266 -222.17432 Z "/>
<text xml:space="preserve" transform="matrix(1 0 -0 1 -589.6061 595.276)" font-size="11.95517" font-family="LMRoman12"><tspan y="-292.817" x="1045.449 1054.3915 1060.2495 1068.7616 1076.7238 1081.2787 1087.1367 1093.6404 1096.8922 1102.0927">DasProblem</tspan><tspan y="-278.371" x="1036.31 1039.5619 1044.1766 1052.6289 1059.1326 1065.3255 1072.1399 1077.3403 1081.9551 1086.8447 1093.3484 1097.9033 1103.7614 1110.265 1116.4458">istunbeschr&#x00e4;nkt</tspan></text>
<path transform="matrix(1,0,0,-1,375.656,98.63498)" d="M 66.96544 -263.6255 L 159.80908 -263.6255 L 159.80908 -235.2787 L 66.96544 -235.2787 Z " fill="#c2e5e7"/>
<path transform="matrix(1,0,0,-1,375.656,98.63498)" stroke-width=".3985" stroke-linecap="butt" stroke-miterlimit="10" stroke-linejoin="miter" fill="none" stroke="#000000" d="M 66.96544 -263.6255 L 159.80908 -263.6255 L 159.80908 -235.2787 L 66.96544 -235.2787 Z "/>
<text xml:space="preserve" transform="matrix(1 0 -0 1 -589.6061 595.276)" font-size="11.95517" font-family="LMRoman12"><tspan y="-243.074" x="1051.335 1060.1101 1066.6138 1073.1174 1077.6724 1082.8728 1087.7505 1094.2542 1099.4546">Abbrechen</tspan></text>
<path transform="matrix(1,0,0,-1,375.656,98.63498)" stroke-width=".79701" stroke-linecap="butt" stroke-miterlimit="10" stroke-linejoin="miter" fill="none" stroke="#000000" d="M -289.13676 14.17339 L -272.0853 14.17337 "/>
<path transform="matrix(1,0,0,-1,103.57071,84.46161)" d="M 2.59026 0 L -1.55415 2.0722 L 0 0 L -1.55415 -2.0722 "/>
<path transform="matrix(1,0,0,-1,375.656,98.63498)" stroke-width=".79701" stroke-linecap="butt" stroke-miterlimit="10" stroke-linejoin="miter" fill="none" stroke="#000000" d="M -226.7745 41.9789 L -226.7745 56.6936 L -207.57968 56.6936 "/>
<path transform="matrix(1,0,0,-1,168.07633,41.94138)" d="M 2.59026 0 L -1.55415 2.0722 L 0 0 L -1.55415 -2.0722 "/>
<path transform="matrix(1,0,0,-1,375.656,98.63498)" stroke-width=".79701" stroke-linecap="butt" stroke-miterlimit="10" stroke-linejoin="miter" fill="none" stroke="#000000" d="M -226.7745 -13.63214 L -226.7745 -14.17342 L -187.0438 -14.17342 "/>
<path transform="matrix(1,0,0,-1,188.61222,112.808399)" d="M 2.59026 0 L -1.55415 2.0722 L 0 0 L -1.55415 -2.0722 "/>
<path transform="matrix(1,0,0,-1,375.656,98.63498)" stroke-width=".79701" stroke-linecap="butt" stroke-miterlimit="10" stroke-linejoin="miter" fill="none" stroke="#000000" d="M -106.82553 56.6936 L -77.55814 56.6936 "/>
<path transform="matrix(1,0,0,-1,298.09788,41.94138)" d="M 2.59026 0 L -1.55415 2.0722 L 0 0 L -1.55415 -2.0722 "/>
<path transform="matrix(1,0,0,-1,375.656,98.63498)" stroke-width=".79701" stroke-linecap="butt" stroke-miterlimit="10" stroke-linejoin="miter" fill="none" stroke="#000000" d="M 18.27428 56.6936 L 56.69365 56.6936 L 56.69365 44.77351 "/>
<path transform="matrix(0,1,1,0,432.34968,53.86147)" d="M 2.59026 0 L -1.55415 2.0722 L 0 0 L -1.55415 -2.0722 "/>
<path transform="matrix(1,0,0,-1,375.656,98.63498)" stroke-width=".79701" stroke-linecap="butt" stroke-miterlimit="10" stroke-linejoin="miter" fill="none" stroke="#000000" d="M -155.90747 .19922 L -155.90747 14.17339 L -14.17339 14.17339 L 11.382 14.17337 "/>
<path transform="matrix(1,0,0,-1,387.038,84.46161)" d="M 2.59026 0 L -1.55415 2.0722 L 0 0 L -1.55415 -2.0722 "/>
<path transform="matrix(1,0,0,-1,375.656,98.63498)" stroke-width=".79701" stroke-linecap="butt" stroke-miterlimit="10" stroke-linejoin="miter" fill="none" stroke="#000000" d="M 99.41606 14.17337 L 141.73404 14.17339 L 141.73409 37.84883 "/>
<path transform="matrix(0,-1,-1,-0,517.3901,60.786149)" d="M 2.59026 0 L -1.55415 2.0722 L 0 0 L -1.55415 -2.0722 "/>
<text xml:space="preserve" transform="matrix(1 0 -0 1 -589.60598 595.276)" font-size="11.95517" font-family="LMRoman12"><tspan y="-515.2" x="1081.631 1087.6444">Ja</tspan></text>
<path transform="matrix(1,0,0,-1,375.656,98.63498)" stroke-width=".79701" stroke-linecap="butt" stroke-miterlimit="10" stroke-linejoin="miter" fill="none" stroke="#000000" d="M 188.35517 56.6936 L 223.98508 56.6936 "/>
<path transform="matrix(1,0,0,-1,599.6411,41.94138)" d="M 2.59026 0 L -1.55415 2.0722 L 0 0 L -1.55415 -2.0722 "/>
<path transform="matrix(1,0,0,-1,375.656,98.63498)" stroke-width=".79701" stroke-linecap="butt" stroke-miterlimit="10" stroke-linejoin="miter" fill="none" stroke="#000000" d="M 80.93034 2.05542 L 85.04042 0 L 226.77448 0 L 250.32668 31.40231 "/>
<path transform="matrix(.59999,-.79997,-.79997,-.59999,625.98269,67.232669)" d="M 2.59026 0 L -1.55415 2.0722 L 0 0 L -1.55415 -2.0722 "/>
<text xml:space="preserve" transform="matrix(1 0 -0 1 -589.60598 595.276)" font-size="11.95517" font-family="LMRoman12"><tspan y="-502.055" x="1116.591 1125.3661 1130.5665 1133.8184">Nein</tspan></text>
<path transform="matrix(1,0,0,-1,375.656,98.63498)" stroke-width=".79701" stroke-linecap="butt" stroke-miterlimit="10" stroke-linejoin="miter" fill="none" stroke="#000000" d="M 312.0139 56.6936 L 347.6441 56.6936 "/>
<path transform="matrix(1,0,0,-1,723.3001,41.94138)" d="M 2.59026 0 L -1.55415 2.0722 L 0 0 L -1.55415 -2.0722 "/>
<text xml:space="preserve" transform="matrix(1 0 -0 1 -589.60598 595.27597)" font-size="11.95517" font-family="LMRoman12"><tspan y="-557.634" x="1290.448 1296.4614">Ja</tspan></text>
<path transform="matrix(1,0,0,-1,375.656,98.63498)" stroke-width=".79701" stroke-linecap="butt" stroke-miterlimit="10" stroke-linejoin="miter" fill="none" stroke="#000000" d="M 396.85545 41.25188 L 396.85545 25.25494 "/>
<path transform="matrix(0,1,1,0,772.5115,73.380039)" d="M 2.59026 0 L -1.55415 2.0722 L 0 0 L -1.55415 -2.0722 "/>
<path transform="matrix(1,0,0,-1,375.656,98.63498)" stroke-width=".79701" stroke-linecap="butt" stroke-miterlimit="10" stroke-linejoin="miter" fill="none" stroke="#000000" d="M 269.29478 17.49887 L 269.29478 -.00002 L 331.6339 -.00002 "/>
<path transform="matrix(1,0,0,-1,707.2899,98.635)" d="M 2.59026 0 L -1.55415 2.0722 L 0 0 L -1.55415 -2.0722 "/>
<text xml:space="preserve" transform="matrix(1 0 -0 1 -589.60598 595.276)" font-size="11.95517" font-family="LMRoman12"><tspan y="-501.027" x="1253.026 1261.8012 1267.0016 1270.2534">Nein</tspan></text>
<path transform="matrix(1,0,0,-1,375.656,98.63498)" stroke-width=".79701" stroke-linecap="butt" stroke-miterlimit="10" stroke-linejoin="miter" fill="none" stroke="#000000" d="M 396.85545 -22.66475 L 396.85545 -27.32314 "/>
<path transform="matrix(0,1,1,0,772.5115,125.958118)" d="M 2.59026 0 L -1.55415 2.0722 L 0 0 L -1.55415 -2.0722 "/>
<path transform="matrix(1,0,0,-1,375.656,98.63498)" stroke-width=".79701" stroke-linecap="butt" stroke-miterlimit="10" stroke-linejoin="miter" fill="none" stroke="#000000" d="M 396.85545 -60.79683 L 396.85545 -68.68106 "/>
<path transform="matrix(0,1,1,0,772.5115,167.31604)" d="M 2.59026 0 L -1.55415 2.0722 L 0 0 L -1.55415 -2.0722 "/>
<path transform="matrix(1,0,0,-1,375.656,98.63498)" stroke-width=".79701" stroke-linecap="butt" stroke-miterlimit="10" stroke-linejoin="miter" fill="none" stroke="#000000" d="M 396.85545 -104.47937 L 396.85545 -116.95676 "/>
<path transform="matrix(0,1,1,0,772.5115,215.59174)" d="M 2.59026 0 L -1.55415 2.0722 L 0 0 L -1.55415 -2.0722 "/>
<path transform="matrix(1,0,0,-1,375.656,98.63498)" stroke-width=".79701" stroke-linecap="butt" stroke-miterlimit="10" stroke-linejoin="miter" fill="none" stroke="#000000" d="M 396.85545 -197.93741 L 396.85545 -218.91927 "/>
<path transform="matrix(0,1,1,0,772.5115,317.55427)" d="M 2.59026 0 L -1.55415 2.0722 L 0 0 L -1.55415 -2.0722 "/>
<text xml:space="preserve" transform="matrix(1 0 -0 1 -589.60598 595.276)" font-size="11.95517" font-family="LMRoman12"><tspan y="-282.802" x="1366.412 1372.4254">Ja</tspan></text>
<path transform="matrix(1,0,0,-1,375.656,98.63498)" stroke-width=".79701" stroke-linecap="butt" stroke-miterlimit="10" stroke-linejoin="miter" fill="none" stroke="#000000" d="M 396.85545 -254.71758 L 396.85545 -263.6254 L 317.4842 -263.6254 L 317.4842 -85.04042 L 287.3923 -64.52313 "/>
<path transform="matrix(-.82619,-.56331,-.56331,.82619,663.04837,163.15811)" d="M 2.59026 0 L -1.55415 2.0722 L 0 0 L -1.55415 -2.0722 "/>
<path transform="matrix(1,0,0,-1,375.656,98.63498)" stroke-width=".79701" stroke-linecap="butt" stroke-miterlimit="10" stroke-linejoin="miter" fill="none" stroke="#000000" d="M 354.13667 -158.74239 L 317.4842 -158.74239 L 317.4842 -85.04042 L 287.3923 -64.52313 "/>
<path transform="matrix(-.82619,-.56331,-.56331,.82619,663.04837,163.15811)" d="M 2.59026 0 L -1.55415 2.0722 L 0 0 L -1.55415 -2.0722 "/>
<text xml:space="preserve" transform="matrix(1 0 -0 1 -589.606 595.276)" font-size="11.95517" font-family="LMRoman12"><tspan y="-342.201" x="1290.718 1299.4932 1304.6936 1307.9454">Nein</tspan></text>
<path transform="matrix(1,0,0,-1,375.656,98.63498)" stroke-width=".79701" stroke-linecap="butt" stroke-miterlimit="10" stroke-linejoin="miter" fill="none" stroke="#000000" d="M 255.12137 -93.19449 L 255.12137 -104.9285 "/>
<path transform="matrix(0,1,1,0,630.77737,203.56348)" d="M 2.59026 0 L -1.55415 2.0722 L 0 0 L -1.55415 -2.0722 "/>
<text xml:space="preserve" transform="matrix(1 0 -0 1 -589.606 595.276)" font-size="11.95517" font-family="LMRoman12"><tspan y="-392.168" x="1192.347 1201.1222 1206.3226 1209.5745">Nein</tspan></text>
<path transform="matrix(1,0,0,-1,375.656,98.63498)" stroke-width=".79701" stroke-linecap="butt" stroke-miterlimit="10" stroke-linejoin="miter" fill="none" stroke="#000000" d="M 255.12137 -136.26407 L 255.12137 -141.77945 "/>
<path transform="matrix(0,1,1,0,630.77737,240.41443)" d="M 2.59026 0 L -1.55415 2.0722 L 0 0 L -1.55415 -2.0722 "/>
<path transform="matrix(1,0,0,-1,375.656,98.63498)" stroke-width=".79701" stroke-linecap="butt" stroke-miterlimit="10" stroke-linejoin="miter" fill="none" stroke="#000000" d="M 255.12137 -173.11502 L 255.12137 -180.94104 "/>
<path transform="matrix(0,1,1,0,630.77737,279.57603)" d="M 2.59026 0 L -1.55415 2.0722 L 0 0 L -1.55415 -2.0722 "/>
<path transform="matrix(1,0,0,-1,375.656,98.63498)" stroke-width=".79701" stroke-linecap="butt" stroke-miterlimit="10" stroke-linejoin="miter" fill="none" stroke="#000000" d="M 278.59709 -246.54375 L 308.98005 -272.12953 L 308.98005 -294.80665 L 340.9553 -294.8065 "/>
<path transform="matrix(1,0,0,-1,716.6113,393.44148)" d="M 2.59026 0 L -1.55415 2.0722 L 0 0 L -1.55415 -2.0722 "/>
<text xml:space="preserve" transform="matrix(1 0 -0 1 -589.60598 595.276)" font-size="11.95517" font-family="LMRoman12"><tspan y="-209.059" x="1278.538 1284.5514">Ja</tspan></text>
<path transform="matrix(1,0,0,-1,375.656,98.63498)" stroke-width=".79701" stroke-linecap="butt" stroke-miterlimit="10" stroke-linejoin="miter" fill="none" stroke="#000000" d="M 396.8619 -318.63539 L 396.85673 -328.86869 "/>
<path transform="matrix(-.00049,.99998,.99998,.00049,772.51278,427.50367)" d="M 2.59026 0 L -1.55415 2.0722 L 0 0 L -1.55415 -2.0722 "/>
<path transform="matrix(1,0,0,-1,375.656,98.63498)" stroke-width=".79701" stroke-linecap="butt" stroke-miterlimit="10" stroke-linejoin="miter" fill="none" stroke="#000000" d="M 255.12137 -270.01814 L 255.12137 -283.51353 "/>
<path transform="matrix(0,1,1,0,630.77737,382.1485)" d="M 2.59026 0 L -1.55415 2.0722 L 0 0 L -1.55415 -2.0722 "/>
<text xml:space="preserve" transform="matrix(1 0 -0 1 -589.606 595.276)" font-size="11.95517" font-family="LMRoman12"><tspan y="-218.718" x="1192.347 1201.1222 1206.3226 1209.5745">Nein</tspan></text>
<path transform="matrix(1,0,0,-1,375.656,98.63498)" stroke-width=".79701" stroke-linecap="butt" stroke-miterlimit="10" stroke-linejoin="miter" fill="none" stroke="#000000" d="M 255.12137 -314.8491 L 255.12137 -320.36448 "/>
<path transform="matrix(0,1,1,0,630.77737,418.99946)" d="M 2.59026 0 L -1.55415 2.0722 L 0 0 L -1.55415 -2.0722 "/>
<path transform="matrix(1,0,0,-1,375.656,98.63498)" stroke-width=".79701" stroke-linecap="butt" stroke-miterlimit="10" stroke-linejoin="miter" fill="none" stroke="#000000" d="M 255.12137 -351.70005 L 255.12137 -357.21543 "/>
<path transform="matrix(0,1,1,0,630.77737,455.8504)" d="M 2.59026 0 L -1.55415 2.0722 L 0 0 L -1.55415 -2.0722 "/>
<path transform="matrix(1,0,0,-1,375.656,98.63498)" stroke-width=".79701" stroke-linecap="butt" stroke-miterlimit="10" stroke-linejoin="miter" fill="none" stroke="#000000" d="M 255.12137 -388.551 L 255.12137 -392.9973 "/>
<path transform="matrix(0,1,1,0,630.77737,491.6323)" d="M 2.59026 0 L -1.55415 2.0722 L 0 0 L -1.55415 -2.0722 "/>
<path transform="matrix(1,0,0,-1,375.656,98.63498)" stroke-width=".79701" stroke-linecap="butt" stroke-miterlimit="10" stroke-linejoin="miter" fill="none" stroke="#000000" d="M 255.12137 -426.471 L 255.12137 -431.52037 "/>
<path transform="matrix(0,1,1,0,630.77737,530.15536)" d="M 2.59026 0 L -1.55415 2.0722 L 0 0 L -1.55415 -2.0722 "/>
<path transform="matrix(1,0,0,-1,375.656,98.63498)" stroke-width=".79701" stroke-linecap="butt" stroke-miterlimit="10" stroke-linejoin="miter" fill="none" stroke="#000000" d="M 255.12137 -467.3187 L 255.12137 -481.89579 L 226.77448 -481.89579 L 141.7341 -481.89579 L 141.7341 -452.8149 "/>
<path transform="matrix(0,-1,-1,-0,517.39016,551.4499)" d="M 2.59026 0 L -1.55415 2.0722 L 0 0 L -1.55415 -2.0722 "/>
<path transform="matrix(1,0,0,-1,375.656,98.63498)" stroke-width=".79701" stroke-linecap="butt" stroke-miterlimit="10" stroke-linejoin="miter" fill="none" stroke="#000000" d="M 141.7341 -371.83457 L 141.7341 -349.6901 "/>
<path transform="matrix(0,-1,-1,-0,517.39016,448.32508)" d="M 2.59026 0 L -1.55415 2.0722 L 0 0 L -1.55415 -2.0722 "/>
<text xml:space="preserve" transform="matrix(1 0 -0 1 -589.606 595.276)" font-size="11.95517" font-family="LMRoman12"><tspan y="-130.226" x="1090.827 1096.8405">Ja</tspan></text>
<path transform="matrix(1,0,0,-1,375.656,98.63498)" stroke-width=".79701" stroke-linecap="butt" stroke-miterlimit="10" stroke-linejoin="miter" fill="none" stroke="#000000" d="M 184.45227 -411.0293 L 198.42766 -411.0293 L 198.42766 -368.5085 L 198.42766 -99.21382 L 227.95285 -69.68872 "/>
<path transform="matrix(.7071,-.70709,-.70709,-.7071,603.6089,168.32373)" d="M 2.59026 0 L -1.55415 2.0722 L 0 0 L -1.55415 -2.0722 "/>
<text xml:space="preserve" transform="matrix(1 0 -0 1 -589.6061 595.276)" font-size="11.95517" font-family="LMRoman12"><tspan y="-109.846" x="1135.654 1144.4292 1149.6296 1152.8815">Nein</tspan></text>
<path transform="matrix(1,0,0,-1,375.656,98.63498)" stroke-width=".79701" stroke-linecap="butt" stroke-miterlimit="10" stroke-linejoin="miter" fill="none" stroke="#000000" d="M 141.7341 -316.2164 L 141.7341 -283.4681 L 198.42766 -283.4681 L 198.42766 -99.21382 L 227.95285 -69.68872 "/>
<path transform="matrix(.7071,-.70709,-.70709,-.7071,603.6089,168.32373)" d="M 2.59026 0 L -1.55415 2.0722 L 0 0 L -1.55415 -2.0722 "/>
<path transform="matrix(1,0,0,-1,375.656,98.63498)" stroke-width=".79701" stroke-linecap="butt" stroke-miterlimit="10" stroke-linejoin="miter" fill="none" stroke="#000000" d="M 204.4483 -42.52025 L 20.86452 -42.52025 "/>
<path transform="matrix(-1,-0,0,1,396.52055,141.15523)" d="M 2.59026 0 L -1.55415 2.0722 L 0 0 L -1.55415 -2.0722 "/>
<text xml:space="preserve" transform="matrix(1 0 -0 1 -589.60598 595.276)" font-size="11.95517" font-family="LMRoman12"><tspan y="-458.421" x="1070.688 1076.7014">Ja</tspan></text>
<path transform="matrix(1,0,0,-1,375.656,98.63498)" stroke-width=".79701" stroke-linecap="butt" stroke-miterlimit="10" stroke-linejoin="miter" fill="none" stroke="#000000" d="M -28.34682 -59.12427 L -28.34682 -74.96175 "/>
<path transform="matrix(0,1,1,0,347.30918,173.59673)" d="M 2.59026 0 L -1.55415 2.0722 L 0 0 L -1.55415 -2.0722 "/>
<path transform="matrix(1,0,0,-1,375.656,98.63498)" stroke-width=".79701" stroke-linecap="butt" stroke-miterlimit="10" stroke-linejoin="miter" fill="none" stroke="#000000" d="M -78.35397 -127.56068 L -113.62724 -127.5607 "/>
<path transform="matrix(-1,-0,0,1,262.02876,226.19568)" d="M 2.59026 0 L -1.55415 2.0722 L 0 0 L -1.55415 -2.0722 "/>
<text xml:space="preserve" transform="matrix(1 0 -0 1 -589.606 595.276)" font-size="11.95517" font-family="LMRoman12"><tspan y="-373.382" x="867.713 873.72647">Ja</tspan></text>
<path transform="matrix(1,0,0,-1,375.656,98.63498)" stroke-width=".79701" stroke-linecap="butt" stroke-miterlimit="10" stroke-linejoin="miter" fill="none" stroke="#000000" d="M -195.59775 -127.56058 L -238.1585 -127.56068 "/>
<path transform="matrix(-1,-0,0,1,137.49752,226.19565)" d="M 2.59026 0 L -1.55415 2.0722 L 0 0 L -1.55415 -2.0722 "/>
<path transform="matrix(1,0,0,-1,375.656,98.63498)" stroke-width=".79701" stroke-linecap="butt" stroke-miterlimit="10" stroke-linejoin="miter" fill="none" stroke="#000000" d="M -283.4682 -166.75637 L -283.4682 -186.06504 "/>
<path transform="matrix(0,1,1,0,92.187808,284.7)" d="M 2.59026 0 L -1.55415 2.0722 L 0 0 L -1.55415 -2.0722 "/>
<text xml:space="preserve" transform="matrix(1 0 -0 1 -589.60598 595.276)" font-size="11.95517" font-family="LMRoman12"><tspan y="-314.82" x="665.631 671.6444">Ja</tspan></text>
<path transform="matrix(1,0,0,-1,375.656,98.63498)" stroke-width=".79701" stroke-linecap="butt" stroke-miterlimit="10" stroke-linejoin="miter" fill="none" stroke="#000000" d="M -283.4682 -219.53873 L -283.4682 -227.42296 "/>
<path transform="matrix(0,1,1,0,92.187808,326.05793)" d="M 2.59026 0 L -1.55415 2.0722 L 0 0 L -1.55415 -2.0722 "/>
<path transform="matrix(1,0,0,-1,375.656,98.63498)" stroke-width=".79701" stroke-linecap="butt" stroke-miterlimit="10" stroke-linejoin="miter" fill="none" stroke="#000000" d="M -283.4682 -263.22129 L -283.4682 -269.94319 "/>
<path transform="matrix(0,1,1,0,92.187808,368.57817)" d="M 2.59026 0 L -1.55415 2.0722 L 0 0 L -1.55415 -2.0722 "/>
<path transform="matrix(1,0,0,-1,375.656,98.63498)" stroke-width=".79701" stroke-linecap="butt" stroke-miterlimit="10" stroke-linejoin="miter" fill="none" stroke="#000000" d="M -326.18605 -127.56068 L -368.5085 -127.56068 L -368.5085 -226.77448 L -368.5085 -246.61725 L -332.67955 -246.61725 "/>
<path transform="matrix(1,0,0,-1,42.97647,345.25224)" d="M 2.59026 0 L -1.55415 2.0722 L 0 0 L -1.55415 -2.0722 "/>
<text xml:space="preserve" transform="matrix(1 0 -0 1 -589.60598 595.276)" font-size="11.95517" font-family="LMRoman12"><tspan y="-373.382" x="607.569 616.34408 621.54458 624.7964">Nein</tspan></text>
<path transform="matrix(1,0,0,-1,375.656,98.63498)" stroke-width=".79701" stroke-linecap="butt" stroke-miterlimit="10" stroke-linejoin="miter" fill="none" stroke="#000000" d="M -28.34682 -177.56975 L -28.34682 -189.96895 "/>
<path transform="matrix(0,1,1,0,347.30918,288.60395)" d="M 2.59026 0 L -1.55415 2.0722 L 0 0 L -1.55415 -2.0722 "/>
<text xml:space="preserve" transform="matrix(1 0 -0 1 -589.606 595.276)" font-size="11.95517" font-family="LMRoman12"><tspan y="-310.296" x="908.882 917.6571 922.8576 926.10946">Nein</tspan></text>
<path transform="matrix(1,0,0,-1,375.656,98.63498)" stroke-width=".79701" stroke-linecap="butt" stroke-miterlimit="10" stroke-linejoin="miter" fill="none" stroke="#000000" d="M -28.34682 -221.3045 L -28.34682 -229.8123 "/>
<path transform="matrix(0,1,1,0,347.30918,328.44728)" d="M 2.59026 0 L -1.55415 2.0722 L 0 0 L -1.55415 -2.0722 "/>
<path transform="matrix(1,0,0,-1,375.656,98.63498)" stroke-width=".79701" stroke-linecap="butt" stroke-miterlimit="10" stroke-linejoin="miter" fill="none" stroke="#000000" d="M -28.34682 -323.19419 L -28.34682 -331.70304 "/>
<path transform="matrix(0,1,1,0,347.30918,430.338)" d="M 2.59026 0 L -1.55415 2.0722 L 0 0 L -1.55415 -2.0722 "/>
<text xml:space="preserve" transform="matrix(1 0 -0 1 -589.606 595.276)" font-size="11.95517" font-family="LMRoman12"><tspan y="-166.618" x="908.882 917.6571 922.8576 926.10946">Nein</tspan></text>
<path transform="matrix(1,0,0,-1,375.656,98.63498)" stroke-width=".79701" stroke-linecap="butt" stroke-miterlimit="10" stroke-linejoin="miter" fill="none" stroke="#000000" d="M -28.34682 -363.03858 L -28.34682 -368.55397 "/>
<path transform="matrix(0,1,1,0,347.30918,467.18894)" d="M 2.59026 0 L -1.55415 2.0722 L 0 0 L -1.55415 -2.0722 "/>
<path transform="matrix(1,0,0,-1,375.656,98.63498)" stroke-width=".79701" stroke-linecap="butt" stroke-miterlimit="10" stroke-linejoin="miter" fill="none" stroke="#000000" d="M -28.34682 -399.88954 L -28.34682 -405.4049 "/>
<path transform="matrix(0,1,1,0,347.30918,504.0399)" d="M 2.59026 0 L -1.55415 2.0722 L 0 0 L -1.55415 -2.0722 "/>
<path transform="matrix(1,0,0,-1,375.656,98.63498)" stroke-width=".79701" stroke-linecap="butt" stroke-miterlimit="10" stroke-linejoin="miter" fill="none" stroke="#000000" d="M -28.34682 -436.74049 L -28.34682 -441.1868 "/>
<path transform="matrix(0,1,1,0,347.30918,539.8218)" d="M 2.59026 0 L -1.55415 2.0722 L 0 0 L -1.55415 -2.0722 "/>
<path transform="matrix(1,0,0,-1,375.656,98.63498)" stroke-width=".79701" stroke-linecap="butt" stroke-miterlimit="10" stroke-linejoin="miter" fill="none" stroke="#000000" d="M -28.34682 -474.6605 L -28.34682 -488.98246 L -85.04042 -488.98246 L -141.73409 -488.98246 L -141.73409 -478.41307 "/>
<path transform="matrix(0,-1,-1,-0,233.92192,577.04806)" d="M 2.59026 0 L -1.55415 2.0722 L 0 0 L -1.55415 -2.0722 "/>
<path transform="matrix(1,0,0,-1,375.656,98.63498)" stroke-width=".79701" stroke-linecap="butt" stroke-miterlimit="10" stroke-linejoin="miter" fill="none" stroke="#000000" d="M -141.73409 -442.61476 L -141.73409 -424.4665 "/>
<path transform="matrix(0,-1,-1,-0,233.92192,523.10147)" d="M 2.59026 0 L -1.55415 2.0722 L 0 0 L -1.55415 -2.0722 "/>
<path transform="matrix(1,0,0,-1,375.656,98.63498)" stroke-width=".79701" stroke-linecap="butt" stroke-miterlimit="10" stroke-linejoin="miter" fill="none" stroke="#000000" d="M -141.73409 -343.48774 L -141.73409 -321.34327 "/>
<path transform="matrix(0,-1,-1,-0,233.92192,419.97825)" d="M 2.59026 0 L -1.55415 2.0722 L 0 0 L -1.55415 -2.0722 "/>
<text xml:space="preserve" transform="matrix(1 0 -0 1 -589.60598 595.276)" font-size="11.95517" font-family="LMRoman12"><tspan y="-155.738" x="807.363 813.3764">Ja</tspan></text>
<path transform="matrix(1,0,0,-1,375.656,98.63498)" stroke-width=".79701" stroke-linecap="butt" stroke-miterlimit="10" stroke-linejoin="miter" fill="none" stroke="#000000" d="M -141.73409 -287.86958 L -141.73404 -226.77448 L -56.9689 -152.60526 "/>
<path transform="matrix(.75255,-.65848,-.65848,-.75255,318.6871,251.24024)" d="M 2.59026 0 L -1.55415 2.0722 L 0 0 L -1.55415 -2.0722 "/>
<path transform="matrix(1,0,0,-1,375.656,98.63498)" stroke-width=".79701" stroke-linecap="butt" stroke-miterlimit="10" stroke-linejoin="miter" fill="none" stroke="#000000" d="M -184.45226 -382.68247 L -212.60106 -382.68247 L -212.60106 -255.12128 L -212.60106 -226.77448 L -141.73404 -226.77448 L -56.9689 -152.60526 "/>
<path transform="matrix(.75255,-.65848,-.65848,-.75255,318.6871,251.24024)" d="M 2.59026 0 L -1.55415 2.0722 L 0 0 L -1.55415 -2.0722 "/>
<text xml:space="preserve" transform="matrix(1 0 -0 1 -589.606 595.27597)" font-size="11.95517" font-family="LMRoman12"><tspan y="-118.35" x="756.963 765.7381 770.9386 774.1904">Nein</tspan></text>
<path transform="matrix(1,0,0,-1,375.656,98.63498)" stroke-width=".79701" stroke-linecap="butt" stroke-miterlimit="10" stroke-linejoin="miter" fill="none" stroke="#000000" d="M 17.0495 -277.7989 L 42.5202 -277.7989 L 42.5202 -226.77448 L 42.5202 -206.93209 L 58.79866 -206.93209 "/>
<path transform="matrix(1,0,0,-1,434.45466,305.56709)" d="M 2.59026 0 L -1.55415 2.0722 L 0 0 L -1.55415 -2.0722 "/>
<text xml:space="preserve" transform="matrix(1 0 -0 1 -589.606 595.276)" font-size="11.95517" font-family="LMRoman12"><tspan y="-223.232" x="988.78 994.79348">Ja</tspan></text>
<path transform="matrix(1,0,0,-1,375.656,98.63498)" stroke-width=".79701" stroke-linecap="butt" stroke-miterlimit="10" stroke-linejoin="miter" fill="none" stroke="#000000" d="M 113.39424 -222.37451 L 113.3886 -232.48923 "/>
<path transform="matrix(-.00052,.99998,.99998,.00052,489.04463,331.1242)" d="M 2.59026 0 L -1.55415 2.0722 L 0 0 L -1.55415 -2.0722 "/>
<text xml:space="preserve" transform="matrix(1 0 -0 1 -589.606 595.276)" font-size="11.95517" font-family="LMRoman12"><tspan y="12.808" x="945.276 954.0511 960.5547 967.0583 970.3101 973.56198 980.06558 986.56918 993.07278 1002.8282 1008.6862 1011.93807">Abbildung2.2</tspan></text>
<text xml:space="preserve" transform="matrix(1 0 -0 1 -589.606 595.276)" font-size="11.95517" font-family="LMRoman12"><tspan y="12.808" x="1017.785">:</tspan></text>
<text xml:space="preserve" transform="matrix(1 0 -0 1 -589.606 595.276)" font-size="11.95517" font-family="LMRoman12"><tspan y="12.808" x="1024.939 1032.5784 1035.8302 1041.3655 1049.495 1054.3727 1060.8764 1066.7344 1071.2893">Flowchart</tspan></text>
<text xml:space="preserve" transform="matrix(0 1 -1 -0 0 0)" font-size="11.95517" font-family="LMRoman12"><tspan y="33.552" x="291.785 297.64305">17</tspan></text>
</g>
</svg>
