<?xml version="1.0" encoding="UTF-8" standalone="no"?>
<!DOCTYPE svg PUBLIC "-//W3C//DTD SVG 1.1//EN" "http://www.w3.org/Graphics/SVG/1.1/DTD/svg11.dtd">
<svg xmlns="http://www.w3.org/2000/svg" xmlns:xlink="http://www.w3.org/1999/xlink" version="1.1" width="595.276pt" height="841.89pt" viewBox="0 0 595.276 841.89">
<g enable-background="new">
<text xml:space="preserve" transform="matrix(1 0 -0 1 0 841.89)" font-size="24.78705" font-family="LMRoman17"><tspan y="-754.965" x="56.693 73.87042 86.536609 99.20279 105.39955 111.59631 124.2625 136.92868 149.59487 160.97212 169.87067 181.24791 191.31145 200.08606 210.1496 220.21314 226.4099 235.82897 248.49515 261.16133 267.3581">Abbildungsverzeichnis</tspan></text>
<text xml:space="preserve" transform="matrix(1 0 -0 1 0 841.89)" font-size="11.95517" font-family="LMRoman12"><tspan y="-715.6" x="74.252 80.11003 83.36184 101.17504 110.35661 114.91153 120.76956 127.27318 133.7768 137.0286 141.6433 146.53296 153.03658 162.13446 171.07694 176.93497 181.48989 186.10459 190.6595 195.86 199.1118 202.3636 208.86722 215.37084 225.12625 231.62987 236.83037 245.28267 248.53447 251.78627 258.2899 263.4904 269.34843 273.90336 279.10386 289.50486 298.6147 305.1183 309.67323 312.92503 322.68046 325.93226 331.13276 335.68769 342.19129 348.6949 354.55293 359.1676 365.02565 371.52925 375.10383 380.96186 386.8199 393.64628 410.43135 419.66075 428.89015 438.11955 447.34895 456.57835 465.80775 475.03715 484.26655 493.49595 502.72535 511.95475">1.1GraphischeDarstellungderlinearenOptimierungsaufgabe............</tspan></text>
<text xml:space="preserve" transform="matrix(1 0 -0 1 0 841.89)" font-size="11.95517" font-family="LMRoman12"><tspan y="-715.6" x="532.73">5</tspan></text>
<text xml:space="preserve" transform="matrix(1 0 -0 1 0 841.89)" font-size="11.95517" font-family="LMRoman12"><tspan y="-701.154" x="74.252 80.11003 83.36184 101.17504 110.35661 114.91153 120.76956 127.27318 133.7768 137.0286 141.6433 146.53296 153.03658 162.13446 171.07694 176.93497 181.48989 186.10459 190.6595 195.86 199.1118 202.3636 208.86722 215.37084 225.12625 231.62987 236.83037 245.28267 248.53447 251.78627 258.2899 263.4904 269.34843 273.90336 279.10386 289.50486 300.22865 306.08668 312.2675 315.5193 325.27473 328.52653 333.72703 338.28196 344.78556 351.28916 357.1472 361.76188 367.6199 374.1235 377.6981 383.55613 389.41416 396.2525 401.453 408.6022 415.1058 419.66075 422.91255 432.66798 438.526 441.7778 446.9783 455.43064 461.93424 465.18605 474.94148 481.44508 484.69688 489.89738 502.72526 511.95466">1.2GraphischeDarstellungderlinearenMaximierungsaufgabe,primalerSimplex..</tspan></text>
<text xml:space="preserve" transform="matrix(1 0 -0 1 0 841.89)" font-size="11.95517" font-family="LMRoman12"><tspan y="-701.154" x="532.73">8</tspan></text>
<text xml:space="preserve" transform="matrix(1 0 -0 1 0 841.89)" font-size="11.95517" font-family="LMRoman12"><tspan y="-686.708" x="74.252 80.11003 83.36184 101.17504 110.35661 114.91153 120.76956 127.27318 133.7768 137.0286 141.6433 146.53296 153.03658 162.13446 171.07694 176.93497 181.48989 186.10459 190.6595 195.86 199.1118 202.3636 208.86722 215.37084 225.12625 231.62987 236.83037 245.28267 248.53447 251.78627 258.2899 263.4904 269.34843 273.90336 279.10386 289.50486 300.22865 306.08668 312.2675 315.5193 325.27473 328.52653 333.72703 338.28196 344.78556 351.28916 357.1472 361.76188 367.6199 374.1235 377.6981 383.55613 389.41416 396.2525 401.453 408.6022 415.1058 421.6094 427.46745 430.71925 435.91975 444.37208 450.87568 454.12748 463.8829 470.3865 473.6383 478.8388 493.49586 502.72526 511.95466">1.3GraphischeDarstellungderlinearenMaximierungsaufgabe,dualerSimplex...</tspan></text>
<text xml:space="preserve" transform="matrix(1 0 -0 1 0 841.89)" font-size="11.95517" font-family="LMRoman12"><tspan y="-686.708" x="526.877 532.73507">13</tspan></text>
<text xml:space="preserve" transform="matrix(1 0 -0 1 0 841.89)" font-size="11.95517" font-family="LMRoman12"><tspan y="-662.3" x="74.252 80.11003 83.36184 101.17504 109.950138 116.142917 124.27242 129.47292 135.97653 142.48015 148.98377 155.48738 165.23085 171.73447 176.93497 185.39923 189.6194 199.37482 205.87844 209.13024 214.33074 224.08615 229.28665 235.46749 240.0224 243.2742 248.4747 253.02962 259.53324 266.03684 275.79228 282.29588 287.49638 296.00846 302.51206 305.76387 315.5193 322.0229 325.2747 330.4752 336.656 340.5534 349.3285 352.5803 358.43833 364.29637 368.8513 372.1031 376.65803 383.16163 392.60624 399.10984 410.3955 419.6249 428.8543 438.0837 447.3131 456.5425 465.7719 475.0013 484.2307 493.4601 502.6895 511.9189">2.1AnwendungderImplementierungdesSimplex-Algorithmus............</tspan></text>
<text xml:space="preserve" transform="matrix(1 0 -0 1 0 841.89)" font-size="11.95517" font-family="LMRoman12"><tspan y="-662.3" x="526.877 532.73507">16</tspan></text>
<text xml:space="preserve" transform="matrix(1 0 -0 1 0 841.89)" font-size="11.95517" font-family="LMRoman12"><tspan y="-647.854" x="74.252 80.11003 83.36184 101.17504 108.81439 112.0662 117.613399 125.74291 130.62062 137.12424 142.98227 147.53719 161.2139 170.44329 179.67267 188.90206 198.13144 207.36083 216.59021 225.8196 235.04898 244.27837 253.50775 262.73716 271.96656 281.19596 290.42536 299.65476 308.88417 318.11357 327.34297 336.57237 345.80177 355.03117 364.26057 373.48997 382.71937 391.94877 401.17817 410.40757 419.63697 428.86637 438.09577 447.32518 456.55458 465.78398 475.01338 484.24278 493.47218 502.70158 511.93098">2.2Flowchart.......................................</tspan></text>
<text xml:space="preserve" transform="matrix(1 0 -0 1 0 841.89)" font-size="11.95517" font-family="LMRoman12"><tspan y="-647.854" x="526.877 532.73507">17</tspan></text>
<text xml:space="preserve" transform="matrix(1 0 -0 1 0 841.89)" font-size="11.95517" font-family="LMRoman12"><tspan y="-20.306" x="291.785 297.64305">23</tspan></text>
</g>
</svg>
