<?xml version="1.0" encoding="UTF-8" standalone="no"?>
<!DOCTYPE svg PUBLIC "-//W3C//DTD SVG 1.1//EN" "http://www.w3.org/Graphics/SVG/1.1/DTD/svg11.dtd">
<svg xmlns="http://www.w3.org/2000/svg" xmlns:xlink="http://www.w3.org/1999/xlink" version="1.1" width="595.276pt" height="841.89pt" viewBox="0 0 595.276 841.89">
<g enable-background="new">
<path transform="matrix(1,0,0,-1,56.693,60.080018)" stroke-width=".797" stroke-linecap="butt" stroke-miterlimit="10" stroke-linejoin="miter" fill="none" stroke="#000000" d="M 0 0 L 481.89 0 "/>
<text xml:space="preserve" transform="matrix(1 0 -0 1 0 841.89)" font-size="11.95517" font-family="LMRoman12" font-weight="bold"><tspan y="-771.183" x="62.546 72.70789 76.44986 83.18062 89.91138 95.41075 99.15272 104.389087 111.86107 122.70441 130.17639 139.95572 151.16967">Algorithmus1:</tspan></text>
<text xml:space="preserve" transform="matrix(1 0 -0 1 0 841.89)" font-size="11.95517" font-family="LMRoman12"><tspan y="-771.183" x="158.76 166.72214 171.27706 174.52886 184.28427 190.1423 193.3941 198.5946 207.0469 213.55052 216.80233 226.55774 233.06136 236.31316 241.51366">PrimalerSimplex</tspan></text>
<path transform="matrix(1,0,0,-1,56.693,75.423038)" stroke-width=".797" stroke-linecap="butt" stroke-miterlimit="10" stroke-linejoin="miter" fill="none" stroke="#000000" d="M 0 0 L 481.89 0 "/>
<text xml:space="preserve" transform="matrix(1 0 -0 1 0 841.89)" font-size="11.95517" font-family="LMRoman12" font-weight="bold"><tspan y="-755.11" x="68.399 77.22192 80.96388 88.43587 95.166629 101.7061 109.5487 120.16489">Eingabe:</tspan></text>
<text xml:space="preserve" transform="matrix(1 0 -0 1 0 841.89)" font-size="11.95517" font-family="LMRoman12"><tspan y="-755.11" x="127.801 135.11757 138.36937 144.87299 150.07349 155.93152 160.48644 169.58432 178.69416 185.19777 189.75269 193.00449 202.7599 206.0117 211.2122 215.76712 222.27074 228.77436 234.63239 239.24709 245.10512 251.60874 255.18334 261.04139 266.8994 273.7258 282.8237 292.57914 298.43717">LineareOptimierungsaufgabemax</tspan></text>
<text xml:space="preserve" transform="matrix(1 0 -0 1 0 841.89)" font-size="11.95517" font-family="CMSY10" font-style="italic"><tspan y="-755.11" x="304.594">{</tspan></text>
<text xml:space="preserve" transform="matrix(1 0 -0 1 0 841.89)" font-size="11.95517" font-family="CMBX12" font-weight="bold"><tspan y="-755.11" x="310.572">c</tspan></text>
<text xml:space="preserve" transform="matrix(1 0 -0 1 0 841.89)" font-size="7.97011" font-family="MSAM10"><tspan y="-759.448" x="316.55">&#x22ba;</tspan></text>
<text xml:space="preserve" transform="matrix(1 0 -0 1 0 841.89)" font-size="11.95517" font-family="CMBX12" font-weight="bold"><tspan y="-755.11" x="321.476">x</tspan></text>
<text xml:space="preserve" transform="matrix(1 0 -0 1 0 841.89)" font-size="11.95517" font-family="CMSY10" font-style="italic"><tspan y="-755.11" x="331.895">|</tspan></text>
<text xml:space="preserve" transform="matrix(1 0 -0 1 0 841.89)" font-size="11.95517" font-family="CMBX12" font-weight="bold"><tspan y="-755.11" x="338.537 348.69889">Ax</tspan></text>
<text xml:space="preserve" transform="matrix(1 0 -0 1 0 841.89)" font-size="11.95517" font-family="CMSY10" font-style="italic"><tspan y="-755.11" x="359.112">&#x2264;</tspan></text>
<text xml:space="preserve" transform="matrix(1 0 -0 1 0 841.89)" font-size="11.95517" font-family="CMBX12" font-weight="bold"><tspan y="-755.11" x="371.731">b</tspan></text>
<text xml:space="preserve" transform="matrix(1 0 -0 1 0 841.89)" font-size="11.95517" font-family="CMMI12" font-style="italic"><tspan y="-755.11" x="379.203">,</tspan></text>
<text xml:space="preserve" transform="matrix(1 0 -0 1 0 841.89)" font-size="11.95517" font-family="CMBX12" font-weight="bold"><tspan y="-755.11" x="384.448">x</tspan></text>
<text xml:space="preserve" transform="matrix(1 0 -0 1 0 841.89)" font-size="11.95517" font-family="CMSY10" font-style="italic"><tspan y="-755.11" x="394.867">&#x2265;</tspan></text>
<text xml:space="preserve" transform="matrix(1 0 -0 1 0 841.89)" font-size="11.95517" font-family="CMBX12" font-weight="bold"><tspan y="-755.11" x="407.486">0</tspan></text>
<text xml:space="preserve" transform="matrix(1 0 -0 1 0 841.89)" font-size="11.95517" font-family="CMSY10" font-style="italic"><tspan y="-755.11" x="414.211">}</tspan></text>
<text xml:space="preserve" transform="matrix(1 0 -0 1 0 841.89)" font-size="11.95517" font-family="LMRoman12"><tspan y="-755.11" x="422.181 431.93644 435.18824">mit</tspan></text>
<text xml:space="preserve" transform="matrix(1 0 -0 1 0 841.89)" font-size="11.95517" font-family="CMBX12" font-weight="bold"><tspan y="-755.11" x="441.733">b</tspan></text>
<text xml:space="preserve" transform="matrix(1 0 -0 1 0 841.89)" font-size="11.95517" font-family="CMSY10" font-style="italic"><tspan y="-755.11" x="452.526">&#x2265;</tspan></text>
<text xml:space="preserve" transform="matrix(1 0 -0 1 0 841.89)" font-size="11.95517" font-family="CMBX12" font-weight="bold"><tspan y="-755.11" x="465.145">0</tspan></text>
<text xml:space="preserve" transform="matrix(1 0 -0 1 0 841.89)" font-size="11.95517" font-family="CMMI12" font-style="italic"><tspan y="-755.11" x="471.87">.</tspan></text>
<text xml:space="preserve" transform="matrix(1 0 -0 1 0 841.89)" font-size="11.95517" font-family="LMRoman12" font-weight="bold"><tspan y="-740.664" x="68.399 78.190288 85.66226 90.97036 97.70112 104.2406 112.0832 122.69939">Ausgabe:</tspan></text>
<text xml:space="preserve" transform="matrix(1 0 -0 1 0 841.89)" font-size="11.95517" font-family="LMRoman12"><tspan y="-740.664" x="130.325 139.43483 145.93845 150.49337 153.74517 163.50058 169.35861 172.61042 181.7083 189.02486 194.88289 199.49759 206.0012 212.50482">OptimaleL&#x00f6;sung</tspan></text>
<text xml:space="preserve" transform="matrix(1 0 -0 1 0 841.89)" font-size="11.95517" font-family="LMRoman12" font-weight="bold"><tspan y="-721.071" x="68.399 78.11855 85.59053 89.3325 93.07446">while</tspan></text>
<text xml:space="preserve" transform="matrix(1 0 -0 1 0 841.89)" font-size="11.95517" font-family="LMRoman10" font-weight="bold" font-style="italic"><tspan y="-721.071" x="103.095">!</tspan></text>
<text xml:space="preserve" transform="matrix(1 0 -0 1 0 841.89)" font-size="11.95517" font-family="LMRoman12" font-style="italic"><tspan y="-721.071" x="107.711 115.93616 121.91374 126.69581 130.28237 135.06444 138.05323 143.43305 148.81287 153.59494 159.8714 166.44675 171.82657 180.79296 186.77054 190.65598 194.24253 203.80666 209.78424 212.77304">BasisloesungOptimal(</tspan></text>
<text xml:space="preserve" transform="matrix(1 0 -0 1 0 841.89)" font-size="11.95517" font-family="CMBX12" font-weight="bold"><tspan y="-721.071" x="217.56">c</tspan></text>
<text xml:space="preserve" transform="matrix(1 0 -0 1 0 841.89)" font-size="11.95517" font-family="LMRoman12" font-style="italic"><tspan y="-721.071" x="223.538">)</tspan></text>
<text xml:space="preserve" transform="matrix(1 0 -0 1 0 841.89)" font-size="11.95517" font-family="LMRoman12" font-weight="bold"><tspan y="-721.071" x="232.222 239.69399">do</tspan></text>
<path transform="matrix(1,0,0,-1,74.451,224.39704)" stroke-width=".398" stroke-linecap="butt" stroke-miterlimit="10" stroke-linejoin="miter" fill="none" stroke="#000000" d="M 0 0 L 0 99.244 "/>
<text xml:space="preserve" transform="matrix(1 0 -0 1 0 841.89)" font-size="11.95517" font-family="LMRoman12"><tspan y="-706.625" x="86.356 94.808307 107.81553 115.77767 119.02948 124.89947 130.7575 135.31243 139.92713 146.43074 152.28878 155.54058 160.09549 165.29599 173.25814 177.81305 181.06485 190.82027 196.6783 199.9301">t=PivotspaltePrimal(</tspan></text>
<text xml:space="preserve" transform="matrix(1 0 -0 1 0 841.89)" font-size="11.95517" font-family="CMBX12" font-weight="bold"><tspan y="-706.625" x="204.454">c</tspan></text>
<text xml:space="preserve" transform="matrix(1 0 -0 1 0 841.89)" font-size="11.95517" font-family="LMRoman12"><tspan y="-706.625" x="210.432 214.98693">);</tspan></text>
<text xml:space="preserve" transform="matrix(1 0 -0 1 0 841.89)" font-size="11.95517" font-family="LMRoman12" font-weight="bold"><tspan y="-692.179" x="86.356 90.09797">if</tspan></text>
<text xml:space="preserve" transform="matrix(1 0 -0 1 0 841.89)" font-size="11.95517" font-family="LMRoman12" font-style="italic"><tspan y="-692.179" x="99.371 107.29728 110.88383 116.26366 122.24124 126.12667 130.90874 136.28856 142.26615 145.25495 149.14038 154.5202 162.44649 167.38397 170.97052 180.53466 186.51224 189.50104 196.67414 202.95059 205.93939 211.91698 217.2968 222.07888 226.86095 230.4475 235.82732 240.60939 244.49483">PivotspaltePrimalZulaessig(t,</tspan></text>
<text xml:space="preserve" transform="matrix(1 0 -0 1 0 841.89)" font-size="11.95517" font-family="CMBX12" font-weight="bold"><tspan y="-692.179" x="252.27">A</tspan></text>
<text xml:space="preserve" transform="matrix(1 0 -0 1 0 841.89)" font-size="11.95517" font-family="LMRoman12" font-style="italic"><tspan y="-692.179" x="262.426">)</tspan></text>
<text xml:space="preserve" transform="matrix(1 0 -0 1 0 841.89)" font-size="11.95517" font-family="LMRoman12" font-weight="bold"><tspan y="-692.179" x="271.11 276.34635 283.81834 289.95133">then</tspan></text>
<path transform="matrix(1,0,0,-1,92.408,168.48999)" stroke-width=".398" stroke-linecap="butt" stroke-miterlimit="10" stroke-linejoin="miter" fill="none" stroke="#000000" d="M 0 0 L 0 14.446 "/>
<text xml:space="preserve" transform="matrix(1 0 -0 1 0 841.89)" font-size="11.95517" font-family="LMRoman12"><tspan y="-677.733" x="104.314 112.82608 125.833309 133.79544 137.04724 142.91722 148.77526 153.33017 158.53067 163.73117 166.98297 170.23477 175.43527 183.39742 187.95233 191.20413 200.95955 206.81758 210.06938 214.6243 219.17922">s=PivotzeilePrimal(t,</tspan></text>
<text xml:space="preserve" transform="matrix(1 0 -0 1 0 841.89)" font-size="11.95517" font-family="CMBX12" font-weight="bold"><tspan y="-677.733" x="226.313">A</tspan></text>
<text xml:space="preserve" transform="matrix(1 0 -0 1 0 841.89)" font-size="11.95517" font-family="LMRoman12"><tspan y="-677.733" x="236.469">,</tspan></text>
<text xml:space="preserve" transform="matrix(1 0 -0 1 0 841.89)" font-size="11.95517" font-family="CMBX12" font-weight="bold"><tspan y="-677.733" x="243.623">b</tspan></text>
<text xml:space="preserve" transform="matrix(1 0 -0 1 0 841.89)" font-size="11.95517" font-family="LMRoman12"><tspan y="-677.733" x="251.095 255.64992">);</tspan></text>
<text xml:space="preserve" transform="matrix(1 0 -0 1 0 841.89)" font-size="11.95517" font-family="LMRoman12" font-weight="bold"><tspan y="-663.288" x="86.356 92.489009 96.23097 101.53907">else</tspan></text>
<path transform="matrix(1,0,0,-1,92.408,193.49604)" stroke-width=".398" stroke-linecap="butt" stroke-miterlimit="10" stroke-linejoin="miter" fill="none" stroke="#000000" d="M 0 0 L 0 10.56 "/>
<text xml:space="preserve" transform="matrix(1 0 -0 1 0 841.89)" font-size="11.95517" font-family="LMRoman12" font-weight="bold"><tspan y="-650.718" x="104.314 109.813388 115.94639 121.182758 128.65474 134.15412">return</tspan></text>
<text xml:space="preserve" transform="matrix(1 0 -0 1 0 841.89)" font-size="11.95517" font-family="CMBX12" font-weight="bold"><tspan y="-650.718" x="145.547">c</tspan></text>
<text xml:space="preserve" transform="matrix(1 0 -0 1 0 841.89)" font-size="7.97011" font-family="MSAM10"><tspan y="-655.057" x="151.524">&#x22ba;</tspan></text>
<text xml:space="preserve" transform="matrix(1 0 -0 1 0 841.89)" font-size="11.95517" font-family="CMBX12" font-weight="bold"><tspan y="-650.718" x="156.45">x</tspan></text>
<text xml:space="preserve" transform="matrix(1 0 -0 1 0 841.89)" font-size="11.95517" font-family="LMRoman12"><tspan y="-650.718" x="167.451 170.7028 175.3175 183.7698 190.27342 196.4662 203.28066 208.48116 213.09586 217.98552 224.48914 229.04405 234.90209 241.4057 247.58652 252.12949">istunbeschr&#x00e4;nkt;</tspan></text>
<text xml:space="preserve" transform="matrix(1 0 -0 1 0 841.89)" font-size="11.95517" font-family="LMRoman12" font-weight="bold"><tspan y="-636.272" x="86.356 92.489009 99.96098">end</tspan></text>
<text xml:space="preserve" transform="matrix(1 0 -0 1 0 841.89)" font-size="11.95517" font-family="LMRoman12"><tspan y="-621.827" x="86.356 94.318149 97.569957 103.427989 109.28602 113.840938 118.45563 123.333339 129.83695 134.39186 137.64366 142.19858 146.7535 151.30841 155.92311 163.06035 167.61527">Pivotschritt(s,t,</tspan></text>
<text xml:space="preserve" transform="matrix(1 0 -0 1 0 841.89)" font-size="11.95517" font-family="CMBX12" font-weight="bold"><tspan y="-621.827" x="174.767">A</tspan></text>
<text xml:space="preserve" transform="matrix(1 0 -0 1 0 841.89)" font-size="11.95517" font-family="LMRoman12"><tspan y="-621.827" x="184.924">,</tspan></text>
<text xml:space="preserve" transform="matrix(1 0 -0 1 0 841.89)" font-size="11.95517" font-family="CMBX12" font-weight="bold"><tspan y="-621.827" x="192.078">b</tspan></text>
<text xml:space="preserve" transform="matrix(1 0 -0 1 0 841.89)" font-size="11.95517" font-family="LMRoman12"><tspan y="-621.827" x="199.55 204.10492">);</tspan></text>
<text xml:space="preserve" transform="matrix(1 0 -0 1 0 841.89)" font-size="11.95517" font-family="LMRoman12" font-weight="bold"><tspan y="-606.384" x="68.399 74.532009 82.00398">end</tspan></text>
<text xml:space="preserve" transform="matrix(1 0 -0 1 0 841.89)" font-size="11.95517" font-family="LMRoman12"><tspan y="-591.939" x="408.668">C</tspan></text>
<text xml:space="preserve" transform="matrix(1 0 -0 1 0 841.89)" font-size="11.95517" font-family="LMMono12"><tspan y="-591.939" x="417.122 423.27894">++</tspan></text>
<text xml:space="preserve" transform="matrix(1 0 -0 1 0 841.89)" font-size="11.95517" font-family="LMRoman12"><tspan y="-591.939" x="433.328 441.7803 447.96113 454.46473 459.66523 466.81443 474.13099 477.38279 481.99748 486.5524 489.8042 496.3078 506.06324 511.92127 515.1731">Code:Listing3.1</tspan></text>
<path transform="matrix(1,0,0,-1,56.693,267.61805)" stroke-width=".797" stroke-linecap="butt" stroke-miterlimit="10" stroke-linejoin="miter" fill="none" stroke="#000000" d="M 0 0 L 481.89 0 "/>
<path transform="matrix(1,0,0,-1,56.693,288.341)" stroke-width=".797" stroke-linecap="butt" stroke-miterlimit="10" stroke-linejoin="miter" fill="none" stroke="#000000" d="M 0 0 L 481.89 0 "/>
<text xml:space="preserve" transform="matrix(1 0 -0 1 0 841.89)" font-size="11.95517" font-family="LMRoman12" font-weight="bold"><tspan y="-542.192" x="62.546 69.886478 77.35846 84.830448 91.931819 97.16818 100.91015 107.64091">Funktion</tspan></text>
<text xml:space="preserve" transform="matrix(1 0 -0 1 0 841.89)" font-size="11.95517" font-family="LMRoman12"><tspan y="-542.192" x="119.02 127.30493 133.16297 137.77767 141.02947 145.64417 148.89597 155.07678 160.27729 164.89199 171.3956 177.89922 183.75725 192.86708 199.3707 203.92562 207.17742 216.93283 222.79087 226.07852">BasisloesungOptimal(</tspan></text>
<text xml:space="preserve" transform="matrix(1 0 -0 1 0 841.89)" font-size="11.95517" font-family="CMBX12" font-weight="bold"><tspan y="-542.192" x="230.63">c</tspan></text>
<text xml:space="preserve" transform="matrix(1 0 -0 1 0 841.89)" font-size="11.95517" font-family="LMRoman12"><tspan y="-542.192" x="236.607">)</tspan></text>
<path transform="matrix(1,0,0,-1,56.693,305.078)" stroke-width=".797" stroke-linecap="butt" stroke-miterlimit="10" stroke-linejoin="miter" fill="none" stroke="#000000" d="M 0 0 L 481.89 0 "/>
<text xml:space="preserve" transform="matrix(1 0 -0 1 0 841.89)" font-size="11.95517" font-family="LMRoman12" font-weight="bold"><tspan y="-526.185" x="68.399 78.70436 85.243839 90.4802 96.613208 108.55643">Daten:</tspan></text>
<text xml:space="preserve" transform="matrix(1 0 -0 1 0 841.89)" font-size="11.95517" font-family="LMRoman12"><tspan y="-526.185" x="116.206 123.84535 127.74274 134.89192 140.09243 143.34423 146.59603">F-Zeile</tspan></text>
<text xml:space="preserve" transform="matrix(1 0 -0 1 0 841.89)" font-size="11.95517" font-family="LMRoman12" font-weight="bold"><tspan y="-511.74" x="68.399 77.22192 82.7213 89.45206 95.58506 103.05704 110.52902 114.27099 124.06227">Ergebnis:</tspan></text>
<text xml:space="preserve" transform="matrix(1 0 -0 1 0 841.89)" font-size="11.95517" font-family="LMRoman12"><tspan y="-511.74" x="131.688 136.24292 143.06932 149.25014 155.10817 158.35997 166.81227 171.36719 175.9221 182.42572 187.62622 194.78737 202.91689 208.11739 214.621 225.022 230.2225 233.4743 239.97792 249.0758 254.93384 261.43745 265.99238 269.24418 278.9996 284.85765 288.10945 297.20735 305.49229 311.3503 315.965 319.2168 323.83149 327.08329 332.9413 337.556 344.0596 350.5632 360.33058 366.1886 372.04664 376.60157 383.10517 388.9632 395.4668 401.9704 407.1709 417.5719 420.8237 425.4384">(bool)true,wenneineoptimaleBasisl&#x00f6;sungvorhandenist</tspan></text>
<text xml:space="preserve" transform="matrix(1 0 -0 1 0 841.89)" font-size="11.95517" font-family="LMRoman12" font-weight="bold"><tspan y="-492.146" x="68.399 72.51158 79.24234">for</tspan></text>
<text xml:space="preserve" transform="matrix(1 0 -0 1 0 841.89)" font-size="11.95517" font-family="CMMI12" font-style="italic"><tspan y="-492.146" x="88.629">j</tspan></text>
<text xml:space="preserve" transform="matrix(1 0 -0 1 0 841.89)" font-size="11.95517" font-family="CMR12"><tspan y="-492.146" x="97.465 109.88642">=1</tspan></text>
<text xml:space="preserve" transform="matrix(1 0 -0 1 0 841.89)" font-size="11.95517" font-family="LMRoman12" font-weight="bold"><tspan y="-492.146" x="119.928 125.16437">to</tspan></text>
<text xml:space="preserve" transform="matrix(1 0 -0 1 0 841.89)" font-size="11.95517" font-family="LMRoman12" font-style="italic"><tspan y="-492.146" x="136.067 142.64235 151.60874">n+m</tspan></text>
<text xml:space="preserve" transform="matrix(1 0 -0 1 0 841.89)" font-size="11.95517" font-family="LMRoman12" font-weight="bold"><tspan y="-492.146" x="165.676 173.14798">do</tspan></text>
<path transform="matrix(1,0,0,-1,74.451,368.523)" stroke-width=".398" stroke-linecap="butt" stroke-miterlimit="10" stroke-linejoin="miter" fill="none" stroke="#000000" d="M 0 0 L 0 14.446 "/>
<text xml:space="preserve" transform="matrix(1 0 -0 1 0 841.89)" font-size="11.95517" font-family="LMRoman12" font-weight="bold"><tspan y="-477.701" x="86.356 90.09797">if</tspan></text>
<text xml:space="preserve" transform="matrix(1 0 -0 1 0 841.89)" font-size="11.95517" font-family="CMMI12" font-style="italic"><tspan y="-477.701" x="99.371">c</tspan></text>
<text xml:space="preserve" transform="matrix(1 0 -0 1 0 841.89)" font-size="7.97011" font-family="CMMI8" font-style="italic"><tspan y="-475.907" x="104.409">j</tspan></text>
<text xml:space="preserve" transform="matrix(1 0 -0 1 0 841.89)" font-size="11.95517" font-family="CMMI12" font-style="italic"><tspan y="-477.701" x="112.112">&#x003c;</tspan></text>
<text xml:space="preserve" transform="matrix(1 0 -0 1 0 841.89)" font-size="11.95517" font-family="CMR12"><tspan y="-477.701" x="124.538">0</tspan></text>
<text xml:space="preserve" transform="matrix(1 0 -0 1 0 841.89)" font-size="11.95517" font-family="LMRoman12" font-weight="bold"><tspan y="-477.701" x="134.293 139.52936 147.00135 153.13434 168.43697 173.93634 180.06934 185.3057 192.77768 198.27706">thenreturn</tspan></text>
<text xml:space="preserve" transform="matrix(1 0 -0 1 0 841.89)" font-size="11.95517" font-family="LMRoman12"><tspan y="-477.701" x="209.675 213.2496 219.10764 222.35944 226.97414 232.17464">false;</tspan></text>
<text xml:space="preserve" transform="matrix(1 0 -0 1 0 841.89)" font-size="11.95517" font-family="LMRoman12" font-weight="bold"><tspan y="-463.255" x="68.399 74.532009 82.00398">end</tspan><tspan y="-443.662" x="68.399 73.89838 80.03138 85.267749 92.73973 98.239109">return</tspan></text>
<text xml:space="preserve" transform="matrix(1 0 -0 1 0 841.89)" font-size="11.95517" font-family="LMRoman12"><tspan y="-443.662" x="109.632 114.18692 118.74184 125.24545 130.44596">true;</tspan></text>
<text xml:space="preserve" transform="matrix(1 0 -0 1 0 841.89)" font-size="11.95517" font-family="LMRoman12"><tspan y="-429.216" x="408.668">C</tspan></text>
<text xml:space="preserve" transform="matrix(1 0 -0 1 0 841.89)" font-size="11.95517" font-family="LMMono12"><tspan y="-429.216" x="417.122 423.27894">++</tspan></text>
<text xml:space="preserve" transform="matrix(1 0 -0 1 0 841.89)" font-size="11.95517" font-family="LMRoman12"><tspan y="-429.216" x="433.328 441.7803 447.96113 454.46473 459.66523 466.81443 474.13099 477.38279 481.99748 486.5524 489.8042 496.3078 506.06324 511.92127 515.1731">Code:Listing3.2</tspan></text>
<path transform="matrix(1,0,0,-1,56.693,430.341)" stroke-width=".797" stroke-linecap="butt" stroke-miterlimit="10" stroke-linejoin="miter" fill="none" stroke="#000000" d="M 0 0 L 481.89 0 "/>
<path transform="matrix(1,0,0,-1,56.693,465.01103)" stroke-width=".797" stroke-linecap="butt" stroke-miterlimit="10" stroke-linejoin="miter" fill="none" stroke="#000000" d="M 0 0 L 481.89 0 "/>
<text xml:space="preserve" transform="matrix(1 0 -0 1 0 841.89)" font-size="11.95517" font-family="LMRoman12" font-weight="bold"><tspan y="-365.521" x="62.546 69.886478 77.35846 84.830448 91.931819 97.16818 100.91015 107.64091">Funktion</tspan></text>
<text xml:space="preserve" transform="matrix(1 0 -0 1 0 841.89)" font-size="11.95517" font-family="LMRoman12"><tspan y="-365.521" x="119.02 126.98214 130.23395 136.09198 141.95001 146.50493 151.11963 157.62325 163.48128 166.73308 171.288 176.4885 184.45064 189.00556 192.25736 202.01277 207.8708 211.15847">PivotspaltePrimal(</tspan></text>
<text xml:space="preserve" transform="matrix(1 0 -0 1 0 841.89)" font-size="11.95517" font-family="CMBX12" font-weight="bold"><tspan y="-365.521" x="215.702">c</tspan></text>
<text xml:space="preserve" transform="matrix(1 0 -0 1 0 841.89)" font-size="11.95517" font-family="LMRoman12"><tspan y="-365.521" x="221.679">)</tspan></text>
<path transform="matrix(1,0,0,-1,56.693,481.74903)" stroke-width=".797" stroke-linecap="butt" stroke-miterlimit="10" stroke-linejoin="miter" fill="none" stroke="#000000" d="M 0 0 L 481.89 0 "/>
<text xml:space="preserve" transform="matrix(1 0 -0 1 0 841.89)" font-size="11.95517" font-family="LMRoman12" font-weight="bold"><tspan y="-349.515" x="68.399 78.70436 85.243839 90.4802 96.613208 108.55643">Daten:</tspan></text>
<text xml:space="preserve" transform="matrix(1 0 -0 1 0 841.89)" font-size="11.95517" font-family="LMRoman12"><tspan y="-349.515" x="116.206 123.84535 127.74274 134.89192 140.09243 143.34423 146.59603">F-Zeile</tspan></text>
<text xml:space="preserve" transform="matrix(1 0 -0 1 0 841.89)" font-size="11.95517" font-family="LMRoman12" font-weight="bold"><tspan y="-335.069" x="68.399 77.22192 82.7213 89.45206 95.58506 103.05704 110.52902 114.27099 124.06227">Ergebnis:</tspan></text>
<text xml:space="preserve" transform="matrix(1 0 -0 1 0 841.89)" font-size="11.95517" font-family="LMRoman12"><tspan y="-335.069" x="131.688 140.1403 146.64392 154.60607 157.85787 163.72785 169.58588 174.1408 178.7555 185.25911 191.11714 194.36894 198.92386 204.12436 210.62798 213.87978 220.38339 226.88701 232.07556 238.25638">t&#x00bb;Pivotspaltenindex&#x00ab;</tspan><tspan y="-315.476" x="68.399 80.10311 85.96114 92.46475 95.71656 104.814449 111.318058 117.82167 123.6797 126.93151 131.48644 140.58432 149.03662 158.79204 162.04384">W&#x00e4;hleSpaltetmit</tspan></text>
<text xml:space="preserve" transform="matrix(1 0 -0 1 0 841.89)" font-size="11.95517" font-family="CMMI12" font-style="italic"><tspan y="-315.476" x="170.498">c</tspan></text>
<text xml:space="preserve" transform="matrix(1 0 -0 1 0 841.89)" font-size="7.97011" font-family="CMMI8" font-style="italic"><tspan y="-313.683" x="175.536">t</tspan></text>
<text xml:space="preserve" transform="matrix(1 0 -0 1 0 841.89)" font-size="11.95517" font-family="CMR12"><tspan y="-315.891" x="182.413">:</tspan><tspan y="-315.476" x="184.868">=</tspan></text>
<text xml:space="preserve" transform="matrix(1 0 -0 1 0 841.89)" font-size="11.95517" font-family="LMRoman12"><tspan y="-315.476" x="197.293 207.04842 210.30022">min</tspan></text>
<text xml:space="preserve" transform="matrix(1 0 -0 1 0 841.89)" font-size="11.95517" font-family="CMSY10" font-style="italic"><tspan y="-315.476" x="218.796">{</tspan></text>
<text xml:space="preserve" transform="matrix(1 0 -0 1 0 841.89)" font-size="11.95517" font-family="CMMI12" font-style="italic"><tspan y="-315.476" x="224.774">c</tspan></text>
<text xml:space="preserve" transform="matrix(1 0 -0 1 0 841.89)" font-size="7.97011" font-family="CMMI8" font-style="italic"><tspan y="-313.683" x="229.812">j</tspan></text>
<text xml:space="preserve" transform="matrix(1 0 -0 1 0 841.89)" font-size="11.95517" font-family="CMSY10" font-style="italic"><tspan y="-315.476" x="237.515">|</tspan></text>
<text xml:space="preserve" transform="matrix(1 0 -0 1 0 841.89)" font-size="11.95517" font-family="CMMI12" font-style="italic"><tspan y="-315.476" x="244.157">j</tspan></text>
<text xml:space="preserve" transform="matrix(1 0 -0 1 0 841.89)" font-size="11.95517" font-family="CMR12"><tspan y="-315.476" x="252.993 265.41444">=1</tspan></text>
<text xml:space="preserve" transform="matrix(1 0 -0 1 0 841.89)" font-size="11.95517" font-family="CMMI12" font-style="italic"><tspan y="-315.476" x="271.271 276.50736 281.75569 287.004 292.24037">,...,</tspan></text>
<text xml:space="preserve" transform="matrix(1 0 -0 1 0 841.89)" font-size="11.95517" font-family="LMRoman12"><tspan y="-315.476" x="297.492 303.9956 313.10545">n+m</tspan></text>
<text xml:space="preserve" transform="matrix(1 0 -0 1 0 841.89)" font-size="11.95517" font-family="CMSY10" font-style="italic"><tspan y="-315.476" x="322.856">}</tspan></text>
<text xml:space="preserve" transform="matrix(1 0 -0 1 0 841.89)" font-size="11.95517" font-family="LMRoman12"><tspan y="-315.476" x="328.834">;</tspan></text>
<text xml:space="preserve" transform="matrix(1 0 -0 1 0 841.89)" font-size="11.95517" font-family="LMRoman12" font-weight="bold"><tspan y="-295.883" x="68.399 73.89838 80.03138 85.267749 92.73973 98.239109">return</tspan></text>
<text xml:space="preserve" transform="matrix(1 0 -0 1 0 841.89)" font-size="11.95517" font-family="LMRoman12"><tspan y="-295.883" x="109.632">t</tspan></text>
<text xml:space="preserve" transform="matrix(1 0 -0 1 0 841.89)" font-size="11.95517" font-family="LMRoman12"><tspan y="-281.437" x="408.668">C</tspan></text>
<text xml:space="preserve" transform="matrix(1 0 -0 1 0 841.89)" font-size="11.95517" font-family="LMMono12"><tspan y="-281.437" x="417.122 423.27894">++</tspan></text>
<text xml:space="preserve" transform="matrix(1 0 -0 1 0 841.89)" font-size="11.95517" font-family="LMRoman12"><tspan y="-281.437" x="433.328 441.7803 447.96113 454.46473 459.66523 466.81443 474.13099 477.38279 481.99748 486.5524 489.8042 496.3078 506.06324 511.92127 515.1731">Code:Listing3.3</tspan></text>
<path transform="matrix(1,0,0,-1,56.693,578.12)" stroke-width=".797" stroke-linecap="butt" stroke-miterlimit="10" stroke-linejoin="miter" fill="none" stroke="#000000" d="M 0 0 L 481.89 0 "/>
<path transform="matrix(1,0,0,-1,56.693,612.79006)" stroke-width=".797" stroke-linecap="butt" stroke-miterlimit="10" stroke-linejoin="miter" fill="none" stroke="#000000" d="M 0 0 L 481.89 0 "/>
<text xml:space="preserve" transform="matrix(1 0 -0 1 0 841.89)" font-size="11.95517" font-family="LMRoman12" font-weight="bold"><tspan y="-217.742" x="62.546 69.886478 77.35846 84.830448 91.931819 97.16818 100.91015 107.64091">Funktion</tspan></text>
<text xml:space="preserve" transform="matrix(1 0 -0 1 0 841.89)" font-size="11.95517" font-family="LMRoman12"><tspan y="-217.742" x="119.02 126.98214 130.23395 136.09198 141.95001 146.50493 151.11963 157.62325 163.48128 166.73308 171.288 176.4885 184.45064 189.00556 192.25736 202.01277 207.8708 211.1226 218.27179 224.7754 228.0272 233.88524 239.08574 243.70044 248.31514 251.56694 257.56846 262.12339 266.6783">PivotspaltePrimalZulaessig(t,</tspan></text>
<text xml:space="preserve" transform="matrix(1 0 -0 1 0 841.89)" font-size="11.95517" font-family="CMBX12" font-weight="bold"><tspan y="-217.742" x="273.825">A</tspan></text>
<text xml:space="preserve" transform="matrix(1 0 -0 1 0 841.89)" font-size="11.95517" font-family="LMRoman12"><tspan y="-217.742" x="283.981">)</tspan></text>
<path transform="matrix(1,0,0,-1,56.693,629.528)" stroke-width=".797" stroke-linecap="butt" stroke-miterlimit="10" stroke-linejoin="miter" fill="none" stroke="#000000" d="M 0 0 L 481.89 0 "/>
<text xml:space="preserve" transform="matrix(1 0 -0 1 0 841.89)" font-size="11.95517" font-family="LMRoman12" font-weight="bold"><tspan y="-201.736" x="68.399 78.70436 85.243839 90.4802 96.613208 108.55643">Daten:</tspan></text>
<text xml:space="preserve" transform="matrix(1 0 -0 1 0 841.89)" font-size="11.95517" font-family="LMRoman12"><tspan y="-201.736" x="116.206 124.6583 131.16191 139.12406 142.37586 148.24584 154.10387 158.65879 163.85929 169.04784 172.29964 175.55144 180.75194 187.25556">t&#x00bb;Pivotzeile&#x00ab;,</tspan></text>
<text xml:space="preserve" transform="matrix(1 0 -0 1 0 841.89)" font-size="11.95517" font-family="CMBX12" font-weight="bold"><tspan y="-201.736" x="194.407">A</tspan></text>
<text xml:space="preserve" transform="matrix(1 0 -0 1 0 841.89)" font-size="11.95517" font-family="LMRoman12"><tspan y="-201.736" x="208.465 214.96862 223.74372 229.92453 235.12503 244.88045 250.08095 253.33275 258.53324 264.71406 269.26899 274.46949 280.97309 290.72853 296.58656 301.14149 305.6964 308.9482 315.12904">&#x00bb;Koe&#xfb03;zientenmatrix&#x00ab;</tspan></text>
<text xml:space="preserve" transform="matrix(1 0 -0 1 0 841.89)" font-size="11.95517" font-family="LMRoman12" font-weight="bold"><tspan y="-187.29" x="68.399 77.22192 82.7213 89.45206 95.58506 103.05704 110.52902 114.27099 124.06227">Ergebnis:</tspan></text>
<text xml:space="preserve" transform="matrix(1 0 -0 1 0 841.89)" font-size="11.95517" font-family="LMRoman12"><tspan y="-187.29" x="131.688 136.24292 143.06932 149.25014 155.10817 158.35997 166.81227 171.36719 175.9221 182.42572 187.62622 194.78737 202.91689 208.11739 214.621 225.022 231.52562 234.77742 243.8753 251.83745 255.08925 260.95927 266.8173 271.37223 275.9869 282.4905 288.34855 291.60035 296.15528 305.2412 310.4417 316.9453 320.1971 326.05516 330.66984 335.28453 338.53633 348.29176 351.54356 356.15824">(bool)true,wenndiePivotspaltezul&#x00e4;ssigist</tspan></text>
<text xml:space="preserve" transform="matrix(1 0 -0 1 0 841.89)" font-size="11.95517" font-family="LMRoman12" font-weight="bold"><tspan y="-167.697" x="68.399 72.51158 79.24234">for</tspan></text>
<text xml:space="preserve" transform="matrix(1 0 -0 1 0 841.89)" font-size="11.95517" font-family="CMMI12" font-style="italic"><tspan y="-167.697" x="88.629">i</tspan></text>
<text xml:space="preserve" transform="matrix(1 0 -0 1 0 841.89)" font-size="11.95517" font-family="CMR12"><tspan y="-167.697" x="95.943 108.364429">=1</tspan></text>
<text xml:space="preserve" transform="matrix(1 0 -0 1 0 841.89)" font-size="11.95517" font-family="LMRoman12" font-weight="bold"><tspan y="-167.697" x="118.406 123.642368">to</tspan></text>
<text xml:space="preserve" transform="matrix(1 0 -0 1 0 841.89)" font-size="11.95517" font-family="LMRoman12" font-style="italic"><tspan y="-167.697" x="134.545">m</tspan></text>
<text xml:space="preserve" transform="matrix(1 0 -0 1 0 841.89)" font-size="11.95517" font-family="LMRoman12" font-weight="bold"><tspan y="-167.697" x="148.612 156.08399">do</tspan></text>
<path transform="matrix(1,0,0,-1,74.451,692.973)" stroke-width=".398" stroke-linecap="butt" stroke-miterlimit="10" stroke-linejoin="miter" fill="none" stroke="#000000" d="M 0 0 L 0 14.446 "/>
<text xml:space="preserve" transform="matrix(1 0 -0 1 0 841.89)" font-size="11.95517" font-family="LMRoman12" font-weight="bold"><tspan y="-153.251" x="86.356 90.09797">if</tspan></text>
<text xml:space="preserve" transform="matrix(1 0 -0 1 0 841.89)" font-size="11.95517" font-family="CMMI12" font-style="italic"><tspan y="-153.251" x="99.371">a</tspan></text>
<text xml:space="preserve" transform="matrix(1 0 -0 1 0 841.89)" font-size="7.97011" font-family="CMMI8" font-style="italic"><tspan y="-151.458" x="105.516 108.40118">it</tspan></text>
<text xml:space="preserve" transform="matrix(1 0 -0 1 0 841.89)" font-size="11.95517" font-family="CMMI12" font-style="italic"><tspan y="-153.251" x="115.276">&#x003e;</tspan></text>
<text xml:space="preserve" transform="matrix(1 0 -0 1 0 841.89)" font-size="11.95517" font-family="CMR12"><tspan y="-153.251" x="127.702">0</tspan></text>
<text xml:space="preserve" transform="matrix(1 0 -0 1 0 841.89)" font-size="11.95517" font-family="LMRoman12" font-weight="bold"><tspan y="-153.251" x="137.457 142.69336 150.16535 156.29834 171.60097 177.10034 183.23334 188.4697 195.94168 201.44106">thenreturn</tspan></text>
<text xml:space="preserve" transform="matrix(1 0 -0 1 0 841.89)" font-size="11.95517" font-family="LMRoman12"><tspan y="-153.251" x="212.839 217.39392 221.94884 228.45246 233.65296">true;</tspan></text>
<text xml:space="preserve" transform="matrix(1 0 -0 1 0 841.89)" font-size="11.95517" font-family="LMRoman12" font-weight="bold"><tspan y="-138.805" x="68.399 74.532009 82.00398">end</tspan><tspan y="-119.212" x="68.399 73.89838 80.03138 85.267749 92.73973 98.239109">return</tspan></text>
<text xml:space="preserve" transform="matrix(1 0 -0 1 0 841.89)" font-size="11.95517" font-family="LMRoman12"><tspan y="-119.212" x="109.632 113.2066 119.06463 122.31644 126.93113 132.13162">false;</tspan></text>
<text xml:space="preserve" transform="matrix(1 0 -0 1 0 841.89)" font-size="11.95517" font-family="LMRoman12"><tspan y="-104.766" x="408.668">C</tspan></text>
<text xml:space="preserve" transform="matrix(1 0 -0 1 0 841.89)" font-size="11.95517" font-family="LMMono12"><tspan y="-104.766" x="417.122 423.27894">++</tspan></text>
<text xml:space="preserve" transform="matrix(1 0 -0 1 0 841.89)" font-size="11.95517" font-family="LMRoman12"><tspan y="-104.766" x="433.328 441.7803 447.96113 454.46473 459.66523 466.81443 474.13099 477.38279 481.99748 486.5524 489.8042 496.3078 506.06324 511.92127 515.1731">Code:Listing3.4</tspan></text>
<path transform="matrix(1,0,0,-1,56.693,754.791)" stroke-width=".797" stroke-linecap="butt" stroke-miterlimit="10" stroke-linejoin="miter" fill="none" stroke="#000000" d="M 0 0 L 481.89 0 "/>
<text xml:space="preserve" transform="matrix(1 0 -0 1 0 841.89)" font-size="11.95517" font-family="LMRoman12"><tspan y="-20.306" x="294.711">9</tspan></text>
</g>
</svg>
