<?xml version="1.0" encoding="UTF-8" standalone="no"?>
<!DOCTYPE svg PUBLIC "-//W3C//DTD SVG 1.1//EN" "http://www.w3.org/Graphics/SVG/1.1/DTD/svg11.dtd">
<svg xmlns="http://www.w3.org/2000/svg" xmlns:xlink="http://www.w3.org/1999/xlink" version="1.1" width="595.276pt" height="841.89pt" viewBox="0 0 595.276 841.89">
<g enable-background="new">
<path transform="matrix(1,0,0,-1,56.693,116.041019)" stroke-width=".797" stroke-linecap="butt" stroke-miterlimit="10" stroke-linejoin="miter" fill="none" stroke="#000000" d="M 0 0 L 481.89 0 "/>
<text xml:space="preserve" transform="matrix(1 0 -0 1 0 841.89)" font-size="11.95517" font-family="LMRoman12" font-weight="bold"><tspan y="-714.492" x="62.546 69.886478 77.35846 84.830448 91.931819 97.16818 100.91015 107.64091">Funktion</tspan></text>
<text xml:space="preserve" transform="matrix(1 0 -0 1 0 841.89)" font-size="11.95517" font-family="LMRoman12"><tspan y="-714.492" x="119.02 126.98214 130.23395 136.09198 141.95001 146.50493 151.70543 156.90593 160.15773 163.40953 168.61003 176.57218 181.12709 184.37889 194.13431 199.99234 203.28 207.83492 212.38983">PivotzeilePrimal(t,</tspan></text>
<text xml:space="preserve" transform="matrix(1 0 -0 1 0 841.89)" font-size="11.95517" font-family="CMBX12" font-weight="bold"><tspan y="-714.492" x="219.538">A</tspan></text>
<text xml:space="preserve" transform="matrix(1 0 -0 1 0 841.89)" font-size="11.95517" font-family="LMRoman12"><tspan y="-714.492" x="229.695">,</tspan></text>
<text xml:space="preserve" transform="matrix(1 0 -0 1 0 841.89)" font-size="11.95517" font-family="CMBX12" font-weight="bold"><tspan y="-714.492" x="236.848">b</tspan></text>
<text xml:space="preserve" transform="matrix(1 0 -0 1 0 841.89)" font-size="11.95517" font-family="LMRoman12"><tspan y="-714.492" x="244.32">)</tspan></text>
<path transform="matrix(1,0,0,-1,56.693,132.77802)" stroke-width=".797" stroke-linecap="butt" stroke-miterlimit="10" stroke-linejoin="miter" fill="none" stroke="#000000" d="M 0 0 L 481.89 0 "/>
<text xml:space="preserve" transform="matrix(1 0 -0 1 0 841.89)" font-size="11.95517" font-family="LMRoman12" font-weight="bold"><tspan y="-698.419" x="68.399 78.70436 85.243839 90.4802 96.613208 108.55643">Daten:</tspan></text>
<text xml:space="preserve" transform="matrix(1 0 -0 1 0 841.89)" font-size="11.95517" font-family="LMRoman12"><tspan y="-698.419" x="116.206 124.6583 131.16191 139.12406 142.37586 148.24584 154.10387 158.65879 163.27349 169.7771 175.63513 178.88694 183.44185 188.6304 195.13402">t&#x00bb;Pivotspalte&#x00ab;,</tspan></text>
<text xml:space="preserve" transform="matrix(1 0 -0 1 0 841.89)" font-size="11.95517" font-family="CMBX12" font-weight="bold"><tspan y="-698.419" x="202.276">A</tspan></text>
<text xml:space="preserve" transform="matrix(1 0 -0 1 0 841.89)" font-size="11.95517" font-family="LMRoman12"><tspan y="-698.419" x="216.335 222.83863 231.61373 237.79454 242.99504 252.75046 257.95097 261.20277 266.40327 272.58409 277.139 282.3395 288.8431 298.59855 304.45658 309.0115 313.56645 316.81825 322.99906 329.50267">&#x00bb;Koe&#xfb03;zientenmatrix&#x00ab;,</tspan></text>
<text xml:space="preserve" transform="matrix(1 0 -0 1 0 841.89)" font-size="11.95517" font-family="CMBX12" font-weight="bold"><tspan y="-698.419" x="336.644">b</tspan></text>
<text xml:space="preserve" transform="matrix(1 0 -0 1 0 841.89)" font-size="11.95517" font-family="LMRoman12"><tspan y="-698.419" x="348.018 354.5216 363.61949 369.4775 375.9811 381.83915 387.03965 390.29145 394.84638 400.7044 405.25935 410.45985 416.64067 422.4987 427.6992 433.88 438.43495 444.29298 448.8479">&#x00bb;Kapazit&#x00e4;tenvektor&#x00ab;</tspan></text>
<text xml:space="preserve" transform="matrix(1 0 -0 1 0 841.89)" font-size="11.95517" font-family="LMRoman12" font-weight="bold"><tspan y="-683.973" x="68.399 77.22192 82.7213 89.45206 95.58506 103.05704 110.52902 114.27099 124.06227">Ergebnis:</tspan></text>
<text xml:space="preserve" transform="matrix(1 0 -0 1 0 841.89)" font-size="11.95517" font-family="LMRoman12"><tspan y="-683.973" x="131.688 140.20009 146.7037 154.66585 157.91765 163.78763 169.64566 174.20058 179.40108 184.60158 187.85338 191.10518 196.30568 202.8093 206.0611 212.56472 219.06833 224.25688 230.4377">s&#x00bb;Pivotzeilenindex&#x00ab;</tspan><tspan y="-661.756" x="68.399 80.10311 85.96114 92.46475 95.71656 104.814449 111.96364 117.16414 120.41595 123.667758 132.76564 141.27773 151.03314 154.28495">W&#x00e4;hleZeilesmit</tspan></text>
<text xml:space="preserve" transform="matrix(1 0 -0 1 0 841.89)" font-size="7.97011" font-family="CMMI8" font-style="italic"><tspan y="-666.463" x="165.817">b</tspan></text>
<text xml:space="preserve" transform="matrix(1 0 -0 1 0 841.89)" font-size="5.97758" font-family="CMMI6" font-style="italic"><tspan y="-665.467" x="169.439">s</tspan></text>
<path transform="matrix(1,0,0,-1,163.954,177.14502)" stroke-width=".478" stroke-linecap="butt" stroke-miterlimit="10" stroke-linejoin="miter" fill="none" stroke="#000000" d="M 0 0 L 11.34 0 "/>
<text xml:space="preserve" transform="matrix(1 0 -0 1 0 841.89)" font-size="7.97011" font-family="CMMI8" font-style="italic"><tspan y="-657.633" x="163.954">a</tspan></text>
<text xml:space="preserve" transform="matrix(1 0 -0 1 0 841.89)" font-size="5.97758" font-family="CMMI6" font-style="italic"><tspan y="-656.637" x="168.452 171.94889">st</tspan></text>
<text xml:space="preserve" transform="matrix(1 0 -0 1 0 841.89)" font-size="11.95517" font-family="CMR12"><tspan y="-662.171" x="179.811">:</tspan><tspan y="-661.756" x="182.265">=</tspan></text>
<text xml:space="preserve" transform="matrix(1 0 -0 1 0 841.89)" font-size="11.95517" font-family="LMRoman12"><tspan y="-661.756" x="194.691 204.44641 207.69821">min</tspan></text>
<text xml:space="preserve" transform="matrix(1 0 -0 1 0 841.89)" font-size="11.95517" font-family="CMEX10"><tspan y="-675.026" x="216.194">&#xfffd;</tspan></text>
<text xml:space="preserve" transform="matrix(1 0 -0 1 0 841.89)" font-size="7.97011" font-family="CMMI8" font-style="italic"><tspan y="-666.677" x="227.223">b</tspan></text>
<text xml:space="preserve" transform="matrix(1 0 -0 1 0 841.89)" font-size="5.97758" font-family="CMMI6" font-style="italic"><tspan y="-665.462" x="230.845">i</tspan></text>
<path transform="matrix(1,0,0,-1,225.36,177.14502)" stroke-width=".478" stroke-linecap="butt" stroke-miterlimit="10" stroke-linejoin="miter" fill="none" stroke="#000000" d="M 0 0 L 10.51 0 "/>
<text xml:space="preserve" transform="matrix(1 0 -0 1 0 841.89)" font-size="7.97011" font-family="CMMI8" font-style="italic"><tspan y="-657.633" x="225.36">a</tspan></text>
<text xml:space="preserve" transform="matrix(1 0 -0 1 0 841.89)" font-size="5.97758" font-family="CMMI6" font-style="italic"><tspan y="-656.418" x="229.858 232.524">it</tspan></text>
<text xml:space="preserve" transform="matrix(1 0 -0 1 0 841.89)" font-size="11.95517" font-family="CMEX10"><tspan y="-675.505" x="239.058">&#xfffd;</tspan><tspan y="-668.331" x="239.058">&#xfffd;</tspan><tspan y="-661.158" x="239.058">&#xfffd;</tspan></text>
<text xml:space="preserve" transform="matrix(1 0 -0 1 0 841.89)" font-size="11.95517" font-family="CMMI12" font-style="italic"><tspan y="-661.756" x="245.036">i</tspan></text>
<text xml:space="preserve" transform="matrix(1 0 -0 1 0 841.89)" font-size="11.95517" font-family="CMR12"><tspan y="-661.756" x="252.35 264.77143">=1</tspan></text>
<text xml:space="preserve" transform="matrix(1 0 -0 1 0 841.89)" font-size="11.95517" font-family="CMMI12" font-style="italic"><tspan y="-661.756" x="270.628 275.86436 281.11268 286.361 291.59736">,...,</tspan></text>
<text xml:space="preserve" transform="matrix(1 0 -0 1 0 841.89)" font-size="11.95517" font-family="LMRoman12"><tspan y="-661.756" x="296.849 310.50184 320.25727 323.50907">mmit</tspan></text>
<text xml:space="preserve" transform="matrix(1 0 -0 1 0 841.89)" font-size="11.95517" font-family="CMMI12" font-style="italic"><tspan y="-661.756" x="331.968">a</tspan></text>
<text xml:space="preserve" transform="matrix(1 0 -0 1 0 841.89)" font-size="7.97011" font-family="CMMI8" font-style="italic"><tspan y="-659.963" x="338.113 340.9982">it</tspan></text>
<text xml:space="preserve" transform="matrix(1 0 -0 1 0 841.89)" font-size="11.95517" font-family="CMMI12" font-style="italic"><tspan y="-661.756" x="347.873">&#x003e;</tspan></text>
<text xml:space="preserve" transform="matrix(1 0 -0 1 0 841.89)" font-size="11.95517" font-family="CMR12"><tspan y="-661.756" x="360.298">0</tspan></text>
<text xml:space="preserve" transform="matrix(1 0 -0 1 0 841.89)" font-size="11.95517" font-family="CMEX10"><tspan y="-675.026" x="366.151">&#xfffd;</tspan></text>
<text xml:space="preserve" transform="matrix(1 0 -0 1 0 841.89)" font-size="11.95517" font-family="LMRoman12"><tspan y="-661.756" x="374.122">;</tspan></text>
<text xml:space="preserve" transform="matrix(1 0 -0 1 0 841.89)" font-size="11.95517" font-family="LMRoman12" font-weight="bold"><tspan y="-640.154" x="68.399 73.89838 80.03138 85.267749 92.73973 98.239109">return</tspan></text>
<text xml:space="preserve" transform="matrix(1 0 -0 1 0 841.89)" font-size="11.95517" font-family="LMRoman12"><tspan y="-640.154" x="109.632 114.2467">s;</tspan></text>
<text xml:space="preserve" transform="matrix(1 0 -0 1 0 841.89)" font-size="11.95517" font-family="LMRoman12"><tspan y="-625.708" x="408.668">C</tspan></text>
<text xml:space="preserve" transform="matrix(1 0 -0 1 0 841.89)" font-size="11.95517" font-family="LMMono12"><tspan y="-625.708" x="417.122 423.27894">++</tspan></text>
<text xml:space="preserve" transform="matrix(1 0 -0 1 0 841.89)" font-size="11.95517" font-family="LMRoman12"><tspan y="-625.708" x="433.328 441.7803 447.96113 454.46473 459.66523 466.81443 474.13099 477.38279 481.99748 486.5524 489.8042 496.3078 506.06324 511.92127 515.1731">Code:Listing3.5</tspan></text>
<path transform="matrix(1,0,0,-1,56.693,233.849)" stroke-width=".797" stroke-linecap="butt" stroke-miterlimit="10" stroke-linejoin="miter" fill="none" stroke="#000000" d="M 0 0 L 481.89 0 "/>
<path transform="matrix(1,0,0,-1,56.693,362.50703)" stroke-width=".797" stroke-linecap="butt" stroke-miterlimit="10" stroke-linejoin="miter" fill="none" stroke="#000000" d="M 0 0 L 481.89 0 "/>
<text xml:space="preserve" transform="matrix(1 0 -0 1 0 841.89)" font-size="11.95517" font-family="LMRoman12" font-weight="bold"><tspan y="-468.026" x="62.546 71.739528 77.23891 83.969669 89.94725 96.08025 103.55223 111.024219">Prozedur</tspan></text>
<text xml:space="preserve" transform="matrix(1 0 -0 1 0 841.89)" font-size="11.95517" font-family="LMRoman12"><tspan y="-468.026" x="120.405 128.36714 131.61894 137.47698 143.335 147.88993 152.50463 157.38234 163.88596 168.44087 171.69268 176.24759 180.8025 185.35742 189.97212 197.10936 201.66428">Pivotschritt(s,t,</tspan></text>
<text xml:space="preserve" transform="matrix(1 0 -0 1 0 841.89)" font-size="11.95517" font-family="CMBX12" font-weight="bold"><tspan y="-468.026" x="208.817">A</tspan></text>
<text xml:space="preserve" transform="matrix(1 0 -0 1 0 841.89)" font-size="11.95517" font-family="LMRoman12"><tspan y="-468.026" x="218.973">,</tspan></text>
<text xml:space="preserve" transform="matrix(1 0 -0 1 0 841.89)" font-size="11.95517" font-family="CMBX12" font-weight="bold"><tspan y="-468.026" x="226.127">b</tspan></text>
<text xml:space="preserve" transform="matrix(1 0 -0 1 0 841.89)" font-size="11.95517" font-family="LMRoman12"><tspan y="-468.026" x="233.599">)</tspan></text>
<path transform="matrix(1,0,0,-1,56.693,379.24403)" stroke-width=".797" stroke-linecap="butt" stroke-miterlimit="10" stroke-linejoin="miter" fill="none" stroke="#000000" d="M 0 0 L 481.89 0 "/>
<text xml:space="preserve" transform="matrix(1 0 -0 1 0 841.89)" font-size="11.95517" font-family="LMRoman12" font-weight="bold"><tspan y="-452.019" x="68.399 78.70436 85.243839 90.4802 96.613208 108.55643">Daten:</tspan></text>
<text xml:space="preserve" transform="matrix(1 0 -0 1 0 841.89)" font-size="11.95517" font-family="LMRoman12"><tspan y="-452.019" x="116.206 124.71808 131.2217 139.18384 142.43564 148.30562 154.16365 158.71857 163.91907 169.11957 172.37137 175.62317 180.81172 187.31534 194.46453 202.91683 209.42044 217.38259 220.63439 226.50437 232.3624 236.91732 241.53202 248.03563 253.89366 257.14549 261.7004 266.9009 273.4045">s&#x00bb;Pivotzeile&#x00ab;,t&#x00bb;Pivotspalte&#x00ab;,</tspan></text>
<text xml:space="preserve" transform="matrix(1 0 -0 1 0 841.89)" font-size="11.95517" font-family="CMBX12" font-weight="bold"><tspan y="-452.019" x="280.543">A</tspan></text>
<text xml:space="preserve" transform="matrix(1 0 -0 1 0 841.89)" font-size="11.95517" font-family="LMRoman12"><tspan y="-452.019" x="294.601 301.1046 309.8797 316.06053 321.26103 331.01646 336.21696 339.46876 344.66926 350.85008 355.405 360.6055 367.1091 376.86454 382.72257 387.2775 391.83244 395.08424 401.26506 407.76866">&#x00bb;Koe&#xfb03;zientenmatrix&#x00ab;,</tspan></text>
<text xml:space="preserve" transform="matrix(1 0 -0 1 0 841.89)" font-size="11.95517" font-family="CMBX12" font-weight="bold"><tspan y="-437.574" x="116.206">b</tspan></text>
<text xml:space="preserve" transform="matrix(1 0 -0 1 0 841.89)" font-size="11.95517" font-family="LMRoman12"><tspan y="-437.574" x="127.58 134.08362 143.1815 149.03954 155.54315 161.40119 166.60169 169.85349 174.4084 180.26644 184.82135 190.02185 196.20269 202.06072 207.26122 213.44203 217.99695 223.85498 228.4099">&#x00bb;Kapazit&#x00e4;tenvektor&#x00ab;</tspan></text>
<text xml:space="preserve" transform="matrix(1 0 -0 1 0 841.89)" font-size="11.95517" font-family="LMRoman12" font-weight="bold"><tspan y="-423.128" x="68.399 77.22192 82.7213 89.45206 95.58506 103.05704 110.52902 114.27099 124.06227">Ergebnis:</tspan></text>
<text xml:space="preserve" transform="matrix(1 0 -0 1 0 841.89)" font-size="11.95517" font-family="LMRoman12"><tspan y="-423.128" x="131.688 138.19162 143.39212 149.89574 158.99362 167.76873 174.27234 180.13037 184.68529 191.1889 197.38169 203.8853 210.38892 220.13239 226.636 231.8365 240.34859 247.84447 253.7025 260.20613 263.45793 268.65843 274.51646 281.02006 289.52018">neueAnordnungdesTableausT</tspan></text>
<text xml:space="preserve" transform="matrix(1 0 -0 1 0 841.89)" font-size="11.95517" font-family="LMMono12"><tspan y="-403.535" x="68.399 74.555919">/*</tspan></text>
<text xml:space="preserve" transform="matrix(1 0 -0 1 0 841.89)" font-size="11.95517" font-family="LMMono12"><tspan y="-403.535" x="86.855 93.01192 99.16883 105.325748 111.48266 117.63957 123.796489 129.9534 136.1103 148.41217 154.56908 160.72599 166.88289 173.0398 179.1967 185.3536 191.51052 197.66742 203.82433 216.12619 222.2831 228.44 234.59691 240.75382 253.06763 259.22456 265.38148 277.68336 283.84028 289.9972 296.1541 302.31105 308.46797 314.62489 320.7818 326.93873 333.09565 339.25257 345.4095">DividierePivotzeiledurchdasPivotelement</tspan></text>
<text xml:space="preserve" transform="matrix(1 0 -0 1 0 841.89)" font-size="11.95517" font-family="CMMI12" font-style="italic"><tspan y="-403.535" x="357.54">a</tspan></text>
<text xml:space="preserve" transform="matrix(1 0 -0 1 0 841.89)" font-size="7.97011" font-family="CMMI8" font-style="italic"><tspan y="-401.741" x="363.685 367.59834">st</tspan></text>
<text xml:space="preserve" transform="matrix(1 0 -0 1 0 841.89)" font-size="11.95517" font-family="LMMono12"><tspan y="-403.535" x="508.72 514.8769">*/</tspan></text>
<text xml:space="preserve" transform="matrix(1 0 -0 1 0 841.89)" font-size="11.95517" font-family="LMRoman12" font-weight="bold"><tspan y="-389.089" x="68.399 72.51158 79.24234">for</tspan></text>
<text xml:space="preserve" transform="matrix(1 0 -0 1 0 841.89)" font-size="11.95517" font-family="CMMI12" font-style="italic"><tspan y="-389.089" x="88.629">j</tspan></text>
<text xml:space="preserve" transform="matrix(1 0 -0 1 0 841.89)" font-size="11.95517" font-family="CMR12"><tspan y="-389.089" x="97.465 109.88642">=1</tspan></text>
<text xml:space="preserve" transform="matrix(1 0 -0 1 0 841.89)" font-size="11.95517" font-family="LMRoman12" font-weight="bold"><tspan y="-389.089" x="119.928 125.16437">to</tspan></text>
<text xml:space="preserve" transform="matrix(1 0 -0 1 0 841.89)" font-size="11.95517" font-family="LMRoman12" font-style="italic"><tspan y="-389.089" x="136.067 142.64235 151.60874">n+m</tspan></text>
<text xml:space="preserve" transform="matrix(1 0 -0 1 0 841.89)" font-size="11.95517" font-family="LMRoman12" font-weight="bold"><tspan y="-389.089" x="165.676 173.14798">do</tspan></text>
<path transform="matrix(1,0,0,-1,74.451,471.769)" stroke-width=".398" stroke-linecap="butt" stroke-miterlimit="10" stroke-linejoin="miter" fill="none" stroke="#000000" d="M 0 0 L 0 14.634 "/>
<text xml:space="preserve" transform="matrix(1 0 -0 1 0 841.89)" font-size="11.95517" font-family="CMMI12" font-style="italic"><tspan y="-375.24" x="86.356">a</tspan></text>
<text xml:space="preserve" transform="matrix(1 0 -0 1 0 841.89)" font-size="7.97011" font-family="CMMI8" font-style="italic"><tspan y="-373.447" x="92.501 96.41432">sj</tspan></text>
<text xml:space="preserve" transform="matrix(1 0 -0 1 0 841.89)" font-size="11.95517" font-family="CMR12"><tspan y="-375.24" x="104.12">=</tspan></text>
<text xml:space="preserve" transform="matrix(1 0 -0 1 0 841.89)" font-size="7.97011" font-family="CMMI8" font-style="italic"><tspan y="-381.323" x="117.741">a</tspan></text>
<text xml:space="preserve" transform="matrix(1 0 -0 1 0 841.89)" font-size="5.97758" font-family="CMMI6" font-style="italic"><tspan y="-380.108" x="122.239 125.735889">sj</tspan></text>
<path transform="matrix(1,0,0,-1,117.741,463.661)" stroke-width=".478" stroke-linecap="butt" stroke-miterlimit="10" stroke-linejoin="miter" fill="none" stroke="#000000" d="M 0 0 L 11.895 0 "/>
<text xml:space="preserve" transform="matrix(1 0 -0 1 0 841.89)" font-size="7.97011" font-family="CMMI8" font-style="italic"><tspan y="-371.117" x="118.018">a</tspan></text>
<text xml:space="preserve" transform="matrix(1 0 -0 1 0 841.89)" font-size="5.97758" font-family="CMMI6" font-style="italic"><tspan y="-370.121" x="122.516 126.012889">st</tspan></text>
<text xml:space="preserve" transform="matrix(1 0 -0 1 0 841.89)" font-size="11.95517" font-family="LMRoman12" font-weight="bold"><tspan y="-359.013" x="68.399 74.532009 82.00398">end</tspan></text>
<text xml:space="preserve" transform="matrix(1 0 -0 1 0 841.89)" font-size="11.95517" font-family="LMMono12"><tspan y="-339.42" x="68.399 74.555919">/*</tspan></text>
<text xml:space="preserve" transform="matrix(1 0 -0 1 0 841.89)" font-size="11.95517" font-family="LMMono12"><tspan y="-339.42" x="86.855 93.01192 99.16883 105.325748 111.48266 117.63957 123.796489 129.9534 136.1103 142.26721 148.42412 154.58103 160.73793 173.0398 179.1967 185.3536 197.65547 203.81238 209.96929 216.12619 228.44 234.59691 240.75382 246.91072 253.06763 259.22456 271.52644 283.84028 289.9972 296.1541 302.31105 308.46797 320.76985 326.92677 339.2406 345.39753 351.55445 363.8683 370.0252 376.18214 382.33906 394.64094 400.79786 406.95478 413.1117 419.26863 425.42555 431.58247 437.73939 443.8963 450.05323 462.36708 468.524 474.6809 486.9828">Multiplizieref&#x00fc;ralleZeileni(auers)dieneuePivotzeilemit-</tspan></text>
<text xml:space="preserve" transform="matrix(1 0 -0 1 0 841.89)" font-size="11.95517" font-family="CMMI12" font-style="italic"><tspan y="-339.42" x="492.882">a</tspan></text>
<text xml:space="preserve" transform="matrix(1 0 -0 1 0 841.89)" font-size="7.97011" font-family="CMMI8" font-style="italic"><tspan y="-337.626" x="499.027 501.9122">it</tspan></text>
<text xml:space="preserve" transform="matrix(1 0 -0 1 0 841.89)" font-size="11.95517" font-family="LMMono12"><tspan y="-324.974" x="86.855 93.01192 99.16883 111.4707 117.62762 123.78453 129.94144 136.09835 142.25525 148.41216 160.72597 166.88288 173.03978 185.34165 191.49855 197.65546 209.96927 216.12618 222.28308 228.43999 234.5969 240.7538 246.9107 253.06761 259.22453 265.38145 277.68333 283.84025 289.99717 296.15409 302.311 314.62486 326.92674 333.08366 339.24058 345.3975 351.5544 508.89643 515.05337">undaddieresiezurjeweiligenZeileihinzu*/</tspan></text>
<text xml:space="preserve" transform="matrix(1 0 -0 1 0 841.89)" font-size="11.95517" font-family="LMRoman12" font-weight="bold"><tspan y="-310.528" x="68.399 72.51158 79.24234">for</tspan></text>
<text xml:space="preserve" transform="matrix(1 0 -0 1 0 841.89)" font-size="11.95517" font-family="CMMI12" font-style="italic"><tspan y="-310.528" x="88.629">i</tspan></text>
<text xml:space="preserve" transform="matrix(1 0 -0 1 0 841.89)" font-size="11.95517" font-family="CMR12"><tspan y="-310.528" x="95.943 108.364429">=1</tspan></text>
<text xml:space="preserve" transform="matrix(1 0 -0 1 0 841.89)" font-size="11.95517" font-family="LMRoman12" font-weight="bold"><tspan y="-310.528" x="118.406 123.642368">to</tspan></text>
<text xml:space="preserve" transform="matrix(1 0 -0 1 0 841.89)" font-size="11.95517" font-family="LMRoman12" font-style="italic"><tspan y="-310.528" x="134.545">m</tspan></text>
<text xml:space="preserve" transform="matrix(1 0 -0 1 0 841.89)" font-size="11.95517" font-family="LMRoman12" font-weight="bold"><tspan y="-310.528" x="148.612 156.08399">do</tspan></text>
<path transform="matrix(1,0,0,-1,74.451,617.688)" stroke-width=".398" stroke-linecap="butt" stroke-miterlimit="10" stroke-linejoin="miter" fill="none" stroke="#000000" d="M 0 0 L 0 81.992 "/>
<text xml:space="preserve" transform="matrix(1 0 -0 1 0 841.89)" font-size="11.95517" font-family="LMRoman12" font-weight="bold"><tspan y="-296.082" x="86.356 90.09797">if</tspan></text>
<text xml:space="preserve" transform="matrix(1 0 -0 1 0 841.89)" font-size="11.95517" font-family="CMMI12" font-style="italic"><tspan y="-296.082" x="99.371">i</tspan></text>
<text xml:space="preserve" transform="matrix(1 0 -0 1 0 841.89)" font-size="11.95517" font-family="CMSY10" font-style="italic"><tspan y="-296.082" x="106.686">&#x0338;</tspan></text>
<text xml:space="preserve" transform="matrix(1 0 -0 1 0 841.89)" font-size="11.95517" font-family="CMR12"><tspan y="-296.082" x="106.686">=</tspan></text>
<text xml:space="preserve" transform="matrix(1 0 -0 1 0 841.89)" font-size="11.95517" font-family="CMMI12" font-style="italic"><tspan y="-296.082" x="119.111">s</tspan></text>
<text xml:space="preserve" transform="matrix(1 0 -0 1 0 841.89)" font-size="11.95517" font-family="LMRoman12" font-weight="bold"><tspan y="-296.082" x="128.527 133.76335 141.23534 147.36833">then</tspan></text>
<path transform="matrix(1,0,0,-1,92.408,602.24606)" stroke-width=".398" stroke-linecap="butt" stroke-miterlimit="10" stroke-linejoin="miter" fill="none" stroke="#000000" d="M 0 0 L 0 52.105 "/>
<text xml:space="preserve" transform="matrix(1 0 -0 1 0 841.89)" font-size="11.95517" font-family="LMRoman12" font-weight="bold"><tspan y="-281.636" x="104.314 108.42658 115.15734">for</tspan></text>
<text xml:space="preserve" transform="matrix(1 0 -0 1 0 841.89)" font-size="11.95517" font-family="CMMI12" font-style="italic"><tspan y="-281.636" x="124.543">j</tspan></text>
<text xml:space="preserve" transform="matrix(1 0 -0 1 0 841.89)" font-size="11.95517" font-family="CMR12"><tspan y="-281.636" x="133.38 145.80142">=1</tspan></text>
<text xml:space="preserve" transform="matrix(1 0 -0 1 0 841.89)" font-size="11.95517" font-family="LMRoman12" font-weight="bold"><tspan y="-281.636" x="155.842 161.07836">to</tspan></text>
<text xml:space="preserve" transform="matrix(1 0 -0 1 0 841.89)" font-size="11.95517" font-family="LMRoman12" font-style="italic"><tspan y="-281.636" x="171.982 178.55735 187.52373">n+m</tspan></text>
<text xml:space="preserve" transform="matrix(1 0 -0 1 0 841.89)" font-size="11.95517" font-family="LMRoman12" font-weight="bold"><tspan y="-281.636" x="201.591 209.06299">do</tspan></text>
<path transform="matrix(1,0,0,-1,110.366,574.90408)" stroke-width=".398" stroke-linecap="butt" stroke-miterlimit="10" stroke-linejoin="miter" fill="none" stroke="#000000" d="M 0 0 L 0 10.317 "/>
<text xml:space="preserve" transform="matrix(1 0 -0 1 0 841.89)" font-size="11.95517" font-family="CMMI12" font-style="italic"><tspan y="-270.329" x="122.271">a</tspan></text>
<text xml:space="preserve" transform="matrix(1 0 -0 1 0 841.89)" font-size="7.97011" font-family="CMMI8" font-style="italic"><tspan y="-268.535" x="128.416 131.30118">ij</tspan></text>
<text xml:space="preserve" transform="matrix(1 0 -0 1 0 841.89)" font-size="11.95517" font-family="CMR12"><tspan y="-270.329" x="139.002">=</tspan></text>
<text xml:space="preserve" transform="matrix(1 0 -0 1 0 841.89)" font-size="11.95517" font-family="CMMI12" font-style="italic"><tspan y="-270.329" x="151.428">a</tspan></text>
<text xml:space="preserve" transform="matrix(1 0 -0 1 0 841.89)" font-size="7.97011" font-family="CMMI8" font-style="italic"><tspan y="-268.535" x="157.573 160.45818">ij</tspan></text>
<text xml:space="preserve" transform="matrix(1 0 -0 1 0 841.89)" font-size="11.95517" font-family="CMSY10" font-style="italic"><tspan y="-270.329" x="167.494">&#x2212;</tspan></text>
<text xml:space="preserve" transform="matrix(1 0 -0 1 0 841.89)" font-size="11.95517" font-family="CMMI12" font-style="italic"><tspan y="-270.329" x="179.45">a</tspan></text>
<text xml:space="preserve" transform="matrix(1 0 -0 1 0 841.89)" font-size="7.97011" font-family="CMMI8" font-style="italic"><tspan y="-268.535" x="185.595 188.48018">it</tspan></text>
<text xml:space="preserve" transform="matrix(1 0 -0 1 0 841.89)" font-size="11.95517" font-family="CMSY10" font-style="italic"><tspan y="-270.329" x="194.691">&#x00b7;</tspan></text>
<text xml:space="preserve" transform="matrix(1 0 -0 1 0 841.89)" font-size="11.95517" font-family="CMMI12" font-style="italic"><tspan y="-270.329" x="200.668">a</tspan></text>
<text xml:space="preserve" transform="matrix(1 0 -0 1 0 841.89)" font-size="7.97011" font-family="CMMI8" font-style="italic"><tspan y="-268.535" x="206.813 210.72634">sj</tspan></text>
<text xml:space="preserve" transform="matrix(1 0 -0 1 0 841.89)" font-size="11.95517" font-family="LMRoman12" font-weight="bold"><tspan y="-255.883" x="104.314 110.44701 117.91899">end</tspan></text>
<text xml:space="preserve" transform="matrix(1 0 -0 1 0 841.89)" font-size="11.95517" font-family="CMMI12" font-style="italic"><tspan y="-241.437" x="104.314">b</tspan></text>
<text xml:space="preserve" transform="matrix(1 0 -0 1 0 841.89)" font-size="7.97011" font-family="CMMI8" font-style="italic"><tspan y="-239.644" x="109.291">i</tspan></text>
<text xml:space="preserve" transform="matrix(1 0 -0 1 0 841.89)" font-size="11.95517" font-family="CMR12"><tspan y="-241.437" x="115.993">=</tspan></text>
<text xml:space="preserve" transform="matrix(1 0 -0 1 0 841.89)" font-size="11.95517" font-family="CMMI12" font-style="italic"><tspan y="-241.437" x="128.418">b</tspan></text>
<text xml:space="preserve" transform="matrix(1 0 -0 1 0 841.89)" font-size="7.97011" font-family="CMMI8" font-style="italic"><tspan y="-239.644" x="133.395">i</tspan></text>
<text xml:space="preserve" transform="matrix(1 0 -0 1 0 841.89)" font-size="11.95517" font-family="CMSY10" font-style="italic"><tspan y="-241.437" x="139.433">&#x2212;</tspan></text>
<text xml:space="preserve" transform="matrix(1 0 -0 1 0 841.89)" font-size="11.95517" font-family="CMMI12" font-style="italic"><tspan y="-241.437" x="151.388">a</tspan></text>
<text xml:space="preserve" transform="matrix(1 0 -0 1 0 841.89)" font-size="7.97011" font-family="CMMI8" font-style="italic"><tspan y="-239.644" x="157.533 160.41819">it</tspan></text>
<text xml:space="preserve" transform="matrix(1 0 -0 1 0 841.89)" font-size="11.95517" font-family="CMSY10" font-style="italic"><tspan y="-241.437" x="166.629">&#x00b7;</tspan></text>
<text xml:space="preserve" transform="matrix(1 0 -0 1 0 841.89)" font-size="11.95517" font-family="CMMI12" font-style="italic"><tspan y="-241.437" x="172.607">b</tspan></text>
<text xml:space="preserve" transform="matrix(1 0 -0 1 0 841.89)" font-size="7.97011" font-family="CMMI8" font-style="italic"><tspan y="-239.644" x="177.584">s</tspan></text>
<text xml:space="preserve" transform="matrix(1 0 -0 1 0 841.89)" font-size="11.95517" font-family="LMRoman12" font-weight="bold"><tspan y="-228.535" x="86.356 92.489009 99.96098">end</tspan><tspan y="-213.093" x="68.399 74.532009 82.00398">end</tspan><tspan y="-193.5" x="68.399 72.51158 79.24234">for</tspan></text>
<text xml:space="preserve" transform="matrix(1 0 -0 1 0 841.89)" font-size="11.95517" font-family="CMMI12" font-style="italic"><tspan y="-193.5" x="88.629">j</tspan></text>
<text xml:space="preserve" transform="matrix(1 0 -0 1 0 841.89)" font-size="11.95517" font-family="CMR12"><tspan y="-193.5" x="97.465 109.88642">=1</tspan></text>
<text xml:space="preserve" transform="matrix(1 0 -0 1 0 841.89)" font-size="11.95517" font-family="LMRoman12" font-weight="bold"><tspan y="-193.5" x="119.928 125.16437">to</tspan></text>
<text xml:space="preserve" transform="matrix(1 0 -0 1 0 841.89)" font-size="11.95517" font-family="LMRoman12" font-style="italic"><tspan y="-193.5" x="136.067 142.64235 151.60874">n+m</tspan></text>
<text xml:space="preserve" transform="matrix(1 0 -0 1 0 841.89)" font-size="11.95517" font-family="LMRoman12" font-weight="bold"><tspan y="-193.5" x="165.676 173.14798">do</tspan></text>
<path transform="matrix(1,0,0,-1,74.451,663.04006)" stroke-width=".398" stroke-linecap="butt" stroke-miterlimit="10" stroke-linejoin="miter" fill="none" stroke="#000000" d="M 0 0 L 0 10.317 "/>
<text xml:space="preserve" transform="matrix(1 0 -0 1 0 841.89)" font-size="11.95517" font-family="CMMI12" font-style="italic"><tspan y="-182.193" x="86.356">c</tspan></text>
<text xml:space="preserve" transform="matrix(1 0 -0 1 0 841.89)" font-size="7.97011" font-family="CMMI8" font-style="italic"><tspan y="-180.399" x="91.394">j</tspan></text>
<text xml:space="preserve" transform="matrix(1 0 -0 1 0 841.89)" font-size="11.95517" font-family="CMR12"><tspan y="-182.193" x="99.097">=</tspan></text>
<text xml:space="preserve" transform="matrix(1 0 -0 1 0 841.89)" font-size="11.95517" font-family="CMMI12" font-style="italic"><tspan y="-182.193" x="111.523">c</tspan></text>
<text xml:space="preserve" transform="matrix(1 0 -0 1 0 841.89)" font-size="7.97011" font-family="CMMI8" font-style="italic"><tspan y="-180.399" x="116.561">j</tspan></text>
<text xml:space="preserve" transform="matrix(1 0 -0 1 0 841.89)" font-size="11.95517" font-family="CMSY10" font-style="italic"><tspan y="-182.193" x="123.599">&#x2212;</tspan></text>
<text xml:space="preserve" transform="matrix(1 0 -0 1 0 841.89)" font-size="11.95517" font-family="CMMI12" font-style="italic"><tspan y="-182.193" x="135.555">c</tspan></text>
<text xml:space="preserve" transform="matrix(1 0 -0 1 0 841.89)" font-size="7.97011" font-family="CMMI8" font-style="italic"><tspan y="-180.399" x="140.593">t</tspan></text>
<text xml:space="preserve" transform="matrix(1 0 -0 1 0 841.89)" font-size="11.95517" font-family="CMSY10" font-style="italic"><tspan y="-182.193" x="146.805">&#x00b7;</tspan></text>
<text xml:space="preserve" transform="matrix(1 0 -0 1 0 841.89)" font-size="11.95517" font-family="CMMI12" font-style="italic"><tspan y="-182.193" x="152.783">a</tspan></text>
<text xml:space="preserve" transform="matrix(1 0 -0 1 0 841.89)" font-size="7.97011" font-family="CMMI8" font-style="italic"><tspan y="-180.399" x="158.928 162.84133">sj</tspan></text>
<text xml:space="preserve" transform="matrix(1 0 -0 1 0 841.89)" font-size="11.95517" font-family="LMRoman12" font-weight="bold"><tspan y="-167.747" x="68.399 74.532009 82.00398">end</tspan><tspan y="-148.154" x="68.399 73.89838 80.03138 85.267749 92.73973 98.239109">return</tspan></text>
<text xml:space="preserve" transform="matrix(1 0 -0 1 0 841.89)" font-size="11.95517" font-family="LMRoman12"><tspan y="-148.154" x="109.632 118.084308">T;</tspan></text>
<text xml:space="preserve" transform="matrix(1 0 -0 1 0 841.89)" font-size="11.95517" font-family="LMRoman12"><tspan y="-133.708" x="408.668">C</tspan></text>
<text xml:space="preserve" transform="matrix(1 0 -0 1 0 841.89)" font-size="11.95517" font-family="LMMono12"><tspan y="-133.708" x="417.122 423.27894">++</tspan></text>
<text xml:space="preserve" transform="matrix(1 0 -0 1 0 841.89)" font-size="11.95517" font-family="LMRoman12"><tspan y="-133.708" x="433.328 441.7803 447.96113 454.46473 459.66523 466.81443 474.13099 477.38279 481.99748 486.5524 489.8042 496.3078 506.06324 511.92127 515.1731">Code:Listing3.6</tspan></text>
<path transform="matrix(1,0,0,-1,56.693,725.849)" stroke-width=".797" stroke-linecap="butt" stroke-miterlimit="10" stroke-linejoin="miter" fill="none" stroke="#000000" d="M 0 0 L 481.89 0 "/>
<text xml:space="preserve" transform="matrix(1 0 -0 1 0 841.89)" font-size="11.95517" font-family="LMRoman12"><tspan y="-20.306" x="291.785 297.64305">10</tspan></text>
</g>
</svg>
