<?xml version="1.0" encoding="UTF-8" standalone="no"?>
<!DOCTYPE svg PUBLIC "-//W3C//DTD SVG 1.1//EN" "http://www.w3.org/Graphics/SVG/1.1/DTD/svg11.dtd">
<svg xmlns="http://www.w3.org/2000/svg" xmlns:xlink="http://www.w3.org/1999/xlink" version="1.1" width="595.276pt" height="841.89pt" viewBox="0 0 595.276 841.89">
<g enable-background="new">
<text xml:space="preserve" transform="matrix(1 0 -0 1 0 841.89)" font-size="11.95517" font-family="LMRoman12"><tspan y="-773.242" x="242.166 249.48256 252.73436 257.34907 261.904 265.1558 271.6594 281.41484 287.27287 290.52467">Listing3.5</tspan></text>
<text xml:space="preserve" transform="matrix(1 0 -0 1 0 841.89)" font-size="11.95517" font-family="LMRoman12"><tspan y="-773.242" x="296.37">:</tspan></text>
<text xml:space="preserve" transform="matrix(1 0 -0 1 0 841.89)" font-size="11.95517" font-family="LMRoman12"><tspan y="-773.242" x="303.524 311.48616 314.73796 320.59599 326.454 331.00895 336.20945 341.40995 344.66175 347.91355">Pivotzeile</tspan></text>
<path transform="matrix(1,0,0,-1,56.693,72.83301)" stroke-width=".398" stroke-linecap="butt" stroke-miterlimit="10" stroke-linejoin="miter" fill="none" stroke="#000000" d="M 0 0 L 481.89 0 "/>
<text xml:space="preserve" transform="matrix(1 0 -0 1 0 841.89)" font-size="5.97758" font-family="LMRoman6"><tspan y="-757.501" x="48.059">1</tspan></text>
<text fill="#008000" xml:space="preserve" transform="matrix(1 0 -0 1 0 841.89)" font-size="9.96264" font-family="LMMono10"><tspan y="-757.501" x="57.39 63.31777">//</tspan></text>
<text fill="#008000" xml:space="preserve" transform="matrix(1 0 -0 1 0 841.89)" font-size="9.96264" font-family="LMMono10"><tspan y="-757.501" x="70.197 76.37383 82.55067 88.737468 94.9143 101.1011 107.27793 113.46473 119.64156 125.82836">Pivotzeile</tspan></text>
<text fill="#008000" xml:space="preserve" transform="matrix(1 0 -0 1 0 841.89)" font-size="9.96264" font-family="LMMono10"><tspan y="-757.501" x="139.229 145.39589 151.57274 157.73963 163.91648 170.08336 176.26021 182.4271 188.60395">bestimmen</tspan></text>
<text xml:space="preserve" transform="matrix(1 0 -0 1 0 841.89)" font-size="5.97758" font-family="LMRoman6"><tspan y="-745.546" x="48.059">2</tspan></text>
<text fill="#0000ff" xml:space="preserve" transform="matrix(1 0 -0 1 0 841.89)" font-size="9.96264" font-family="LMMono10"><tspan y="-745.546" x="57.478 63.48547 69.50291">int</tspan></text>
<text xml:space="preserve" transform="matrix(1 0 -0 1 0 841.89)" font-size="9.96264" font-family="LMMono10"><tspan y="-745.546" x="82.714 88.85098 94.99793 101.14488 107.29183 113.43878 119.58573 126.43006 132.35784 139.25199 145.45871 151.65547 157.8622 164.05896 170.26569 176.46245 182.66918 188.86594 195.07266 201.26943 207.47615 213.67292 220.57703 226.5048">Simplex::indexPivotRow()</tspan></text>
<text xml:space="preserve" transform="matrix(1 0 -0 1 0 841.89)" font-size="5.97758" font-family="LMRoman6"><tspan y="-733.59" x="48.059">3</tspan></text>
<text xml:space="preserve" transform="matrix(1 0 -0 1 0 841.89)" font-size="9.96264" font-family="LMMono10"><tspan y="-733.59" x="57.216">{</tspan></text>
<text xml:space="preserve" transform="matrix(1 0 -0 1 0 841.89)" font-size="5.97758" font-family="LMRoman6"><tspan y="-721.635" x="48.059">4</tspan></text>
<text fill="#0000ff" xml:space="preserve" transform="matrix(1 0 -0 1 0 841.89)" font-size="9.96264" font-family="LMMono10"><tspan y="-721.635" x="82.696 88.82302 94.95004 101.077068 107.20409 113.33111">double</tspan></text>
<text xml:space="preserve" transform="matrix(1 0 -0 1 0 841.89)" font-size="9.96264" font-family="LMMono10"><tspan y="-721.635" x="126.519 132.52648 138.54392 145.0794 157.63234 170.18527 176.46175 189.28368 195.29116 201.3086 207.84409 220.39702 232.94995 239.22643 252.19779 258.3746 264.54148 270.7183 276.88517 283.06199 289.22886 295.40568 301.5825 308.27738 320.8303 333.3832 339.65968 352.631 358.79789 364.9747 371.14158 377.3184 383.48527 389.66209 395.82896 402.00578 408.70066 421.25358 433.97587 439.90364">tmp{0},min{0},index_min{0},index_tmp{0};</tspan></text>
<text xml:space="preserve" transform="matrix(1 0 -0 1 0 841.89)" font-size="5.97758" font-family="LMRoman6"><tspan y="-709.68" x="48.059">5</tspan></text>
<text fill="#0000ff" xml:space="preserve" transform="matrix(1 0 -0 1 0 841.89)" font-size="9.96264" font-family="LMMono10"><tspan y="-709.68" x="82.636 88.70325 94.77049 100.83774">bool</tspan></text>
<text xml:space="preserve" transform="matrix(1 0 -0 1 0 841.89)" font-size="9.96264" font-family="LMMono10"><tspan y="-709.68" x="114.053 120.15014 126.25723 132.35437 138.46147 145.08664">first{</tspan></text>
<text fill="#0000ff" xml:space="preserve" transform="matrix(1 0 -0 1 0 841.89)" font-size="9.96264" font-family="LMMono10"><tspan y="-709.68" x="157.954 164.02126 170.08852 176.15578">true</tspan></text>
<text xml:space="preserve" transform="matrix(1 0 -0 1 0 841.89)" font-size="9.96264" font-family="LMMono10"><tspan y="-709.68" x="189.197 195.12479">};</tspan></text>
<text xml:space="preserve" transform="matrix(1 0 -0 1 0 841.89)" font-size="5.97758" font-family="LMRoman6"><tspan y="-697.725" x="48.059">6</tspan></text>
<text fill="#0000ff" xml:space="preserve" transform="matrix(1 0 -0 1 0 841.89)" font-size="9.96264" font-family="LMMono10"><tspan y="-697.725" x="82.584 88.59147 94.6089">for</tspan></text>
<text xml:space="preserve" transform="matrix(1 0 -0 1 0 841.89)" font-size="9.96264" font-family="LMMono10"><tspan y="-697.725" x="107.428">(</tspan></text>
<text fill="#0000ff" xml:space="preserve" transform="matrix(1 0 -0 1 0 841.89)" font-size="9.96264" font-family="LMMono10"><tspan y="-697.725" x="113.966 119.97347 125.990909">int</tspan></text>
<text xml:space="preserve" transform="matrix(1 0 -0 1 0 841.89)" font-size="9.96264" font-family="LMMono10"><tspan y="-697.725" x="138.811 151.36394 164.08625 170.01403 182.74628 195.46858 208.161 214.22826 220.29552 226.36278 232.95806 245.68036 251.60814 258.06394 264.3404">i=0;i&#x003c;rows;++i)</tspan></text>
<text xml:space="preserve" transform="matrix(1 0 -0 1 0 841.89)" font-size="5.97758" font-family="LMRoman6"><tspan y="-685.77" x="48.059">7</tspan></text>
<text xml:space="preserve" transform="matrix(1 0 -0 1 0 841.89)" font-size="9.96264" font-family="LMMono10"><tspan y="-685.77" x="82.322">{</tspan></text>
<text xml:space="preserve" transform="matrix(1 0 -0 1 0 841.89)" font-size="5.97758" font-family="LMRoman6"><tspan y="-673.815" x="48.059">8</tspan></text>
<text fill="#0000ff" xml:space="preserve" transform="matrix(1 0 -0 1 0 841.89)" font-size="9.96264" font-family="LMMono10"><tspan y="-673.815" x="107.603 113.53077">if</tspan></text>
<text xml:space="preserve" transform="matrix(1 0 -0 1 0 841.89)" font-size="9.96264" font-family="LMMono10"><tspan y="-673.815" x="126.258 132.53447 138.81095 145.08742 151.53325 157.46103 164.31534 170.48223 176.63915 182.79607 188.96295 195.11988 201.2768 207.44368 214.12862 226.85092 239.40386 245.33164">(A[i][pivotCol]&#x003e;0)</tspan></text>
<text xml:space="preserve" transform="matrix(1 0 -0 1 0 841.89)" font-size="5.97758" font-family="LMRoman6"><tspan y="-661.859" x="48.059">9</tspan></text>
<text xml:space="preserve" transform="matrix(1 0 -0 1 0 841.89)" font-size="9.96264" font-family="LMMono10"><tspan y="-661.859" x="107.428">{</tspan></text>
<text xml:space="preserve" transform="matrix(1 0 -0 1 0 841.89)" font-size="5.97758" font-family="LMRoman6"><tspan y="-649.904" x="44.406 48.0583">10</tspan></text>
<text fill="#0000ff" xml:space="preserve" transform="matrix(1 0 -0 1 0 841.89)" font-size="9.96264" font-family="LMMono10"><tspan y="-649.904" x="132.709 138.63678">if</tspan></text>
<text xml:space="preserve" transform="matrix(1 0 -0 1 0 841.89)" font-size="9.96264" font-family="LMMono10"><tspan y="-649.904" x="151.364 157.98917 164.0863 170.1934 176.29055 182.39765 189.02281">(first)</tspan></text>
<text xml:space="preserve" transform="matrix(1 0 -0 1 0 841.89)" font-size="5.97758" font-family="LMRoman6"><tspan y="-637.949" x="44.406 48.0583">11</tspan></text>
<text xml:space="preserve" transform="matrix(1 0 -0 1 0 841.89)" font-size="9.96264" font-family="LMMono10"><tspan y="-637.949" x="132.534">{</tspan></text>
<text xml:space="preserve" transform="matrix(1 0 -0 1 0 841.89)" font-size="5.97758" font-family="LMRoman6"><tspan y="-625.994" x="44.406 48.0583">12</tspan></text>
<text xml:space="preserve" transform="matrix(1 0 -0 1 0 841.89)" font-size="9.96264" font-family="LMMono10"><tspan y="-625.994" x="157.902 163.90947 169.92691 182.73888 195.29181 201.56829 207.84476 214.12123 220.3977 232.95064 245.50357 251.78005 258.05653 264.5123 270.44007 277.29435 283.4612 289.6181 295.775 301.94187 308.09877 314.25566 320.42253 327.2768 333.20457 339.6504">min=(b[i]/A[i][pivotCol]);</tspan></text>
<text xml:space="preserve" transform="matrix(1 0 -0 1 0 841.89)" font-size="5.97758" font-family="LMRoman6"><tspan y="-614.039" x="44.406 48.0583">13</tspan></text>
<text xml:space="preserve" transform="matrix(1 0 -0 1 0 841.89)" font-size="9.96264" font-family="LMMono10"><tspan y="-614.039" x="158.059 164.22589 170.40274 176.56963 182.74648 188.91336 195.09021 201.2571 207.43395 220.4053 232.95824 239.23471">index_min=i;</tspan></text>
<text xml:space="preserve" transform="matrix(1 0 -0 1 0 841.89)" font-size="5.97758" font-family="LMRoman6"><tspan y="-602.084" x="44.406 48.0583">14</tspan></text>
<text xml:space="preserve" transform="matrix(1 0 -0 1 0 841.89)" font-size="9.96264" font-family="LMMono10"><tspan y="-602.084" x="157.989 164.08614 170.19324 176.29038 182.39748 195.2991">first=</tspan></text>
<text fill="#0000ff" xml:space="preserve" transform="matrix(1 0 -0 1 0 841.89)" font-size="9.96264" font-family="LMMono10"><tspan y="-602.084" x="208.201 214.29814 220.40525 226.50238 232.60948">false</tspan></text>
<text xml:space="preserve" transform="matrix(1 0 -0 1 0 841.89)" font-size="9.96264" font-family="LMMono10"><tspan y="-602.084" x="239.235">;</tspan></text>
<text xml:space="preserve" transform="matrix(1 0 -0 1 0 841.89)" font-size="5.97758" font-family="LMRoman6"><tspan y="-590.128" x="44.406 48.0583">15</tspan></text>
<text xml:space="preserve" transform="matrix(1 0 -0 1 0 841.89)" font-size="9.96264" font-family="LMMono10"><tspan y="-590.128" x="132.534">}</tspan></text>
<text xml:space="preserve" transform="matrix(1 0 -0 1 0 841.89)" font-size="5.97758" font-family="LMRoman6"><tspan y="-578.173" x="44.406 48.0583">16</tspan></text>
<text xml:space="preserve" transform="matrix(1 0 -0 1 0 841.89)" font-size="9.96264" font-family="LMMono10"><tspan y="-578.173" x="132.796 138.80348 144.82093 157.63289 170.18582 176.4623 182.73877 189.01525 195.29172 207.84465 220.39759 226.67406 232.95053 239.40633 245.3341 252.18842 258.3553 264.51219 270.66908 276.83595 282.99284 289.14973 295.3166 302.17088 308.09864 314.54447">tmp=(b[i]/A[i][pivotCol]);</tspan></text>
<text xml:space="preserve" transform="matrix(1 0 -0 1 0 841.89)" font-size="5.97758" font-family="LMRoman6"><tspan y="-566.218" x="44.406 48.0583">17</tspan></text>
<text xml:space="preserve" transform="matrix(1 0 -0 1 0 841.89)" font-size="9.96264" font-family="LMMono10"><tspan y="-566.218" x="132.953 139.11989 145.29674 151.46363 157.64048 163.80736 169.9842 176.1511 182.32794 195.2993 207.85224 214.12871">index_tmp=i;</tspan></text>
<text xml:space="preserve" transform="matrix(1 0 -0 1 0 841.89)" font-size="5.97758" font-family="LMRoman6"><tspan y="-554.263" x="44.406 48.0583">18</tspan></text>
<text xml:space="preserve" transform="matrix(1 0 -0 1 0 841.89)" font-size="9.96264" font-family="LMMono10"><tspan y="-554.263" x="132.953 139.11989 145.29674 151.46363 157.64048 163.80736 169.9842 176.1511 182.32794 195.2993 208.11127 214.12871 220.13619 233.12747 245.77007 251.7875 257.79499 270.61689 283.58824 289.7551 295.93193 302.0988 308.2756 314.44248 320.6193 326.78617 332.96299 345.93434 358.90568 365.07255 371.24937 377.41624 383.59306 389.75993 395.93675 402.1036 408.28044 414.9753">index_min=tmp&#x003c;min?index_tmp:index_min;</tspan></text>
<text xml:space="preserve" transform="matrix(1 0 -0 1 0 841.89)" font-size="5.97758" font-family="LMRoman6"><tspan y="-542.308" x="44.406 48.0583">19</tspan></text>
<text xml:space="preserve" transform="matrix(1 0 -0 1 0 841.89)" font-size="9.96264" font-family="LMMono10"><tspan y="-542.308" x="107.428">}</tspan></text>
<text xml:space="preserve" transform="matrix(1 0 -0 1 0 841.89)" font-size="5.97758" font-family="LMRoman6"><tspan y="-530.353" x="44.406 48.0583">20</tspan></text>
<text xml:space="preserve" transform="matrix(1 0 -0 1 0 841.89)" font-size="9.96264" font-family="LMMono10"><tspan y="-530.353" x="82.322">}</tspan></text>
<text xml:space="preserve" transform="matrix(1 0 -0 1 0 841.89)" font-size="5.97758" font-family="LMRoman6"><tspan y="-518.397" x="44.406 48.0583">21</tspan></text>
<text fill="#0000ff" xml:space="preserve" transform="matrix(1 0 -0 1 0 841.89)" font-size="9.96264" font-family="LMMono10"><tspan y="-518.397" x="82.696 88.82302 94.95004 101.077068 107.20409 113.33111">return</tspan></text>
<text xml:space="preserve" transform="matrix(1 0 -0 1 0 841.89)" font-size="9.96264" font-family="LMMono10"><tspan y="-518.397" x="126.676 132.84288 139.01973 145.18662 151.36347 157.53035 163.7072 169.87409 176.05094 182.74584">index_min;</tspan></text>
<text xml:space="preserve" transform="matrix(1 0 -0 1 0 841.89)" font-size="5.97758" font-family="LMRoman6"><tspan y="-506.442" x="44.406 48.0583">22</tspan></text>
<text xml:space="preserve" transform="matrix(1 0 -0 1 0 841.89)" font-size="9.96264" font-family="LMMono10"><tspan y="-506.442" x="57.216">}</tspan></text>
<path transform="matrix(1,0,0,-1,56.693,342.22203)" stroke-width=".398" stroke-linecap="butt" stroke-miterlimit="10" stroke-linejoin="miter" fill="none" stroke="#000000" d="M 0 0 L 481.89 0 "/>
<text xml:space="preserve" transform="matrix(1 0 -0 1 0 841.89)" font-size="11.95517" font-family="LMRoman12"><tspan y="-459.293" x="236.768 244.08457 247.33637 251.95107 256.50599 259.75779 266.26139 276.0168 281.87486 285.12666">Listing3.6</tspan></text>
<text xml:space="preserve" transform="matrix(1 0 -0 1 0 841.89)" font-size="11.95517" font-family="LMRoman12"><tspan y="-459.293" x="290.972">:</tspan></text>
<text xml:space="preserve" transform="matrix(1 0 -0 1 0 841.89)" font-size="11.95517" font-family="LMRoman12"><tspan y="-459.293" x="298.126 306.08815 309.33995 315.19798 321.056 325.61094 330.22563 335.10334 341.60694 346.16188 349.41368 353.9686">Pivotschritt</tspan></text>
<path transform="matrix(1,0,0,-1,56.693,386.782)" stroke-width=".398" stroke-linecap="butt" stroke-miterlimit="10" stroke-linejoin="miter" fill="none" stroke="#000000" d="M 0 0 L 481.89 0 "/>
<text xml:space="preserve" transform="matrix(1 0 -0 1 0 841.89)" font-size="5.97758" font-family="LMRoman6"><tspan y="-443.552" x="48.059">1</tspan></text>
<text fill="#008000" xml:space="preserve" transform="matrix(1 0 -0 1 0 841.89)" font-size="9.96264" font-family="LMMono10"><tspan y="-443.552" x="57.39 63.31777">//</tspan></text>
<text fill="#008000" xml:space="preserve" transform="matrix(1 0 -0 1 0 841.89)" font-size="9.96264" font-family="LMMono10"><tspan y="-443.552" x="70.083 76.150249 82.21749 88.28474">Neue</tspan></text>
<text fill="#008000" xml:space="preserve" transform="matrix(1 0 -0 1 0 841.89)" font-size="9.96264" font-family="LMMono10"><tspan y="-443.552" x="101.594 107.790767 113.97756 120.174327 126.371089 132.56784 138.7646 144.96137 151.15813 157.35489 163.55165 169.74842">Basisloesung</tspan></text>
<text fill="#008000" xml:space="preserve" transform="matrix(1 0 -0 1 0 841.89)" font-size="9.96264" font-family="LMMono10"><tspan y="-443.552" x="183.165 189.33188 195.50873 201.67562 207.85247 214.01935 220.1962 226.36309 232.53993">berechnen</tspan></text>
<text fill="#008000" xml:space="preserve" transform="matrix(1 0 -0 1 0 841.89)" font-size="9.96264" font-family="LMMono10"><tspan y="-443.552" x="245.885 252.01203 258.13905">--&#x003e;</tspan></text>
<text fill="#008000" xml:space="preserve" transform="matrix(1 0 -0 1 0 841.89)" font-size="9.96264" font-family="LMMono10"><tspan y="-443.552" x="271.071 277.27775 283.48448 289.6912 295.89793 302.10466 308.31138 314.5181 320.72483 326.93156 333.13829 339.345 345.55174 351.75846">Transformation</tspan></text>
<text fill="#008000" xml:space="preserve" transform="matrix(1 0 -0 1 0 841.89)" font-size="9.96264" font-family="LMMono10"><tspan y="-443.552" x="365.027 371.0345 377.0519">des</tspan></text>
<text fill="#008000" xml:space="preserve" transform="matrix(1 0 -0 1 0 841.89)" font-size="9.96264" font-family="LMMono10"><tspan y="-443.552" x="390.279 396.43589 402.59278 408.75965 414.91654 421.07344 427.2403 433.3972">Tableaus</tspan></text>
<text xml:space="preserve" transform="matrix(1 0 -0 1 0 841.89)" font-size="5.97758" font-family="LMRoman6"><tspan y="-431.597" x="48.059">2</tspan></text>
<text fill="#0000ff" xml:space="preserve" transform="matrix(1 0 -0 1 0 841.89)" font-size="9.96264" font-family="LMMono10"><tspan y="-431.597" x="57.53 63.597246 69.66449 75.731739">void</tspan></text>
<text xml:space="preserve" transform="matrix(1 0 -0 1 0 841.89)" font-size="9.96264" font-family="LMMono10"><tspan y="-431.597" x="88.991 95.12798 101.27493 107.42188 113.56883 119.71578 125.86273 132.70708 138.63486 145.49912 151.67597 157.84285 164.0197 170.18659 176.36344 182.53032 188.70717 194.87406 201.74828 207.67606">Simplex::pivotStep()</tspan></text>
<text xml:space="preserve" transform="matrix(1 0 -0 1 0 841.89)" font-size="5.97758" font-family="LMRoman6"><tspan y="-419.641" x="48.059">3</tspan></text>
<text xml:space="preserve" transform="matrix(1 0 -0 1 0 841.89)" font-size="9.96264" font-family="LMMono10"><tspan y="-419.641" x="57.216">{</tspan></text>
<text xml:space="preserve" transform="matrix(1 0 -0 1 0 841.89)" font-size="5.97758" font-family="LMRoman6"><tspan y="-407.686" x="48.059">4</tspan></text>
<text fill="#008000" xml:space="preserve" transform="matrix(1 0 -0 1 0 841.89)" font-size="9.96264" font-family="LMMono10"><tspan y="-407.686" x="82.496 88.423778">//</tspan></text>
<text fill="#008000" xml:space="preserve" transform="matrix(1 0 -0 1 0 841.89)" font-size="9.96264" font-family="LMMono10"><tspan y="-407.686" x="95.294 101.46087 107.6377 113.80457 119.98141 126.14828 132.32512 138.492 144.66886">Dividiere</tspan></text>
<text fill="#008000" xml:space="preserve" transform="matrix(1 0 -0 1 0 841.89)" font-size="9.96264" font-family="LMMono10"><tspan y="-407.686" x="157.902 163.90947 169.92691">die</tspan></text>
<text fill="#008000" xml:space="preserve" transform="matrix(1 0 -0 1 0 841.89)" font-size="9.96264" font-family="LMMono10"><tspan y="-407.686" x="183.175 189.35186 195.5287 201.71552 207.89237 214.07918 220.25603 226.44284 232.61969 238.8065">Pivotzeile</tspan></text>
<text fill="#008000" xml:space="preserve" transform="matrix(1 0 -0 1 0 841.89)" font-size="9.96264" font-family="LMMono10"><tspan y="-407.686" x="251.788">s</tspan></text>
<text fill="#008000" xml:space="preserve" transform="matrix(1 0 -0 1 0 841.89)" font-size="9.96264" font-family="LMMono10"><tspan y="-407.686" x="264.69 270.78715 276.89424 282.99137 289.09846">durch</tspan></text>
<text fill="#008000" xml:space="preserve" transform="matrix(1 0 -0 1 0 841.89)" font-size="9.96264" font-family="LMMono10"><tspan y="-407.686" x="302.262 308.26948 314.2869">das</tspan></text>
<text fill="#008000" xml:space="preserve" transform="matrix(1 0 -0 1 0 841.89)" font-size="9.96264" font-family="LMMono10"><tspan y="-407.686" x="327.549 333.74577 339.93257 346.1293 352.32606 358.5228 364.71955 370.9163 377.11305 383.30979 389.50654 395.70329">Pivotelement</tspan></text>
<text fill="#008000" xml:space="preserve" transform="matrix(1 0 -0 1 0 841.89)" font-size="9.96264" font-family="LMMono10"><tspan y="-407.686" x="409.015 415.08226 421.14949 427.2167">a_st</tspan></text>
<text xml:space="preserve" transform="matrix(1 0 -0 1 0 841.89)" font-size="5.97758" font-family="LMRoman6"><tspan y="-395.731" x="48.059">5</tspan></text>
<text fill="#0000ff" xml:space="preserve" transform="matrix(1 0 -0 1 0 841.89)" font-size="9.96264" font-family="LMMono10"><tspan y="-395.731" x="82.696 88.82302 94.95004 101.077068 107.20409 113.33111">double</tspan></text>
<text xml:space="preserve" transform="matrix(1 0 -0 1 0 841.89)" font-size="9.96264" font-family="LMMono10"><tspan y="-395.731" x="126.572 132.63925 138.70652 144.77378 157.63555 170.18848 176.46495 183.14989 189.30681 195.4737 201.63062 207.78754 213.95442 220.11135 226.26827 233.13254 239.06032 245.91463 252.07155 258.23844 264.39533 270.55223 276.7191 282.87599 289.03288 295.89714 301.8249">a_st=A[pivotRow][pivotCol];</tspan></text>
<text xml:space="preserve" transform="matrix(1 0 -0 1 0 841.89)" font-size="5.97758" font-family="LMRoman6"><tspan y="-383.776" x="48.059">6</tspan></text>
<text fill="#0000ff" xml:space="preserve" transform="matrix(1 0 -0 1 0 841.89)" font-size="9.96264" font-family="LMMono10"><tspan y="-383.776" x="82.584 88.59147 94.6089">for</tspan></text>
<text xml:space="preserve" transform="matrix(1 0 -0 1 0 841.89)" font-size="9.96264" font-family="LMMono10"><tspan y="-383.776" x="107.428">(</tspan></text>
<text fill="#0000ff" xml:space="preserve" transform="matrix(1 0 -0 1 0 841.89)" font-size="9.96264" font-family="LMMono10"><tspan y="-383.776" x="113.966 119.97347 125.990909">int</tspan></text>
<text xml:space="preserve" transform="matrix(1 0 -0 1 0 841.89)" font-size="9.96264" font-family="LMMono10"><tspan y="-383.776" x="138.811 151.36394 164.08625 170.01403 182.74628 195.46858 208.161 214.22826 220.29552 226.36278 232.95806 245.68036 251.60814 258.06394 264.3404">j=0;j&#x003c;cols;++j)</tspan></text>
<text xml:space="preserve" transform="matrix(1 0 -0 1 0 841.89)" font-size="5.97758" font-family="LMRoman6"><tspan y="-371.821" x="48.059">7</tspan></text>
<text xml:space="preserve" transform="matrix(1 0 -0 1 0 841.89)" font-size="9.96264" font-family="LMMono10"><tspan y="-371.821" x="82.322">{</tspan></text>
<text xml:space="preserve" transform="matrix(1 0 -0 1 0 841.89)" font-size="5.97758" font-family="LMRoman6"><tspan y="-359.866" x="48.059">8</tspan></text>
<text xml:space="preserve" transform="matrix(1 0 -0 1 0 841.89)" font-size="9.96264" font-family="LMMono10"><tspan y="-359.866" x="107.428 113.70446 120.379428 126.546298 132.70322 138.86014 145.02703 151.18395 157.34087 163.50775 170.36206 176.28984 182.74564 189.02211 201.57505 214.12798 220.40445 226.68093 233.36586 239.52278 245.6797 251.84659 258.00349 264.16038 270.32725 276.48414 283.3384 289.26618 295.72196 301.9984 314.55134 327.4131 333.48033 339.54756 345.61479 352.21003 358.48649">A[pivotRow][j]=(A[pivotRow][j]/a_st);</tspan></text>
<text xml:space="preserve" transform="matrix(1 0 -0 1 0 841.89)" font-size="5.97758" font-family="LMRoman6"><tspan y="-347.91" x="48.059">9</tspan></text>
<text xml:space="preserve" transform="matrix(1 0 -0 1 0 841.89)" font-size="9.96264" font-family="LMMono10"><tspan y="-347.91" x="82.322">}</tspan></text>
<text xml:space="preserve" transform="matrix(1 0 -0 1 0 841.89)" font-size="5.97758" font-family="LMRoman6"><tspan y="-335.955" x="44.406 48.0583">10</tspan></text>
<text xml:space="preserve" transform="matrix(1 0 -0 1 0 841.89)" font-size="9.96264" font-family="LMMono10"><tspan y="-335.955" x="82.322 88.59846 95.27342 101.44029 107.597209 113.75412 119.92099 126.0779 132.23482 138.4017 145.08664 157.63957 170.1925 176.46898 182.74546 189.43039 195.58731 201.74423 207.91112 214.06804 220.22496 226.39185 232.54877 239.2337 251.78664 264.6484 270.71565 276.78288 282.8501 289.44535 295.7218">b[pivotRow]=(b[pivotRow]/a_st);</tspan></text>
<text xml:space="preserve" transform="matrix(1 0 -0 1 0 841.89)" font-size="5.97758" font-family="LMRoman6"><tspan y="-324" x="44.406 48.0583">11</tspan><tspan y="-312.045" x="44.406 48.0583">12</tspan></text>
<text fill="#008000" xml:space="preserve" transform="matrix(1 0 -0 1 0 841.89)" font-size="9.96264" font-family="LMMono10"><tspan y="-312.045" x="82.496 88.423778">//</tspan></text>
<text fill="#008000" xml:space="preserve" transform="matrix(1 0 -0 1 0 841.89)" font-size="9.96264" font-family="LMMono10"><tspan y="-312.045" x="95.323 101.51976 107.72649 113.92325 120.129978 126.32674 132.53347 138.73023 144.93695 151.13372 157.34044 163.5372 169.74393">Multipliziere</tspan></text>
<text fill="#008000" xml:space="preserve" transform="matrix(1 0 -0 1 0 841.89)" font-size="9.96264" font-family="LMMono10"><tspan y="-312.045" x="182.747">f</tspan></text>
<text fill="#008000" xml:space="preserve" transform="matrix(1 0 -0 1 0 841.89)" font-size="9.96264" font-family="LMMono10"><tspan y="-312.045" x="189.023">&#x00fc;</tspan></text>
<text fill="#008000" xml:space="preserve" transform="matrix(1 0 -0 1 0 841.89)" font-size="9.96264" font-family="LMMono10"><tspan y="-312.045" x="195.3">r</tspan></text>
<text fill="#008000" xml:space="preserve" transform="matrix(1 0 -0 1 0 841.89)" font-size="9.96264" font-family="LMMono10"><tspan y="-312.045" x="208.166 214.23326 220.30052 226.36779">alle</tspan></text>
<text fill="#008000" xml:space="preserve" transform="matrix(1 0 -0 1 0 841.89)" font-size="9.96264" font-family="LMMono10"><tspan y="-312.045" x="239.609 245.73603 251.86305 257.99009 264.1171 270.2441">Zeilen</tspan></text>
<text fill="#008000" xml:space="preserve" transform="matrix(1 0 -0 1 0 841.89)" font-size="9.96264" font-family="LMMono10"><tspan y="-312.045" x="283.171">i</tspan></text>
<text fill="#008000" xml:space="preserve" transform="matrix(1 0 -0 1 0 841.89)" font-size="9.96264" font-family="LMMono10"><tspan y="-312.045" x="295.724">(</tspan></text>
<text fill="#008000" xml:space="preserve" transform="matrix(1 0 -0 1 0 841.89)" font-size="9.96264" font-family="LMMono10"><tspan y="-312.045" x="302.175 308.10276">au</tspan></text>
<text fill="#008000" xml:space="preserve" transform="matrix(1 0 -0 1 0 841.89)" font-size="9.96264" font-family="LMMono10"><tspan y="-312.045" x="314.554">&#x00df;</tspan></text>
<text fill="#008000" xml:space="preserve" transform="matrix(1 0 -0 1 0 841.89)" font-size="9.96264" font-family="LMMono10"><tspan y="-312.045" x="321.004 326.93177">er</tspan></text>
<text fill="#008000" xml:space="preserve" transform="matrix(1 0 -0 1 0 841.89)" font-size="9.96264" font-family="LMMono10"><tspan y="-312.045" x="339.66">s</tspan></text>
<text fill="#008000" xml:space="preserve" transform="matrix(1 0 -0 1 0 841.89)" font-size="9.96264" font-family="LMMono10"><tspan y="-312.045" x="345.936">)</tspan></text>
<text fill="#008000" xml:space="preserve" transform="matrix(1 0 -0 1 0 841.89)" font-size="9.96264" font-family="LMMono10"><tspan y="-312.045" x="358.751 364.75849 370.7759">die</tspan></text>
<text fill="#008000" xml:space="preserve" transform="matrix(1 0 -0 1 0 841.89)" font-size="9.96264" font-family="LMMono10"><tspan y="-312.045" x="383.909 389.97624 396.04347 402.1107">neue</tspan></text>
<text fill="#008000" xml:space="preserve" transform="matrix(1 0 -0 1 0 841.89)" font-size="9.96264" font-family="LMMono10"><tspan y="-312.045" x="415.406 421.58283 427.75965 433.94645 440.12327 446.31007 452.48689 458.67369 464.8505 471.0373">Pivotzeile</tspan></text>
<text fill="#008000" xml:space="preserve" transform="matrix(1 0 -0 1 0 841.89)" font-size="9.96264" font-family="LMMono10"><tspan y="-312.045" x="484.281 490.28849 496.3059">mit</tspan></text>
<text fill="#008000" xml:space="preserve" transform="matrix(1 0 -0 1 0 841.89)" font-size="9.96264" font-family="LMMono10"><tspan y="-301.54" x="108.524 114.80046">(-</tspan></text>
<text fill="#008000" xml:space="preserve" transform="matrix(1 0 -0 1 0 841.89)" font-size="9.96264" font-family="LMMono10"><tspan y="-301.54" x="121.391 127.458248 133.5255 139.59276">a_it</tspan></text>
<text fill="#008000" xml:space="preserve" transform="matrix(1 0 -0 1 0 841.89)" font-size="9.96264" font-family="LMMono10"><tspan y="-301.54" x="146.183">)</tspan></text>
<text fill="#008000" xml:space="preserve" transform="matrix(1 0 -0 1 0 841.89)" font-size="9.96264" font-family="LMMono10"><tspan y="-301.54" x="158.998 165.00548 171.02292">und</tspan></text>
<text fill="#008000" xml:space="preserve" transform="matrix(1 0 -0 1 0 841.89)" font-size="9.96264" font-family="LMMono10"><tspan y="-301.54" x="184.235 190.372 196.51895 202.66591 208.81287 214.95983 221.10678">addiere</tspan></text>
<text fill="#008000" xml:space="preserve" transform="matrix(1 0 -0 1 0 841.89)" font-size="9.96264" font-family="LMMono10"><tspan y="-301.54" x="234.316 240.32347 246.34091">sie</tspan></text>
<text fill="#008000" xml:space="preserve" transform="matrix(1 0 -0 1 0 841.89)" font-size="9.96264" font-family="LMMono10"><tspan y="-301.54" x="259.422 265.42948 271.4469">zur</tspan></text>
<text fill="#008000" xml:space="preserve" transform="matrix(1 0 -0 1 0 841.89)" font-size="9.96264" font-family="LMMono10"><tspan y="-301.54" x="284.695 290.87184 297.04866 303.23545 309.41227 315.59907 321.77589 327.96269 334.1395 340.3263">jeweiligen</tspan></text>
<text fill="#008000" xml:space="preserve" transform="matrix(1 0 -0 1 0 841.89)" font-size="9.96264" font-family="LMMono10"><tspan y="-301.54" x="353.657 359.75416 365.86125 371.95838 378.06547">Zeile</tspan></text>
<text fill="#008000" xml:space="preserve" transform="matrix(1 0 -0 1 0 841.89)" font-size="9.96264" font-family="LMMono10"><tspan y="-301.54" x="390.968">i</tspan></text>
<text fill="#008000" xml:space="preserve" transform="matrix(1 0 -0 1 0 841.89)" font-size="9.96264" font-family="LMMono10"><tspan y="-301.54" x="403.869 409.96614 416.0732 422.17036 428.27745">hinzu</tspan></text>
<text fill="#008000" xml:space="preserve" transform="matrix(1 0 -0 1 0 841.89)" font-size="9.96264" font-family="LMMono10"><tspan y="-301.54" x="434.903">.</tspan></text>
<text xml:space="preserve" transform="matrix(1 0 -0 1 0 841.89)" font-size="5.97758" font-family="LMRoman6"><tspan y="-290.957" x="44.406 48.0583">13</tspan></text>
<text fill="#0000ff" xml:space="preserve" transform="matrix(1 0 -0 1 0 841.89)" font-size="9.96264" font-family="LMMono10"><tspan y="-290.957" x="82.696 88.82302 94.95004 101.077068 107.20409 113.33111">double</tspan></text>
<text xml:space="preserve" transform="matrix(1 0 -0 1 0 841.89)" font-size="9.96264" font-family="LMMono10"><tspan y="-290.957" x="126.572 132.63925 138.70652 144.77378 151.35909 163.91202 176.64427 182.57205">a_it{0};</tspan></text>
<text xml:space="preserve" transform="matrix(1 0 -0 1 0 841.89)" font-size="5.97758" font-family="LMRoman6"><tspan y="-279.002" x="44.406 48.0583">14</tspan></text>
<text fill="#0000ff" xml:space="preserve" transform="matrix(1 0 -0 1 0 841.89)" font-size="9.96264" font-family="LMMono10"><tspan y="-279.002" x="82.584 88.59147 94.6089">for</tspan></text>
<text xml:space="preserve" transform="matrix(1 0 -0 1 0 841.89)" font-size="9.96264" font-family="LMMono10"><tspan y="-279.002" x="107.428">(</tspan></text>
<text fill="#0000ff" xml:space="preserve" transform="matrix(1 0 -0 1 0 841.89)" font-size="9.96264" font-family="LMMono10"><tspan y="-279.002" x="113.966 119.97347 125.990909">int</tspan></text>
<text xml:space="preserve" transform="matrix(1 0 -0 1 0 841.89)" font-size="9.96264" font-family="LMMono10"><tspan y="-279.002" x="138.811 151.36394 164.08625 170.01403 182.74628 195.46858 208.161 214.22826 220.29552 226.36278 232.95806 245.68036 251.60814 258.06394 264.3404">i=0;i&#x003c;rows;++i)</tspan></text>
<text xml:space="preserve" transform="matrix(1 0 -0 1 0 841.89)" font-size="5.97758" font-family="LMRoman6"><tspan y="-267.047" x="44.406 48.0583">15</tspan></text>
<text xml:space="preserve" transform="matrix(1 0 -0 1 0 841.89)" font-size="9.96264" font-family="LMMono10"><tspan y="-267.047" x="82.322">{</tspan></text>
<text xml:space="preserve" transform="matrix(1 0 -0 1 0 841.89)" font-size="5.97758" font-family="LMRoman6"><tspan y="-255.092" x="44.406 48.0583">16</tspan></text>
<text fill="#0000ff" xml:space="preserve" transform="matrix(1 0 -0 1 0 841.89)" font-size="9.96264" font-family="LMMono10"><tspan y="-255.092" x="107.603 113.53077">if</tspan></text>
<text xml:space="preserve" transform="matrix(1 0 -0 1 0 841.89)" font-size="9.96264" font-family="LMMono10"><tspan y="-255.092" x="126.258 132.53447 145.25678 151.18456 164.31533 170.48221 176.63913 182.79605 188.96294 195.11986 201.27678 207.44367 214.1286">(i!=pivotRow)</tspan></text>
<text xml:space="preserve" transform="matrix(1 0 -0 1 0 841.89)" font-size="5.97758" font-family="LMRoman6"><tspan y="-243.137" x="44.406 48.0583">17</tspan></text>
<text xml:space="preserve" transform="matrix(1 0 -0 1 0 841.89)" font-size="9.96264" font-family="LMMono10"><tspan y="-243.137" x="107.428">{</tspan></text>
<text xml:space="preserve" transform="matrix(1 0 -0 1 0 841.89)" font-size="5.97758" font-family="LMRoman6"><tspan y="-231.181" x="44.406 48.0583">18</tspan></text>
<text xml:space="preserve" transform="matrix(1 0 -0 1 0 841.89)" font-size="9.96264" font-family="LMMono10"><tspan y="-231.181" x="132.848 138.91527 144.98253 151.04979 163.91156 176.4645 182.74097 189.01744 195.47324 201.40102 208.25533 214.41225 220.57913 226.73606 232.89298 239.05986 245.21678 251.3737 258.23799 264.16575">a_it=A[i][pivotCol];</tspan></text>
<text xml:space="preserve" transform="matrix(1 0 -0 1 0 841.89)" font-size="5.97758" font-family="LMRoman6"><tspan y="-219.226" x="44.406 48.0583">19</tspan></text>
<text fill="#0000ff" xml:space="preserve" transform="matrix(1 0 -0 1 0 841.89)" font-size="9.96264" font-family="LMMono10"><tspan y="-219.226" x="132.796 138.80348 144.82093">for</tspan></text>
<text xml:space="preserve" transform="matrix(1 0 -0 1 0 841.89)" font-size="9.96264" font-family="LMMono10"><tspan y="-219.226" x="157.64">(</tspan></text>
<text fill="#0000ff" xml:space="preserve" transform="matrix(1 0 -0 1 0 841.89)" font-size="9.96264" font-family="LMMono10"><tspan y="-219.226" x="164.178 170.18547 176.20291">int</tspan></text>
<text xml:space="preserve" transform="matrix(1 0 -0 1 0 841.89)" font-size="9.96264" font-family="LMMono10"><tspan y="-219.226" x="189.023 201.57593 214.29824 220.22602 232.95827 245.68058 258.373 264.44023 270.50746 276.57469 283.16993 295.8922 301.81999 308.27577 314.55223">j=0;j&#x003c;cols;++j)</tspan></text>
<text xml:space="preserve" transform="matrix(1 0 -0 1 0 841.89)" font-size="5.97758" font-family="LMRoman6"><tspan y="-207.271" x="44.406 48.0583">20</tspan></text>
<text xml:space="preserve" transform="matrix(1 0 -0 1 0 841.89)" font-size="9.96264" font-family="LMMono10"><tspan y="-207.271" x="132.534">{</tspan></text>
<text xml:space="preserve" transform="matrix(1 0 -0 1 0 841.89)" font-size="5.97758" font-family="LMRoman6"><tspan y="-195.316" x="44.406 48.0583">21</tspan></text>
<text xml:space="preserve" transform="matrix(1 0 -0 1 0 841.89)" font-size="9.96264" font-family="LMMono10"><tspan y="-195.316" x="157.64 163.91648 170.19295 176.63878 182.56656 189.02236 195.29883 207.85176 220.4047 226.68117 232.95764 239.40348 245.33126 251.78705 258.0635 270.7858 283.47819 289.5454 295.61265 301.67988 314.5516 327.10453 333.38099 340.06593 346.2228 352.3797 358.54658 364.70347 370.86036 377.02723 383.1841 390.0384 395.96617 402.42195 408.86778 414.79554">A[i][j]=A[i][j]-a_it*A[pivotRow][j];</tspan></text>
<text xml:space="preserve" transform="matrix(1 0 -0 1 0 841.89)" font-size="5.97758" font-family="LMRoman6"><tspan y="-183.361" x="44.406 48.0583">22</tspan></text>
<text xml:space="preserve" transform="matrix(1 0 -0 1 0 841.89)" font-size="9.96264" font-family="LMMono10"><tspan y="-183.361" x="132.534">}</tspan></text>
<text xml:space="preserve" transform="matrix(1 0 -0 1 0 841.89)" font-size="5.97758" font-family="LMRoman6"><tspan y="-171.406" x="44.406 48.0583">23</tspan></text>
<text xml:space="preserve" transform="matrix(1 0 -0 1 0 841.89)" font-size="9.96264" font-family="LMMono10"><tspan y="-171.406" x="132.534 138.81047 145.08695 151.36342 163.91635 176.46929 182.74576 189.02223 195.2987 208.02101 220.71343 226.78069 232.84795 238.9152 251.78694 264.33988 270.61634 277.30128 283.45817 289.61506 295.78193 301.9388 308.0957 314.26258 320.41947 327.27375 333.2015">b[i]=b[i]-a_it*b[pivotRow];</tspan></text>
<text xml:space="preserve" transform="matrix(1 0 -0 1 0 841.89)" font-size="5.97758" font-family="LMRoman6"><tspan y="-159.45" x="44.406 48.0583">24</tspan></text>
<text xml:space="preserve" transform="matrix(1 0 -0 1 0 841.89)" font-size="9.96264" font-family="LMMono10"><tspan y="-159.45" x="107.428">}</tspan></text>
<text xml:space="preserve" transform="matrix(1 0 -0 1 0 841.89)" font-size="5.97758" font-family="LMRoman6"><tspan y="-147.495" x="44.406 48.0583">25</tspan></text>
<text xml:space="preserve" transform="matrix(1 0 -0 1 0 841.89)" font-size="9.96264" font-family="LMMono10"><tspan y="-147.495" x="82.322">}</tspan></text>
<text xml:space="preserve" transform="matrix(1 0 -0 1 0 841.89)" font-size="5.97758" font-family="LMRoman6"><tspan y="-135.54" x="44.406 48.0583">26</tspan></text>
<text fill="#0000ff" xml:space="preserve" transform="matrix(1 0 -0 1 0 841.89)" font-size="9.96264" font-family="LMMono10"><tspan y="-135.54" x="82.696 88.82302 94.95004 101.077068 107.20409 113.33111">double</tspan></text>
<text xml:space="preserve" transform="matrix(1 0 -0 1 0 841.89)" font-size="9.96264" font-family="LMMono10"><tspan y="-135.54" x="126.606 132.70314 138.81024 144.90738 151.01448 163.9161 176.46904 182.74552 189.42049 195.58737 201.7443 207.91118 214.0681 220.22502 226.3919 232.54883 239.40314 245.33092">c_col=c[pivotCol];</tspan></text>
<text xml:space="preserve" transform="matrix(1 0 -0 1 0 841.89)" font-size="5.97758" font-family="LMRoman6"><tspan y="-123.585" x="44.406 48.0583">27</tspan></text>
<text fill="#0000ff" xml:space="preserve" transform="matrix(1 0 -0 1 0 841.89)" font-size="9.96264" font-family="LMMono10"><tspan y="-123.585" x="82.584 88.59147 94.6089">for</tspan></text>
<text xml:space="preserve" transform="matrix(1 0 -0 1 0 841.89)" font-size="9.96264" font-family="LMMono10"><tspan y="-123.585" x="107.428">(</tspan></text>
<text fill="#0000ff" xml:space="preserve" transform="matrix(1 0 -0 1 0 841.89)" font-size="9.96264" font-family="LMMono10"><tspan y="-123.585" x="113.966 119.97347 125.990909">int</tspan></text>
<text xml:space="preserve" transform="matrix(1 0 -0 1 0 841.89)" font-size="9.96264" font-family="LMMono10"><tspan y="-123.585" x="138.811 151.36394 164.08625 170.01403 182.74628 195.46858 208.161 214.22826 220.29552 226.36278 232.95806 245.68036 251.60814 258.06394 264.3404">j=0;j&#x003c;cols;++j)</tspan></text>
<text xml:space="preserve" transform="matrix(1 0 -0 1 0 841.89)" font-size="5.97758" font-family="LMRoman6"><tspan y="-111.63" x="44.406 48.0583">28</tspan></text>
<text xml:space="preserve" transform="matrix(1 0 -0 1 0 841.89)" font-size="9.96264" font-family="LMMono10"><tspan y="-111.63" x="107.428 113.70446 119.98092 126.25738 138.8103 151.36324 157.63971 163.91619 170.19266 182.91497 195.64722 201.74436 207.85146 213.9486 220.0557 232.95732 245.51026 251.78673 258.47169 264.62858 270.78547 276.95234 283.10923 289.2661 295.43299 301.58988 308.44416 314.37193 320.8277 327.27354 333.2013">c[j]=c[j]-c_col*A[pivotRow][j];</tspan></text>
<text xml:space="preserve" transform="matrix(1 0 -0 1 0 841.89)" font-size="5.97758" font-family="LMRoman6"><tspan y="-99.675" x="44.406 48.0583">29</tspan></text>
<text xml:space="preserve" transform="matrix(1 0 -0 1 0 841.89)" font-size="9.96264" font-family="LMMono10"><tspan y="-99.675" x="57.216">}</tspan></text>
<path transform="matrix(1,0,0,-1,56.693,748.99)" stroke-width=".398" stroke-linecap="butt" stroke-miterlimit="10" stroke-linejoin="miter" fill="none" stroke="#000000" d="M 0 0 L 481.89 0 "/>
<text xml:space="preserve" transform="matrix(1 0 -0 1 0 841.89)" font-size="11.95517" font-family="LMRoman12"><tspan y="-20.306" x="291.785 297.64305">20</tspan></text>
</g>
</svg>
