<?xml version="1.0" encoding="UTF-8" standalone="no"?>
<!DOCTYPE svg PUBLIC "-//W3C//DTD SVG 1.1//EN" "http://www.w3.org/Graphics/SVG/1.1/DTD/svg11.dtd">
<svg xmlns="http://www.w3.org/2000/svg" xmlns:xlink="http://www.w3.org/1999/xlink" version="1.1" width="595.276pt" height="841.89pt" viewBox="0 0 595.276 841.89">
<g enable-background="new">
<text xml:space="preserve" transform="matrix(1 0 -0 1 0 841.89)" font-size="5.97758" font-family="LMRoman6"><tspan y="-773.242" x="44.406 48.0583">35</tspan></text>
<text fill="#008000" xml:space="preserve" transform="matrix(1 0 -0 1 0 841.89)" font-size="9.96264" font-family="LMMono10"><tspan y="-773.242" x="82.496 88.423778">//</tspan></text>
<text fill="#008000" xml:space="preserve" transform="matrix(1 0 -0 1 0 841.89)" font-size="9.96264" font-family="LMMono10"><tspan y="-773.242" x="95.267 101.403987 107.550937 113.69788 119.84483 125.99178 132.13874">Loesung</tspan></text>
<text fill="#008000" xml:space="preserve" transform="matrix(1 0 -0 1 0 841.89)" font-size="9.96264" font-family="LMMono10"><tspan y="-773.242" x="145.494 151.65093 157.80785 163.97473 170.13166 176.28858 182.45546 188.61238">ausgeben</tspan></text>
<text xml:space="preserve" transform="matrix(1 0 -0 1 0 841.89)" font-size="5.97758" font-family="LMRoman6"><tspan y="-761.287" x="44.406 48.0583">36</tspan></text>
<text xml:space="preserve" transform="matrix(1 0 -0 1 0 841.89)" font-size="9.96264" font-family="LMMono10"><tspan y="-761.287" x="82.77 88.96676 95.173488 101.37025 107.57697 113.773738 119.98046 126.17722 132.38394 138.5807 144.78743 150.98419 157.19092 163.91571 170.58072 176.72768 182.87464 189.02159 195.16855 201.30554 207.4525 214.12747 220.40395">printSolution(simplex);</tspan></text>
<text xml:space="preserve" transform="matrix(1 0 -0 1 0 841.89)" font-size="5.97758" font-family="LMRoman6"><tspan y="-749.331" x="44.406 48.0583">37</tspan></text>
<text fill="#008000" xml:space="preserve" transform="matrix(1 0 -0 1 0 841.89)" font-size="9.96264" font-family="LMMono10"><tspan y="-749.331" x="82.496 88.423778">//</tspan></text>
<text fill="#008000" xml:space="preserve" transform="matrix(1 0 -0 1 0 841.89)" font-size="9.96264" font-family="LMMono10"><tspan y="-749.331" x="95.346 101.56268 107.78933 114.015979 120.24262 126.459308 132.68596 138.91262 145.13927 151.35596 157.58261 163.80927 170.03592 176.25261 182.47927 188.70592 194.93257 201.14926 207.37592">Zielfungtionsgerade</tspan></text>
<text fill="#008000" xml:space="preserve" transform="matrix(1 0 -0 1 0 841.89)" font-size="9.96264" font-family="LMMono10"><tspan y="-749.331" x="220.58 226.50778">im</tspan></text>
<text fill="#008000" xml:space="preserve" transform="matrix(1 0 -0 1 0 841.89)" font-size="9.96264" font-family="LMMono10"><tspan y="-749.331" x="239.584 245.68114 251.78824 257.88539 263.99247">Chart</tspan></text>
<text fill="#008000" xml:space="preserve" transform="matrix(1 0 -0 1 0 841.89)" font-size="9.96264" font-family="LMMono10"><tspan y="-749.331" x="277.301 283.4579 289.61479 295.78166 301.93855 308.09544 314.2623 320.4192">abbilden</tspan></text>
<text xml:space="preserve" transform="matrix(1 0 -0 1 0 841.89)" font-size="5.97758" font-family="LMRoman6"><tspan y="-737.376" x="44.406 48.0583">38</tspan></text>
<text fill="#0000ff" xml:space="preserve" transform="matrix(1 0 -0 1 0 841.89)" font-size="9.96264" font-family="LMMono10"><tspan y="-737.376" x="82.496 88.423778">if</tspan></text>
<text xml:space="preserve" transform="matrix(1 0 -0 1 0 841.89)" font-size="9.96264" font-family="LMMono10"><tspan y="-737.376" x="94.875 101.58982 107.78658 113.983348 120.18011 126.37687 132.57363 138.77039 144.9572 151.15396 157.35073 163.54749 169.74425 182.91487 188.84265 201.5749 214.29721 220.22499 233.37569 239.54257 245.71942 251.8863 258.06315 264.23 270.40684 276.5737 282.75053 295.89125 301.819 314.7206 320.64839">(numberStruct==2&#x0026;&#x0026;numberGNB==0)</tspan></text>
<text xml:space="preserve" transform="matrix(1 0 -0 1 0 841.89)" font-size="5.97758" font-family="LMRoman6"><tspan y="-725.421" x="44.406 48.0583">39</tspan></text>
<text xml:space="preserve" transform="matrix(1 0 -0 1 0 841.89)" font-size="9.96264" font-family="LMMono10"><tspan y="-725.421" x="107.893 114.10968 120.32636 126.543048 132.75974 138.97643 145.20308 151.41977 157.63646 163.85315 170.06984 176.28653 182.51319 188.72988 194.94657 201.16326 207.37995 214.12467 220.78968 226.93663 233.08359 239.23055 245.3775 251.52446 257.67143 264.33644 270.61289">chartZielfunktion(simplex);</tspan></text>
<text xml:space="preserve" transform="matrix(1 0 -0 1 0 841.89)" font-size="5.97758" font-family="LMRoman6"><tspan y="-713.466" x="44.406 48.0583">40</tspan></text>
<text xml:space="preserve" transform="matrix(1 0 -0 1 0 841.89)" font-size="9.96264" font-family="LMMono10"><tspan y="-713.466" x="57.216">}</tspan></text>
<path transform="matrix(1,0,0,-1,56.693,135.19904)" stroke-width=".398" stroke-linecap="butt" stroke-miterlimit="10" stroke-linejoin="miter" fill="none" stroke="#000000" d="M 0 0 L 481.89 0 "/>
<text xml:space="preserve" transform="matrix(1 0 -0 1 0 841.89)" font-size="11.95517" font-family="LMRoman12"><tspan y="-680.489" x="183.049 190.36556 193.61736 198.23206 202.78697 206.03878 212.54239 222.2978 228.15584 231.40764">Listing3.2</tspan></text>
<text xml:space="preserve" transform="matrix(1 0 -0 1 0 841.89)" font-size="11.95517" font-family="LMRoman12"><tspan y="-680.489" x="237.253">:</tspan></text>
<text xml:space="preserve" transform="matrix(1 0 -0 1 0 841.89)" font-size="11.95517" font-family="LMRoman12"><tspan y="-680.489" x="244.407 253.51683 260.02046 264.57539 267.82719 277.5826 283.44065 286.69245 295.79035 304.0753 309.93333 314.548 317.7998 322.4145 325.6663 331.52433 336.139 342.6426 349.1462 358.90165 364.77165 370.62968 375.1846 381.6882 387.54624 394.04985 400.55345 405.75395">OptimaleBasisl&#x00f6;sungvorhanden</tspan></text>
<path transform="matrix(1,0,0,-1,56.693,165.58502)" stroke-width=".398" stroke-linecap="butt" stroke-miterlimit="10" stroke-linejoin="miter" fill="none" stroke="#000000" d="M 0 0 L 481.89 0 "/>
<text xml:space="preserve" transform="matrix(1 0 -0 1 0 841.89)" font-size="5.97758" font-family="LMRoman6"><tspan y="-664.749" x="48.059">1</tspan></text>
<text fill="#008000" xml:space="preserve" transform="matrix(1 0 -0 1 0 841.89)" font-size="9.96264" font-family="LMMono10"><tspan y="-664.749" x="57.39 63.31777">//</tspan></text>
<text fill="#008000" xml:space="preserve" transform="matrix(1 0 -0 1 0 841.89)" font-size="9.96264" font-family="LMMono10"><tspan y="-664.749" x="70.161 76.29799 82.44494 88.59189 94.73884 100.88579 107.03274">Pruefen</tspan></text>
<text fill="#008000" xml:space="preserve" transform="matrix(1 0 -0 1 0 841.89)" font-size="9.96264" font-family="LMMono10"><tspan y="-664.749" x="120.156 126.08377">ob</tspan></text>
<text fill="#008000" xml:space="preserve" transform="matrix(1 0 -0 1 0 841.89)" font-size="9.96264" font-family="LMMono10"><tspan y="-664.749" x="139.072 145.07949 151.09693">die</tspan></text>
<text fill="#008000" xml:space="preserve" transform="matrix(1 0 -0 1 0 841.89)" font-size="9.96264" font-family="LMMono10"><tspan y="-664.749" x="164.36 170.54682 176.74358 182.94034 189.1371 195.33386 201.53063 207.72739 213.92415 220.12091 226.31768 232.51444">Basisloesung</tspan></text>
<text fill="#008000" xml:space="preserve" transform="matrix(1 0 -0 1 0 841.89)" font-size="9.96264" font-family="LMMono10"><tspan y="-664.749" x="245.904 252.041 258.18797 264.3349 270.48185 276.62879 282.77574">optimal</tspan></text>
<text fill="#008000" xml:space="preserve" transform="matrix(1 0 -0 1 0 841.89)" font-size="9.96264" font-family="LMMono10"><tspan y="-664.749" x="295.986 301.99348 308.0109">ist</tspan></text>
<text xml:space="preserve" transform="matrix(1 0 -0 1 0 841.89)" font-size="5.97758" font-family="LMRoman6"><tspan y="-652.793" x="48.059">2</tspan></text>
<text fill="#0000ff" xml:space="preserve" transform="matrix(1 0 -0 1 0 841.89)" font-size="9.96264" font-family="LMMono10"><tspan y="-652.793" x="57.53 63.597246 69.66449 75.731739">bool</tspan></text>
<text xml:space="preserve" transform="matrix(1 0 -0 1 0 841.89)" font-size="9.96264" font-family="LMMono10"><tspan y="-652.793" x="88.991 95.12798 101.27493 107.42188 113.56883 119.71578 125.86273 132.70708 138.63486 145.4792 151.6162 157.76316 163.91011 170.05707 176.20403 182.35099 189.19533 195.12311">Simplex::isOptim()</tspan></text>
<text xml:space="preserve" transform="matrix(1 0 -0 1 0 841.89)" font-size="5.97758" font-family="LMRoman6"><tspan y="-640.838" x="48.059">3</tspan></text>
<text xml:space="preserve" transform="matrix(1 0 -0 1 0 841.89)" font-size="9.96264" font-family="LMMono10"><tspan y="-640.838" x="57.216">{</tspan></text>
<text xml:space="preserve" transform="matrix(1 0 -0 1 0 841.89)" font-size="5.97758" font-family="LMRoman6"><tspan y="-628.883" x="48.059">4</tspan></text>
<text fill="#0000ff" xml:space="preserve" transform="matrix(1 0 -0 1 0 841.89)" font-size="9.96264" font-family="LMMono10"><tspan y="-628.883" x="82.584 88.59147 94.6089">for</tspan></text>
<text xml:space="preserve" transform="matrix(1 0 -0 1 0 841.89)" font-size="9.96264" font-family="LMMono10"><tspan y="-628.883" x="107.428">(</tspan></text>
<text fill="#0000ff" xml:space="preserve" transform="matrix(1 0 -0 1 0 841.89)" font-size="9.96264" font-family="LMMono10"><tspan y="-628.883" x="113.966 119.97347 125.990909">int</tspan></text>
<text xml:space="preserve" transform="matrix(1 0 -0 1 0 841.89)" font-size="9.96264" font-family="LMMono10"><tspan y="-628.883" x="138.811 151.36394 164.08625 170.01403 182.74628 195.46858 208.161 214.22826 220.29552 226.36278 232.95806 245.68036 251.60814 258.06394 264.3404">j=0;j&#x003c;cols;++j)</tspan></text>
<text xml:space="preserve" transform="matrix(1 0 -0 1 0 841.89)" font-size="5.97758" font-family="LMRoman6"><tspan y="-616.928" x="48.059">5</tspan></text>
<text xml:space="preserve" transform="matrix(1 0 -0 1 0 841.89)" font-size="9.96264" font-family="LMMono10"><tspan y="-616.928" x="82.322">{</tspan></text>
<text xml:space="preserve" transform="matrix(1 0 -0 1 0 841.89)" font-size="5.97758" font-family="LMRoman6"><tspan y="-604.973" x="48.059">6</tspan></text>
<text fill="#0000ff" xml:space="preserve" transform="matrix(1 0 -0 1 0 841.89)" font-size="9.96264" font-family="LMMono10"><tspan y="-604.973" x="107.603 113.53077">if</tspan></text>
<text xml:space="preserve" transform="matrix(1 0 -0 1 0 841.89)" font-size="9.96264" font-family="LMMono10"><tspan y="-604.973" x="126.258 132.53447 138.81095 145.08742 151.36389 164.0862 176.63913 182.56691">(c[j]&#x003c;0)</tspan></text>
<text xml:space="preserve" transform="matrix(1 0 -0 1 0 841.89)" font-size="5.97758" font-family="LMRoman6"><tspan y="-593.018" x="48.059">7</tspan></text>
<text fill="#0000ff" xml:space="preserve" transform="matrix(1 0 -0 1 0 841.89)" font-size="9.96264" font-family="LMMono10"><tspan y="-593.018" x="132.908 139.03504 145.16207 151.2891 157.41613 163.54315">return</tspan></text>
<text fill="#0000ff" xml:space="preserve" transform="matrix(1 0 -0 1 0 841.89)" font-size="9.96264" font-family="LMMono10"><tspan y="-593.018" x="176.819 182.91614 189.02324 195.12038 201.22748">false</tspan></text>
<text xml:space="preserve" transform="matrix(1 0 -0 1 0 841.89)" font-size="9.96264" font-family="LMMono10"><tspan y="-593.018" x="207.853">;</tspan></text>
<text xml:space="preserve" transform="matrix(1 0 -0 1 0 841.89)" font-size="5.97758" font-family="LMRoman6"><tspan y="-581.062" x="48.059">8</tspan></text>
<text xml:space="preserve" transform="matrix(1 0 -0 1 0 841.89)" font-size="9.96264" font-family="LMMono10"><tspan y="-581.062" x="82.322">}</tspan></text>
<text xml:space="preserve" transform="matrix(1 0 -0 1 0 841.89)" font-size="5.97758" font-family="LMRoman6"><tspan y="-569.107" x="48.059">9</tspan></text>
<text fill="#0000ff" xml:space="preserve" transform="matrix(1 0 -0 1 0 841.89)" font-size="9.96264" font-family="LMMono10"><tspan y="-569.107" x="82.496 88.423778 94.35155 100.27932">this</tspan></text>
<text xml:space="preserve" transform="matrix(1 0 -0 1 0 841.89)" font-size="9.96264" font-family="LMMono10"><tspan y="-569.107" x="107.428 113.70446 120.32961 126.42675 132.53385 138.63098 144.73809 157.63971">-&#x003e;optim=</tspan></text>
<text fill="#0000ff" xml:space="preserve" transform="matrix(1 0 -0 1 0 841.89)" font-size="9.96264" font-family="LMMono10"><tspan y="-569.107" x="170.507 176.57427 182.64153 188.70879">true</tspan></text>
<text xml:space="preserve" transform="matrix(1 0 -0 1 0 841.89)" font-size="9.96264" font-family="LMMono10"><tspan y="-569.107" x="195.3">;</tspan></text>
<text xml:space="preserve" transform="matrix(1 0 -0 1 0 841.89)" font-size="5.97758" font-family="LMRoman6"><tspan y="-557.152" x="44.406 48.0583">10</tspan><tspan y="-545.197" x="44.406 48.0583">11</tspan></text>
<text fill="#0000ff" xml:space="preserve" transform="matrix(1 0 -0 1 0 841.89)" font-size="9.96264" font-family="LMMono10"><tspan y="-545.197" x="82.696 88.82302 94.95004 101.077068 107.20409 113.33111">return</tspan></text>
<text fill="#0000ff" xml:space="preserve" transform="matrix(1 0 -0 1 0 841.89)" font-size="9.96264" font-family="LMMono10"><tspan y="-545.197" x="126.572 132.63925 138.70652 144.77378">true</tspan></text>
<text xml:space="preserve" transform="matrix(1 0 -0 1 0 841.89)" font-size="9.96264" font-family="LMMono10"><tspan y="-545.197" x="151.364">;</tspan></text>
<text xml:space="preserve" transform="matrix(1 0 -0 1 0 841.89)" font-size="5.97758" font-family="LMRoman6"><tspan y="-533.242" x="44.406 48.0583">12</tspan></text>
<text xml:space="preserve" transform="matrix(1 0 -0 1 0 841.89)" font-size="9.96264" font-family="LMMono10"><tspan y="-533.242" x="57.216">}</tspan></text>
<path transform="matrix(1,0,0,-1,56.693,315.42304)" stroke-width=".398" stroke-linecap="butt" stroke-miterlimit="10" stroke-linejoin="miter" fill="none" stroke="#000000" d="M 0 0 L 481.89 0 "/>
<text xml:space="preserve" transform="matrix(1 0 -0 1 0 841.89)" font-size="11.95517" font-family="LMRoman12"><tspan y="-486.092" x="238.231 245.54756 248.79936 253.41407 257.969 261.2208 267.7244 277.47984 283.33787 286.58967">Listing3.3</tspan></text>
<text xml:space="preserve" transform="matrix(1 0 -0 1 0 841.89)" font-size="11.95517" font-family="LMRoman12"><tspan y="-486.092" x="292.435">:</tspan></text>
<text xml:space="preserve" transform="matrix(1 0 -0 1 0 841.89)" font-size="11.95517" font-family="LMRoman12"><tspan y="-486.092" x="299.589 307.55116 310.80296 316.66099 322.519 327.07395 331.68864 338.19224 344.05027 347.30207 351.857">Pivotspalte</tspan></text>
<path transform="matrix(1,0,0,-1,56.693,359.98204)" stroke-width=".398" stroke-linecap="butt" stroke-miterlimit="10" stroke-linejoin="miter" fill="none" stroke="#000000" d="M 0 0 L 481.89 0 "/>
<text xml:space="preserve" transform="matrix(1 0 -0 1 0 841.89)" font-size="5.97758" font-family="LMRoman6"><tspan y="-470.351" x="48.059">1</tspan></text>
<text fill="#008000" xml:space="preserve" transform="matrix(1 0 -0 1 0 841.89)" font-size="9.96264" font-family="LMMono10"><tspan y="-470.351" x="57.39 63.31777">//</tspan></text>
<text fill="#008000" xml:space="preserve" transform="matrix(1 0 -0 1 0 841.89)" font-size="9.96264" font-family="LMMono10"><tspan y="-470.351" x="70.205 76.3918 82.5786 88.765399 94.96216 101.14896 107.335758 113.52255 119.719318 125.90611 132.09293">Pivotspalte</tspan></text>
<text fill="#008000" xml:space="preserve" transform="matrix(1 0 -0 1 0 841.89)" font-size="9.96264" font-family="LMMono10"><tspan y="-470.351" x="145.515 151.69185 157.87866 164.05551 170.23236 176.41918 182.59603 188.78284 194.95969 201.1465">bestimmmen</tspan></text>
<text xml:space="preserve" transform="matrix(1 0 -0 1 0 841.89)" font-size="5.97758" font-family="LMRoman6"><tspan y="-458.396" x="48.059">2</tspan></text>
<text fill="#0000ff" xml:space="preserve" transform="matrix(1 0 -0 1 0 841.89)" font-size="9.96264" font-family="LMMono10"><tspan y="-458.396" x="57.478 63.48547 69.50291">int</tspan></text>
<text xml:space="preserve" transform="matrix(1 0 -0 1 0 841.89)" font-size="9.96264" font-family="LMMono10"><tspan y="-458.396" x="82.714 88.85098 94.99793 101.14488 107.29183 113.43878 119.58573 126.43006 132.35784 139.25199 145.45871 151.65547 157.8622 164.05896 170.26569 176.46245 182.66918 188.86594 195.07266 201.26943 207.47615 213.67292 220.57703 226.5048">Simplex::indexPivotCol()</tspan></text>
<text xml:space="preserve" transform="matrix(1 0 -0 1 0 841.89)" font-size="5.97758" font-family="LMRoman6"><tspan y="-446.441" x="48.059">3</tspan></text>
<text xml:space="preserve" transform="matrix(1 0 -0 1 0 841.89)" font-size="9.96264" font-family="LMMono10"><tspan y="-446.441" x="57.216">{</tspan></text>
<text xml:space="preserve" transform="matrix(1 0 -0 1 0 841.89)" font-size="5.97758" font-family="LMRoman6"><tspan y="-434.486" x="48.059">4</tspan></text>
<text fill="#0000ff" xml:space="preserve" transform="matrix(1 0 -0 1 0 841.89)" font-size="9.96264" font-family="LMMono10"><tspan y="-434.486" x="82.696 88.82302 94.95004 101.077068 107.20409 113.33111">return</tspan></text>
<text xml:space="preserve" transform="matrix(1 0 -0 1 0 841.89)" font-size="9.96264" font-family="LMMono10"><tspan y="-434.486" x="132.796 138.80348 144.82093 151.53575 157.46353 164.34772 170.53453 176.7313 182.9181 189.10492 195.29174 201.4885 207.67531 213.86212 220.04894 226.2457 232.95056 239.22704 245.50351 252.12868 258.23579 264.33293 270.44 276.53715 283.3416 289.26939 295.89454 308.26814 314.5446 321.09004 327.0975 333.11494 339.82975 345.7575 352.2133 364.93559 377.31913 383.59559 390.22074 396.31788 402.42497 408.5221 414.62919 421.4237 427.35148 433.80726">std::min_element(c.begin(),c.end())-c.begin();</tspan></text>
<text xml:space="preserve" transform="matrix(1 0 -0 1 0 841.89)" font-size="5.97758" font-family="LMRoman6"><tspan y="-422.531" x="48.059">5</tspan></text>
<text xml:space="preserve" transform="matrix(1 0 -0 1 0 841.89)" font-size="9.96264" font-family="LMMono10"><tspan y="-422.531" x="57.216">}</tspan></text>
<path transform="matrix(1,0,0,-1,56.693,426.134)" stroke-width=".398" stroke-linecap="butt" stroke-miterlimit="10" stroke-linejoin="miter" fill="none" stroke="#000000" d="M 0 0 L 481.89 0 "/>
<text xml:space="preserve" transform="matrix(1 0 -0 1 0 841.89)" font-size="11.95517" font-family="LMRoman12"><tspan y="-375.381" x="184.513 191.82956 195.08136 199.69606 204.25098 207.50278 214.0064 223.76181 229.61985 232.87165">Listing3.4</tspan></text>
<text xml:space="preserve" transform="matrix(1 0 -0 1 0 841.89)" font-size="11.95517" font-family="LMRoman12"><tspan y="-375.381" x="238.717">:</tspan></text>
<text xml:space="preserve" transform="matrix(1 0 -0 1 0 841.89)" font-size="11.95517" font-family="LMRoman12"><tspan y="-375.381" x="245.871 253.02019 259.5238 262.7756 268.63365 273.24833 277.863 281.1148 286.97285 296.07075 304.0329 307.2847 313.1547 319.01274 323.56767 328.18235 334.68595 340.54399 343.79579 348.33876 357.43666 363.30665 369.16468 373.7196 380.2232 386.08125 392.58485 399.08845 404.28895">Zul&#x00e4;ssigePivotspaltevorhanden</tspan></text>
<path transform="matrix(1,0,0,-1,56.693,470.69303)" stroke-width=".398" stroke-linecap="butt" stroke-miterlimit="10" stroke-linejoin="miter" fill="none" stroke="#000000" d="M 0 0 L 481.89 0 "/>
<text xml:space="preserve" transform="matrix(1 0 -0 1 0 841.89)" font-size="5.97758" font-family="LMRoman6"><tspan y="-359.64" x="48.059">1</tspan></text>
<text fill="#008000" xml:space="preserve" transform="matrix(1 0 -0 1 0 841.89)" font-size="9.96264" font-family="LMMono10"><tspan y="-359.64" x="57.39 63.31777">//</tspan></text>
<text fill="#008000" xml:space="preserve" transform="matrix(1 0 -0 1 0 841.89)" font-size="9.96264" font-family="LMMono10"><tspan y="-359.64" x="70.031 76.03847 82.0559">ist</tspan></text>
<text fill="#008000" xml:space="preserve" transform="matrix(1 0 -0 1 0 841.89)" font-size="9.96264" font-family="LMMono10"><tspan y="-359.64" x="95.224 101.32114 107.42823 113.52537 119.63246">eines</tspan></text>
<text fill="#008000" xml:space="preserve" transform="matrix(1 0 -0 1 0 841.89)" font-size="9.96264" font-family="LMMono10"><tspan y="-359.64" x="132.796 138.80348 144.82093">der</tspan></text>
<text fill="#008000" xml:space="preserve" transform="matrix(1 0 -0 1 0 841.89)" font-size="9.96264" font-family="LMMono10"><tspan y="-359.64" x="158.047 164.20392 170.36084 176.52773 182.68465 188.84157 195.00846 201.16538">Elemente</tspan></text>
<text fill="#008000" xml:space="preserve" transform="matrix(1 0 -0 1 0 841.89)" font-size="9.96264" font-family="LMMono10"><tspan y="-359.64" x="214.443 220.51026 226.57752 232.64478">a_it</tspan></text>
<text fill="#008000" xml:space="preserve" transform="matrix(1 0 -0 1 0 841.89)" font-size="9.96264" font-family="LMMono10"><tspan y="-359.64" x="245.773 251.78047 257.7979">der</tspan></text>
<text fill="#008000" xml:space="preserve" transform="matrix(1 0 -0 1 0 841.89)" font-size="9.96264" font-family="LMMono10"><tspan y="-359.64" x="271.054 277.24079 283.42759 289.61439 295.81114 301.99794 308.18473 314.37153 320.56828 326.75508 332.94187">Pivotspalte</tspan></text>
<text fill="#008000" xml:space="preserve" transform="matrix(1 0 -0 1 0 841.89)" font-size="9.96264" font-family="LMMono10"><tspan y="-359.64" x="345.936">t</tspan></text>
<text fill="#008000" xml:space="preserve" transform="matrix(1 0 -0 1 0 841.89)" font-size="9.96264" font-family="LMMono10"><tspan y="-359.64" x="358.803 364.87025 370.93748 377.0047">groe</tspan></text>
<text fill="#008000" xml:space="preserve" transform="matrix(1 0 -0 1 0 841.89)" font-size="9.96264" font-family="LMMono10"><tspan y="-359.64" x="383.595">&#x00df;</tspan></text>
<text fill="#008000" xml:space="preserve" transform="matrix(1 0 -0 1 0 841.89)" font-size="9.96264" font-family="LMMono10"><tspan y="-359.64" x="390.046 395.97377">er</tspan></text>
<text fill="#008000" xml:space="preserve" transform="matrix(1 0 -0 1 0 841.89)" font-size="9.96264" font-family="LMMono10"><tspan y="-359.64" x="408.702">0</tspan></text>
<text fill="#008000" xml:space="preserve" transform="matrix(1 0 -0 1 0 841.89)" font-size="9.96264" font-family="LMMono10"><tspan y="-359.64" x="421.628 427.755 433.88203">--&#x003e;</tspan></text>
<text fill="#008000" xml:space="preserve" transform="matrix(1 0 -0 1 0 841.89)" font-size="9.96264" font-family="LMMono10"><tspan y="-359.64" x="446.675 452.74223 458.80946 464.87669">a_it</tspan></text>
<text fill="#008000" xml:space="preserve" transform="matrix(1 0 -0 1 0 841.89)" font-size="9.96264" font-family="LMMono10"><tspan y="-359.64" x="477.918">&#x003e;</tspan></text>
<text fill="#008000" xml:space="preserve" transform="matrix(1 0 -0 1 0 841.89)" font-size="9.96264" font-family="LMMono10"><tspan y="-359.64" x="490.296">0</tspan></text>
<text xml:space="preserve" transform="matrix(1 0 -0 1 0 841.89)" font-size="5.97758" font-family="LMRoman6"><tspan y="-347.685" x="48.059">2</tspan></text>
<text fill="#0000ff" xml:space="preserve" transform="matrix(1 0 -0 1 0 841.89)" font-size="9.96264" font-family="LMMono10"><tspan y="-347.685" x="57.53 63.597246 69.66449 75.731739">bool</tspan></text>
<text xml:space="preserve" transform="matrix(1 0 -0 1 0 841.89)" font-size="9.96264" font-family="LMMono10"><tspan y="-347.685" x="88.991 95.12798 101.27493 107.42188 113.56883 119.71578 125.86273 132.70708 138.63486 145.53897 151.75566 157.96239 164.16912 170.3858 176.59253 182.80922 189.01595 195.23264 201.43936 207.65605 213.86278 220.0695 226.2862 232.49292 239.22768">Simplex::isColPivotValid(</tspan></text>
<text fill="#0000ff" xml:space="preserve" transform="matrix(1 0 -0 1 0 841.89)" font-size="9.96264" font-family="LMMono10"><tspan y="-347.685" x="245.773 251.78047 257.7979">int</tspan></text>
<text xml:space="preserve" transform="matrix(1 0 -0 1 0 841.89)" font-size="9.96264" font-family="LMMono10"><tspan y="-347.685" x="270.618 276.89448">t)</tspan></text>
<text xml:space="preserve" transform="matrix(1 0 -0 1 0 841.89)" font-size="5.97758" font-family="LMRoman6"><tspan y="-335.73" x="48.059">3</tspan></text>
<text xml:space="preserve" transform="matrix(1 0 -0 1 0 841.89)" font-size="9.96264" font-family="LMMono10"><tspan y="-335.73" x="57.216">{</tspan></text>
<text xml:space="preserve" transform="matrix(1 0 -0 1 0 841.89)" font-size="5.97758" font-family="LMRoman6"><tspan y="-323.774" x="48.059">4</tspan></text>
<text fill="#0000ff" xml:space="preserve" transform="matrix(1 0 -0 1 0 841.89)" font-size="9.96264" font-family="LMMono10"><tspan y="-323.774" x="82.584 88.59147 94.6089">for</tspan></text>
<text xml:space="preserve" transform="matrix(1 0 -0 1 0 841.89)" font-size="9.96264" font-family="LMMono10"><tspan y="-323.774" x="107.428">(</tspan></text>
<text fill="#0000ff" xml:space="preserve" transform="matrix(1 0 -0 1 0 841.89)" font-size="9.96264" font-family="LMMono10"><tspan y="-323.774" x="113.966 119.97347 125.990909">int</tspan></text>
<text xml:space="preserve" transform="matrix(1 0 -0 1 0 841.89)" font-size="9.96264" font-family="LMMono10"><tspan y="-323.774" x="138.811 151.36394 164.08625 170.01403 182.74628 195.46858 208.161 214.22826 220.29552 226.36278 232.95806 245.68036 251.60814 258.06394 264.3404">i=0;i&#x003c;rows;++i)</tspan></text>
<text xml:space="preserve" transform="matrix(1 0 -0 1 0 841.89)" font-size="5.97758" font-family="LMRoman6"><tspan y="-311.819" x="48.059">5</tspan></text>
<text xml:space="preserve" transform="matrix(1 0 -0 1 0 841.89)" font-size="9.96264" font-family="LMMono10"><tspan y="-311.819" x="82.322">{</tspan></text>
<text xml:space="preserve" transform="matrix(1 0 -0 1 0 841.89)" font-size="5.97758" font-family="LMRoman6"><tspan y="-299.864" x="48.059">6</tspan></text>
<text fill="#0000ff" xml:space="preserve" transform="matrix(1 0 -0 1 0 841.89)" font-size="9.96264" font-family="LMMono10"><tspan y="-299.864" x="107.603 113.53077">if</tspan></text>
<text xml:space="preserve" transform="matrix(1 0 -0 1 0 841.89)" font-size="9.96264" font-family="LMMono10"><tspan y="-299.864" x="126.258 132.53447 138.81095 145.08742 151.53325 157.46103 163.91683 170.1933 182.9156 195.46854 201.39632">(A[i][t]&#x003e;0)</tspan></text>
<text xml:space="preserve" transform="matrix(1 0 -0 1 0 841.89)" font-size="5.97758" font-family="LMRoman6"><tspan y="-287.909" x="48.059">7</tspan></text>
<text fill="#0000ff" xml:space="preserve" transform="matrix(1 0 -0 1 0 841.89)" font-size="9.96264" font-family="LMMono10"><tspan y="-287.909" x="132.908 139.03504 145.16207 151.2891 157.41613 163.54315">return</tspan></text>
<text fill="#0000ff" xml:space="preserve" transform="matrix(1 0 -0 1 0 841.89)" font-size="9.96264" font-family="LMMono10"><tspan y="-287.909" x="176.784 182.85126 188.91852 194.98578">true</tspan></text>
<text xml:space="preserve" transform="matrix(1 0 -0 1 0 841.89)" font-size="9.96264" font-family="LMMono10"><tspan y="-287.909" x="201.576">;</tspan></text>
<text xml:space="preserve" transform="matrix(1 0 -0 1 0 841.89)" font-size="5.97758" font-family="LMRoman6"><tspan y="-275.954" x="48.059">8</tspan></text>
<text xml:space="preserve" transform="matrix(1 0 -0 1 0 841.89)" font-size="9.96264" font-family="LMMono10"><tspan y="-275.954" x="82.322">}</tspan></text>
<text xml:space="preserve" transform="matrix(1 0 -0 1 0 841.89)" font-size="5.97758" font-family="LMRoman6"><tspan y="-263.999" x="48.059">9</tspan></text>
<text fill="#0000ff" xml:space="preserve" transform="matrix(1 0 -0 1 0 841.89)" font-size="9.96264" font-family="LMMono10"><tspan y="-263.999" x="82.696 88.82302 94.95004 101.077068 107.20409 113.33111">return</tspan></text>
<text fill="#0000ff" xml:space="preserve" transform="matrix(1 0 -0 1 0 841.89)" font-size="9.96264" font-family="LMMono10"><tspan y="-263.999" x="126.606 132.70314 138.81024 144.90738 151.01448">false</tspan></text>
<text xml:space="preserve" transform="matrix(1 0 -0 1 0 841.89)" font-size="9.96264" font-family="LMMono10"><tspan y="-263.999" x="157.64">;</tspan></text>
<text xml:space="preserve" transform="matrix(1 0 -0 1 0 841.89)" font-size="5.97758" font-family="LMRoman6"><tspan y="-252.043" x="44.406 48.0583">10</tspan></text>
<text xml:space="preserve" transform="matrix(1 0 -0 1 0 841.89)" font-size="9.96264" font-family="LMMono10"><tspan y="-252.043" x="57.216">}</tspan></text>
<path transform="matrix(1,0,0,-1,56.693,596.62106)" stroke-width=".398" stroke-linecap="butt" stroke-miterlimit="10" stroke-linejoin="miter" fill="none" stroke="#000000" d="M 0 0 L 481.89 0 "/>
<text xml:space="preserve" transform="matrix(1 0 -0 1 0 841.89)" font-size="11.95517" font-family="LMRoman12"><tspan y="-20.306" x="291.785 297.64305">19</tspan></text>
</g>
</svg>
