<?xml version="1.0" encoding="UTF-8" standalone="no"?>
<!DOCTYPE svg PUBLIC "-//W3C//DTD SVG 1.1//EN" "http://www.w3.org/Graphics/SVG/1.1/DTD/svg11.dtd">
<svg xmlns="http://www.w3.org/2000/svg" xmlns:xlink="http://www.w3.org/1999/xlink" version="1.1" width="595.276pt" height="841.89pt" viewBox="0 0 595.276 841.89">
<g enable-background="new">
<text xml:space="preserve" transform="matrix(1 0 -0 1 0 841.89)" font-size="17.21544" font-family="LMRoman17"><tspan y="-773.242" x="56.693 64.59489 68.89875 84.68531 96.85663 105.65372 113.5556 117.85947 124.84894 136.14228 144.93936 149.24323 162.53354 171.33063 175.63449 182.62397 190.97345 196.17252 208.10282 212.40668 220.30857 228.21045 234.30472 238.60858 244.70285 253.49994 266.35987 275.15696">3.2DualerSimplex-Algorithmus</tspan></text>
<text xml:space="preserve" transform="matrix(1 0 -0 1 0 841.89)" font-size="11.95517" font-family="LMRoman12"><tspan y="-737.991" x="227.533 234.84957 238.10137 242.71607 247.27098 250.52278 257.0264 266.78184 272.63987 275.89167">Listing3.7</tspan></text>
<text xml:space="preserve" transform="matrix(1 0 -0 1 0 841.89)" font-size="11.95517" font-family="LMRoman12"><tspan y="-737.991" x="281.736">:</tspan></text>
<text xml:space="preserve" transform="matrix(1 0 -0 1 0 841.89)" font-size="11.95517" font-family="LMRoman12"><tspan y="-737.991" x="288.89 297.8325 304.3361 310.19413 313.44593 318.64643 327.09877 333.60237 336.85417 346.6096 353.1132 356.365 361.5655">DualerSimplex</tspan></text>
<path transform="matrix(1,0,0,-1,56.693,108.083988)" stroke-width=".398" stroke-linecap="butt" stroke-miterlimit="10" stroke-linejoin="miter" fill="none" stroke="#000000" d="M 0 0 L 481.89 0 "/>
<text xml:space="preserve" transform="matrix(1 0 -0 1 0 841.89)" font-size="5.97758" font-family="LMRoman6"><tspan y="-722.25" x="48.059">1</tspan></text>
<text fill="#008000" xml:space="preserve" transform="matrix(1 0 -0 1 0 841.89)" font-size="9.96264" font-family="LMMono10"><tspan y="-722.25" x="82.496 88.423778">//</tspan></text>
<text fill="#008000" xml:space="preserve" transform="matrix(1 0 -0 1 0 841.89)" font-size="9.96264" font-family="LMMono10"><tspan y="-722.25" x="95.267 101.403987 107.550937 113.69788 119.84483 125.99178 132.13874">Abfrage</tspan></text>
<text fill="#008000" xml:space="preserve" transform="matrix(1 0 -0 1 0 841.89)" font-size="9.96264" font-family="LMMono10"><tspan y="-722.25" x="145.262 151.18978">ob</tspan></text>
<text fill="#008000" xml:space="preserve" transform="matrix(1 0 -0 1 0 841.89)" font-size="9.96264" font-family="LMMono10"><tspan y="-722.25" x="164.178 170.18547 176.20291">der</tspan></text>
<text fill="#008000" xml:space="preserve" transform="matrix(1 0 -0 1 0 841.89)" font-size="9.96264" font-family="LMMono10"><tspan y="-722.25" x="189.397 195.52404 201.65106 207.77809 213.90512 220.03215">Vektor</tspan></text>
<text fill="#008000" xml:space="preserve" transform="matrix(1 0 -0 1 0 841.89)" font-size="9.96264" font-family="LMMono10"><tspan y="-722.25" x="232.959">b</tspan></text>
<text fill="#008000" xml:space="preserve" transform="matrix(1 0 -0 1 0 841.89)" font-size="9.96264" font-family="LMMono10"><tspan y="-722.25" x="245.861 251.95813 258.06523 264.16236 270.26945">nicht</tspan></text>
<text fill="#008000" xml:space="preserve" transform="matrix(1 0 -0 1 0 841.89)" font-size="9.96264" font-family="LMMono10"><tspan y="-722.25" x="283.578 289.7349 295.89179 302.05867 308.21556 314.37245 320.5393 326.6962">negative</tspan></text>
<text fill="#008000" xml:space="preserve" transform="matrix(1 0 -0 1 0 841.89)" font-size="9.96264" font-family="LMMono10"><tspan y="-722.25" x="340.067 346.22389 352.38078 358.54765 364.70454 370.86143 377.0283 383.18519">Elemente</tspan></text>
<text fill="#008000" xml:space="preserve" transform="matrix(1 0 -0 1 0 841.89)" font-size="9.96264" font-family="LMMono10"><tspan y="-722.25" x="396.541 402.67796 408.8249 414.97184 421.11878 427.26573 433.41267">auweist</tspan></text>
<text fill="#008000" xml:space="preserve" transform="matrix(1 0 -0 1 0 841.89)" font-size="9.96264" font-family="LMMono10"><tspan y="-722.25" x="446.734 452.86103 458.98805">--&#x003e;</tspan></text>
<text fill="#008000" xml:space="preserve" transform="matrix(1 0 -0 1 0 841.89)" font-size="9.96264" font-family="LMMono10"><tspan y="-722.25" x="471.815 477.91215 484.01924 490.11637 496.22346">nicht</tspan></text>
<text fill="#008000" xml:space="preserve" transform="matrix(1 0 -0 1 0 841.89)" font-size="9.96264" font-family="CMSY10" font-style="italic"><tspan y="-722.25" x="508.603">&#x2190;</tspan></text>
<text fill="#008000" xml:space="preserve" transform="matrix(1 0 -0 1 0 841.89)" font-size="9.96264" font-family="CMMI10" font-style="italic"><tspan y="-722.25" x="516.905">&#xfffd;</tspan></text>
<text fill="#008000" xml:space="preserve" transform="matrix(1 0 -0 1 0 841.89)" font-size="9.96264" font-family="LMMono10"><tspan y="-710.294" x="102.675 108.85184 115.038639 121.21547 127.3923 133.57912 139.75597 145.94278 152.11963 158.30644">zulaessige</tspan></text>
<text fill="#008000" xml:space="preserve" transform="matrix(1 0 -0 1 0 841.89)" font-size="9.96264" font-family="LMMono10"><tspan y="-710.294" x="171.732 177.91881 184.11557 190.31233 196.5091 202.70586 208.90262 215.09938 221.29615 227.4929 233.68967 239.88643">Basisloesung</tspan></text>
<text fill="#008000" xml:space="preserve" transform="matrix(1 0 -0 1 0 841.89)" font-size="9.96264" font-family="LMMono10"><tspan y="-710.294" x="253.258 259.385 265.51203">--&#x003e;</tspan></text>
<text fill="#008000" xml:space="preserve" transform="matrix(1 0 -0 1 0 841.89)" font-size="9.96264" font-family="LMMono10"><tspan y="-710.294" x="272.087 278.21403 284.34104 290.46806 296.59507 302.72209">dualer</tspan></text>
<text fill="#008000" xml:space="preserve" transform="matrix(1 0 -0 1 0 841.89)" font-size="9.96264" font-family="LMMono10"><tspan y="-710.294" x="315.911 321.9185 327.9359 333.95335 339.97077 345.97825">Siplex</tspan></text>
<text fill="#008000" xml:space="preserve" transform="matrix(1 0 -0 1 0 841.89)" font-size="9.96264" font-family="LMMono10"><tspan y="-710.294" x="353.308">-</tspan></text>
<text fill="#008000" xml:space="preserve" transform="matrix(1 0 -0 1 0 841.89)" font-size="9.96264" font-family="LMMono10"><tspan y="-710.294" x="360.021 366.2078 372.3946 378.5814 384.77815 390.96495 397.15174 403.33854 409.53529 415.72209 421.90888">Algorithmus</tspan></text>
<text fill="#008000" xml:space="preserve" transform="matrix(1 0 -0 1 0 841.89)" font-size="9.96264" font-family="LMMono10"><tspan y="-710.294" x="428.627">.</tspan></text>
<text fill="#008000" xml:space="preserve" transform="matrix(1 0 -0 1 0 841.89)" font-size="9.96264" font-family="LMMono10"><tspan y="-710.294" x="441.494 447.56123 453.62846 459.69569">Wenn</tspan></text>
<text fill="#008000" xml:space="preserve" transform="matrix(1 0 -0 1 0 841.89)" font-size="9.96264" font-family="LMMono10"><tspan y="-710.294" x="472.876 478.94325 485.01048 491.0777">kein</tspan></text>
<text fill="#008000" xml:space="preserve" transform="matrix(1 0 -0 1 0 841.89)" font-size="9.96264" font-family="LMMono10"><tspan y="-710.294" x="503.945">b</tspan></text>
<text fill="#008000" xml:space="preserve" transform="matrix(1 0 -0 1 0 841.89)" font-size="9.96264" font-family="CMSY10" font-style="italic"><tspan y="-710.294" x="515.975">&#x2190;</tspan></text>
<text fill="#008000" xml:space="preserve" transform="matrix(1 0 -0 1 0 841.89)" font-size="9.96264" font-family="CMMI10" font-style="italic"><tspan y="-710.294" x="524.277">&#xfffd;</tspan></text>
<text fill="#008000" xml:space="preserve" transform="matrix(1 0 -0 1 0 841.89)" font-size="9.96264" font-family="LMMono10"><tspan y="-698.339" x="102.596 108.69314 114.80023 120.89737 127.00446">nicht</tspan></text>
<text fill="#008000" xml:space="preserve" transform="matrix(1 0 -0 1 0 841.89)" font-size="9.96264" font-family="LMMono10"><tspan y="-698.339" x="140.313 146.46993 152.62685 158.79373 164.95066 171.10758 177.27446 183.43138">negative</tspan></text>
<text fill="#008000" xml:space="preserve" transform="matrix(1 0 -0 1 0 841.89)" font-size="9.96264" font-family="LMMono10"><tspan y="-698.339" x="196.802 202.95893 209.11585 215.28273 221.43965 227.59658 233.76346 239.92038">Elemente</tspan></text>
<text fill="#008000" xml:space="preserve" transform="matrix(1 0 -0 1 0 841.89)" font-size="9.96264" font-family="LMMono10"><tspan y="-698.339" x="253.291 259.4479 265.6048 271.77168 277.92857 284.08546 290.25233 296.4092">aufweist</tspan></text>
<text fill="#008000" xml:space="preserve" transform="matrix(1 0 -0 1 0 841.89)" font-size="9.96264" font-family="LMMono10"><tspan y="-698.339" x="309.687 315.75425 321.82148 327.8887">dann</tspan></text>
<text fill="#008000" xml:space="preserve" transform="matrix(1 0 -0 1 0 841.89)" font-size="9.96264" font-family="LMMono10"><tspan y="-698.339" x="341.104 347.20115 353.30824 359.40538 365.51246">liegt</tspan></text>
<text fill="#008000" xml:space="preserve" transform="matrix(1 0 -0 1 0 841.89)" font-size="9.96264" font-family="LMMono10"><tspan y="-698.339" x="378.807 384.94398 391.0909 397.23786 403.3848 409.53175 415.67869">bereits</tspan></text>
<text fill="#008000" xml:space="preserve" transform="matrix(1 0 -0 1 0 841.89)" font-size="9.96264" font-family="LMMono10"><tspan y="-698.339" x="428.941 435.00825 441.07548 447.1427">eine</tspan></text>
<text fill="#008000" xml:space="preserve" transform="matrix(1 0 -0 1 0 841.89)" font-size="9.96264" font-family="LMMono10"><tspan y="-698.339" x="460.437 466.61384 472.80064 478.97746 485.15428 491.34107 497.51789 503.70469 509.8815 516.0683">zulaessige</tspan></text>
<text fill="#008000" xml:space="preserve" transform="matrix(1 0 -0 1 0 841.89)" font-size="9.96264" font-family="CMSY10" font-style="italic"><tspan y="-698.339" x="522.252">&#x2190;</tspan></text>
<text fill="#008000" xml:space="preserve" transform="matrix(1 0 -0 1 0 841.89)" font-size="9.96264" font-family="CMMI10" font-style="italic"><tspan y="-698.339" x="530.554">&#xfffd;</tspan></text>
<text fill="#008000" xml:space="preserve" transform="matrix(1 0 -0 1 0 841.89)" font-size="9.96264" font-family="LMMono10"><tspan y="-686.384" x="108.966 115.162769 121.34956 127.546329 133.74309 139.93985 146.13661 152.33338 158.53014 164.7269 170.92366 177.12042">Basisloesung</tspan></text>
<text fill="#008000" xml:space="preserve" transform="matrix(1 0 -0 1 0 841.89)" font-size="9.96264" font-family="LMMono10"><tspan y="-686.384" x="190.38 196.38748 202.40493">vor</tspan></text>
<text xml:space="preserve" transform="matrix(1 0 -0 1 0 841.89)" font-size="5.97758" font-family="LMRoman6"><tspan y="-674.429" x="48.059">2</tspan></text>
<text fill="#0000ff" xml:space="preserve" transform="matrix(1 0 -0 1 0 841.89)" font-size="9.96264" font-family="LMMono10"><tspan y="-674.429" x="82.671 88.768138 94.87523 100.97237 107.07946">while</tspan></text>
<text xml:space="preserve" transform="matrix(1 0 -0 1 0 841.89)" font-size="9.96264" font-family="LMMono10"><tspan y="-674.429" x="120.156 126.08377 132.91815 139.06511 145.21207 151.35903 157.50598 163.65294 169.7999 176.4649 183.17974 189.36655 195.55336 201.75012 207.93694 214.12375 220.31056 226.50733 232.69414 238.88095 245.06777 251.96192 257.88969 264.3355">(!simplex.isBaseValid())</tspan></text>
<text xml:space="preserve" transform="matrix(1 0 -0 1 0 841.89)" font-size="5.97758" font-family="LMRoman6"><tspan y="-662.474" x="48.059">3</tspan></text>
<text xml:space="preserve" transform="matrix(1 0 -0 1 0 841.89)" font-size="9.96264" font-family="LMMono10"><tspan y="-662.474" x="101.152">{</tspan></text>
<text xml:space="preserve" transform="matrix(1 0 -0 1 0 841.89)" font-size="5.97758" font-family="LMRoman6"><tspan y="-650.519" x="48.059">4</tspan></text>
<text fill="#008000" xml:space="preserve" transform="matrix(1 0 -0 1 0 841.89)" font-size="9.96264" font-family="LMMono10"><tspan y="-650.519" x="126.432 132.35977">//</tspan></text>
<text fill="#008000" xml:space="preserve" transform="matrix(1 0 -0 1 0 841.89)" font-size="9.96264" font-family="LMMono10"><tspan y="-650.519" x="139.203 145.34 151.48696 157.63391 163.78087 169.92783 176.07479">Schritt</tspan></text>
<text fill="#008000" xml:space="preserve" transform="matrix(1 0 -0 1 0 841.89)" font-size="9.96264" font-family="LMMono10"><tspan y="-650.519" x="189.197 195.12479">1:</tspan></text>
<text xml:space="preserve" transform="matrix(1 0 -0 1 0 841.89)" font-size="5.97758" font-family="LMRoman6"><tspan y="-638.563" x="48.059">5</tspan></text>
<text fill="#008000" xml:space="preserve" transform="matrix(1 0 -0 1 0 841.89)" font-size="9.96264" font-family="LMMono10"><tspan y="-638.563" x="126.432 132.35977">//</tspan></text>
<text fill="#008000" xml:space="preserve" transform="matrix(1 0 -0 1 0 841.89)" font-size="9.96264" font-family="LMMono10"><tspan y="-638.563" x="139.125 145.19226 151.25952 157.32678">Wahl</tspan></text>
<text fill="#008000" xml:space="preserve" transform="matrix(1 0 -0 1 0 841.89)" font-size="9.96264" font-family="LMMono10"><tspan y="-638.563" x="170.455 176.46248 182.47992">der</tspan></text>
<text fill="#008000" xml:space="preserve" transform="matrix(1 0 -0 1 0 841.89)" font-size="9.96264" font-family="LMMono10"><tspan y="-638.563" x="195.728 201.90485 208.0817 214.26851 220.44536 226.63217 232.80902 238.99584 245.17269 251.3595">Pivotzeile</tspan></text>
<text fill="#008000" xml:space="preserve" transform="matrix(1 0 -0 1 0 841.89)" font-size="9.96264" font-family="LMMono10"><tspan y="-638.563" x="264.167">s</tspan></text>
<text fill="#008000" xml:space="preserve" transform="matrix(1 0 -0 1 0 841.89)" font-size="9.96264" font-family="LMMono10"><tspan y="-638.563" x="270.618">,</tspan></text>
<text fill="#008000" xml:space="preserve" transform="matrix(1 0 -0 1 0 841.89)" font-size="9.96264" font-family="LMMono10"><tspan y="-638.563" x="283.52 289.61714 295.7242 301.82136 307.92845">Zeile</tspan></text>
<text fill="#008000" xml:space="preserve" transform="matrix(1 0 -0 1 0 841.89)" font-size="9.96264" font-family="LMMono10"><tspan y="-638.563" x="321.092 327.0995 333.1169">mit</tspan></text>
<text fill="#008000" xml:space="preserve" transform="matrix(1 0 -0 1 0 841.89)" font-size="9.96264" font-family="LMMono10"><tspan y="-638.563" x="346.198 352.20549 358.2229">dem</tspan></text>
<text fill="#008000" xml:space="preserve" transform="matrix(1 0 -0 1 0 841.89)" font-size="9.96264" font-family="LMMono10"><tspan y="-638.563" x="371.461 377.62788 383.8047 389.97157 396.14839 402.31526 408.49208 414.65895 420.83576">kleinsten</tspan></text>
<text fill="#008000" xml:space="preserve" transform="matrix(1 0 -0 1 0 841.89)" font-size="9.96264" font-family="LMMono10"><tspan y="-638.563" x="434.069 440.07649 446.0939">b_s</tspan></text>
<text fill="#008000" xml:space="preserve" transform="matrix(1 0 -0 1 0 841.89)" font-size="9.96264" font-family="LMMono10"><tspan y="-638.563" x="459.088">&#x003c;</tspan></text>
<text fill="#008000" xml:space="preserve" transform="matrix(1 0 -0 1 0 841.89)" font-size="9.96264" font-family="LMMono10"><tspan y="-638.563" x="471.467">0</tspan></text>
<text fill="#008000" xml:space="preserve" transform="matrix(1 0 -0 1 0 841.89)" font-size="9.96264" font-family="LMMono10"><tspan y="-638.563" x="484.281 490.28849 496.3059">als</tspan></text>
<text fill="#008000" xml:space="preserve" transform="matrix(1 0 -0 1 0 841.89)" font-size="9.96264" font-family="CMSY10" font-style="italic"><tspan y="-638.563" x="508.603">&#x2190;</tspan></text>
<text fill="#008000" xml:space="preserve" transform="matrix(1 0 -0 1 0 841.89)" font-size="9.96264" font-family="CMMI10" font-style="italic"><tspan y="-638.563" x="516.905">&#xfffd;</tspan></text>
<text fill="#008000" xml:space="preserve" transform="matrix(1 0 -0 1 0 841.89)" font-size="9.96264" font-family="LMMono10"><tspan y="-626.608" x="146.611 152.78784 158.96469 165.1515 171.32836 177.51517 183.69202 189.87883 196.05568 202.2425">Pivotzeile</tspan></text>
<text xml:space="preserve" transform="matrix(1 0 -0 1 0 841.89)" font-size="5.97758" font-family="LMRoman6"><tspan y="-614.653" x="48.059">6</tspan></text>
<text xml:space="preserve" transform="matrix(1 0 -0 1 0 841.89)" font-size="9.96264" font-family="LMMono10"><tspan y="-614.653" x="126.65 132.78699 138.93395 145.0809 151.22786 157.37482 163.52178 170.18679 176.90161 183.08843 189.27524 195.472 201.65882 207.84563 214.04239 220.2292 226.41602 232.60283 238.79959 245.50446 252.17943 258.3264 264.46336 270.6103 276.75724 282.90419 289.05113 295.71614 302.46083 308.6775 314.89418 321.12083 327.3375 333.55418 339.77085 345.98753 352.2042 358.43086 364.64753 370.8642 377.08088 383.29756 389.51423 395.74089 401.95756 408.8716 414.79939 421.2452 427.52168">simplex.setPivotRow(simplex.indexPivotRowDual());</tspan></text>
<text xml:space="preserve" transform="matrix(1 0 -0 1 0 841.89)" font-size="5.97758" font-family="LMRoman6"><tspan y="-602.698" x="48.059">7</tspan><tspan y="-590.743" x="48.059">8</tspan></text>
<text fill="#008000" xml:space="preserve" transform="matrix(1 0 -0 1 0 841.89)" font-size="9.96264" font-family="LMMono10"><tspan y="-590.743" x="126.432 132.35977">//</tspan></text>
<text fill="#008000" xml:space="preserve" transform="matrix(1 0 -0 1 0 841.89)" font-size="9.96264" font-family="LMMono10"><tspan y="-590.743" x="139.203 145.34 151.48696 157.63391 163.78087 169.92783 176.07479">Schritt</tspan></text>
<text fill="#008000" xml:space="preserve" transform="matrix(1 0 -0 1 0 841.89)" font-size="9.96264" font-family="LMMono10"><tspan y="-590.743" x="189.197 195.12479">2:</tspan></text>
<text xml:space="preserve" transform="matrix(1 0 -0 1 0 841.89)" font-size="5.97758" font-family="LMRoman6"><tspan y="-578.788" x="48.059">9</tspan></text>
<text fill="#008000" xml:space="preserve" transform="matrix(1 0 -0 1 0 841.89)" font-size="9.96264" font-family="LMMono10"><tspan y="-578.788" x="126.432 132.35977">//</tspan></text>
<text fill="#008000" xml:space="preserve" transform="matrix(1 0 -0 1 0 841.89)" font-size="9.96264" font-family="LMMono10"><tspan y="-578.788" x="139.218 145.37493 151.53185 157.69873 163.85565 170.01258 176.17946 182.33638">Befindet</tspan></text>
<text fill="#008000" xml:space="preserve" transform="matrix(1 0 -0 1 0 841.89)" font-size="9.96264" font-family="LMMono10"><tspan y="-578.788" x="195.613 201.68027 207.74753 213.81479">sich</tspan></text>
<text fill="#008000" xml:space="preserve" transform="matrix(1 0 -0 1 0 841.89)" font-size="9.96264" font-family="LMMono10"><tspan y="-578.788" x="226.857 232.78478">in</tspan></text>
<text fill="#008000" xml:space="preserve" transform="matrix(1 0 -0 1 0 841.89)" font-size="9.96264" font-family="LMMono10"><tspan y="-578.788" x="245.773 251.78047 257.7979">der</tspan></text>
<text fill="#008000" xml:space="preserve" transform="matrix(1 0 -0 1 0 841.89)" font-size="9.96264" font-family="LMMono10"><tspan y="-578.788" x="271.046 277.2228 283.39964 289.58644 295.76325 301.95005 308.12687 314.31367 320.49049 326.67729">Pivotzeile</tspan></text>
<text fill="#008000" xml:space="preserve" transform="matrix(1 0 -0 1 0 841.89)" font-size="9.96264" font-family="LMMono10"><tspan y="-578.788" x="339.66">s</tspan></text>
<text fill="#008000" xml:space="preserve" transform="matrix(1 0 -0 1 0 841.89)" font-size="9.96264" font-family="LMMono10"><tspan y="-578.788" x="352.527 358.59425 364.66148 370.7287">kein</tspan></text>
<text fill="#008000" xml:space="preserve" transform="matrix(1 0 -0 1 0 841.89)" font-size="9.96264" font-family="LMMono10"><tspan y="-578.788" x="383.909 389.97624 396.04347 402.1107">a_sj</tspan></text>
<text fill="#008000" xml:space="preserve" transform="matrix(1 0 -0 1 0 841.89)" font-size="9.96264" font-family="LMMono10"><tspan y="-578.788" x="415.152">&#x003c;</tspan></text>
<text fill="#008000" xml:space="preserve" transform="matrix(1 0 -0 1 0 841.89)" font-size="9.96264" font-family="LMMono10"><tspan y="-578.788" x="427.531 433.80747">0,</tspan></text>
<text fill="#008000" xml:space="preserve" transform="matrix(1 0 -0 1 0 841.89)" font-size="9.96264" font-family="LMMono10"><tspan y="-578.788" x="446.535 452.46278">so</tspan></text>
<text fill="#008000" xml:space="preserve" transform="matrix(1 0 -0 1 0 841.89)" font-size="9.96264" font-family="LMMono10"><tspan y="-578.788" x="465.583 471.71998 477.8669 484.01387 490.1608 496.30775 502.45469">besitzt</tspan></text>
<text fill="#008000" xml:space="preserve" transform="matrix(1 0 -0 1 0 841.89)" font-size="9.96264" font-family="CMSY10" font-style="italic"><tspan y="-578.788" x="514.879">&#x2190;</tspan></text>
<text fill="#008000" xml:space="preserve" transform="matrix(1 0 -0 1 0 841.89)" font-size="9.96264" font-family="CMMI10" font-style="italic"><tspan y="-578.788" x="523.182">&#xfffd;</tspan></text>
<text fill="#008000" xml:space="preserve" transform="matrix(1 0 -0 1 0 841.89)" font-size="9.96264" font-family="LMMono10"><tspan y="-566.832" x="146.445 152.45249 158.46993">das</tspan></text>
<text fill="#008000" xml:space="preserve" transform="matrix(1 0 -0 1 0 841.89)" font-size="9.96264" font-family="LMMono10"><tspan y="-566.832" x="171.681 177.818 183.96495 190.11191 196.25887 202.40583 208.55278">Problem</tspan></text>
<text fill="#008000" xml:space="preserve" transform="matrix(1 0 -0 1 0 841.89)" font-size="9.96264" font-family="LMMono10"><tspan y="-566.832" x="221.85 227.94715 234.05425 240.15139 246.25849">keine</tspan></text>
<text fill="#008000" xml:space="preserve" transform="matrix(1 0 -0 1 0 841.89)" font-size="9.96264" font-family="LMMono10"><tspan y="-566.832" x="259.589 265.7658 271.94264 278.12944 284.30625 290.49305 296.66987 302.85667 309.03349 315.22029">zulaessige</tspan></text>
<text fill="#008000" xml:space="preserve" transform="matrix(1 0 -0 1 0 841.89)" font-size="9.96264" font-family="LMMono10"><tspan y="-566.832" x="328.645 334.8318 341.02854 347.22529 353.42204 359.61878 365.81553 372.01228 378.209 384.40577 390.6025 396.79927">Basisloesung</tspan></text>
<text fill="#008000" xml:space="preserve" transform="matrix(1 0 -0 1 0 841.89)" font-size="9.96264" font-family="LMMono10"><tspan y="-566.832" x="410.171 416.298 422.42503">--&#x003e;</tspan></text>
<text fill="#008000" xml:space="preserve" transform="matrix(1 0 -0 1 0 841.89)" font-size="9.96264" font-family="LMMono10"><tspan y="-566.832" x="435.296 441.43296 447.5799 453.72685 459.87379 466.02073 472.16767">Abbruch</tspan></text>
<text fill="#008000" xml:space="preserve" transform="matrix(1 0 -0 1 0 841.89)" font-size="9.96264" font-family="LMMono10"><tspan y="-566.832" x="485.377 491.3845 497.40193">des</tspan></text>
<text fill="#008000" xml:space="preserve" transform="matrix(1 0 -0 1 0 841.89)" font-size="9.96264" font-family="CMSY10" font-style="italic"><tspan y="-566.832" x="509.699">&#x2190;</tspan></text>
<text fill="#008000" xml:space="preserve" transform="matrix(1 0 -0 1 0 841.89)" font-size="9.96264" font-family="CMMI10" font-style="italic"><tspan y="-566.832" x="518.001">&#xfffd;</tspan></text>
<text fill="#008000" xml:space="preserve" transform="matrix(1 0 -0 1 0 841.89)" font-size="9.96264" font-family="LMMono10"><tspan y="-554.877" x="146.611 152.78784 158.96469 165.1515 171.32836 177.51517 183.69202 189.87883 196.05568 202.2425">Verfahrens</tspan></text>
<text xml:space="preserve" transform="matrix(1 0 -0 1 0 841.89)" font-size="5.97758" font-family="LMRoman6"><tspan y="-542.922" x="44.406 48.0583">10</tspan></text>
<text fill="#0000ff" xml:space="preserve" transform="matrix(1 0 -0 1 0 841.89)" font-size="9.96264" font-family="LMMono10"><tspan y="-542.922" x="126.432 132.35977">if</tspan></text>
<text xml:space="preserve" transform="matrix(1 0 -0 1 0 841.89)" font-size="9.96264" font-family="LMMono10"><tspan y="-542.922" x="145.262 151.18978 158.02416 164.17111 170.31807 176.46503 182.61199 188.75894 194.9059 201.5709 208.32558 214.55223 220.77889 227.0155 233.24216 239.46881 245.69547 251.92212 258.15873 264.38539 270.61204 276.83869 283.0753 289.30195 295.5286 301.75526 307.99186 314.2185 320.44517 326.6718 332.89848 339.65315 346.3281 352.46507 358.612 364.75895 370.90589 377.05284 383.19978 389.86479 396.5796 402.7664 408.96315 415.14994 421.33674 427.52354 433.72029 439.90708 446.09388 452.28068 458.47743 465.3616 471.28938 477.7352 484.01167">(!simplex.isRowPivotDoubleValid(simplex.getPivotRow()))</tspan></text>
<text xml:space="preserve" transform="matrix(1 0 -0 1 0 841.89)" font-size="5.97758" font-family="LMRoman6"><tspan y="-530.967" x="44.406 48.0583">11</tspan></text>
<text xml:space="preserve" transform="matrix(1 0 -0 1 0 841.89)" font-size="9.96264" font-family="LMMono10"><tspan y="-530.967" x="126.258">{</tspan></text>
<text xml:space="preserve" transform="matrix(1 0 -0 1 0 841.89)" font-size="5.97758" font-family="LMRoman6"><tspan y="-519.012" x="44.406 48.0583">12</tspan></text>
<text xml:space="preserve" transform="matrix(1 0 -0 1 0 841.89)" font-size="9.96264" font-family="LMMono10"><tspan y="-519.012" x="151.738 157.86504 163.99207 170.1191 176.24613 182.37316 189.19757 195.12535 208.16646 214.23372">qDebug()&#x003c;&#x003c;</tspan></text>
<text fill="#ff0000" xml:space="preserve" transform="matrix(1 0 -0 1 0 841.89)" font-size="9.96264" font-family="LMMono10"><tspan y="-519.012" x="226.682">"</tspan></text>
<text fill="#ff0000" xml:space="preserve" transform="matrix(1 0 -0 1 0 841.89)" font-size="9.96264" font-family="LMMono10"><tspan y="-519.012" x="233.22 239.22748 245.24492">Das</tspan></text>
<text fill="#ff0000" xml:space="preserve" transform="matrix(1 0 -0 1 0 841.89)" font-size="9.96264" font-family="LMMono10"><tspan y="-519.012" x="258.457 264.59397 270.7409 276.88786 283.0348 289.18174 295.32868">Problem</tspan></text>
<text fill="#ff0000" xml:space="preserve" transform="matrix(1 0 -0 1 0 841.89)" font-size="9.96264" font-family="LMMono10"><tspan y="-519.012" x="308.539 314.54649 320.5639">hat</tspan></text>
<text fill="#ff0000" xml:space="preserve" transform="matrix(1 0 -0 1 0 841.89)" font-size="9.96264" font-family="LMMono10"><tspan y="-519.012" x="333.732 339.82914 345.93623 352.03337 358.14045">keine</tspan></text>
<text fill="#ff0000" xml:space="preserve" transform="matrix(1 0 -0 1 0 841.89)" font-size="9.96264" font-family="LMMono10"><tspan y="-519.012" x="371.47 377.64683 383.83363 390.01045 396.18727 402.37406 408.55088 414.73768 420.9145 427.1013">zulaessige</tspan></text>
<text fill="#ff0000" xml:space="preserve" transform="matrix(1 0 -0 1 0 841.89)" font-size="9.96264" font-family="LMMono10"><tspan y="-519.012" x="440.527 446.7138 452.91056 459.1073 465.30406 471.5008 477.69755 483.8943 490.09104 496.28779 502.48454 508.68128">Basisloesung</tspan></text>
<text fill="#ff0000" xml:space="preserve" transform="matrix(1 0 -0 1 0 841.89)" font-size="9.96264" font-family="LMMono10"><tspan y="-519.012" x="515.402">"</tspan></text>
<text xml:space="preserve" transform="matrix(1 0 -0 1 0 841.89)" font-size="9.96264" font-family="LMMono10"><tspan y="-519.012" x="521.679">;</tspan></text>
<text xml:space="preserve" transform="matrix(1 0 -0 1 0 841.89)" font-size="5.97758" font-family="LMRoman6"><tspan y="-507.057" x="44.406 48.0583">13</tspan></text>
<text xml:space="preserve" transform="matrix(1 0 -0 1 0 841.89)" font-size="9.96264" font-family="LMMono10"><tspan y="-507.057" x="151.756 157.89299 164.03995 170.1869 176.33386 182.48082 188.62778 195.29279 202.02754 208.24423 214.45096 220.66765 226.87438 233.0811 239.29779 245.50452 251.7212 257.92796 264.14463 270.35136 276.56803 282.77476 288.98149 295.9852 301.99269 308.0101 314.5456">simplex.setSolutionType(3);</tspan></text>
<text xml:space="preserve" transform="matrix(1 0 -0 1 0 841.89)" font-size="5.97758" font-family="LMRoman6"><tspan y="-495.101" x="44.406 48.0583">14</tspan></text>
<text xml:space="preserve" transform="matrix(1 0 -0 1 0 841.89)" font-size="9.96264" font-family="LMMono10"><tspan y="-495.101" x="151.812 158.00876 164.21549 170.41225 176.61898 182.81574 189.02246 195.21923 201.42595 207.62271 213.82944 220.0262 226.23293 232.95772 239.62273 245.76969 251.91664 258.0636 264.21055 270.3475 276.49446 283.1694 289.44587">printSolution(simplex);</tspan></text>
<text xml:space="preserve" transform="matrix(1 0 -0 1 0 841.89)" font-size="5.97758" font-family="LMRoman6"><tspan y="-483.146" x="44.406 48.0583">15</tspan></text>
<text fill="#0000ff" xml:space="preserve" transform="matrix(1 0 -0 1 0 841.89)" font-size="9.96264" font-family="LMMono10"><tspan y="-483.146" x="151.738 157.86504 163.99207 170.1191 176.24613 182.37316">return</tspan></text>
<text xml:space="preserve" transform="matrix(1 0 -0 1 0 841.89)" font-size="9.96264" font-family="LMMono10"><tspan y="-483.146" x="189.023">;</tspan></text>
<text xml:space="preserve" transform="matrix(1 0 -0 1 0 841.89)" font-size="5.97758" font-family="LMRoman6"><tspan y="-471.191" x="44.406 48.0583">16</tspan></text>
<text xml:space="preserve" transform="matrix(1 0 -0 1 0 841.89)" font-size="9.96264" font-family="LMMono10"><tspan y="-471.191" x="126.258">}</tspan></text>
<text xml:space="preserve" transform="matrix(1 0 -0 1 0 841.89)" font-size="5.97758" font-family="LMRoman6"><tspan y="-459.236" x="44.406 48.0583">17</tspan><tspan y="-447.281" x="44.406 48.0583">18</tspan></text>
<text fill="#008000" xml:space="preserve" transform="matrix(1 0 -0 1 0 841.89)" font-size="9.96264" font-family="LMMono10"><tspan y="-447.281" x="126.432 132.35977">//</tspan></text>
<text fill="#008000" xml:space="preserve" transform="matrix(1 0 -0 1 0 841.89)" font-size="9.96264" font-family="LMMono10"><tspan y="-447.281" x="139.247 145.4338 151.62062 157.80744 164.0042 170.19101 176.37783 182.56464 188.7614 194.94821 201.13503">Pivotspalte</tspan></text>
<text fill="#008000" xml:space="preserve" transform="matrix(1 0 -0 1 0 841.89)" font-size="9.96264" font-family="LMMono10"><tspan y="-447.281" x="214.548 220.71489 226.89174 233.05863 239.23548 245.40236 251.57921 257.7461 263.9229">bestimmen</tspan></text>
<text xml:space="preserve" transform="matrix(1 0 -0 1 0 841.89)" font-size="5.97758" font-family="LMRoman6"><tspan y="-435.326" x="44.406 48.0583">19</tspan></text>
<text xml:space="preserve" transform="matrix(1 0 -0 1 0 841.89)" font-size="9.96264" font-family="LMMono10"><tspan y="-435.326" x="126.65 132.78699 138.93395 145.0809 151.22786 157.37482 163.52178 170.18679 176.90161 183.08843 189.27524 195.472 201.65882 207.84563 214.04239 220.2292 226.41602 232.60283 238.79959 245.50446 252.17943 258.3264 264.46336 270.6103 276.75724 282.90419 289.05113 295.71614 302.46083 308.6775 314.89418 321.12083 327.3375 333.55418 339.77085 345.98753 352.2042 358.43086 364.64753 370.8642 377.08088 383.29756 389.51423 395.74089 401.95756 408.8716 414.79939 421.2452 427.52168">simplex.setPivotCol(simplex.indexPivotColDual());</tspan></text>
<text xml:space="preserve" transform="matrix(1 0 -0 1 0 841.89)" font-size="5.97758" font-family="LMRoman6"><tspan y="-423.37" x="44.406 48.0583">20</tspan><tspan y="-411.415" x="44.406 48.0583">21</tspan></text>
<text fill="#008000" xml:space="preserve" transform="matrix(1 0 -0 1 0 841.89)" font-size="9.96264" font-family="LMMono10"><tspan y="-411.415" x="126.432 132.35977">//</tspan></text>
<text fill="#008000" xml:space="preserve" transform="matrix(1 0 -0 1 0 841.89)" font-size="9.96264" font-family="LMMono10"><tspan y="-411.415" x="139.203 145.34 151.48696 157.63391 163.78087 169.92783 176.07479">Schritt</tspan></text>
<text fill="#008000" xml:space="preserve" transform="matrix(1 0 -0 1 0 841.89)" font-size="9.96264" font-family="LMMono10"><tspan y="-411.415" x="189.197 195.12479">3:</tspan></text>
<text xml:space="preserve" transform="matrix(1 0 -0 1 0 841.89)" font-size="5.97758" font-family="LMRoman6"><tspan y="-399.46" x="44.406 48.0583">22</tspan></text>
<text fill="#008000" xml:space="preserve" transform="matrix(1 0 -0 1 0 841.89)" font-size="9.96264" font-family="LMMono10"><tspan y="-399.46" x="126.432 132.35977">//</tspan></text>
<text fill="#008000" xml:space="preserve" transform="matrix(1 0 -0 1 0 841.89)" font-size="9.96264" font-family="LMMono10"><tspan y="-399.46" x="139.286 145.51265 151.7393 157.96596 164.20258 170.42923 176.65589 182.88254 189.10919 195.34581 201.57247 207.79912 214.02577 220.26239 226.48905 232.7157 238.94235 245.17897 251.40563 257.6323 263.85896">Tableautransformation</tspan></text>
<text xml:space="preserve" transform="matrix(1 0 -0 1 0 841.89)" font-size="5.97758" font-family="LMRoman6"><tspan y="-387.505" x="44.406 48.0583">23</tspan></text>
<text xml:space="preserve" transform="matrix(1 0 -0 1 0 841.89)" font-size="9.96264" font-family="LMMono10"><tspan y="-387.505" x="126.65 132.78699 138.93395 145.0809 151.22786 157.37482 163.52178 170.18679 176.88169 183.05854 189.22542 195.40227 201.56916 207.746 213.91289 220.08974 226.25662 233.13085 239.05863 245.50446">simplex.pivotStep();</tspan></text>
<text xml:space="preserve" transform="matrix(1 0 -0 1 0 841.89)" font-size="5.97758" font-family="LMRoman6"><tspan y="-375.55" x="44.406 48.0583">24</tspan><tspan y="-363.595" x="44.406 48.0583">25</tspan></text>
<text fill="#008000" xml:space="preserve" transform="matrix(1 0 -0 1 0 841.89)" font-size="9.96264" font-family="LMMono10"><tspan y="-363.595" x="126.432 132.35977">//</tspan></text>
<text fill="#008000" xml:space="preserve" transform="matrix(1 0 -0 1 0 841.89)" font-size="9.96264" font-family="LMMono10"><tspan y="-363.595" x="138.811 144.55945">BV</tspan></text>
<text fill="#008000" xml:space="preserve" transform="matrix(1 0 -0 1 0 841.89)" font-size="9.96264" font-family="LMMono10"><tspan y="-363.595" x="151.364">,</tspan></text>
<text fill="#008000" xml:space="preserve" transform="matrix(1 0 -0 1 0 841.89)" font-size="9.96264" font-family="LMMono10"><tspan y="-363.595" x="164.178 170.18547 176.20291">NBV</tspan></text>
<text fill="#008000" xml:space="preserve" transform="matrix(1 0 -0 1 0 841.89)" font-size="9.96264" font-family="LMMono10"><tspan y="-363.595" x="189.285 195.29248 201.30992">und</tspan></text>
<text fill="#008000" xml:space="preserve" transform="matrix(1 0 -0 1 0 841.89)" font-size="9.96264" font-family="LMMono10"><tspan y="-363.595" x="214.129">F</tspan></text>
<text fill="#008000" xml:space="preserve" transform="matrix(1 0 -0 1 0 841.89)" font-size="9.96264" font-family="LMMono10"><tspan y="-363.595" x="227.056 233.18303 239.31006 245.43709 251.56412 257.69114">setzen</tspan></text>
<text xml:space="preserve" transform="matrix(1 0 -0 1 0 841.89)" font-size="5.97758" font-family="LMRoman6"><tspan y="-351.639" x="44.406 48.0583">26</tspan></text>
<text xml:space="preserve" transform="matrix(1 0 -0 1 0 841.89)" font-size="9.96264" font-family="LMMono10"><tspan y="-351.639" x="126.65 132.78699 138.93395 145.0809 151.22786 157.37482 163.52178 170.18679 176.9315 183.13823 189.35492 195.57161 201.7883 208.00499 214.22168 220.4284 226.6451 232.86179 239.07848 245.29517 251.51186 257.7186 263.93528 270.15196 277.066 282.99378 289.4396">simplex.setBasePrimParam();</tspan></text>
<text xml:space="preserve" transform="matrix(1 0 -0 1 0 841.89)" font-size="5.97758" font-family="LMRoman6"><tspan y="-339.684" x="44.406 48.0583">27</tspan></text>
<text fill="#008000" xml:space="preserve" transform="matrix(1 0 -0 1 0 841.89)" font-size="9.96264" font-family="LMMono10"><tspan y="-339.684" x="126.432 132.35977">//</tspan></text>
<text fill="#008000" xml:space="preserve" transform="matrix(1 0 -0 1 0 841.89)" font-size="9.96264" font-family="LMMono10"><tspan y="-339.684" x="139.16 145.25714 151.36425 157.46138 163.56848">print</tspan></text>
<text fill="#008000" xml:space="preserve" transform="matrix(1 0 -0 1 0 841.89)" font-size="9.96264" font-family="LMMono10"><tspan y="-339.684" x="176.862 182.999 189.14595 195.29291 201.43987 207.58683 213.73378">Tableau</tspan></text>
<text xml:space="preserve" transform="matrix(1 0 -0 1 0 841.89)" font-size="5.97758" font-family="LMRoman6"><tspan y="-327.729" x="44.406 48.0583">28</tspan></text>
<text xml:space="preserve" transform="matrix(1 0 -0 1 0 841.89)" font-size="9.96264" font-family="LMMono10"><tspan y="-327.729" x="126.7 132.89676 139.08358 145.28034 151.4771 157.67386 163.87062 170.06739 176.26415 182.4609 188.65767 194.85443 201.56926 208.24423 214.39119 220.52819 226.67514 232.8221 238.96906 245.11602 251.78102 258.0575">printTableau(simplex);</tspan></text>
<text xml:space="preserve" transform="matrix(1 0 -0 1 0 841.89)" font-size="5.97758" font-family="LMRoman6"><tspan y="-315.774" x="44.406 48.0583">29</tspan></text>
<text fill="#008000" xml:space="preserve" transform="matrix(1 0 -0 1 0 841.89)" font-size="9.96264" font-family="LMMono10"><tspan y="-315.774" x="126.432 132.35977">//</tspan></text>
<text fill="#008000" xml:space="preserve" transform="matrix(1 0 -0 1 0 841.89)" font-size="9.96264" font-family="LMMono10"><tspan y="-315.774" x="138.811 144.55945">BV</tspan></text>
<text fill="#008000" xml:space="preserve" transform="matrix(1 0 -0 1 0 841.89)" font-size="9.96264" font-family="LMMono10"><tspan y="-315.774" x="151.364">,</tspan></text>
<text fill="#008000" xml:space="preserve" transform="matrix(1 0 -0 1 0 841.89)" font-size="9.96264" font-family="LMMono10"><tspan y="-315.774" x="164.178 170.18547 176.20291">NBV</tspan></text>
<text fill="#008000" xml:space="preserve" transform="matrix(1 0 -0 1 0 841.89)" font-size="9.96264" font-family="LMMono10"><tspan y="-315.774" x="189.285 195.29248 201.30992">und</tspan></text>
<text fill="#008000" xml:space="preserve" transform="matrix(1 0 -0 1 0 841.89)" font-size="9.96264" font-family="LMMono10"><tspan y="-315.774" x="214.129">F</tspan></text>
<text fill="#008000" xml:space="preserve" transform="matrix(1 0 -0 1 0 841.89)" font-size="9.96264" font-family="LMMono10"><tspan y="-315.774" x="227.089 233.24593 239.40285 245.56974 251.72666 257.88356 264.0504 270.2073">ausgeben</tspan></text>
<text xml:space="preserve" transform="matrix(1 0 -0 1 0 841.89)" font-size="5.97758" font-family="LMRoman6"><tspan y="-303.819" x="44.406 48.0583">30</tspan></text>
<text xml:space="preserve" transform="matrix(1 0 -0 1 0 841.89)" font-size="9.96264" font-family="LMMono10"><tspan y="-303.819" x="126.7 132.89676 139.08358 145.28034 151.4771 157.67386 163.87062 170.06739 176.26415 182.4609 188.65767 194.85443 201.56926 208.24423 214.39119 220.52819 226.67514 232.8221 238.96906 245.11602 251.78102 258.0575">printBaseSol(simplex);</tspan></text>
<text xml:space="preserve" transform="matrix(1 0 -0 1 0 841.89)" font-size="5.97758" font-family="LMRoman6"><tspan y="-291.864" x="44.406 48.0583">31</tspan></text>
<text fill="#008000" xml:space="preserve" transform="matrix(1 0 -0 1 0 841.89)" font-size="9.96264" font-family="LMMono10"><tspan y="-291.864" x="126.432 132.35977">//</tspan></text>
<text fill="#008000" xml:space="preserve" transform="matrix(1 0 -0 1 0 841.89)" font-size="9.96264" font-family="LMMono10"><tspan y="-291.864" x="139.253 145.44977 151.63658 157.83335 164.0301 170.22687 176.42363 182.62039 188.81716 195.01392 201.21068 207.40744">Basisloesung</tspan></text>
<text fill="#008000" xml:space="preserve" transform="matrix(1 0 -0 1 0 841.89)" font-size="9.96264" font-family="LMMono10"><tspan y="-291.864" x="220.58 226.50778">in</tspan></text>
<text fill="#008000" xml:space="preserve" transform="matrix(1 0 -0 1 0 841.89)" font-size="9.96264" font-family="LMMono10"><tspan y="-291.864" x="239.584 245.68114 251.78824 257.88539 263.99247">Chart</tspan></text>
<text xml:space="preserve" transform="matrix(1 0 -0 1 0 841.89)" font-size="5.97758" font-family="LMRoman6"><tspan y="-279.908" x="44.406 48.0583">32</tspan></text>
<text fill="#0000ff" xml:space="preserve" transform="matrix(1 0 -0 1 0 841.89)" font-size="9.96264" font-family="LMMono10"><tspan y="-279.908" x="126.432 132.35977">if</tspan></text>
<text xml:space="preserve" transform="matrix(1 0 -0 1 0 841.89)" font-size="9.96264" font-family="LMMono10"><tspan y="-279.908" x="138.811 145.52584 151.7226 157.91936 164.11612 170.31288 176.50965 182.7064 188.89322 195.08998 201.28675 207.4835 213.68027 226.85089 232.77867 245.51093 258.23323 264.16099 277.31166 283.47853 289.65534 295.8222 301.99903 308.1659 314.3427 320.50959 326.6864 339.82713 345.75489 358.6565 364.58427">(numberStruct==2&#x0026;&#x0026;numberGNB==0)</tspan></text>
<text xml:space="preserve" transform="matrix(1 0 -0 1 0 841.89)" font-size="5.97758" font-family="LMRoman6"><tspan y="-267.953" x="44.406 48.0583">33</tspan></text>
<text xml:space="preserve" transform="matrix(1 0 -0 1 0 841.89)" font-size="9.96264" font-family="LMMono10"><tspan y="-267.953" x="151.806 158.00276 164.18958 170.38634 176.5831 182.77986 188.97663 195.17339 201.37015 207.56691 213.76367 219.96044 226.67527 233.35024 239.4972 245.63419 251.78115 257.9281 264.07505 270.222 276.887 283.16346">baseSolChart(simplex);</tspan></text>
<text xml:space="preserve" transform="matrix(1 0 -0 1 0 841.89)" font-size="5.97758" font-family="LMRoman6"><tspan y="-255.998" x="44.406 48.0583">34</tspan></text>
<text xml:space="preserve" transform="matrix(1 0 -0 1 0 841.89)" font-size="9.96264" font-family="LMMono10"><tspan y="-255.998" x="101.152">}</tspan></text>
<path transform="matrix(1,0,0,-1,56.693,592.667)" stroke-width=".398" stroke-linecap="butt" stroke-miterlimit="10" stroke-linejoin="miter" fill="none" stroke="#000000" d="M 0 0 L 481.89 0 "/>
<text xml:space="preserve" transform="matrix(1 0 -0 1 0 841.89)" font-size="11.95517" font-family="LMRoman12"><tspan y="-208.848" x="183.635 190.95156 194.20336 198.81806 203.37297 206.62477 213.12839 222.8838 228.74184 231.99364">Listing3.8</tspan></text>
<text xml:space="preserve" transform="matrix(1 0 -0 1 0 841.89)" font-size="11.95517" font-family="LMRoman12"><tspan y="-208.848" x="237.839">:</tspan></text>
<text xml:space="preserve" transform="matrix(1 0 -0 1 0 841.89)" font-size="11.95517" font-family="LMRoman12"><tspan y="-208.848" x="244.992 252.14119 258.6448 261.8966 267.75465 272.36933 276.984 280.2358 286.09385 295.19175 303.47669 309.33473 313.9494 317.2012 321.8159 325.0677 330.92573 335.5404 342.044 348.5476 358.30305 364.17304 370.03108 374.586 381.0896 386.94764 393.45124 399.95484 405.15534">Zul&#x00e4;ssigeBasisl&#x00f6;sungvorhanden</tspan></text>
<path transform="matrix(1,0,0,-1,56.693,637.226)" stroke-width=".398" stroke-linecap="butt" stroke-miterlimit="10" stroke-linejoin="miter" fill="none" stroke="#000000" d="M 0 0 L 481.89 0 "/>
<text xml:space="preserve" transform="matrix(1 0 -0 1 0 841.89)" font-size="5.97758" font-family="LMRoman6"><tspan y="-193.108" x="48.059">1</tspan></text>
<text fill="#008000" xml:space="preserve" transform="matrix(1 0 -0 1 0 841.89)" font-size="9.96264" font-family="LMMono10"><tspan y="-193.108" x="57.39 63.31777">//</tspan></text>
<text fill="#008000" xml:space="preserve" transform="matrix(1 0 -0 1 0 841.89)" font-size="9.96264" font-family="LMMono10"><tspan y="-193.108" x="70.161 76.29799 82.44494 88.59189 94.73884 100.88579 107.03274">Abfrage</tspan></text>
<text fill="#008000" xml:space="preserve" transform="matrix(1 0 -0 1 0 841.89)" font-size="9.96264" font-family="LMMono10"><tspan y="-193.108" x="120.156 126.08377">ob</tspan></text>
<text fill="#008000" xml:space="preserve" transform="matrix(1 0 -0 1 0 841.89)" font-size="9.96264" font-family="LMMono10"><tspan y="-193.108" x="139.072 145.07949 151.09693">die</tspan></text>
<text fill="#008000" xml:space="preserve" transform="matrix(1 0 -0 1 0 841.89)" font-size="9.96264" font-family="LMMono10"><tspan y="-193.108" x="164.36 170.54682 176.74358 182.94034 189.1371 195.33386 201.53063 207.72739 213.92415 220.12091 226.31768 232.51444">Basisloesung</tspan></text>
<text fill="#008000" xml:space="preserve" transform="matrix(1 0 -0 1 0 841.89)" font-size="9.96264" font-family="LMMono10"><tspan y="-193.108" x="245.93 252.09688 258.2737 264.44059 270.6174 276.78428 282.9611 289.12797 295.30479">zulaessig</tspan></text>
<text fill="#008000" xml:space="preserve" transform="matrix(1 0 -0 1 0 841.89)" font-size="9.96264" font-family="LMMono10"><tspan y="-193.108" x="308.539 314.54649 320.5639">ist</tspan></text>
<text xml:space="preserve" transform="matrix(1 0 -0 1 0 841.89)" font-size="5.97758" font-family="LMRoman6"><tspan y="-181.152" x="48.059">2</tspan></text>
<text fill="#0000ff" xml:space="preserve" transform="matrix(1 0 -0 1 0 841.89)" font-size="9.96264" font-family="LMMono10"><tspan y="-181.152" x="57.53 63.597246 69.66449 75.731739">bool</tspan></text>
<text xml:space="preserve" transform="matrix(1 0 -0 1 0 841.89)" font-size="9.96264" font-family="LMMono10"><tspan y="-181.152" x="88.991 95.12798 101.27493 107.42188 113.56883 119.71578 125.86273 132.70708 138.63486 145.51905 151.70586 157.89267 164.08943 170.27625 176.46306 182.65982 188.84664 195.03345 201.22026 207.41703 214.30121 220.22899">Simplex::isBaseValid()</tspan></text>
<text xml:space="preserve" transform="matrix(1 0 -0 1 0 841.89)" font-size="5.97758" font-family="LMRoman6"><tspan y="-169.197" x="48.059">3</tspan></text>
<text xml:space="preserve" transform="matrix(1 0 -0 1 0 841.89)" font-size="9.96264" font-family="LMMono10"><tspan y="-169.197" x="57.216">{</tspan></text>
<text xml:space="preserve" transform="matrix(1 0 -0 1 0 841.89)" font-size="5.97758" font-family="LMRoman6"><tspan y="-157.242" x="48.059">4</tspan></text>
<text fill="#0000ff" xml:space="preserve" transform="matrix(1 0 -0 1 0 841.89)" font-size="9.96264" font-family="LMMono10"><tspan y="-157.242" x="82.584 88.59147 94.6089">for</tspan></text>
<text xml:space="preserve" transform="matrix(1 0 -0 1 0 841.89)" font-size="9.96264" font-family="LMMono10"><tspan y="-157.242" x="107.428">(</tspan></text>
<text fill="#0000ff" xml:space="preserve" transform="matrix(1 0 -0 1 0 841.89)" font-size="9.96264" font-family="LMMono10"><tspan y="-157.242" x="113.966 119.97347 125.990909">int</tspan></text>
<text xml:space="preserve" transform="matrix(1 0 -0 1 0 841.89)" font-size="9.96264" font-family="LMMono10"><tspan y="-157.242" x="138.811 151.36394 164.08625 170.01403 182.74628 195.46858 208.161 214.22826 220.29552 226.36278 232.95806 245.68036 251.60814 258.06394 264.3404">i=0;i&#x003c;rows;++i)</tspan></text>
<text xml:space="preserve" transform="matrix(1 0 -0 1 0 841.89)" font-size="5.97758" font-family="LMRoman6"><tspan y="-145.287" x="48.059">5</tspan></text>
<text xml:space="preserve" transform="matrix(1 0 -0 1 0 841.89)" font-size="9.96264" font-family="LMMono10"><tspan y="-145.287" x="82.322">{</tspan></text>
<text xml:space="preserve" transform="matrix(1 0 -0 1 0 841.89)" font-size="5.97758" font-family="LMRoman6"><tspan y="-133.332" x="48.059">6</tspan></text>
<text fill="#0000ff" xml:space="preserve" transform="matrix(1 0 -0 1 0 841.89)" font-size="9.96264" font-family="LMMono10"><tspan y="-133.332" x="107.603 113.53077">if</tspan></text>
<text xml:space="preserve" transform="matrix(1 0 -0 1 0 841.89)" font-size="9.96264" font-family="LMMono10"><tspan y="-133.332" x="126.258 132.53447 138.81095 145.08742 151.36389 164.0862 176.63913 182.56691">(b[i]&#x003c;0)</tspan></text>
<text xml:space="preserve" transform="matrix(1 0 -0 1 0 841.89)" font-size="5.97758" font-family="LMRoman6"><tspan y="-121.377" x="48.059">7</tspan></text>
<text fill="#0000ff" xml:space="preserve" transform="matrix(1 0 -0 1 0 841.89)" font-size="9.96264" font-family="LMMono10"><tspan y="-121.377" x="132.908 139.03504 145.16207 151.2891 157.41613 163.54315">return</tspan></text>
<text fill="#0000ff" xml:space="preserve" transform="matrix(1 0 -0 1 0 841.89)" font-size="9.96264" font-family="LMMono10"><tspan y="-121.377" x="176.819 182.91614 189.02324 195.12038 201.22748">false</tspan></text>
<text xml:space="preserve" transform="matrix(1 0 -0 1 0 841.89)" font-size="9.96264" font-family="LMMono10"><tspan y="-121.377" x="207.853">;</tspan></text>
<text xml:space="preserve" transform="matrix(1 0 -0 1 0 841.89)" font-size="5.97758" font-family="LMRoman6"><tspan y="-109.421" x="48.059">8</tspan></text>
<text xml:space="preserve" transform="matrix(1 0 -0 1 0 841.89)" font-size="9.96264" font-family="LMMono10"><tspan y="-109.421" x="82.322">}</tspan></text>
<text xml:space="preserve" transform="matrix(1 0 -0 1 0 841.89)" font-size="5.97758" font-family="LMRoman6"><tspan y="-97.466" x="48.059">9</tspan></text>
<text fill="#0000ff" xml:space="preserve" transform="matrix(1 0 -0 1 0 841.89)" font-size="9.96264" font-family="LMMono10"><tspan y="-97.466" x="82.696 88.82302 94.95004 101.077068 107.20409 113.33111">return</tspan></text>
<text fill="#0000ff" xml:space="preserve" transform="matrix(1 0 -0 1 0 841.89)" font-size="9.96264" font-family="LMMono10"><tspan y="-97.466" x="126.572 132.63925 138.70652 144.77378">true</tspan></text>
<text xml:space="preserve" transform="matrix(1 0 -0 1 0 841.89)" font-size="9.96264" font-family="LMMono10"><tspan y="-97.466" x="151.364">;</tspan></text>
<text xml:space="preserve" transform="matrix(1 0 -0 1 0 841.89)" font-size="5.97758" font-family="LMRoman6"><tspan y="-85.511" x="44.406 48.0583">10</tspan></text>
<text xml:space="preserve" transform="matrix(1 0 -0 1 0 841.89)" font-size="9.96264" font-family="LMMono10"><tspan y="-85.511" x="57.216">}</tspan></text>
<path transform="matrix(1,0,0,-1,56.693,763.154)" stroke-width=".398" stroke-linecap="butt" stroke-miterlimit="10" stroke-linejoin="miter" fill="none" stroke="#000000" d="M 0 0 L 481.89 0 "/>
<text xml:space="preserve" transform="matrix(1 0 -0 1 0 841.89)" font-size="11.95517" font-family="LMRoman12"><tspan y="-20.306" x="291.785 297.64305">21</tspan></text>
</g>
</svg>
