<?xml version="1.0" encoding="UTF-8" standalone="no"?>
<!DOCTYPE svg PUBLIC "-//W3C//DTD SVG 1.1//EN" "http://www.w3.org/Graphics/SVG/1.1/DTD/svg11.dtd">
<svg xmlns="http://www.w3.org/2000/svg" xmlns:xlink="http://www.w3.org/1999/xlink" version="1.1" width="595.276pt" height="841.89pt" viewBox="0 0 595.276 841.89">
<g enable-background="new">
<text xml:space="preserve" transform="matrix(1 0 -0 1 0 841.89)" font-size="11.95517" font-family="LMRoman12"><tspan y="-758.796" x="213.26 223.98378 229.84181 236.02263 239.27443 249.02985 252.28165 257.48216 262.03709">Maximiere</tspan></text>
<text xml:space="preserve" transform="matrix(1 0 -0 1 0 841.89)" font-size="11.95517" font-family="CMMI12" font-style="italic"><tspan y="-758.796" x="269.227">f</tspan></text>
<text xml:space="preserve" transform="matrix(1 0 -0 1 0 841.89)" font-size="11.95517" font-family="CMR12"><tspan y="-758.796" x="276.274">(</tspan></text>
<text xml:space="preserve" transform="matrix(1 0 -0 1 0 841.89)" font-size="11.95517" font-family="CMMI12" font-style="italic"><tspan y="-758.796" x="280.826">x</tspan></text>
<text xml:space="preserve" transform="matrix(1 0 -0 1 0 841.89)" font-size="7.97011" font-family="CMR8"><tspan y="-757.003" x="287.478">1</tspan></text>
<text xml:space="preserve" transform="matrix(1 0 -0 1 0 841.89)" font-size="11.95517" font-family="CMMI12" font-style="italic"><tspan y="-758.796" x="292.21 297.44636">,x</tspan></text>
<text xml:space="preserve" transform="matrix(1 0 -0 1 0 841.89)" font-size="7.97011" font-family="CMR8"><tspan y="-757.003" x="304.107">2</tspan></text>
<text xml:space="preserve" transform="matrix(1 0 -0 1 0 841.89)" font-size="11.95517" font-family="CMR12"><tspan y="-758.796" x="308.839 316.7055 329.1389">)=3</tspan></text>
<text xml:space="preserve" transform="matrix(1 0 -0 1 0 841.89)" font-size="11.95517" font-family="CMMI12" font-style="italic"><tspan y="-758.796" x="336.983">x</tspan></text>
<text xml:space="preserve" transform="matrix(1 0 -0 1 0 841.89)" font-size="7.97011" font-family="CMR8"><tspan y="-757.003" x="343.635">1</tspan></text>
<text xml:space="preserve" transform="matrix(1 0 -0 1 0 841.89)" font-size="11.95517" font-family="CMR12"><tspan y="-758.796" x="351.024 362.78788">+2</tspan></text>
<text xml:space="preserve" transform="matrix(1 0 -0 1 0 841.89)" font-size="11.95517" font-family="CMMI12" font-style="italic"><tspan y="-758.796" x="370.631">x</tspan></text>
<text xml:space="preserve" transform="matrix(1 0 -0 1 0 841.89)" font-size="7.97011" font-family="CMR8"><tspan y="-757.003" x="377.283">2</tspan></text>
<text xml:space="preserve" transform="matrix(1 0 -0 1 0 841.89)" font-size="11.95517" font-family="LMRoman12"><tspan y="-758.796" x="502.668 507.22294 513.081 516.3328 522.19088 528.0489 534.05038">(1.15a)</tspan></text>
<text xml:space="preserve" transform="matrix(1 0 -0 1 0 841.89)" font-size="11.95517" font-family="CMMI12" font-style="italic"><tspan y="-738.223" x="215.391">x</tspan></text>
<text xml:space="preserve" transform="matrix(1 0 -0 1 0 841.89)" font-size="7.97011" font-family="CMR8"><tspan y="-736.43" x="222.043">1</tspan></text>
<text xml:space="preserve" transform="matrix(1 0 -0 1 0 841.89)" font-size="11.95517" font-family="CMR12"><tspan y="-738.223" x="236.738 255.80649">+4</tspan></text>
<text xml:space="preserve" transform="matrix(1 0 -0 1 0 841.89)" font-size="11.95517" font-family="CMMI12" font-style="italic"><tspan y="-738.223" x="263.65">x</tspan></text>
<text xml:space="preserve" transform="matrix(1 0 -0 1 0 841.89)" font-size="7.97011" font-family="CMR8"><tspan y="-736.43" x="270.303">2</tspan></text>
<text xml:space="preserve" transform="matrix(1 0 -0 1 0 841.89)" font-size="11.95517" font-family="CMSY10" font-style="italic"><tspan y="-738.223" x="284.998">&#x2264;</tspan></text>
<text xml:space="preserve" transform="matrix(1 0 -0 1 0 841.89)" font-size="11.95517" font-family="CMR12"><tspan y="-738.223" x="304.259 310.11705">12</tspan></text>
<text xml:space="preserve" transform="matrix(1 0 -0 1 0 841.89)" font-size="11.95517" font-family="CMSY10" font-style="italic"><tspan y="-723.777" x="196.129">&#x2212;</tspan></text>
<text xml:space="preserve" transform="matrix(1 0 -0 1 0 841.89)" font-size="11.95517" font-family="CMMI12" font-style="italic"><tspan y="-723.777" x="215.391">x</tspan></text>
<text xml:space="preserve" transform="matrix(1 0 -0 1 0 841.89)" font-size="7.97011" font-family="CMR8"><tspan y="-721.984" x="222.043">1</tspan></text>
<text xml:space="preserve" transform="matrix(1 0 -0 1 0 841.89)" font-size="11.95517" font-family="CMR12"><tspan y="-723.777" x="236.738 255.80649">+4</tspan></text>
<text xml:space="preserve" transform="matrix(1 0 -0 1 0 841.89)" font-size="11.95517" font-family="CMMI12" font-style="italic"><tspan y="-723.777" x="263.65">x</tspan></text>
<text xml:space="preserve" transform="matrix(1 0 -0 1 0 841.89)" font-size="7.97011" font-family="CMR8"><tspan y="-721.984" x="270.303">2</tspan></text>
<text xml:space="preserve" transform="matrix(1 0 -0 1 0 841.89)" font-size="11.95517" font-family="CMSY10" font-style="italic"><tspan y="-723.777" x="284.998">&#x2265;</tspan></text>
<text xml:space="preserve" transform="matrix(1 0 -0 1 0 841.89)" font-size="11.95517" font-family="CMR12"><tspan y="-723.777" x="310.112">4</tspan></text>
<text xml:space="preserve" transform="matrix(1 0 -0 1 0 841.89)" font-size="11.95517" font-family="LMRoman12"><tspan y="-723.777" x="325.927 332.4306 338.9342">und</tspan></text>
<text xml:space="preserve" transform="matrix(1 0 -0 1 0 841.89)" font-size="11.95517" font-family="CMMI12" font-style="italic"><tspan y="-723.777" x="349.34">x</tspan></text>
<text xml:space="preserve" transform="matrix(1 0 -0 1 0 841.89)" font-size="7.97011" font-family="CMR8"><tspan y="-721.984" x="355.992">1</tspan></text>
<text xml:space="preserve" transform="matrix(1 0 -0 1 0 841.89)" font-size="11.95517" font-family="CMMI12" font-style="italic"><tspan y="-723.777" x="360.724 365.96037">,x</tspan></text>
<text xml:space="preserve" transform="matrix(1 0 -0 1 0 841.89)" font-size="7.97011" font-family="CMR8"><tspan y="-721.984" x="372.621">2</tspan></text>
<text xml:space="preserve" transform="matrix(1 0 -0 1 0 841.89)" font-size="11.95517" font-family="CMSY10" font-style="italic"><tspan y="-723.777" x="380.674">&#x2265;</tspan></text>
<text xml:space="preserve" transform="matrix(1 0 -0 1 0 841.89)" font-size="11.95517" font-family="CMR12"><tspan y="-723.777" x="393.293">0</tspan></text>
<text xml:space="preserve" transform="matrix(1 0 -0 1 0 841.89)" font-size="11.95517" font-family="LMRoman12"><tspan y="-730.9" x="502.164 506.71894 512.57699 515.8288 521.6868 527.54489 534.04849">(1.15b)</tspan><tspan y="-695.533" x="56.693 65.63547 68.887279 76.99288 86.10272 92.60634 97.161258 100.41306 110.16848 113.42029 118.62079 123.175708 129.67932 136.18294 142.04097 146.65567 152.5137 159.01732 162.59192 168.44995 174.30799 181.13439 189.25196 193.80687 198.42157 201.67337 206.87387 213.37749 221.4831 230.66466 233.91646 239.11696 242.36876 247.25843 253.43926 259.94288 266.44648 275.19767 281.0557 284.3075 290.16554 296.02357 303.49555 306.74736">DieOptimierungsaufgabe(sieheGleichung1.15)im</tspan></text>
<text xml:space="preserve" transform="matrix(1 0 -0 1 0 841.89)" font-size="11.95517" font-family="MSBM10"><tspan y="-695.533" x="319.39">R</tspan></text>
<text xml:space="preserve" transform="matrix(1 0 -0 1 0 841.89)" font-size="7.97011" font-family="CMR8"><tspan y="-699.872" x="328.025">2</tspan></text>
<text xml:space="preserve" transform="matrix(1 0 -0 1 0 841.89)" font-size="11.95517" font-family="LMRoman12"><tspan y="-695.533" x="335.669 341.52705 346.72755 352.90837 360.3684 366.872 373.3756 377.93055 382.82023 392.21699 399.7009 404.25584 410.11387 416.61747 421.23216 424.80674 430.66477 435.2197 444.97514 450.83317 455.3881 458.6399 464.49794 473.90666 480.41026 485.61076 493.08274 498.94078 502.19258 505.44438 511.3024 516.50289 526.2583 531.4588 534.71066">gehtdurchTransformationderallgemei-</tspan><tspan y="-681.087" x="56.693 63.196615 68.39711 78.02103 86.79612 91.99662 98.82302 104.02352 110.21629 117.03075 122.23125 128.73487 131.98667 138.49028 144.34832 150.85193 157.35555 163.21358 168.41408 178.038 182.59291 187.20761 190.45941 195.65991 202.16353 210.48433 219.6659 222.9177 228.1182 231.37 236.25966 242.42853 248.93215 255.43576 264.4141 270.27214 273.52394 279.38197 285.24 291.7436 299.41883 305.92243 312.42604 322.04994 328.55354 335.05714 339.61207 344.50175 354.11369 360.61729 363.86909 372.18989 380.15205 383.40385 389.90745 393.48204 399.98564 406.48924 411.04417 417.54777 424.05137 433.0297 438.8997 444.75773 454.36967 460.87327 465.76295 472.26655 475.51835 482.02195 488.52555 492.10014 497.6234 503.48146 508.03639 511.28819 517.14627 523.64987 526.9017 532.1022">nenNebenbedingungen(sieheGleichung1.15b)unddurchdieEinf&#x00fc;hrungvonSchlupfvariablen</tspan><tspan y="-666.641" x="56.693 59.94481 70.34581 75.54631 78.79812 85.30173 94.39961 100.257648 106.43847 112.94208 116.193889 121.74109 127.59912 130.85092 136.05142 142.22029 146.7752 155.8731 164.81557 170.6736 175.22852 179.84322 184.39813 189.59864 192.85044 196.10224 202.60585 209.10947 218.86489 222.11669 232.52965 241.30475 247.16278 251.7177 261.4731 267.33116 270.58296 274.15754 280.01557 284.5705 298.22334 301.47514">ineine&#x00e4;quivalenteDarstellunginNormalformim</tspan></text>
<text xml:space="preserve" transform="matrix(1 0 -0 1 0 841.89)" font-size="11.95517" font-family="MSBM10"><tspan y="-666.641" x="315.1">R</tspan></text>
<text xml:space="preserve" transform="matrix(1 0 -0 1 0 841.89)" font-size="7.97011" font-family="CMR8"><tspan y="-670.98" x="323.735">4</tspan></text>
<text xml:space="preserve" transform="matrix(1 0 -0 1 0 841.89)" font-size="11.95517" font-family="LMRoman12"><tspan y="-666.641" x="332.369 338.8726 345.69898 350.89949 355.4544">&#x00fc;ber:</tspan><tspan y="-637.75" x="162.984 173.70778 179.56581 185.74663 188.99843 198.75385 202.00565 207.20615 211.76107">Maximiere</tspan></text>
<text xml:space="preserve" transform="matrix(1 0 -0 1 0 841.89)" font-size="11.95517" font-family="CMMI12" font-style="italic"><tspan y="-637.75" x="218.951">f</tspan></text>
<text xml:space="preserve" transform="matrix(1 0 -0 1 0 841.89)" font-size="11.95517" font-family="CMR12"><tspan y="-637.75" x="225.997">(</tspan></text>
<text xml:space="preserve" transform="matrix(1 0 -0 1 0 841.89)" font-size="11.95517" font-family="CMMI12" font-style="italic"><tspan y="-637.75" x="230.55">x</tspan></text>
<text xml:space="preserve" transform="matrix(1 0 -0 1 0 841.89)" font-size="7.97011" font-family="CMR8"><tspan y="-635.957" x="237.202">1</tspan></text>
<text xml:space="preserve" transform="matrix(1 0 -0 1 0 841.89)" font-size="11.95517" font-family="CMMI12" font-style="italic"><tspan y="-637.75" x="241.934 247.17037">,x</tspan></text>
<text xml:space="preserve" transform="matrix(1 0 -0 1 0 841.89)" font-size="7.97011" font-family="CMR8"><tspan y="-635.957" x="253.83">2</tspan></text>
<text xml:space="preserve" transform="matrix(1 0 -0 1 0 841.89)" font-size="11.95517" font-family="CMMI12" font-style="italic"><tspan y="-637.75" x="258.562 263.79838">,x</tspan></text>
<text xml:space="preserve" transform="matrix(1 0 -0 1 0 841.89)" font-size="7.97011" font-family="CMR8"><tspan y="-635.957" x="270.459">3</tspan></text>
<text xml:space="preserve" transform="matrix(1 0 -0 1 0 841.89)" font-size="11.95517" font-family="CMMI12" font-style="italic"><tspan y="-637.75" x="275.191 280.42738">,x</tspan></text>
<text xml:space="preserve" transform="matrix(1 0 -0 1 0 841.89)" font-size="7.97011" font-family="CMR8"><tspan y="-635.957" x="287.087">4</tspan></text>
<text xml:space="preserve" transform="matrix(1 0 -0 1 0 841.89)" font-size="11.95517" font-family="CMR12"><tspan y="-637.75" x="291.82 299.68653 312.1199">)=3</tspan></text>
<text xml:space="preserve" transform="matrix(1 0 -0 1 0 841.89)" font-size="11.95517" font-family="CMMI12" font-style="italic"><tspan y="-637.75" x="319.964">x</tspan></text>
<text xml:space="preserve" transform="matrix(1 0 -0 1 0 841.89)" font-size="7.97011" font-family="CMR8"><tspan y="-635.957" x="326.616">1</tspan></text>
<text xml:space="preserve" transform="matrix(1 0 -0 1 0 841.89)" font-size="11.95517" font-family="CMR12"><tspan y="-637.75" x="334.005 345.7689">+2</tspan></text>
<text xml:space="preserve" transform="matrix(1 0 -0 1 0 841.89)" font-size="11.95517" font-family="CMMI12" font-style="italic"><tspan y="-637.75" x="353.612">x</tspan></text>
<text xml:space="preserve" transform="matrix(1 0 -0 1 0 841.89)" font-size="7.97011" font-family="CMR8"><tspan y="-635.957" x="360.264">2</tspan></text>
<text xml:space="preserve" transform="matrix(1 0 -0 1 0 841.89)" font-size="11.95517" font-family="CMR12"><tspan y="-637.75" x="367.653 379.4169">+0</tspan></text>
<text xml:space="preserve" transform="matrix(1 0 -0 1 0 841.89)" font-size="11.95517" font-family="CMMI12" font-style="italic"><tspan y="-637.75" x="387.259">x</tspan></text>
<text xml:space="preserve" transform="matrix(1 0 -0 1 0 841.89)" font-size="7.97011" font-family="CMR8"><tspan y="-635.957" x="393.912">3</tspan></text>
<text xml:space="preserve" transform="matrix(1 0 -0 1 0 841.89)" font-size="11.95517" font-family="CMR12"><tspan y="-637.75" x="401.301 413.06489">+0</tspan></text>
<text xml:space="preserve" transform="matrix(1 0 -0 1 0 841.89)" font-size="11.95517" font-family="CMMI12" font-style="italic"><tspan y="-637.75" x="420.907">x</tspan></text>
<text xml:space="preserve" transform="matrix(1 0 -0 1 0 841.89)" font-size="7.97011" font-family="CMR8"><tspan y="-635.957" x="427.559">4</tspan></text>
<text xml:space="preserve" transform="matrix(1 0 -0 1 0 841.89)" font-size="11.95517" font-family="LMRoman12"><tspan y="-637.75" x="502.668 507.22294 513.081 516.3328 522.19088 528.0489 534.05038">(1.16a)</tspan></text>
<text xml:space="preserve" transform="matrix(1 0 -0 1 0 841.89)" font-size="11.95517" font-family="CMMI12" font-style="italic"><tspan y="-617.177" x="151.976">x</tspan></text>
<text xml:space="preserve" transform="matrix(1 0 -0 1 0 841.89)" font-size="7.97011" font-family="CMR8"><tspan y="-615.384" x="158.628">1</tspan></text>
<text xml:space="preserve" transform="matrix(1 0 -0 1 0 841.89)" font-size="11.95517" font-family="CMR12"><tspan y="-617.177" x="173.42 192.58414">+4</tspan></text>
<text xml:space="preserve" transform="matrix(1 0 -0 1 0 841.89)" font-size="11.95517" font-family="CMMI12" font-style="italic"><tspan y="-617.177" x="200.429">x</tspan></text>
<text xml:space="preserve" transform="matrix(1 0 -0 1 0 841.89)" font-size="7.97011" font-family="CMR8"><tspan y="-615.384" x="207.081">2</tspan></text>
<text xml:space="preserve" transform="matrix(1 0 -0 1 0 841.89)" font-size="11.95517" font-family="CMR12"><tspan y="-617.177" x="221.776">+</tspan></text>
<text xml:space="preserve" transform="matrix(1 0 -0 1 0 841.89)" font-size="11.95517" font-family="CMMI12" font-style="italic"><tspan y="-617.177" x="240.844">x</tspan></text>
<text xml:space="preserve" transform="matrix(1 0 -0 1 0 841.89)" font-size="7.97011" font-family="CMR8"><tspan y="-615.384" x="247.496">3</tspan></text>
<text xml:space="preserve" transform="matrix(1 0 -0 1 0 841.89)" font-size="11.95517" font-family="CMR12"><tspan y="-617.177" x="302.605 325.11659 330.9746">=12</tspan></text>
<text xml:space="preserve" transform="matrix(1 0 -0 1 0 841.89)" font-size="11.95517" font-family="CMMI12" font-style="italic"><tspan y="-602.731" x="151.976">x</tspan></text>
<text xml:space="preserve" transform="matrix(1 0 -0 1 0 841.89)" font-size="7.97011" font-family="CMR8"><tspan y="-600.938" x="158.628">1</tspan></text>
<text xml:space="preserve" transform="matrix(1 0 -0 1 0 841.89)" font-size="11.95517" font-family="CMSY10" font-style="italic"><tspan y="-602.731" x="173.323">&#x2212;</tspan></text>
<text xml:space="preserve" transform="matrix(1 0 -0 1 0 841.89)" font-size="11.95517" font-family="CMR12"><tspan y="-602.731" x="192.584">4</tspan></text>
<text xml:space="preserve" transform="matrix(1 0 -0 1 0 841.89)" font-size="11.95517" font-family="CMMI12" font-style="italic"><tspan y="-602.731" x="200.429">x</tspan></text>
<text xml:space="preserve" transform="matrix(1 0 -0 1 0 841.89)" font-size="7.97011" font-family="CMR8"><tspan y="-600.938" x="207.081">2</tspan></text>
<text xml:space="preserve" transform="matrix(1 0 -0 1 0 841.89)" font-size="11.95517" font-family="CMR12"><tspan y="-602.731" x="262.191">+</tspan></text>
<text xml:space="preserve" transform="matrix(1 0 -0 1 0 841.89)" font-size="11.95517" font-family="CMMI12" font-style="italic"><tspan y="-602.731" x="281.258">x</tspan></text>
<text xml:space="preserve" transform="matrix(1 0 -0 1 0 841.89)" font-size="7.97011" font-family="CMR8"><tspan y="-600.938" x="287.91">4</tspan></text>
<text xml:space="preserve" transform="matrix(1 0 -0 1 0 841.89)" font-size="11.95517" font-family="CMR12"><tspan y="-602.731" x="302.605">=</tspan></text>
<text xml:space="preserve" transform="matrix(1 0 -0 1 0 841.89)" font-size="11.95517" font-family="CMSY10" font-style="italic"><tspan y="-602.731" x="321.672">&#x2212;</tspan></text>
<text xml:space="preserve" transform="matrix(1 0 -0 1 0 841.89)" font-size="11.95517" font-family="CMR12"><tspan y="-602.731" x="330.971">4</tspan></text>
<text xml:space="preserve" transform="matrix(1 0 -0 1 0 841.89)" font-size="11.95517" font-family="LMRoman12"><tspan y="-602.731" x="346.787 353.2906 359.7942">und</tspan></text>
<text xml:space="preserve" transform="matrix(1 0 -0 1 0 841.89)" font-size="11.95517" font-family="CMMI12" font-style="italic"><tspan y="-602.731" x="370.199">x</tspan></text>
<text xml:space="preserve" transform="matrix(1 0 -0 1 0 841.89)" font-size="7.97011" font-family="CMR8"><tspan y="-600.938" x="376.851">1</tspan></text>
<text xml:space="preserve" transform="matrix(1 0 -0 1 0 841.89)" font-size="11.95517" font-family="CMMI12" font-style="italic"><tspan y="-602.731" x="381.584 386.82038">,x</tspan></text>
<text xml:space="preserve" transform="matrix(1 0 -0 1 0 841.89)" font-size="7.97011" font-family="CMR8"><tspan y="-600.938" x="393.48">2</tspan></text>
<text xml:space="preserve" transform="matrix(1 0 -0 1 0 841.89)" font-size="11.95517" font-family="CMMI12" font-style="italic"><tspan y="-602.731" x="398.212 403.44837">,x</tspan></text>
<text xml:space="preserve" transform="matrix(1 0 -0 1 0 841.89)" font-size="7.97011" font-family="CMR8"><tspan y="-600.938" x="410.109">3</tspan></text>
<text xml:space="preserve" transform="matrix(1 0 -0 1 0 841.89)" font-size="11.95517" font-family="CMMI12" font-style="italic"><tspan y="-602.731" x="414.841 420.07737">,x</tspan></text>
<text xml:space="preserve" transform="matrix(1 0 -0 1 0 841.89)" font-size="7.97011" font-family="CMR8"><tspan y="-600.938" x="426.737">4</tspan></text>
<text xml:space="preserve" transform="matrix(1 0 -0 1 0 841.89)" font-size="11.95517" font-family="CMSY10" font-style="italic"><tspan y="-602.731" x="434.79">&#x2265;</tspan></text>
<text xml:space="preserve" transform="matrix(1 0 -0 1 0 841.89)" font-size="11.95517" font-family="CMR12"><tspan y="-602.731" x="447.41">0</tspan></text>
<text xml:space="preserve" transform="matrix(1 0 -0 1 0 841.89)" font-size="11.95517" font-family="LMRoman12"><tspan y="-609.854" x="502.164 506.71894 512.57699 515.8288 521.6868 527.54489 534.04849">(1.16b)</tspan><tspan y="-574.487" x="56.693 65.87457 70.42949 76.28752 82.79114 87.40583 92.28354 102.70845 109.53486 114.73536 119.290279 123.84519 129.70323 134.5929 140.76177 145.31668 150.51718 158.9934 167.4457 170.6975 175.25241 185.68929 192.1929 195.4447 204.5665 209.767 216.27062 219.52242 225.38045 229.99515 234.60985 237.86165 243.71968 252.85344 260.17 266.02806 270.64274 277.14634 283.64994 289.50798 294.12266 303.87809 309.07859 315.58219 321.44023">Gra&#xfb01;schbetrachtetwirddiezul&#x00e4;ssigeL&#x00f6;sungsmenge</tspan></text>
<text xml:space="preserve" transform="matrix(1 0 -0 1 0 841.89)" font-size="11.95517" font-family="CMBX12" font-weight="bold"><tspan y="-574.487" x="330.557">X</tspan></text>
<text xml:space="preserve" transform="matrix(1 0 -0 1 0 841.89)" font-size="11.95517" font-family="LMRoman12"><tspan y="-574.487" x="344.642 351.1456 357.6492 362.20414 367.08186 377.50675 384.01036 387.26216 396.38395 403.2223 408.4228 411.6746 418.1782 423.3787 433.8036 442.57868 447.77919 454.60557 459.80607 465.99885 472.81327 478.01377 484.51737 487.76918 494.27278 500.1308 506.6344 513.138 518.99606 523.6107 529.46878 534.66928">durchdiebeidenNebenbedingungsge-</tspan><tspan y="-560.041" x="56.693 61.24792 67.10596 73.60957 78.810077 89.211078 95.71469 102.21831 112.61931 119.122928 122.37473 131.48458 140.25968 143.51148 148.38919 154.57003 159.12494 165.62856 170.82906 176.68709 182.54512 187.10004 190.35184 196.53266 199.78446 204.33937 210.1974 214.75232 219.36702 226.18148 231.38198 237.88559 241.13739 247.641 253.49904 260.00267 266.50627 272.3643 277.5648 287.9658 294.80415 300.00465 304.61933 309.17427 312.42607 322.1815 331.61415 336.16908 343.31828 347.8732 352.48789 355.7397 360.9402 367.4438 376.5417 385.31678 391.82038 398.32398 401.57579 404.82759 411.33119 417.83479 424.33839 434.0938 439.95185 443.20365 449.06169">radenunddieNichtnegativit&#x00e4;tsbedingungenbestimmt.(sieheAbbildung1.1)</tspan></text>
<path transform="matrix(1,0,0,-1,147.048,559.521)" d="M 0 0 L 323.15455 0 L 323.15455 252.98523 L 0 252.98523 Z " fill="#ffffff"/>
<path transform="matrix(1,0,0,-1,147.048,559.521)" stroke-width=".19925" stroke-linecap="butt" stroke-miterlimit="10" stroke-linejoin="miter" fill="none" stroke="#929292" d="M 0 0 L 0 4.25179 M 26.92953 0 L 26.92953 4.25179 M 53.85909 0 L 53.85909 4.25179 M 80.78862 0 L 80.78862 4.25179 M 107.71817 0 L 107.71817 4.25179 M 134.64772 0 L 134.64772 4.25179 M 161.57726 0 L 161.57726 4.25179 M 188.5068 0 L 188.5068 4.25179 M 215.43636 0 L 215.43636 4.25179 M 242.36589 0 L 242.36589 4.25179 M 269.29545 0 L 269.29545 4.25179 M 296.22499 0 L 296.22499 4.25179 M 323.15455 0 L 323.15455 4.25179 "/>
<path transform="matrix(1,0,0,-1,147.048,559.521)" stroke-width=".19925" stroke-linecap="butt" stroke-miterlimit="10" stroke-linejoin="miter" fill="none" stroke="#929292" d="M 0 0 L 4.25209 0 M 0 31.62315 L 4.25209 31.62315 M 0 63.2463 L 4.25209 63.2463 M 0 94.86946 L 4.25209 94.86946 M 0 126.49261 L 4.25209 126.49261 M 0 158.11577 L 4.25209 158.11577 M 0 189.73892 L 4.25209 189.73892 M 0 221.36208 L 4.25209 221.36208 M 0 252.98523 L 4.25209 252.98523 "/>
<path transform="matrix(1,0,0,-1,147.048,559.521)" stroke-width=".3985" stroke-linecap="butt" stroke-miterlimit="10" stroke-linejoin="miter" fill="none" stroke="#000000" d="M 0 0 L 323.15455 0 "/>
<path transform="matrix(1,0,0,-1,147.048,559.521)" stroke-width=".3985" stroke-linecap="butt" stroke-miterlimit="10" stroke-linejoin="miter" fill="none" stroke="#000000" d="M 0 0 L 0 252.98523 "/>
<text xml:space="preserve" transform="matrix(1 0 -0 1 0 841.89)" font-size="11.95517" font-family="CMR12"><tspan y="-270.564" x="144.121">0</tspan></text>
<text xml:space="preserve" transform="matrix(1 0 -0 1 0 841.89)" font-size="11.95517" font-family="CMR12"><tspan y="-270.564" x="166.498">0</tspan></text>
<text xml:space="preserve" transform="matrix(1 0 -0 1 0 841.89)" font-size="11.95517" font-family="CMMI12" font-style="italic"><tspan y="-270.564" x="172.351">.</tspan></text>
<text xml:space="preserve" transform="matrix(1 0 -0 1 0 841.89)" font-size="11.95517" font-family="CMR12"><tspan y="-270.564" x="175.603">5</tspan></text>
<text xml:space="preserve" transform="matrix(1 0 -0 1 .000015258789 841.89)" font-size="11.95517" font-family="CMR12"><tspan y="-270.564" x="197.98">1</tspan></text>
<text xml:space="preserve" transform="matrix(1 0 -0 1 0 841.89)" font-size="11.95517" font-family="CMR12"><tspan y="-270.564" x="220.357">1</tspan></text>
<text xml:space="preserve" transform="matrix(1 0 -0 1 0 841.89)" font-size="11.95517" font-family="CMMI12" font-style="italic"><tspan y="-270.564" x="226.21">.</tspan></text>
<text xml:space="preserve" transform="matrix(1 0 -0 1 0 841.89)" font-size="11.95517" font-family="CMR12"><tspan y="-270.564" x="229.461">5</tspan></text>
<text xml:space="preserve" transform="matrix(1 0 -0 1 .000015258789 841.89)" font-size="11.95517" font-family="CMR12"><tspan y="-270.564" x="251.838">2</tspan></text>
<text xml:space="preserve" transform="matrix(1 0 -0 1 0 841.89)" font-size="11.95517" font-family="CMR12"><tspan y="-270.564" x="274.215">2</tspan></text>
<text xml:space="preserve" transform="matrix(1 0 -0 1 0 841.89)" font-size="11.95517" font-family="CMMI12" font-style="italic"><tspan y="-270.564" x="280.068">.</tspan></text>
<text xml:space="preserve" transform="matrix(1 0 -0 1 0 841.89)" font-size="11.95517" font-family="CMR12"><tspan y="-270.564" x="283.32">5</tspan></text>
<text xml:space="preserve" transform="matrix(1 0 -0 1 -.000030517579 841.89)" font-size="11.95517" font-family="CMR12"><tspan y="-270.564" x="305.696">3</tspan></text>
<text xml:space="preserve" transform="matrix(1 0 -0 1 0 841.89)" font-size="11.95517" font-family="CMR12"><tspan y="-270.564" x="328.073">3</tspan></text>
<text xml:space="preserve" transform="matrix(1 0 -0 1 0 841.89)" font-size="11.95517" font-family="CMMI12" font-style="italic"><tspan y="-270.564" x="333.926">.</tspan></text>
<text xml:space="preserve" transform="matrix(1 0 -0 1 0 841.89)" font-size="11.95517" font-family="CMR12"><tspan y="-270.564" x="337.178">5</tspan></text>
<text xml:space="preserve" transform="matrix(1 0 -0 1 0 841.89)" font-size="11.95517" font-family="CMR12"><tspan y="-270.564" x="359.555">4</tspan></text>
<text xml:space="preserve" transform="matrix(1 0 -0 1 0 841.89)" font-size="11.95517" font-family="CMR12"><tspan y="-270.564" x="381.932">4</tspan></text>
<text xml:space="preserve" transform="matrix(1 0 -0 1 0 841.89)" font-size="11.95517" font-family="CMMI12" font-style="italic"><tspan y="-270.564" x="387.785">.</tspan></text>
<text xml:space="preserve" transform="matrix(1 0 -0 1 0 841.89)" font-size="11.95517" font-family="CMR12"><tspan y="-270.564" x="391.036">5</tspan></text>
<text xml:space="preserve" transform="matrix(1 0 -0 1 0 841.89)" font-size="11.95517" font-family="CMR12"><tspan y="-270.564" x="413.413">5</tspan></text>
<text xml:space="preserve" transform="matrix(1 0 -0 1 0 841.89)" font-size="11.95517" font-family="CMR12"><tspan y="-270.564" x="435.79">5</tspan></text>
<text xml:space="preserve" transform="matrix(1 0 -0 1 0 841.89)" font-size="11.95517" font-family="CMMI12" font-style="italic"><tspan y="-270.564" x="441.643">.</tspan></text>
<text xml:space="preserve" transform="matrix(1 0 -0 1 0 841.89)" font-size="11.95517" font-family="CMR12"><tspan y="-270.564" x="444.895">5</tspan></text>
<text xml:space="preserve" transform="matrix(1 0 -0 1 0 841.89)" font-size="11.95517" font-family="CMR12"><tspan y="-270.564" x="467.272">6</tspan></text>
<text xml:space="preserve" transform="matrix(1 0 -0 1 .000015258789 841.89)" font-size="11.95517" font-family="CMR12"><tspan y="-278.517" x="137.094">0</tspan></text>
<text xml:space="preserve" transform="matrix(1 0 -0 1 .000015258789 841.89)" font-size="11.95517" font-family="CMR12"><tspan y="-310.14" x="137.094">1</tspan></text>
<text xml:space="preserve" transform="matrix(1 0 -0 1 .000015258789 841.89)" font-size="11.95517" font-family="CMR12"><tspan y="-341.762" x="137.094">2</tspan></text>
<text xml:space="preserve" transform="matrix(1 0 -0 1 .000015258789 841.89)" font-size="11.95517" font-family="CMR12"><tspan y="-373.385" x="137.094">3</tspan></text>
<text xml:space="preserve" transform="matrix(1 0 -0 1 .000015258789 841.89)" font-size="11.95517" font-family="CMR12"><tspan y="-405.008" x="137.094">4</tspan></text>
<text xml:space="preserve" transform="matrix(1 0 -0 1 .000015258789 841.89)" font-size="11.95517" font-family="CMR12"><tspan y="-436.631" x="137.094">5</tspan></text>
<text xml:space="preserve" transform="matrix(1 0 -0 1 .000015258789 841.89)" font-size="11.95517" font-family="CMR12"><tspan y="-468.253" x="137.094">6</tspan></text>
<text xml:space="preserve" transform="matrix(1 0 -0 1 .000015258789 841.89)" font-size="11.95517" font-family="CMR12"><tspan y="-499.876" x="137.094">7</tspan></text>
<text xml:space="preserve" transform="matrix(1 0 -0 1 .000015258789 841.89)" font-size="11.95517" font-family="CMR12"><tspan y="-531.499" x="137.094">8</tspan></text>
<clipPath id="cp0">
<path transform="matrix(1,0,0,-1,147.048,559.521)" d="M 0 0 L 323.15455 0 L 323.15455 252.98523 L 0 252.98523 Z "/>
</clipPath>
<g clip-path="url(#cp0)">
<path transform="matrix(1,0,0,-1,147.048,559.521)" d="M 0 31.62282 L 0 94.86847 L 215.4349 63.24564 Z " fill-opacity=".3"/>
<path transform="matrix(1,0,0,-1,147.048,559.521)" stroke-width=".3985" stroke-linecap="butt" stroke-miterlimit="10" stroke-linejoin="miter" fill="none" stroke="#000000" d="M 0 31.62282 L 0 94.86847 L 215.4349 63.24564 Z "/>
<path transform="matrix(1,0,0,-1,147.048,559.521)" stroke-width=".99628" stroke-linecap="butt" stroke-miterlimit="10" stroke-linejoin="miter" fill="none" stroke="#000000" d="M 0 94.86847 L 5.38586 94.0779 L 10.77173 93.28732 L 16.15761 92.49675 L 21.54347 91.70619 L 26.92935 90.9156 L 32.31523 90.12505 L 37.7011 89.33446 L 43.08698 88.5439 L 48.47285 87.75333 L 53.85872 86.96275 L 59.2446 86.1722 L 64.63046 85.38162 L 70.01634 84.59105 L 75.40222 83.80048 L 80.78809 83.0099 L 86.17395 82.21933 L 91.55981 81.42877 L 96.9457 80.63818 L 102.33157 79.84763 L 107.71744 79.05704 L 113.10332 78.26648 L 118.4892 77.47592 L 123.87506 76.68533 L 129.26094 75.89478 L 134.6468 75.1042 L 140.03269 74.31363 L 145.41857 73.52306 L 150.80443 72.73248 L 156.1903 71.94191 L 161.57617 71.15135 L 166.96205 70.36076 L 172.34792 69.5702 L 177.73378 68.77965 L 183.11966 67.98906 L 188.50554 67.1985 L 193.8914 66.40791 L 199.27729 65.61736 L 204.66315 64.82678 L 210.04903 64.03621 L 215.4349 63.24564 L 220.82077 62.45508 L 226.20665 61.66449 L 231.59252 60.87393 L 236.9784 60.08336 L 242.36428 59.29279 L 247.75014 58.50223 L 253.136 57.71164 L 258.52189 56.92108 L 263.90776 56.1305 L 269.2936 55.33994 L 274.6795 54.54936 L 280.06538 53.75879 L 285.45127 52.96822 L 290.8371 52.17766 L 296.223 51.38708 L 301.60887 50.59651 L 306.99476 49.80594 L 312.3806 49.01537 L 317.76649 48.22481 L 323.15238 47.43422 L 328.53825 46.64366 L 333.9241 45.85309 L 339.30998 45.06252 L 344.69584 44.27194 L 350.0817 43.48137 L 355.4676 42.69081 L 360.85346 41.90024 L 366.23933 41.10966 L 371.6252 40.31909 L 377.01109 39.52852 L 382.39698 38.73795 L 387.7828 37.94739 L 393.1687 37.1568 L 398.55458 36.36624 L 403.94044 35.57567 L 409.32633 34.7851 L 414.7122 33.99454 L 420.09809 33.20395 L 425.48393 32.41339 L 430.8698 31.62282 "/>
<path transform="matrix(1,0,0,-1,147.048,559.521)" stroke-width=".99628" stroke-linecap="butt" stroke-miterlimit="10" stroke-linejoin="miter" fill="none" stroke="#000000" d="M 0 31.62282 L 5.38586 32.41339 L 10.77173 33.20395 L 16.15761 33.99454 L 21.54347 34.7851 L 26.92935 35.57567 L 32.31523 36.36624 L 37.7011 37.1568 L 43.08698 37.94739 L 48.47285 38.73795 L 53.85872 39.52852 L 59.2446 40.31909 L 64.63046 41.10966 L 70.01634 41.90024 L 75.40222 42.69081 L 80.78809 43.48137 L 86.17395 44.27194 L 91.55981 45.06252 L 96.9457 45.85309 L 102.33157 46.64366 L 107.71744 47.43422 L 113.10332 48.22481 L 118.4892 49.01537 L 123.87506 49.80594 L 129.26094 50.59651 L 134.6468 51.38708 L 140.03269 52.17766 L 145.41857 52.96822 L 150.80443 53.75879 L 156.1903 54.54936 L 161.57617 55.33994 L 166.96205 56.1305 L 172.34792 56.92108 L 177.73378 57.71164 L 183.11966 58.50223 L 188.50554 59.29279 L 193.8914 60.08336 L 199.27729 60.87393 L 204.66315 61.66449 L 210.04903 62.45508 L 215.4349 63.24564 L 220.82077 64.03621 L 226.20665 64.82678 L 231.59252 65.61736 L 236.9784 66.40791 L 242.36428 67.1985 L 247.75014 67.98906 L 253.136 68.77965 L 258.52189 69.5702 L 263.90776 70.36076 L 269.2936 71.15135 L 274.6795 71.94191 L 280.06538 72.73248 L 285.45127 73.52306 L 290.8371 74.31363 L 296.223 75.1042 L 301.60887 75.89478 L 306.99476 76.68533 L 312.3806 77.47592 L 317.76649 78.26648 L 323.15238 79.05704 L 328.53825 79.84763 L 333.9241 80.63818 L 339.30998 81.42877 L 344.69584 82.21933 L 350.0817 83.0099 L 355.4676 83.80048 L 360.85346 84.59105 L 366.23933 85.38162 L 371.6252 86.1722 L 377.01109 86.96275 L 382.39698 87.75333 L 387.7828 88.5439 L 393.1687 89.33446 L 398.55458 90.12505 L 403.94044 90.9156 L 409.32633 91.70619 L 414.7122 92.49675 L 420.09809 93.28732 L 425.48393 94.0779 L 430.8698 94.86847 "/>
<text xml:space="preserve" transform="matrix(1 0 -0 1 0 841.89)" font-size="11.95517" font-family="LMRoman12" font-weight="bold"><tspan y="-284.607" x="151.149">A</tspan></text>
<text xml:space="preserve" transform="matrix(1 0 -0 1 0 841.89)" font-size="11.95517" font-family="LMRoman12" font-weight="bold"><tspan y="-317.81" x="151.149">B</tspan></text>
<text xml:space="preserve" transform="matrix(1 0 -0 1 0 841.89)" font-size="11.95517" font-family="LMRoman12" font-weight="bold"><tspan y="-379.475" x="151.149">C</tspan></text>
<text xml:space="preserve" transform="matrix(1 0 -0 1 0 841.89)" font-size="11.95517" font-family="LMRoman12" font-weight="bold"><tspan y="-349.433" x="366.582">D</tspan></text>
<text xml:space="preserve" transform="matrix(1 0 -0 1 .000015258789 841.89)" font-size="11.95517" font-family="LMRoman12"><tspan y="-342.659" x="169.999 177.14818 183.6518 186.9036 192.76163 197.37633 201.99103 205.24283 211.10086 216.30136 224.75366 233.03859 238.23909 242.794 247.9945 251.2463 256.12403">Zul&#x00e4;ssigerBereich</tspan></text>
<text xml:space="preserve" transform="matrix(1 0 -0 1 0 841.89)" font-size="11.95517" font-family="LMRoman12"><tspan y="-317.361" x="258.865 267.14994 272.35044 278.85404 282.10585 288.60945 294.46748 300.97108 307.47468 317.2301">Bedingung2</tspan></text>
<text xml:space="preserve" transform="matrix(1 0 -0 1 0 841.89)" font-size="11.95517" font-family="LMRoman12"><tspan y="-364.795" x="250.787 259.07194 264.27244 270.77604 274.02784 280.53144 286.38948 292.89308 299.39668 309.1521">Bedingung1</tspan></text>
<path transform="matrix(1,0,0,-1,147.048,559.521)" stroke-width=".99628" stroke-linecap="butt" stroke-dasharray="2.98883,2.98883" stroke-miterlimit="10" stroke-linejoin="miter" fill="none" stroke="#ff0000" d="M 0 252.98258 L 5.38586 248.23917 L 10.77173 243.49575 L 16.15761 238.7523 L 21.54347 234.0089 L 26.92935 229.26548 L 32.31523 224.52204 L 37.7011 219.77861 L 43.08698 215.0352 L 48.47285 210.29178 L 53.85872 205.54834 L 59.2446 200.80492 L 64.63046 196.06151 L 70.01634 191.31807 L 75.40222 186.57465 L 80.78809 181.83124 L 86.17395 177.08782 L 91.55981 172.34438 L 96.9457 167.60095 L 102.33157 162.85755 L 107.71744 158.1141 L 113.10332 153.37068 L 118.4892 148.62726 L 123.87506 143.88385 L 129.26094 139.14041 L 134.6468 134.39699 L 140.03269 129.65358 L 145.41857 124.91016 L 150.80443 120.16672 L 156.1903 115.4233 L 161.57617 110.67989 L 166.96205 105.93645 L 172.34792 101.19302 L 177.73378 96.4496 L 183.11966 91.70619 L 188.50554 86.96275 L 193.8914 82.21933 L 199.27729 77.47592 L 204.66315 72.73248 L 210.04903 67.98906 L 215.4349 63.24564 L 220.82077 58.50223 L 226.20665 53.75879 L 231.59252 49.01537 L 236.9784 44.27194 L 242.36428 39.52852 L 247.75014 34.7851 L 253.136 30.04167 L 258.52189 25.29826 L 263.90776 20.55482 L 269.2936 15.8114 L 274.6795 11.06798 L 280.06538 6.32457 L 285.45127 1.58113 L 290.8371 -3.16228 L 296.223 -7.9057 L 301.60887 -12.64912 L 306.99476 -17.39255 L 312.3806 -22.13597 L 317.76649 -26.87938 L 323.15238 -31.62282 L 328.53825 -36.36624 L 333.9241 -41.10966 L 339.30998 -45.85309 L 344.69584 -50.59651 L 350.0817 -55.33994 L 355.4676 -60.08336 L 360.85346 -64.82678 L 366.23933 -69.5702 L 371.6252 -74.31363 L 377.01109 -79.05704 L 382.39698 -83.80048 L 387.7828 -88.5439 L 393.1687 -93.28732 L 398.55458 -98.03075 L 403.94044 -102.77417 L 409.32633 -107.5176 L 414.7122 -112.26102 L 420.09809 -117.00444 L 425.48393 -121.74786 L 430.8698 -126.49129 "/>
<text fill="#ff0000" xml:space="preserve" transform="matrix(1 0 -0 1 0 841.89)" font-size="11.95517" font-family="LMRoman12"><tspan y="-414.229" x="296.566 303.7152 306.967 312.1675 315.4193 318.9939 325.4975 332.0011 338.18193 342.73686 345.98866 351.84669">Zielfunktion</tspan></text>
</g>
<path transform="matrix(1,0,0,-1,147.048,559.521)" d="M 2.22777 0 C 2.22777 1.23036 1.23036 2.22777 0 2.22777 C -1.23036 2.22777 -2.22777 1.23036 -2.22777 0 C -2.22777 -1.23036 -1.23036 -2.22777 0 -2.22777 C 1.23036 -2.22777 2.22777 -1.23036 2.22777 0 Z M 0 0 "/>
<path transform="matrix(1,0,0,-1,147.048,559.521)" stroke-width=".3985" stroke-linecap="butt" stroke-miterlimit="10" stroke-linejoin="miter" fill="none" stroke="#000000" d="M 2.22777 0 C 2.22777 1.23036 1.23036 2.22777 0 2.22777 C -1.23036 2.22777 -2.22777 1.23036 -2.22777 0 C -2.22777 -1.23036 -1.23036 -2.22777 0 -2.22777 C 1.23036 -2.22777 2.22777 -1.23036 2.22777 0 Z M 0 0 "/>
<path transform="matrix(1,0,0,-1,147.048,559.521)" d=""/>
<path transform="matrix(1,0,0,-1,147.048,559.521)" stroke-width=".3985" stroke-linecap="butt" stroke-miterlimit="10" stroke-linejoin="miter" fill="none" stroke="#000000" d=""/>
<path transform="matrix(1,0,0,-1,147.048,559.521)" d="M 2.22777 31.62282 C 2.22777 32.85318 1.23036 33.85059 0 33.85059 C -1.23036 33.85059 -2.22777 32.85318 -2.22777 31.62282 C -2.22777 30.39244 -1.23036 29.39503 0 29.39503 C 1.23036 29.39503 2.22777 30.39244 2.22777 31.62282 Z M 0 31.62282 "/>
<path transform="matrix(1,0,0,-1,147.048,559.521)" stroke-width=".3985" stroke-linecap="butt" stroke-miterlimit="10" stroke-linejoin="miter" fill="none" stroke="#000000" d="M 2.22777 31.62282 C 2.22777 32.85318 1.23036 33.85059 0 33.85059 C -1.23036 33.85059 -2.22777 32.85318 -2.22777 31.62282 C -2.22777 30.39244 -1.23036 29.39503 0 29.39503 C 1.23036 29.39503 2.22777 30.39244 2.22777 31.62282 Z M 0 31.62282 "/>
<path transform="matrix(1,0,0,-1,147.048,559.521)" d=""/>
<path transform="matrix(1,0,0,-1,147.048,559.521)" stroke-width=".3985" stroke-linecap="butt" stroke-miterlimit="10" stroke-linejoin="miter" fill="none" stroke="#000000" d=""/>
<path transform="matrix(1,0,0,-1,147.048,559.521)" d="M 2.22777 94.86847 C 2.22777 96.09885 1.23036 97.09624 0 97.09624 C -1.23036 97.09624 -2.22777 96.09885 -2.22777 94.86847 C -2.22777 93.63809 -1.23036 92.6407 0 92.6407 C 1.23036 92.6407 2.22777 93.63809 2.22777 94.86847 Z M 0 94.86847 "/>
<path transform="matrix(1,0,0,-1,147.048,559.521)" stroke-width=".3985" stroke-linecap="butt" stroke-miterlimit="10" stroke-linejoin="miter" fill="none" stroke="#000000" d="M 2.22777 94.86847 C 2.22777 96.09885 1.23036 97.09624 0 97.09624 C -1.23036 97.09624 -2.22777 96.09885 -2.22777 94.86847 C -2.22777 93.63809 -1.23036 92.6407 0 92.6407 C 1.23036 92.6407 2.22777 93.63809 2.22777 94.86847 Z M 0 94.86847 "/>
<path transform="matrix(1,0,0,-1,147.048,559.521)" d=""/>
<path transform="matrix(1,0,0,-1,147.048,559.521)" stroke-width=".3985" stroke-linecap="butt" stroke-miterlimit="10" stroke-linejoin="miter" fill="none" stroke="#000000" d=""/>
<path transform="matrix(1,0,0,-1,147.048,559.521)" d="M 217.66268 63.24564 C 217.66268 64.47601 216.66529 65.4734 215.4349 65.4734 C 214.20453 65.4734 213.20714 64.47601 213.20714 63.24564 C 213.20714 62.01526 214.20453 61.01787 215.4349 61.01787 C 216.66529 61.01787 217.66268 62.01526 217.66268 63.24564 Z M 215.4349 63.24564 "/>
<path transform="matrix(1,0,0,-1,147.048,559.521)" stroke-width=".3985" stroke-linecap="butt" stroke-miterlimit="10" stroke-linejoin="miter" fill="none" stroke="#000000" d="M 217.66268 63.24564 C 217.66268 64.47601 216.66529 65.4734 215.4349 65.4734 C 214.20453 65.4734 213.20714 64.47601 213.20714 63.24564 C 213.20714 62.01526 214.20453 61.01787 215.4349 61.01787 C 216.66529 61.01787 217.66268 62.01526 217.66268 63.24564 Z M 215.4349 63.24564 "/>
<path transform="matrix(1,0,0,-1,147.048,559.521)" d=""/>
<path transform="matrix(1,0,0,-1,147.048,559.521)" stroke-width=".3985" stroke-linecap="butt" stroke-miterlimit="10" stroke-linejoin="miter" fill="none" stroke="#000000" d=""/>
<text fill="#333333" xml:space="preserve" transform="matrix(1 0 -0 1 0 841.89)" font-size="11.95517" font-family="LMRoman12"><tspan y="-257.414" x="303.168">x</tspan></text>
<text fill="#333333" xml:space="preserve" transform="matrix(1 0 -0 1 0 841.89)" font-size="7.97011" font-family="LMRoman8"><tspan y="-255.621" x="309.346">1</tspan></text>
<text fill="#333333" xml:space="preserve" transform="matrix(0 -1 1 0 530.703 565.78298)" font-size="11.95517" font-family="LMRoman12"><tspan y="-403.405" x="127.298">x</tspan></text>
<text fill="#333333" xml:space="preserve" transform="matrix(0 -1 1 0 530.703 565.78298)" font-size="7.97011" font-family="LMRoman8"><tspan y="-401.611" x="133.477">2</tspan></text>
<text xml:space="preserve" transform="matrix(1 0 -0 1 0 841.89)" font-size="11.95517" font-family="LMRoman12"><tspan y="-231.645" x="108.985 117.76009 124.2637 130.76732 134.01912 137.27092 143.77454 150.27816 156.78177 166.53719 172.39522 175.64702">Abbildung1.1</tspan></text>
<text xml:space="preserve" transform="matrix(1 0 -0 1 0 841.89)" font-size="11.95517" font-family="LMRoman12"><tspan y="-231.645" x="181.495">:</tspan></text>
<text xml:space="preserve" transform="matrix(1 0 -0 1 0 841.89)" font-size="11.95517" font-family="LMRoman12"><tspan y="-231.645" x="188.649 197.83057 202.38549 208.24352 214.74713 221.25075 224.50255 229.11725 233.99497 240.49858 249.59647 258.53895 264.39698 268.9519 273.5666 278.12153 283.32203 286.57383 289.82563 296.32923 302.83283 312.58827 319.09187 324.29237 332.7447 335.9965 339.2483 345.7519 350.9524 356.81044 361.36537 366.56587 376.9788 386.08863 392.59223 397.14717 400.39897 410.1544 413.4062 418.6067 423.16163 429.66523 436.16883 442.02687 446.64155 452.49958 459.00318 462.57777 468.4358 474.29383 481.1202">GraphischeDarstellungderlinearenOptimierungsaufgabe</tspan></text>
<text xml:space="preserve" transform="matrix(1 0 -0 1 0 841.89)" font-size="11.95517" font-family="LMRoman12"><tspan y="-201.906" x="56.693 60.913179 71.75652 78.26013 83.46063 92.35528 101.13037 107.63399 114.1376 117.38941 120.64122 127.14484 133.64846 140.15207 150.34983 156.20786 159.45966 169.65741 174.27211 177.52391 184.02753 194.87087 200.07137 203.32317 209.82678 213.07859 218.93662 228.47684 236.76177 242.6198 247.2345 250.4863 255.101 258.3528 264.21086 268.82554 275.32914 281.83274 287.69078 292.89128 303.7346 310.2382 315.4387 324.33335 327.58515 330.83695 337.34056 342.54106 348.39909 352.954 358.1545 368.99784 378.10768 384.61128 389.1662 392.418 402.17344 405.42524 410.62574 415.18067 421.68428 428.18788 434.0459 438.66059 444.51863 451.02223 454.5968 460.45484 466.31288 473.13926 482.67948 488.5375 495.0411 500.89915 506.09965 512.6033 515.8551 519.10696 525.61056 530.81106 535.36599">InderAbbildung1.1sindeinigeBasisl&#x00f6;sungenderlinearenOptimierungsaufgabeabgebildet,</tspan><tspan y="-187.46" x="56.693 63.196615 66.44842 75.25938 79.87407 83.12588 88.01554 98.12961 103.98764 110.49126 118.72836 125.23198 130.43248 140.54656 147.05017 151.93984 158.44345 164.94707 168.19887 172.75379 177.3087 183.81232 190.31594 196.81955 203.00037 207.55529 212.75579 222.86986 228.72789 234.58592 244.7 253.4751 258.6756 265.50199 270.70249 276.89527 283.7097 288.9102 295.4138 298.6656 305.1692 311.02723 317.53083 324.03443 329.89247 334.50715 340.36518 345.56568 350.1206 355.97865 362.48225 367.68275 377.80876 384.31236 390.81596 397.31956 403.17759 409.3584 415.862 421.0625 429.23985 435.74345 440.94395 451.06996 459.84504 463.09684 467.97456 474.47816 480.98176 486.18226 492.04029 497.89833 502.45326 505.70506 511.88587 515.1377 519.6926 525.55068 530.1056 534.7203">diesichausdenSchnittpunktenvonNebenbedingungsgeradenund/oderdenNichnegativit&#x00e4;ts-</tspan><tspan y="-173.014" x="56.693 63.5194 68.7199 75.22351 78.47532 84.97893 90.83696 97.340579 103.84419 109.702228 114.902729 124.622287 129.1772 137.9523 144.13312 149.99115 154.54607 161.04969 164.30149 170.8051 176.66313 181.21805 186.41855 192.92217 198.7802 203.65792 210.16153 214.77623 219.97673 226.48035 234.23925 239.43975 243.99466 249.85269 255.05319 261.89155 267.09205 273.59565 280.0634 288.83848 298.558 305.0616 310.26213 319.98167 326.48527 331.0402 336.2407 342.70845 350.6706 355.56028 361.7411 368.2447 374.7483 381.2519 387.4327 391.98765 397.18815">bedingungen(Koordinatenachsen)ergeben.AndendreiEckpunkten</tspan></text>
<text xml:space="preserve" transform="matrix(1 0 -0 1 0 841.89)" font-size="11.95517" font-family="CMBX12" font-weight="bold"><tspan y="-173.014" x="406.884">B</tspan></text>
<text xml:space="preserve" transform="matrix(1 0 -0 1 0 841.89)" font-size="11.95517" font-family="CMMI12" font-style="italic"><tspan y="-173.014" x="416.445">,</tspan></text>
<text xml:space="preserve" transform="matrix(1 0 -0 1 0 841.89)" font-size="11.95517" font-family="CMBX12" font-weight="bold"><tspan y="-173.014" x="423.682">C</tspan></text>
<text xml:space="preserve" transform="matrix(1 0 -0 1 0 841.89)" font-size="11.95517" font-family="LMRoman12"><tspan y="-173.014" x="436.613 443.1166 449.6202">und</tspan></text>
<text xml:space="preserve" transform="matrix(1 0 -0 1 0 841.89)" font-size="11.95517" font-family="CMBX12" font-weight="bold"><tspan y="-173.014" x="459.341">D</tspan></text>
<text xml:space="preserve" transform="matrix(1 0 -0 1 0 841.89)" font-size="11.95517" font-family="LMRoman12"><tspan y="-173.014" x="472.867 479.6934 484.8939 491.3975 497.9011 504.4047 509.6052 519.32479 523.93948 527.1913 532.069">be&#xfb01;ndensich</tspan><tspan y="-158.569" x="56.693 61.8935 68.39711 71.64892 77.50695 82.12164 86.736339 89.988147 95.846179 105.09948 113.384418 119.24245 123.85714 127.10895 131.7356 134.9874 140.84543 145.46013 151.96375 158.46736 164.3254 169.5259 180.0823 189.83773 193.08953 201.7092 205.2838 210.4843 218.62577 223.82627 227.07807 230.32987 238.99736 244.19786 252.33933 257.53984 264.84443 273.12937 278.9874 283.60209 286.85389 291.46858 297.0038 302.86186 307.41679 310.66859 316.5266 323.0302 326.282 331.4825 342.0389 348.5425 355.0461 365.61448 370.81498 378.95646 384.15696 391.46156 400.23664 403.48844 408.3781 414.54698 419.1019 425.6055 431.46354 436.07823 439.33003 443.9447 449.47996 455.33799 459.8929 463.1447 469.00276 475.50636 478.75816 483.95866 490.46226 497.76686 506.54194 517.1103 523.6139 528.8144">zul&#x00e4;ssigeBasisl&#x00f6;sungenmitjeweilszweiBasisvariablenundzweiNichtbasisvariablen.Andem</tspan><tspan y="-144.123" x="56.693 64.65514 69.53285 75.71368 82.217288 88.7209 95.22452 101.40534">Eckpunkt</tspan></text>
<text xml:space="preserve" transform="matrix(1 0 -0 1 0 841.89)" font-size="11.95517" font-family="CMBX12" font-weight="bold"><tspan y="-144.123" x="111.173">A</tspan></text>
<text xml:space="preserve" transform="matrix(1 0 -0 1 0 841.89)" font-size="11.95517" font-family="LMRoman12"><tspan y="-144.123" x="126.548 129.7998 134.4145 144.18187 149.38237 152.63417 159.13779 169.5627 176.06632 182.56993 187.77043 194.27405 197.52585 203.38388 207.99858 212.61328 215.86508 221.72312 232.13607 240.42099 246.27902 250.89373 254.14553 258.76023 262.01203 267.87007 272.48475 278.98835 285.49195 291.34999 299.82618 306.32978 317.40028 322.01496 325.26676 330.15644 341.86054 348.36415 351.61595 356.81645 361.43113 366.63163 376.41096 384.3731 390.8767 397.3803 403.56114 413.32853 419.83213 423.08393 427.9736 434.15443 443.90986 449.76789 456.27149 465.07048 471.57408 476.77458 491.74247 497.61247 503.4705 509.6513 515.50936 520.70986 526.8907 532.0912">isteineunzul&#x00e4;ssigeBasisl&#x00f6;sung,dasichdieserPunktnichtaufdemkonvexen</tspan><tspan y="-129.677" x="56.693 64.33235 70.190387 73.44219 79.300228 84.500728 91.00433 96.204837">Polyeder</tspan></text>
<text xml:space="preserve" transform="matrix(1 0 -0 1 0 841.89)" font-size="11.95517" font-family="CMBX12" font-weight="bold"><tspan y="-129.677" x="104.653">X</tspan></text>
<text xml:space="preserve" transform="matrix(1 0 -0 1 0 841.89)" font-size="11.95517" font-family="LMRoman12"><tspan y="-129.677" x="118.711 125.214618 130.41512 138.86742 144.06792 150.57154 153.82334 159.68137 164.29607 168.91077 172.16257 178.0206 183.2211 193.6221 201.90703 207.76506 212.37976 215.63156 220.24626 223.49806 229.3561 233.9708 240.47441 246.97803 252.83606 258.03657 268.4495 275.27589 280.47639 286.97999 293.48359 299.98719 305.18769 309.7426 316.8918">derzul&#x00e4;ssigenBasisl&#x00f6;sungenbe&#xfb01;ndet.[</tspan></text>
<text xml:space="preserve" transform="matrix(1 0 -0 1 0 841.89)" font-size="11.95517" font-family="LMRoman12" font-weight="bold"><tspan y="-129.677" x="320.153">?</tspan></text>
<text xml:space="preserve" transform="matrix(1 0 -0 1 0 841.89)" font-size="11.95517" font-family="LMRoman12"><tspan y="-129.677" x="326.504">]</tspan><tspan y="-115.231" x="56.693 65.63547 70.83597 80.089267 86.59288 89.84469 99.600109 106.103717 109.35552 114.55602 120.73685 124.63423 133.40933 136.66114 142.51917 148.3772 152.93212 156.18392 160.73883 167.24245 176.68703 183.19065 192.49178 198.99539 205.18817 209.74309 214.94359 219.4985 224.1132 230.61682 235.49454 241.67537 250.91672 257.42033 262.62083 271.88609 280.50578 286.3638 292.8674 304.0694 310.573 315.7735 325.0985 330.95655 336.81459 342.9954 348.85343 354.05393 360.23475 365.43525 376.62528 384.27659 390.1346 393.3864 399.24446 404.44496 410.94856 416.14906 420.70399 430.01707 436.52067 442.3787 447.2564 458.4584 463.6589 466.9107 473.4143 478.6148 487.86814 493.72618 500.22978 504.7847 508.0365 517.79196 523.64999 526.9018 532.1023">DerSimplex-AlgorithmusuntersuchtderRanddeskonvexenPolyedersnacheineroptimalen</tspan><tspan y="-100.785" x="56.693 64.977939 70.83597 75.45066 78.70247 83.31716 86.56897 92.427 97.041698 103.5453 110.04892 115.90695 122.62576 126.84594 136.81655 143.32016 148.52066 161.75504 169.71718 174.5949 180.77571 187.27933 193.78295 200.28656 206.46738 214.48929 220.9929 226.1934 234.21532 240.07335 246.57697 251.13188 254.38368 264.1391 269.99714 273.24894 278.44944 288.42005 296.705 302.56303 307.1777 310.4295 315.0442 318.296 324.15403 328.7687 335.2723 341.7759 351.11289 357.6165 360.8683 370.62373 380.05638 388.0783 394.5819 399.7824 407.80436 418.86286 424.06336 428.6183 436.64024 443.14384 448.34434 456.36628 463.51548 466.76728 471.96778 475.21958 478.79417 485.29777 491.80137 497.98219 502.5371 505.7889 511.64695 521.61758 526.23226 531.43276 534.6846">Basisl&#x00f6;sung.IndemEckpunktderoptimalenBasisl&#x00f6;sungnimmtderWertderZielfunktionsei-</tspan><tspan y="-86.339" x="56.693 63.196615 72.61729 82.3727 88.230739 94.41156 97.66337 107.418788 113.27682 116.528629 125.9493 135.13088 139.68579 145.54383 158.55106 167.97173 173.82976 184.55355 189.10846 199.83225 205.69028 211.8711 215.1229 224.87831 228.13011 233.33061 237.88553 244.38915 250.89276 256.7508 261.36549 267.2235 273.7271 277.3017 283.15974 289.01777 295.84416 301.04466 305.59959 313.07157 317.29176 331.26737 337.9503 343.80833 347.06013 352.91816 358.11866 364.62226 371.12586 376.32637 387.03819 393.86457 399.06507 403.67976 408.56944 415.07304 419.62797 424.82847 428.08027 434.89469 440.09519 450.81898 459.27128 462.52308 471.2982 477.8018 483.0023 493.72608 500.22969 504.7846 508.0364 517.7918 523.64987 526.9017 532.1022">nemaximaleGr&#x00f6;&#xfffd;ean(Maximierungsaufgabe).ImFolgendenbeschreibenwirdenprimalen</tspan><tspan y="-71.894" x="56.693 63.196615 69.700229 80.10123 86.60484 93.10846 98.96649 102.2183 107.4188 117.81979 124.32341 127.57522 137.33065 143.83426 147.08606 152.28656 158.46738 162.36476 171.13986 174.39167 180.2497 186.10773 190.66265 193.91445 198.46936 204.97298 214.41756 220.92118 229.42131 232.99591 239.49953 247.96379 258.6876 264.54563 270.72645 273.97825 283.73368 286.98548 292.18598 296.7409 303.2445 309.7481 315.60615 320.22084 326.72444 331.27937 337.1374 343.641 346.8928 352.0933 361.84873 367.04924 374.19844">unddualenSimplex-Algorithmusf&#x00fc;rMaximierungsprobleme.[</tspan></text>
<text xml:space="preserve" transform="matrix(1 0 -0 1 0 841.89)" font-size="11.95517" font-family="LMRoman12" font-weight="bold"><tspan y="-71.894" x="377.435">?</tspan></text>
<text xml:space="preserve" transform="matrix(1 0 -0 1 0 841.89)" font-size="11.95517" font-family="LMRoman12"><tspan y="-71.894" x="383.786">]</tspan></text>
<text xml:space="preserve" transform="matrix(1 0 -0 1 0 841.89)" font-size="11.95517" font-family="LMRoman12"><tspan y="-20.306" x="294.711">5</tspan></text>
</g>
</svg>
