<?xml version="1.0" encoding="UTF-8" standalone="no"?>
<!DOCTYPE svg PUBLIC "-//W3C//DTD SVG 1.1//EN" "http://www.w3.org/Graphics/SVG/1.1/DTD/svg11.dtd">
<svg xmlns="http://www.w3.org/2000/svg" xmlns:xlink="http://www.w3.org/1999/xlink" version="1.1" width="595.276pt" height="841.89pt" viewBox="0 0 595.276 841.89">
<g enable-background="new">
<path transform="matrix(1,0,0,-1,56.693,72.71301)" stroke-width=".797" stroke-linecap="butt" stroke-miterlimit="10" stroke-linejoin="miter" fill="none" stroke="#000000" d="M 0 0 L 481.89 0 "/>
<text xml:space="preserve" transform="matrix(1 0 -0 1 0 841.89)" font-size="11.95517" font-family="LMRoman12" font-weight="bold"><tspan y="-757.82" x="62.546 69.886478 77.35846 84.830448 91.931819 97.16818 100.91015 107.64091">Funktion</tspan></text>
<text xml:space="preserve" transform="matrix(1 0 -0 1 0 841.89)" font-size="11.95517" font-family="LMRoman12"><tspan y="-757.82" x="119.02 127.30493 133.16297 137.77767 141.02947 145.64417 148.89597 155.07678 160.27729 164.89199 171.3956 177.89922 183.75725 190.90644 197.41005 200.66185 206.51988 211.72039 216.33509 220.94979 224.20159 230.21503">BasisloesungZulaessig(</tspan></text>
<text xml:space="preserve" transform="matrix(1 0 -0 1 0 841.89)" font-size="11.95517" font-family="CMBX12" font-weight="bold"><tspan y="-757.82" x="234.774">b</tspan></text>
<text xml:space="preserve" transform="matrix(1 0 -0 1 0 841.89)" font-size="11.95517" font-family="LMRoman12"><tspan y="-757.82" x="242.246">)</tspan></text>
<path transform="matrix(1,0,0,-1,56.693,89.45001)" stroke-width=".797" stroke-linecap="butt" stroke-miterlimit="10" stroke-linejoin="miter" fill="none" stroke="#000000" d="M 0 0 L 481.89 0 "/>
<text xml:space="preserve" transform="matrix(1 0 -0 1 0 841.89)" font-size="11.95517" font-family="LMRoman12" font-weight="bold"><tspan y="-741.747" x="68.399 78.70436 85.243839 90.4802 96.613208 108.55643">Daten:</tspan></text>
<text xml:space="preserve" transform="matrix(1 0 -0 1 0 841.89)" font-size="11.95517" font-family="CMBX12" font-weight="bold"><tspan y="-741.747" x="116.206">b</tspan></text>
<text xml:space="preserve" transform="matrix(1 0 -0 1 0 841.89)" font-size="11.95517" font-family="LMRoman12"><tspan y="-741.747" x="127.58 134.08362 143.1815 149.03954 155.54315 161.40119 166.60169 169.85349 174.4084 180.26644 184.82135 190.02185 196.20269 202.06072 207.26122 213.44203 217.99695 223.85498 228.4099">&#x00bb;Kapazit&#x00e4;tenvektor&#x00ab;</tspan></text>
<text xml:space="preserve" transform="matrix(1 0 -0 1 0 841.89)" font-size="11.95517" font-family="LMRoman12" font-weight="bold"><tspan y="-727.301" x="68.399 77.22192 82.7213 89.45206 95.58506 103.05704 110.52902 114.27099 124.06227">Ergebnis:</tspan></text>
<text xml:space="preserve" transform="matrix(1 0 -0 1 0 841.89)" font-size="11.95517" font-family="LMRoman12"><tspan y="-727.301" x="131.688 136.24292 143.06932 149.25014 155.10817 158.35997 166.81227 171.36719 175.9221 182.42572 187.62622 194.78737 202.91689 208.11739 214.621 225.022 230.2225 233.4743 239.97792 249.0758 254.2763 260.7799 264.0317 269.88975 274.50444 279.1191 282.3709 288.22895 297.32685 305.6118 311.46983 316.0845 319.3363 323.951 327.2028 333.06083 337.6755 344.1791 350.6827 360.45008 366.3081 372.16615 376.72108 383.22468 389.0827 395.5863 402.0899 407.2904 417.6914 420.9432 425.5579">(bool)true,wenneinezul&#x00e4;ssigeBasisl&#x00f6;sungvorhandenist</tspan></text>
<text xml:space="preserve" transform="matrix(1 0 -0 1 0 841.89)" font-size="11.95517" font-family="LMRoman12" font-weight="bold"><tspan y="-707.708" x="68.399 72.51158 79.24234">for</tspan></text>
<text xml:space="preserve" transform="matrix(1 0 -0 1 0 841.89)" font-size="11.95517" font-family="CMMI12" font-style="italic"><tspan y="-707.708" x="88.629">i</tspan></text>
<text xml:space="preserve" transform="matrix(1 0 -0 1 0 841.89)" font-size="11.95517" font-family="CMR12"><tspan y="-707.708" x="95.943 108.364429">=1</tspan></text>
<text xml:space="preserve" transform="matrix(1 0 -0 1 0 841.89)" font-size="11.95517" font-family="LMRoman12" font-weight="bold"><tspan y="-707.708" x="118.406 123.642368">to</tspan></text>
<text xml:space="preserve" transform="matrix(1 0 -0 1 0 841.89)" font-size="11.95517" font-family="LMRoman12" font-style="italic"><tspan y="-707.708" x="134.545">m</tspan></text>
<text xml:space="preserve" transform="matrix(1 0 -0 1 0 841.89)" font-size="11.95517" font-family="LMRoman12" font-weight="bold"><tspan y="-707.708" x="148.612 156.08399">do</tspan></text>
<path transform="matrix(1,0,0,-1,74.451,179.97699)" stroke-width=".398" stroke-linecap="butt" stroke-miterlimit="10" stroke-linejoin="miter" fill="none" stroke="#000000" d="M 0 0 L 0 41.461 "/>
<text xml:space="preserve" transform="matrix(1 0 -0 1 0 841.89)" font-size="11.95517" font-family="LMRoman12" font-weight="bold"><tspan y="-693.262" x="86.356 90.09797">if</tspan></text>
<text xml:space="preserve" transform="matrix(1 0 -0 1 0 841.89)" font-size="11.95517" font-family="CMMI12" font-style="italic"><tspan y="-693.262" x="99.371">b</tspan></text>
<text xml:space="preserve" transform="matrix(1 0 -0 1 0 841.89)" font-size="7.97011" font-family="CMMI8" font-style="italic"><tspan y="-691.469" x="104.348">i</tspan></text>
<text xml:space="preserve" transform="matrix(1 0 -0 1 0 841.89)" font-size="11.95517" font-family="LMRoman12" font-style="italic"><tspan y="-693.262" x="111.914 125.20815">&#x003c;0</tspan></text>
<text xml:space="preserve" transform="matrix(1 0 -0 1 0 841.89)" font-size="11.95517" font-family="LMRoman12" font-weight="bold"><tspan y="-693.262" x="136.702 141.93836 149.41034 155.54334">then</tspan></text>
<path transform="matrix(1,0,0,-1,92.408,163.52204)" stroke-width=".398" stroke-linecap="butt" stroke-miterlimit="10" stroke-linejoin="miter" fill="none" stroke="#000000" d="M 0 0 L 0 10.56 "/>
<text xml:space="preserve" transform="matrix(1 0 -0 1 0 841.89)" font-size="11.95517" font-family="LMRoman12" font-weight="bold"><tspan y="-680.693" x="104.314 109.813388 115.94639 121.182758 128.65474 134.15412">return</tspan></text>
<text xml:space="preserve" transform="matrix(1 0 -0 1 0 841.89)" font-size="11.95517" font-family="LMRoman12"><tspan y="-680.693" x="145.547 149.1216 154.97963 158.23143 162.84613 168.04663">false;</tspan></text>
<text xml:space="preserve" transform="matrix(1 0 -0 1 0 841.89)" font-size="11.95517" font-family="LMRoman12" font-weight="bold"><tspan y="-666.247" x="86.356 92.489009 99.96098">end</tspan><tspan y="-650.805" x="68.399 74.532009 82.00398">end</tspan><tspan y="-631.211" x="68.399 73.89838 80.03138 85.267749 92.73973 98.239109">return</tspan></text>
<text xml:space="preserve" transform="matrix(1 0 -0 1 0 841.89)" font-size="11.95517" font-family="LMRoman12"><tspan y="-631.211" x="109.632 114.18692 118.74184 125.24545 130.44596">true;</tspan></text>
<text xml:space="preserve" transform="matrix(1 0 -0 1 0 841.89)" font-size="11.95517" font-family="LMRoman12"><tspan y="-616.766" x="408.668">C</tspan></text>
<text xml:space="preserve" transform="matrix(1 0 -0 1 0 841.89)" font-size="11.95517" font-family="LMMono12"><tspan y="-616.766" x="417.122 423.27894">++</tspan></text>
<text xml:space="preserve" transform="matrix(1 0 -0 1 0 841.89)" font-size="11.95517" font-family="LMRoman12"><tspan y="-616.766" x="433.328 441.7803 447.96113 454.46473 459.66523 466.81443 474.13099 477.38279 481.99748 486.5524 489.8042 496.3078 506.06324 511.92127 515.1731">Code:Listing3.8</tspan></text>
<path transform="matrix(1,0,0,-1,56.693,242.79102)" stroke-width=".797" stroke-linecap="butt" stroke-miterlimit="10" stroke-linejoin="miter" fill="none" stroke="#000000" d="M 0 0 L 481.89 0 "/>
<path transform="matrix(1,0,0,-1,56.693,284.79304)" stroke-width=".797" stroke-linecap="butt" stroke-miterlimit="10" stroke-linejoin="miter" fill="none" stroke="#000000" d="M 0 0 L 481.89 0 "/>
<text xml:space="preserve" transform="matrix(1 0 -0 1 0 841.89)" font-size="11.95517" font-family="LMRoman12" font-weight="bold"><tspan y="-545.739" x="62.546 69.886478 77.35846 84.830448 91.931819 97.16818 100.91015 107.64091">Funktion</tspan></text>
<text xml:space="preserve" transform="matrix(1 0 -0 1 0 841.89)" font-size="11.95517" font-family="LMRoman12"><tspan y="-545.739" x="119.02 126.98214 130.23395 136.09198 141.95001 146.50493 151.70543 156.90593 160.15773 163.40953 168.61003 177.5525 184.05612 189.91416 193.20182">PivotzeileDual(</tspan></text>
<text xml:space="preserve" transform="matrix(1 0 -0 1 0 841.89)" font-size="11.95517" font-family="CMBX12" font-weight="bold"><tspan y="-545.739" x="197.752">b</tspan></text>
<text xml:space="preserve" transform="matrix(1 0 -0 1 0 841.89)" font-size="11.95517" font-family="LMRoman12"><tspan y="-545.739" x="205.224">)</tspan></text>
<path transform="matrix(1,0,0,-1,56.693,301.531)" stroke-width=".797" stroke-linecap="butt" stroke-miterlimit="10" stroke-linejoin="miter" fill="none" stroke="#000000" d="M 0 0 L 481.89 0 "/>
<text xml:space="preserve" transform="matrix(1 0 -0 1 0 841.89)" font-size="11.95517" font-family="LMRoman12" font-weight="bold"><tspan y="-529.666" x="68.399 78.70436 85.243839 90.4802 96.613208 108.55643">Daten:</tspan></text>
<text xml:space="preserve" transform="matrix(1 0 -0 1 0 841.89)" font-size="11.95517" font-family="CMBX12" font-weight="bold"><tspan y="-529.666" x="116.206">b</tspan></text>
<text xml:space="preserve" transform="matrix(1 0 -0 1 0 841.89)" font-size="11.95517" font-family="LMRoman12"><tspan y="-529.666" x="127.58 134.08362 143.1815 149.03954 155.54315 161.40119 166.60169 169.85349 174.4084 180.26644 184.82135 190.02185 196.20269 202.06072 207.26122 213.44203 217.99695 223.85498 228.4099">&#x00bb;Kapazit&#x00e4;tenvektor&#x00ab;</tspan></text>
<text xml:space="preserve" transform="matrix(1 0 -0 1 0 841.89)" font-size="11.95517" font-family="LMRoman12" font-weight="bold"><tspan y="-515.22" x="68.399 77.22192 82.7213 89.45206 95.58506 103.05704 110.52902 114.27099 124.06227">Ergebnis:</tspan></text>
<text xml:space="preserve" transform="matrix(1 0 -0 1 0 841.89)" font-size="11.95517" font-family="LMRoman12"><tspan y="-515.22" x="131.688 140.20009 146.7037 154.66585 157.91765 163.78763 169.64566 174.20058 179.40108 184.60158 187.85338 191.10518 196.30568 202.8093 206.0611 212.56472 219.06833 224.25688 230.4377">s&#x00bb;Pivotzeilenindex&#x00ab;</tspan><tspan y="-495.627" x="68.399 80.10311 85.96114 92.46475 95.71656 104.814449 111.96364 117.16414 120.41595 123.667758 132.76564 141.27773 151.03314 154.28495">W&#x00e4;hleZeilesmit</tspan></text>
<text xml:space="preserve" transform="matrix(1 0 -0 1 0 841.89)" font-size="11.95517" font-family="CMMI12" font-style="italic"><tspan y="-495.627" x="162.758">b</tspan></text>
<text xml:space="preserve" transform="matrix(1 0 -0 1 0 841.89)" font-size="7.97011" font-family="CMMI8" font-style="italic"><tspan y="-493.834" x="167.736">s</tspan></text>
<text xml:space="preserve" transform="matrix(1 0 -0 1 0 841.89)" font-size="11.95517" font-family="CMR12"><tspan y="-496.042" x="175.47">:</tspan><tspan y="-495.627" x="177.925">=</tspan></text>
<text xml:space="preserve" transform="matrix(1 0 -0 1 0 841.89)" font-size="11.95517" font-family="LMRoman12"><tspan y="-495.627" x="190.351 200.10642 203.35822">min</tspan></text>
<text xml:space="preserve" transform="matrix(1 0 -0 1 0 841.89)" font-size="11.95517" font-family="CMSY10" font-style="italic"><tspan y="-495.627" x="211.854">{</tspan></text>
<text xml:space="preserve" transform="matrix(1 0 -0 1 0 841.89)" font-size="11.95517" font-family="CMMI12" font-style="italic"><tspan y="-495.627" x="217.831">b</tspan></text>
<text xml:space="preserve" transform="matrix(1 0 -0 1 0 841.89)" font-size="7.97011" font-family="CMMI8" font-style="italic"><tspan y="-493.834" x="222.809">i</tspan></text>
<text xml:space="preserve" transform="matrix(1 0 -0 1 0 841.89)" font-size="11.95517" font-family="CMSY10" font-style="italic"><tspan y="-495.627" x="229.511">|</tspan></text>
<text xml:space="preserve" transform="matrix(1 0 -0 1 0 841.89)" font-size="11.95517" font-family="CMMI12" font-style="italic"><tspan y="-495.627" x="236.152">i</tspan></text>
<text xml:space="preserve" transform="matrix(1 0 -0 1 0 841.89)" font-size="11.95517" font-family="CMR12"><tspan y="-495.627" x="243.467 255.88842">=1</tspan></text>
<text xml:space="preserve" transform="matrix(1 0 -0 1 0 841.89)" font-size="11.95517" font-family="CMMI12" font-style="italic"><tspan y="-495.627" x="261.745 266.98136 272.22969 277.478 282.71437 287.96269">,...,m</tspan></text>
<text xml:space="preserve" transform="matrix(1 0 -0 1 0 841.89)" font-size="11.95517" font-family="CMSY10" font-style="italic"><tspan y="-495.627" x="298.205">}</tspan></text>
<text xml:space="preserve" transform="matrix(1 0 -0 1 0 841.89)" font-size="11.95517" font-family="LMRoman12"><tspan y="-495.627" x="304.183">;</tspan></text>
<text xml:space="preserve" transform="matrix(1 0 -0 1 0 841.89)" font-size="11.95517" font-family="LMRoman12" font-weight="bold"><tspan y="-476.034" x="68.399 73.89838 80.03138 85.267749 92.73973 98.239109">return</tspan></text>
<text xml:space="preserve" transform="matrix(1 0 -0 1 0 841.89)" font-size="11.95517" font-family="LMRoman12"><tspan y="-476.034" x="109.632 114.2467">s;</tspan></text>
<text xml:space="preserve" transform="matrix(1 0 -0 1 0 841.89)" font-size="11.95517" font-family="LMRoman12"><tspan y="-461.588" x="408.668">C</tspan></text>
<text xml:space="preserve" transform="matrix(1 0 -0 1 0 841.89)" font-size="11.95517" font-family="LMMono12"><tspan y="-461.588" x="417.122 423.27894">++</tspan></text>
<text xml:space="preserve" transform="matrix(1 0 -0 1 0 841.89)" font-size="11.95517" font-family="LMRoman12"><tspan y="-461.588" x="433.328 441.7803 447.96113 454.46473 459.66523 466.81443 474.13099 477.38279 481.99748 486.5524 489.8042 496.3078 506.06324 511.92127 515.1731">Code:Listing3.9</tspan></text>
<path transform="matrix(1,0,0,-1,56.693,397.96903)" stroke-width=".797" stroke-linecap="butt" stroke-miterlimit="10" stroke-linejoin="miter" fill="none" stroke="#000000" d="M 0 0 L 481.89 0 "/>
<path transform="matrix(1,0,0,-1,56.693,439.971)" stroke-width=".797" stroke-linecap="butt" stroke-miterlimit="10" stroke-linejoin="miter" fill="none" stroke="#000000" d="M 0 0 L 481.89 0 "/>
<text xml:space="preserve" transform="matrix(1 0 -0 1 0 841.89)" font-size="11.95517" font-family="LMRoman12" font-weight="bold"><tspan y="-390.562" x="62.546 69.886478 77.35846 84.830448 91.931819 97.16818 100.91015 107.64091">Funktion</tspan></text>
<text xml:space="preserve" transform="matrix(1 0 -0 1 0 841.89)" font-size="11.95517" font-family="LMRoman12"><tspan y="-390.562" x="119.02 126.98214 130.23395 136.09198 141.95001 146.50493 151.70543 156.90593 160.15773 163.40953 168.61003 177.5525 184.05612 189.91416 193.16596 200.31514 206.81876 210.07056 215.92859 221.12909 225.74379 230.35849 233.61029 239.61179 244.1667 248.7814">PivotzeileDualZulaessig(s,</tspan></text>
<text xml:space="preserve" transform="matrix(1 0 -0 1 0 841.89)" font-size="11.95517" font-family="CMBX12" font-weight="bold"><tspan y="-390.562" x="255.94">A</tspan></text>
<text xml:space="preserve" transform="matrix(1 0 -0 1 0 841.89)" font-size="11.95517" font-family="LMRoman12"><tspan y="-390.562" x="266.096">)</tspan></text>
<path transform="matrix(1,0,0,-1,56.693,456.708)" stroke-width=".797" stroke-linecap="butt" stroke-miterlimit="10" stroke-linejoin="miter" fill="none" stroke="#000000" d="M 0 0 L 481.89 0 "/>
<text xml:space="preserve" transform="matrix(1 0 -0 1 0 841.89)" font-size="11.95517" font-family="LMRoman12" font-weight="bold"><tspan y="-374.555" x="68.399 78.70436 85.243839 90.4802 96.613208 108.55643">Daten:</tspan></text>
<text xml:space="preserve" transform="matrix(1 0 -0 1 0 841.89)" font-size="11.95517" font-family="LMRoman12"><tspan y="-374.555" x="116.206 124.71808 131.2217 139.18384 142.43564 148.30562 154.16365 158.71857 163.91907 169.11957 172.37137 175.62317 180.81172 187.31534">s&#x00bb;Pivotzeile&#x00ab;,</tspan></text>
<text xml:space="preserve" transform="matrix(1 0 -0 1 0 841.89)" font-size="11.95517" font-family="CMBX12" font-weight="bold"><tspan y="-374.555" x="194.472">A</tspan></text>
<text xml:space="preserve" transform="matrix(1 0 -0 1 0 841.89)" font-size="11.95517" font-family="LMRoman12"><tspan y="-374.555" x="208.53 215.03362 223.80872 229.98954 235.19004 244.94545 250.14595 253.39775 258.59825 264.77906 269.33399 274.5345 281.0381 290.79353 296.65156 301.20649 305.7614 309.0132 315.19404">&#x00bb;Koe&#xfb03;zientenmatrix&#x00ab;</tspan></text>
<text xml:space="preserve" transform="matrix(1 0 -0 1 0 841.89)" font-size="11.95517" font-family="LMRoman12" font-weight="bold"><tspan y="-360.11" x="68.399 77.22192 82.7213 89.45206 95.58506 103.05704 110.52902 114.27099 124.06227">Ergebnis:</tspan></text>
<text xml:space="preserve" transform="matrix(1 0 -0 1 0 841.89)" font-size="11.95517" font-family="LMRoman12"><tspan y="-360.11" x="131.688 136.24292 143.06932 149.25014 155.10817 158.35997 166.81227 171.36719 175.9221 182.42572 187.62622 194.78737 202.91689 208.11739 214.621 225.022 231.52562 234.77742 243.8753 251.83745 255.08925 260.95927 266.8173 271.37223 276.57273 281.77323 285.02503 288.27684 297.36277 302.56327 309.06687 312.31867 318.1767 322.79139 327.40608 330.65788 340.4133 343.6651 348.2798">(bool)true,wenndiePivotzeilezul&#x00e4;ssigist</tspan></text>
<text xml:space="preserve" transform="matrix(1 0 -0 1 0 841.89)" font-size="11.95517" font-family="LMRoman12" font-weight="bold"><tspan y="-340.516" x="68.399 72.51158 79.24234">for</tspan></text>
<text xml:space="preserve" transform="matrix(1 0 -0 1 0 841.89)" font-size="11.95517" font-family="CMMI12" font-style="italic"><tspan y="-340.516" x="88.629">j</tspan></text>
<text xml:space="preserve" transform="matrix(1 0 -0 1 0 841.89)" font-size="11.95517" font-family="CMR12"><tspan y="-340.516" x="97.465 109.88642">=0</tspan></text>
<text xml:space="preserve" transform="matrix(1 0 -0 1 0 841.89)" font-size="11.95517" font-family="LMRoman12" font-weight="bold"><tspan y="-340.516" x="119.928 125.16437">to</tspan></text>
<text xml:space="preserve" transform="matrix(1 0 -0 1 0 841.89)" font-size="11.95517" font-family="LMRoman12" font-style="italic"><tspan y="-340.516" x="136.067 142.64235 151.60874">n+m</tspan></text>
<text xml:space="preserve" transform="matrix(1 0 -0 1 0 841.89)" font-size="11.95517" font-family="LMRoman12" font-weight="bold"><tspan y="-340.516" x="165.676 173.14798">do</tspan></text>
<path transform="matrix(1,0,0,-1,74.451,546.62)" stroke-width=".398" stroke-linecap="butt" stroke-miterlimit="10" stroke-linejoin="miter" fill="none" stroke="#000000" d="M 0 0 L 0 40.913 "/>
<text xml:space="preserve" transform="matrix(1 0 -0 1 0 841.89)" font-size="11.95517" font-family="LMRoman12" font-weight="bold"><tspan y="-326.071" x="86.356 90.09797">if</tspan></text>
<text xml:space="preserve" transform="matrix(1 0 -0 1 0 841.89)" font-size="11.95517" font-family="CMMI12" font-style="italic"><tspan y="-326.071" x="99.371">a</tspan></text>
<text xml:space="preserve" transform="matrix(1 0 -0 1 0 841.89)" font-size="7.97011" font-family="CMMI8" font-style="italic"><tspan y="-324.277" x="105.516 109.42932">sj</tspan></text>
<text xml:space="preserve" transform="matrix(1 0 -0 1 0 841.89)" font-size="11.95517" font-family="CMMI12" font-style="italic"><tspan y="-326.071" x="117.135">&#x003c;</tspan></text>
<text xml:space="preserve" transform="matrix(1 0 -0 1 0 841.89)" font-size="11.95517" font-family="CMR12"><tspan y="-326.071" x="129.561">0</tspan></text>
<text xml:space="preserve" transform="matrix(1 0 -0 1 0 841.89)" font-size="11.95517" font-family="LMRoman12" font-weight="bold"><tspan y="-326.071" x="139.316 144.55236 152.02434 158.15734">then</tspan></text>
<path transform="matrix(1,0,0,-1,92.408,530.16506)" stroke-width=".398" stroke-linecap="butt" stroke-miterlimit="10" stroke-linejoin="miter" fill="none" stroke="#000000" d="M 0 0 L 0 10.012 "/>
<text xml:space="preserve" transform="matrix(1 0 -0 1 0 841.89)" font-size="11.95517" font-family="LMRoman12" font-weight="bold"><tspan y="-314.05" x="104.314 109.813388 115.94639 121.182758 128.65474 134.15412">return</tspan></text>
<text xml:space="preserve" transform="matrix(1 0 -0 1 0 841.89)" font-size="11.95517" font-family="LMRoman12"><tspan y="-314.05" x="145.547 150.10192 154.65683 161.16045 166.36095">true;</tspan></text>
<text xml:space="preserve" transform="matrix(1 0 -0 1 0 841.89)" font-size="11.95517" font-family="LMRoman12" font-weight="bold"><tspan y="-299.604" x="86.356 92.489009 99.96098">end</tspan><tspan y="-284.162" x="68.399 74.532009 82.00398">end</tspan><tspan y="-264.568" x="68.399 73.89838 80.03138 85.267749 92.73973 98.239109">return</tspan></text>
<text xml:space="preserve" transform="matrix(1 0 -0 1 0 841.89)" font-size="11.95517" font-family="LMRoman12"><tspan y="-264.568" x="109.632 113.2066 119.06463 122.31644 126.93113 132.13162">false;</tspan></text>
<text xml:space="preserve" transform="matrix(1 0 -0 1 0 841.89)" font-size="11.95517" font-family="LMRoman12"><tspan y="-250.123" x="402.815">C</tspan></text>
<text xml:space="preserve" transform="matrix(1 0 -0 1 0 841.89)" font-size="11.95517" font-family="LMMono12"><tspan y="-250.123" x="411.269 417.42594">++</tspan></text>
<text xml:space="preserve" transform="matrix(1 0 -0 1 0 841.89)" font-size="11.95517" font-family="LMRoman12"><tspan y="-250.123" x="427.475 435.9273 442.10813 448.61174 453.81224 460.96144 468.27799 471.5298 476.14448 480.6994 483.9512 490.4548 500.21025 506.06828 509.32008 515.1781">Code:Listing3.10</tspan></text>
<path transform="matrix(1,0,0,-1,56.693,609.434)" stroke-width=".797" stroke-linecap="butt" stroke-miterlimit="10" stroke-linejoin="miter" fill="none" stroke="#000000" d="M 0 0 L 481.89 0 "/>
<path transform="matrix(1,0,0,-1,56.693,651.43606)" stroke-width=".797" stroke-linecap="butt" stroke-miterlimit="10" stroke-linejoin="miter" fill="none" stroke="#000000" d="M 0 0 L 481.89 0 "/>
<text xml:space="preserve" transform="matrix(1 0 -0 1 0 841.89)" font-size="11.95517" font-family="LMRoman12" font-weight="bold"><tspan y="-179.096" x="62.546 69.886478 77.35846 84.830448 91.931819 97.16818 100.91015 107.64091">Funktion</tspan></text>
<text xml:space="preserve" transform="matrix(1 0 -0 1 0 841.89)" font-size="11.95517" font-family="LMRoman12"><tspan y="-179.096" x="119.02 126.98214 130.23395 136.09198 141.95001 146.50493 151.11963 157.62325 163.48128 166.73308 171.288 176.4885 185.43097 191.93459 197.79262 201.08028 205.6352 210.2499">PivotspalteDual(s,</tspan></text>
<text xml:space="preserve" transform="matrix(1 0 -0 1 0 841.89)" font-size="11.95517" font-family="CMBX12" font-weight="bold"><tspan y="-179.096" x="217.393">c</tspan></text>
<text xml:space="preserve" transform="matrix(1 0 -0 1 0 841.89)" font-size="11.95517" font-family="LMRoman12"><tspan y="-179.096" x="223.37">,</tspan></text>
<text xml:space="preserve" transform="matrix(1 0 -0 1 0 841.89)" font-size="11.95517" font-family="CMBX12" font-weight="bold"><tspan y="-179.096" x="230.524">A</tspan></text>
<text xml:space="preserve" transform="matrix(1 0 -0 1 0 841.89)" font-size="11.95517" font-family="LMRoman12"><tspan y="-179.096" x="240.681">)</tspan></text>
<path transform="matrix(1,0,0,-1,56.693,668.174)" stroke-width=".797" stroke-linecap="butt" stroke-miterlimit="10" stroke-linejoin="miter" fill="none" stroke="#000000" d="M 0 0 L 481.89 0 "/>
<text xml:space="preserve" transform="matrix(1 0 -0 1 0 841.89)" font-size="11.95517" font-family="LMRoman12" font-weight="bold"><tspan y="-163.09" x="68.399 78.70436 85.243839 90.4802 96.613208 108.55643">Daten:</tspan></text>
<text xml:space="preserve" transform="matrix(1 0 -0 1 0 841.89)" font-size="11.95517" font-family="LMRoman12"><tspan y="-163.09" x="116.206 124.71808 131.2217 139.18384 142.43564 148.30562 154.16365 158.71857 163.91907 169.11957 172.37137 175.62317 180.81172 187.31534 194.46453 202.10388 206.00127 213.15045 218.35095 221.60276 224.85456 230.05506">s&#x00bb;Pivotzeile&#x00ab;,F-Zeile,</tspan></text>
<text xml:space="preserve" transform="matrix(1 0 -0 1 0 841.89)" font-size="11.95517" font-family="CMBX12" font-weight="bold"><tspan y="-163.09" x="237.229">A</tspan></text>
<text xml:space="preserve" transform="matrix(1 0 -0 1 0 841.89)" font-size="11.95517" font-family="LMRoman12"><tspan y="-163.09" x="251.288 257.7916 266.56669 272.7475 277.948 287.70344 292.90394 296.15574 301.35624 307.53706 312.09199 317.29249 323.79609 333.5515 339.40956 343.96449 348.5194 351.7712 357.95204">&#x00bb;Koe&#xfb03;zientenmatrix&#x00ab;</tspan></text>
<text xml:space="preserve" transform="matrix(1 0 -0 1 0 841.89)" font-size="11.95517" font-family="LMRoman12" font-weight="bold"><tspan y="-148.644" x="68.399 77.22192 82.7213 89.45206 95.58506 103.05704 110.52902 114.27099 124.06227">Ergebnis:</tspan></text>
<text xml:space="preserve" transform="matrix(1 0 -0 1 0 841.89)" font-size="11.95517" font-family="LMRoman12"><tspan y="-148.644" x="131.688 140.1403 146.64392 154.60607 157.85787 163.72785 169.58588 174.1408 178.7555 185.25911 191.11714 194.36894 198.92386 204.12436">t&#x00bb;Pivotspalte&#x00ab;</tspan><tspan y="-126.427" x="68.399 80.10311 85.96114 92.46475 95.71656 104.814449 111.318058 117.82167 123.6797 126.93151 131.48644 140.58432 149.03662 158.79204 162.04384">W&#x00e4;hleSpaltetmit</tspan></text>
<text xml:space="preserve" transform="matrix(1 0 -0 1 0 841.89)" font-size="7.97011" font-family="CMMI8" font-style="italic"><tspan y="-131.134" x="173.855">c</tspan></text>
<text xml:space="preserve" transform="matrix(1 0 -0 1 0 841.89)" font-size="5.97758" font-family="CMMI6" font-style="italic"><tspan y="-130.138" x="177.523">t</tspan></text>
<path transform="matrix(1,0,0,-1,171.693,712.474)" stroke-width=".478" stroke-linecap="butt" stroke-miterlimit="10" stroke-linejoin="miter" fill="none" stroke="#000000" d="M 0 0 L 11.34 0 "/>
<text xml:space="preserve" transform="matrix(1 0 -0 1 0 841.89)" font-size="7.97011" font-family="CMMI8" font-style="italic"><tspan y="-122.305" x="171.693">a</tspan></text>
<text xml:space="preserve" transform="matrix(1 0 -0 1 0 841.89)" font-size="5.97758" font-family="CMMI6" font-style="italic"><tspan y="-121.308" x="176.191 179.68788">st</tspan></text>
<text xml:space="preserve" transform="matrix(1 0 -0 1 0 841.89)" font-size="11.95517" font-family="CMR12"><tspan y="-126.842" x="187.55">:</tspan><tspan y="-126.427" x="190.005">=</tspan></text>
<text xml:space="preserve" transform="matrix(1 0 -0 1 0 841.89)" font-size="11.95517" font-family="LMRoman12"><tspan y="-126.427" x="202.43 212.18541 218.04344">max</tspan></text>
<text xml:space="preserve" transform="matrix(1 0 -0 1 0 841.89)" font-size="11.95517" font-family="CMEX10"><tspan y="-139.698" x="226.21">&#xfffd;</tspan></text>
<text xml:space="preserve" transform="matrix(1 0 -0 1 0 841.89)" font-size="7.97011" font-family="CMMI8" font-style="italic"><tspan y="-132.511" x="237.537">c</tspan></text>
<text xml:space="preserve" transform="matrix(1 0 -0 1 0 841.89)" font-size="5.97758" font-family="CMMI6" font-style="italic"><tspan y="-131.296" x="241.205">j</tspan></text>
<path transform="matrix(1,0,0,-1,235.375,712.474)" stroke-width=".478" stroke-linecap="butt" stroke-miterlimit="10" stroke-linejoin="miter" fill="none" stroke="#000000" d="M 0 0 L 11.895 0 "/>
<text xml:space="preserve" transform="matrix(1 0 -0 1 0 841.89)" font-size="7.97011" font-family="CMMI8" font-style="italic"><tspan y="-122.305" x="235.375">a</tspan></text>
<text xml:space="preserve" transform="matrix(1 0 -0 1 0 841.89)" font-size="5.97758" font-family="CMMI6" font-style="italic"><tspan y="-121.089" x="239.873 243.36989">sj</tspan></text>
<text xml:space="preserve" transform="matrix(1 0 -0 1 0 841.89)" font-size="11.95517" font-family="CMEX10"><tspan y="-140.176" x="250.458">&#xfffd;</tspan><tspan y="-133.003" x="250.458">&#xfffd;</tspan><tspan y="-125.829" x="250.458">&#xfffd;</tspan></text>
<text xml:space="preserve" transform="matrix(1 0 -0 1 0 841.89)" font-size="11.95517" font-family="CMMI12" font-style="italic"><tspan y="-126.427" x="256.435">j</tspan></text>
<text xml:space="preserve" transform="matrix(1 0 -0 1 0 841.89)" font-size="11.95517" font-family="CMR12"><tspan y="-126.427" x="265.272 277.69343">=1</tspan></text>
<text xml:space="preserve" transform="matrix(1 0 -0 1 0 841.89)" font-size="11.95517" font-family="CMMI12" font-style="italic"><tspan y="-126.427" x="283.55 288.78636 294.03468 299.283 304.51936">,...,</tspan></text>
<text xml:space="preserve" transform="matrix(1 0 -0 1 0 841.89)" font-size="11.95517" font-family="LMRoman12"><tspan y="-126.427" x="309.771 316.2746 325.38444 339.03727 348.7927 352.0445">n+mmit</tspan></text>
<text xml:space="preserve" transform="matrix(1 0 -0 1 0 841.89)" font-size="11.95517" font-family="CMMI12" font-style="italic"><tspan y="-126.427" x="360.498">a</tspan></text>
<text xml:space="preserve" transform="matrix(1 0 -0 1 0 841.89)" font-size="7.97011" font-family="CMMI8" font-style="italic"><tspan y="-124.634" x="366.643 370.55635">sj</tspan></text>
<text xml:space="preserve" transform="matrix(1 0 -0 1 0 841.89)" font-size="11.95517" font-family="CMMI12" font-style="italic"><tspan y="-126.427" x="378.262">&#x003c;</tspan></text>
<text xml:space="preserve" transform="matrix(1 0 -0 1 0 841.89)" font-size="11.95517" font-family="CMR12"><tspan y="-126.427" x="390.688">0</tspan></text>
<text xml:space="preserve" transform="matrix(1 0 -0 1 0 841.89)" font-size="11.95517" font-family="CMEX10"><tspan y="-139.698" x="396.541">&#xfffd;</tspan></text>
<text xml:space="preserve" transform="matrix(1 0 -0 1 0 841.89)" font-size="11.95517" font-family="LMRoman12"><tspan y="-126.427" x="404.511">;</tspan></text>
<text xml:space="preserve" transform="matrix(1 0 -0 1 0 841.89)" font-size="11.95517" font-family="LMRoman12" font-weight="bold"><tspan y="-104.825" x="68.399 73.89838 80.03138 85.267749 92.73973 98.239109">return</tspan></text>
<text xml:space="preserve" transform="matrix(1 0 -0 1 0 841.89)" font-size="11.95517" font-family="LMRoman12"><tspan y="-104.825" x="109.632 114.18692">t;</tspan></text>
<text xml:space="preserve" transform="matrix(1 0 -0 1 0 841.89)" font-size="11.95517" font-family="LMRoman12"><tspan y="-90.38" x="402.815">C</tspan></text>
<text xml:space="preserve" transform="matrix(1 0 -0 1 0 841.89)" font-size="11.95517" font-family="LMMono12"><tspan y="-90.38" x="411.269 417.42594">++</tspan></text>
<text xml:space="preserve" transform="matrix(1 0 -0 1 0 841.89)" font-size="11.95517" font-family="LMRoman12"><tspan y="-90.38" x="427.475 435.9273 442.10813 448.61174 453.81224 460.96144 468.27799 471.5298 476.14448 480.6994 483.9512 490.4548 500.21025 506.06828 509.32008 515.1781">Code:Listing3.11</tspan></text>
<path transform="matrix(1,0,0,-1,56.693,769.177)" stroke-width=".797" stroke-linecap="butt" stroke-miterlimit="10" stroke-linejoin="miter" fill="none" stroke="#000000" d="M 0 0 L 481.89 0 "/>
<text xml:space="preserve" transform="matrix(1 0 -0 1 0 841.89)" font-size="11.95517" font-family="LMRoman12"><tspan y="-20.306" x="291.785 297.64305">14</tspan></text>
</g>
</svg>
