<?xml version="1.0" encoding="UTF-8" standalone="no"?>
<!DOCTYPE svg PUBLIC "-//W3C//DTD SVG 1.1//EN" "http://www.w3.org/Graphics/SVG/1.1/DTD/svg11.dtd">
<svg xmlns="http://www.w3.org/2000/svg" xmlns:xlink="http://www.w3.org/1999/xlink" version="1.1" width="595.276pt" height="841.89pt" viewBox="0 0 595.276 841.89">
<g enable-background="new">
<text xml:space="preserve" transform="matrix(1 0 -0 1 0 841.89)" font-size="17.21544" font-family="LMRoman17"><tspan y="-773.242" x="56.693 64.59489 68.89875 84.68531 93.4824 97.78626 111.076587 119.87367 124.177539 131.167 139.5165 147.4356 154.42507 160.51934 165.2708 173.17269 181.96977 188.06404 195.05352 209.03246 218.27715 225.26662 234.76955 244.01424 251.00371 259.3532 267.2551 276.0522 284.41889 290.51316 297.50263 308.77876 315.76823 324.5653 328.86918 336.77107 342.95143 349.13179 353.43565 361.33753 368.327 379.60313 389.51924 397.4211 403.60145 412.39854 421.19563">1.2Simplexverfahrenbeibekannterzul&#x00e4;ssigerL&#x00f6;sung</tspan></text>
<text xml:space="preserve" transform="matrix(1 0 -0 1 0 841.89)" font-size="11.95517" font-family="LMRoman12"><tspan y="-746.957" x="56.693 60.913179 74.53011 81.201099 87.05913 90.310939 96.16897 101.36947 107.87308 114.37669 119.577198 129.93038 134.54508 139.43474 145.93836 149.19016 152.44196 158.94557 164.14608 168.70099 179.05417 187.50647 190.75827 199.17472 205.67833 211.53636 220.01259 227.83127 233.6893 238.24422 244.10225 249.30275 255.80637 261.00688 271.36006 277.23005 283.08808 293.44126 298.64176 306.78324 311.97178 319.08509 324.9431 330.14363 334.69856 339.31324 344.19096 350.69456 353.94636 359.14686 365.65046 370.85096 377.35456 382.55506 392.90824 403.63203 409.8248 416.3284 419.5802 426.0838 432.26463 438.12266 442.67759 445.92939 451.7874 458.29103 463.49153 473.85664 480.36024 485.56074 494.03694 500.54054 503.79234 513.5477 520.05136 523.30319 528.50369 534.6845">ImFolgendenschildernwirdasVorgehenvonzweiverschiedenenModi&#xfb01;kationendesSimplex-</tspan><tspan y="-732.511" x="56.693 65.468097 68.7199 74.577938 80.43597 84.99088 88.24269 92.79761 99.30122 108.73385 115.23746 122.44642 126.02101 132.52463 139.67382 150.3976 156.25563 162.43645 165.68825 175.44367 178.69547 183.89597 188.45088 194.9545 201.45812 207.31615 211.93085 218.43447 222.98938 228.84741 235.35103 238.60283 243.80333 253.55875 258.75926 264.62925 271.77845 278.28205 284.78565 290.64369 295.5214 302.025 306.63969 313.78889 322.24119 325.49299 330.0479 339.14579 345.64939 348.90119 356.70793 360.9281 370.68354 377.18714 380.43894 385.63945 395.39488 400.59538 406.78816 411.34309 417.2011 421.75605 425.00785 430.86589 439.95179 446.45539 451.65589 458.8768 465.3804 469.93534 473.18714 482.94258 488.8006 492.0524 497.2529 506.35078 512.8544 516.1062 525.86166 532.36526 535.61709 540.81759 546.9984">Algorithmusf&#x00fc;rMaximierungsprobleme.Zun&#x00e4;chstwirddieImplementationdesprimalenSimplex-</tspan><tspan y="-718.065" x="56.693 65.468097 68.7199 74.577938 80.43597 84.99088 88.24269 92.79761 99.30122 108.73385 115.23746 119.85215 128.50769 136.64916 141.84966 145.10146 149.97917 156.48279 161.68329 171.64194 177.49997 183.358 195.26535 200.46585 203.71765 210.22127 215.42177 225.39238 232.21878 237.41928 243.6001 249.45813 255.96175 262.15455 266.70948 271.90998 283.81733 289.01783 295.52143 298.77323 304.63127 309.24595 313.86064 317.11244 322.97047 328.17097 340.0783 348.36326 354.22129 358.83598 362.08778 366.70246 369.95426 375.8123 380.42698 386.93058 393.43418 404.7079 410.56593 417.06953 421.6842 427.54225 432.74275 438.93553 443.49046 452.146 458.97239 464.17289 468.78758 473.67726 480.18086 484.73579 487.98759 493.18809 500.0025 505.203 511.7066 520.3861 527.5353 534.0389">Algorithmus,welchervoneinerbekanntenzul&#x00e4;ssigenBasisl&#x00f6;sungausgeht,beschrieben.Zur</tspan><tspan y="-703.619" x="56.693 64.499729 69.700229 74.25514 80.113178 86.61679 91.23148 96.10919 102.61281 108.47084 114.97446 118.226268 121.47807 126.34383 132.52466 139.02828 145.53189 155.0482 161.55182 166.75232 175.0253 182.84398 188.04448 192.5994 196.174 202.03203 208.53565 213.09056 218.29106 224.79468 233.05571 238.25621 242.81113 248.99195 252.24375 258.10179 262.6567 267.8572 278.03105 286.48335 289.73515 297.94837 304.45198 310.31 318.5949 325.0985 329.65345 335.51148 341.6923 346.24723 349.49903 354.1137 359.0034 365.507 374.35383 382.1725 388.03053 392.58546 398.44349 403.63203 410.13563 415.33613 425.49803 431.35606 444.7817 448.3563 454.21434 457.46614 463.32417 468.52467 475.02827 481.53187 486.73237 496.89427 500.14607 510.3199 516.50076 522.35879 528.86239 534.7204">VeranschaulichungdesVerfahrenserkl&#x00e4;renwirdaspraktischeVorgehenamfolgendeninkano-</tspan><tspan y="-689.174" x="56.693 63.196615 66.44842 71.06311 75.94082 82.44443 87.64493 96.09723 102.76821 108.62624 113.18116 126.82201 132.69199 138.55002 143.10494 148.96297 154.16347 160.0215 165.222 172.03646 177.23696 183.74057 188.94107 199.35404 207.63896 212.83946 216.09127 220.70597 227.20958 230.46138 235.66188 238.91368 246.06287">nischerFormvorgegebenenBeispiel:[</tspan></text>
<text xml:space="preserve" transform="matrix(1 0 -0 1 0 841.89)" font-size="11.95517" font-family="LMRoman12" font-weight="bold"><tspan y="-689.174" x="249.319">?</tspan></text>
<text xml:space="preserve" transform="matrix(1 0 -0 1 0 841.89)" font-size="11.95517" font-family="LMRoman12"><tspan y="-689.174" x="255.67">]</tspan><tspan y="-660.282" x="207.407 218.13079 223.98882 230.16963 233.42144 243.17685 246.42865 251.62915 256.18409">Maximiere</tspan></text>
<text xml:space="preserve" transform="matrix(1 0 -0 1 0 841.89)" font-size="11.95517" font-family="CMMI12" font-style="italic"><tspan y="-660.282" x="263.374">f</tspan></text>
<text xml:space="preserve" transform="matrix(1 0 -0 1 0 841.89)" font-size="11.95517" font-family="CMR12"><tspan y="-660.282" x="270.421">(</tspan></text>
<text xml:space="preserve" transform="matrix(1 0 -0 1 0 841.89)" font-size="11.95517" font-family="CMMI12" font-style="italic"><tspan y="-660.282" x="274.973">x</tspan></text>
<text xml:space="preserve" transform="matrix(1 0 -0 1 0 841.89)" font-size="7.97011" font-family="CMR8"><tspan y="-658.489" x="281.625">1</tspan></text>
<text xml:space="preserve" transform="matrix(1 0 -0 1 0 841.89)" font-size="11.95517" font-family="CMMI12" font-style="italic"><tspan y="-660.282" x="286.357 291.59336">,x</tspan></text>
<text xml:space="preserve" transform="matrix(1 0 -0 1 0 841.89)" font-size="7.97011" font-family="CMR8"><tspan y="-658.489" x="298.254">2</tspan></text>
<text xml:space="preserve" transform="matrix(1 0 -0 1 0 841.89)" font-size="11.95517" font-family="CMR12"><tspan y="-660.282" x="302.986 310.8525 323.2859 329.14393">)=40</tspan></text>
<text xml:space="preserve" transform="matrix(1 0 -0 1 0 841.89)" font-size="11.95517" font-family="CMMI12" font-style="italic"><tspan y="-660.282" x="336.983">x</tspan></text>
<text xml:space="preserve" transform="matrix(1 0 -0 1 0 841.89)" font-size="7.97011" font-family="CMR8"><tspan y="-658.489" x="343.635">1</tspan></text>
<text xml:space="preserve" transform="matrix(1 0 -0 1 0 841.89)" font-size="11.95517" font-family="CMR12"><tspan y="-660.282" x="351.024 362.78788 368.6459">+30</tspan></text>
<text xml:space="preserve" transform="matrix(1 0 -0 1 0 841.89)" font-size="11.95517" font-family="CMMI12" font-style="italic"><tspan y="-660.282" x="376.484">x</tspan></text>
<text xml:space="preserve" transform="matrix(1 0 -0 1 0 841.89)" font-size="7.97011" font-family="CMR8"><tspan y="-658.489" x="383.136">2</tspan></text>
<text xml:space="preserve" transform="matrix(1 0 -0 1 0 841.89)" font-size="11.95517" font-family="LMRoman12"><tspan y="-660.282" x="502.668 507.22294 513.081 516.3328 522.19088 528.0489 534.05038">(1.17a)</tspan></text>
<text xml:space="preserve" transform="matrix(1 0 -0 1 0 841.89)" font-size="11.95517" font-family="CMMI12" font-style="italic"><tspan y="-639.709" x="209.683">x</tspan></text>
<text xml:space="preserve" transform="matrix(1 0 -0 1 0 841.89)" font-size="7.97011" font-family="CMR8"><tspan y="-637.916" x="216.335">1</tspan></text>
<text xml:space="preserve" transform="matrix(1 0 -0 1 0 841.89)" font-size="11.95517" font-family="CMR12"><tspan y="-639.709" x="231.03">+</tspan></text>
<text xml:space="preserve" transform="matrix(1 0 -0 1 0 841.89)" font-size="11.95517" font-family="CMMI12" font-style="italic"><tspan y="-639.709" x="254.02">x</tspan></text>
<text xml:space="preserve" transform="matrix(1 0 -0 1 0 841.89)" font-size="7.97011" font-family="CMR8"><tspan y="-637.916" x="260.672">2</tspan></text>
<text xml:space="preserve" transform="matrix(1 0 -0 1 0 841.89)" font-size="11.95517" font-family="CMSY10" font-style="italic"><tspan y="-639.709" x="279.29">&#x2264;</tspan></text>
<text xml:space="preserve" transform="matrix(1 0 -0 1 0 841.89)" font-size="11.95517" font-family="CMR12"><tspan y="-639.709" x="304.404">8</tspan><tspan y="-625.263" x="201.837">2</tspan></text>
<text xml:space="preserve" transform="matrix(1 0 -0 1 0 841.89)" font-size="11.95517" font-family="CMMI12" font-style="italic"><tspan y="-625.263" x="209.683">x</tspan></text>
<text xml:space="preserve" transform="matrix(1 0 -0 1 0 841.89)" font-size="7.97011" font-family="CMR8"><tspan y="-623.47" x="216.335">1</tspan></text>
<text xml:space="preserve" transform="matrix(1 0 -0 1 0 841.89)" font-size="11.95517" font-family="CMR12"><tspan y="-625.263" x="231.03">+</tspan></text>
<text xml:space="preserve" transform="matrix(1 0 -0 1 0 841.89)" font-size="11.95517" font-family="CMMI12" font-style="italic"><tspan y="-625.263" x="254.02">x</tspan></text>
<text xml:space="preserve" transform="matrix(1 0 -0 1 0 841.89)" font-size="7.97011" font-family="CMR8"><tspan y="-623.47" x="260.672">2</tspan></text>
<text xml:space="preserve" transform="matrix(1 0 -0 1 0 841.89)" font-size="11.95517" font-family="CMSY10" font-style="italic"><tspan y="-625.263" x="279.29">&#x2264;</tspan></text>
<text xml:space="preserve" transform="matrix(1 0 -0 1 0 841.89)" font-size="11.95517" font-family="CMR12"><tspan y="-625.263" x="298.551 304.40904">12</tspan><tspan y="-610.818" x="201.837">2</tspan></text>
<text xml:space="preserve" transform="matrix(1 0 -0 1 0 841.89)" font-size="11.95517" font-family="CMMI12" font-style="italic"><tspan y="-610.818" x="209.683">x</tspan></text>
<text xml:space="preserve" transform="matrix(1 0 -0 1 0 841.89)" font-size="7.97011" font-family="CMR8"><tspan y="-609.024" x="216.335">1</tspan></text>
<text xml:space="preserve" transform="matrix(1 0 -0 1 0 841.89)" font-size="11.95517" font-family="CMR12"><tspan y="-610.818" x="231.03 250.09848">+3</tspan></text>
<text xml:space="preserve" transform="matrix(1 0 -0 1 0 841.89)" font-size="11.95517" font-family="CMMI12" font-style="italic"><tspan y="-610.818" x="257.943">x</tspan></text>
<text xml:space="preserve" transform="matrix(1 0 -0 1 0 841.89)" font-size="7.97011" font-family="CMR8"><tspan y="-609.024" x="264.595">2</tspan></text>
<text xml:space="preserve" transform="matrix(1 0 -0 1 0 841.89)" font-size="11.95517" font-family="CMSY10" font-style="italic"><tspan y="-610.818" x="279.29">&#x2264;</tspan></text>
<text xml:space="preserve" transform="matrix(1 0 -0 1 0 841.89)" font-size="11.95517" font-family="CMR12"><tspan y="-610.818" x="298.551 304.40904">18</tspan></text>
<text xml:space="preserve" transform="matrix(1 0 -0 1 0 841.89)" font-size="11.95517" font-family="LMRoman12"><tspan y="-610.818" x="320.219 326.7226 333.2262">und</tspan></text>
<text xml:space="preserve" transform="matrix(1 0 -0 1 0 841.89)" font-size="11.95517" font-family="CMMI12" font-style="italic"><tspan y="-610.818" x="343.632">x</tspan></text>
<text xml:space="preserve" transform="matrix(1 0 -0 1 0 841.89)" font-size="7.97011" font-family="CMR8"><tspan y="-609.024" x="350.284">1</tspan></text>
<text xml:space="preserve" transform="matrix(1 0 -0 1 0 841.89)" font-size="11.95517" font-family="CMMI12" font-style="italic"><tspan y="-610.818" x="355.017 360.25337">,x</tspan></text>
<text xml:space="preserve" transform="matrix(1 0 -0 1 0 841.89)" font-size="7.97011" font-family="CMR8"><tspan y="-609.024" x="366.913">2</tspan></text>
<text xml:space="preserve" transform="matrix(1 0 -0 1 0 841.89)" font-size="11.95517" font-family="CMSY10" font-style="italic"><tspan y="-610.818" x="374.966">&#x2265;</tspan></text>
<text xml:space="preserve" transform="matrix(1 0 -0 1 0 841.89)" font-size="11.95517" font-family="CMR12"><tspan y="-610.818" x="387.585">0</tspan></text>
<text xml:space="preserve" transform="matrix(1 0 -0 1 0 841.89)" font-size="11.95517" font-family="LMRoman12"><tspan y="-625.164" x="502.164 506.71894 512.57699 515.8288 521.6868 527.54489 534.04849">(1.17b)</tspan><tspan y="-589.011" x="60.379 69.32147 72.57328 81.45597 84.70778 87.95959 94.463199 99.6637 105.52173 110.076648 118.959339 128.06917 134.57279 139.1277 142.3795 152.13492 155.38672 160.58722 165.14214 171.64575 178.14937 184.0074 188.6221 194.48014 200.98375 204.55835 210.41638 216.27442 223.10082 231.9835 236.5982 241.15312 247.01116 256.76658 266.21119 274.43635 280.29438 286.79798 295.1068 301.6104 306.8109 320.24855 327.5651 332.7656 339.2692 343.82414 350.32774 356.83134 361.721 371.89485 378.39845 387.17353 393.67713 400.18074 406.68434 412.54237 417.74287 427.92866 434.43226 440.93586 451.1336 457.80458 463.6626 466.9144 470.1662 476.98063 482.18113 485.43293 490.0476 496.5512 499.803 505.0035 508.2553 517.138 522.3385 528.8421">DielineareOptimierungsaufgabestammtausdemLehrbuch&#x00bb;&#x00dc;bungenundFallbeispielezum</tspan><tspan y="-574.565" x="60.595 69.70484 76.53124 81.73174 86.28666 92.14469 96.69961 99.951419 105.80945 112.313068 120.82514 129.44483 134.64533 139.26003 144.46053 150.31856 154.87348 159.76314 166.26676 178.60449 183.15941 191.62368 198.12729 201.70189 207.55992 213.41796 220.2324 229.34226 235.20029 238.45209 244.31012 250.16815 258.62046">OperationsResearch&#x00ab;(Aufgabe2.10)[</tspan></text>
<text xml:space="preserve" transform="matrix(1 0 -0 1 0 841.89)" font-size="11.95517" font-family="LMRoman12" font-weight="bold"><tspan y="-574.565" x="261.835">?</tspan></text>
<text xml:space="preserve" transform="matrix(1 0 -0 1 0 841.89)" font-size="11.95517" font-family="LMRoman12"><tspan y="-574.565" x="268.187">]</tspan><tspan y="-560.12" x="56.693 65.468097 80.0534 86.55701 92.41504 101.871578 108.37518 111.62699 121.38241 127.88602 131.13782 136.33832 142.51914 146.41652 154.22325 159.42375 163.97867 167.55327 173.4113 179.91492 184.46984 189.67034 200.99188 206.84992 213.0427 221.17221 226.37271 232.87633 239.37995 244.58045 255.902 261.10249 272.44795 278.31794 284.17597 290.67958 297.18318 302.38368 308.88728 316.957 325.4093 328.6611 333.21604 344.5615 351.0651 354.3169 364.3473 372.81156 379.31517 382.88975 388.74778 394.6058 401.42024 406.62074 413.12434 417.739 422.29396 427.49446 430.74626 433.99806 440.50166 447.00526 457.70515 460.95695 472.29045 475.54225 482.04585 486.60078 496.64314 505.4182 511.27626 515.8312 525.5866 531.44467 534.6965">UmdasSimplex-Verfahrenanwendenzuk&#x00f6;nnen,wirddieAufgabenstellunginihreNormal-</tspan><tspan y="-545.674" x="56.693 60.267599 66.12563 70.68055 83.998607 88.55352 93.10844 98.96647 105.47008 110.08477 113.65936 119.517398 124.07231 133.82773 137.07953 142.28003 146.83495 151.38986 158.21627 166.1784 174.3677 177.6195 180.8713 186.07181 191.92984 197.13034 207.20856 213.71218 218.26709 223.46759 230.28203 239.05713 245.56075 251.41878 254.67058 259.87107 263.12287 268.01255 274.19337 280.69697 287.20057 293.0586 297.67329 304.17689 309.37739 316.1918 321.3923 327.58509 334.3995 339.6 346.1036 349.3554 355.859 361.71705 368.22065 374.72425 380.58229 385.78279 395.86097 401.719 407.57704 412.13197 418.9464 425.45 430.6505 440.40596 445.60646 452.11006 455.68464 461.54267 464.79447 470.6525 479.42759 487.56907 492.76957 497.3245 503.8281 509.0286 519.0829 525.5865 530.1414 535.3419">formtransformiert.EsliegendreiUngleichungsnebenbedingungenvor,demzufolgewerdendrei</tspan><tspan y="-531.228" x="56.693 63.196615 68.07432 74.57793 77.829738 84.33334 90.83696 94.41155 99.9468 105.80483 110.35975 113.61156 119.46959 125.973209 129.225 134.4255 144.81456 150.01506 153.26686 159.77048 165.62851 170.82901 174.40361 180.90723 187.41085 191.96576 196.52068 203.66986">Schlupfvariableneingef&#x00fc;hrt.[</tspan></text>
<text xml:space="preserve" transform="matrix(1 0 -0 1 0 841.89)" font-size="11.95517" font-family="LMRoman12" font-weight="bold"><tspan y="-531.228" x="206.922">?</tspan></text>
<text xml:space="preserve" transform="matrix(1 0 -0 1 0 841.89)" font-size="11.95517" font-family="LMRoman12"><tspan y="-531.228" x="213.273">]</tspan><tspan y="-502.336" x="131.993 142.71678 148.57482 154.75563 158.00743 167.76285 171.01465 176.21515 180.77007">Maximiere</tspan></text>
<text xml:space="preserve" transform="matrix(1 0 -0 1 0 841.89)" font-size="11.95517" font-family="CMMI12" font-style="italic"><tspan y="-502.336" x="187.96">f</tspan></text>
<text xml:space="preserve" transform="matrix(1 0 -0 1 0 841.89)" font-size="11.95517" font-family="CMR12"><tspan y="-502.336" x="195.006">(</tspan></text>
<text xml:space="preserve" transform="matrix(1 0 -0 1 0 841.89)" font-size="11.95517" font-family="CMMI12" font-style="italic"><tspan y="-502.336" x="199.558">x</tspan></text>
<text xml:space="preserve" transform="matrix(1 0 -0 1 0 841.89)" font-size="7.97011" font-family="CMR8"><tspan y="-500.543" x="206.21">1</tspan></text>
<text xml:space="preserve" transform="matrix(1 0 -0 1 0 841.89)" font-size="11.95517" font-family="CMMI12" font-style="italic"><tspan y="-502.336" x="210.943 216.17935">,x</tspan></text>
<text xml:space="preserve" transform="matrix(1 0 -0 1 0 841.89)" font-size="7.97011" font-family="CMR8"><tspan y="-500.543" x="222.839">2</tspan></text>
<text xml:space="preserve" transform="matrix(1 0 -0 1 0 841.89)" font-size="11.95517" font-family="CMMI12" font-style="italic"><tspan y="-502.336" x="227.571 232.80736">,x</tspan></text>
<text xml:space="preserve" transform="matrix(1 0 -0 1 0 841.89)" font-size="7.97011" font-family="CMR8"><tspan y="-500.543" x="239.468">3</tspan></text>
<text xml:space="preserve" transform="matrix(1 0 -0 1 0 841.89)" font-size="11.95517" font-family="CMMI12" font-style="italic"><tspan y="-502.336" x="244.2 249.43636">,x</tspan></text>
<text xml:space="preserve" transform="matrix(1 0 -0 1 0 841.89)" font-size="7.97011" font-family="CMR8"><tspan y="-500.543" x="256.096">4</tspan></text>
<text xml:space="preserve" transform="matrix(1 0 -0 1 0 841.89)" font-size="11.95517" font-family="CMMI12" font-style="italic"><tspan y="-502.336" x="260.828 266.06437">,x</tspan></text>
<text xml:space="preserve" transform="matrix(1 0 -0 1 0 841.89)" font-size="7.97011" font-family="CMR8"><tspan y="-500.543" x="272.725">5</tspan></text>
<text xml:space="preserve" transform="matrix(1 0 -0 1 0 841.89)" font-size="11.95517" font-family="CMR12"><tspan y="-502.336" x="277.457 285.32353 297.7569 303.61494">)=40</tspan></text>
<text xml:space="preserve" transform="matrix(1 0 -0 1 0 841.89)" font-size="11.95517" font-family="CMMI12" font-style="italic"><tspan y="-502.336" x="311.454">x</tspan></text>
<text xml:space="preserve" transform="matrix(1 0 -0 1 0 841.89)" font-size="7.97011" font-family="CMR8"><tspan y="-500.543" x="318.106">1</tspan></text>
<text xml:space="preserve" transform="matrix(1 0 -0 1 0 841.89)" font-size="11.95517" font-family="CMR12"><tspan y="-502.336" x="325.495 337.25889 343.1169">+30</tspan></text>
<text xml:space="preserve" transform="matrix(1 0 -0 1 0 841.89)" font-size="11.95517" font-family="CMMI12" font-style="italic"><tspan y="-502.336" x="350.955">x</tspan></text>
<text xml:space="preserve" transform="matrix(1 0 -0 1 0 841.89)" font-size="7.97011" font-family="CMR8"><tspan y="-500.543" x="357.607">2</tspan></text>
<text xml:space="preserve" transform="matrix(1 0 -0 1 0 841.89)" font-size="11.95517" font-family="CMR12"><tspan y="-502.336" x="364.996 376.7599">+0</tspan></text>
<text xml:space="preserve" transform="matrix(1 0 -0 1 0 841.89)" font-size="11.95517" font-family="CMMI12" font-style="italic"><tspan y="-502.336" x="384.603">x</tspan></text>
<text xml:space="preserve" transform="matrix(1 0 -0 1 0 841.89)" font-size="7.97011" font-family="CMR8"><tspan y="-500.543" x="391.255">3</tspan></text>
<text xml:space="preserve" transform="matrix(1 0 -0 1 0 841.89)" font-size="11.95517" font-family="CMR12"><tspan y="-502.336" x="398.644 410.4079">+0</tspan></text>
<text xml:space="preserve" transform="matrix(1 0 -0 1 0 841.89)" font-size="11.95517" font-family="CMMI12" font-style="italic"><tspan y="-502.336" x="418.251">x</tspan></text>
<text xml:space="preserve" transform="matrix(1 0 -0 1 0 841.89)" font-size="7.97011" font-family="CMR8"><tspan y="-500.543" x="424.903">4</tspan></text>
<text xml:space="preserve" transform="matrix(1 0 -0 1 0 841.89)" font-size="11.95517" font-family="CMR12"><tspan y="-502.336" x="432.292 444.05589">+0</tspan></text>
<text xml:space="preserve" transform="matrix(1 0 -0 1 0 841.89)" font-size="11.95517" font-family="CMMI12" font-style="italic"><tspan y="-502.336" x="451.899">x</tspan></text>
<text xml:space="preserve" transform="matrix(1 0 -0 1 0 841.89)" font-size="7.97011" font-family="CMR8"><tspan y="-500.543" x="458.551">5</tspan></text>
<text xml:space="preserve" transform="matrix(1 0 -0 1 0 841.89)" font-size="11.95517" font-family="LMRoman12"><tspan y="-502.336" x="502.668 507.22294 513.081 516.3328 522.19088 528.0489 534.05038">(1.18a)</tspan></text>
<text xml:space="preserve" transform="matrix(1 0 -0 1 0 841.89)" font-size="11.95517" font-family="CMMI12" font-style="italic"><tspan y="-481.764" x="106.006">x</tspan></text>
<text xml:space="preserve" transform="matrix(1 0 -0 1 0 841.89)" font-size="7.97011" font-family="CMR8"><tspan y="-479.97" x="112.658">1</tspan></text>
<text xml:space="preserve" transform="matrix(1 0 -0 1 0 841.89)" font-size="11.95517" font-family="CMR12"><tspan y="-481.764" x="127.353">+</tspan></text>
<text xml:space="preserve" transform="matrix(1 0 -0 1 0 841.89)" font-size="11.95517" font-family="CMMI12" font-style="italic"><tspan y="-481.764" x="150.343">x</tspan></text>
<text xml:space="preserve" transform="matrix(1 0 -0 1 0 841.89)" font-size="7.97011" font-family="CMR8"><tspan y="-479.97" x="156.995">2</tspan></text>
<text xml:space="preserve" transform="matrix(1 0 -0 1 0 841.89)" font-size="11.95517" font-family="CMR12"><tspan y="-481.764" x="175.613">+</tspan></text>
<text xml:space="preserve" transform="matrix(1 0 -0 1 0 841.89)" font-size="11.95517" font-family="CMMI12" font-style="italic"><tspan y="-481.764" x="194.68">x</tspan></text>
<text xml:space="preserve" transform="matrix(1 0 -0 1 0 841.89)" font-size="7.97011" font-family="CMR8"><tspan y="-479.97" x="201.332">3</tspan></text>
<text xml:space="preserve" transform="matrix(1 0 -0 1 0 841.89)" font-size="11.95517" font-family="CMR12"><tspan y="-481.764" x="296.856 318.8535">=8</tspan><tspan y="-467.318" x="98.16">2</tspan></text>
<text xml:space="preserve" transform="matrix(1 0 -0 1 0 841.89)" font-size="11.95517" font-family="CMMI12" font-style="italic"><tspan y="-467.318" x="106.006">x</tspan></text>
<text xml:space="preserve" transform="matrix(1 0 -0 1 0 841.89)" font-size="7.97011" font-family="CMR8"><tspan y="-465.524" x="112.658">1</tspan></text>
<text xml:space="preserve" transform="matrix(1 0 -0 1 0 841.89)" font-size="11.95517" font-family="CMR12"><tspan y="-467.318" x="127.353">+</tspan></text>
<text xml:space="preserve" transform="matrix(1 0 -0 1 0 841.89)" font-size="11.95517" font-family="CMMI12" font-style="italic"><tspan y="-467.318" x="150.343">x</tspan></text>
<text xml:space="preserve" transform="matrix(1 0 -0 1 0 841.89)" font-size="7.97011" font-family="CMR8"><tspan y="-465.524" x="156.995">2</tspan></text>
<text xml:space="preserve" transform="matrix(1 0 -0 1 0 841.89)" font-size="11.95517" font-family="CMR12"><tspan y="-467.318" x="216.027">+</tspan></text>
<text xml:space="preserve" transform="matrix(1 0 -0 1 0 841.89)" font-size="11.95517" font-family="CMMI12" font-style="italic"><tspan y="-467.318" x="235.094">x</tspan></text>
<text xml:space="preserve" transform="matrix(1 0 -0 1 0 841.89)" font-size="7.97011" font-family="CMR8"><tspan y="-465.524" x="241.746">4</tspan></text>
<text xml:space="preserve" transform="matrix(1 0 -0 1 0 841.89)" font-size="11.95517" font-family="CMR12"><tspan y="-467.318" x="296.856 315.92448 321.7825">=12</tspan><tspan y="-452.872" x="98.16">2</tspan></text>
<text xml:space="preserve" transform="matrix(1 0 -0 1 0 841.89)" font-size="11.95517" font-family="CMMI12" font-style="italic"><tspan y="-452.872" x="106.006">x</tspan></text>
<text xml:space="preserve" transform="matrix(1 0 -0 1 0 841.89)" font-size="7.97011" font-family="CMR8"><tspan y="-451.079" x="112.658">1</tspan></text>
<text xml:space="preserve" transform="matrix(1 0 -0 1 0 841.89)" font-size="11.95517" font-family="CMR12"><tspan y="-452.872" x="127.353 146.42148">+3</tspan></text>
<text xml:space="preserve" transform="matrix(1 0 -0 1 0 841.89)" font-size="11.95517" font-family="CMMI12" font-style="italic"><tspan y="-452.872" x="154.266">x</tspan></text>
<text xml:space="preserve" transform="matrix(1 0 -0 1 0 841.89)" font-size="7.97011" font-family="CMR8"><tspan y="-451.079" x="160.918">2</tspan></text>
<text xml:space="preserve" transform="matrix(1 0 -0 1 0 841.89)" font-size="11.95517" font-family="CMR12"><tspan y="-452.872" x="256.441">+</tspan></text>
<text xml:space="preserve" transform="matrix(1 0 -0 1 0 841.89)" font-size="11.95517" font-family="CMMI12" font-style="italic"><tspan y="-452.872" x="275.509">x</tspan></text>
<text xml:space="preserve" transform="matrix(1 0 -0 1 0 841.89)" font-size="7.97011" font-family="CMR8"><tspan y="-451.079" x="282.161">5</tspan></text>
<text xml:space="preserve" transform="matrix(1 0 -0 1 0 841.89)" font-size="11.95517" font-family="CMR12"><tspan y="-452.872" x="296.856 315.92448 321.7825">=18</tspan></text>
<text xml:space="preserve" transform="matrix(1 0 -0 1 0 841.89)" font-size="11.95517" font-family="LMRoman12"><tspan y="-452.872" x="337.592 344.0956 350.5992">und</tspan></text>
<text xml:space="preserve" transform="matrix(1 0 -0 1 0 841.89)" font-size="11.95517" font-family="CMMI12" font-style="italic"><tspan y="-452.872" x="361.004">x</tspan></text>
<text xml:space="preserve" transform="matrix(1 0 -0 1 0 841.89)" font-size="7.97011" font-family="CMR8"><tspan y="-451.079" x="367.657">1</tspan></text>
<text xml:space="preserve" transform="matrix(1 0 -0 1 0 841.89)" font-size="11.95517" font-family="CMMI12" font-style="italic"><tspan y="-452.872" x="372.389 377.62538">,x</tspan></text>
<text xml:space="preserve" transform="matrix(1 0 -0 1 0 841.89)" font-size="7.97011" font-family="CMR8"><tspan y="-451.079" x="384.285">2</tspan></text>
<text xml:space="preserve" transform="matrix(1 0 -0 1 0 841.89)" font-size="11.95517" font-family="CMMI12" font-style="italic"><tspan y="-452.872" x="389.017 394.25337">,x</tspan></text>
<text xml:space="preserve" transform="matrix(1 0 -0 1 0 841.89)" font-size="7.97011" font-family="CMR8"><tspan y="-451.079" x="400.914">3</tspan></text>
<text xml:space="preserve" transform="matrix(1 0 -0 1 0 841.89)" font-size="11.95517" font-family="CMMI12" font-style="italic"><tspan y="-452.872" x="405.646 410.88236">,x</tspan></text>
<text xml:space="preserve" transform="matrix(1 0 -0 1 0 841.89)" font-size="7.97011" font-family="CMR8"><tspan y="-451.079" x="417.542">4</tspan></text>
<text xml:space="preserve" transform="matrix(1 0 -0 1 0 841.89)" font-size="11.95517" font-family="CMMI12" font-style="italic"><tspan y="-452.872" x="422.275 427.51136">,x</tspan></text>
<text xml:space="preserve" transform="matrix(1 0 -0 1 0 841.89)" font-size="7.97011" font-family="CMR8"><tspan y="-451.079" x="434.171">5</tspan></text>
<text xml:space="preserve" transform="matrix(1 0 -0 1 0 841.89)" font-size="11.95517" font-family="CMSY10" font-style="italic"><tspan y="-452.872" x="442.224">&#x2265;</tspan></text>
<text xml:space="preserve" transform="matrix(1 0 -0 1 0 841.89)" font-size="11.95517" font-family="CMR12"><tspan y="-452.872" x="454.843">0</tspan></text>
<text xml:space="preserve" transform="matrix(1 0 -0 1 0 841.89)" font-size="11.95517" font-family="LMRoman12"><tspan y="-467.218" x="502.164 506.71894 512.57699 515.8288 521.6868 527.54489 534.04849">(1.18b)</tspan><tspan y="-426.62" x="56.693 63.842195 70.34581 78.28404 86.42551 91.62601 94.877819 99.43273 104.63323 109.18815 114.38865 124.26362 132.08229 137.28279 141.8377 147.69574 154.19936 158.81406 163.67981 170.18343 176.04146 182.54508 185.79688 189.04868 193.92639 200.10723 206.61084 213.11446 222.3558 228.85942 234.05992 242.05794 248.56156 251.81336 261.5688 268.0724 271.3242 276.5247 282.7055 286.6029 294.4096 299.6101 304.16505 307.73963 313.59767 320.10127 324.6562 329.8567 336.3603 344.35829 348.97297 353.5279 358.7284 361.9802 365.232 373.17024 382.92567 388.7837 398.68257 405.18617 408.43797 417.03373 425.9762 431.83424 436.38917 441.58967 451.47657 454.72837 464.62724 469.82774 473.07954 479.58314 484.78364 497.92237 505.41825 511.27629 517.7799 521.03176 526.23226 532.0903">ZurweiterenVeranschaulichungdesSimplex-VerfahrensstelltmandieDatenineinemTableau</tspan><tspan y="-412.174" x="56.693 61.8935 68.39711 73.0118 78.869838 88.62525 98.38067 103.58117 110.08478">zusammen.</tspan></text>
<path transform="matrix(1,0,0,-1,173.64,459.55403)" stroke-width=".398" stroke-linecap="butt" stroke-miterlimit="10" stroke-linejoin="miter" fill="none" stroke="#000000" d="M 0 0 L 0 15.89 "/>
<path transform="matrix(1,0,0,-1,212.359,459.55403)" stroke-width=".398" stroke-linecap="butt" stroke-miterlimit="10" stroke-linejoin="miter" fill="none" stroke="#000000" d="M 0 0 L 0 15.89 "/>
<text xml:space="preserve" transform="matrix(1 0 -0 1 0 841.89)" font-size="11.95517" font-family="LMRoman12"><tspan y="-387.103" x="244.958 253.7331 262.01805">NBV</tspan></text>
<path transform="matrix(1,0,0,-1,303.397,459.55403)" stroke-width=".398" stroke-linecap="butt" stroke-miterlimit="10" stroke-linejoin="miter" fill="none" stroke="#000000" d="M 0 0 L 0 15.89 "/>
<text xml:space="preserve" transform="matrix(1 0 -0 1 0 841.89)" font-size="11.95517" font-family="LMRoman12"><tspan y="-387.103" x="345.6 353.88496">BV</tspan></text>
<path transform="matrix(1,0,0,-1,404.868,459.55403)" stroke-width=".398" stroke-linecap="butt" stroke-miterlimit="10" stroke-linejoin="miter" fill="none" stroke="#000000" d="M 0 0 L 0 15.89 "/>
<path transform="matrix(1,0,0,-1,155.816,459.75303)" stroke-width=".398" stroke-linecap="butt" stroke-miterlimit="10" stroke-linejoin="miter" fill="none" stroke="#000000" d="M 0 0 L 283.643 0 "/>
<path transform="matrix(1,0,0,-1,173.64,475.84303)" stroke-width=".398" stroke-linecap="butt" stroke-miterlimit="10" stroke-linejoin="miter" fill="none" stroke="#000000" d="M 0 0 L 0 15.89 "/>
<path transform="matrix(1,0,0,-1,212.359,475.84303)" stroke-width=".398" stroke-linecap="butt" stroke-miterlimit="10" stroke-linejoin="miter" fill="none" stroke="#000000" d="M 0 0 L 0 15.89 "/>
<text xml:space="preserve" transform="matrix(1 0 -0 1 0 841.89)" font-size="11.95517" font-family="CMMI12" font-style="italic"><tspan y="-370.815" x="222.378">x</tspan></text>
<text xml:space="preserve" transform="matrix(1 0 -0 1 0 841.89)" font-size="7.97011" font-family="CMR8"><tspan y="-369.021" x="229.03">1</tspan></text>
<text xml:space="preserve" transform="matrix(1 0 -0 1 0 841.89)" font-size="11.95517" font-family="CMMI12" font-style="italic"><tspan y="-370.815" x="249.56 254.79636 260.04469 281.0858">...x</tspan></text>
<text xml:space="preserve" transform="matrix(1 0 -0 1 0 841.89)" font-size="7.97011" font-family="CMMI8" font-style="italic"><tspan y="-369.021" x="287.742">n</tspan></text>
<path transform="matrix(1,0,0,-1,303.397,475.84303)" stroke-width=".398" stroke-linecap="butt" stroke-miterlimit="10" stroke-linejoin="miter" fill="none" stroke="#000000" d="M 0 0 L 0 15.89 "/>
<text xml:space="preserve" transform="matrix(1 0 -0 1 0 841.89)" font-size="11.95517" font-family="CMMI12" font-style="italic"><tspan y="-370.815" x="309.574">x</tspan></text>
<text xml:space="preserve" transform="matrix(1 0 -0 1 0 841.89)" font-size="7.97011" font-family="CMMI8" font-style="italic"><tspan y="-369.021" x="316.226">n</tspan></text>
<text xml:space="preserve" transform="matrix(1 0 -0 1 0 841.89)" font-size="7.97011" font-family="CMR8"><tspan y="-369.021" x="321.364 327.94734">+1</tspan></text>
<text xml:space="preserve" transform="matrix(1 0 -0 1 0 841.89)" font-size="11.95517" font-family="CMMI12" font-style="italic"><tspan y="-370.815" x="344.638 349.87437 355.12269 372.32618">...x</tspan></text>
<text xml:space="preserve" transform="matrix(1 0 -0 1 0 841.89)" font-size="7.97011" font-family="CMMI8" font-style="italic"><tspan y="-369.021" x="378.978">n</tspan></text>
<text xml:space="preserve" transform="matrix(1 0 -0 1 0 841.89)" font-size="7.97011" font-family="CMR8"><tspan y="-369.021" x="384.116">+</tspan></text>
<text xml:space="preserve" transform="matrix(1 0 -0 1 0 841.89)" font-size="7.97011" font-family="CMMI8" font-style="italic"><tspan y="-369.021" x="390.703">m</tspan></text>
<path transform="matrix(1,0,0,-1,404.868,475.84303)" stroke-width=".398" stroke-linecap="butt" stroke-miterlimit="10" stroke-linejoin="miter" fill="none" stroke="#000000" d="M 0 0 L 0 15.89 "/>
<text xml:space="preserve" transform="matrix(1 0 -0 1 0 841.89)" font-size="11.95517" font-family="CMMI12" font-style="italic"><tspan y="-370.815" x="418.084">b</tspan></text>
<text xml:space="preserve" transform="matrix(1 0 -0 1 0 841.89)" font-size="7.97011" font-family="CMMI8" font-style="italic"><tspan y="-369.021" x="423.061">i</tspan></text>
<path transform="matrix(1,0,0,-1,155.816,476.04203)" stroke-width=".398" stroke-linecap="butt" stroke-miterlimit="10" stroke-linejoin="miter" fill="none" stroke="#000000" d="M 0 0 L 283.643 0 "/>
<text xml:space="preserve" transform="matrix(0 -1 1 0 503.31 678.638)" font-size="11.95517" font-family="LMRoman12"><tspan y="-333.281" x="170.029 178.31394">BV</tspan></text>
<path transform="matrix(1,0,0,-1,173.64002,492.13203)" stroke-width=".398" stroke-linecap="butt" stroke-miterlimit="10" stroke-linejoin="miter" fill="none" stroke="#000000" d="M 0 0 L 0 15.89 "/>
<text xml:space="preserve" transform="matrix(1 0 -0 1 0 841.89)" font-size="11.95517" font-family="CMMI12" font-style="italic"><tspan y="-354.526" x="181.445">x</tspan></text>
<text xml:space="preserve" transform="matrix(1 0 -0 1 0 841.89)" font-size="7.97011" font-family="CMMI8" font-style="italic"><tspan y="-352.732" x="188.097">n</tspan></text>
<text xml:space="preserve" transform="matrix(1 0 -0 1 0 841.89)" font-size="7.97011" font-family="CMR8"><tspan y="-352.732" x="193.235 199.81832">+1</tspan></text>
<path transform="matrix(1,0,0,-1,212.359,492.13203)" stroke-width=".398" stroke-linecap="butt" stroke-miterlimit="10" stroke-linejoin="miter" fill="none" stroke="#000000" d="M 0 0 L 0 15.89 "/>
<text xml:space="preserve" transform="matrix(1 0 -0 1 0 841.89)" font-size="11.95517" font-family="CMMI12" font-style="italic"><tspan y="-354.526" x="220.515">a</tspan></text>
<text xml:space="preserve" transform="matrix(1 0 -0 1 0 841.89)" font-size="7.97011" font-family="CMR8"><tspan y="-352.732" x="226.66 230.89214">11</tspan></text>
<text xml:space="preserve" transform="matrix(1 0 -0 1 0 841.89)" font-size="11.95517" font-family="CMMI12" font-style="italic"><tspan y="-354.526" x="249.56 254.79636 260.04469 279.22077">...a</tspan></text>
<text xml:space="preserve" transform="matrix(1 0 -0 1 0 841.89)" font-size="7.97011" font-family="CMR8"><tspan y="-352.732" x="285.371">1</tspan></text>
<text xml:space="preserve" transform="matrix(1 0 -0 1 0 841.89)" font-size="7.97011" font-family="CMMI8" font-style="italic"><tspan y="-352.732" x="289.605">n</tspan></text>
<path transform="matrix(1,0,0,-1,303.397,492.13203)" stroke-width=".398" stroke-linecap="butt" stroke-miterlimit="10" stroke-linejoin="miter" fill="none" stroke="#000000" d="M 0 0 L 0 15.89 "/>
<text xml:space="preserve" transform="matrix(1 0 -0 1 0 841.89)" font-size="11.95517" font-family="LMRoman12"><tspan y="-354.526" x="318.202">1</tspan></text>
<text xml:space="preserve" transform="matrix(1 0 -0 1 0 841.89)" font-size="11.95517" font-family="CMMI12" font-style="italic"><tspan y="-354.526" x="344.638 349.87437 355.12269">...</tspan></text>
<text xml:space="preserve" transform="matrix(1 0 -0 1 0 841.89)" font-size="11.95517" font-family="LMRoman12"><tspan y="-354.526" x="382.582">0</tspan></text>
<path transform="matrix(1,0,0,-1,404.868,492.13203)" stroke-width=".398" stroke-linecap="butt" stroke-miterlimit="10" stroke-linejoin="miter" fill="none" stroke="#000000" d="M 0 0 L 0 15.89 "/>
<text xml:space="preserve" transform="matrix(1 0 -0 1 0 841.89)" font-size="11.95517" font-family="CMMI12" font-style="italic"><tspan y="-354.526" x="417.409">b</tspan></text>
<text xml:space="preserve" transform="matrix(1 0 -0 1 0 841.89)" font-size="7.97011" font-family="CMR8"><tspan y="-352.732" x="422.386">1</tspan></text>
<path transform="matrix(1,0,0,-1,173.64,512.00906)" stroke-width=".398" stroke-linecap="butt" stroke-miterlimit="10" stroke-linejoin="miter" fill="none" stroke="#000000" d="M 0 0 L 0 19.877 "/>
<text xml:space="preserve" transform="matrix(1 0 -0 1 0 841.89)" font-size="11.95517" font-family="LMRoman12"><tspan y="-342.618" x="191.374">.</tspan><tspan y="-338.633" x="191.374">.</tspan><tspan y="-334.648" x="191.374">.</tspan></text>
<path transform="matrix(1,0,0,-1,212.359,512.00906)" stroke-width=".398" stroke-linecap="butt" stroke-miterlimit="10" stroke-linejoin="miter" fill="none" stroke="#000000" d="M 0 0 L 0 19.877 "/>
<text xml:space="preserve" transform="matrix(1 0 -0 1 0 841.89)" font-size="11.95517" font-family="LMRoman12"><tspan y="-342.618" x="226.444">.</tspan><tspan y="-338.633" x="226.444">.</tspan><tspan y="-334.648" x="226.444">.</tspan><tspan y="-341.622" x="251.22">.</tspan><tspan y="-338.633" x="255.8">.</tspan><tspan y="-335.645" x="260.38">.</tspan><tspan y="-342.618" x="285.608">.</tspan><tspan y="-338.633" x="285.608">.</tspan><tspan y="-334.648" x="285.608">.</tspan></text>
<path transform="matrix(1,0,0,-1,303.397,512.00906)" stroke-width=".398" stroke-linecap="butt" stroke-miterlimit="10" stroke-linejoin="miter" fill="none" stroke="#000000" d="M 0 0 L 0 19.877 "/>
<text xml:space="preserve" transform="matrix(1 0 -0 1 0 841.89)" font-size="11.95517" font-family="LMRoman12"><tspan y="-341.622" x="346.299">.</tspan><tspan y="-338.633" x="350.879">.</tspan><tspan y="-335.645" x="355.459">.</tspan></text>
<path transform="matrix(1,0,0,-1,404.868,512.00906)" stroke-width=".398" stroke-linecap="butt" stroke-miterlimit="10" stroke-linejoin="miter" fill="none" stroke="#000000" d="M 0 0 L 0 19.877 "/>
<text xml:space="preserve" transform="matrix(1 0 -0 1 0 841.89)" font-size="11.95517" font-family="LMRoman12"><tspan y="-342.618" x="420.638">.</tspan><tspan y="-338.633" x="420.638">.</tspan><tspan y="-334.648" x="420.638">.</tspan></text>
<path transform="matrix(1,0,0,-1,173.64,527.89907)" stroke-width=".398" stroke-linecap="butt" stroke-miterlimit="10" stroke-linejoin="miter" fill="none" stroke="#000000" d="M 0 0 L 0 15.89 "/>
<text xml:space="preserve" transform="matrix(1 0 -0 1 0 841.89)" font-size="11.95517" font-family="CMMI12" font-style="italic"><tspan y="-318.758" x="179.817">x</tspan></text>
<text xml:space="preserve" transform="matrix(1 0 -0 1 0 841.89)" font-size="7.97011" font-family="CMMI8" font-style="italic"><tspan y="-316.965" x="186.469">n</tspan></text>
<text xml:space="preserve" transform="matrix(1 0 -0 1 0 841.89)" font-size="7.97011" font-family="CMR8"><tspan y="-316.965" x="191.607">+</tspan></text>
<text xml:space="preserve" transform="matrix(1 0 -0 1 0 841.89)" font-size="7.97011" font-family="CMMI8" font-style="italic"><tspan y="-316.965" x="198.194">m</tspan></text>
<path transform="matrix(1,0,0,-1,212.359,527.89907)" stroke-width=".398" stroke-linecap="butt" stroke-miterlimit="10" stroke-linejoin="miter" fill="none" stroke="#000000" d="M 0 0 L 0 15.89 "/>
<text xml:space="preserve" transform="matrix(1 0 -0 1 0 841.89)" font-size="11.95517" font-family="CMMI12" font-style="italic"><tspan y="-318.758" x="218.886">a</tspan></text>
<text xml:space="preserve" transform="matrix(1 0 -0 1 0 841.89)" font-size="7.97011" font-family="CMMI8" font-style="italic"><tspan y="-316.965" x="225.031">m</tspan></text>
<text xml:space="preserve" transform="matrix(1 0 -0 1 0 841.89)" font-size="7.97011" font-family="CMR8"><tspan y="-316.965" x="232.522">1</tspan></text>
<text xml:space="preserve" transform="matrix(1 0 -0 1 0 841.89)" font-size="11.95517" font-family="CMMI12" font-style="italic"><tspan y="-318.758" x="249.56 254.79636 260.04469 278.76649">...a</tspan></text>
<text xml:space="preserve" transform="matrix(1 0 -0 1 0 841.89)" font-size="7.97011" font-family="CMMI8" font-style="italic"><tspan y="-316.965" x="284.919 290.05973">nn</tspan></text>
<path transform="matrix(1,0,0,-1,303.397,527.89907)" stroke-width=".398" stroke-linecap="butt" stroke-miterlimit="10" stroke-linejoin="miter" fill="none" stroke="#000000" d="M 0 0 L 0 15.89 "/>
<text xml:space="preserve" transform="matrix(1 0 -0 1 0 841.89)" font-size="11.95517" font-family="LMRoman12"><tspan y="-318.758" x="318.202">0</tspan></text>
<text xml:space="preserve" transform="matrix(1 0 -0 1 0 841.89)" font-size="11.95517" font-family="CMMI12" font-style="italic"><tspan y="-318.758" x="344.638 349.87437 355.12269">...</tspan></text>
<text xml:space="preserve" transform="matrix(1 0 -0 1 0 841.89)" font-size="11.95517" font-family="LMRoman12"><tspan y="-318.758" x="382.582">1</tspan></text>
<path transform="matrix(1,0,0,-1,404.868,527.89907)" stroke-width=".398" stroke-linecap="butt" stroke-miterlimit="10" stroke-linejoin="miter" fill="none" stroke="#000000" d="M 0 0 L 0 15.89 "/>
<text xml:space="preserve" transform="matrix(1 0 -0 1 0 841.89)" font-size="11.95517" font-family="CMMI12" font-style="italic"><tspan y="-318.758" x="415.781">b</tspan></text>
<text xml:space="preserve" transform="matrix(1 0 -0 1 0 841.89)" font-size="7.97011" font-family="CMMI8" font-style="italic"><tspan y="-316.965" x="420.758">m</tspan></text>
<path transform="matrix(1,0,0,-1,155.816,528.099)" stroke-width=".398" stroke-linecap="butt" stroke-miterlimit="10" stroke-linejoin="miter" fill="none" stroke="#000000" d="M 0 0 L 283.643 0 "/>
<path transform="matrix(1,0,0,-1,173.64,544.188)" stroke-width=".398" stroke-linecap="butt" stroke-miterlimit="10" stroke-linejoin="miter" fill="none" stroke="#000000" d="M 0 0 L 0 15.89 "/>
<path transform="matrix(1,0,0,-1,212.359,544.188)" stroke-width=".398" stroke-linecap="butt" stroke-miterlimit="10" stroke-linejoin="miter" fill="none" stroke="#000000" d="M 0 0 L 0 15.89 "/>
<text xml:space="preserve" transform="matrix(1 0 -0 1 0 841.89)" font-size="11.95517" font-family="CMSY10" font-style="italic"><tspan y="-302.469" x="218.536">&#x2212;</tspan></text>
<text xml:space="preserve" transform="matrix(1 0 -0 1 0 841.89)" font-size="11.95517" font-family="CMMI12" font-style="italic"><tspan y="-302.469" x="227.834">c</tspan></text>
<text xml:space="preserve" transform="matrix(1 0 -0 1 0 841.89)" font-size="7.97011" font-family="CMR8"><tspan y="-300.676" x="232.872">1</tspan></text>
<text xml:space="preserve" transform="matrix(1 0 -0 1 0 841.89)" font-size="11.95517" font-family="CMMI12" font-style="italic"><tspan y="-302.469" x="249.56 254.79636 260.04469">...</tspan></text>
<text xml:space="preserve" transform="matrix(1 0 -0 1 0 841.89)" font-size="11.95517" font-family="CMSY10" font-style="italic"><tspan y="-302.469" x="277.248">&#x2212;</tspan></text>
<text xml:space="preserve" transform="matrix(1 0 -0 1 0 841.89)" font-size="11.95517" font-family="CMMI12" font-style="italic"><tspan y="-302.469" x="286.546">c</tspan></text>
<text xml:space="preserve" transform="matrix(1 0 -0 1 0 841.89)" font-size="7.97011" font-family="CMMI8" font-style="italic"><tspan y="-300.676" x="291.584">n</tspan></text>
<path transform="matrix(1,0,0,-1,303.397,544.188)" stroke-width=".398" stroke-linecap="butt" stroke-miterlimit="10" stroke-linejoin="miter" fill="none" stroke="#000000" d="M 0 0 L 0 15.89 "/>
<text xml:space="preserve" transform="matrix(1 0 -0 1 0 841.89)" font-size="11.95517" font-family="LMRoman12"><tspan y="-302.469" x="318.202">0</tspan></text>
<text xml:space="preserve" transform="matrix(1 0 -0 1 0 841.89)" font-size="11.95517" font-family="CMMI12" font-style="italic"><tspan y="-302.469" x="344.638 349.87437 355.12269">...</tspan></text>
<text xml:space="preserve" transform="matrix(1 0 -0 1 0 841.89)" font-size="11.95517" font-family="LMRoman12"><tspan y="-302.469" x="382.582">0</tspan></text>
<path transform="matrix(1,0,0,-1,404.868,544.188)" stroke-width=".398" stroke-linecap="butt" stroke-miterlimit="10" stroke-linejoin="miter" fill="none" stroke="#000000" d="M 0 0 L 0 15.89 "/>
<text xml:space="preserve" transform="matrix(1 0 -0 1 0 841.89)" font-size="11.95517" font-family="LMRoman12"><tspan y="-302.469" x="411.045 418.1942 421.7688 430.2211">Zfw.</tspan></text>
<text xml:space="preserve" transform="matrix(1 0 -0 1 0 841.89)" font-size="11.95517" font-family="LMRoman12"><tspan y="-277.627" x="224.64 232.12393 237.98197 244.79642 249.99692 253.24872 256.50053 265.59843 271.45646 274.70826">Tabelle1.1</tspan></text>
<text xml:space="preserve" transform="matrix(1 0 -0 1 0 841.89)" font-size="11.95517" font-family="LMRoman12"><tspan y="-277.627" x="280.569">:</tspan></text>
<text xml:space="preserve" transform="matrix(1 0 -0 1 0 841.89)" font-size="11.95517" font-family="LMRoman12"><tspan y="-277.627" x="287.722 295.5287 301.38673 305.94166 309.19346 315.05149 320.90953 329.99546 337.49134 343.34938 349.85298 353.10478 358.2933 364.15135">VorlageTableau</tspan></text>
<text xml:space="preserve" transform="matrix(1 0 -0 1 0 841.89)" font-size="11.95517" font-family="LMRoman12"><tspan y="-244.9" x="56.693 60.913179 71.06312 77.56673 82.76723 96.16897 104.94406 111.44768 115.02227 120.8803 127.38391 133.24195 137.85665 142.41156 148.26959 154.77321 158.02501 163.22551 169.08354 179.22153 183.77645 188.39115 191.64295 196.84345 203.34706 212.1939 219.68978 225.5478 232.36226 237.56276 240.81456 244.06636 252.9132 258.77125 262.02305 267.88108 276.08235 280.69703 285.25196 288.50376 298.2592 308.01463 313.21513 323.36506 329.86866 333.12046 341.9673 346.18748 352.69108 359.19468 362.44648 367.64698 372.84748 381.1085 387.6121 392.8126 401.01387 409.78895 413.04075 417.91847 424.09928 428.6542 435.1578 441.01585 445.63053 448.88233 453.497 459.03227 464.8903 469.44523 472.69703 478.55506 485.05867 488.31047 493.51097 503.64894 508.20387 516.97897 525.26388 534.03897">IndemAnfangstableau(sieheTabelle1.2)stimmendieIndizesderNichtbasisvariablen(NBV)</tspan><tspan y="-230.454" x="56.693 63.196615 69.700229 80.34033 86.84395 91.398868 95.95378 102.4574 108.63822 113.19314 119.69675 124.25166 129.7869 135.64493 140.19985 143.45165 149.30968 155.8133 159.0651 164.2656 174.9057 181.40932 187.91294 198.55304 205.05666 208.30846 217.6574 221.87757 228.38118 234.8848 238.1366 243.3371 248.5376 257.2888 263.7924 268.9929 277.69627 285.9812 291.83924 296.45393 299.70573 304.3204 309.85566 315.71369 320.26863 323.52043 329.37846 335.88206 339.13386 344.33436 354.97444 359.52937 367.8143 376.5894 385.2808 391.7844 398.288 408.94004 415.44364 420.32136 426.82496 430.07676 436.58036 443.08396 446.65855 452.1938 458.05183 462.60676 465.85856 471.71659 478.22019 481.472 486.6725 497.31257 503.81617 510.64256 515.843 520.39797 525.59848 528.8503 535.3539">undStrukturvariablenunddieIndizesderBasisvariablen(BV)undSchlupfvariablen&#x00fc;berein.</tspan><tspan y="-216.008" x="56.693 65.63547 68.887279 78.54706 85.69625 88.94806 94.14856 97.40037 100.97496 107.47858 113.98219 120.16302 124.71793 127.96974 133.82778 140.33139 144.94609 150.81607 156.98494 162.18544 171.94086 177.14136 180.39316 185.59366 191.78644 196.34136 201.54186">DieZielfunktionskoe&#xfb03;zienten</tspan></text>
<text xml:space="preserve" transform="matrix(1 0 -0 1 0 841.89)" font-size="11.95517" font-family="CMR12"><tspan y="-216.008" x="212.507">(</tspan></text>
<text xml:space="preserve" transform="matrix(1 0 -0 1 0 841.89)" font-size="11.95517" font-family="CMMI12" font-style="italic"><tspan y="-216.008" x="217.06">c</tspan></text>
<text xml:space="preserve" transform="matrix(1 0 -0 1 0 841.89)" font-size="7.97011" font-family="CMR8"><tspan y="-214.215" x="222.098">1</tspan></text>
<text xml:space="preserve" transform="matrix(1 0 -0 1 0 841.89)" font-size="11.95517" font-family="CMMI12" font-style="italic"><tspan y="-216.008" x="226.83 232.06636 237.31467 242.56299 247.79935 253.04767">,...,c</tspan></text>
<text xml:space="preserve" transform="matrix(1 0 -0 1 0 841.89)" font-size="7.97011" font-family="CMMI8" font-style="italic"><tspan y="-214.215" x="258.089">n</tspan></text>
<text xml:space="preserve" transform="matrix(1 0 -0 1 0 841.89)" font-size="11.95517" font-family="CMR12"><tspan y="-216.008" x="263.725">)</tspan></text>
<text xml:space="preserve" transform="matrix(1 0 -0 1 0 841.89)" font-size="11.95517" font-family="LMRoman12"><tspan y="-216.008" x="272.746 276.3206 282.8242 291.8384 298.342 301.5938 311.26554 320.04063 323.29243 328.1821 334.35096 338.90589 345.4095 351.26753 355.8822 359.134 363.7487 369.28395 375.14198 379.6969 382.9487 388.80674 395.31034 398.56214 403.76264 414.72554 422.85505 428.05555 432.61048 439.11408 444.31459 455.27748 458.52928 469.5041 476.0077 481.2082 490.23435 498.19648 502.7514 508.60945 513.80996 520.31356 526.81716 530.069 534.68368">f&#x00fc;rdieNichtbasisvariablenwerdeninderErgebnis-</tspan><tspan y="-201.562" x="56.693 61.8935 67.094 70.34581 73.59762 82.43249 92.187908 95.43971 103.629 110.132617 115.333118 121.19115 127.04918 131.6041 134.8559 140.72588 145.92638 156.05242 163.85915 169.71718 174.2721 179.4726 184.6731 187.9249 192.80261 199.30623 204.50673 214.63277 219.83327 223.08507 229.58869 235.44672 240.64722 245.20214 249.75705 255.61508 261.4731 266.6736 273.17723 280.07536 286.57896 292.43699 302.1924 305.4442 313.6335 319.81434 325.67237 332.17597 342.31394 348.81755 352.06935 360.91618 368.23274 374.09077 378.70545 385.20906 391.71266 401.20506 407.70866 412.90916 421.09846 424.35026 427.60206 434.10566 439.30616 445.16419 449.71913 454.91963 465.0576 474.16743 480.67103 485.22596 488.47776 498.2332 501.485 506.6855 511.24043 517.744 524.2476 530.10568 534.72036">zeilemitnegativenVorzeicheneingetragen.SomitkanndieL&#x00f6;sungderlinearenOptimierungs-</tspan><tspan y="-187.116" x="56.693 62.551034 69.05464 72.629238 78.48727 84.3453 91.1717 101.740077 104.99188 114.7473 124.502719 129.70322 139.626 145.48404 150.68454 155.23946 162.06586 167.26636 171.88106 176.49576 181.69626 186.25118 196.162 204.30347 209.50397 214.05889 220.5625 225.763 232.26662 240.87433 245.48903 251.34706 254.59886 260.4569 266.9605 272.81855 283.3869 293.14234 296.39414 302.89775 309.40135 314.60185 319.21653 323.77146 328.97196 335.47557 345.4581 350.6586 353.9104 360.414 370.98237 379.75746 383.00926 387.89894 394.07975 398.63468 405.13829 410.9963 415.611 418.8628 423.47749 429.00077 434.8588 439.41374 442.66554 448.52357 455.02717 458.27897 468.8354 478.59083 481.84263 491.7654 498.269 503.4695 509.32756 515.1856 519.74057 522.9924 528.86239 534.06289">aufgabeimmerverbessertwerden,solangemindestenseineNichtbasisvariablemitnegativer</tspan><tspan y="-172.671" x="56.693 64.65514 67.90695 74.087779 78.64269 83.19761 89.05564 94.91367 101.41728 107.9209 118.465358 121.71716 132.90721 139.41083 144.61133 153.86463 161.82677 166.38169 172.23972 177.44022 183.94384 190.44745 193.69925 198.31395 203.51445 208.71495 211.96675 215.21855 225.10549 230.97547 236.8335 241.38842 244.64022 247.89202 253.09252 258.95057 263.5055 271.44374">EintragunginderErgebniszeilevorliegt.[</tspan></text>
<text xml:space="preserve" transform="matrix(1 0 -0 1 0 841.89)" font-size="11.95517" font-family="LMRoman12" font-weight="bold"><tspan y="-172.671" x="274.676">?</tspan></text>
<text xml:space="preserve" transform="matrix(1 0 -0 1 0 841.89)" font-size="11.95517" font-family="LMRoman12"><tspan y="-172.671" x="281.028 288.96626 297.90873 303.76676 313.07984 319.58345 322.83525 329.33885 333.89378 339.09428 342.34608 347.2238 353.7274 358.9279 365.4315 371.9351 381.82203 390.93186 397.43547 401.9904 405.2422 414.99763 420.85566 424.10746 427.35926 431.91419 437.77223 442.32716 446.94184 453.12266 457.67759 460.92939 465.4843 470.6848 475.23976 478.49156 484.99516 499.437 502.6888 513.8908 519.0913 522.34317 528.84677 534.04727">]DashinreichendeOptimalit&#x00e4;tskriteriumineiner</tspan><tspan y="-158.225" x="56.693 64.65514 69.53285 75.390888">Ecke</tspan></text>
<text xml:space="preserve" transform="matrix(1 0 -0 1 0 841.89)" font-size="11.95517" font-family="CMBX12" font-weight="bold"><tspan y="-158.225" x="84.492">x</tspan></text>
<text xml:space="preserve" transform="matrix(1 0 -0 1 0 841.89)" font-size="11.95517" font-family="LMRoman12"><tspan y="-158.225" x="95.493 103.9453 107.197109 111.75202 122.153018 126.76771 132.62575 142.38117 145.63297 154.08527 157.65987 163.5179 166.7697 172.62773 177.82823 184.33185 190.83547 196.03597 200.59088 210.3463 216.20433 229.21155 234.41205 244.81305 251.31667 256.51716 263.02076 269.52436 272.77616 277.97666 282.5316 287.08653 294.24766">wirdsomitfolgenderma&#xfffd;ende&#xfb01;niert:[</tspan></text>
<text xml:space="preserve" transform="matrix(1 0 -0 1 0 841.89)" font-size="11.95517" font-family="LMRoman12" font-weight="bold"><tspan y="-158.225" x="297.489">?</tspan></text>
<text xml:space="preserve" transform="matrix(1 0 -0 1 0 841.89)" font-size="11.95517" font-family="LMRoman12"><tspan y="-158.225" x="303.84">]</tspan></text>
<text xml:space="preserve" transform="matrix(1 0 -0 1 0 841.89)" font-size="11.95517" font-family="CMBX12" font-weight="bold"><tspan y="-129.333" x="279.01">c</tspan></text>
<text xml:space="preserve" transform="matrix(1 0 -0 1 0 841.89)" font-size="7.97011" font-family="CMSY8" font-style="italic"><tspan y="-127.54" x="284.987">N</tspan></text>
<text xml:space="preserve" transform="matrix(1 0 -0 1 0 841.89)" font-size="11.95517" font-family="CMSY10" font-style="italic"><tspan y="-129.333" x="296.922">&#x2265;</tspan></text>
<text xml:space="preserve" transform="matrix(1 0 -0 1 0 841.89)" font-size="11.95517" font-family="CMBX12" font-weight="bold"><tspan y="-129.333" x="309.541">0</tspan></text>
<text xml:space="preserve" transform="matrix(1 0 -0 1 0 841.89)" font-size="11.95517" font-family="LMRoman12"><tspan y="-129.333" x="508.667 513.2219 519.07998 522.3318 528.1898 534.04788">(1.19)</tspan><tspan y="-108.412" x="56.693 60.913179 73.94431 80.615299 86.47333 89.725139 95.58317 100.78367 107.28728 113.79089 118.991397 128.75878 137.21108 140.46288 145.01779 154.79712 161.30074 167.15877 175.04918 183.82428 190.3279 193.9025 199.76053 206.26415 212.12218 216.73688 221.2918 227.14983 233.65345 236.90525 242.10575 247.96378 257.7431 261.3177 267.8213 275.65196 282.15556 288.01359 295.904 304.18894 309.38945 312.64125 317.25593 323.75953 327.01133 332.21183 338.73936 345.24296 350.44346 358.2741 361.5259 364.7777 371.2813 376.4818 382.33985 386.89479 392.09529 401.86265 412.58644 418.44447 424.62528 427.87709 437.6325 440.8843 446.0848 450.63975 457.14335 463.64695 469.50498 474.11967 479.9777 486.4813 490.05589 495.9139 501.77195 508.59834 517.0745 521.62948 526.24417 529.496 534.6965">ImFolgendenwirddasAnfangstableauf&#x00fc;rdasBeispielderlinearenMaximierungsaufgabe(sie-</tspan><tspan y="-93.966" x="56.693 63.196615 73.32264 82.50421 85.75602 90.95652 94.20833 99.08604 105.26685 111.77046 118.27408 129.04569 134.90372 138.15552 144.01355 149.87158 159.36399 165.8676 171.72563 176.28055 182.13858 187.33908 191.95378 196.5087 201.7092 204.961 208.2128 212.76772 220.94506 225.16522 236.59438 243.09799 249.60161 254.21631 259.4168 263.97175 269.17225 283.8532 292.31748 298.82109 303.43577 309.2938 315.15184 321.65544 327.51347 332.12815 336.68309 342.5411 349.0447 352.2965 357.497 363.35505 374.77223 379.3869 382.6387 389.1423 400.5834 406.44145 409.69325 412.94505">heGleichung1.18)dargestellt.InunseremAusgangstableausindalle</tspan></text>
<text xml:space="preserve" transform="matrix(1 0 -0 1 0 841.89)" font-size="11.95517" font-family="CMMI12" font-style="italic"><tspan y="-93.966" x="423.039">b</tspan></text>
<text xml:space="preserve" transform="matrix(1 0 -0 1 0 841.89)" font-size="7.97011" font-family="CMMI8" font-style="italic"><tspan y="-92.172" x="428.016">i</tspan></text>
<text xml:space="preserve" transform="matrix(1 0 -0 1 0 841.89)" font-size="11.95517" font-family="CMSY10" font-style="italic"><tspan y="-93.966" x="436.464">&#x2265;</tspan></text>
<text xml:space="preserve" transform="matrix(1 0 -0 1 0 841.89)" font-size="11.95517" font-family="CMR12"><tspan y="-93.966" x="450.83">0</tspan></text>
<text xml:space="preserve" transform="matrix(1 0 -0 1 0 841.89)" font-size="11.95517" font-family="LMRoman12"><tspan y="-93.966" x="456.682 464.85935 469.47404 475.33207 485.0875 488.3393 497.81977 502.43446 505.68626 512.1899 523.619 530.1226 533.37448">,somitsinddie</tspan><tspan y="-79.52" x="56.693 65.468097 68.7199 73.59761 79.778438 84.33335 90.83696 96.03746 101.89549 107.753528 112.30844 115.56025 121.74107 124.99288 129.5478 135.40584 139.96076 144.57546 151.38991 156.59041 163.09403 166.34583 172.84944 178.70748 185.21109 191.7147 197.57274 202.77324 213.4492 218.00412 222.61882 225.87062 231.07112 237.57474 246.94759 256.12916 259.38096 264.58146 267.83326 272.72294 278.90376 285.40736 291.91096 301.92939 307.7874 311.0392 316.89726 325.62455 330.82505 335.37998 338.95457 345.45817 348.70997 351.96177 360.68907 367.19267 373.69627 384.37223 392.82453 396.07633 404.80363 410.00413 414.55906 421.06266 426.9207 430.1725 434.72743 439.92793 450.59193 457.09553 463.93388 469.13438 477.86167 484.36528 487.61708 496.98994 503.49354 508.37126 514.8749 518.1267 524.6303 531.1339 534.7085">Nichtnegativit&#x00e4;tsbedingungen(sieheGleichung1.4)erf&#x00fc;lltundwirerhalten&#x00fc;berdieSchlupf-</tspan><tspan y="-65.074" x="56.693 62.228246 68.08628 72.6412 75.893009 81.75104 88.254657 91.50646 96.70696 107.849178 113.049678 116.30148 122.8051 132.65616 137.85666 144.36028 147.61208 153.47011 158.08481 162.69951 165.95131 171.80934 181.67237 189.95729 195.81533 200.43003 203.68183 208.29653 211.54833 217.40636 222.02106 228.52468 235.02829 245.53688">variableneinezul&#x00e4;ssigeBasisl&#x00f6;sung(</tspan></text>
<text xml:space="preserve" transform="matrix(1 0 -0 1 0 841.89)" font-size="11.95517" font-family="CMBX12" font-weight="bold"><tspan y="-65.074" x="250.084">x</tspan></text>
<text xml:space="preserve" transform="matrix(1 0 -0 1 0 841.89)" font-size="7.97011" font-family="CMR8"><tspan y="-69.413" x="257.182 260.47367 264.70579">(0)</tspan></text>
<text xml:space="preserve" transform="matrix(1 0 -0 1 0 841.89)" font-size="11.95517" font-family="CMR12"><tspan y="-65.074" x="273.101 286.80165 291.35658">=(0</tspan></text>
<text xml:space="preserve" transform="matrix(1 0 -0 1 0 841.89)" font-size="11.95517" font-family="CMMI12" font-style="italic"><tspan y="-65.074" x="297.211">,</tspan></text>
<text xml:space="preserve" transform="matrix(1 0 -0 1 0 841.89)" font-size="11.95517" font-family="CMR12"><tspan y="-65.074" x="302.455">0</tspan></text>
<text xml:space="preserve" transform="matrix(1 0 -0 1 0 841.89)" font-size="11.95517" font-family="CMMI12" font-style="italic"><tspan y="-65.074" x="308.308">,</tspan></text>
<text xml:space="preserve" transform="matrix(1 0 -0 1 0 841.89)" font-size="11.95517" font-family="CMR12"><tspan y="-65.074" x="313.552">8</tspan></text>
<text xml:space="preserve" transform="matrix(1 0 -0 1 0 841.89)" font-size="11.95517" font-family="CMMI12" font-style="italic"><tspan y="-65.074" x="319.405">,</tspan></text>
<text xml:space="preserve" transform="matrix(1 0 -0 1 0 841.89)" font-size="11.95517" font-family="CMR12"><tspan y="-65.074" x="324.65 330.50804">12</tspan></text>
<text xml:space="preserve" transform="matrix(1 0 -0 1 0 841.89)" font-size="11.95517" font-family="CMMI12" font-style="italic"><tspan y="-65.074" x="336.356">,</tspan></text>
<text xml:space="preserve" transform="matrix(1 0 -0 1 0 841.89)" font-size="11.95517" font-family="CMR12"><tspan y="-65.074" x="341.6 347.45805 353.31608">18)</tspan></text>
<text xml:space="preserve" transform="matrix(1 0 -0 1 0 841.89)" font-size="11.95517" font-family="LMRoman12"><tspan y="-65.074" x="362.512 367.12669 370.37849 375.57899 382.08259 391.93367 399.8958 406.3994 412.903 419.08384">siehePunkt</tspan></text>
<text xml:space="preserve" transform="matrix(1 0 -0 1 0 841.89)" font-size="11.95517" font-family="CMBX12" font-weight="bold"><tspan y="-65.074" x="428.299">A</tspan></text>
<text xml:space="preserve" transform="matrix(1 0 -0 1 0 841.89)" font-size="11.95517" font-family="LMRoman12"><tspan y="-65.074" x="443.109 446.3608 457.51499 466.29008 472.79368 479.29728 482.54908 485.80088 492.30448 498.80809 505.31169 515.82028 521.6783 524.9301 530.78817 535.3431">inAbbildung1.2).</tspan></text>
<text xml:space="preserve" transform="matrix(1 0 -0 1 0 841.89)" font-size="11.95517" font-family="LMRoman12"><tspan y="-20.306" x="294.711">6</tspan></text>
</g>
</svg>
