<?xml version="1.0" encoding="UTF-8" standalone="no"?>
<!DOCTYPE svg PUBLIC "-//W3C//DTD SVG 1.1//EN" "http://www.w3.org/Graphics/SVG/1.1/DTD/svg11.dtd">
<svg xmlns="http://www.w3.org/2000/svg" xmlns:xlink="http://www.w3.org/1999/xlink" version="1.1" width="595.276pt" height="841.89pt" viewBox="0 0 595.276 841.89">
<g enable-background="new">
<text xml:space="preserve" transform="matrix(1 0 -0 1 0 841.89)" font-size="24.78705" font-family="LMRoman17"><tspan y="-754.965" x="56.693 79.42273 96.60016 108.64667 124.55996 134.6235 147.28969 159.95587 172.62206 185.28824 196.6655 205.56406 211.76082 221.82436 228.02112 236.79573 243.63697 255.01422 267.68043 277.74397 297.84629 310.51246 320.576">2Anwendungsleitfadender</tspan><tspan y="-725.077" x="79.429 92.095188 98.29195 117.42755 130.09374 136.2905 146.35404 158.37575 165.86144 183.03887 189.23563 200.61289 211.99015 220.76476 226.96152 235.73613 248.40232 266.89344 279.55964 295.9191 311.48536 320.25999 331.63725 343.0145 351.78913 363.16639 382.30198 401.43757 407.63435 417.69789 426.4725 439.13868 451.80488">Simplex-AlgorithmusProgrammierung</tspan></text>
<text xml:space="preserve" transform="matrix(1 0 -0 1 0 841.89)" font-size="11.95517" font-family="LMRoman12"><tspan y="-685.712" x="56.693 60.913179 74.69749 81.380428 87.23846 90.490268 96.3483 101.5488 108.052417 114.55603 119.75653 130.28903 134.90373 139.78145 146.28507 149.53687 152.78867 159.29228 164.49279 169.0477 179.5802 188.0325 191.2843 199.88007 206.38368 212.24172 220.89727 227.40088 231.9558 237.81383 243.99465 248.54956 251.80136 256.41606 261.30574 267.80934 277.03874 284.84544 290.70347 295.2584 301.11643 306.31694 312.82054 318.02104 328.55354 333.75404 340.25764 348.8534 357.62849 364.13209 368.687 373.8875 380.3911 386.8947 396.78166 403.28526 408.48576 417.08155 420.33335 430.8778">ImFolgendenschildernwirdaspraktischeVorgehenzurNutzungderinC</tspan></text>
<text xml:space="preserve" transform="matrix(1 0 -0 1 0 841.89)" font-size="11.95517" font-family="LMMono12"><tspan y="-685.712" x="439.321 445.47795">++</tspan></text>
<text xml:space="preserve" transform="matrix(1 0 -0 1 0 841.89)" font-size="11.95517" font-family="LMRoman12"><tspan y="-685.712" x="455.664 458.9158 468.67124 475.17485 478.42665 483.62715 493.38258 498.58308 504.7639 509.31883 512.5706 517.7711 522.32608 526.881 532.0815">implementierten</tspan><tspan y="-671.266" x="56.693 65.468097 71.64892 79.778438 84.978939 91.482547 97.98616 104.48978 110.99339 119.445697 124.646198 131.14981 138.299 145.61556 151.47359 156.08829 162.5919 169.09552 177.55979 183.41782 189.27585 198.37374 201.62554 204.87734 211.38095 216.58145 222.43949 226.9944 232.1949 241.30475 250.41458 256.91819 261.4731 264.7249 274.48036 277.73216 282.93266 287.48759 293.99119 300.49479 306.3528 310.9675 317.4711 322.02604 327.88407 334.38768 337.63948 342.83998 352.5954 357.7959 366.89378 376.6492 379.901 384.45594 390.95954 394.21134 397.46315 401.03773 408.8325 415.3361 420.5366 427.7575 434.2611 437.5129 447.26835 453.77195 457.02375 462.22425 468.40507 472.30247 481.07756 484.32936 490.18739 496.0454 500.60035 503.85215 508.40708 514.9107 524.3553 530.8589 535.4736">AnwendungzurL&#x00f6;sungvonlinearenOptimierungsproblemenmithilfedesSimplex-Algorithmus.</tspan><tspan y="-656.82" x="56.693 65.63547 71.4935 79.38391 82.63572 92.41505 98.918659 104.119159 111.94979 120.724887 127.2285 133.73212 136.98392 140.23572 146.73934 153.24295 159.74657 168.89228 174.7503 178.0021 187.13585 192.99388 199.4975 205.35553 210.55603 217.05965 220.31145 223.56325 230.06687 235.26737 239.82228 248.2985 257.07359 263.57719 266.82899 272.687 279.1906 282.7652 289.2688 292.5206 298.37864 304.23667 308.7916 314.64964 324.40507 337.43623 344.2626 349.4631 354.0778 358.96748 365.47108 370.026 375.2265 378.4783 384.9819 392.8006 396.0524 405.84367 411.7017 416.25663 422.11466 428.94105 434.14155 441.9722 448.64317 454.5012 459.05613 472.08729 478.59089 481.84269 490.3189 496.98988 502.8479 506.0997 511.95774 520.4339 526.29196 532.14999">DasinderAbbildung2.2abgebildeteAblaufdiagrammbeschreibtingroberFormdieFolgevon</tspan><tspan y="-642.375" x="56.693 65.80284 72.62925 77.82975 82.38467 88.2427 92.797618 96.04942 101.907459 108.41107 113.61157 124.01257 130.51619 135.71669 144.22878 152.19092 156.74584 162.60387 168.4619 173.01682 178.87485 188.63027 198.38568 203.58618 209.767 216.27062 221.47112 229.99517 235.19567 241.69928 250.15158 257.46815 263.32618 267.94087 274.44447 280.94807 290.7035 295.904 299.1558 305.6594 310.8599 319.32417 322.57597 325.82777 332.33137 337.53187 343.3899 347.94483 353.14533 363.54634 372.65617 379.15977 383.7147 386.9665 396.72193 399.97373 405.17424 409.72917 416.23277 422.73637 428.5944 433.20909 439.0671 445.5707 449.1453 455.00334 460.86137 467.68775 472.88825">OperationendesProgrammcodeszurL&#x00f6;sungeinerlinearenOptimierungsaufgabe.</tspan></text>
<path transform="matrix(1,0,0,-1,56.693,277.786)" d="M 0 0 L 2.989 0 L 2.989 68.344 L 0 68.344 Z "/>
<text xml:space="preserve" transform="matrix(1 0 -0 1 0 841.89)" font-size="11.95517" font-family="LMRoman12"><tspan y="-624.212" x="69.644 78.586467 81.83827 90.03952 93.29133 98.49183 104.67265 112.88586 121.82832 127.686359 132.24127 137.44178 143.70627 150.20989 155.41039 162.96605 171.74115 177.93393 186.06345 191.26395 197.76757 204.27118 210.7748 217.27841 226.13719 229.38899 235.24703 239.86173 244.47643 252.04404 256.65873 259.91053 264.78825 274.2926 280.7962 286.98899 291.5439 296.74443 304.3001 309.5006 312.7524 319.256 324.4565 337.2127 349.23963 352.49143 358.99504 365.49864 371.04585 379.49815 387.1136 395.39854 400.59904 405.15397 409.7089 412.9607 418.1612 424.6648 429.27949 433.89418 440.07499 444.68968 449.2446 454.4451 467.2013 471.81599 476.3709 482.22895 486.78388 491.3388 496.5393 503.0429 509.31938 518.0945 524.27529 528.8302 534.0307">Die.exeDateiderAnwendungl&#x00e4;sstsichuntereinemWindowsBetriebssystemstarten.Unter</tspan><tspan y="-609.766" x="69.644 78.41909 88.17451 92.7892 97.34412 103.20215 109.705768 116.20938 121.40988 133.01836 138.21886 142.77378 146.34838 152.2064 155.4582 161.31624 170.97602 176.846 182.70403 192.3638 198.86742 204.06792 218.92819 225.43181 229.98673 235.84476 240.39968 250.05945 256.56306 261.76356 271.4353 280.2104 286.3912 294.52073 299.72123 306.22483 312.72843 319.23204 325.73564 336.69853 341.89903 345.15083 351.65443 361.95979 370.73487 377.23847 380.81306 385.36799 391.226 397.08406 407.3894 413.893 419.0935 428.76527 437.54035 440.79216 445.34709 450.54759 457.05119 461.66587 467.5239 471.09849 475.33064 483.46015 489.31819 493.8731 504.17848 510.0365 521.64498 528.14859 534.0066">Umst&#x00e4;ndenerfolgtvordemStartderAnwendungeineAbfragederVirensoftwareobdas</tspan><tspan y="-595.32" x="69.644 77.60614 82.16106 88.01909 93.87712 98.43204 104.29007 114.04549 129.27637 135.1344 138.3862 148.48833 154.3583 159.5588 164.11373 168.66864 173.22356 179.08159 185.5852 190.7857 197.28932 201.90402 210.35633 216.85994 221.40291 227.90653 231.15833 242.49182 247.69232 250.94412 257.44773 263.30577 268.50627 273.12095 277.67588 284.17948 287.75407 297.79643 305.9379 311.1384 315.69334 322.19694 327.39744 339.36454 345.54536 351.40339 357.90699 364.41059 373.16178 381.93687 397.17973 403.68333 406.93513 417.61109 420.86289 426.0634 432.2442 442.93214 451.8746 457.73265 462.28758 467.48808 476.2273 482.7309 488.9117 493.46665 498.66716 508.69755 513.898 517.14987 523.65347 528.85397">Programmalsvertrauensw&#x00fc;rdigeingestuftwerdenkann.Umdie.exeDateiuntereinem</tspan><tspan y="-580.875" x="69.644 75.50203 82.005649 88.50926 93.70976 98.26468 103.46518 119.04276 127.3277 132.5282 137.08312 141.63803 144.88983 150.09033 156.59395 161.20865 165.82335 172.00417 176.61887 181.17378 186.37429 201.96382 206.51874 211.71924 216.91974 225.20467 234.29059 241.60715 244.85895 251.05173 257.55534 269.55833 275.73915 282.24275 287.44325 297.8323 307.58775 313.44578 318.64628 327.7561 334.2597 344.64878 350.5068 357.0104 361.6251 366.8256 373.3292 376.90379 383.40739 389.91099 394.4659 399.6664 406.17 415.25596 424.6886 431.1922 435.8069 440.42158 445.62208 457.94786 463.14836 469.65196 475.52195 481.37998 491.75709 497.6151 502.8156 508.0161 511.2679 517.126 523.6296 528.8301 533.385">anderemBetriebssystem(z.B.LinuxodermacOS)auszuf&#x00fc;hren,m&#x00fc;ssenzuvorgeeignete</tspan><tspan y="-566.429" x="69.644 76.14761 81.02532 87.52893 92.08385 95.335659 99.89057 104.44549 113.54337 119.401409 125.25944 129.81436 135.6724 140.8729 147.37651 153.23455 162.98996 172.74538 177.94588 188.34688 196.4764 201.6769 206.23181 212.73543 217.93593 224.43955">Schrittevorgenommenwerden.</tspan><tspan y="-548.2" x="56.693 65.63547 68.887279 77.00484 83.50845 90.01207 93.26388 103.019298 109.5229 112.77471 117.97521 124.15604 127.407848 132.60834 138.78916 143.98966 155.37099 164.14609 170.32692 178.45644 183.65694 190.16056 196.66417 203.16779 209.6714 218.4465 225.2729 230.4734 236.97702 243.48064 249.98426 255.18476 262.65675 267.27143 270.52323 275.4129 284.83357 288.08537 297.506 304.0096 309.2101 321.8826 330.99244 335.54737 342.05097 348.55458 353.75508 361.239 367.7426 372.29756 377.49806 380.74986 385.95036 391.80839 396.42308 401.62358 408.12718 414.30799 418.52818 427.94883 434.45243 439.65293 452.33738 461.4472 466.00215 472.50575 479.00935 484.20985 491.68183 498.18544 502.74037 507.94087 511.19267 516.3931 522.25119 526.86587 532.06637">Die&#x00bb;Simplex.exe&#x00ab;Anwendungbe&#xfb01;ndetsichindemOrdner&#x00bb;release&#x00ab;.IndemOrdner&#x00bb;release&#x00ab;</tspan><tspan y="-533.754" x="56.693 63.5194 68.7199 75.22351 81.72713 88.23074 93.431247 103.98766 108.602359 111.854167 116.74383 127.30024 133.80385 139.98467 144.87433 155.43074 163.56026 168.76076 172.01256 176.56748 181.76798 186.32289 195.57619 204.35129 210.54407 215.09899 220.29949 224.8544 230.71244 235.26735 241.77097 248.27458 253.47509 262.07087 268.57447 275.07807 285.64643 288.89823 295.40184 298.65364 305.97019 314.91267 320.7707 325.32563 330.52613 333.77793 338.97843 345.48204 352.79859 361.74107 364.99287 370.19337 374.80805 384.0733 392.8484 399.0292 403.58415 408.78465 413.33958 419.1976 423.75254 430.25614 436.75975 441.96025 450.56797 457.07157 463.57518 474.14353 483.086 488.94404 493.49897 498.69947 501.95127 507.15177 517.7082 522.3229 525.5747 532.0783">be&#xfb01;ndensichnochweitereUnterordnerund.dllDateien.DieseUnterordnerundDateiensind</tspan><tspan y="-519.308" x="56.693 63.196615 69.05465 73.28677 81.41628 86.61678 93.12039 99.62401 102.87582 108.73385 117.61654 124.12015 139.50646 146.01007 151.8681 162.1137 168.61731 175.12093 178.37273 188.12815 194.63176 197.88356 203.08406 209.26488 212.51668 217.71718 223.898 229.0985 243.19365 251.15579 255.71071 261.56877 267.4268 271.98173 277.83976 287.59519 302.9815 308.83955 315.34315 319.95783 323.5324 330.036 336.5396 341.09455 346.29505 358.4415 363.642 375.7765 381.64649 387.50453 394.00813 400.51173 405.71223 412.21583 421.0985 430.041 435.2415 445.43928 451.2973 456.4978 461.1125 466.97053 476.40318 480.9581 491.7895 496.99 503.4936 509.35163 514.5521 521.0557 526.91378 531.4687 534.7205">notwendig,umdas&#x00bb;Simplex.exe&#x00ab;Programmausf&#x00fc;hrenzuk&#x00f6;nnen.Dergesamtezugeh&#x00f6;ri-</tspan><tspan y="-504.862" x="56.693 62.551034 72.37818 81.48802 87.99164 93.19214 96.44395 99.695758 104.896259 111.07708 117.58069 127.41979 134.24619 139.44669 145.9503 152.45392 158.95754 164.15804 173.3396 177.9543 181.2061 186.09577 197.22603 200.47783 211.6081 218.11171 223.31221 237.70624 246.81607 251.37099 257.8746 264.3782 269.5787 278.77226 285.27586 291.77946 295.03126 304.78669 311.29029 314.54209 319.74259 325.9234 332.427 340.30546 349.08055 355.91889 361.1194 370.30097 376.80458 380.05638 389.89549 398.83796 404.69599 409.25093 414.45143 422.32987 428.83348 435.33708 438.58888 448.3443 454.8479 458.0997 463.3002 469.48103 472.73283 479.23643 483.79136 489.64939 502.7403 505.9921 517.13436 523.63796 528.83847">geQuellcodebe&#xfb01;ndetsichindemOrdner&#x00bb;Simplex&#x00ab;.&#x00dc;berdieDatei&#x00bb;Simplex.pro&#x00ab;indem</tspan><tspan y="-490.416" x="56.693 65.80284 70.35776 76.861377 83.36499 88.56549 98.44046 104.94408 111.44769 114.6995 124.45492 130.95853 134.21033 139.41083 145.59165 152.09526 160.67906 163.93087 169.7889 174.4036 179.0183 188.89327 193.50797 196.75977 201.64943 213.46114 216.71294 231.80036 240.91019 245.4651 249.36249 257.8148 262.36973 267.57023 273.42826 277.9832 283.84123 293.7162 300.2198 306.07783 316.0245 321.88255 327.08305 331.69773 337.55577 346.9884 351.54335 362.06388 370.026 374.58094 380.76176 384.33634 389.53684 395.71766 405.59263 411.45066 418.27708 424.78068 429.98118 436.48478 445.06858 453.0307 462.9774 468.1779 474.3587 477.6105 482.2252 486.78013 490.03193 495.23243 499.78736 504.98786 516.8115 522.012 530.1535 535.354">Ordner&#x00bb;Simplex&#x00ab;,l&#x00e4;sstsichimQt-CreatordasgesamteProjekt&#x00f6;&#xfb00;nen.Esexistierenzwei</tspan><tspan y="-475.971" x="56.693 67.41679 73.27482 79.13285 82.38466 85.63647 90.514179 97.01779 102.875827 108.076328 111.32813 115.88305 121.08355 131.4726 137.97621 141.22801 150.33786 156.84148 163.3451 166.5969 176.35231 182.85593 186.10773 191.30823 197.48905 200.74085 205.94135 212.12216 217.32266 229.67237 234.87287 245.28583 249.90053 254.45545 260.31349 264.8684 269.42335 274.62385 281.12745">M&#x00f6;glichkeitendie&#x00bb;Simplex.exe&#x00ab;zustarten:</tspan></text>
<text xml:space="preserve" transform="matrix(1 0 -0 1 0 841.89)" font-size="11.95517" font-family="LMRoman12"><tspan y="-451.562" x="78.461">&#x2022;</tspan></text>
<text xml:space="preserve" transform="matrix(1 0 -0 1 0 841.89)" font-size="11.95517" font-family="LMRoman12"><tspan y="-451.562" x="93.543 100.046619 106.55023 109.80204 119.55746 126.061069 129.31287 134.51337 140.69419 143.94599 149.14649 155.3273 160.5278 172.8775 176.1293 186.5303 193.03392 198.23442 211.89919 221.00902 225.56394 232.06755 237.26805 245.72035 252.22397 256.7789 261.9794 265.2312 270.4317 276.28974 280.90443 286.10493 298.46656 303.08125 307.63618 313.4942 318.04914 322.60408 327.80458">&#x00bb;Simplex.exe&#x00ab;indemOrder&#x00bb;release&#x00ab;starten</tspan></text>
<text xml:space="preserve" transform="matrix(1 0 -0 1 0 841.89)" font-size="11.95517" font-family="LMRoman12"><tspan y="-437.116" x="78.461">&#x2022;</tspan></text>
<text xml:space="preserve" transform="matrix(1 0 -0 1 0 841.89)" font-size="11.95517" font-family="LMRoman12"><tspan y="-437.116" x="93.543 102.485469 108.3435 116.855579 123.35919 129.86281 133.11461 142.87003 149.37364 152.62545 157.82595 164.00676 167.25856 173.76218 178.3171 184.17513 196.53678 204.49892 209.05384 215.23465 218.80925 224.00975 230.19057 238.64287 245.14649 251.97289 257.17338 265.63764 272.14125 277.34175 287.74275 296.85258 301.4075 305.3049 313.7572 318.31214 323.51264 329.37068 333.9256 339.78364 348.23597 354.094 360.5976 365.21229 368.78688 375.29048 381.79408 386.349 391.5495">Das&#x00bb;Simplex.pro&#x00ab;Projekt&#x00fc;berdenQt-Creatorausf&#x00fc;hren</tspan><tspan y="-412.708" x="56.693 65.63547 68.887279 77.43523 83.93884 88.49376 94.35179 100.532619 105.08753 108.33934 112.95403 117.8437 124.347309 132.8833 141.6584 147.85118 155.9807 161.1812 167.68482 174.18843 180.69205 187.19567 196.40114 202.90476 208.10526 216.0674 224.02954 228.58446 234.44249 240.30052 244.85544 250.71347 260.4689 270.22434 278.19844 286.65074 289.90254 297.8049 303.66294 310.16654 316.67015 322.52818 329.03178 338.89479 345.39839 350.59889 358.57298 361.82478 371.6758 380.4509 386.9545 391.56919 396.45887 402.96247 409.46607 412.71788 417.2728 425.17518 431.0332 434.285 443.49049 450.31687 455.51737 460.13206 465.02174 471.52534 476.08027 479.33207 484.53257 491.347 496.5475 503.0511 508.2516 518.11459 528.8384 534.6964">DiepraktischeAnwendungdesProgrammswiranhanddesinAbschnitt1.3beschriebenenMa-</tspan><tspan y="-398.262" x="56.693 62.873826 66.12563 75.88105 79.13286 84.33336 88.888278 95.39189 101.89551 107.75354 112.36823 118.87184 123.42676 129.28479 135.7884 139.0402 144.2407 153.99613 162.22129 167.42179 171.9767 175.2285 181.08654 187.59015 192.14507 197.34557 201.90048 206.4554 213.31766 222.09276 227.95079 232.8285 242.94258 249.4462 254.6467 268.0126 274.5162 279.07115 284.92918 289.4841 297.6495 304.1531 309.3536 317.519 326.2941 332.48689 340.60444 345.80494 352.30854 358.81214 365.31575 371.81935 381.28785 389.74015 392.99195 397.54689 407.66096 414.16456 419.36506 427.53047 435.8154 441.0159 447.19673 453.70033 458.25526 463.45576 468.65626 476.82167 482.6797 489.1833 492.75788 498.6159 503.8164 507.391 513.249 517.80398 524.30758 529.50808 534.063">ximierungsproblemserl&#x00e4;utert.NachdemStartderAnwendungwirdderBenutzeraufgefordert</tspan><tspan y="-383.816" x="56.693 63.196615 66.44842 74.93659 83.711688 90.2153 95.4158 101.273838 107.77745 114.31693 120.174968 129.9782 137.6295 143.48754 148.04245 153.90048 163.6559 168.8564 173.41132 178.59987 183.15479 192.94608 197.50099 204.00461 209.20511 217.65741 224.20883 230.71245 235.26737 239.82228 246.3259 252.50672 257.06166 263.56526 268.12019 273.65544 279.51347 284.0684 287.3202 293.17823 299.68183 302.93363 308.13414 314.63774 319.19267 325.73213 334.5072 341.0108 346.86885 350.12065 355.32115 358.57295 363.45066 369.63148 376.13508 382.63868 388.4967 393.1114 399.615 404.8155 411.6299 416.8304 423.0232 429.83763 435.03813 441.54173 444.79353 451.29713 457.15516 463.65876 470.16236 476.0204 481.2209 491.0241 497.5277 504.0313 513.8226 523.00418 526.256 531.4565 534.7083">dieAnzahlanParametern(bzw.Strukturvariablen),UngleichungsnebenbedingungenundGlei-</tspan><tspan y="-369.37" x="56.693 61.570714 67.75153 74.25514 80.75876 86.61679 91.23148 97.73509 102.93559 109.750049 114.95055 121.143329 127.95778 133.15828 139.6619 142.9137 149.41732 155.27535 161.77896 168.28258 174.14061 179.34111 188.92916 195.43277 200.63327 208.27262 211.52442 214.77622 221.27983 226.48033 232.33837 236.89328 242.09378 251.68183 260.79167 267.29527 271.8502 275.102 284.85743 288.10923 293.30973 297.86466 304.36827 310.87187 316.7299 321.34458 327.2026 333.7062 337.2808 343.13883 348.99687 355.82325 364.09623 369.95426 376.45787 381.65837 388.16197 394.02 399.2205 406.05885 411.25935 420.83543 425.39036 430.00505 433.25685 438.45735 444.96095 453.24589 462.02098 468.52458 475.02818 478.27998 481.53178 488.03538 494.53898 501.04258 509.98506 515.8431 519.0949 524.95297 530.811 535.3659">chungsnebenbedingungenderlinearenOptimierungsaufgabeanzugeben(sieheAbbildung2.1a).</tspan><tspan y="-354.925" x="56.693 65.468097 71.326129 76.203838 86.16249 92.66611 97.86661 105.88853 114.17346 119.37396 123.988658 128.54358 134.40161 138.95653 142.20833 148.06636 154.56998 161.0736 170.38668 176.89029 182.09079 190.1127 198.07485 201.32665 207.83026 213.6883 219.54633 226.37273 235.04022 240.89826 247.72466 254.22827 259.42878 267.43876 272.05345 275.30525 280.19493 290.15357 296.65718 302.5152 310.5969 319.53938 322.79118 328.6492 334.50724 337.75904 343.61708 349.4751 353.04969 358.25019 364.75379 369.36848 373.9234 379.1239 387.13389 393.63749 400.95405 408.9162 412.8136 423.53739 429.7182 436.2218 441.4223 444.6741 451.3929 457.8965 463.09703 469.60063 476.10423 479.35603 484.55653 489.11146 494.31196 500.81556 509.26786 513.82278 518.43746 521.6893 526.8898 533.3934">NachderBest&#x00e4;tigungderEingabe&#x00f6;&#xfb00;netsichdasDiaglogfenster&#x00bb;LP-Modellde&#xfb01;nieren&#x00ab;(siehe</tspan><tspan y="-340.479" x="56.693 65.468097 71.97171 78.47533 81.727138 84.97894 91.48256 97.986179 104.48979 114.077838 119.93587 123.187679 129.04572 135.54933 140.10425 147.08606 155.86116 159.11296 164.31346 172.59839 181.05069 184.30249 188.8574 199.103 205.60662 210.80712 219.09204 227.37697 232.57747 238.77025 245.27387 249.82878 255.02928 260.22978 268.50276 275.00636 280.86439 286.06489 296.2985 302.15653 308.66014 312.2347 318.09275 323.29325 326.86784 332.72587 337.2808 343.7844 348.9849 353.53984 358.09477 365.07658 368.32838 378.57395 385.07756 390.27806 403.7635 410.58988 415.79039 420.3453 425.5458 428.7976 433.35255 441.7092 447.56724 453.42527 457.9802 464.4838 469.6843 476.1879 482.6915 485.9433 491.1438 495.69874 500.25367 505.45417 515.67587 522.99246 528.5396 534.72048">Abbildung2.1b).HierwirdderBenutzerdazuaufgefordert,indembereitsvorde&#xfb01;niertenLay-</tspan><tspan y="-326.033" x="56.693 62.551034 69.05464 77.79387 84.297489 87.54929 96.94606 105.72115 111.90198 117.10248 126.857898 132.0584 135.3102 140.5107 146.69153 151.24645 156.44695 162.95056 172.70598 178.56401 183.11893 187.67385 190.92565 201.29077 207.79439 214.298 224.98593 231.48955 236.69005 247.38993 256.4878 262.34584 268.84944 274.70747 279.90797 283.15977 287.7147 293.57273 298.12767 303.32817 309.50898 315.367 320.5675 326.74833 331.30326 337.1613 345.9005 352.4041 357.6046 366.4036 375.17869 380.37919 387.20558 392.40608 398.59886 405.41328 410.61378 417.11738 420.36918 426.87278 432.7308 439.2344 445.738 451.59605 456.21073 460.8254 467.00624 471.6209 476.17585 481.37635 491.13179 499.94273 506.44633 512.94998 523.6379 530.1415 533.3933">outdieKoe&#xfb03;zientenmatrixunddenKapazit&#x00e4;tenvektordesNebenbedingungssystemsunddie</tspan><tspan y="-311.587" x="56.693 63.842195 67.094 72.2945 75.54631 79.1209 85.62451 92.12813 98.30895 102.86387 106.11568 111.97371 122.37471 128.87833 134.07883 142.53113 145.78293 149.03473 155.53835 160.73885 166.59688 171.1518 176.3523 186.7533 197.47708 203.33512 209.51593 212.76773 222.52315 225.77495 230.97545 235.53037 242.03398 248.5376 254.39563 259.0103 264.86836 271.37196 274.94654 280.80458 286.6626 293.48899 302.59883 308.45686 314.96046 320.16096 326.66456 332.52259 337.72309 344.54948 349.74998 356.25358">ZielfunktionderlinearenMaximierungsaufgabeanzugeben.</tspan></text>
<path transform="matrix(1,0,0,-1,56.693,638.129)" d="M 0 0 L 2.989 0 L 2.989 97.899 L 0 97.899 Z "/>
<text xml:space="preserve" transform="matrix(1 0 -0 1 0 841.89)" font-size="11.95517" font-family="LMRoman12"><tspan y="-293.425" x="69.644 78.586467 81.83827 90.32645 93.578258 96.83006 103.33368 108.53418 114.39221 118.94713 127.44726 136.5571 143.06072 147.61563 150.86743 160.62285 163.87465 169.07515 173.63007 180.13368 186.6373 192.49533 197.11003 202.96807 209.47168 213.04628 218.90431 224.76235 231.58875 240.08887 249.5215 256.02513 260.6398 268.54216 274.41215 280.27018 293.31327 302.08836 308.26918 316.39869 321.59919 328.10279 334.60639 339.8069 347.64949 350.90129 360.69255 367.37547 373.2335 377.78843 390.8315 396.032 399.2838 405.7874 410.9879 418.8305 422.0823 425.3341 431.8377 437.0382 442.89625 447.45118 452.65168 462.4549 473.17869 479.0367 485.21754 488.46934 498.22477 501.47657 506.67707 511.232 517.7356 524.2392 530.0972 534.7119">DielineareOptimierungsaufgabemussvomAnwenderinFormeinerlinearenMaximierungs-</tspan><tspan y="-278.979" x="69.644 75.50203 82.005649 85.58024 91.43827 97.2963 104.1227 114.6313 120.489337 126.99295 132.85099 138.05149 143.90952 149.11002 155.93642 161.13692 172.94863 181.07814 186.27864 190.83356 197.33718 202.53768 209.04129 217.60118 226.37628 241.43979 247.9434 251.1952 261.7038 269.02037 274.8784 279.49308 285.99668 292.50028 303.6664 308.8669 312.1187 318.6223 323.8228 333.68586 336.93766 340.18946 346.69306 351.89356 357.7516 362.30653 367.50703 379.31874 390.0425 393.2943 399.7979 403.0497 412.80516 416.05696 421.25746 425.81239 432.31599 438.81959 444.6776 449.2923 455.15034 461.65394 465.22853 471.08656 476.94459 483.77098 494.27958 504.035 507.2868 517.14987 523.65347 528.85397">aufgabeangegebenwerden.UmdieL&#x00f6;sungeinerlinearenMinimierungsaufgabemitdem</tspan><tspan y="-264.533" x="69.644 72.895809 82.65122 89.15483 92.40664 97.60714 107.36256 112.56306 118.74387 123.29879 126.5506 131.7511 136.30602 140.86093 146.06143 156.54613 163.04975 166.30155 176.05696 182.56058 185.81238 191.01288 197.1937 201.09108 208.89781 214.09832 218.65323 222.22783 228.08586 234.58948 239.1444 244.3449 254.81763 260.01814 270.51478 277.34117 282.54167 287.0966 292.2971 297.18678 303.69038 310.19398 315.39448 321.89808 329.119 338.5636 345.0672 349.6819 358.27766 364.78126 370.63929 379.23506 384.43556 394.92024 401.42384 406.62434 420.3728 423.6246 426.8764 433.38 438.5805 444.43855 448.99348 454.19398 464.67866 475.40245 478.65425 485.15785 488.40965 498.16508 501.41688 506.61738 511.1723 517.6759 524.1795 530.03756 534.6522">implementiertenSimplex-Verfahrenzuberechnen,mussdaszudemlinearenMinimierungs-</tspan><tspan y="-250.087" x="69.644 76.14761 80.70253 86.56056 93.06418 96.31599 101.51649 114.643268 119.843769 126.02459 130.57952 135.19422 141.69783 146.25275 151.45325 156.33097 162.83458 168.03508 174.5387 181.04232 189.61417 196.11779 202.6214 208.47943 211.73123 220.30309 231.02687 236.8849 243.06572 246.31752 256.07295 259.32475 264.52525 269.08018 275.58378 282.08738 287.9454 292.5601 299.0637 303.61863 309.47666 315.98027 319.23207 324.43257 337.55937 343.4174 349.921 353.49559 359.3536 364.5541 369.1688 373.72373 378.92424 382.17604 385.42784 393.35414 401.4956 406.6961 411.25105 417.75465 422.95515 429.45875 436.06996 445.01243 448.26423 456.84803 464.65473 470.51277 475.0677 480.92573 486.12623 492.62983 497.83033 504.33393 508.9486 517.0781 522.2786 525.53048 530.14517 535.34567">problementsprechendedualeMaximierungsproblemaufgestelltwerden.DieVorgehensweise,</tspan><tspan y="-235.641" x="69.644 76.14761 89.78846 96.29207 102.1501 110.65022 117.15384 123.657459 129.51549 132.76729 141.85323 152.57701 158.75783 165.26145 170.46195 173.71375 180.85099 186.05149 196.44054 203.26694 208.46744 213.08214 217.63706 220.88886 230.64427 240.39969 245.60019 252.1038 259.24104 267.69334 270.94514 275.50007 285.8891 289.1409 299.52995 308.6278 314.48585 320.98945 324.24125 328.79618 333.99668 341.1339 346.99195 350.24375 356.10179 359.35359 369.09706 375.60066 383.5628 386.8146 393.3182 396.8928 403.3964 409.9 414.45494 420.95854 427.46214 437.2056 440.4574 450.84645 459.95628 466.78266 471.98316 476.5381 482.39613 486.95106 490.20286 496.06089 502.56449 511.0646 519.68429 524.88479 529.49948 534.69998">umdasdualeModellzubestimmen,wirdinKapitel2.5.1&#x00bb;Einf&#x00fc;hrunginOperationsRese-</tspan><tspan y="-221.195" x="69.644 75.50203 80.056949 84.934658 91.43826 102.98696">arch&#x00ab;[</tspan></text>
<text xml:space="preserve" transform="matrix(1 0 -0 1 0 841.89)" font-size="11.95517" font-family="LMRoman12" font-weight="bold"><tspan y="-221.195" x="106.244">?</tspan></text>
<text xml:space="preserve" transform="matrix(1 0 -0 1 0 841.89)" font-size="11.95517" font-family="LMRoman12"><tspan y="-221.195" x="112.595 118.9432 125.781558 130.98206 135.59676 140.47447 146.97809 151.533 154.7848 159.9853 166.79976 172.00026 178.50388 184.87598 193.81845 197.07025 205.36714 216.43762 221.63813 226.19304 230.74796 239.04485 245.54846 250.74897 258.40028 267.18733 273.35618 278.55668 288.3121 293.5126 296.7644 301.9649 308.15769 312.71263 317.91313 324.41673 334.17216 340.03019 344.5851 349.14006 352.39186 361.66905 368.17265 374.67625 384.28819 390.79179 395.99229 403.70335 412.81318 418.6712 425.1748 431.03285 436.23335 439.48515 444.04008 449.8981 454.45304 459.65354 465.83436 471.69239 476.89289 483.0737 487.62864 493.48667 498.0416 505.75267 512.2563 518.7599 523.3148 526.8894 532.0899">]beschrieben.DieWertederKoe&#xfb03;zientenmatrixunddesKapazit&#x00e4;tenvektorsd&#x00fc;rfen</tspan><tspan y="-206.75" x="69.644 76.14761 79.39942 84.27713 90.457958 98.910259 104.76829 108.020099 116.53217 124.81711 129.37203 135.87564 140.7653 151.15436 156.35486 159.60666 166.11028 171.9683 177.16881 180.42061 185.62111 190.23581 195.43631 205.83731 213.97878 219.17928 223.73419 230.23781 235.43831 245.82736 250.38228 255.58278 260.79527 269.0802 276.2294 282.733 285.9848 290.87449 297.04335 305.49568 311.3537 317.21174 326.96717 331.58186 337.43989 343.94349 350.44709 355.64759 360.2025 370.60353 376.46156 379.71336 385.57139 391.4294 395.98435">nichtalsBrucheingelesenwerden(z.B.nicht3/4sondern0.75).</tspan><tspan y="-187.856" x="56.693 64.499729 70.35776 74.912677 81.41629 87.27432 93.77794 100.281558 105.482059 111.98567">Vorhandene</tspan></text>
<text xml:space="preserve" transform="matrix(1 0 -0 1 0 841.89)" font-size="11.95517" font-family="CMSY10" font-style="italic"><tspan y="-187.856" x="120.09">&#x2265;</tspan></text>
<text xml:space="preserve" transform="matrix(1 0 -0 1 0 841.89)" font-size="11.95517" font-family="LMRoman12"><tspan y="-187.856" x="132.308 141.0831 146.2836 153.11 158.3105 164.49134 171.31774 176.51824 183.02185 186.27365 192.77727 198.6353 205.13892 211.64253 217.50057 222.70107 232.12175 241.56633 248.06995 252.68465 260.20448 266.70808 271.90858 279.38056 288.15565 294.34843 302.47795 307.66648 314.17008 320.67369 325.87419 333.34617 343.1016 346.3534 350.90834 355.46327 360.66377 363.91557 371.4473 382.17109 388.67469 391.92649 396.4814 399.73323 406.23683 409.48863 412.74043 418.92124 424.77928 429.3342 432.586 438.44404 447.8647 454.69108 459.89158 463.14338 469.64698 474.84748 482.31947 491.4293 498.26765 503.46815 508.02308 513.8811 520.3847 526.8883 532.0888">NebenbedingungenmussderAnwendermittelsMultiplikationbeiderOperanden</tspan><tspan y="-173.411" x="56.693 63.196615 68.39711 75.86909 84.64418 91.1478 97.00583 100.25764 105.45814 108.709949 113.59961 119.78043 126.28404 132.78766 138.64569 143.26039 149.764 154.95256 161.77896 166.97946 173.1603 179.9867 185.1872 191.69081 194.94261 201.44623 207.30426 213.80788 220.3115 226.16953 231.37003 240.79071 250.54613 253.79793">derUngleichungsnebenbedingungenmit</tspan></text>
<text xml:space="preserve" transform="matrix(1 0 -0 1 0 841.89)" font-size="11.95517" font-family="CMSY10" font-style="italic"><tspan y="-173.411" x="261.281">&#x2212;</tspan></text>
<text xml:space="preserve" transform="matrix(1 0 -0 1 0 841.89)" font-size="11.95517" font-family="CMR12"><tspan y="-173.411" x="270.58">1</tspan></text>
<text xml:space="preserve" transform="matrix(1 0 -0 1 0 841.89)" font-size="11.95517" font-family="LMRoman12"><tspan y="-173.411" x="279.357 282.6088">in</tspan></text>
<text xml:space="preserve" transform="matrix(1 0 -0 1 0 841.89)" font-size="11.95517" font-family="CMSY10" font-style="italic"><tspan y="-173.411" x="292.037">&#x2264;</tspan></text>
<text xml:space="preserve" transform="matrix(1 0 -0 1 0 841.89)" font-size="11.95517" font-family="LMRoman12"><tspan y="-173.411" x="304.261 313.03608 318.23658 325.06297 330.26347 336.44429 343.27067 348.47117 354.97477 358.22657 364.73017 370.5882 377.0918 383.5954 389.45344 394.65394 404.0746 408.62953 413.18446 419.04249 425.54609 430.16078 433.73536 439.59339 444.14833 453.90376 457.15556 462.35606 466.91099 472.11149 481.5441 486.09904 490.7137 493.9655 499.16603 505.66963 513.7872 522.96878 526.2206 531.4211 534.6729">Nebenbedingungentransformieren(sieheGlei-</tspan><tspan y="-158.965" x="56.693 61.570714 67.75153 74.25514 80.75876 90.59786 96.455898 99.7077 105.565738 110.12065 117.37744 125.339588 129.8945 133.4691 139.32714 143.88205 150.38567 155.58617 160.14109 163.39289 166.64469 171.5224 178.02602 187.21955 196.40111 199.65291 204.85341 208.10521 212.98293 219.16376 225.66738 232.17099 238.02902 242.64373 247.19864 252.39914 257.01383 261.56877 266.1237 269.3755 275.5563 280.11125 283.36305 289.22108 295.72468 300.92518 311.4218 319.55134 324.75184 329.30677 335.81037 341.01087 351.5075 357.36555 363.22358 376.97206 385.257 390.4575 396.6383 403.1419 407.69685 412.89735 418.09785 426.6458 429.8976 443.64607 452.58854 455.84034 461.69837 464.95018 470.8082 476.66624 480.2408 485.4413 491.94493 496.5596 501.11454 506.31504 514.863 520.721 527.2246 532.11428">chung1.6).ErforderlicheGleichungsrestriktionenwerdenvomBenutzerimDialogfensterauch</tspan><tspan y="-144.519" x="56.693 62.551034 65.80284 74.18341 83.36498 86.61679 91.81729 95.0691 99.95876 106.13958 112.64319 119.146808 125.00484 129.61954 136.12316 141.32366 148.1381 153.33861 159.53139 166.34584 171.54634 178.04996 181.30176 187.80538 193.6634 200.16703 206.67064 212.52867 217.72917 227.99868 233.19918 236.45098 242.95459 248.81262 254.01313 257.26493 262.46543 267.0801 272.2806 278.7842 285.81385 290.03404 300.31547 306.81907 310.07087 315.27137 319.88606 325.08656 338.60786 345.29078 351.1488 354.4006 361.40635 366.60685 371.16178 374.73637 380.5944 383.8462 389.70423 398.037 404.5406 407.7924 416.75877 423.26237 429.1204 433.3645 441.49403 446.69453 453.19813 459.70173 462.95353 468.81156 477.766 486.54109 496.2965 499.8711 505.72914 510.28407 519.72866 526.23226 532.73587">alsGleichungsnebenbedingungeneingelesen.IndiesemFallerfolgtdienotwendigeUmformung</tspan><tspan y="-130.073" x="56.693 63.196615 69.05465 73.93236 84.668109 93.84968 97.10149 102.30199 105.553798 110.44346 116.61232 123.11594 129.61956 139.70972 145.56775 148.81955 158.92166 165.42528 171.9289 176.48381 181.36153 192.09728 198.60089 201.85269 211.29727">nachGleichung1.7durchdieC</tspan></text>
<text xml:space="preserve" transform="matrix(1 0 -0 1 0 841.89)" font-size="11.95517" font-family="LMMono12"><tspan y="-130.073" x="219.747 225.9039">++</tspan></text>
<text xml:space="preserve" transform="matrix(1 0 -0 1 0 841.89)" font-size="11.95517" font-family="LMRoman12"><tspan y="-130.073" x="236.291 245.0661 251.24694 259.37648 264.57698 271.08058 277.58418 284.08778 290.59138 296.4494 303.93333 312.7084 318.56645 323.45613 334.1799 340.6835 345.884 354.683 362.96797 368.16847 372.78315 377.33808 383.1961 387.75105 391.00285 396.86088 403.36448 409.86808 419.95823 426.46183 431.66233 440.46134 448.42347 451.67527 458.17887 464.0369 469.89494 476.7213 486.1659 492.02394 498.85035 505.35395 510.55445 519.3415 523.9562 527.208 532.09768">Anwendung.NachderBest&#x00e4;tigungderEingabe&#x00f6;&#xfb00;netsich</tspan><tspan y="-115.627" x="56.693 63.196615 69.05465 77.698238 85.66038 90.215297 96.073329 101.27383 107.777439 114.28105 117.53286 122.14755 125.722148 130.92264 137.42626 142.04096 146.59587 151.79637 160.39214 166.89575 174.21231 180.07035 184.68505 191.18866 197.69228 207.59116 214.09477 219.29528 227.95082 235.26738 243.22953 247.1269 257.8507 264.03153 270.53514 275.73564 278.98744 282.23924 286.8539 293.3575 300.65016 309.42524 312.67704 317.87754 326.46138 334.60285 339.80335 344.35829 350.86189 356.06239 366.59489 373.09849 376.35029 385.5916 392.418 397.6185 402.17344 407.37394 412.25166 418.75526 425.25886 430.45936 435.01429 440.21479 450.74729 458.2312 464.08924 470.59284 473.84465 479.04515 484.90318 491.40678 500.05036 506.55397 513.05758 523.602 530.1056 533.3574">dasErgebnisfenster&#x00bb;L&#x00f6;sungdesLP-Modells&#x00ab;.HierwerdendieberechnetenTableausunddie</tspan><tspan y="-101.181" x="56.693 63.196615 69.05465 74.25515 80.75876 86.61679 91.81729 98.32091 104.17894 108.73386 111.985668 117.8437 123.0442 133.2539 141.53884 147.39687 152.01157 155.26337 159.87807 163.12987 168.9879 173.6026 180.10622 186.60984 192.46787 197.66837 207.89005 213.74808 220.2517 224.8664 230.72443 235.92493 241.78296 246.98346 253.80986 259.01036 269.22007 273.775 278.38969 281.64149 286.84199 293.34559 302.26414 311.0392 317.54283 324.04643 327.29823 330.55003 337.05363 343.55723 350.06083 359.6369 365.49494 368.74674 374.60478 379.80528 384.3602 391.3181 400.2606 403.5124 412.43095 421.20603 427.70964 433.56767 438.1226 444.6262 450.81898 457.32258 463.82618 473.37837 479.88197 485.08247 493.35545 500.83937 506.6974 513.201 516.4528 521.6533 527.51138 534.01498">dazugeh&#x00f6;rigenBasisl&#x00f6;sungenausgegeben(sieheAbbildung2.1c).DieAnordnungderTableaus</tspan><tspan y="-86.736" x="56.693 61.24792 64.499729 69.37743 75.55825 80.11317 85.31367 94.74629 99.360988 102.61279 107.4905 118.87182 125.37543 131.23346 136.12313 147.50446 154.00807 159.20858 168.65316 176.45989 182.31792 186.87284 190.12464 195.98267 201.8407 211.91892 215.17072 226.564 233.06761 238.26811 247.70075 255.19663 261.05467 267.86909 273.06959 276.32139 279.57319 289.66337 295.5214 298.7732 304.63124 312.7727 321.71519 324.96699 335.05717">richtetsichnachderVorlageinderTabelle1.1.DieC</tspan></text>
<text xml:space="preserve" transform="matrix(1 0 -0 1 0 841.89)" font-size="11.95517" font-family="LMMono12"><tspan y="-86.736" x="343.49 349.6469">++</tspan></text>
<text xml:space="preserve" transform="matrix(1 0 -0 1 0 841.89)" font-size="11.95517" font-family="LMRoman12"><tspan y="-86.736" x="360.681 369.4561 375.6369 383.76643 388.96693 395.47053 401.97413 408.47773 414.98133 425.71708 428.96888 432.22068 437.42118 440.99577 446.19627 450.7512 460.1958 463.7704 470.274 479.70664 484.90715 488.15895 494.66255 504.75273 508.00453 511.25633 517.75997 522.96047 528.8185 533.3734">Anwendungliefertf&#x00fc;reinelineare</tspan><tspan y="-72.29" x="56.693 65.80284 72.30646 76.861377 80.11318 89.8686 93.12041 98.32091 102.875827 109.37944 115.88306 121.74109 126.35578 132.21382 138.71744 142.29204 148.15007 154.0081 160.8345 166.035 175.01334 184.76876 188.02056 198.302 204.16004 209.36054 215.86415 221.72219 233.95233 239.15283 247.2943 252.4948 261.46119 267.96479 272.5197 277.07466 283.57826 289.75907 294.314 300.8176 305.37254 310.90779 316.7658 321.32075 324.57255 330.43058 336.93418 340.18598 345.38648 357.60466 364.10826 370.61186 382.84199 388.71199 393.91249 397.16429 403.66789 408.86839 421.08656 430.26814 433.51994 438.72044 441.97224 446.8619 453.04273 459.54634 466.04994 471.90797 476.52265 483.02626 488.22676 495.04118 500.24168 506.43446 513.2489 518.4494 524.953 528.20486 534.70846">Optimierungsaufgabe,mitgenauzweiStrukturvariablenundkeinenGleichungsnebenbedin-</tspan><tspan y="-57.844" x="56.693 62.551034 69.05464 75.55826 81.41629 86.61679 93.12041 100.15005 105.35055 111.85416 116.46885 122.32688 126.8818 132.08229 135.33409 138.58589 143.47556 153.757 158.9575 162.2093 168.71292 177.70322 183.56125 188.11617 193.9742 200.47782 205.09252 209.97023 216.47385 225.45218 232.76874 238.62677 243.24147 249.74509 256.2487 265.8965 270.45146 275.06614 278.31794 283.51844 290.02204 299.01234 304.87037 308.12217 313.9802 320.4838 325.03874 332.08033 336.3005 346.58195 353.08555 358.28605 366.63078 372.4888 377.04374 382.90177 389.40538 394.02006 398.90974 405.41334 410.61384 420.89527 429.83775 435.69578 440.2507 444.8654 449.42033 454.62083 457.87263 461.12443 467.62803 474.13163 483.77946 491.90898 497.10948 501.6644 508.168 513.36849 523.6499 530.1535 533.40536">gungen,zus&#x00e4;tzlicheinegra&#xfb01;scheL&#x00f6;sung(siehe2.1d).Indergra&#xfb01;schenDarstellungwerdendie</tspan></text>
<text xml:space="preserve" transform="matrix(1 0 -0 1 0 841.89)" font-size="11.95517" font-family="LMRoman12"><tspan y="-20.306" x="291.785 297.64305">15</tspan></text>
</g>
</svg>
